<?xml version="1.0" encoding="UTF-8"?>
<svg width="120px" height="120px" viewBox="0 0 120 120" version="1.1" xmlns="http://www.w3.org/2000/svg" xmlns:xlink="http://www.w3.org/1999/xlink">
    <title>02.Icons/Illustrative/01. Profils/Messagerie</title>
    <g id="02.Icons/Illustrative/01.-Profils/Messagerie" stroke="none" stroke-width="1" fill="none" fill-rule="evenodd">
        <g id="Messagerie" transform="translate(2.000000, 6.000223)">
            <path d="M63.291251,31.6450689 C63.291251,49.122 49.1231133,63.2901377 31.6461822,63.2901377 C14.1681377,63.2901377 0,49.122 0,31.6450689 C0,14.1681377 14.1681377,0 31.6461822,0 C49.1231133,0 63.291251,14.1681377 63.291251,31.6450689" id="Fill-1" fill="#F2F3F7"></path>
            <polygon id="Fill-3" fill="#FFFFFF" points="17.6428161 71.587505 97.186344 71.587505 97.186344 18.0066498 17.6428161 18.0066498"></polygon>
            <polygon id="Fill-5" fill="#EDEEF3" points="20.5875532 67.9224485 93.1839508 67.9224485 93.1839508 21.5169546 20.5875532 21.5169546"></polygon>
            <path d="M97.1862326,71.5870597 L97.1862326,76.0648414 C97.1862326,77.7058783 95.8424528,79.0496581 94.2014159,79.0496581 L62.8558307,79.0496581 L50.9154507,79.0496581 L19.5698655,79.0496581 C17.9288286,79.0496581 16.5850488,77.7058783 16.5850488,76.0648414 L16.5850488,71.5870597 L22.5557955,71.5870597 L97.1862326,71.5870597 Z" id="Fill-6" fill="#1D71B8"></path>
            <polygon id="Fill-7" fill="#969CBB" points="63.9693756 85.0206275 65.0826977 90.9913742 48.6879157 90.9913742 49.8012378 85.0206275 50.91456 79.0498808 62.8560534 79.0498808"></polygon>
            <path d="M96.1292446,70.5286243 L22.5553501,70.5286243 C21.970856,70.5286243 21.4965808,71.0028996 21.4965808,71.5862804 C21.4965808,72.1707745 21.970856,72.6439364 22.5553501,72.6439364 L96.1292446,72.6439364 L96.1292446,76.1041417 C96.1292446,77.1462112 95.2820064,77.9923361 94.2410502,77.9923361 L19.5304539,77.9923361 C18.4894976,77.9923361 17.6422595,77.1462112 17.6422595,76.1041417 L17.6422595,20.7987505 C17.6422595,19.7566809 18.4894976,18.9094428 19.5304539,18.9094428 L94.2410502,18.9094428 C95.2820064,18.9094428 96.1292446,19.7566809 96.1292446,20.7987505 L96.1292446,70.5286243 Z M64.025487,89.9338295 L49.7460171,89.9338295 L51.8591025,80.1076481 L61.9124015,80.1076481 L64.025487,89.9338295 Z M94.2410502,16.7941307 L19.5304539,16.7941307 C17.3283026,16.7941307 15.5269474,18.5965992 15.5269474,20.7987505 L15.5269474,76.1041417 C15.5269474,78.3062929 17.3283026,80.1076481 19.5304539,80.1076481 L49.7437904,80.1076481 L47.630705,89.9338295 L41.9594419,89.9338295 C41.3760611,89.9338295 40.9017859,90.4069914 40.9017859,90.9914855 C40.9017859,91.5748663 41.3760611,92.0491415 41.9594419,92.0491415 L71.8120621,92.0491415 C72.3954429,92.0491415 72.8697182,91.5748663 72.8697182,90.9914855 C72.8697182,90.4069914 72.3954429,89.9338295 71.8120621,89.9338295 L66.1407991,89.9338295 L64.0277136,80.1076481 L94.2410502,80.1076481 C96.4420881,80.1076481 98.2445567,78.3062929 98.2445567,76.1041417 L98.2445567,20.7987505 C98.2445567,18.5965992 96.4420881,16.7941307 94.2410502,16.7941307 L94.2410502,16.7941307 Z" id="Fill-8" fill="#343852"></path>
            <path d="M76.7885008,36.2519959 L76.7885008,57.9584379 C76.7885008,59.043927 75.9000697,59.9312448 74.815694,59.9312448 L61.002706,59.9312448 L39.296264,59.9312448 C38.2107749,59.9312448 37.3223438,59.043927 37.3223438,57.9584379 L37.3223438,36.2519959 C37.3223438,35.1665068 38.2107749,34.2791891 39.296264,34.2791891 L61.002706,34.2791891 L74.815694,34.2791891 C75.9000697,34.2791891 76.7885008,35.1665068 76.7885008,36.2519959" id="Fill-9" fill="#FFFFFF"></path>
            <path d="M72.5936143,54.8055096 L64.8916516,47.1046603 L72.5936143,39.4038109 C72.9587839,39.0386413 72.9587839,38.4430139 72.592501,38.0745043 C72.2251046,37.7093346 71.6305906,37.7093346 71.2631943,38.0745043 L57.7018172,51.6369947 C57.3466674,51.9932578 56.7643999,51.9932578 56.4092501,51.6369947 L42.847873,38.0745043 C42.4838167,37.7093346 41.887076,37.7104479 41.5185664,38.0756176 C41.1522834,38.4430139 41.1522834,39.0386413 41.5185664,39.4038109 L49.2194157,47.1046603 L41.5185664,54.8055096 C41.1522834,55.1706793 41.1522834,55.7674199 41.5185664,56.1359296 C41.8748295,56.489966 42.4916099,56.4910793 42.847873,56.1359296 L50.5487223,48.4339669 L55.0799435,52.9663014 C56.1320329,54.0161642 57.9790344,54.0161642 59.0311238,52.9663014 L63.562345,48.4339669 L71.2631943,56.1359296 C71.4413258,56.3129478 71.6773501,56.4109201 71.9278476,56.4109201 C72.1794584,56.4109201 72.4143694,56.3129478 72.5936143,56.1348162 C72.9587839,55.7674199 72.9587839,55.1706793 72.5936143,54.8055096 L72.5936143,54.8055096 Z" id="Fill-10" fill="#969CBB"></path>
            <path d="M81.0300355,36.3403937 C81.0300355,39.5144752 78.4560347,42.088476 75.2819533,42.088476 C72.1067585,42.088476 69.533871,39.5144752 69.533871,36.3403937 C69.533871,33.1663122 72.1067585,30.5923114 75.2819533,30.5923114 C78.4560347,30.5923114 81.0300355,33.1663122 81.0300355,36.3403937" id="Fill-11" fill="#D20050"></path>
            <path d="M75.2819533,42.0885873 C72.1067585,42.0885873 69.533871,39.5145865 69.533871,36.340505 C69.533871,33.1653103 72.1067585,30.5924228 75.2819533,30.5924228 C78.4571481,30.5924228 81.0300355,33.1653103 81.0300355,36.340505 C81.0300355,39.5145865 78.4571481,42.0885873 75.2819533,42.0885873 L75.2819533,42.0885873 Z M75.7829482,57.9578813 C75.7829482,58.4911626 75.3498659,58.9264715 74.8154713,58.9264715 L39.2960413,58.9264715 C38.7616467,58.9264715 38.3285644,58.4911626 38.3285644,57.9578813 L38.3285644,36.2525526 C38.3285644,35.7181579 38.7616467,35.2839623 39.2960413,35.2839623 L67.7224959,35.2839623 C67.674623,35.6302055 67.6412233,35.980902 67.6412233,36.340505 C67.6412233,40.5533161 71.0691423,43.981235 75.2819533,43.981235 C75.4511782,43.981235 75.6170632,43.9667618 75.7829482,43.9556286 L75.7829482,57.9578813 Z M82.9226832,36.340505 C82.9226832,32.127694 79.4947643,28.6997751 75.2819533,28.6997751 C72.160198,28.6997751 69.4726383,30.5835162 68.2891768,33.2733025 L39.2960413,33.2733025 C37.6538912,33.2733025 36.3179046,34.6092891 36.3179046,36.2525526 L36.3179046,57.9578813 C36.3179046,59.6000314 37.6538912,60.9371313 39.2960413,60.9371313 L74.8154713,60.9371313 C76.4587348,60.9371313 77.7947214,59.6000314 77.7947214,57.9578813 L77.7947214,43.5481526 C80.7750848,42.5060831 82.9226832,39.6726782 82.9226832,36.340505 L82.9226832,36.340505 Z" id="Fill-12" fill="#343852"></path>
            <polygon id="Fill-13" fill="#FFFFFF" points="74.7252922 35.0258942 73.9559866 35.0258942 73.9559866 33.8357529 76.1269648 33.8357529 76.1269648 39.2398186 74.7252922 39.2398186"></polygon>
            <path d="M80.6734385,25.9758098 L80.6734385,23.6578731 C80.6734385,23.0744923 80.1991632,22.600217 79.6157824,22.600217 C79.0312883,22.600217 78.5581264,23.0744923 78.5581264,23.6578731 L78.5581264,25.9758098 C78.5581264,26.5591906 79.0312883,27.0334658 79.6157824,27.0334658 C80.1991632,27.0334658 80.6734385,26.5591906 80.6734385,25.9758098 M84.2494292,28.5820969 L85.8893527,26.9421734 C86.3023953,26.5291309 86.3023953,25.8600243 85.8893527,25.4458684 C85.4751969,25.0328259 84.8060903,25.0328259 84.3930478,25.4458684 L82.7531242,27.085792 C82.3400817,27.4988345 82.3400817,28.1690544 82.7531242,28.5820969 C82.9602022,28.7880615 83.2307394,28.8916005 83.5012767,28.8916005 C83.771814,28.8916005 84.0423513,28.7880615 84.2494292,28.5820969 M87.3778645,33.0342722 L85.0588144,33.0342722 C84.4754336,33.0342722 84.0011584,32.559997 84.0011584,31.9766162 C84.0011584,31.3921221 84.4754336,30.9178468 85.0588144,30.9178468 L87.3778645,30.9178468 C87.9623586,30.9178468 88.4366338,31.3921221 88.4366338,31.9766162 C88.4366338,32.559997 87.9623586,33.0342722 87.3778645,33.0342722" id="Fill-14" fill="#343852"></path>
        </g>
    </g>
</svg>