<?xml version="1.0" encoding="utf-8"?><svg xmlns="http://www.w3.org/2000/svg" width="32" height="32" viewBox="0 0 32 32"><path d="M16 1.333c8.1 0 14.667 6.566 14.667 14.667S24.101 30.667 16 30.667C7.9 30.667 1.333 24.101 1.333 16S7.899 1.333 16 1.333zM16 4C9.373 4 4 9.373 4 16s5.373 12 12 12 12-5.373 12-12S22.627 4 16 4zm-.943 15.057a1.333 1.333 0 111.886 1.885 1.333 1.333 0 01-1.886-1.885zM16 9.333c.736 0 1.333.597 1.333 1.333v5.333a1.333 1.333 0 01-2.666 0v-5.333c0-.736.597-1.333 1.333-1.333z"/></svg>