<?xml version="1.0" encoding="utf-8"?><svg xmlns="http://www.w3.org/2000/svg" width="32" height="32" viewBox="0 0 32 32"><path d="M25.333 2.667a4 4 0 014 4v18.667a4 4 0 01-4 4H6.666a4 4 0 01-4-4V6.667a4 4 0 014-4h18.667zm0 2.666H6.666c-.736 0-1.333.597-1.333 1.333v18.667c0 .736.597 1.333 1.333 1.333h18.667c.736 0 1.333-.597 1.333-1.333V6.666c0-.736-.597-1.333-1.333-1.333zm-9.333 4c.736 0 1.333.597 1.333 1.333v4h4c.684 0 1.248.515 1.324 1.177l.009.156c0 .736-.597 1.333-1.333 1.333h-4v4c0 .684-.515 1.248-1.177 1.324l-.156.009a1.333 1.333 0 01-1.333-1.333v-4h-4a1.332 1.332 0 01-1.324-1.177l-.009-.156c0-.736.597-1.333 1.333-1.333h4v-4c0-.684.515-1.248 1.177-1.324L16 9.333z"/></svg>