<svg viewBox="0 0 128 128" xmlns="http://www.w3.org/2000/svg"><g fill="none" fill-rule="evenodd"><rect fill="#fff" height="128" rx="24" width="128"/><g fill-rule="nonzero"><path d="m36.42 47.91c-3.3-8.003-12.331-11.967-20.148-8.825l17.189 41.7c3.301 8.041 12.332 12.005 20.149 8.864zm-20.376 19.935c-4.44 0-8.044 3.553-8.044 7.929v14.922h.987c8.347 0 15.064-6.657 15.064-14.848v-.074c0-4.376-3.567-7.93-8.007-7.93z" fill="#6f7072"/><path d="m57.063 56.326v26.479c0 4.375 3.604 7.928 8.044 7.928s8.044-3.553 8.044-7.928v-6.807c0-1.047-.38-2.057-1.062-2.805z" fill="#d20050"/><path d="m107.985 90.696c-7.21 0-13.053-5.348-13.053-11.968v-17.503c3.339 3.329 7.968 5.31 12.863 5.535h.152c7.21 0 13.053 5.348 13.053 11.968.038 6.62-5.806 11.968-13.015 11.968z" fill="#4171b1"/><path d="m88.253 73.343v-27.414c0-4.376-3.604-7.929-8.044-7.929s-8.044 3.553-8.044 7.929v7.592c0 1.084.417 2.132 1.138 2.954z" fill="#d20050"/><path d="m120.127 58.72c-1.973-1.983-5.35-3.254-8.462-3.292h-.986c-5.199 0-9.448-3.89-9.448-8.714.037-4.824 4.25-8.714 9.486-8.714 5.198 0 9.448 3.89 9.448 8.714v12.006z" fill="#4171b1"/></g></g></svg>