<?xml version="1.0" encoding="UTF-8"?>
<svg width="120px" height="120px" viewBox="0 0 120 120" version="1.1" xmlns="http://www.w3.org/2000/svg" xmlns:xlink="http://www.w3.org/1999/xlink">
    <title>02.Icons/Illustrative/Autres Intranet</title>
    <g id="02.Icons/Illustrative/Autres-Intranet" stroke="none" stroke-width="1" fill="none" fill-rule="evenodd">
        <path d="M103.3506,45.7504 C103.3506,29.8444 90.4556,16.9504 74.5506,16.9504 C58.6456,16.9504 45.7506,29.8444 45.7506,45.7504 C45.7506,61.6564 58.6456,74.5504 74.5506,74.5504 C90.4556,74.5504 103.3506,61.6564 103.3506,45.7504" id="Fill-1" fill="#F2F3F7"></path>
        <path d="M100.4707,61.5904 L65.5067,61.5904 L52.9507,61.5904 C51.3667,61.5904 50.0707,62.8864 50.0707,64.4704 L50.0707,71.0514 L50.0707,90.3904 L55.8307,90.3904 L103.3507,90.3904 L103.3507,64.4704 C103.3507,62.8864 102.0537,61.5904 100.4707,61.5904" id="Fill-3" fill="#FFFFFF"></path>
        <path d="M103.3506,90.3904 L103.3506,93.2704 C103.3506,94.8544 102.0536,96.1504 100.4706,96.1504 L80.3106,96.1504 L73.1106,96.1504 L52.9506,96.1504 C51.3676,96.1504 50.0706,94.8544 50.0706,93.2704 L50.0706,90.3904 L55.8306,90.3904 L103.3506,90.3904 Z" id="Fill-5" fill="#1D71B8"></path>
        <path d="M49.1201,64.4699 C49.1201,62.3589 50.8391,60.6399 52.9501,60.6399 L66.2641,60.6399 C69.6601,56.0819 71.6711,50.4309 71.6711,44.3099 C71.6711,29.1999 59.4211,16.9499 44.3111,16.9499 C29.2001,16.9499 16.9511,29.1999 16.9511,44.3099 C16.9511,59.4209 29.2001,71.6699 44.3111,71.6699 C45.9531,71.6699 47.5581,71.5179 49.1201,71.2399 L49.1201,64.4699 Z" id="Fill-7" fill="#FFFFFF"></path>
        <polygon id="Fill-9" fill="#D20050" points="73.111 103.35 80.311 103.35 80.311 96.15 73.111 96.15"></polygon>
        <path d="M45.2607,32.2723 C48.9727,32.2073 52.5317,31.7623 55.8717,30.9473 C57.0207,34.7253 57.6617,38.9773 57.7437,43.3603 L45.2607,43.3603 L45.2607,32.2723 Z M43.3607,56.3323 C39.6497,56.3943 36.0827,56.8503 32.7467,57.6653 C31.5997,53.8873 30.9587,49.6383 30.8777,45.2613 L43.3607,45.2613 L43.3607,56.3323 Z M43.3607,70.6433 C39.3707,70.0813 35.6957,65.9843 33.3437,59.4753 C36.4947,58.7193 39.8597,58.2933 43.3607,58.2333 L43.3607,70.6433 Z M37.4667,69.8193 C37.2217,69.7513 36.9777,69.6833 36.6657,69.5823 C36.3457,69.5023 36.0277,69.3953 35.7237,69.2903 C35.4037,69.1793 35.0697,69.0543 34.7387,68.9243 C34.5237,68.8433 34.2947,68.7493 34.0607,68.6463 C33.2647,68.3173 32.4837,67.9403 31.7187,67.5163 C31.1667,67.2283 30.5827,66.8823 29.8877,66.4293 C28.9807,65.8283 28.2067,65.2603 27.5147,64.6833 C27.3017,64.5113 27.0887,64.3253 26.8567,64.1073 C26.3487,63.6743 25.8727,63.2073 25.5127,62.8463 C25.4027,62.7363 25.2877,62.6113 25.1737,62.4883 C27.0467,61.4683 29.1647,60.6213 31.5017,59.9603 C33.0517,64.3023 35.1907,67.6943 37.6677,69.8683 C37.6007,69.8513 37.5317,69.8373 37.4667,69.8193 L37.4667,69.8193 Z M22.1747,58.7063 L21.6637,57.8863 C20.8827,56.5993 20.1867,55.1633 19.5947,53.6193 L19.5547,53.5153 C19.4637,53.2793 19.3747,53.0523 19.2817,52.7203 C19.1147,52.2723 18.9657,51.7803 18.8227,51.2013 C18.7627,51.0073 18.6997,50.8023 18.6457,50.5133 C18.5527,50.1743 18.4747,49.8333 18.4077,49.4213 C18.3437,49.1463 18.2907,48.8733 18.2337,48.4903 C18.2137,48.4133 18.2047,48.3363 18.1927,48.2263 C18.1377,47.8623 18.0827,47.5003 18.0477,47.0433 C18.0117,46.8103 17.9997,46.5643 17.9797,46.2313 C17.9577,46.0413 17.9467,45.8413 17.9337,45.6463 L17.9247,45.4463 C17.9227,45.3843 17.9227,45.3233 17.9207,45.2613 L28.9777,45.2613 C29.0587,49.8013 29.7207,54.2173 30.9097,58.1553 C28.3147,58.8943 25.9617,59.8573 23.8907,61.0283 C23.8057,60.9263 23.7237,60.8343 23.6357,60.7193 C23.4067,60.4343 23.1747,60.1363 22.9187,59.7693 C22.6657,59.4233 22.4107,59.0743 22.1747,58.7063 L22.1747,58.7063 Z M37.6247,18.7693 C35.1667,20.9373 33.0527,24.3213 31.5027,28.6603 C29.1697,28.0013 27.0517,27.1543 25.1767,26.1343 C28.5887,22.5383 32.9077,20.0063 37.6247,18.7693 L37.6247,18.7693 Z M63.4447,26.1333 C61.5717,27.1533 59.4547,28.0003 57.1187,28.6603 C55.5687,24.3213 53.4537,20.9373 50.9957,18.7693 C55.7127,20.0063 60.0317,22.5373 63.4447,26.1333 L63.4447,26.1333 Z M64.7167,27.5993 C68.3807,32.0473 70.4697,37.5783 70.6777,43.3603 L59.6437,43.3603 C59.5627,38.8183 58.9007,34.4023 57.7107,30.4653 C60.3007,29.7273 62.6487,28.7673 64.7167,27.5993 L64.7167,27.5993 Z M45.2607,17.9723 C49.2527,18.5323 52.9067,22.5983 55.2727,29.1353 C52.1197,29.8923 48.7627,30.3083 45.2607,30.3723 L45.2607,17.9723 Z M32.7497,30.9473 C36.0927,31.7623 39.6507,32.2073 43.3607,32.2723 L43.3607,43.3603 L30.8777,43.3603 C30.9587,38.9793 31.6007,34.7273 32.7497,30.9473 L32.7497,30.9473 Z M43.3607,17.9723 L43.3607,30.3723 C39.8597,30.3083 36.5057,29.8933 33.3487,29.1353 C35.7147,22.5983 39.3677,18.5323 43.3607,17.9723 L43.3607,17.9723 Z M17.9427,43.3603 C18.1507,37.5793 20.2397,32.0483 23.9047,27.6003 C25.9737,28.7683 28.3237,29.7293 30.9097,30.4653 C29.7207,34.4053 29.0587,38.8213 28.9777,43.3603 L17.9427,43.3603 Z M65.6777,25.7593 C60.2957,19.5583 52.5077,16.0003 44.3107,16.0003 C36.1137,16.0003 28.3247,19.5583 22.9467,25.7573 C18.4667,30.8823 15.9997,37.4713 15.9997,44.3103 C15.9997,44.7143 16.0127,45.1053 16.0257,45.5073 L16.0367,45.7643 C16.0517,45.9913 16.0667,46.2253 16.0887,46.4233 C16.1067,46.7323 16.1247,47.0433 16.1617,47.2573 C16.1917,47.6833 16.2517,48.0933 16.3097,48.4833 C16.3277,48.6373 16.3507,48.7903 16.3687,48.8483 C16.4177,49.1933 16.4807,49.5253 16.5447,49.7833 C16.6027,50.1613 16.6907,50.5623 16.7927,50.9273 C16.8427,51.2103 16.9247,51.4953 16.9917,51.7063 C17.1367,52.3023 17.3077,52.8653 17.4737,53.2993 C17.5587,53.6123 17.6667,53.9003 17.7807,54.1953 L17.8207,54.2983 C18.4527,55.9493 19.1997,57.4883 20.0507,58.8893 L20.5727,59.7263 C20.8327,60.1333 21.1087,60.5123 21.3987,60.9093 C21.6417,61.2593 21.9007,61.5953 22.1417,61.8923 C22.3247,62.1333 22.5167,62.3563 22.7107,62.5823 L22.8657,62.7613 C22.8887,62.7933 22.9117,62.8233 22.9347,62.8503 C22.9417,62.8583 22.9487,62.8673 22.9547,62.8753 C22.9697,62.8953 22.9867,62.9163 23.0027,62.9353 C23.2177,63.1823 23.4347,63.4263 23.6387,63.6313 C23.8067,63.8123 23.9897,64.0123 24.1697,64.1903 C24.5527,64.5743 25.0637,65.0753 25.5877,65.5213 C25.8197,65.7393 26.0677,65.9563 26.3077,66.1513 C27.0457,66.7663 27.8737,67.3743 28.8447,68.0173 C29.5987,68.5083 30.2337,68.8843 30.8187,69.1883 C31.6237,69.6373 32.4707,70.0453 33.3157,70.3943 C33.5627,70.5033 33.8227,70.6083 34.0567,70.6973 C34.3997,70.8313 34.7567,70.9663 35.1017,71.0853 C35.4567,71.2083 35.8297,71.3323 36.1347,71.4053 C36.4087,71.4963 36.6827,71.5733 36.9657,71.6523 C37.1997,71.7153 37.4377,71.7773 37.6077,71.8083 C37.8357,71.8713 38.0737,71.9253 38.3037,71.9753 L38.5727,72.0343 C38.6997,72.0633 38.8347,72.0913 38.9697,72.1063 C39.2617,72.1643 39.5647,72.2223 39.8407,72.2603 C40.6697,72.4053 41.5817,72.5063 42.7667,72.5773 C43.1257,72.5933 43.4747,72.6063 43.8347,72.6063 C43.8367,72.6063 43.8387,72.6053 43.8407,72.6053 C43.9947,72.6153 44.1407,72.6203 44.3107,72.6203 C44.8347,72.6203 45.2537,72.1943 45.2537,71.6703 C45.2537,71.6333 45.2367,71.6013 45.2327,71.5653 C45.2397,71.5183 45.2607,71.4753 45.2607,71.4263 L45.2607,58.2313 C46.8107,58.2613 48.3817,58.3603 49.9677,58.5313 C50.4987,58.5813 50.9577,58.2113 51.0147,57.6893 C51.0717,57.1683 50.6947,56.6993 50.1727,56.6423 C48.5177,56.4633 46.8787,56.3613 45.2607,56.3303 L45.2607,45.2613 L57.7337,45.2613 C57.6687,48.8823 57.2487,52.3613 56.4497,55.6023 C56.3237,56.1123 56.6347,56.6273 57.1447,56.7523 C57.6527,56.8823 58.1687,56.5663 58.2937,56.0583 C59.1307,52.6683 59.5687,49.0353 59.6347,45.2613 L70.6937,45.2613 C70.6877,45.4373 70.6887,45.6153 70.6787,45.7923 C70.6147,46.8453 70.5217,47.6943 70.3847,48.4853 C70.3457,48.7413 70.3057,48.9843 70.2457,49.2683 C70.1807,49.6393 70.1147,49.9953 69.9897,50.4393 C69.9387,50.7103 69.8727,50.9803 69.7887,51.2613 C69.6907,51.6253 69.5777,51.9893 69.4577,52.3823 C69.3937,52.6173 69.3147,52.8393 69.2407,53.0443 L69.1657,53.2433 C69.0787,53.4733 68.9907,53.7063 68.8757,53.9803 C68.7007,54.4663 68.4857,54.9363 68.2577,55.4363 C68.0397,55.9143 68.2577,56.4633 68.7357,56.6803 C69.2127,56.8973 69.7817,56.6733 69.9997,56.1943 C70.2297,55.6913 70.4657,55.1713 70.6437,54.6763 C70.7497,54.4263 70.8477,54.1673 70.9437,53.9143 L71.0227,53.7043 C71.1187,53.4363 71.2117,53.1683 71.2817,52.9123 C71.4007,52.5283 71.5187,52.1423 71.6157,51.7813 C71.7107,51.4633 71.7917,51.1303 71.8347,50.8833 C71.9607,50.4493 72.0397,50.0303 72.1117,49.6333 C72.1727,49.3423 72.2187,49.0653 72.2607,48.7923 C72.4067,47.9483 72.5057,47.0323 72.5747,45.9043 C72.6057,45.3693 72.6207,44.8463 72.6207,44.3103 C72.6207,37.4713 70.1547,30.8823 65.6777,25.7593 L65.6777,25.7593 Z" id="Fill-11" fill="#969CBB"></path>
        <path d="M100.4707,95.2004 L52.9497,95.2004 C51.8857,95.2004 51.0207,94.3354 51.0207,93.2704 L51.0207,64.4704 C51.0207,63.4054 51.8857,62.5404 52.9497,62.5404 L100.4707,62.5404 C101.5347,62.5404 102.4007,63.4054 102.4007,64.4704 L102.4007,89.4404 L55.8307,89.4404 C55.3067,89.4404 54.8807,89.8664 54.8807,90.3904 C54.8807,90.9154 55.3067,91.3414 55.8307,91.3414 L102.4007,91.3414 L102.4007,93.2704 C102.4007,94.3354 101.5347,95.2004 100.4707,95.2004 L100.4707,95.2004 Z M74.0607,102.4004 L79.3607,102.4004 L79.3607,97.1004 L74.0607,97.1004 L74.0607,102.4004 Z M100.4707,60.6394 L52.9497,60.6394 C50.8387,60.6394 49.1197,62.3584 49.1197,64.4704 L49.1197,93.2704 C49.1197,95.3824 50.8387,97.1004 52.9497,97.1004 L72.1597,97.1004 L72.1597,102.4004 L65.9097,102.4004 C65.3857,102.4004 64.9597,102.8264 64.9597,103.3504 C64.9597,103.8754 65.3857,104.3014 65.9097,104.3014 L87.5107,104.3014 C88.0347,104.3014 88.4607,103.8754 88.4607,103.3504 C88.4607,102.8264 88.0347,102.4004 87.5107,102.4004 L81.2607,102.4004 L81.2607,97.1004 L100.4707,97.1004 C102.5817,97.1004 104.3007,95.3824 104.3007,93.2704 L104.3007,64.4704 C104.3007,62.3584 102.5817,60.6394 100.4707,60.6394 L100.4707,60.6394 Z" id="Fill-12" fill="#343852"></path>
        <path d="M56.5029,83.8625 L62.2629,78.1025 C62.6339,77.7315 62.6339,77.1305 62.2629,76.7585 C61.8919,76.3875 61.2899,76.3875 60.9189,76.7585 L55.1589,82.5185 C54.7879,82.8895 54.7879,83.4915 55.1589,83.8625 C55.3449,84.0485 55.5879,84.1405 55.8309,84.1405 C56.0739,84.1405 56.3169,84.0485 56.5029,83.8625 M66.5819,73.7825 L69.4629,70.9025 C69.8339,70.5315 69.8339,69.9295 69.4629,69.5585 C69.0919,69.1875 68.4899,69.1875 68.1189,69.5585 L65.2379,72.4385 C64.8669,72.8095 64.8669,73.4115 65.2379,73.7825 C65.4239,73.9675 65.6669,74.0605 65.9099,74.0605 C66.1529,74.0605 66.3969,73.9675 66.5819,73.7825 M54.3909,76.9405 C54.1479,76.9405 53.9039,76.8475 53.7189,76.6625 C53.3479,76.2915 53.3479,75.6895 53.7189,75.3185 L62.3579,66.6785 C62.7299,66.3075 63.3309,66.3075 63.7019,66.6785 C64.0729,67.0505 64.0729,67.6515 63.7019,68.0225 L55.0629,76.6625 C54.8769,76.8475 54.6339,76.9405 54.3909,76.9405" id="Fill-13" fill="#969CBB"></path>
    </g>
</svg>