<?xml version="1.0" encoding="UTF-8"?>
<svg width="120px" height="120px" viewBox="0 0 120 120" version="1.1" xmlns="http://www.w3.org/2000/svg" xmlns:xlink="http://www.w3.org/1999/xlink">
    <title>02.Icons/Illustrative/Autres Ressources humaines</title>
    <g id="02.Icons/Illustrative/Autres-Ressources-humaines" stroke="none" stroke-width="1" fill="none" fill-rule="evenodd">
        <path d="M94.7102,60.1502 C94.7102,41.0632 79.2372,25.5902 60.1502,25.5902 C41.0632,25.5902 25.5902,41.0632 25.5902,60.1502 C25.5902,79.2372 41.0632,94.7102 60.1502,94.7102 C79.2372,94.7102 94.7102,79.2372 94.7102,60.1502" id="Fill-1" fill="#F2F3F7"></path>
        <polygon id="Fill-3" fill="#1D71B8" points="28.4702 39.9902 28.0092 44.3102 26.0362 63.0882 25.5902 67.3502 16.9502 67.3502 16.9502 39.9902"></polygon>
        <polygon id="Fill-5" fill="#D20050" points="92.291 44.3102 91.83 39.9902 103.35 39.9902 103.35 67.3502 94.71 67.3502 94.264 63.0882"></polygon>
        <path d="M84.6302,44.3102 C82.0242,44.3102 71.1232,38.5502 65.9102,38.5502 C64.0092,38.5502 62.0082,38.8522 60.1502,39.2992 C56.8962,40.0762 54.0732,41.2862 53.0362,41.9772 C51.4242,43.0432 47.7372,49.2642 45.7502,51.5102 C45.7502,51.5102 47.6362,53.9442 50.9632,53.9442 C54.3042,53.9442 57.9902,47.1902 61.5902,47.1902 C62.2092,47.1902 66.1982,50.0562 71.0512,53.7132 L71.0652,53.7132 C75.9042,57.3562 81.5922,61.7922 85.5952,64.9452 C86.9052,63.9372 89.0802,63.2752 94.2642,63.0882 L92.2912,44.3102 L84.6302,44.3102 Z M87.9132,71.8282 C88.6332,71.0942 88.9932,70.1002 88.9212,69.0782 C88.8642,68.0562 88.3602,67.1202 87.5682,66.4862 C86.9772,66.0252 86.3152,65.5072 85.5952,64.9452 C81.5922,61.7922 75.9042,57.3562 71.0652,53.7132 L71.0512,53.7132 C66.1982,50.0562 62.2092,47.1902 61.5902,47.1902 C57.9902,47.1902 54.3042,53.9442 50.9632,53.9442 C47.6362,53.9442 45.7502,51.5102 45.7502,51.5102 C47.7372,49.2642 51.4242,43.0432 53.0362,41.9772 C54.0732,41.2862 56.8962,40.0762 60.1502,39.2992 C58.2922,38.8522 56.2912,38.5502 54.3902,38.5502 C49.1772,38.5502 38.2762,44.3102 35.6702,44.3102 L28.0092,44.3102 L26.0362,63.0882 C31.2202,63.2752 33.3952,63.9372 34.7052,64.9452 C34.8782,64.8012 35.0512,64.6722 35.2242,64.5282 C35.2382,64.4992 35.2522,64.4842 35.2812,64.4842 C36.7072,63.5342 38.6222,63.7362 39.8172,64.9742 L39.8752,65.0322 C40.5952,65.7662 40.9552,66.7602 40.8832,67.7822 C40.8252,68.8042 40.3212,69.7402 39.5292,70.3742 L39.5442,70.3882 L41.6322,68.7042 C43.0282,67.5802 45.0442,67.6522 46.3552,68.8762 L46.6432,69.1502 C47.4202,69.8842 47.8382,70.8922 47.7802,71.9582 C47.7522,72.7212 47.4642,73.4412 46.9882,74.0322 L48.2702,72.9372 C49.6242,71.7852 51.6252,71.7852 52.9642,72.9522 L53.4402,73.3692 C54.2322,74.0462 54.6782,75.0542 54.6642,76.0912 C54.6492,77.0122 54.2752,77.8912 53.6412,78.5242 C53.5552,78.6112 53.4542,78.6972 53.3532,78.7842 L51.8412,80.0802 L55.0522,77.8622 C56.3772,76.9552 58.1482,77.0272 59.3872,78.0492 C60.1072,78.6402 60.5242,79.5182 60.5392,80.4402 C60.5392,81.1162 60.3232,81.7792 59.9482,82.3122 L64.4842,85.4362 C65.8092,86.3442 67.5802,86.2722 68.8192,85.2492 C69.5392,84.6592 69.9562,83.7802 69.9712,82.8442 C69.9712,81.9082 69.5682,81.0302 68.8622,80.4252 L70.4892,81.8082 C71.8432,82.9602 73.8302,82.9602 75.1842,81.7932 L75.6592,81.3902 C76.4512,80.6992 76.8972,79.6912 76.8832,78.6542 C76.8542,77.6032 76.3792,76.6242 75.5582,75.9612 L77.5162,77.5312 C78.9132,78.6682 80.9292,78.5822 82.2402,77.3582 L82.5282,77.0842 C83.3052,76.3642 83.7232,75.3422 83.6652,74.2912 C83.6222,73.2402 83.1182,72.2602 82.2832,71.6122 L83.0752,72.2172 C84.5152,73.3402 86.5882,73.1962 87.8562,71.8862 L87.9132,71.8282 Z M46.9882,74.0322 C46.9022,74.1472 46.8012,74.2622 46.6862,74.3772 C46.6572,74.4202 46.6142,74.4492 46.5712,74.4922 C46.5132,74.5362 46.4562,74.5932 46.3982,74.6362 L46.2832,74.7082 L46.2682,74.7232 L46.1682,74.7952 L45.0302,75.7162 L44.7422,75.9612 C43.9212,76.6242 43.4462,77.6032 43.4172,78.6542 C43.4032,79.6912 43.8492,80.6992 44.6412,81.3902 L45.1162,81.7932 C46.4702,82.9602 48.4572,82.9602 49.8112,81.8082 L51.4382,80.4252 L51.8412,80.0802 L53.3532,78.7842 C53.4542,78.6972 53.5552,78.6112 53.6412,78.5242 C54.2752,77.8912 54.6492,77.0122 54.6642,76.0912 C54.6782,75.0542 54.2322,74.0462 53.4402,73.3692 L52.9642,72.9522 C51.6252,71.7852 49.6242,71.7852 48.2702,72.9372 L46.9882,74.0322 Z M59.3872,78.0492 C58.1482,77.0272 56.3772,76.9552 55.0522,77.8622 L51.8412,80.0802 L51.4382,80.4252 C50.7322,81.0302 50.3292,81.9082 50.3292,82.8442 C50.3442,83.7802 50.7612,84.6592 51.4812,85.2492 C52.7202,86.2722 54.4912,86.3442 55.8162,85.4362 L59.0272,83.2192 L59.4302,82.8732 C59.6172,82.7002 59.7902,82.5132 59.9482,82.3122 C60.3232,81.7792 60.5392,81.1162 60.5392,80.4402 C60.5242,79.5182 60.1072,78.6402 59.3872,78.0492 L59.3872,78.0492 Z M46.3552,68.8762 C45.0442,67.6522 43.0282,67.5802 41.6322,68.7042 L39.5442,70.3882 L38.2332,71.4402 L37.7152,71.8722 C37.0672,72.5052 36.6782,73.3692 36.6352,74.2912 C36.5772,75.3422 36.9952,76.3642 37.7722,77.0842 L38.0602,77.3582 C39.3712,78.5822 41.3872,78.6542 42.7842,77.5312 L45.0302,75.7162 L46.9882,74.0322 C47.4642,73.4412 47.7522,72.7212 47.7802,71.9582 C47.8382,70.8922 47.4202,69.8842 46.6432,69.1502 L46.3552,68.8762 Z M36.9802,72.3762 C35.5552,73.3262 33.6402,73.1242 32.4442,71.8862 L32.3872,71.8282 C31.6672,71.0942 31.3072,70.1002 31.3792,69.0782 C31.4362,68.0562 31.9402,67.1202 32.7322,66.4862 C33.3232,66.0252 33.9852,65.4922 34.7052,64.9452 C34.8782,64.8012 35.0512,64.6722 35.2242,64.5282 C35.2382,64.4992 35.2522,64.4842 35.2812,64.4842 C36.7072,63.5342 38.6222,63.7362 39.8172,64.9742 L39.8752,65.0322 C40.5952,65.7662 40.9552,66.7602 40.8832,67.7822 C40.8252,68.8042 40.3212,69.7402 39.5292,70.3742 C38.7952,70.9502 37.9602,71.6122 37.0382,72.3322 C37.0242,72.3472 36.9952,72.3612 36.9802,72.3762 L36.9802,72.3762 Z" id="Fill-7" fill="#FFFFFF"></path>
        <path d="M85.643,63.7746 C82.383,61.2096 76.686,56.7556 71.637,52.9546 C71.625,52.9456 71.611,52.9446 71.599,52.9356 C62.715,46.2416 62.091,46.2406 61.591,46.2406 C59.379,46.2406 57.37,48.1366 55.427,49.9706 C53.852,51.4566 52.224,52.9936 50.963,52.9936 C49.061,52.9936 47.712,52.0756 47.023,51.4626 C47.779,50.5046 48.668,49.2206 49.596,47.8766 C51.009,45.8346 52.766,43.2946 53.564,42.7676 C54.455,42.1726 57.156,40.9906 60.372,40.2226 C62.34,39.7496 64.255,39.4996 65.91,39.4996 C68.783,39.4996 73.764,41.4666 77.767,43.0476 C81.346,44.4606 83.429,45.2606 84.631,45.2606 L91.43,45.2606 L93.211,62.1896 C89.519,62.3826 87.196,62.8616 85.643,63.7746 L85.643,63.7746 Z M87.974,69.1446 C88.027,69.9066 87.764,70.6236 87.174,71.2256 C86.236,72.1946 84.725,72.3006 83.652,71.4626 L82.86,70.8576 C82.86,70.8576 82.859,70.8576 82.859,70.8566 L82.661,70.6986 C82.659,70.6966 82.657,70.6966 82.655,70.6956 C82.653,70.6936 82.652,70.6906 82.649,70.6886 L75.406,65.0726 C74.991,64.7496 74.394,64.8276 74.073,65.2416 C73.752,65.6556 73.827,66.2526 74.242,66.5746 L81.485,72.1906 C81.486,72.1906 81.486,72.1906 81.487,72.1916 L81.7,72.3626 C82.314,72.8386 82.684,73.5566 82.718,74.3426 C82.76,75.1116 82.455,75.8576 81.874,76.3956 L81.592,76.6646 C80.627,77.5656 79.132,77.6216 78.111,76.7906 L70.294,70.4846 C69.885,70.1546 69.288,70.2186 68.958,70.6266 C68.629,71.0346 68.692,71.6326 69.1,71.9626 L74.935,76.6696 C74.945,76.6786 74.95,76.6916 74.961,76.7006 C75.557,77.1816 75.912,77.9036 75.932,78.6676 C75.943,79.4356 75.616,80.1666 75.045,80.6656 L74.563,81.0736 C73.564,81.9346 72.109,81.9396 71.104,81.0836 L69.477,79.7016 C69.477,79.7006 69.477,79.7006 69.476,79.7006 L69.079,79.3606 C69.078,79.3606 69.078,79.3596 69.077,79.3586 L63.562,74.6346 C63.163,74.2936 62.565,74.3406 62.222,74.7386 C61.882,75.1366 61.928,75.7366 62.326,76.0786 L67.841,80.8016 C67.842,80.8026 67.843,80.8026 67.844,80.8036 L68.244,81.1456 C68.737,81.5696 69.02,82.1886 69.02,82.8316 C69.011,83.4906 68.718,84.1036 68.215,84.5166 C67.308,85.2646 65.997,85.3206 65.023,84.6546 L61.174,82.0016 C61.372,81.5036 61.489,80.9696 61.489,80.4246 C61.47,79.2136 60.923,78.0806 59.991,77.3166 C58.742,76.2856 57.048,76.0346 55.562,76.5626 C55.58,76.4096 55.612,76.2596 55.614,76.1046 C55.633,74.7686 55.065,73.5076 54.066,72.6556 L53.589,72.2366 C52.228,71.0476 50.298,70.8356 48.704,71.5666 C48.651,70.3986 48.168,69.2846 47.298,68.4606 L47.004,68.1826 C45.589,66.8606 43.494,66.6116 41.816,67.4676 C41.8,66.3096 41.361,65.1906 40.501,64.3136 C38.985,62.7446 36.567,62.4846 34.755,63.6946 L34.756,63.6966 C34.72,63.7186 34.692,63.7486 34.659,63.7746 C34.659,63.7746 34.658,63.7746 34.658,63.7746 C33.104,62.8616 30.782,62.3826 27.089,62.1896 L28.871,45.2606 L35.67,45.2606 C36.872,45.2606 38.955,44.4606 42.533,43.0476 C46.536,41.4666 51.517,39.4996 54.39,39.4996 C54.894,39.4996 55.427,39.5306 55.973,39.5766 C54.437,40.1436 53.193,40.7306 52.513,41.1846 C51.49,41.8616 50.075,43.8456 48.034,46.7956 C46.946,48.3696 45.821,49.9956 45.038,50.8796 C44.736,51.2226 44.72,51.7316 44.999,52.0916 C45.088,52.2066 47.214,54.8936 50.963,54.8936 C52.979,54.8936 54.802,53.1736 56.731,51.3526 C58.367,49.8076 60.058,48.2116 61.494,48.1426 C61.919,48.3136 63.627,49.3076 70.478,54.4716 C70.491,54.4816 70.507,54.4826 70.521,54.4916 C75.838,58.4966 81.877,63.2256 85.011,65.6946 L86.974,67.2286 C87.568,67.7036 87.931,68.3966 87.974,69.1446 L87.974,69.1446 Z M55.279,84.6526 C54.305,85.3216 52.991,85.2646 52.084,84.5146 C51.583,84.1036 51.29,83.4906 51.28,82.8446 C51.28,82.1886 51.563,81.5696 52.055,81.1466 L52.42,80.8346 L55.59,78.6466 C56.565,77.9776 57.877,78.0356 58.784,78.7836 C59.285,79.1946 59.579,79.8036 59.589,80.4396 C59.589,80.9126 59.441,81.3826 59.203,81.7236 C59.074,81.8866 58.935,82.0376 58.812,82.1516 L58.443,82.4686 L55.279,84.6526 Z M45.731,81.0686 L45.265,80.6736 C44.684,80.1666 44.357,79.4356 44.367,78.6796 C44.388,77.9036 44.743,77.1816 45.34,76.7006 C45.343,76.6976 45.344,76.6926 45.348,76.6906 C45.35,76.6886 45.354,76.6876 45.356,76.6856 L45.621,76.4586 L46.74,75.5546 L46.823,75.4946 C46.833,75.4876 46.843,75.4796 46.854,75.4706 L46.967,75.3986 C47.013,75.3636 47.063,75.3206 47.139,75.2536 L47.14,75.2526 C47.141,75.2526 47.141,75.2526 47.141,75.2526 C47.144,75.2496 47.144,75.2496 47.147,75.2476 C47.165,75.2336 47.226,75.1786 47.244,75.1646 C47.28,75.1316 47.339,75.0806 47.401,75.0046 C47.497,74.9066 47.57,74.8166 47.643,74.7266 L48.887,73.6616 C49.88,72.8146 51.365,72.8196 52.339,73.6656 L52.823,74.0916 C53.391,74.5776 53.724,75.3196 53.714,76.0766 C53.703,76.7426 53.432,77.3906 52.966,77.8566 C52.902,77.9206 52.827,77.9836 52.736,78.0606 C52.735,78.0616 52.735,78.0626 52.734,78.0636 L51.225,79.3586 C51.225,79.3586 51.225,79.3586 51.224,79.3586 L50.824,79.7006 C50.824,79.7006 50.823,79.7006 50.823,79.7016 L49.195,81.0836 C48.192,81.9416 46.738,81.9356 45.731,81.0686 L45.731,81.0686 Z M38.715,76.6686 L38.418,76.3886 C37.846,75.8576 37.541,75.1116 37.584,74.3356 C37.616,73.6616 37.894,73.0346 38.366,72.5666 L42.227,69.4446 C43.251,68.6186 44.749,68.6746 45.701,69.5666 L45.991,69.8406 C46.576,70.3936 46.875,71.1266 46.832,71.9216 C46.812,72.4416 46.621,72.9426 46.272,73.3986 L44.399,75.0036 L42.189,76.7906 C41.164,77.6146 39.668,77.5606 38.715,76.6686 L38.715,76.6686 Z M33.065,71.1636 C32.536,70.6236 32.273,69.9066 32.327,69.1316 C32.369,68.3966 32.732,67.7036 33.316,67.2356 L33.928,66.7546 C34.35,66.4216 34.802,66.0646 35.315,65.6746 L35.818,65.2676 C35.819,65.2676 35.819,65.2676 35.82,65.2666 C36.87,64.5736 38.261,64.7296 39.196,65.6966 C39.726,66.2376 39.989,66.9546 39.934,67.7286 C39.892,68.4636 39.529,69.1576 38.943,69.6266 L36.453,71.5826 C36.45,71.5856 36.446,71.5886 36.443,71.5906 C36.443,71.5916 36.442,71.5916 36.442,71.5926 C35.395,72.2846 34,72.1316 33.065,71.1636 L33.065,71.1636 Z M103.35,66.3996 L95.565,66.3996 L92.887,40.9406 L103.35,40.9406 C103.875,40.9406 104.301,40.5146 104.301,39.9906 C104.301,39.4656 103.875,39.0406 103.35,39.0406 L91.83,39.0406 C91.56,39.0406 91.304,39.1546 91.124,39.3556 C90.943,39.5556 90.856,39.8236 90.886,40.0906 L91.23,43.3606 L84.631,43.3606 C83.732,43.3606 81.054,42.3026 78.465,41.2806 C74.096,39.5556 69.144,37.5996 65.91,37.5996 C64.146,37.5996 62.207,37.8486 60.151,38.3276 C58.094,37.8486 56.155,37.5996 54.39,37.5996 C51.156,37.5996 46.204,39.5556 41.836,41.2806 C39.246,42.3026 36.568,43.3606 35.67,43.3606 L29.071,43.3606 L29.415,40.0906 C29.444,39.8236 29.357,39.5556 29.177,39.3556 C28.997,39.1546 28.74,39.0406 28.471,39.0406 L16.95,39.0406 C16.426,39.0406 16,39.4656 16,39.9906 C16,40.5146 16.426,40.9406 16.95,40.9406 L27.414,40.9406 L24.735,66.3996 L16.95,66.3996 C16.426,66.3996 16,66.8256 16,67.3496 C16,67.8736 16.426,68.2996 16.95,68.2996 L25.591,68.2996 C26.077,68.2996 26.485,67.9326 26.536,67.4486 L26.891,64.0766 C30.173,64.2426 31.939,64.6256 33.006,65.0656 C32.924,65.1296 32.83,65.2006 32.751,65.2636 L32.138,65.7446 C31.125,66.5556 30.502,67.7516 30.431,69.0116 C30.341,70.3046 30.806,71.5736 31.761,72.5456 C32.638,73.4546 33.817,73.9246 35.008,73.9246 C35.252,73.9246 35.497,73.8996 35.74,73.8596 C35.723,73.9866 35.692,74.1106 35.686,74.2396 C35.613,75.5746 36.138,76.8656 37.118,77.7746 L37.412,78.0526 C38.278,78.8616 39.399,79.2706 40.523,79.2706 C41.196,79.2706 41.864,79.1106 42.484,78.8156 C42.516,80.0776 43.059,81.2706 44.027,82.1146 L44.497,82.5126 C45.357,83.2546 46.415,83.6256 47.472,83.6256 C48.139,83.6256 48.8,83.4616 49.418,83.1666 C49.517,84.2666 50.024,85.2836 50.877,85.9816 C51.708,86.6676 52.737,87.0156 53.771,87.0146 C54.673,87.0146 55.577,86.7506 56.356,86.2176 L59.567,83.9996 C59.58,83.9916 59.586,83.9776 59.598,83.9686 C59.613,83.9566 59.631,83.9526 59.645,83.9406 L60.076,83.5706 C60.08,83.5666 60.083,83.5636 60.086,83.5596 L63.947,86.2206 C64.724,86.7526 65.629,87.0156 66.528,87.0156 C67.562,87.0156 68.592,86.6686 69.422,85.9836 C70.273,85.2856 70.78,84.2726 70.881,83.1666 C71.5,83.4616 72.162,83.6266 72.83,83.6256 C73.886,83.6256 74.941,83.2556 75.798,82.5176 L76.283,82.1056 C77.238,81.2736 77.779,80.0856 77.814,78.8196 C78.431,79.1156 79.098,79.2766 79.769,79.2766 C80.894,79.2766 82.019,78.8646 82.894,78.0476 L83.174,77.7816 C84.163,76.8656 84.687,75.5746 84.615,74.2506 C84.61,74.1196 84.573,73.9956 84.557,73.8666 C84.791,73.9046 85.028,73.9246 85.264,73.9246 C86.468,73.9246 87.672,73.4436 88.593,72.4936 C89.494,71.5736 89.96,70.3046 89.87,69.0246 C89.799,67.7516 89.176,66.5556 88.152,65.7376 L87.292,65.0656 C88.359,64.6266 90.125,64.2426 93.41,64.0766 L93.764,67.4486 C93.815,67.9326 94.223,68.2996 94.71,68.2996 L103.35,68.2996 C103.875,68.2996 104.301,67.8736 104.301,67.3496 C104.301,66.8256 103.875,66.3996 103.35,66.3996 L103.35,66.3996 Z" id="Fill-9" fill="#343852"></path>
        <path d="M41.9061,28.544 C42.3601,28.281 42.5151,27.7 42.2531,27.246 L39.3731,22.264 C39.1101,21.809 38.5281,21.652 38.0751,21.917 C37.6211,22.18 37.4661,22.761 37.7281,23.215 L40.6081,28.197 C40.7841,28.502 41.1031,28.672 41.4311,28.672 C41.5931,28.672 41.7571,28.631 41.9061,28.544 M82.2251,98.384 C82.6791,98.121 82.8351,97.54 82.5721,97.086 L79.6921,92.104 C79.4291,91.648 78.8471,91.491 78.3941,91.757 C77.9401,92.02 77.7851,92.601 78.0481,93.055 L80.9271,98.037 C81.1031,98.342 81.4231,98.512 81.7511,98.512 C81.9121,98.512 82.0761,98.471 82.2251,98.384 M39.3731,98.037 L42.2531,93.055 C42.5151,92.601 42.3601,92.02 41.9061,91.757 C41.4531,91.494 40.8711,91.649 40.6081,92.104 L37.7281,97.086 C37.4661,97.54 37.6211,98.121 38.0751,98.384 C38.2241,98.471 38.3881,98.512 38.5501,98.512 C38.8781,98.512 39.1971,98.342 39.3731,98.037 M79.6921,28.197 L82.5721,23.215 C82.8351,22.761 82.6791,22.18 82.2251,21.917 C81.7721,21.653 81.1901,21.81 80.9271,22.264 L78.0481,27.246 C77.7851,27.7 77.9401,28.281 78.3941,28.544 C78.5441,28.631 78.7081,28.672 78.8691,28.672 C79.1971,28.672 79.5161,28.502 79.6921,28.197 M61.1001,103.35 L61.1001,97.59 C61.1001,97.065 60.6751,96.64 60.1501,96.64 C59.6261,96.64 59.2001,97.065 59.2001,97.59 L59.2001,103.35 C59.2001,103.874 59.6261,104.3 60.1501,104.3 C60.6751,104.3 61.1001,103.874 61.1001,103.35 M60.1501,23.66 C59.6261,23.66 59.2001,23.234 59.2001,22.71 L59.2001,16.95 C59.2001,16.426 59.6261,16 60.1501,16 C60.6751,16 61.1001,16.426 61.1001,16.95 L61.1001,22.71 C61.1001,23.234 60.6751,23.66 60.1501,23.66" id="Fill-12" fill="#969CBB"></path>
    </g>
</svg>