<?xml version="1.0" encoding="UTF-8"?>
<svg width="120px" height="120px" viewBox="0 0 120 120" version="1.1" xmlns="http://www.w3.org/2000/svg" xmlns:xlink="http://www.w3.org/1999/xlink">
    <title>02.Icons/Illustrative/05. Autres/Certification 01</title>
    <g id="02.Icons/Illustrative/05.-Autres/Certification-01" stroke="none" stroke-width="1" fill="none" fill-rule="evenodd">
        <g id="Group-45" transform="translate(7.999872, 16.999565)">
            <path d="M90.2703282,45.1491353 C90.2703282,23.9251353 73.0643282,6.72213526 51.8433282,6.72213526 C30.6213282,6.72213526 13.4143282,23.9251353 13.4143282,45.1491353 C13.4143282,66.3731353 30.6213282,83.5761353 51.8433282,83.5761353 C73.0643282,83.5761353 90.2703282,66.3731353 90.2703282,45.1491353" id="Fill-1" fill="#F2F3F7"></path>
            <path d="M10.3466282,11.6953353 C10.0286282,11.6953353 9.71762823,11.5433353 9.52562823,11.2673353 C8.31362823,9.52833526 8.05762823,7.03533526 8.85862823,4.76133526 C9.65662823,2.47833526 11.4216282,0.671335262 13.4646282,0.0443352618 C13.9396282,-0.103664738 14.4596282,0.129335262 14.6676282,0.587335262 C15.5126282,2.44633526 15.5706282,4.73033526 14.8276282,6.85333526 C14.0796282,8.97433526 12.6076282,10.7003353 10.7856282,11.5933353 C10.6446282,11.6623353 10.4946282,11.6953353 10.3466282,11.6953353 L10.3466282,11.6953353 Z M7.00662823,18.9863353 C5.05762823,18.9863353 3.33262823,17.8923353 2.33362823,15.9943353 C1.28162823,14.0063353 1.20562823,11.3163353 2.13962823,8.97633526 C2.29062823,8.59533526 2.65862823,8.34633526 3.06862823,8.34633526 L3.08162823,8.34633526 C5.08562823,8.37433526 6.87962823,9.65333526 7.88062823,11.7653353 C8.78262823,13.6773353 8.94762823,16.0363353 8.33262823,18.2383353 C8.22162823,18.6413353 7.87062823,18.9313353 7.45462823,18.9663353 C7.30362823,18.9793353 7.15462823,18.9863353 7.00662823,18.9863353 L7.00662823,18.9863353 Z M11.8196282,19.6183353 C11.2136282,19.6183353 10.6146282,19.5193353 10.0386282,19.3173353 C9.64462823,19.1783353 9.37762823,18.8083353 9.37062823,18.3903353 C9.33462823,16.1263353 10.3736282,13.9333353 12.0826282,12.6673353 C13.7776282,11.4063353 15.9196282,11.1833353 17.8096282,12.0673353 C18.1896282,12.2443353 18.4186282,12.6413353 18.3816282,13.0603353 C18.1996282,15.1293353 17.2296282,16.9643353 15.6476282,18.2273353 C14.4956282,19.1403353 13.1466282,19.6183353 11.8196282,19.6183353 L11.8196282,19.6183353 Z M10.6106282,29.1903353 C10.2976282,29.1903353 9.98562823,29.1633353 9.67462823,29.1083353 C9.26362823,29.0343353 8.94062823,28.7133353 8.86562823,28.3003353 C8.46662823,26.0873353 9.14162823,23.7763353 10.6266282,22.2713353 C12.0946282,20.7783353 14.1706282,20.2243353 16.1726282,20.7833353 C16.5766282,20.8973353 16.8676282,21.2513353 16.9006282,21.6693353 C17.0566282,23.6893353 16.3746282,25.6893353 15.0316282,27.1553353 C13.8236282,28.4663353 12.2226282,29.1903353 10.6106282,29.1903353 L10.6106282,29.1903353 Z M5.81662823,29.3283353 C4.18662823,29.3283353 2.64762823,28.5353353 1.53862823,27.0793353 C0.180628227,25.3023353 -0.328371773,22.6863353 0.212628227,20.2533353 C0.303628227,19.8483353 0.634628227,19.5413353 1.04562823,19.4813353 C3.02362823,19.1963353 4.99762823,20.1553353 6.32662823,22.0533353 C7.53062823,23.7793353 8.07262823,26.0613353 7.81662823,28.3163353 C7.76962823,28.7313353 7.46962823,29.0733353 7.06362823,29.1743353 C6.64562823,29.2783353 6.22762823,29.3283353 5.81662823,29.3283353 L5.81662823,29.3283353 Z M10.9486282,38.7703353 C10.9206282,38.7703353 10.8916282,38.7703353 10.8626282,38.7703353 C10.4436282,38.7633353 10.0736282,38.4953353 9.93562823,38.1003353 C9.19362823,35.9823353 9.49462823,33.6033353 10.7236282,31.8913353 C11.9336282,30.1973353 13.8826282,29.3183353 15.9586282,29.5543353 C16.3756282,29.6003353 16.7196282,29.9033353 16.8196282,30.3113353 C17.2956282,32.2683353 16.9396282,34.3423353 15.8406282,36.0013353 C14.6836282,37.7403353 12.8606282,38.7703353 10.9486282,38.7703353 L10.9486282,38.7703353 Z M6.29562823,39.6623353 C4.94862823,39.6623353 3.61762823,39.1153353 2.51062823,38.0653353 C0.888628227,36.5333353 -0.0283717725,34.0433353 0.120628227,31.5703353 C0.145628227,31.1553353 0.424628227,30.7993353 0.821628227,30.6753353 C2.72662823,30.0803353 4.82562823,30.7103353 6.43962823,32.3603353 C7.90262823,33.8653353 8.79962823,36.0243353 8.90262823,38.2833353 C8.92062823,38.7013353 8.67862823,39.0863353 8.29362823,39.2493353 C7.64162823,39.5263353 6.96662823,39.6623353 6.29562823,39.6623353 L6.29562823,39.6623353 Z M13.4186282,48.1253353 C13.0556282,48.1253353 12.7156282,47.9263353 12.5386282,47.6003353 C11.4706282,45.6223353 11.3926282,43.2243353 12.3346282,41.3413353 C13.2626282,39.4783353 15.0576282,38.3073353 17.1356282,38.2073353 C17.5676282,38.1923353 17.9446282,38.4323353 18.1066282,38.8203353 C18.8826282,40.6763353 18.8586282,42.7793353 18.0376282,44.5903353 C17.1556282,46.5233353 15.4826282,47.8403353 13.5606282,48.1143353 C13.5126282,48.1213353 13.4656282,48.1253353 13.4186282,48.1253353 L13.4186282,48.1253353 Z M8.40262823,49.7823353 C7.31862823,49.7823353 6.21462823,49.4333353 5.20162823,48.7393353 C3.35762823,47.4813353 2.05962823,45.1693353 1.81662823,42.7063353 C1.77562823,42.2923353 1.99462823,41.8973353 2.36662823,41.7123353 C4.15562823,40.8233353 6.32762823,41.1123353 8.17862823,42.4843353 C9.88462823,43.7533353 11.0806282,45.6933353 11.5486282,47.9453353 C11.6336282,48.3543353 11.4546282,48.7733353 11.1016282,48.9953353 C10.2636282,49.5213353 9.33962823,49.7823353 8.40262823,49.7823353 L8.40262823,49.7823353 Z M17.4296282,57.0003353 C17.1236282,57.0003353 16.8286282,56.8613353 16.6366282,56.6103353 C15.2616282,54.8193353 14.7976282,52.4543353 15.4256282,50.4373353 C16.0436282,48.4443353 17.6296282,47.0003353 19.6676282,46.5723353 C20.0816282,46.4873353 20.5016282,46.6673353 20.7226282,47.0243353 C21.7856282,48.7373353 22.0996282,50.8233353 21.5816282,52.7503353 C21.0236282,54.8093353 19.5816282,56.3803353 17.7256282,56.9553353 C17.6276282,56.9863353 17.5286282,57.0003353 17.4296282,57.0003353 L17.4296282,57.0003353 Z M12.0926282,59.4863353 C11.2616282,59.4863353 10.4036282,59.2883353 9.56462823,58.8893353 C7.53862823,57.9303353 5.88662823,55.8433353 5.25462823,53.4443353 C5.14862823,53.0423353 5.30262823,52.6163353 5.64062823,52.3753353 C7.26862823,51.2133353 9.46062823,51.1563353 11.5066282,52.2233353 C13.3926282,53.2123353 14.8856282,54.9463353 15.7116282,57.1083353 C15.8616282,57.4983353 15.7526282,57.9403353 15.4396282,58.2153353 C14.4856282,59.0563353 13.3196282,59.4863353 12.0926282,59.4863353 L12.0926282,59.4863353 Z M22.8706282,65.2083353 C22.6206282,65.2083353 22.3746282,65.1143353 22.1846282,64.9363353 C20.5246282,63.3693353 19.6716282,61.0923353 19.9596282,58.9923353 C20.2406282,56.9113353 21.5736282,55.2243353 23.5256282,54.4793353 C23.9156282,54.3293353 24.3616282,54.4403353 24.6366282,54.7583353 C25.9676282,56.2913353 26.6216282,58.3153353 26.4326282,60.3093353 C26.2256282,62.4503353 25.0596282,64.2423353 23.3136282,65.1053353 C23.1726282,65.1743353 23.0216282,65.2083353 22.8706282,65.2083353 L22.8706282,65.2083353 Z M17.3176282,68.5683353 C16.7436282,68.5683353 16.1506282,68.4803353 15.5506282,68.3013353 C13.3876282,67.6633353 11.4086282,65.8483353 10.3916282,63.5643353 C10.2226282,63.1853353 10.3046282,62.7403353 10.5996282,62.4473353 C12.0196282,61.0343353 14.1826282,60.6313353 16.3816282,61.3763353 C18.4066282,62.0643353 20.1706282,63.5543353 21.3536282,65.5743353 C21.5636282,65.9343353 21.5296282,66.3873353 21.2656282,66.7103353 C20.2796282,67.9233353 18.8716282,68.5683353 17.3176282,68.5683353 L17.3176282,68.5683353 Z M28.9316282,73.9033353 C28.6926282,73.9033353 28.4526282,73.8183353 28.2616282,73.6453353 C26.5856282,72.1323353 24.9736282,70.5123353 23.4696282,68.8313353 C23.1016282,68.4193353 23.1366282,67.7873353 23.5476282,67.4193353 C23.9596282,67.0513353 24.5916282,67.0853353 24.9596282,67.4973353 C26.4166282,69.1263353 27.9786282,70.6953353 29.6016282,72.1603353 C30.0116282,72.5303353 30.0436282,73.1623353 29.6736282,73.5723353 C29.4766282,73.7913353 29.2036282,73.9033353 28.9316282,73.9033353 L28.9316282,73.9033353 Z" id="Fill-3" fill="#969CBB"></path>
            <path d="M93.8817282,11.6958353 C93.7337282,11.6958353 93.5837282,11.6628353 93.4427282,11.5938353 C91.6207282,10.7008353 90.1487282,8.97383526 89.4017282,6.85583526 C88.6577282,4.73083526 88.7157282,2.44583526 89.5607282,0.586835262 C89.7677282,0.129835262 90.2867282,-0.101164738 90.7637282,0.0448352618 C92.8067282,0.670835262 94.5707282,2.47883526 95.3697282,4.76083526 C96.1707282,7.03283526 95.9157282,9.52783526 94.7027282,11.2678353 C94.5107282,11.5438353 94.1997282,11.6958353 93.8817282,11.6958353 M97.2217282,18.9858353 C97.0737282,18.9858353 96.9247282,18.9798353 96.7737282,18.9668353 C96.3577282,18.9308353 96.0067282,18.6408353 95.8957282,18.2388353 C95.2807282,16.0358353 95.4447282,13.6768353 96.3467282,11.7668353 C96.3467282,11.7658353 96.3467282,11.7658353 96.3477282,11.7648353 C97.3487282,9.65283526 99.1427282,8.37483526 101.146728,8.34583526 L101.159728,8.34583526 C101.568728,8.34583526 101.937728,8.59483526 102.088728,8.97583526 C103.022728,11.3168353 102.946728,14.0068353 101.893728,15.9958353 C100.895728,17.8918353 99.1707282,18.9858353 97.2217282,18.9858353 M92.4077282,19.6188353 C91.0807282,19.6188353 89.7327282,19.1408353 88.5827282,18.2288353 C86.9987282,16.9648353 86.0277282,15.1298353 85.8467282,13.0598353 C85.8097282,12.6418353 86.0387282,12.2448353 86.4187282,12.0668353 C88.3097282,11.1828353 90.4517282,11.4058353 92.1487282,12.6688353 C93.8557282,13.9338353 94.8937282,16.1268353 94.8567282,18.3908353 C94.8497282,18.8088353 94.5827282,19.1788353 94.1887282,19.3178353 C93.6127282,19.5198353 93.0137282,19.6188353 92.4077282,19.6188353 M93.6177282,29.1908353 C92.0047282,29.1908353 90.4047282,28.4668353 89.1987282,27.1578353 C87.8537282,25.6888353 87.1717282,23.6888353 87.3277282,21.6698353 C87.3607282,21.2508353 87.6517282,20.8968353 88.0557282,20.7838353 C90.0617282,20.2198353 92.1357282,20.7788353 93.6037282,22.2728353 C95.0867282,23.7768353 95.7617282,26.0868353 95.3617282,28.3008353 C95.2877282,28.7128353 94.9647282,29.0348353 94.5537282,29.1078353 C94.2427282,29.1628353 93.9307282,29.1908353 93.6177282,29.1908353 M98.4127282,29.3288353 C98.0007282,29.3288353 97.5827282,29.2778353 97.1647282,29.1748353 C96.7587282,29.0738353 96.4587282,28.7318353 96.4117282,28.3168353 C96.1557282,26.0608353 96.6977282,23.7788353 97.9007282,22.0548353 C97.9007282,22.0548353 97.9017282,22.0538353 97.9017282,22.0528353 C99.2307282,20.1538353 101.213728,19.1968353 103.182728,19.4808353 C103.593728,19.5408353 103.924728,19.8478353 104.015728,20.2538353 C104.556728,22.6858353 104.047728,25.3018353 102.688728,27.0808353 C101.580728,28.5358353 100.041728,29.3288353 98.4127282,29.3288353 M93.2787282,38.7708353 C91.3677282,38.7708353 89.5447282,37.7408353 88.3887282,36.0028353 C87.2887282,34.3428353 86.9327282,32.2688353 87.4087282,30.3108353 C87.5087282,29.9038353 87.8527282,29.6008353 88.2697282,29.5538353 C90.3447282,29.3188353 92.2957282,30.1968353 93.5067282,31.8928353 C94.7337282,33.6028353 95.0347282,35.9818353 94.2927282,38.1008353 C94.1547282,38.4958353 93.7847282,38.7628353 93.3657282,38.7698353 C93.3367282,38.7708353 93.3077282,38.7708353 93.2787282,38.7708353 M97.9337282,39.6628353 C97.2617282,39.6628353 96.5877282,39.5268353 95.9347282,39.2498353 C95.5497282,39.0868353 95.3077282,38.7008353 95.3257282,38.2838353 C95.4287282,36.0238353 96.3257282,33.8658353 97.7877282,32.3618353 C97.7877282,32.3618353 97.7887282,32.3608353 97.7887282,32.3608353 C99.4027282,30.7098353 101.501728,30.0808353 103.406728,30.6748353 C103.803728,30.7988353 104.082728,31.1548353 104.107728,31.5698353 C104.256728,34.0438353 103.339728,36.5328353 101.715728,38.0668353 C100.610728,39.1158353 99.2787282,39.6628353 97.9337282,39.6628353 M90.8097282,48.1248353 C90.7627282,48.1248353 90.7157282,48.1218353 90.6677282,48.1148353 C88.7457282,47.8398353 87.0727282,46.5228353 86.1917282,44.5928353 C85.3697282,42.7798353 85.3457282,40.6768353 86.1217282,38.8208353 C86.2837282,38.4328353 86.6557282,38.2028353 87.0927282,38.2077554 C89.1717282,38.3068353 90.9677282,39.4798353 91.8947282,41.3438353 C92.8357282,43.2248353 92.7577282,45.6228353 91.6897282,47.5998353 C91.5137282,47.9268353 91.1727282,48.1248353 90.8097282,48.1248353 M95.8257282,49.7828353 C94.8887282,49.7828353 93.9647282,49.5218353 93.1267282,48.9948353 C92.7737282,48.7728353 92.5947282,48.3548353 92.6797282,47.9458353 C93.1477282,45.6938353 94.3427282,43.7538353 96.0477282,42.4858353 C96.0477282,42.4848353 96.0487282,42.4848353 96.0487282,42.4838353 C97.9007282,41.1128353 100.072728,40.8238353 101.860728,41.7128353 C102.233728,41.8968353 102.452728,42.2928353 102.411728,42.7058353 C102.168728,45.1688353 100.870728,47.4818353 99.0247282,48.7408353 C98.0137282,49.4338353 96.9097282,49.7828353 95.8257282,49.7828353 M86.7987282,57.0008353 C86.6997282,57.0008353 86.6007282,56.9858353 86.5027282,56.9558353 C84.6467282,56.3808353 83.2047282,54.8088353 82.6477282,52.7528353 C82.1287282,50.8238353 82.4427282,48.7368353 83.5057282,47.0248353 C83.7277282,46.6678353 84.1477282,46.4878353 84.5607282,46.5728353 C86.5997282,46.9998353 88.1857282,48.4458353 88.8027282,50.4388353 C89.4307282,52.4538353 88.9667282,54.8188353 87.5917282,56.6098353 C87.3997282,56.8598353 87.1047282,57.0008353 86.7987282,57.0008353 M92.1357282,59.4858353 C90.9097282,59.4858353 89.7437282,59.0568353 88.7887282,58.2158353 C88.4757282,57.9398353 88.3667282,57.4988353 88.5167282,57.1078353 C89.3427282,54.9468353 90.8357282,53.2118353 92.7197282,52.2238353 C92.7207282,52.2238353 92.7217282,52.2238353 92.7217282,52.2228353 C94.7697282,51.1558353 96.9617282,51.2128353 98.5877282,52.3758353 C98.9257282,52.6168353 99.0797282,53.0418353 98.9737282,53.4438353 C98.3417282,55.8428353 96.6897282,57.9298353 94.6617282,58.8898353 C93.8237282,59.2888353 92.9657282,59.4858353 92.1357282,59.4858353 M81.3577282,65.2088353 C81.2067282,65.2088353 81.0557282,65.1748353 80.9147282,65.1048353 C79.1687282,64.2428353 78.0027282,62.4508353 77.7957282,60.3108353 C77.6067282,58.3148353 78.2607282,56.2918353 79.5917282,54.7588353 C79.8657282,54.4398353 80.3127282,54.3288353 80.7027282,54.4798353 C82.6537282,55.2238353 83.9867282,56.9118353 84.2687282,58.9928353 C84.5567282,61.0908353 83.7037282,63.3688353 82.0437282,64.9358353 C81.8537282,65.1148353 81.6077282,65.2088353 81.3577282,65.2088353 M86.9117282,68.5678353 C85.3567282,68.5678353 83.9497282,67.9248353 82.9627282,66.7108353 C82.6987282,66.3868353 82.6647282,65.9338353 82.8747282,65.5748353 C84.0577282,63.5538353 85.8217282,62.0638353 87.8447282,61.3768353 L87.8467282,61.3768353 C90.0447282,60.6328353 92.2077282,61.0358353 93.6287282,62.4478353 C93.9237282,62.7408353 94.0057282,63.1848353 93.8367282,63.5638353 C92.8197282,65.8478353 90.8407282,67.6638353 88.6757282,68.3018353 C88.0767282,68.4808353 87.4847282,68.5678353 86.9117282,68.5678353 M75.2967282,73.9028353 C75.0247282,73.9028353 74.7517282,73.7918353 74.5547282,73.5728353 C74.1847282,73.1628353 74.2167282,72.5308353 74.6267282,72.1608353 C76.2497282,70.6948353 77.8117282,69.1268353 79.2687282,67.4978353 C79.6367282,67.0858353 80.2687282,67.0508353 80.6807282,67.4198353 C81.0917282,67.7878353 81.1267282,68.4198353 80.7587282,68.8318353 C79.2547282,70.5118353 77.6427282,72.1328353 75.9667282,73.6448353 C75.7757282,73.8178353 75.5357282,73.9028353 75.2967282,73.9028353" id="Fill-6" fill="#969CBB"></path>
            <polygon id="Fill-9" fill="#464C6D" points="32.3531282 86.0454353 72.2841282 86.0454353 72.2841282 68.2404353 32.3531282 68.2404353"></polygon>
            <polygon id="Fill-11" fill="#FFFFFF" points="42.8371282 78.1434353 61.8021282 78.1434353 61.8021282 76.1434353 42.8371282 76.1434353"></polygon>
            <path d="M61.9335282,51.5576353 C68.6085282,44.8836353 72.2845282,36.0086353 72.2845282,26.5686353 L72.2845282,11.3446353 L32.3535282,11.3446353 L32.3535282,26.5686353 C32.3535282,36.0086353 36.0295282,44.8826353 42.7045282,51.5576353 C45.2025282,54.0556353 46.5785282,57.3766353 46.5785282,60.9086353 L46.5785282,61.9186353 L40.2555282,61.9186353 L40.2555282,70.2406353 L64.3825282,70.2406353 L64.3825282,61.9186353 L58.0605282,61.9186353 L58.0605282,60.9086353 C58.0605282,57.3766353 59.4365282,54.0556353 61.9335282,51.5576353" id="Fill-12" fill="#DEE0EA"></path>
            <polygon id="Fill-13" fill="#D20050" points="41.5471282 68.5994353 63.0241282 68.5994353 63.0241282 63.2304353 41.5471282 63.2304353"></polygon>
            <path d="M52.3192282,38.6318353 C47.4102282,38.6318353 43.4172282,34.6378353 43.4172282,29.7298353 C43.4172282,24.8208353 47.4102282,20.8268353 52.3192282,20.8268353 C57.2282282,20.8268353 61.2212282,24.8208353 61.2212282,29.7298353 C61.2212282,34.6378353 57.2282282,38.6318353 52.3192282,38.6318353" id="Fill-14" fill="#1D71B8"></path>
            <path d="M17.3359282,51.0322353 L17.3359282,51.0312353 C17.6669282,49.9622353 18.3949282,49.1582353 19.3779282,48.7472353 C19.8659282,49.8462353 19.9649282,51.0592353 19.6509282,52.2292353 C19.3469282,53.3492353 18.6779282,54.2512353 17.8029282,54.7532353 C17.1489282,53.5842353 16.9679282,52.2152353 17.3359282,51.0322353 M15.4259282,50.4372353 C14.7979282,52.4542353 15.2619282,54.8192353 16.6369282,56.6102353 C16.8289282,56.8612353 17.1239282,57.0002353 17.4299282,57.0002353 C17.5279282,57.0002353 17.6279282,56.9862353 17.7259282,56.9552353 C19.5819282,56.3802353 21.0239282,54.8092353 21.5819282,52.7502353 C22.0999282,50.8242353 21.7859282,48.7372353 20.7229282,47.0242353 C20.5019282,46.6672353 20.0819282,46.4872353 19.6679282,46.5732353 C17.6299282,47.0002353 16.0439282,48.4442353 15.4259282,50.4372353" id="Fill-15" fill="#343852"></path>
            <path d="M90.6718282,25.8042353 C89.8548282,24.9122353 89.3848282,23.7872353 89.3148282,22.5792353 C90.3748282,22.4892353 91.3898282,22.8732353 92.1778282,23.6762353 C93.0488282,24.5582353 93.5168282,25.8552353 93.4738282,27.1872353 C92.4638282,27.1442353 91.4548282,26.6542353 90.6718282,25.8042353 M95.3618282,28.3012353 C95.7618282,26.0872353 95.0868282,23.7762353 93.6038282,22.2732353 C92.1358282,20.7792353 90.0618282,20.2202353 88.0558282,20.7832353 C87.6508282,20.8972353 87.3598282,21.2512353 87.3278282,21.6692353 C87.1718282,23.6892353 87.8538282,25.6892353 89.1988282,27.1582353 C90.4048282,28.4662353 92.0048282,29.1902353 93.6178282,29.1902353 C93.9308282,29.1902353 94.2428282,29.1632353 94.5538282,29.1082353 C94.9648282,29.0342353 95.2878282,28.7132353 95.3618282,28.3012353" id="Fill-16" fill="#343852"></path>
            <path d="M101.097628,25.8681353 C100.360628,26.8371353 99.3816282,27.3541353 98.3496282,27.3271353 C98.3266282,25.8101353 98.7456282,24.3381353 99.5406282,23.1991353 C100.267628,22.1611353 101.204628,21.5491353 102.188628,21.4461353 C102.368628,23.0801353 101.974628,24.7221353 101.097628,25.8681353 M97.9016282,22.0531353 C97.9016282,22.0541353 97.9006282,22.0551353 97.9006282,22.0551353 C96.6986282,23.7791353 96.1566282,26.0611353 96.4116282,28.3161353 C96.4586282,28.7311353 96.7586282,29.0741353 97.1646282,29.1741353 C97.5826282,29.2781353 98.0006282,29.3281353 98.4126282,29.3281353 C100.041628,29.3281353 101.580628,28.5351353 102.688628,27.0811353 C104.047628,25.3021353 104.556628,22.6861353 104.015628,20.2531353 C103.924628,19.8481353 103.593628,19.5411353 103.182628,19.4811353 C101.213628,19.1971353 99.2306282,20.1541353 97.9016282,22.0531353" id="Fill-17" fill="#343852"></path>
            <path d="M92.6044282,36.7016353 C91.6134282,36.4986353 90.6944282,35.8576353 90.0554282,34.8966353 C89.3894282,33.8916353 89.1044282,32.7186353 89.2244282,31.5286353 C90.2874282,31.6106353 91.2294282,32.1456353 91.8794282,33.0566353 C92.5964282,34.0566353 92.8544282,35.4006353 92.6044282,36.7016353 M88.2694282,29.5546353 C87.8524282,29.6006353 87.5084282,29.9036353 87.4094282,30.3106353 C86.9324282,32.2686353 87.2894282,34.3426353 88.3884282,36.0026353 C89.5444282,37.7406353 91.3684282,38.7706353 93.2794282,38.7706353 C93.3074282,38.7706353 93.3364282,38.7706353 93.3664282,38.7696353 C93.7854282,38.7636353 94.1554282,38.4956353 94.2924282,38.1006353 C95.0354282,35.9816353 94.7334282,33.6026353 93.5064282,31.8926353 C92.2954282,30.1976353 90.3444282,29.3186353 88.2694282,29.5546353" id="Fill-18" fill="#343852"></path>
            <path d="M87.7236282,40.3086353 C88.7606282,40.5586353 89.6066282,41.2356353 90.1046282,42.2376353 C90.6556282,43.3366353 90.6966282,44.7046353 90.2436282,45.9526353 C89.2976282,45.5956353 88.4926282,44.8156353 88.0126282,43.7646353 C87.5156282,42.6676353 87.4186282,41.4646353 87.7236282,40.3086353 M90.6676282,48.1146353 C90.7156282,48.1216353 90.7626282,48.1246353 90.8096282,48.1246353 C91.1726282,48.1246353 91.5136282,47.9266353 91.6896282,47.6006353 C92.7576282,45.6226353 92.8356282,43.2246353 91.8946282,41.3446353 C90.9676282,39.4796353 89.1716282,38.3076353 87.0926282,38.2075839 C86.6566282,38.2036353 86.2846282,38.4336353 86.1216282,38.8206353 C85.3456282,40.6766353 85.3696282,42.7796353 86.1916282,44.5926353 C87.0736282,46.5226353 88.7456282,47.8396353 90.6676282,48.1146353" id="Fill-19" fill="#343852"></path>
            <path d="M16.2167282,43.7617353 C15.7367282,44.8147353 14.9307282,45.5947353 13.9857282,45.9517353 C13.5317282,44.7047353 13.5727282,43.3367353 14.1237282,42.2377353 C14.1237282,42.2367353 14.1247282,42.2357353 14.1247282,42.2347353 C14.6217282,41.2347353 15.4677282,40.5587353 16.5047282,40.3087353 C16.8097282,41.4647353 16.7127282,42.6677353 16.2167282,43.7617353 M17.1357282,38.2077353 C15.0577282,38.3067353 13.2627282,39.4787353 12.3347282,41.3417353 C11.3927282,43.2247353 11.4707282,45.6227353 12.5387282,47.5997353 C12.7157282,47.9267353 13.0557282,48.1247353 13.4187282,48.1247353 C13.4657282,48.1247353 13.5127282,48.1217353 13.5607282,48.1147353 C15.4827282,47.8397353 17.1547282,46.5227353 18.0377282,44.5907353 C18.8587282,42.7797353 18.8827282,40.6767353 18.1067282,38.8207353 C17.9447282,38.4327353 17.5677282,38.1917353 17.1357282,38.2077353" id="Fill-20" fill="#343852"></path>
            <path d="M98.1542282,12.6215353 C98.7022282,11.4675353 99.5252282,10.7035353 100.477228,10.4445353 C100.929228,12.0585353 100.808228,13.7705353 100.125228,15.0625353 C99.5532282,16.1465353 98.6752282,16.8095353 97.6512282,16.9545353 C97.3812282,15.4385353 97.5542282,13.8935353 98.1542282,12.6215353 M95.8952282,18.2385353 C96.0072282,18.6415353 96.3572282,18.9315353 96.7732282,18.9665353 C96.9252282,18.9795353 97.0742282,18.9855353 97.2212282,18.9855353 C99.1712282,18.9855353 100.895228,17.8925353 101.893228,15.9965353 C102.947228,14.0065353 103.022228,11.3165353 102.089228,8.97553526 C101.937228,8.59553526 101.569228,8.34653526 101.160228,8.34653526 L101.146228,8.34653526 C99.1422282,8.37453526 97.3482282,9.65253526 96.3472282,11.7655353 C96.3462282,11.7655353 96.3462282,11.7665353 96.3462282,11.7665353 C95.4452282,13.6775353 95.2812282,16.0365353 95.8952282,18.2385353" id="Fill-21" fill="#343852"></path>
            <path d="M91.0585282,2.34713526 C92.1245282,2.97213526 93.0135282,4.08313526 93.4825282,5.42413526 C93.9515282,6.75313526 93.9485282,8.16013526 93.5025282,9.29513526 C92.5255282,8.56613526 91.7415282,7.47613526 91.2885282,6.19313526 C90.8355282,4.90013526 90.7605282,3.54613526 91.0585282,2.34713526 M93.4425282,11.5941353 C93.5835282,11.6621353 93.7335282,11.6961353 93.8815282,11.6961353 C94.2005282,11.6961353 94.5105282,11.5431353 94.7035282,11.2671353 C95.9155282,9.52713526 96.1705282,7.03313526 95.3705282,4.76113526 C94.5715282,2.47813526 92.8065282,0.671135262 90.7635282,0.0441352618 C90.2875282,-0.101864738 89.7675282,0.129135262 89.5605282,0.587135262 C88.7155282,2.44613526 88.6585282,4.73013526 89.4015282,6.85613526 C90.1485282,8.97413526 91.6205282,10.7011353 93.4425282,11.5941353" id="Fill-22" fill="#343852"></path>
            <path d="M90.9560282,14.2748353 C91.9670282,15.0238353 92.6430282,16.2518353 92.8140282,17.5948353 C91.8100282,17.7098353 90.7380282,17.3858353 89.8290282,16.6638353 C88.8720282,15.8998353 88.2220282,14.8428353 87.9540282,13.6338353 C88.9800282,13.3778353 90.0450282,13.5968353 90.9560282,14.2748353 M88.5830282,18.2288353 C89.7320282,19.1408353 91.0810282,19.6188353 92.4080282,19.6188353 C93.0140282,19.6188353 93.6130282,19.5198353 94.1880282,19.3168353 C94.5830282,19.1788353 94.8500282,18.8088353 94.8560282,18.3908353 C94.8940282,16.1268353 93.8550282,13.9338353 92.1480282,12.6688353 C90.4520282,11.4058353 88.3100282,11.1828353 86.4190282,12.0668353 C86.0390282,12.2448353 85.8100282,12.6418353 85.8470282,13.0598353 C86.0280282,15.1288353 86.9990282,16.9638353 88.5830282,18.2288353" id="Fill-23" fill="#343852"></path>
            <path d="M84.8505282,48.7470353 C85.8335282,49.1580353 86.5615282,49.9620353 86.8925282,51.0320353 C87.2605282,52.2150353 87.0795282,53.5840353 86.4255282,54.7530353 C85.5505282,54.2510353 84.8815282,53.3500353 84.5785282,52.2310353 C84.2635282,51.0600353 84.3625282,49.8470353 84.8505282,48.7470353 M86.5025282,56.9550353 C86.6005282,56.9860353 86.7005282,57.0000353 86.7985282,57.0000353 C87.1045282,57.0000353 87.3995282,56.8600353 87.5915282,56.6100353 C88.9665282,54.8190353 89.4305282,52.4540353 88.8025282,50.4390353 C88.1855282,48.4450353 86.5995282,47.0000353 84.5605282,46.5730353 C84.1475282,46.4880353 83.7275282,46.6670353 83.5055282,47.0240353 C82.4425282,48.7370353 82.1285282,50.8240353 82.6475282,52.7520353 C83.2045282,54.8090353 84.6465282,56.3800353 86.5025282,56.9550353" id="Fill-24" fill="#343852"></path>
            <path d="M2.04002823,21.4457353 C3.02302823,21.5487353 3.96102823,22.1617353 4.68702823,23.1987353 C5.48202823,24.3387353 5.90102823,25.8107353 5.87902823,27.3267353 C4.85002823,27.3687353 3.86902823,26.8377353 3.13002823,25.8657353 C2.25402823,24.7207353 1.85902823,23.0807353 2.04002823,21.4457353 M5.81602823,29.3287353 C6.22702823,29.3287353 6.64502823,29.2777353 7.06302823,29.1747353 C7.47002823,29.0737353 7.76902823,28.7317353 7.81602823,28.3167353 C8.07202823,26.0607353 7.53002823,23.7797353 6.32702823,22.0527353 C4.99802823,20.1557353 3.02302823,19.1957353 1.04602823,19.4807353 C0.635028227,19.5407353 0.304028227,19.8477353 0.213028227,20.2537353 C-0.327971773,22.6857353 0.181028227,25.3017353 1.53902823,27.0787353 C2.64702823,28.5357353 4.18602823,29.3287353 5.81602823,29.3287353" id="Fill-25" fill="#343852"></path>
            <path d="M34.3531282,84.0454353 L70.2841282,84.0454353 L70.2841282,70.2404353 L34.3531282,70.2404353 L34.3531282,84.0454353 Z M42.2561282,68.2404353 L62.3831282,68.2404353 L62.3831282,63.9184353 L42.2561282,63.9184353 L42.2561282,68.2404353 Z M44.1191282,50.1434353 C37.8211282,43.8464353 34.3531282,35.4744353 34.3531282,26.5684353 L34.3531282,13.3444353 L70.2841282,13.3444353 L70.2841282,26.5684353 C70.2841282,35.4744353 66.8161282,43.8474353 60.5191282,50.1434353 C57.6441282,53.0194353 56.0601282,56.8424353 56.0601282,60.9084353 L56.0601282,61.9184353 L48.5781282,61.9184353 L48.5781282,60.9084353 C48.5781282,56.8424353 46.9941282,53.0194353 44.1191282,50.1434353 L44.1191282,50.1434353 Z M24.8851282,18.0854353 L32.3531282,18.0854353 L32.3531282,26.5684353 C32.3531282,32.8414353 33.9851282,38.8594353 37.0331282,44.1534353 C29.6141282,37.5424353 25.1631282,28.0834353 24.8851282,18.0854353 L24.8851282,18.0854353 Z M72.2841282,18.0854353 L79.7541282,18.0854353 C79.4751282,28.0824353 75.0241282,37.5424353 67.6051282,44.1544353 C70.6521282,38.8604353 72.2841282,32.8414353 72.2841282,26.5684353 L72.2841282,18.0854353 Z M72.2841282,68.2404353 L64.3831282,68.2404353 L64.3831282,61.9184353 L58.0601282,61.9184353 L58.0601282,60.9084353 C58.0601282,57.3764353 59.4361282,54.0554353 61.9331282,51.5574353 C62.6251282,50.8664353 63.2761282,50.1464353 63.9021282,49.4094353 L63.9711282,49.5034353 L66.0171282,48.0144353 C75.8801282,40.8414353 81.7671282,29.2794353 81.7671282,17.0854353 L81.7671282,16.0854353 L72.2841282,16.0854353 L72.2841282,11.3444353 L32.3531282,11.3444353 L32.3531282,16.0854353 L22.8711282,16.0854353 L22.8711282,17.0854353 C22.8711282,29.2804353 28.7591282,40.8424353 38.6211282,48.0144353 L40.6681282,49.5034353 L40.7361282,49.4094353 C41.3621282,50.1464353 42.0141282,50.8664353 42.7051282,51.5574353 C45.2021282,54.0554353 46.5781282,57.3764353 46.5781282,60.9084353 L46.5781282,61.9184353 L40.2561282,61.9184353 L40.2561282,68.2404353 L32.3531282,68.2404353 L32.3531282,84.0454353 L27.0321282,84.0454353 L27.0321282,86.0454353 L32.3531282,86.0454353 L72.2841282,86.0454353 L77.6061282,86.0454353 L77.6061282,84.0454353 L72.2841282,84.0454353 L72.2841282,68.2404353 Z" id="Fill-26" fill="#343852"></path>
            <path d="M79.2685282,67.4975353 C77.8115282,69.1265353 76.2495282,70.6945353 74.6265282,72.1605353 C74.2165282,72.5305353 74.1845282,73.1625353 74.5545282,73.5725353 C74.7515282,73.7915353 75.0245282,73.9025353 75.2965282,73.9025353 C75.5365282,73.9025353 75.7755282,73.8175353 75.9665282,73.6445353 C77.6425282,72.1325353 79.2545282,70.5125353 80.7585282,68.8315353 C81.1265282,68.4195353 81.0915282,67.7875353 80.6805282,67.4195353 C80.2685282,67.0515353 79.6365282,67.0855353 79.2685282,67.4975353" id="Fill-27" fill="#343852"></path>
            <path d="M81.1894282,62.9184353 C80.4094282,62.2834353 79.8994282,61.2824353 79.7864282,60.1194353 C79.6714282,58.9154353 79.9824282,57.6944353 80.6474282,56.6724353 C81.5504282,57.2344353 82.1354282,58.1474353 82.2874282,59.2624353 C82.4574282,60.5044353 82.0434282,61.8494353 81.1894282,62.9184353 M84.2684282,58.9924353 C83.9874282,56.9114353 82.6544282,55.2244353 80.7034282,54.4794353 C80.3124282,54.3294353 79.8664282,54.4394353 79.5914282,54.7584353 C78.2604282,56.2914353 77.6064282,58.3144353 77.7954282,60.3114353 C78.0024282,62.4504353 79.1684282,64.2424353 80.9154282,65.1054353 C81.0554282,65.1744353 81.2074282,65.2084353 81.3574282,65.2084353 C81.6074282,65.2084353 81.8534282,65.1144353 82.0434282,64.9364353 C83.7044282,63.3684353 84.5564282,61.0904353 84.2684282,58.9924353" id="Fill-28" fill="#343852"></path>
            <path d="M28.9316282,73.9028353 C29.2036282,73.9028353 29.4766282,73.7918353 29.6736282,73.5728353 C30.0436282,73.1628353 30.0116282,72.5308353 29.6016282,72.1608353 C27.9786282,70.6948353 26.4166282,69.1268353 24.9596282,67.4978353 C24.5916282,67.0858353 23.9596282,67.0508353 23.5476282,67.4198353 C23.1366282,67.7878353 23.1016282,68.4198353 23.4696282,68.8318353 C24.9736282,70.5118353 26.5856282,72.1318353 28.2616282,73.6448353 C28.4526282,73.8178353 28.6926282,73.9028353 28.9316282,73.9028353" id="Fill-29" fill="#343852"></path>
            <path d="M45.4169282,29.7295353 C45.4169282,25.9235353 48.5139282,22.8275353 52.3189282,22.8275353 C56.1249282,22.8275353 59.2219282,25.9235353 59.2219282,29.7295353 C59.2219282,33.5355353 56.1249282,36.6315353 52.3189282,36.6315353 C48.5139282,36.6315353 45.4169282,33.5355353 45.4169282,29.7295353 M61.2219282,29.7295353 C61.2219282,24.8205353 57.2289282,20.8275353 52.3189282,20.8275353 C47.4099282,20.8275353 43.4169282,24.8205353 43.4169282,29.7295353 C43.4169282,34.6385353 47.4099282,38.6315353 52.3189282,38.6315353 C57.2289282,38.6315353 61.2219282,34.6385353 61.2219282,29.7295353" id="Fill-30" fill="#343852"></path>
            <path d="M100.340828,36.6142353 C99.4588282,37.4502353 98.4128282,37.7952353 97.3968282,37.6132353 C97.6128282,36.1222353 98.2588282,34.7472353 99.2218282,33.7562353 C100.102828,32.8542353 101.108828,32.3992353 102.114828,32.4582353 C102.031828,34.0852353 101.384828,35.6292353 100.340828,36.6142353 M103.406828,30.6752353 C101.501828,30.0802353 99.4028282,30.7092353 97.7888282,32.3602353 C97.7888282,32.3612353 97.7878282,32.3612353 97.7878282,32.3622353 C96.3258282,33.8652353 95.4288282,36.0242353 95.3258282,38.2832353 C95.3078282,38.7012353 95.5498282,39.0862353 95.9348282,39.2492353 C96.5878282,39.5272353 97.2618282,39.6622353 97.9338282,39.6622353 C99.2788282,39.6622353 100.610828,39.1162353 101.715828,38.0672353 C103.339828,36.5332353 104.256828,34.0432353 104.107828,31.5702353 C104.082828,31.1552353 103.803828,30.7992353 103.406828,30.6752353" id="Fill-31" fill="#343852"></path>
            <path d="M97.8955282,47.0898353 C96.8925282,47.7768353 95.8085282,47.9548353 94.8305282,47.6108353 C95.2805282,46.1708353 96.1345282,44.9138353 97.2415282,44.0898353 C98.2535282,43.3398353 99.3365282,43.0578353 100.303528,43.2688353 C99.9655282,44.8598353 99.0825282,46.2808353 97.8955282,47.0898353 M101.861528,41.7128353 C100.073528,40.8238353 97.9005282,41.1128353 96.0485282,42.4838353 C96.0485282,42.4848353 96.0475282,42.4848353 96.0475282,42.4858353 C94.3425282,43.7538353 93.1475282,45.6938353 92.6795282,47.9448353 C92.5945282,48.3548353 92.7735282,48.7728353 93.1265282,48.9948353 C93.9645282,49.5218353 94.8885282,49.7828353 95.8265282,49.7828353 C96.9105282,49.7828353 98.0135282,49.4338353 99.0245282,48.7408353 C100.871528,47.4818353 102.168528,45.1688353 102.412528,42.7058353 C102.453528,42.2928353 102.233528,41.8968353 101.861528,41.7128353" id="Fill-32" fill="#343852"></path>
            <path d="M93.8046282,57.0825353 C92.7006282,57.6095353 91.6006282,57.6155353 90.6916282,57.1215353 C91.3706282,55.7575353 92.4206282,54.6395353 93.6476282,53.9965353 C94.7666282,53.4125353 95.8806282,53.3025353 96.8036282,53.6645353 C96.2146282,55.1905353 95.1116282,56.4645353 93.8046282,57.0825353 M98.5876282,52.3755353 C96.9616282,51.2125353 94.7696282,51.1565353 92.7216282,52.2235353 C92.7216282,52.2235353 92.7206282,52.2245353 92.7196282,52.2245353 C90.8356282,53.2115353 89.3426282,54.9465353 88.5166282,57.1075353 C88.3676282,57.4985353 88.4756282,57.9395353 88.7886282,58.2155353 C89.7436282,59.0575353 90.9096282,59.4855353 92.1356282,59.4855353 C92.9656282,59.4855353 93.8246282,59.2885353 94.6616282,58.8905353 C96.6896282,57.9305353 98.3416282,55.8435353 98.9736282,53.4435353 C99.0796282,53.0415353 98.9256282,52.6165353 98.5876282,52.3755353" id="Fill-33" fill="#343852"></path>
            <path d="M88.1074282,66.3852353 C86.9234282,66.7372353 85.8344282,66.5742353 85.0184282,65.9432353 C85.9264282,64.6792353 87.1594282,63.7222353 88.4854282,63.2712353 C89.6884282,62.8642353 90.8084282,62.9282353 91.6604282,63.4332353 C90.8234282,64.8682353 89.5134282,65.9702353 88.1074282,66.3852353 M87.8464282,61.3762353 L87.8444282,61.3762353 C85.8224282,62.0642353 84.0574282,63.5542353 82.8754282,65.5742353 C82.6654282,65.9342353 82.6994282,66.3872353 82.9624282,66.7102353 C83.9504282,67.9242353 85.3564282,68.5682353 86.9124282,68.5682353 C87.4844282,68.5682353 88.0774282,68.4812353 88.6754282,68.3022353 C90.8404282,67.6632353 92.8194282,65.8482353 93.8364282,63.5642353 C94.0054282,63.1852353 93.9234282,62.7402353 93.6284282,62.4472353 C92.2084282,61.0352353 90.0444282,60.6322353 87.8464282,61.3762353" id="Fill-34" fill="#343852"></path>
            <path d="M10.4218282,57.0815353 C9.11582823,56.4645353 8.01382823,55.1905353 7.42482823,53.6645353 C8.34782823,53.3025353 9.46282823,53.4115353 10.5798282,53.9955353 C11.8068282,54.6395353 12.8578282,55.7565353 13.5368282,57.1215353 C12.6268282,57.6145353 11.5258282,57.6065353 10.4218282,57.0815353 M15.4398282,58.2155353 C15.7528282,57.9395353 15.8608282,57.4985353 15.7118282,57.1075353 C14.8858282,54.9465353 13.3928282,53.2115353 11.5068282,52.2235353 C9.46082823,51.1565353 7.26882823,51.2125353 5.64082823,52.3755353 C5.30282823,52.6165353 5.14882823,53.0415353 5.25482823,53.4435353 C5.88682823,55.8435353 7.53882823,57.9305353 9.56482823,58.8895353 C10.4028282,59.2885353 11.2618282,59.4855353 12.0928282,59.4855353 C13.3188282,59.4855353 14.4848282,59.0565353 15.4398282,58.2155353" id="Fill-35" fill="#343852"></path>
            <path d="M21.9414282,59.2622353 C21.9424282,59.2622353 21.9424282,59.2612353 21.9424282,59.2602353 C22.0924282,58.1472353 22.6774282,57.2352353 23.5814282,56.6722353 C24.2464282,57.6952353 24.5564282,58.9152353 24.4424282,60.1172353 C24.3294282,61.2832353 23.8194282,62.2832353 23.0394282,62.9182353 C22.1854282,61.8492353 21.7714282,60.5042353 21.9414282,59.2622353 M26.4324282,60.3092353 C26.6224282,58.3152353 25.9674282,56.2912353 24.6364282,54.7582353 C24.3614282,54.4402353 23.9164282,54.3292353 23.5254282,54.4792353 C21.5744282,55.2242353 20.2414282,56.9112353 19.9604282,58.9922353 C19.6714282,61.0922353 20.5244282,63.3692353 22.1844282,64.9362353 C22.3754282,65.1152353 22.6214282,65.2082353 22.8714282,65.2082353 C23.0214282,65.2082353 23.1724282,65.1742353 23.3134282,65.1052353 C25.0594282,64.2422353 26.2254282,62.4502353 26.4324282,60.3092353" id="Fill-36" fill="#343852"></path>
            <path d="M10.7460282,5.42383526 C10.7460282,5.42283526 10.7460282,5.42283526 10.7470282,5.42183526 C11.2150282,4.08283526 12.1030282,2.97283526 13.1700282,2.34683526 C13.4680282,3.54583526 13.3920282,4.89983526 12.9400282,6.19083526 C12.4870282,7.47583526 11.7030282,8.56583526 10.7250282,9.29483526 C10.2800282,8.16083526 10.2770282,6.75383526 10.7460282,5.42383526 M10.3470282,11.6958353 C10.4950282,11.6958353 10.6440282,11.6628353 10.7860282,11.5938353 C12.6070282,10.7008353 14.0800282,8.97383526 14.8280282,6.85383526 C15.5700282,4.73083526 15.5130282,2.44583526 14.6680282,0.586835262 C14.4600282,0.128835262 13.9390282,-0.103164738 13.4650282,0.0448352618 C11.4220282,0.670835262 9.65702823,2.47883526 8.85802823,4.76083526 C8.05802823,7.03483526 8.31302823,9.52783526 9.52502823,11.2678353 C9.71802823,11.5438353 10.0280282,11.6958353 10.3470282,11.6958353" id="Fill-37" fill="#343852"></path>
            <path d="M3.75092823,10.4443353 C4.70292823,10.7033353 5.52592823,11.4663353 6.07292823,12.6203353 C6.67392823,13.8923353 6.84792823,15.4383353 6.57692823,16.9553353 C5.55292823,16.8093353 4.67392823,16.1463353 4.10292823,15.0603353 C3.41992823,13.7713353 3.29892823,12.0583353 3.75092823,10.4443353 M7.00692823,18.9863353 C7.15392823,18.9863353 7.30392823,18.9793353 7.45492823,18.9663353 C7.87092823,18.9313353 8.22192823,18.6413353 8.33292823,18.2383353 C8.94692823,16.0363353 8.78292823,13.6773353 7.88092823,11.7653353 C6.87992823,9.65233526 5.08592823,8.37433526 3.08192823,8.34633526 L3.06792823,8.34633526 C2.65892823,8.34633526 2.29092823,8.59533526 2.13992823,8.97633526 C1.20592823,11.3163353 1.28092823,14.0063353 2.33392823,15.9943353 C3.33292823,17.8923353 5.05792823,18.9863353 7.00692823,18.9863353" id="Fill-38" fill="#343852"></path>
            <path d="M12.0507282,23.6757353 C12.0517282,23.6757353 12.0517282,23.6747353 12.0527282,23.6747353 C12.7647282,22.9477353 13.6647282,22.5667353 14.6167282,22.5667353 C14.7157282,22.5667353 14.8147282,22.5707353 14.9137282,22.5787353 C14.8437282,23.7877353 14.3747282,24.9117353 13.5587282,25.8017353 C12.7737282,26.6547353 11.7647282,27.1437353 10.7547282,27.1867353 C10.7117282,25.8547353 11.1797282,24.5577353 12.0507282,23.6757353 M15.0307282,27.1557353 C16.3747282,25.6887353 17.0567282,23.6887353 16.9007282,21.6697353 C16.8677282,21.2507353 16.5767282,20.8967353 16.1727282,20.7837353 C14.1707282,20.2237353 12.0947282,20.7777353 10.6267282,22.2717353 C9.14172823,23.7767353 8.46672823,26.0867353 8.86572823,28.3007353 C8.94072823,28.7127353 9.26372823,29.0347353 9.67472823,29.1077353 C9.98572823,29.1627353 10.2977282,29.1907353 10.6107282,29.1907353 C12.2227282,29.1907353 13.8237282,28.4657353 15.0307282,27.1557353" id="Fill-39" fill="#343852"></path>
            <path d="M13.2724282,14.2748353 L13.2754282,14.2738353 C14.1804282,13.5978353 15.2424282,13.3768353 16.2744282,13.6338353 C16.0064282,14.8428353 15.3564282,15.8998353 14.4014282,16.6628353 C13.4914282,17.3858353 12.4184282,17.7128353 11.4144282,17.5948353 C11.5854282,16.2518353 12.2624282,15.0228353 13.2724282,14.2748353 M9.37142823,18.3898353 C9.37742823,18.8088353 9.64442823,19.1788353 10.0394282,19.3168353 C10.6144282,19.5198353 11.2134282,19.6188353 11.8194282,19.6188353 C13.1464282,19.6188353 14.4964282,19.1408353 15.6474282,18.2278353 C17.2294282,16.9638353 18.2004282,15.1288353 18.3814282,13.0598353 C18.4184282,12.6418353 18.1894282,12.2448353 17.8094282,12.0668353 C15.9194282,11.1838353 13.7774282,11.4068353 12.0834282,12.6678353 C10.3744282,13.9328353 9.33442823,16.1258353 9.37142823,18.3898353" id="Fill-40" fill="#343852"></path>
            <path d="M12.3486282,33.0571353 C12.3486282,33.0571353 12.3496282,33.0561353 12.3506282,33.0551353 C12.9986282,32.1451353 13.9416282,31.6111353 15.0036282,31.5281353 C15.1236282,32.7191353 14.8386282,33.8921353 14.1736282,34.8951353 C13.5346282,35.8571353 12.6156282,36.4991353 11.6236282,36.7021353 C11.3736282,35.4011353 11.6316282,34.0571353 12.3486282,33.0571353 M10.8626282,38.7701353 C10.8916282,38.7701353 10.9206282,38.7701353 10.9496282,38.7701353 C12.8606282,38.7701353 14.6836282,37.7411353 15.8406282,36.0011353 C16.9396282,34.3431353 17.2956282,32.2681353 16.8196282,30.3111353 C16.7196282,29.9031353 16.3756282,29.6001353 15.9586282,29.5541353 C13.8826282,29.3181353 11.9336282,30.1971353 10.7236282,31.8911353 C9.49462823,33.6031353 9.19362823,35.9821353 9.93562823,38.1001353 C10.0736282,38.4951353 10.4436282,38.7631353 10.8626282,38.7701353" id="Fill-41" fill="#343852"></path>
            <path d="M16.1191282,66.3842353 C14.7151282,65.9702353 13.4041282,64.8682353 12.5681282,63.4332353 C13.4231282,62.9292353 14.5401282,62.8652353 15.7411282,63.2712353 C17.0681282,63.7212353 18.3021282,64.6782353 19.2101282,65.9432353 C18.3951282,66.5732353 17.3041282,66.7352353 16.1191282,66.3842353 M16.3821282,61.3762353 C14.1821282,60.6312353 12.0191282,61.0342353 10.5991282,62.4472353 C10.3051282,62.7402353 10.2231282,63.1852353 10.3911282,63.5642353 C11.4091282,65.8482353 13.3881282,67.6632353 15.5511282,68.3012353 C16.1501282,68.4802353 16.7441282,68.5682353 17.3171282,68.5682353 C18.8721282,68.5682353 20.2791282,67.9232353 21.2651282,66.7102353 C21.5291282,66.3872353 21.5631282,65.9342353 21.3531282,65.5742353 C20.1711282,63.5542353 18.4061282,62.0642353 16.3821282,61.3762353" id="Fill-42" fill="#343852"></path>
            <path d="M5.00682823,33.7563353 C5.96982823,34.7473353 6.61482823,36.1223353 6.83182823,37.6133353 C5.81582823,37.7953353 4.76882823,37.4503353 3.88582823,36.6123353 C2.84382823,35.6293353 2.19582823,34.0853353 2.11282823,32.4583353 C3.13082823,32.4093353 4.12682823,32.8563353 5.00682823,33.7563353 M6.29582823,39.6623353 C6.96682823,39.6623353 7.64182823,39.5263353 8.29382823,39.2493353 C8.67882823,39.0863353 8.92082823,38.7013353 8.90282823,38.2833353 C8.79982823,36.0243353 7.90282823,33.8653353 6.43982823,32.3603353 C4.82582823,30.7103353 2.72682823,30.0803353 0.820828227,30.6753353 C0.424828227,30.7983353 0.145828227,31.1553353 0.120828227,31.5693353 C-0.0281717725,34.0433353 0.888828227,36.5333353 2.51082823,38.0653353 C3.61782823,39.1153353 4.94882823,39.6623353 6.29582823,39.6623353" id="Fill-43" fill="#343852"></path>
            <path d="M3.92482823,43.2685353 C4.89282823,43.0565353 5.97482823,43.3405353 6.98682823,44.0895353 C8.09282823,44.9135353 8.94782823,46.1705353 9.39882823,47.6115353 C8.42082823,47.9555353 7.33682823,47.7765353 6.33082823,47.0885353 C5.14682823,46.2805353 4.26282823,44.8595353 3.92482823,43.2685353 M11.1018282,48.9955353 C11.4548282,48.7725353 11.6338282,48.3545353 11.5488282,47.9455353 C11.0808282,45.6925353 9.88482823,43.7535353 8.17882823,42.4845353 C6.32782823,41.1115353 4.15482823,40.8235353 2.36682823,41.7125353 C1.99482823,41.8965353 1.77582823,42.2925353 1.81682823,42.7065353 C2.05982823,45.1685353 3.35782823,47.4815353 5.20182823,48.7395353 C6.21482823,49.4335353 7.31882823,49.7825353 8.40282823,49.7825353 C9.33982823,49.7825353 10.2638282,49.5215353 11.1018282,48.9955353" id="Fill-44" fill="#343852"></path>
        </g>
    </g>
</svg>