<?xml version="1.0" encoding="UTF-8"?>
<svg width="120px" height="120px" viewBox="0 0 120 120" version="1.1" xmlns="http://www.w3.org/2000/svg" xmlns:xlink="http://www.w3.org/1999/xlink">
    <title>02.Icons/Illustrative/Carte CPS</title>
    <g id="02.Icons/Illustrative/Carte-CPS" stroke="none" stroke-width="1" fill="none" fill-rule="evenodd">
        <path d="M77,47 C77,26.5651312 60.4348687,10 40,10 C19.5651312,10 3,26.5651312 3,47 C3,67.4348687 19.5651312,84 40,84 C60.4348687,84 77,67.4348687 77,47" id="Fill-1" fill="#F2F3F7"></path>
        <path d="M21.1252477,34.6895297 L21.1252477,83.2401834 C21.1252477,85.7587485 23.1583063,87.7918071 25.6768715,87.7918071 L106.088892,87.7918071 L106.088892,34.6895297 L21.1252477,34.6895297 Z" id="Fill-1" fill="#FFFFFF"></path>
        <path d="M102.21252,30.1379059 L25.0016191,30.1379059 C22.8606491,30.1379059 21.1251529,31.8734022 21.1251529,34.0141825 L21.1251529,49.50241 C21.1251529,49.50241 26.4683799,46.7390054 37.4336209,46.7390054 C52.9865193,46.973414 65.1023729,53.378497 82.989875,53.378497 C100.877377,53.378497 106.088797,47.9852021 106.088797,47.9852021 L106.088797,34.0141825 C106.088797,31.8734022 104.353301,30.1379059 102.21252,30.1379059" id="Fill-3" fill="#1D71B8"></path>
        <path d="M101.537268,29 L25.6768715,29 C22.5396648,29 19.9873418,31.552323 19.9873418,34.6895297 L19.9873418,83.2401834 C19.9873418,86.3773901 22.5396648,88.9297131 25.6768715,88.9297131 L65.4796835,88.9297131 C66.1081869,88.9297131 66.6175895,88.4201209 66.6175895,87.7918071 C66.6175895,87.1634934 66.1081869,86.6539012 65.4796835,86.6539012 L25.6768715,86.6539012 C23.7945854,86.6539012 22.2631537,85.1224694 22.2631537,83.2401834 L22.2631537,34.6895297 C22.2631537,32.8072436 23.7945854,31.2758119 25.6768715,31.2758119 L101.537268,31.2758119 C103.419554,31.2758119 104.950986,32.8072436 104.950986,34.6895297 L104.950986,59.5366543 C104.950986,60.1651577 105.460578,60.6745602 106.088892,60.6745602 C106.717205,60.6745602 107.226798,60.1651577 107.226798,59.5366543 L107.226798,34.6895297 C107.226798,31.552323 104.674474,29 101.537268,29" id="Fill-5" fill="#343852"></path>
        <path d="M106.801752,46.2424043 C106.310176,45.8511543 105.598606,45.9268251 105.207356,46.4189694 C105.196166,46.4322449 104.041761,47.7797152 100.708455,49.1161858 C95.0834067,51.3715153 87.7410686,51.8448842 82.5721308,51.8448842 C72.7083828,51.8448842 65.1287913,50.044717 57.7985908,48.3037209 C51.2675797,46.7525655 45.0989915,45.2873219 37.9815795,45.2873219 C27.0123558,45.2873219 20.9105249,47.9913657 20.6562029,48.1064839 C20.0842155,48.3651678 19.8308418,49.0378599 20.0885775,49.6102266 C20.3465028,50.1825933 21.0199535,50.4372946 21.5926995,50.1806968 C23.6113446,49.2753029 29.6344704,47.5631338 37.9815795,47.5631338 C44.8323422,47.5631338 50.8750021,48.9984125 57.2726886,50.5178962 C64.7303345,52.2890468 72.4419231,54.1206961 82.5721308,54.1206961 C101.767845,54.1206961 106.77558,48.1030702 106.979455,47.8468517 C107.370705,47.3550867 107.293706,46.6336543 106.801752,46.2424043" id="Fill-7" fill="#343852"></path>
        <path d="M60.7717494,61.6351615 L49.1935564,61.6351615 C48.5652427,61.6351615 48.0556505,62.1447537 48.0556505,62.7730674 C48.0556505,63.4013811 48.5652427,63.9109733 49.1935564,63.9109733 L60.7717494,63.9109733 C61.4000631,63.9109733 61.9096554,63.4013811 61.9096554,62.7730674 C61.9096554,62.1447537 61.4000631,61.6351615 60.7717494,61.6351615" id="Fill-9" fill="#343852"></path>
        <path d="M49.1811912,71.2367929 L31.4211345,71.2367929 C30.7926311,71.2367929 30.2832285,71.7463851 30.2832285,72.3746988 C30.2832285,73.0030125 30.7926311,73.5126047 31.4211345,73.5126047 L49.1811912,73.5126047 C49.8095049,73.5126047 50.3190971,73.0030125 50.3190971,72.3746988 C50.3190971,71.7463851 49.8095049,71.2367929 49.1811912,71.2367929" id="Fill-11" fill="#343852"></path>
        <path d="M40.6373571,75.7980509 L31.4210776,75.7980509 C30.7925742,75.7980509 30.2831717,76.3076431 30.2831717,76.9359568 C30.2831717,77.5642706 30.7925742,78.0738628 31.4210776,78.0738628 L40.6373571,78.0738628 C41.2656709,78.0738628 41.7752631,77.5642706 41.7752631,76.9359568 C41.7752631,76.3076431 41.2656709,75.7980509 40.6373571,75.7980509" id="Fill-13" fill="#343852"></path>
        <path d="M43.5124851,80.3594986 L31.4210966,80.3594986 C30.7925932,80.3594986 30.2831906,80.8690908 30.2831906,81.4974045 C30.2831906,82.1257183 30.7925932,82.6353105 31.4210966,82.6353105 L43.5124851,82.6353105 C44.1407989,82.6353105 44.6503911,82.1257183 44.6503911,81.4974045 C44.6503911,80.8690908 44.1407989,80.3594986 43.5124851,80.3594986" id="Fill-15" fill="#343852"></path>
        <path d="M30.5305714,36.0339466 C29.893344,36.6817944 29.4579054,37.6376354 29.4579054,38.646389 C29.4579054,39.5703687 29.8402418,40.5368301 30.5305714,41.2273494 C31.1146964,41.8006643 32.0386761,42.2892053 33.2706489,42.2892053 C33.7273285,42.2892053 34.1309058,42.2042416 34.8637172,41.9389199 L34.8637172,39.7615369 C34.2158694,40.4731074 33.5361603,40.5049687 33.2600284,40.5049687 C32.7396261,40.5049687 32.2510852,40.3033697 31.943092,40.0166174 C31.571376,39.6659528 31.3695874,39.1244992 31.3695874,38.6359582 C31.3695874,38.1367968 31.5501351,37.5845331 31.9855738,37.1809558 C32.3254283,36.8729626 32.7290057,36.7136558 33.2600284,36.7136558 C33.5680216,36.7136558 34.2689717,36.7561376 34.8637172,37.488949 L34.8637172,35.2905147 C34.0990444,34.9825215 33.5467807,34.9294193 33.2069262,34.9294193 C32.1023988,34.9294193 31.1571782,35.3967193 30.5305714,36.0339466" id="Fill-17" fill="#FFFFFF"></path>
        <path d="M39.2604341,38.0730741 C39.0374045,38.2746731 38.676309,38.2961036 38.4851408,38.2961036 L37.8691544,38.2961036 L37.8691544,36.533108 L38.4957613,36.533108 C38.7294113,36.533108 39.0692659,36.5649694 39.281675,36.787999 C39.4728432,36.9789775 39.4940841,37.2340581 39.4940841,37.4252263 C39.4940841,37.5949639 39.4834636,37.8817162 39.2604341,38.0730741 M38.9630613,35.0462443 L36.0318156,35.0462443 L36.0318156,42.1300881 L37.8691544,42.1300881 L37.8691544,39.7829674 L39.026784,39.7829674 C39.5790477,39.7829674 40.237516,39.7086242 40.7897796,39.166981 C41.3420433,38.6253378 41.4163865,37.9666799 41.4163865,37.4039854 C41.4163865,36.8092399 41.310182,36.2144944 40.7579183,35.6832819 C40.2162751,35.1628796 39.5790477,35.0462443 38.9630613,35.0462443" id="Fill-19" fill="#FFFFFF"></path>
        <path d="M46.8434203,38.5190384 C46.4717044,38.1154611 46.0044043,37.9561542 45.5583452,37.8180883 L44.9954611,37.648161 C44.5600224,37.5207156 44.4325769,37.3932701 44.3794746,37.329737 C44.3051314,37.2341529 44.2838905,37.1383792 44.2838905,37.0109337 C44.2838905,36.8516269 44.3582337,36.7348019 44.4644383,36.6285973 C44.644986,36.45867 44.8892565,36.4161882 45.0698042,36.4161882 C45.3140747,36.4161882 45.7282725,36.45867 46.2805362,36.8942984 L47.0133476,35.4603472 C46.3442589,35.1098722 45.5264838,34.8870323 44.8255338,34.8870323 C43.9652769,34.8870323 43.3705314,35.1950255 43.0094359,35.5559313 C42.7014427,35.8639245 42.3615881,36.3949473 42.3615881,37.2660143 C42.3615881,37.6269201 42.4040699,38.1260815 42.7651654,38.5190384 C43.0519177,38.8376521 43.4873564,38.9971485 43.7847291,39.092543 L44.2626496,39.2412294 C44.7193292,39.3792953 44.9954611,39.4536385 45.1760088,39.613135 C45.3246952,39.7403908 45.3777975,39.8996976 45.3777975,40.0377635 C45.3777975,40.2183113 45.3034543,40.3776181 45.1972497,40.4838227 C45.0804247,40.6112681 44.8573951,40.7280931 44.4856792,40.7280931 C43.8484519,40.7280931 43.2537064,40.3776181 42.8607495,40.0059022 L42.0748358,41.4927659 C42.5846177,41.843241 43.0306768,42.0131682 43.1475018,42.0556501 C43.6679041,42.2468183 44.0927223,42.2893001 44.5387815,42.2893001 C45.2928338,42.2893001 46.0256452,42.1724751 46.6310112,41.5671091 C47.1407931,41.0573272 47.3000999,40.4307204 47.3000999,39.7828726 C47.3000999,39.2943316 47.2045158,38.9015644 46.8434203,38.5190384" id="Fill-21" fill="#FFFFFF"></path>
        <polygon id="Fill-23" fill="#DEE0EA" points="31.5560522 64.5413543 42.1765077 64.5413543 42.1765077 56.1200917 31.5560522 56.1200917"></polygon>
        <path d="M32.6939582,63.4034483 L41.0386017,63.4034483 L41.0386017,57.2579976 L32.6939582,57.2579976 L32.6939582,63.4034483 Z M42.1765077,54.9821857 L31.5560522,54.9821857 C30.9277385,54.9821857 30.4181463,55.4917779 30.4181463,56.1200917 L30.4181463,64.5413543 C30.4181463,65.169668 30.9277385,65.6790706 31.5560522,65.6790706 L42.1765077,65.6790706 C42.8048214,65.6790706 43.3144136,65.169668 43.3144136,64.5413543 L43.3144136,56.1200917 C43.3144136,55.4917779 42.8048214,54.9821857 42.1765077,54.9821857 L42.1765077,54.9821857 Z" id="Fill-25" fill="#343852"></path>
        <path d="M89.2473715,58.6007456 C78.2705618,58.6007456 69.3719477,67.4991701 69.3719477,78.4759798 C69.3719477,89.4527895 78.2705618,98.351214 89.2473715,98.351214 C100.224181,98.351214 109.122606,89.4527895 109.122606,78.4759798 C109.122606,67.4991701 100.224181,58.6007456 89.2473715,58.6007456" id="Fill-26" fill="#FFFFFF"></path>
        <polygon id="Fill-27" fill="#D20050" points="97.7381412 69.890176 86.889346 80.7389713 81.0475265 74.8973415 76.8748254 79.0700426 86.889346 89.0843735 101.910842 74.0628771"></polygon>
        <path d="M86.889327,87.4751089 L78.4841847,79.0699667 L81.0475075,76.5066439 L86.0848275,81.5437742 C86.5289901,81.9877472 87.2496639,81.9879368 87.6938265,81.5435846 L97.7381223,71.4994784 L100.301635,74.0628012 L86.889327,87.4751089 Z M102.715323,73.2583017 L98.5426218,69.0856006 C98.0984591,68.6410587 97.3777854,68.6410587 96.9336228,69.0856006 L86.889327,79.1297068 L81.852007,74.0927661 C81.4082237,73.6487931 80.6873603,73.6484138 80.243008,74.0927661 L76.0703069,78.2650879 C75.8567599,78.4786349 75.7369005,78.7680423 75.7369005,79.0699667 C75.7369005,79.3715118 75.8567599,79.6611088 76.0703069,79.8744662 L86.0848275,89.8889868 C86.3069088,90.1110681 86.5982127,90.2222036 86.889327,90.2222036 C87.1804413,90.2222036 87.4717452,90.1110681 87.6938265,89.8889868 L102.715323,74.8673007 C103.159865,74.4231381 103.159865,73.702654 102.715323,73.2583017 L102.715323,73.2583017 Z" id="Fill-28" fill="#343852"></path>
        <path d="M89.392758,97.3536308 C83.9774636,97.3536308 78.8130775,95.023958 75.2239325,90.9618235 C75.2235532,90.9612545 75.2231739,90.9608752 75.2227946,90.9604959 C72.1785169,87.5259165 70.5021918,83.0875143 70.5021918,78.4630646 C70.5021918,73.8384251 72.1785169,69.400023 75.2239325,65.964116 C78.8130775,61.9019814 83.977274,59.572119 89.392758,59.572119 C99.809149,59.572119 108.283514,68.0466735 108.283514,78.4630646 C108.283514,88.8792659 99.809149,97.3536308 89.392758,97.3536308 M89.392758,57.2963071 C83.3252538,57.2963071 77.5393814,59.9062841 73.5197287,64.4560113 C70.1062005,68.307254 68.2263799,73.2816098 68.2263799,78.4630646 C68.2263799,83.6437607 70.1058212,88.6177372 73.5185908,92.4686006 C77.5393814,97.0194657 83.3254435,99.6294427 89.392758,99.6294427 C101.06407,99.6294427 110.559326,90.1343762 110.559326,78.4630646 C110.559326,66.7917529 101.06407,57.2963071 89.392758,57.2963071" id="Fill-29" fill="#343852"></path>
    </g>
</svg>