<?xml version="1.0" encoding="UTF-8"?>
<svg width="120px" height="120px" viewBox="0 0 120 120" version="1.1" xmlns="http://www.w3.org/2000/svg" xmlns:xlink="http://www.w3.org/1999/xlink">
    <title>02.Icons/Illustrative/Cible Patient</title>
    <g id="02.Icons/Illustrative/Cible-Patient" stroke="none" stroke-width="1" fill="none" fill-rule="evenodd">
        <g id="Group-12" transform="translate(15.000000, 16.000000)">
            <path d="M67.8,33.9 C67.8,15.2 52.6,0 33.9,0 C15.2,0 0,15.2 0,33.9 C0,52.6 15.2,67.8 33.9,67.8 C52.6,67.8 67.8,52.7 67.8,33.9" id="Fill-1" fill="#F2F3F7"></path>
            <path d="M79.3,50.3 L43.9,50.3 L43.9,69.3 L85.7,69.3 L85.7,56.7 C85.6,53.1 82.8,50.3 79.3,50.3" id="Fill-3" fill="#1D71B8"></path>
            <polygon id="Fill-5" fill="#D20050" points="37.4 33.9 45.4 33.9 45.4 22.8 37.4 22.8"></polygon>
            <polygon id="Fill-7" fill="#FFFFFF" points="11.7 69 43.7 69 43.7 59.8 11.7 59.8"></polygon>
            <path d="M44.5,24.4 L44.5,32.4 C44.5,32.8 44.2,33.1 43.8,33.1 L39,33.1 C38.6,33.1 38.3,32.8 38.3,32.4 L38.3,24.4 C38.3,24 38.6,23.7 39,23.7 L43.8,23.7 C44.2,23.8 44.5,24.1 44.5,24.4 M48.7,15.5 L45.5,15.5 C43.2,15.5 41.3,17.4 41.3,19.7 L41.3,22 L39,22 C37.6,22 36.4,23.1 36.4,24.6 L36.4,32.6 C36.4,34 37.5,35.2 39,35.2 L41.3,35.2 L41.3,39.1 C41.3,39.6 41.7,40.1 42.3,40.1 C42.9,40.1 43.3,39.7 43.3,39.1 L43.3,35.2 L44,35.2 C45.4,35.2 46.6,34.1 46.6,32.6 L46.6,24.6 C46.6,23.2 45.5,22 44,22 L43.3,22 L43.3,19.7 C43.3,18.5 44.3,17.4 45.6,17.4 L48.8,17.4 C50,17.4 51.1,18.4 51.1,19.7 L51.1,45.4 C51.1,45.9 51.5,46.4 52.1,46.4 C52.7,46.4 53.1,46 53.1,45.4 L53.1,19.6 C52.9,17.3 51,15.5 48.7,15.5" id="Fill-8" fill="#343852"></path>
            <path d="M23.8,36.8 C20.4,36.8 18.2,34.3 18.2,31.3 L18.2,29.5 C18.2,26.5 20.4,24 23.8,24 C27.2,24 29.4,26.5 29.4,29.5 L29.4,31.2 C29.4,34.3 27.2,36.8 23.8,36.8" id="Fill-9" fill="#FFFFFF"></path>
            <path d="M23.8,24.9 C21.1,24.9 19.1,26.8 19.1,29.5 L19.1,31.2 C19.1,33.8 21.1,35.8 23.8,35.8 C26.5,35.8 28.5,33.9 28.5,31.2 L28.5,29.4 C28.5,26.8 26.5,24.9 23.8,24.9 M23.8,37.7 C20.1,37.7 17.2,34.9 17.2,31.2 L17.2,29.4 C17.2,25.7 20,22.9 23.8,22.9 C27.5,22.9 30.4,25.7 30.4,29.4 L30.4,31.2 C30.4,34.9 27.5,37.7 23.8,37.7" id="Fill-10" fill="#343852"></path>
            <path d="M44.8,68.5 L44.8,51.1 L79.2,51.1 C82.2,51.1 84.7,53.6 84.7,56.6 L84.7,68.5 L44.8,68.5 Z M12.7,68.4 L42.9,68.4 L42.9,60.7 L12.7,60.7 L12.7,68.4 Z M79.2,49.2 L36.3,49.2 L28.5,39.8 C26.6,37.9 23.5,37.3 20.9,38.4 C18.6,39.3 17.3,41.3 17.3,43.7 L17.3,46.9 C17.3,47.4 17.7,47.9 18.3,47.9 C18.9,47.9 19.3,47.5 19.3,46.9 L19.3,43.7 C19.3,42.1 20.2,40.8 21.8,40.2 C23.7,39.4 26,39.8 27.3,41.1 L35.3,50.7 C35.5,50.9 35.7,51 36,51 L43.1,51 L43.1,58.7 L12.7,58.7 L12.7,37.3 C12.7,36.8 12.3,36.3 11.7,36.3 C11.1,36.3 10.7,36.7 10.7,37.3 L10.7,77.5 C10.7,78 11.1,78.5 11.7,78.5 C12.3,78.5 12.7,78.1 12.7,77.5 L12.7,70.4 L84.7,70.4 L84.7,77.5 C84.7,78 85.1,78.5 85.7,78.5 C86.3,78.5 86.7,78.1 86.7,77.5 L86.7,56.6 C86.6,52.5 83.3,49.2 79.2,49.2 L79.2,49.2 Z" id="Fill-11" fill="#343852"></path>
        </g>
    </g>
</svg>