<?xml version="1.0" encoding="UTF-8"?>
<svg width="120px" height="120px" viewBox="0 0 120 120" version="1.1" xmlns="http://www.w3.org/2000/svg" xmlns:xlink="http://www.w3.org/1999/xlink">
    <title>02.Icons/Illustrative/Offres Accompagnement SI</title>
    <g id="02.Icons/Illustrative/Offres-Accompagnement-SI" stroke="none" stroke-width="1" fill="none" fill-rule="evenodd">
        <path d="M89.1296,60.9708 C89.1296,76.7118 76.3686,89.4728 60.6276,89.4728 C44.8856,89.4728 32.1246,76.7118 32.1246,60.9708 C32.1246,45.2298 44.8856,32.4688 60.6276,32.4688 C76.3686,32.4688 89.1296,45.2298 89.1296,60.9708" id="Fill-1" fill="#F2F3F7"></path>
        <path d="M69.8055,80.1562 L51.1615,80.1562 L51.1615,88.9442 L51.1615,91.5552 C51.1615,93.6972 57.7485,97.7782 58.5655,98.0752 C58.9685,98.2222 59.6695,98.3192 60.4165,98.3192 C61.0575,98.3192 61.7315,98.2482 62.2815,98.0752 C63.2305,97.7782 69.8055,93.6972 69.8055,91.5552 L69.8055,88.9442 L69.8055,80.1562 Z" id="Fill-3" fill="#1D71B8"></path>
        <path d="M60.1936,28.4008 C46.7846,28.4008 37.0516,38.4428 37.0516,51.8518 C37.0516,58.7448 39.4976,64.4738 44.1106,68.8928 C44.5306,69.3488 46.1836,71.1268 47.1746,72.3948 C48.3466,73.8938 48.5726,78.2528 48.5726,78.2528 L48.5726,78.7698 C48.5726,79.7508 48.5926,80.0658 49.5736,80.0658 L70.8126,79.9598 C71.7936,79.9598 71.9026,79.8658 71.9026,78.8848 L71.9026,78.3278 L71.9026,78.3678 C71.9026,78.3678 72.4866,73.7048 73.6576,72.2068 C74.6746,70.9058 76.1616,69.2788 76.5366,68.8728 C81.1246,64.4558 83.4536,58.7228 83.4536,51.8518 C83.4536,38.4428 73.6026,28.4008 60.1936,28.4008" id="Fill-5" fill="#FFFFFF"></path>
        <path d="M60.1935,32.6805 C49.3645,32.6805 40.5855,41.4595 40.5855,52.2885 C40.5855,57.8555 42.9095,62.8765 46.6355,66.4455 C46.9745,66.8135 48.0345,68.1615 48.9295,69.1045 C50.4955,70.7565 51.0335,72.7525 51.0335,73.7035 L51.0335,74.2695 L51.0335,74.1205 C51.0335,74.9135 51.6825,75.5615 52.4745,75.5615 L67.8305,75.5615 C68.6235,75.5615 69.2725,74.9135 69.2725,74.1205 L69.2725,73.6705 C69.2725,73.6705 69.2745,74.2065 69.2755,74.2065 C69.2765,74.2065 69.2775,74.0805 69.2775,73.7035 C69.2775,72.9165 69.9035,70.9355 71.4625,69.1045 C72.3275,68.0885 73.4845,66.7405 73.7875,66.4115 C77.4925,62.8445 79.8015,57.8375 79.8015,52.2885 C79.8015,41.4595 71.0225,32.6805 60.1935,32.6805" id="Fill-7" fill="#F2F3F7"></path>
        <polygon id="Fill-9" fill="#C5C8DA" points="57.8876 79.5872 62.5196 79.5872 63.6596 72.6742 56.7466 72.6742"></polygon>
        <polygon id="Fill-11" fill="#FFFFFF" points="53.4214 61.4184 56.7464 72.6734 63.6604 72.6734 66.8784 60.7104 60.4234 62.1474"></polygon>
        <path d="M75.7076,67.9707 L75.6666,68.0097 L75.6286,68.0517 C75.1966,68.5207 73.7046,70.1547 72.6506,71.5037 C71.2056,73.3507 70.7816,77.4067 70.7106,78.2007 L70.6976,78.3277 L70.6976,78.7697 L63.6176,78.7697 L64.5886,72.8817 L68.0306,60.8357 C68.1316,60.4807 68.0186,60.1007 67.7406,59.8577 C67.4616,59.6157 67.0686,59.5587 66.7316,59.7067 C66.6946,59.7237 62.9946,61.3537 60.2036,61.3537 C57.4196,61.3537 53.7126,59.7237 53.6756,59.7067 C53.3386,59.5587 52.9456,59.6157 52.6666,59.8577 C52.3886,60.1007 52.2756,60.4807 52.3766,60.8357 L55.8186,72.8817 L56.7896,78.7697 L49.6886,78.7697 L49.6886,78.3687 L49.6886,78.2847 L49.6816,78.2007 C49.6116,77.4067 49.1876,73.3507 47.7426,71.5037 C46.7076,70.1807 45.2316,68.5597 44.8036,68.0947 L44.7636,68.0507 L44.7196,68.0097 C40.2676,63.7437 37.8146,58.0057 37.8146,51.8517 C37.8146,39.5117 47.8536,29.4727 60.1936,29.4727 C72.5336,29.4727 82.5726,39.5117 82.5726,51.8517 C82.5726,57.9847 80.1346,63.7087 75.7076,67.9707 L75.7076,67.9707 Z M57.4636,71.7237 L54.7276,62.1467 C56.2026,62.6557 58.3316,63.2537 60.2036,63.2537 C62.0746,63.2537 64.2046,62.6557 65.6796,62.1467 L62.9436,71.7237 L57.4636,71.7237 Z M57.8666,73.6237 L62.5406,73.6237 L61.6916,78.7697 L58.7156,78.7697 L57.8666,73.6237 Z M52.0266,87.7587 L68.8216,87.7587 L68.8216,80.6697 L52.0266,80.6697 L52.0266,87.7587 Z M68.8216,91.4137 C68.1886,92.8277 62.9616,96.5497 61.6676,97.1287 C61.3506,97.2197 60.8986,97.2717 60.4166,97.2717 C59.8266,97.2717 59.3986,97.1967 59.2466,97.1517 C57.7936,96.4587 52.6616,92.7757 52.0256,91.4067 L52.0256,89.6587 L68.8216,89.6587 L68.8216,91.4137 Z M60.1936,27.5727 C46.7846,27.5727 35.9146,38.4427 35.9146,51.8517 C35.9146,58.7447 38.7926,64.9617 43.4056,69.3817 C43.8246,69.8377 45.2546,71.4057 46.2456,72.6737 C47.4176,74.1717 47.7886,78.3687 47.7886,78.3687 L47.7886,78.8847 C47.7886,79.8667 48.5926,80.6697 49.5736,80.6697 L50.1256,80.6697 L50.1256,91.5547 C50.1256,93.6977 57.7486,98.6297 58.5656,98.9277 C58.9686,99.0737 59.6696,99.1717 60.4166,99.1717 C61.0576,99.1717 61.7316,99.0997 62.2816,98.9277 C63.2306,98.6297 70.7216,93.6977 70.7216,91.5547 L70.7216,80.6697 L70.8126,80.6697 C71.7936,80.6697 72.5976,79.8667 72.5976,78.8847 L72.5976,78.3277 L72.6036,78.3687 C72.6036,78.3687 72.9756,74.1717 74.1466,72.6737 C75.1646,71.3727 76.6506,69.7467 77.0256,69.3397 C81.6136,64.9227 84.4726,58.7227 84.4726,51.8517 C84.4726,38.4427 73.6026,27.5727 60.1936,27.5727 L60.1936,27.5727 Z" id="Fill-13" fill="#343852"></path>
        <path d="M53.2217,40.8698 C54.2037,40.2378 55.2637,39.7428 56.3727,39.3968 C56.8727,39.2408 57.1537,38.7078 56.9967,38.2068 C56.8407,37.7068 56.3107,37.4278 55.8067,37.5828 C54.5347,37.9788 53.3197,38.5478 52.1947,39.2718 C51.7527,39.5568 51.6247,40.1438 51.9097,40.5848 C52.0907,40.8668 52.3967,41.0208 52.7087,41.0208 C52.8847,41.0208 53.0637,40.9728 53.2217,40.8698 M46.4897,55.0718 C46.0337,55.0718 45.6307,54.7428 45.5537,54.2788 C45.4177,53.4728 45.3497,52.6418 45.3497,51.8098 C45.3497,50.0008 45.6707,48.2318 46.3037,46.5548 C46.4897,46.0618 47.0347,45.8118 47.5277,46.0008 C48.0187,46.1848 48.2667,46.7338 48.0807,47.2238 C47.5297,48.6868 47.2497,50.2298 47.2497,51.8098 C47.2497,52.5378 47.3097,53.2628 47.4267,53.9648 C47.5137,54.4818 47.1647,54.9728 46.6477,55.0578 C46.5937,55.0678 46.5407,55.0718 46.4897,55.0718" id="Fill-16" fill="#D20050"></path>
        <path d="M93.1309,37.277 L98.1179,34.394 C98.5719,34.131 98.7279,33.55 98.4649,33.096 C98.2019,32.642 97.6199,32.485 97.1669,32.75 L92.1799,35.632 C91.7259,35.895 91.5699,36.476 91.8329,36.93 C92.0089,37.235 92.3279,37.405 92.6559,37.405 C92.8179,37.405 92.9819,37.364 93.1309,37.277 M23.2199,77.637 L28.2079,74.755 C28.6619,74.492 28.8179,73.911 28.5549,73.457 C28.2919,73.002 27.7129,72.845 27.2569,73.11 L22.2689,75.993 C21.8149,76.256 21.6589,76.837 21.9219,77.291 C22.0979,77.595 22.4169,77.765 22.7449,77.765 C22.9059,77.765 23.0689,77.724 23.2199,77.637 M28.5549,36.93 C28.8179,36.476 28.6619,35.895 28.2079,35.632 L23.2199,32.75 C22.7639,32.486 22.1849,32.643 21.9219,33.096 C21.6589,33.55 21.8149,34.131 22.2689,34.394 L27.2569,37.277 C27.4069,37.364 27.5699,37.405 27.7319,37.405 C28.0599,37.405 28.3789,37.235 28.5549,36.93 M98.4649,77.291 C98.7279,76.837 98.5719,76.256 98.1179,75.993 L93.1309,73.11 C92.6789,72.847 92.0959,73.003 91.8329,73.457 C91.5699,73.911 91.7259,74.492 92.1799,74.755 L97.1669,77.637 C97.3169,77.724 97.4809,77.765 97.6419,77.765 C97.9699,77.765 98.2889,77.595 98.4649,77.291 M23.6659,55.194 C23.6659,54.67 23.2399,54.244 22.7159,54.244 L16.9499,54.244 C16.4259,54.244 15.9999,54.67 15.9999,55.194 C15.9999,55.718 16.4259,56.144 16.9499,56.144 L22.7159,56.144 C23.2399,56.144 23.6659,55.718 23.6659,55.194 M104.3869,55.194 C104.3869,54.67 103.9609,54.244 103.4369,54.244 L97.6709,54.244 C97.1469,54.244 96.7209,54.67 96.7209,55.194 C96.7209,55.718 97.1469,56.144 97.6709,56.144 L103.4369,56.144 C103.9609,56.144 104.3869,55.718 104.3869,55.194 M41.9309,23.554 C42.3849,23.292 42.5399,22.711 42.2769,22.256 L39.3939,17.269 C39.1319,16.814 38.5489,16.658 38.0959,16.923 C37.6419,17.185 37.4859,17.766 37.7489,18.22 L40.6329,23.208 C40.8089,23.512 41.1279,23.682 41.4559,23.682 C41.6169,23.682 41.7809,23.641 41.9309,23.554 M79.7549,23.208 L82.6379,18.22 C82.9009,17.766 82.7449,17.185 82.2909,16.923 C81.8379,16.66 81.2549,16.815 80.9929,17.269 L78.1099,22.256 C77.8479,22.711 78.0029,23.292 78.4569,23.554 C78.6069,23.641 78.7709,23.682 78.9319,23.682 C79.2599,23.682 79.5789,23.512 79.7549,23.208 M60.1929,18.666 C59.6689,18.666 59.2429,18.24 59.2429,17.715 L59.2429,11.95 C59.2429,11.425 59.6689,11 60.1929,11 C60.7179,11 61.1439,11.425 61.1439,11.95 L61.1439,17.715 C61.1439,18.24 60.7179,18.666 60.1929,18.666" id="Fill-18" fill="#969CBB"></path>
    </g>
</svg>