<?xml version="1.0" encoding="UTF-8"?>
<svg width="120px" height="120px" viewBox="0 0 120 120" version="1.1" xmlns="http://www.w3.org/2000/svg" xmlns:xlink="http://www.w3.org/1999/xlink">
    <title>02.Icons/Illustrative/Offres Referentiels</title>
    <g id="02.Icons/Illustrative/Offres-Referentiels" stroke="none" stroke-width="1" fill="none" fill-rule="evenodd">
        <path d="M43.5009,91.9959 L43.4989,91.9959 C26.6549,91.9959 12.9999,78.5619 12.9999,61.9899 L12.9999,28.1259 L12.9999,26.9959 C15.3849,29.6079 20.1729,31.8319 29.8919,31.9829 L43.5009,31.9829 C60.3449,31.9829 73.9999,45.4169 73.9999,61.9899 C73.9999,78.5619 60.3449,91.9959 43.5009,91.9959" id="Fill-1" fill="#F2F3F7"></path>
        <path d="M86.1094,29.0978 L37.2054,29.0978 C35.5194,29.0978 34.1394,30.1638 34.1394,32.6898 L34.1394,95.1308 C34.1394,97.6568 35.5194,98.7228 37.2054,98.7228 L86.1094,98.7228 C87.7964,98.7228 89.1764,97.6568 89.1764,95.1308 L89.1764,32.6898 C89.1764,30.1638 87.7964,28.0978 86.1094,28.0978 L86.1094,29.0978 Z" id="Fill-4" fill="#FFFFFF"></path>
        <path d="M61.6663,19.9998 C58.5293,19.9998 55.9083,22.1828 55.2233,25.1108 L52.4643,25.1108 C51.7443,25.1108 51.1553,25.6998 51.1553,26.4198 L51.1553,31.9378 C51.1553,32.6568 51.7443,33.2458 52.4643,33.2458 L70.7963,33.2458 C71.5163,33.2458 72.1053,32.6568 72.1053,31.9378 L72.1053,26.4198 C72.1053,25.6998 71.5163,25.1108 70.7963,25.1108 L68.1093,25.1108 C67.4243,22.1828 64.8033,19.9998 61.6663,19.9998" id="Fill-6" fill="#1D71B8"></path>
        <path d="M88.2761,95.7265 C88.2761,96.8825 87.3361,97.8225 86.1801,97.8225 L37.1361,97.8225 C35.9801,97.8225 35.0391,96.8825 35.0391,95.7265 L35.0391,32.0945 C35.0391,30.9385 35.9801,29.9975 37.1361,29.9975 L51.1701,29.9975 L51.1701,31.9375 C51.1701,32.6575 51.7591,33.2455 52.4791,33.2455 L70.8101,33.2455 C71.5301,33.2455 72.1191,32.6575 72.1191,31.9375 L72.1191,29.9975 L86.1801,29.9975 C87.3361,29.9975 88.2761,30.9385 88.2761,32.0945 L88.2761,95.7265 Z M53.0701,27.0115 L55.2381,27.0115 L56.7441,27.0115 L57.0881,25.5435 C57.5891,23.3985 59.4781,21.8995 61.6811,21.8995 C63.8831,21.8995 65.7721,23.3985 66.2731,25.5435 L66.6171,27.0115 L68.1241,27.0115 L70.2191,27.0115 L70.2191,31.3455 L53.0701,31.3455 L53.0701,27.0115 Z M86.1801,28.0975 L72.1191,28.0975 L72.1191,26.4195 C72.1191,25.6995 71.5301,25.1115 70.8101,25.1115 L68.1241,25.1115 C67.4391,22.1825 64.8171,19.9995 61.6811,19.9995 C58.5441,19.9995 55.9221,22.1825 55.2381,25.1115 L52.4791,25.1115 C51.7591,25.1115 51.1701,25.6995 51.1701,26.4195 L51.1701,28.0975 L37.1361,28.0975 C34.9381,28.0975 33.1391,29.8965 33.1391,32.0945 L33.1391,95.7265 C33.1391,97.9245 34.9381,99.7225 37.1361,99.7225 L86.1801,99.7225 C88.3781,99.7225 90.1761,97.9245 90.1761,95.7265 L90.1761,32.0945 C90.1761,29.8965 88.3781,28.0975 86.1801,28.0975 L86.1801,28.0975 Z" id="Fill-9" fill="#343852"></path>
        <path d="M63.2021,26.7155 C63.2021,27.5835 62.4981,28.2875 61.6301,28.2875 C60.7621,28.2875 60.0581,27.5835 60.0581,26.7155 C60.0581,25.8475 60.7621,25.1435 61.6301,25.1435 C62.4981,25.1435 63.2021,25.8475 63.2021,26.7155" id="Fill-12" fill="#FFFFFF"></path>
        <path d="M84.765,37.3094 C84.765,36.7854 84.339,36.3594 83.815,36.3594 L82.605,36.3594 C82.08,36.3594 81.655,36.7854 81.655,37.3094 C81.655,37.8334 82.08,38.2594 82.605,38.2594 L83.815,38.2594 C84.339,38.2594 84.765,37.8334 84.765,37.3094 M78.765,37.3094 C78.765,36.7854 78.339,36.3594 77.815,36.3594 L76.605,36.3594 C76.08,36.3594 75.655,36.7854 75.655,37.3094 C75.655,37.8334 76.08,38.2594 76.605,38.2594 L77.815,38.2594 C78.339,38.2594 78.765,37.8334 78.765,37.3094 M72.713,37.3094 C72.713,36.7854 72.287,36.3594 71.763,36.3594 L70.552,36.3594 C70.028,36.3594 69.602,36.7854 69.602,37.3094 C69.602,37.8334 70.028,38.2594 70.552,38.2594 L71.763,38.2594 C72.287,38.2594 72.713,37.8334 72.713,37.3094 M66.661,37.3094 C66.661,36.7854 66.235,36.3594 65.71,36.3594 L64.499,36.3594 C63.975,36.3594 63.549,36.7854 63.549,37.3094 C63.549,37.8334 63.975,38.2594 64.499,38.2594 L65.71,38.2594 C66.235,38.2594 66.661,37.8334 66.661,37.3094 M60.608,37.3094 C60.608,36.7854 60.182,36.3594 59.658,36.3594 L58.447,36.3594 C57.922,36.3594 57.496,36.7854 57.496,37.3094 C57.496,37.8334 57.922,38.2594 58.447,38.2594 L59.658,38.2594 C60.182,38.2594 60.608,37.8334 60.608,37.3094 M54.555,37.3094 C54.555,36.7854 54.129,36.3594 53.605,36.3594 L52.395,36.3594 C51.87,36.3594 51.445,36.7854 51.445,37.3094 C51.445,37.8334 51.87,38.2594 52.395,38.2594 L53.605,38.2594 C54.129,38.2594 54.555,37.8334 54.555,37.3094 M48.502,37.3094 C48.502,36.7854 48.077,36.3594 47.552,36.3594 L46.342,36.3594 C45.818,36.3594 45.392,36.7854 45.392,37.3094 C45.392,37.8334 45.818,38.2594 46.342,38.2594 L47.552,38.2594 C48.077,38.2594 48.502,37.8334 48.502,37.3094 M41.5,38.2594 L40.289,38.2594 C39.765,38.2594 39.339,37.8334 39.339,37.3094 C39.339,36.7854 39.765,36.3594 40.289,36.3594 L41.5,36.3594 C42.025,36.3594 42.451,36.7854 42.451,37.3094 C42.451,37.8334 42.025,38.2594 41.5,38.2594" id="Fill-14" fill="#969CBB"></path>
        <path d="M42.451,88.781 L51.445,88.781 L51.445,80.997 L42.451,80.997 L42.451,88.781 Z M52.395,90.681 L41.5,90.681 C40.976,90.681 40.55,90.256 40.55,89.731 L40.55,80.047 C40.55,79.522 40.976,79.096 41.5,79.096 L52.395,79.096 C52.919,79.096 53.345,79.522 53.345,80.047 L53.345,89.731 C53.345,90.256 52.919,90.681 52.395,90.681 L52.395,90.681 Z M53.345,71.573 L53.345,69.152 C53.345,68.628 52.919,68.202 52.395,68.202 C51.871,68.202 51.445,68.628 51.445,69.152 L51.445,70.623 L42.451,70.623 L42.451,62.84 L47.601,62.84 C48.125,62.84 48.551,62.414 48.551,61.889 C48.551,61.365 48.125,60.939 47.601,60.939 L41.5,60.939 C40.976,60.939 40.55,61.365 40.55,61.889 L40.55,71.573 C40.55,72.097 40.976,72.523 41.5,72.523 L52.395,72.523 C52.919,72.523 53.345,72.097 53.345,71.573 L53.345,71.573 Z M42.451,52.466 L51.445,52.466 L51.445,44.683 L42.451,44.683 L42.451,52.466 Z M52.395,54.366 L41.5,54.366 C40.976,54.366 40.55,53.94 40.55,53.416 L40.55,43.732 C40.55,43.208 40.976,42.782 41.5,42.782 L52.395,42.782 C52.919,42.782 53.345,43.208 53.345,43.732 L53.345,53.416 C53.345,53.94 52.919,54.366 52.395,54.366 L52.395,54.366 Z" id="Fill-16" fill="#343852"></path>
        <path d="M73.7602,88.5203 C73.7602,87.9963 73.3342,87.5703 72.8102,87.5703 L59.6572,87.5703 C59.1332,87.5703 58.7072,87.9963 58.7072,88.5203 C58.7072,89.0443 59.1332,89.4703 59.6572,89.4703 L72.8102,89.4703 C73.3342,89.4703 73.7602,89.0443 73.7602,88.5203 M82.4542,81.2573 C82.4542,80.7333 82.0292,80.3073 81.5042,80.3073 L59.6572,80.3073 C59.1332,80.3073 58.7072,80.7333 58.7072,81.2573 C58.7072,81.7823 59.1332,82.2083 59.6572,82.2083 L81.5042,82.2083 C82.0292,82.2083 82.4542,81.7823 82.4542,81.2573 M73.7602,70.3633 C73.7602,69.8383 73.3342,69.4133 72.8102,69.4133 L59.6572,69.4133 C59.1332,69.4133 58.7072,69.8383 58.7072,70.3633 C58.7072,70.8873 59.1332,71.3133 59.6572,71.3133 L72.8102,71.3133 C73.3342,71.3133 73.7602,70.8873 73.7602,70.3633 M82.4542,63.1003 C82.4542,62.5763 82.0292,62.1503 81.5042,62.1503 L59.6572,62.1503 C59.1332,62.1503 58.7072,62.5763 58.7072,63.1003 C58.7072,63.6243 59.1332,64.0503 59.6572,64.0503 L81.5042,64.0503 C82.0292,64.0503 82.4542,63.6243 82.4542,63.1003 M73.7602,52.2063 C73.7602,51.6813 73.3342,51.2553 72.8102,51.2553 L59.6572,51.2553 C59.1332,51.2553 58.7072,51.6813 58.7072,52.2063 C58.7072,52.7303 59.1332,53.1563 59.6572,53.1563 L72.8102,53.1563 C73.3342,53.1563 73.7602,52.7303 73.7602,52.2063 M81.5042,45.8923 L59.6572,45.8923 C59.1332,45.8923 58.7072,45.4663 58.7072,44.9423 C58.7072,44.4173 59.1332,43.9923 59.6572,43.9923 L81.5042,43.9923 C82.0292,43.9923 82.4542,44.4173 82.4542,44.9423 C82.4542,45.4663 82.0292,45.8923 81.5042,45.8923" id="Fill-18" fill="#969CBB"></path>
        <path d="M47.5522,68.8924 C47.3092,68.8924 47.0662,68.7994 46.8802,68.6144 L44.4592,66.1934 C44.0882,65.8224 44.0882,65.2204 44.4592,64.8494 C44.8302,64.4784 45.4322,64.4784 45.8032,64.8494 L47.5522,66.5984 L52.9332,61.2174 C53.3042,60.8464 53.9062,60.8464 54.2772,61.2174 C54.6482,61.5884 54.6482,62.1904 54.2772,62.5614 L48.2242,68.6144 C48.0382,68.7994 47.7952,68.8924 47.5522,68.8924" id="Fill-19" fill="#D20050"></path>
    </g>
</svg>