<?xml version="1.0" encoding="utf-8"?><svg xmlns="http://www.w3.org/2000/svg" width="32" height="32" viewBox="0 0 32 32"><path d="M15.693 15.56l-3.213-3.253a1.055 1.055 0 00-.747-.307 1.053 1.053 0 00-.747 1.8l2.453 2.507-2.467 2.467c-.2.197-.311.466-.307.747a1.054 1.054 0 001.054 1.054c.28.001.548-.109.747-.307l3.213-3.213a1.065 1.065 0 000-1.493h.013zm5.334 0l-3.213-3.253a1.055 1.055 0 00-.747-.307 1.053 1.053 0 00-.747 1.8l2.453 2.507-2.467 2.467c-.2.197-.311.466-.307.747a1.057 1.057 0 001.053 1.054c.28.001.548-.109.747-.307l3.213-3.213a1.065 1.065 0 000-1.493h.013z"/></svg>