<?xml version="1.0" encoding="utf-8"?><svg xmlns="http://www.w3.org/2000/svg" width="32" height="32" viewBox="0 0 32 32"><path d="M17.013 22.36l3.253-3.213c.197-.198.308-.467.307-.747a1.053 1.053 0 00-1.8-.747l-2.507 2.453-2.467-2.467a1.027 1.027 0 00-.747-.307c-.582 0-1.053.472-1.053 1.053-.001.28.109.548.307.747l3.213 3.213a1.065 1.065 0 001.493 0v.013zM15.56 9.625l-3.253 3.213a1.055 1.055 0 00-.307.747 1.053 1.053 0 001.8.747l2.507-2.453 2.467 2.467c.197.2.466.311.747.307a1.054 1.054 0 001.054-1.054 1.052 1.052 0 00-.307-.747l-3.213-3.213a1.065 1.065 0 00-1.493 0v-.013z"/></svg>