<?xml version="1.0" encoding="utf-8"?><svg xmlns="http://www.w3.org/2000/svg" width="32" height="32" viewBox="0 0 32 32"><path d="M16 0h.034a1.717 1.717 0 01.23.02l.092.016a2.175 2.175 0 01.198.052 1.474 1.474 0 01.198.078c.037.017.073.036.109.055l.065.038a1.79 1.79 0 01.331.261l-.161-.142.015.012.145.13 10.667 10.667a1.778 1.778 0 01-2.514 2.514l-7.632-7.632v24.153c0 .912-.686 1.663-1.57 1.766L16 32a1.778 1.778 0 01-1.778-1.778V6.069L6.59 13.701a1.779 1.779 0 01-2.347.148l-.167-.148a1.778 1.778 0 010-2.514L14.743.52l.145-.13.015-.012a1.467 1.467 0 01.236-.156 1.82 1.82 0 01.108-.055l.092-.04a1.914 1.914 0 01.303-.091c.031-.006.062-.012.093-.016.086-.013.174-.02.264-.02l-.159.007c.042-.004.084-.006.126-.007z"/></svg>