<?xml version="1.0" encoding="utf-8"?><svg xmlns="http://www.w3.org/2000/svg" width="32" height="32" viewBox="0 0 32 32"><path d="M16 0c8.837 0 16 7.163 16 16s-7.163 16-16 16S0 24.837 0 16 7.163 0 16 0zm0 2.909C8.77 2.909 2.909 8.77 2.909 16S8.77 29.091 16 29.091c7.23 0 13.091-5.861 13.091-13.091S23.23 2.909 16 2.909zm0 11.636c.803 0 1.455.651 1.455 1.455v5.818a1.455 1.455 0 01-2.91 0V16c0-.803.651-1.455 1.455-1.455zm-1.029-3.937a1.455 1.455 0 112.057 2.057 1.455 1.455 0 01-2.057-2.057z"/></svg>