<?xml version="1.0" encoding="utf-8"?><svg xmlns="http://www.w3.org/2000/svg" width="32" height="32" viewBox="0 0 32 32"><path d="M5.064 3.131c-.878 0-1.594.714-1.594 1.594v15.573c0 .877.716 1.591 1.594 1.591h4.428c.864 0 1.566.701 1.566 1.566v3.396l4.904-4.544c.291-.269.67-.418 1.065-.418h9.911c.878 0 1.592-.714 1.592-1.591V4.725c0-.88-.714-1.594-1.592-1.594H5.065zM9.492 32a1.563 1.563 0 01-1.566-1.566V25.02H5.064a4.729 4.729 0 01-4.725-4.722V4.725A4.73 4.73 0 015.064 0h21.873a4.73 4.73 0 014.724 4.725v15.573a4.729 4.729 0 01-4.724 4.722H17.64l-7.085 6.563a1.557 1.557 0 01-1.063.416z"/></svg>