<?xml version="1.0" encoding="utf-8"?><svg xmlns="http://www.w3.org/2000/svg" width="32" height="32" viewBox="0 0 32 32"><path d="M9.224 28.856c-1.023 0-1.858-.833-1.858-1.858s.835-1.858 1.858-1.858c1.025 0 1.859.833 1.859 1.858s-.835 1.858-1.859 1.858zm21.043-3.429H13.949c-.663-1.985-2.52-3.43-4.725-3.43s-4.06 1.444-4.723 3.43H1.733a1.572 1.572 0 000 3.144h2.768c.663 1.985 2.518 3.43 4.723 3.43s4.061-1.444 4.725-3.43h16.318a1.572 1.572 0 100-3.144zm-8.36-7.568A1.859 1.859 0 1123.766 16a1.86 1.86 0 01-1.859 1.859zm8.36-3.432h-3.636c-.663-1.984-2.518-3.428-4.725-3.428-2.204 0-4.058 1.444-4.723 3.428H1.732a1.572 1.572 0 000 3.144h15.451c.663 1.987 2.52 3.431 4.723 3.431 2.207 0 4.061-1.444 4.725-3.431h3.636a1.572 1.572 0 100-3.144zM13.339 6.859A1.859 1.859 0 1115.198 5a1.86 1.86 0 01-1.859 1.859zm16.928-3.431H18.064C17.401 1.444 15.544 0 13.339 0c-2.204 0-4.06 1.444-4.723 3.428H1.733a1.572 1.572 0 000 3.144h6.883c.663 1.987 2.518 3.431 4.723 3.431 2.207 0 4.061-1.444 4.725-3.431h12.203a1.572 1.572 0 100-3.144z"/></svg>