<?xml version="1.0" encoding="utf-8"?><svg xmlns="http://www.w3.org/2000/svg" width="32" height="32" viewBox="0 0 32 32"><path d="M27.636 2.909A4.373 4.373 0 0132 7.273v17.455a4.373 4.373 0 01-4.364 4.364H4.363a4.373 4.373 0 01-4.364-4.364V7.273a4.373 4.373 0 014.364-4.364h23.273zm1.455 7.157l-12.257 8.581a1.453 1.453 0 01-1.668 0L2.909 10.068v14.66c0 .797.658 1.455 1.455 1.455h23.273c.797 0 1.455-.658 1.455-1.455V10.066zm-1.455-4.248H4.363c-.564 0-1.059.33-1.3.806l12.936 9.055 12.936-9.055a1.463 1.463 0 00-1.3-.806z"/></svg>