<?xml version="1.0" encoding="utf-8"?><svg xmlns="http://www.w3.org/2000/svg" width="32" height="32" viewBox="0 0 32 32"><path d="M14.4 0c7.953 0 14.4 6.447 14.4 14.4 0 3.4-1.178 6.524-3.148 8.987l5.88 5.881a1.6 1.6 0 11-2.263 2.263l-5.881-5.88a14.34 14.34 0 01-8.987 3.148c-7.953 0-14.4-6.447-14.4-14.4s6.447-14.4 14.4-14.4zm0 3.2C8.214 3.2 3.2 8.214 3.2 14.4s5.014 11.2 11.2 11.2c3.025 0 5.769-1.199 7.785-3.148l.124-.144c.046-.046.093-.088.142-.127a11.145 11.145 0 003.149-7.782c0-6.186-5.014-11.2-11.2-11.2z"/></svg>