<?xml version="1.0" encoding="UTF-8"?>
<svg width="120px" height="120px" viewBox="0 0 120 120" version="1.1" xmlns="http://www.w3.org/2000/svg" xmlns:xlink="http://www.w3.org/1999/xlink">
    <title>02.Icons/Illustrative/01. Profils/Acces aux soins</title>
    <g id="02.Icons/Illustrative/01.-Profils/Acces-aux-soins" stroke="none" stroke-width="1" fill="none" fill-rule="evenodd">
        <g id="Acces-aux-soins" transform="translate(9.000000, 9.000000)">
            <path d="M39.5496043,84.284378 L39.5473978,84.284378 C17.7056989,84.284378 0,66.864415 0,45.3757489 L0,1.46508618 L0,0 C3.09124358,3.38690856 9.3002082,6.27074536 21.9034797,6.46601664 L39.5496043,6.46601664 C61.3913032,6.46601664 79.0970021,23.8859796 79.0970021,45.3757489 C79.0970021,66.864415 61.3913032,84.284378 39.5496043,84.284378" id="Fill-1" fill="#F2F3F7"></path>
            <path d="M14.3458194,32.0707144 L14.3458194,80.3645002 C14.3458194,83.1093303 16.5710293,85.3345403 19.3158595,85.3345403 L82.9511275,85.3345403 C85.6959576,85.3345403 87.9211676,83.1093303 87.9211676,80.3645002 L87.9211676,32.0707144 L14.3458194,32.0707144 Z" id="Fill-3" fill="#FFFFFF"></path>
            <path d="M14.3458194,32.0707144 L14.3458194,25.1667164 C14.3458194,22.4218863 16.5710293,20.1966763 19.3158595,20.1966763 L82.9511275,20.1966763 C85.6959576,20.1966763 87.9211676,22.4218863 87.9211676,25.1667164 L87.9211676,32.0707144 L14.3458194,32.0707144 Z" id="Fill-5" fill="#1D71B8"></path>
            <path d="M83.2367531,19.3471911 L77.2892534,19.3471911 C76.6802718,19.3471911 76.1860259,19.8403338 76.1860259,20.4504187 C76.1860259,21.0605035 76.6802718,21.5536462 77.2892534,21.5536462 L83.2367531,21.5536462 C85.2115304,21.5536462 86.8178297,23.1577391 86.8178297,25.1303099 L86.8178297,30.9674869 L21.5872947,30.9674869 C20.9772098,30.9674869 20.4840671,31.4606296 20.4840671,32.0707144 C20.4840671,32.6807992 20.9772098,33.173942 21.5872947,33.173942 L86.8178297,33.173942 L86.8178297,80.3578808 C86.8178297,82.3304517 85.2115304,83.9356477 83.2367531,83.9356477 L19.4525494,83.9356477 C17.4788753,83.9356477 15.8714728,82.3304517 15.8714728,80.3578808 L15.8714728,25.1303099 C15.8714728,23.1577391 17.4788753,21.5536462 19.4525494,21.5536462 L29.6574042,21.5536462 L29.6574042,26.2842859 C29.6574042,26.8943708 30.1516501,27.3875135 30.7606317,27.3875135 C31.3696133,27.3875135 31.8638592,26.8943708 31.8638592,26.2842859 L31.8638592,14.11017 C31.8638592,13.5000851 31.3696133,13.0069424 30.7606317,13.0069424 C30.1516501,13.0069424 29.6574042,13.5000851 29.6574042,14.11017 L29.6574042,19.3471911 L19.4525494,19.3471911 C16.2620153,19.3471911 13.6650177,21.9419823 13.6650177,25.1303099 L13.6650177,80.3578808 C13.6650177,83.5462084 16.2620153,86.1421028 19.4525494,86.1421028 L83.2367531,86.1421028 C86.4283904,86.1421028 89.0242848,83.5462084 89.0242848,80.3578808 L89.0242848,25.1303099 C89.0242848,21.9419823 86.4283904,19.3471911 83.2367531,19.3471911 M35.3655035,20.4504187 C35.3655035,19.8403338 35.8597494,19.3471911 36.468731,19.3471911 L70.465791,19.3471911 L70.465791,13.9965375 C70.465791,13.3875559 70.9589337,12.89331 71.5690186,12.89331 C72.1791034,12.89331 72.6722461,13.3875559 72.6722461,13.9965375 L72.6722461,26.1717567 C72.6722461,26.7807383 72.1791034,27.2749843 71.5690186,27.2749843 C70.9589337,27.2749843 70.465791,26.7807383 70.465791,26.1717567 L70.465791,21.5536462 L36.468731,21.5536462 C35.8597494,21.5536462 35.3655035,21.0605035 35.3655035,20.4504187" id="Fill-7" fill="#343852"></path>
            <path d="M60.7608086,67.1574323 L55.7389169,67.1574323 C54.391876,67.1574323 53.2897517,68.2595566 53.2897517,69.6065974 L53.2897517,74.6284892 C53.2897517,75.97553 54.391876,77.0776544 55.7389169,77.0776544 L60.7608086,77.0776544 C62.1078495,77.0776544 63.2099738,75.97553 63.2099738,74.6284892 L63.2099738,69.6065974 C63.2099738,68.2595566 62.1078495,67.1574323 60.7608086,67.1574323 L60.7608086,67.1574323 Z M60.7608086,69.2535646 C60.9483573,69.2535646 61.1138415,69.4179455 61.1138415,69.6065974 L61.1138415,74.6284892 C61.1138415,74.8160379 60.9483573,74.981522 60.7608086,74.981522 L55.7389169,74.981522 C55.5513682,74.981522 55.385884,74.8160379 55.385884,74.6284892 L55.385884,69.6065974 C55.385884,69.4179455 55.5513682,69.2535646 55.7389169,69.2535646 L60.7608086,69.2535646 L60.7608086,69.2535646 Z M45.7028559,67.1574323 L40.6809641,67.1574323 C39.3339233,67.1574323 38.231799,68.2595566 38.231799,69.6065974 L38.231799,74.6284892 C38.231799,75.97553 39.3339233,77.0776544 40.6809641,77.0776544 L45.7028559,77.0776544 C47.0498967,77.0776544 48.1509178,75.97553 48.1509178,74.6284892 L48.1509178,69.6065974 C48.1509178,68.2595566 47.0498967,67.1574323 45.7028559,67.1574323 L45.7028559,67.1574323 Z M45.7028559,69.2535646 C45.8904046,69.2535646 46.0547855,69.4179455 46.0547855,69.6065974 L46.0547855,74.6284892 C46.0547855,74.8160379 45.8904046,74.981522 45.7028559,74.981522 L40.6809641,74.981522 C40.4923122,74.981522 40.3279313,74.8160379 40.3279313,74.6284892 L40.3279313,69.6065974 C40.3279313,69.4179455 40.4923122,69.2535646 40.6809641,69.2535646 L45.7028559,69.2535646 L45.7028559,69.2535646 Z M30.6437999,67.1574323 L25.6219081,67.1574323 C24.2748673,67.1574323 23.172743,68.2595566 23.172743,69.6065974 L23.172743,74.6284892 C23.172743,75.97553 24.2748673,77.0776544 25.6219081,77.0776544 L30.6437999,77.0776544 C31.9908407,77.0776544 33.092965,75.97553 33.092965,74.6284892 L33.092965,69.6065974 C33.092965,68.2595566 31.9908407,67.1574323 30.6437999,67.1574323 L30.6437999,67.1574323 Z M30.6437999,69.2535646 C30.8313486,69.2535646 30.9968327,69.4179455 30.9968327,69.6065974 L30.9968327,74.6284892 C30.9968327,74.8160379 30.8313486,74.981522 30.6437999,74.981522 L25.6219081,74.981522 C25.4343594,74.981522 25.2688753,74.8160379 25.2688753,74.6284892 L25.2688753,69.6065974 C25.2688753,69.4179455 25.4343594,69.2535646 25.6219081,69.2535646 L30.6437999,69.2535646 L30.6437999,69.2535646 Z M75.8198646,53.4233526 L70.7979728,53.4233526 C69.450932,53.4233526 68.3488077,54.5254769 68.3488077,55.8725177 L68.3488077,60.8944095 C68.3488077,62.2414503 69.450932,63.3435747 70.7979728,63.3435747 L75.8198646,63.3435747 C77.1669055,63.3435747 78.2679266,62.2414503 78.2679266,60.8944095 L78.2679266,55.8725177 C78.2679266,54.5254769 77.1669055,53.4233526 75.8198646,53.4233526 L75.8198646,53.4233526 Z M75.8198646,55.5194849 C76.0074133,55.5194849 76.1717942,55.6838658 76.1717942,55.8725177 L76.1717942,60.8944095 C76.1717942,61.0819582 76.0074133,61.2474423 75.8198646,61.2474423 L70.7979728,61.2474423 C70.6093209,61.2474423 70.44494,61.0819582 70.44494,60.8944095 L70.44494,55.8725177 C70.44494,55.6838658 70.6093209,55.5194849 70.7979728,55.5194849 L75.8198646,55.5194849 L75.8198646,55.5194849 Z M60.7608086,53.4233526 L55.7389169,53.4233526 C54.391876,53.4233526 53.2897517,54.5254769 53.2897517,55.8725177 L53.2897517,60.8944095 C53.2897517,62.2414503 54.391876,63.3435747 55.7389169,63.3435747 L60.7608086,63.3435747 C62.1078495,63.3435747 63.2099738,62.2414503 63.2099738,60.8944095 L63.2099738,55.8725177 C63.2099738,54.5254769 62.1078495,53.4233526 60.7608086,53.4233526 L60.7608086,53.4233526 Z M60.7608086,55.5194849 C60.9483573,55.5194849 61.1138415,55.6838658 61.1138415,55.8725177 L61.1138415,60.8944095 C61.1138415,61.0819582 60.9483573,61.2474423 60.7608086,61.2474423 L55.7389169,61.2474423 C55.5513682,61.2474423 55.385884,61.0819582 55.385884,60.8944095 L55.385884,55.8725177 C55.385884,55.6838658 55.5513682,55.5194849 55.7389169,55.5194849 L60.7608086,55.5194849 L60.7608086,55.5194849 Z M45.7028559,53.4233526 L40.6809641,53.4233526 C39.3339233,53.4233526 38.231799,54.5254769 38.231799,55.8725177 L38.231799,60.8944095 C38.231799,62.2414503 39.3339233,63.3435747 40.6809641,63.3435747 L45.7028559,63.3435747 C47.0498967,63.3435747 48.1509178,62.2414503 48.1509178,60.8944095 L48.1509178,55.8725177 C48.1509178,54.5254769 47.0498967,53.4233526 45.7028559,53.4233526 L45.7028559,53.4233526 Z M45.7028559,55.5194849 C45.8904046,55.5194849 46.0547855,55.6838658 46.0547855,55.8725177 L46.0547855,60.8944095 C46.0547855,61.0819582 45.8904046,61.2474423 45.7028559,61.2474423 L40.6809641,61.2474423 C40.4923122,61.2474423 40.3279313,61.0819582 40.3279313,60.8944095 L40.3279313,55.8725177 C40.3279313,55.6838658 40.4923122,55.5194849 40.6809641,55.5194849 L45.7028559,55.5194849 L45.7028559,55.5194849 Z M30.6437999,53.4233526 L25.6219081,53.4233526 C24.2748673,53.4233526 23.172743,54.5254769 23.172743,55.8725177 L23.172743,60.8944095 C23.172743,62.2414503 24.2748673,63.3435747 25.6219081,63.3435747 L30.6437999,63.3435747 C31.9908407,63.3435747 33.092965,62.2414503 33.092965,60.8944095 L33.092965,55.8725177 C33.092965,54.5254769 31.9908407,53.4233526 30.6437999,53.4233526 L30.6437999,53.4233526 Z M30.6437999,55.5194849 C30.8313486,55.5194849 30.9968327,55.6838658 30.9968327,55.8725177 L30.9968327,60.8944095 C30.9968327,61.0819582 30.8313486,61.2474423 30.6437999,61.2474423 L25.6219081,61.2474423 C25.4343594,61.2474423 25.2688753,61.0819582 25.2688753,60.8944095 L25.2688753,55.8725177 C25.2688753,55.6838658 25.4343594,55.5194849 25.6219081,55.5194849 L30.6437999,55.5194849 L30.6437999,55.5194849 Z M75.8198646,39.6892729 L70.7979728,39.6892729 C69.450932,39.6892729 68.3488077,40.7913972 68.3488077,42.138438 L68.3488077,47.1603298 C68.3488077,48.5073706 69.450932,49.6094949 70.7979728,49.6094949 L75.8198646,49.6094949 C77.1669055,49.6094949 78.2679266,48.5073706 78.2679266,47.1603298 L78.2679266,42.138438 C78.2679266,40.7913972 77.1669055,39.6892729 75.8198646,39.6892729 L75.8198646,39.6892729 Z M75.8198646,41.7854052 C76.0074133,41.7854052 76.1717942,41.9497861 76.1717942,42.138438 L76.1717942,47.1603298 C76.1717942,47.3478785 76.0074133,47.5133626 75.8198646,47.5133626 L70.7979728,47.5133626 C70.6093209,47.5133626 70.44494,47.3478785 70.44494,47.1603298 L70.44494,42.138438 C70.44494,41.9497861 70.6093209,41.7854052 70.7979728,41.7854052 L75.8198646,41.7854052 L75.8198646,41.7854052 Z M60.7608086,39.6892729 L55.7389169,39.6892729 C54.391876,39.6892729 53.2897517,40.7913972 53.2897517,42.138438 L53.2897517,47.1603298 C53.2897517,48.5073706 54.391876,49.6094949 55.7389169,49.6094949 L60.7608086,49.6094949 C62.1078495,49.6094949 63.2099738,48.5073706 63.2099738,47.1603298 L63.2099738,42.138438 C63.2099738,40.7913972 62.1078495,39.6892729 60.7608086,39.6892729 L60.7608086,39.6892729 Z M60.7608086,41.7854052 C60.9483573,41.7854052 61.1138415,41.9497861 61.1138415,42.138438 L61.1138415,47.1603298 C61.1138415,47.3478785 60.9483573,47.5133626 60.7608086,47.5133626 L55.7389169,47.5133626 C55.5513682,47.5133626 55.385884,47.3478785 55.385884,47.1603298 L55.385884,42.138438 C55.385884,41.9497861 55.5513682,41.7854052 55.7389169,41.7854052 L60.7608086,41.7854052 L60.7608086,41.7854052 Z M45.7028559,39.6892729 L40.6809641,39.6892729 C39.3339233,39.6892729 38.231799,40.7913972 38.231799,42.138438 L38.231799,47.1603298 C38.231799,48.5073706 39.3339233,49.6094949 40.6809641,49.6094949 L45.7028559,49.6094949 C47.0498967,49.6094949 48.1509178,48.5073706 48.1509178,47.1603298 L48.1509178,42.138438 C48.1509178,40.7913972 47.0498967,39.6892729 45.7028559,39.6892729 L45.7028559,39.6892729 Z M45.7028559,41.7854052 C45.8904046,41.7854052 46.0547855,41.9497861 46.0547855,42.138438 L46.0547855,47.1603298 C46.0547855,47.3478785 45.8904046,47.5133626 45.7028559,47.5133626 L40.6809641,47.5133626 C40.4923122,47.5133626 40.3279313,47.3478785 40.3279313,47.1603298 L40.3279313,42.138438 C40.3279313,41.9497861 40.4923122,41.7854052 40.6809641,41.7854052 L45.7028559,41.7854052 L45.7028559,41.7854052 Z M30.6437999,39.6892729 L25.6219081,39.6892729 C24.2748673,39.6892729 23.172743,40.7913972 23.172743,42.138438 L23.172743,47.1603298 C23.172743,48.5073706 24.2748673,49.6094949 25.6219081,49.6094949 L30.6437999,49.6094949 C31.9908407,49.6094949 33.092965,48.5073706 33.092965,47.1603298 L33.092965,42.138438 C33.092965,40.7913972 31.9908407,39.6892729 30.6437999,39.6892729 L30.6437999,39.6892729 Z M30.6437999,41.7854052 C30.8313486,41.7854052 30.9968327,41.9497861 30.9968327,42.138438 L30.9968327,47.1603298 C30.9968327,47.3478785 30.8313486,47.5133626 30.6437999,47.5133626 L25.6219081,47.5133626 C25.4343594,47.5133626 25.2688753,47.3478785 25.2688753,47.1603298 L25.2688753,42.138438 C25.2688753,41.9497861 25.4343594,41.7854052 25.6219081,41.7854052 L30.6437999,41.7854052 Z" id="Fill-10" fill="#969CBB"></path>
            <path d="M74.5908691,75.378353 L72.0258651,75.378353 C70.9380827,75.378353 70.0477781,74.4880483 70.0477781,73.400266 L70.0477781,70.8352619 C70.0477781,69.7463764 70.9380827,68.8560717 72.0258651,68.8560717 L74.5908691,68.8560717 C75.6786515,68.8560717 76.5689561,69.7463764 76.5689561,70.8352619 L76.5689561,73.400266 C76.5689561,74.4880483 75.6786515,75.378353 74.5908691,75.378353" id="Fill-12" fill="#D20050"></path>
            <path d="M73.5279094,80.0729171 C69.1414767,80.0729171 65.5725356,76.503976 65.5725356,72.1175433 C65.5725356,67.7300074 69.1414767,64.1610663 73.5279094,64.1610663 C74.1060006,64.1610663 74.5759756,64.6310412 74.5759756,65.2091324 C74.5759756,65.7883269 74.1060006,66.2583018 73.5279094,66.2583018 C70.2965559,66.2583018 67.6686679,68.8861898 67.6686679,72.1175433 C67.6686679,75.3488968 70.2965559,77.9767848 73.5279094,77.9767848 C76.7592629,77.9767848 79.3882541,75.3488968 79.3882541,72.1175433 C79.3882541,71.5394521 79.8571258,71.0694771 80.4363203,71.0694771 C81.0144115,71.0694771 81.4843865,71.5394521 81.4843865,72.1175433 C81.4843865,76.503976 77.9154454,80.0729171 73.5279094,80.0729171" id="Fill-14" fill="#343852"></path>
            <path d="M105.940514,33.6530737 L103.472594,37.7394285 C103.048955,36.0250129 102.007508,34.6250171 100.640609,33.7336093 C99.1280839,32.728569 97.2007454,32.33582 95.2998844,32.8046917 L96.2453504,31.2381086 L97.7667012,28.7183369 C101.383081,27.8247226 105.0469,30.037797 105.940514,33.6530737" id="Fill-16" fill="#D20050"></path>
            <path d="M88.6683836,62.2605362 L80.5563515,66.5829817 L80.4945707,57.3257994 C82.406464,56.853618 84.3238735,57.2485734 85.8386049,58.2657492 C87.2055039,59.1560539 88.2447442,60.5450173 88.6683836,62.2605362" id="Fill-18" fill="#FFFFFF"></path>
            <path d="M100.640388,33.7339403 C99.1289665,32.7277967 97.2005248,32.3350477 95.2996637,32.8050227 L91.1868314,39.6163495 L87.0751024,46.4276764 L82.9622701,53.2390032 L80.4943501,57.3253581 C82.4062434,56.8531767 84.3236529,57.2492354 85.8383843,58.2653079 C87.2063864,59.1567158 88.2445236,60.5456793 88.6681629,62.2600949 L103.473477,37.7397595 C103.049837,36.0242406 102.00839,34.6242449 100.640388,33.7339403" id="Fill-20" fill="#969CBB"></path>
            <path d="M99.3438753,34.0767131 L85.5105051,57.0006782 C84.5021551,56.4987097 83.3934114,56.2262125 82.2648096,56.2030447 L95.8841537,33.6420414 C97.059091,33.4291185 98.2715381,33.5846736 99.3438753,34.0767131 M87.5448567,61.8008213 L81.4804148,65.033278 L81.4340793,58.1072154 C82.8064944,57.945041 84.1789094,58.2771125 85.3284725,59.0471653 C86.348958,59.7124115 87.110185,60.6611872 87.5448567,61.8008213 M102.460493,37.6092476 L88.841149,60.1680445 C88.3888257,59.3516561 87.7864635,58.6202162 87.0748817,58.0233701 L100.895013,35.1181599 C101.620937,35.7933351 102.158209,36.64613 102.460493,37.6092476 M97.0679168,31.6816061 L98.3520737,29.5545833 C101.200607,29.0393761 104.054657,30.7571014 104.92731,33.5239961 L103.646463,35.6443994 C103.054029,34.5665461 102.212267,33.6508672 101.173027,32.9690726 L101.091388,32.9150144 C99.9032116,32.1416519 98.4932868,31.7113932 97.0679168,31.6816061 M106.848029,33.4291185 C105.830853,29.3162862 101.657343,26.7965145 97.5434079,27.8103806 C97.4253625,27.8401677 97.3139366,27.8931227 97.2124396,27.9670389 C97.1363169,28.0244067 97.0668136,28.0950133 97.0039296,28.185478 L79.6953927,56.8418134 C79.643541,56.9289684 79.6071345,57.023846 79.5839667,57.1385816 L79.5607989,57.3062722 L79.6225797,66.589932 C79.6258893,66.9186938 79.7957864,67.215462 80.0793159,67.3864623 C80.2260451,67.4725141 80.3893228,67.5177464 80.5559102,67.5177464 C80.6309296,67.5177464 80.7070523,67.5078173 80.7820718,67.4890625 C80.8559881,67.4714108 80.9288011,67.4427269 80.9949947,67.4074236 L89.1059236,63.0860813 L89.2559626,62.9790683 C89.3486337,62.9040488 89.4170338,62.8290293 89.4677823,62.7429776 L106.739913,34.1351841 L106.748739,34.1142228 C106.80721,34.0127259 106.844719,33.9057128 106.862371,33.7920803 C106.881126,33.6685189 106.87561,33.5471638 106.848029,33.4291185" id="Fill-22" fill="#343852"></path>
        </g>
    </g>
</svg>