<?xml version="1.0" encoding="UTF-8"?>
<svg width="120px" height="120px" viewBox="0 0 120 120" version="1.1" xmlns="http://www.w3.org/2000/svg" xmlns:xlink="http://www.w3.org/1999/xlink">
    <title>02.Icons/Illustrative/Autres Contact</title>
    <g id="02.Icons/Illustrative/Autres-Contact" stroke="none" stroke-width="1" fill="none" fill-rule="evenodd">
        <path d="M103.888,52.0438 C103.888,33.7938 89.094,18.9998 70.844,18.9998 C52.594,18.9998 37.8,33.7938 37.8,52.0438 C37.8,70.2938 52.594,85.0878 70.844,85.0878 C89.094,85.0878 103.888,70.2938 103.888,52.0438" id="Fill-1" fill="#F2F3F7"></path>
        <path d="M94.876,34.0197 L94.876,67.0637 C94.876,68.7157 93.524,70.0677 91.872,70.0677 L70.844,70.0677 L37.8,70.0677 C36.148,70.0677 34.796,68.7157 34.796,67.0637 L34.796,34.0197 C34.796,32.3677 36.148,31.0157 37.8,31.0157 L70.844,31.0157 L91.872,31.0157 C93.524,31.0157 94.876,32.3677 94.876,34.0197" id="Fill-4" fill="#FFFFFF"></path>
        <path d="M76.694,50.5414 L89.54,37.6954 C89.911,37.3244 89.911,36.7234 89.54,36.3524 C89.169,35.9804 88.567,35.9804 88.196,36.3524 L66.282,58.2664 C65.507,59.0414 64.165,59.0414 63.39,58.2664 L54.995,49.8704 C54.994,49.8704 54.994,49.8694 54.994,49.8694 C54.994,49.8694 54.993,49.8694 54.993,49.8684 L41.475,36.3524 C41.104,35.9804 40.503,35.9804 40.131,36.3524 C39.76,36.7234 39.76,37.3244 40.131,37.6954 L52.978,50.5414 L40.131,63.3884 C39.76,63.7594 39.76,64.3604 40.131,64.7314 C40.317,64.9174 40.56,65.0104 40.803,65.0104 C41.047,65.0104 41.29,64.9174 41.475,64.7314 L54.322,51.8854 L62.047,59.6094 C62.792,60.3554 63.783,60.7674 64.836,60.7674 C65.888,60.7674 66.88,60.3554 67.626,59.6094 L75.35,51.8854 L84.315,60.8584 C84.501,61.0444 84.744,61.1364 84.987,61.1364 C85.23,61.1364 85.473,61.0444 85.659,60.8584 C86.03,60.4874 86.03,59.8854 85.659,59.5144 L76.694,50.5414 Z" id="Fill-6" fill="#969CBB"></path>
        <path d="M22.6177,45.6803 C19.1687,45.9983 13.7487,51.4023 12.3087,54.5003 C7.9407,64.1473 15.0767,77.0023 25.2857,86.8173 C33.5947,95.3013 44.0197,101.6053 52.8337,100.7933 C54.5317,100.6373 56.1697,100.2163 57.7217,99.4973 C61.6107,97.6453 68.3537,88.6853 64.7507,86.1783 L55.3277,80.2993 C54.1937,79.5843 53.4457,79.2783 52.7797,79.3403 C51.6007,79.4483 50.6817,80.7073 48.3447,82.8903 C47.5887,83.5983 46.2407,85.3183 44.7467,85.4553 C44.4917,85.4793 44.2327,85.4563 43.9717,85.3753 C41.0997,84.4653 36.4627,80.7063 33.4847,77.7893 C30.5397,74.8383 26.7387,70.2353 25.8027,67.3723 C25.2257,65.5863 27.4257,63.8693 28.2467,62.9773 C31.6307,59.2873 32.7807,59.0913 30.7737,55.9693 L24.8087,46.6013 C24.2827,45.8603 23.5177,45.5973 22.6177,45.6803" id="Fill-8" fill="#1D71B8"></path>
        <path d="M101.5555,77.5054 C101.5555,85.0284 95.4565,91.1274 87.9335,91.1274 C80.4095,91.1274 74.3105,85.0284 74.3105,77.5054 C74.3105,69.9824 80.4095,63.8834 87.9335,63.8834 C95.4565,63.8834 101.5555,69.9824 101.5555,77.5054" id="Fill-10" fill="#D20050"></path>
        <path d="M100.4821,77.4574 C100.4821,84.3104 94.9081,89.8844 88.0561,89.8844 C81.2041,89.8844 75.6291,84.3104 75.6291,77.4574 C75.6291,70.6044 81.2041,65.0304 88.0561,65.0304 C94.9081,65.0304 100.4821,70.6044 100.4821,77.4574 M102.3821,77.4574 C102.3821,69.5574 95.9561,63.1304 88.0561,63.1304 C80.1561,63.1304 73.7291,69.5574 73.7291,77.4574 C73.7291,85.3574 80.1561,91.7844 88.0561,91.7844 C95.9561,91.7844 102.3821,85.3574 102.3821,77.4574 M22.9281,45.6654 C23.6931,45.6654 24.3441,45.9474 24.8081,46.6014 L30.7741,55.9694 C32.7801,59.0914 31.6311,59.2874 28.2471,62.9764 C27.4261,63.8694 25.2261,65.5864 25.8031,67.3724 C26.7381,70.2354 30.5401,74.8384 33.4841,77.7894 C36.4621,80.7064 41.1001,84.4654 43.9711,85.3744 C44.1681,85.4364 44.3641,85.4644 44.5581,85.4644 C46.1261,85.4644 47.5561,83.6284 48.3441,82.8904 C50.7911,80.6044 51.6841,79.3324 52.9471,79.3324 C53.5721,79.3324 54.2881,79.6434 55.3281,80.2984 L64.7511,86.1784 C68.3541,88.6854 61.6101,97.6454 57.7221,99.4964 C55.7011,100.4344 53.5341,100.8634 51.2791,100.8634 C42.8131,100.8634 33.1111,94.8074 25.2861,86.8174 C15.0771,77.0024 7.9401,64.1474 12.3081,54.5004 C13.7921,51.3074 19.5041,45.6654 22.9281,45.6654 M22.9281,47.5654 C20.5891,47.5654 15.3981,52.3614 14.0311,55.3014 C12.2171,59.3084 12.5631,64.1994 15.0671,69.8224 C17.3761,75.0084 21.3651,80.4124 26.6031,85.4474 L26.6231,85.4674 L26.6431,85.4884 C34.9071,93.9264 44.1171,98.9644 51.2791,98.9644 C53.3201,98.9644 55.2191,98.5634 56.9221,97.7734 C59.4551,96.5674 63.6341,91.4004 63.8681,88.5434 C63.9141,87.9814 63.7771,87.8224 63.6931,87.7574 L54.3221,81.9104 C53.3021,81.2684 52.9981,81.2324 52.9471,81.2324 C52.6891,81.3074 51.8961,82.0884 51.1961,82.7784 C50.7511,83.2164 50.2421,83.7174 49.6421,84.2784 C49.5211,84.3914 49.3821,84.5374 49.2261,84.6984 C48.2631,85.6954 46.6501,87.3644 44.5581,87.3644 C44.1661,87.3644 43.7781,87.3054 43.4041,87.1884 C40.0871,86.1374 35.2721,82.1994 32.1551,79.1464 C29.0571,76.0424 25.0761,71.2634 23.9971,67.9634 C23.1501,65.3404 25.2841,63.2394 26.4311,62.1114 C26.5901,61.9544 26.7351,61.8144 26.8481,61.6914 C27.4021,61.0864 27.8991,60.5724 28.3331,60.1244 C29.0161,59.4174 29.7901,58.6174 29.8651,58.3384 C29.8611,58.3084 29.8231,58.0044 29.1751,56.9964 L23.2361,47.6694 C23.1861,47.6044 23.1321,47.5654 22.9281,47.5654 L22.9281,47.5654 M71.8911,71.0184 L37.7991,71.0184 C35.6191,71.0184 33.8451,69.2444 33.8451,67.0634 L33.8451,34.0194 C33.8451,31.8394 35.6191,30.0654 37.7991,30.0654 L91.8721,30.0654 C94.0521,30.0654 95.8261,31.8394 95.8261,34.0194 L95.8261,60.8634 C95.8261,61.3884 95.4001,61.8134 94.8761,61.8134 C94.3511,61.8134 93.9251,61.3884 93.9251,60.8634 L93.9251,34.0194 C93.9251,32.8874 93.0041,31.9664 91.8721,31.9664 L37.7991,31.9664 C36.6671,31.9664 35.7461,32.8874 35.7461,34.0194 L35.7461,67.0634 C35.7461,68.1964 36.6671,69.1174 37.7991,69.1174 L71.8911,69.1174 C72.4161,69.1174 72.8411,69.5434 72.8411,70.0674 C72.8411,70.5924 72.4161,71.0184 71.8911,71.0184" id="Fill-12" fill="#343852"></path>
        <path d="M89.3822,77.2387 C89.1532,78.5267 88.0382,80.0007 86.9422,79.9707 C86.3082,79.9537 85.7922,79.3907 85.7672,78.6897 C85.7292,77.6247 86.1142,76.5927 86.8222,75.8597 C87.4122,75.2487 88.1692,74.9117 88.9522,74.9117 C89.2482,74.9117 89.5312,74.9447 89.7962,75.0087 L89.3822,77.2387 Z M90.8392,84.4267 C91.1692,84.2787 91.3312,83.9027 91.2072,83.5697 C91.1432,83.3967 91.0092,83.2557 90.8402,83.1837 C90.6712,83.1117 90.4842,83.1117 90.3152,83.1847 C89.5502,83.5147 88.6242,83.6887 87.6362,83.6887 C84.4832,83.6887 82.3652,81.4607 82.3652,78.1427 C82.3652,74.1657 84.9662,71.2797 88.5492,71.2797 C91.6032,71.2797 93.5002,73.2337 93.5002,76.3797 C93.5002,77.7567 93.1092,78.9307 92.4262,79.6007 C92.1052,79.9147 91.7412,80.0847 91.4012,80.0777 C91.2302,80.0727 91.1012,80.0137 91.0092,79.8987 C90.8432,79.6897 90.6972,79.1777 90.9452,77.9227 L91.5082,74.9267 C91.6262,74.2967 91.2242,73.6937 90.5932,73.5547 C90.1492,73.4567 89.6832,73.4067 89.2072,73.4067 C86.3272,73.4067 83.9832,75.7507 83.9832,78.6317 C83.9832,80.5127 85.2332,81.4977 86.4672,81.4977 C87.6712,81.4977 88.6262,80.9817 89.3752,79.9227 C89.4292,80.3507 89.5892,80.7127 89.8472,80.9827 C90.1632,81.3147 90.6152,81.4977 91.1202,81.4977 C93.0932,81.4977 95.0912,79.6957 95.0912,76.2517 C95.0912,72.5257 92.4712,69.9227 88.7192,69.9227 C84.1902,69.9227 80.7752,73.5117 80.7752,78.2707 C80.7752,82.2207 83.5622,85.0877 87.4022,85.0877 C88.7392,85.0877 89.8312,84.8777 90.8392,84.4267 L90.8392,84.4267 Z" id="Fill-15" fill="#FFFFFF"></path>
    </g>
</svg>