<?xml version="1.0" encoding="UTF-8"?>
<svg width="120px" height="120px" viewBox="0 0 120 120" version="1.1" xmlns="http://www.w3.org/2000/svg" xmlns:xlink="http://www.w3.org/1999/xlink">
    <title>02.Icons/Illustrative/Autres Agence Bureaux</title>
    <g id="02.Icons/Illustrative/Autres-Agence-Bureaux" stroke="none" stroke-width="1" fill="none" fill-rule="evenodd">
        <path d="M93.2342,54.6167 C93.2342,33.8407 76.3912,16.9997 55.6172,16.9997 C34.8432,16.9997 18.0002,33.8407 18.0002,54.6167 C18.0002,75.3927 34.8432,92.2337 55.6172,92.2337 C76.3912,92.2337 93.2342,75.3927 93.2342,54.6167" id="Fill-1" fill="#F2F3F7"></path>
        <path d="M56.4384,71.1878 L45.5344,71.1878 L45.5344,66.3418 L60.6424,66.3418 L66.1304,66.3418 L67.3424,66.3418 L68.5534,66.3418 L73.6054,66.3418 L72.7944,71.1878 L65.0164,71.1878 L63.6954,71.1878 C63.2954,71.1878 62.9074,71.2368 62.5324,71.3338 L62.4964,71.1878 L56.4384,71.1878 Z" id="Fill-4" fill="#FFFFFF"></path>
        <path d="M91.5726,48.1689 L91.5726,53.0149 L77.8706,53.0149 C76.9856,53.0149 76.1976,53.4999 75.7746,54.2269 L70.9766,54.2269 L47.9576,54.2269 L47.9576,32.4189 C47.9576,31.0859 49.0486,29.9959 50.3806,29.9959 L89.1496,29.9959 C90.4816,29.9959 91.5726,31.0859 91.5726,32.4189 L91.5726,48.1689 Z" id="Fill-6" fill="#FFFFFF"></path>
        <path d="M70.9767,54.2265 L75.7747,54.2265 C75.6287,54.4805 75.5317,54.7475 75.4837,55.0385 L74.8167,59.0725 L69.7647,59.0725 L67.3417,59.0725 L66.1307,59.0725 L50.3807,59.0725 C49.0487,59.0725 47.9577,57.9825 47.9577,56.6495 L47.9577,54.2265 L70.9767,54.2265 Z" id="Fill-8" fill="#969CBB"></path>
        <path d="M97.8361,53.8751 C98.2841,54.4201 98.4901,55.1351 98.3701,55.8381 L96.6131,66.3421 L95.8131,71.1881 L94.1901,80.8921 C94.0561,81.6921 93.9961,82.4911 93.9961,83.3031 C93.9961,85.3141 92.3721,86.9381 90.3611,86.9381 L77.0341,86.9381 L72.1881,86.9381 L60.0731,86.9381 C58.7411,86.9381 57.6501,85.8471 57.6501,84.5141 C57.6501,84.4301 57.6501,84.3451 57.6621,84.2721 L57.6981,84.0301 C57.9291,82.9271 58.9101,82.0911 60.0731,82.0911 L70.9771,82.0911 L72.7941,71.1881 L73.6061,66.3421 L74.8171,59.0721 L75.4831,55.0381 C75.5321,54.7481 75.6291,54.4811 75.7741,54.2261 C76.1981,53.4991 76.9861,53.0151 77.8711,53.0151 L91.5731,53.0151 L95.9821,53.0151 C96.6981,53.0151 97.3761,53.3301 97.8361,53.8751" id="Fill-10" fill="#1D71B8"></path>
        <polygon id="Fill-12" fill="#FFFFFF" points="101.2648 66.3417 101.2648 71.1877 95.8128 71.1877 96.6128 66.3417"></polygon>
        <path d="M87.938,97.8414 C89.27,97.8414 90.361,98.9314 90.361,100.2644 C90.361,101.5974 89.27,102.6874 87.938,102.6874 C86.606,102.6874 85.515,101.5974 85.515,100.2644 C85.515,98.9314 86.606,97.8414 87.938,97.8414" id="Fill-14" fill="#FFFFFF"></path>
        <polygon id="Fill-16" fill="#969CBB" points="72.188 94.207 77.034 94.207 77.034 86.938 72.188 86.938"></polygon>
        <path d="M61.2845,97.8414 C62.6165,97.8414 63.7075,98.9314 63.7075,100.2644 C63.7075,101.5974 62.6165,102.6874 61.2845,102.6874 C59.9525,102.6874 58.8615,101.5974 58.8615,100.2644 C58.8615,98.9314 59.9525,97.8414 61.2845,97.8414" id="Fill-18" fill="#FFFFFF"></path>
        <polygon id="Fill-19" fill="#D20050" points="43.1116 66.3417 45.5346 66.3417 45.5346 71.1877 28.5736 71.1877 28.5736 66.3417 33.4196 66.3417"></polygon>
        <polygon id="Fill-20" fill="#FFFFFF" points="43.1116 51.8035 43.1116 66.3415 33.4196 66.3415 33.4196 61.4955 33.4196 54.2265 33.4196 51.8035"></polygon>
        <path d="M97.4216,67.2923 L100.3146,67.2923 L100.3146,70.2373 L96.9296,70.2373 L97.4216,67.2923 Z M93.2526,80.7343 C93.1126,81.5653 93.0456,82.4053 93.0456,83.3033 C93.0456,84.7833 91.8416,85.9873 90.3616,85.9873 L60.0726,85.9873 C59.2606,85.9873 58.5996,85.3273 58.5996,84.5153 L58.6016,84.4143 L58.6356,84.2073 C58.7866,83.5313 59.3856,83.0413 60.0726,83.0413 L70.9766,83.0413 C71.4416,83.0413 71.8366,82.7053 71.9136,82.2473 L76.4196,55.1953 C76.4496,55.0203 76.5076,54.8563 76.5956,54.7053 C76.8616,54.2483 77.3496,53.9653 77.8706,53.9653 L95.9826,53.9653 C96.4186,53.9653 96.8296,54.1553 97.1026,54.4793 C97.3846,54.8213 97.5046,55.2593 97.4336,55.6823 L93.2526,80.7343 Z M73.1386,93.2563 L76.0836,93.2563 L76.0836,87.8883 L73.1386,87.8883 L73.1386,93.2563 Z M60.1376,75.1613 C60.3736,73.7553 61.4086,72.6123 62.7696,72.2533 C63.0666,72.1773 63.3786,72.1383 63.6956,72.1383 L65.0166,72.1383 L71.6716,72.1383 L70.1716,81.1413 L60.0726,81.1413 C59.7426,81.1413 59.4256,81.2003 59.1196,81.2923 L60.1376,75.1613 Z M89.4106,100.2643 C89.4106,101.0763 88.7506,101.7373 87.9386,101.7373 C87.1256,101.7373 86.4656,101.0763 86.4656,100.2643 C86.4656,99.4513 87.1256,98.7913 87.9386,98.7913 C88.7506,98.7913 89.4106,99.4513 89.4106,100.2643 L89.4106,100.2643 Z M61.2846,101.7373 C60.4726,101.7373 59.8116,101.0763 59.8116,100.2643 C59.8116,99.4513 60.4726,98.7913 61.2846,98.7913 C62.0966,98.7913 62.7576,99.4513 62.7576,100.2643 C62.7576,101.0763 62.0966,101.7373 61.2846,101.7373 L61.2846,101.7373 Z M101.2646,65.3923 L97.7386,65.3923 L99.3066,55.9983 C99.4706,55.0343 99.2016,54.0413 98.5626,53.2633 C97.9206,52.5013 96.9806,52.0643 95.9826,52.0643 L77.8706,52.0643 C76.6766,52.0643 75.5586,52.7103 74.9496,53.7543 C74.7456,54.1103 74.6136,54.4793 74.5456,54.8843 L71.9876,70.2373 L65.0166,70.2373 L63.6956,70.2373 C63.2186,70.2373 62.7476,70.2973 62.2896,70.4143 C60.2036,70.9663 58.6236,72.7063 58.2636,74.8483 L56.7586,83.8883 L56.7226,84.1293 C56.7216,84.1343 56.7236,84.1383 56.7236,84.1433 C56.7066,84.2573 56.6996,84.3853 56.6996,84.5153 C56.6996,86.3743 58.2136,87.8883 60.0726,87.8883 L71.2376,87.8883 L71.2376,93.2563 L64.9186,93.2563 C62.6726,93.2563 60.8076,94.8823 60.4176,97.0183 C58.9786,97.4033 57.9116,98.7063 57.9116,100.2643 C57.9116,102.1243 59.4246,103.6383 61.2846,103.6383 C63.1446,103.6383 64.6566,102.1243 64.6566,100.2643 C64.6566,98.7813 63.6896,97.5333 62.3576,97.0823 C62.6866,95.9733 63.7036,95.1563 64.9186,95.1563 L84.3036,95.1563 C85.5186,95.1563 86.5356,95.9733 86.8656,97.0823 C85.5336,97.5333 84.5656,98.7813 84.5656,100.2643 C84.5656,102.1243 86.0786,103.6383 87.9386,103.6383 C89.7976,103.6383 91.3116,102.1243 91.3116,100.2643 C91.3116,98.7063 90.2436,97.4043 88.8056,97.0183 C88.4156,94.8823 86.5496,93.2563 84.3036,93.2563 L77.9846,93.2563 L77.9846,87.8883 L90.3616,87.8883 C92.8896,87.8883 94.9456,85.8313 94.9456,83.3033 C94.9456,82.5113 95.0046,81.7733 95.1256,81.0493 L96.6126,72.1383 L100.3146,72.1383 L100.3146,102.6883 C100.3146,103.2123 100.7396,103.6383 101.2646,103.6383 C101.7886,103.6383 102.2146,103.2123 102.2146,102.6883 L102.2146,71.1883 L102.2146,66.3423 C102.2146,65.8173 101.7886,65.3923 101.2646,65.3923 L101.2646,65.3923 Z M29.5236,70.2373 L44.5846,70.2373 L44.5846,67.2923 L29.5236,67.2923 L29.5236,70.2373 Z M34.3696,65.3923 L42.1616,65.3923 L42.1616,52.7533 L34.3696,52.7533 L34.3696,65.3923 Z M29.7846,60.5453 C29.6436,60.5453 29.5236,60.4263 29.5236,60.2843 L29.5236,55.4383 C29.5236,55.2963 29.6436,55.1773 29.7846,55.1773 L32.4686,55.1773 L32.4686,60.5453 L29.7846,60.5453 Z M57.3886,71.1883 C57.3886,70.6633 56.9636,70.2373 56.4386,70.2373 L46.4846,70.2373 L46.4846,67.2923 L68.5536,67.2923 C69.0776,67.2923 69.5036,66.8663 69.5036,66.3423 C69.5036,65.8173 69.0776,65.3923 68.5536,65.3923 L67.0806,65.3923 L67.0806,60.0223 L69.7656,60.0223 C70.2896,60.0223 70.7156,59.5973 70.7156,59.0723 C70.7156,58.5483 70.2896,58.1223 69.7656,58.1223 L50.3806,58.1223 C49.5686,58.1223 48.9076,57.4623 48.9076,56.6493 L48.9076,55.1773 L70.9766,55.1773 C71.5006,55.1773 71.9266,54.7513 71.9266,54.2273 C71.9266,53.7023 71.5006,53.2763 70.9766,53.2763 L48.9076,53.2763 L48.9076,32.4193 C48.9076,31.6063 49.5686,30.9463 50.3806,30.9463 L89.1496,30.9463 C89.9616,30.9463 90.6226,31.6063 90.6226,32.4193 L90.6226,48.1693 C90.6226,48.6933 91.0486,49.1193 91.5726,49.1193 C92.0976,49.1193 92.5236,48.6933 92.5236,48.1693 L92.5236,32.4193 C92.5236,30.5603 91.0096,29.0463 89.1496,29.0463 L50.3806,29.0463 C48.5206,29.0463 47.0076,30.5603 47.0076,32.4193 L47.0076,56.6493 C47.0076,58.5093 48.5206,60.0223 50.3806,60.0223 L65.1806,60.0223 L65.1806,65.3923 L44.0616,65.3923 L44.0616,51.8033 C44.0616,51.2783 43.6366,50.8533 43.1116,50.8533 L33.4196,50.8533 C32.8946,50.8533 32.4686,51.2783 32.4686,51.8033 L32.4686,53.2763 L29.7846,53.2763 C28.5926,53.2763 27.6236,54.2463 27.6236,55.4383 L27.6236,60.2843 C27.6236,61.4763 28.5926,62.4453 29.7846,62.4453 L32.4686,62.4453 L32.4686,65.3923 L28.5736,65.3923 C28.0486,65.3923 27.6236,65.8173 27.6236,66.3423 L27.6236,71.1883 L27.6236,102.6883 C27.6236,103.2123 28.0486,103.6383 28.5736,103.6383 C29.0986,103.6383 29.5236,103.2123 29.5236,102.6883 L29.5236,72.1383 L44.5846,72.1383 L44.5846,102.6883 C44.5846,103.2123 45.0096,103.6383 45.5346,103.6383 C46.0596,103.6383 46.4846,103.2123 46.4846,102.6883 L46.4846,72.1383 L56.4386,72.1383 C56.9636,72.1383 57.3886,71.7123 57.3886,71.1883 L57.3886,71.1883 Z" id="Fill-21" fill="#343852"></path>
        <path d="M41.4222,47.5609 C42.4302,46.3369 41.8642,45.0629 41.4512,44.1329 C40.9652,43.0399 40.7822,42.5249 41.5492,41.7929 C41.9292,41.4319 41.9442,40.8309 41.5822,40.4509 C41.2192,40.0699 40.6182,40.0549 40.2392,40.4179 C38.4702,42.1039 39.2192,43.7889 39.7142,44.9039 C40.1322,45.8449 40.1732,46.0889 39.9552,46.3539 C39.6222,46.7579 39.6802,47.3569 40.0852,47.6909 C40.2622,47.8359 40.4752,47.9079 40.6882,47.9079 C40.9622,47.9079 41.2342,47.7899 41.4222,47.5609 M35.8412,47.8109 C35.6772,47.8109 35.5112,47.7679 35.3592,47.6779 C34.9072,47.4119 34.7572,46.8289 35.0252,46.3769 C35.9762,44.7689 35.5022,44.0229 34.7832,42.8939 C33.9372,41.5619 32.7772,39.7389 35.0852,36.6919 C35.4022,36.2719 35.9972,36.1889 36.4162,36.5079 C36.8342,36.8249 36.9172,37.4199 36.6002,37.8379 C35.0892,39.8329 35.6052,40.6449 36.3872,41.8739 C37.1542,43.0809 38.2052,44.7329 36.6602,47.3439 C36.4832,47.6439 36.1662,47.8109 35.8412,47.8109" id="Fill-22" fill="#969CBB"></path>
        <path d="M53.4759,47.6292 L58.3219,42.7832 C58.6929,42.4122 58.6929,41.8112 58.3219,41.4402 C57.9509,41.0682 57.3489,41.0682 56.9779,41.4402 L52.1319,46.2852 C51.7609,46.6562 51.7609,47.2582 52.1319,47.6292 C52.3179,47.8152 52.5609,47.9072 52.8039,47.9072 C53.0469,47.9072 53.2899,47.8152 53.4759,47.6292 M61.9559,39.1492 L64.3789,36.7262 C64.7499,36.3552 64.7499,35.7532 64.3789,35.3822 C64.0079,35.0112 63.4069,35.0112 63.0359,35.3822 L60.6129,37.8052 C60.2419,38.1762 60.2419,38.7772 60.6129,39.1492 C60.7979,39.3342 61.0409,39.4272 61.2849,39.4272 C61.5279,39.4272 61.7709,39.3342 61.9559,39.1492 M52.8039,40.6382 C52.5609,40.6382 52.3179,40.5452 52.1319,40.3592 C51.7609,39.9882 51.7609,39.3872 52.1319,39.0162 L58.1899,32.9582 C58.5609,32.5872 59.1629,32.5872 59.5339,32.9582 C59.9049,33.3292 59.9049,33.9312 59.5339,34.3022 L53.4759,40.3592 C53.2899,40.5452 53.0469,40.6382 52.8039,40.6382" id="Fill-23" fill="#969CBB"></path>
    </g>
</svg>