<?xml version="1.0" encoding="UTF-8"?>
<svg width="120px" height="120px" viewBox="0 0 120 120" version="1.1" xmlns="http://www.w3.org/2000/svg" xmlns:xlink="http://www.w3.org/1999/xlink">
    <title>02.Icons/Illustrative/Autres Documents</title>
    <g id="02.Icons/Illustrative/Autres-Documents" stroke="none" stroke-width="1" fill="none" fill-rule="evenodd">
        <path d="M84.971,76.5805 C84.971,95.9025 69.307,111.5665 49.985,111.5665 C30.664,111.5665 15,95.9025 15,76.5805 C15,57.2585 30.664,41.5945 49.985,41.5945 C69.307,41.5945 84.971,57.2585 84.971,76.5805" id="Fill-1" fill="#F2F3F7"></path>
        <polygon id="Fill-4" fill="#F2F3F7" points="80.7779 85.7622 31.0549 85.7622 31.0549 32.9722 46.8439 16.7132 80.7779 16.7132"></polygon>
        <polygon id="Fill-6" fill="#FFFFFF" points="94.6523 99.3424 45.4883 99.3424 45.4883 47.1284 61.1003 31.0474 94.6523 31.0474"></polygon>
        <polygon id="Fill-8" fill="#1D71B8" points="46.5413 46.469 60.5513 32.005 60.5513 46.469"></polygon>
        <polygon id="Fill-10" fill="#D20050" points="33.3399 32.7322 47.3499 18.2682 47.3499 32.7322"></polygon>
        <path d="M93.5488,96.4713 C93.5488,97.3303 92.8648,98.0303 92.0258,98.0303 L47.4668,98.0303 C46.6268,98.0303 45.9438,97.3303 45.9438,96.4713 L45.9438,47.7923 C46.0438,47.8293 46.1488,47.8573 46.2618,47.8573 L61.6008,47.8573 C62.1248,47.8573 62.5508,47.4313 62.5508,46.9073 L62.5508,31.5683 C62.5508,31.4023 62.4968,31.2533 62.4218,31.1173 L92.0258,31.1173 C92.8648,31.1173 93.5488,31.8173 93.5488,32.6763 L93.5488,96.4713 Z M60.6508,32.3143 L60.6508,45.9563 L47.2228,45.9563 L60.6508,32.3143 Z M92.0258,29.2173 L61.4308,29.2173 C61.1758,29.2173 60.9328,29.3203 60.7538,29.5013 L44.3168,46.2013 C44.1418,46.3793 44.0428,46.6183 44.0428,46.8673 L44.0428,96.4713 C44.0428,98.3783 45.5788,99.9303 47.4668,99.9303 L92.0258,99.9303 C93.9128,99.9303 95.4488,98.3783 95.4488,96.4713 L95.4488,32.6763 C95.4488,30.7693 93.9128,29.2173 92.0258,29.2173 L92.0258,29.2173 Z M39.7758,85.7623 C39.7758,86.2863 39.3498,86.7123 38.8248,86.7123 L33.5278,86.7123 C31.6408,86.7123 30.1048,85.1603 30.1048,83.2543 L30.1048,39.2373 C30.1048,38.7123 30.5298,38.2863 31.0548,38.2863 C31.5788,38.2863 32.0048,38.7123 32.0048,39.2373 L32.0048,83.2543 C32.0048,84.1143 32.6888,84.8123 33.5278,84.8123 L38.8248,84.8123 C39.3498,84.8123 39.7758,85.2383 39.7758,85.7623 L39.7758,85.7623 Z M33.3218,32.7003 L46.3918,19.4223 L46.3918,32.7003 L33.3218,32.7003 Z M30.1288,33.5283 C30.1238,33.5703 30.1048,33.6073 30.1048,33.6503 C30.1048,33.6513 30.1058,33.6533 30.1058,33.6553 C30.1058,33.7783 30.1308,33.9003 30.1788,34.0153 C30.2268,34.1323 30.2988,34.2373 30.3868,34.3243 C30.3878,34.3253 30.3878,34.3263 30.3888,34.3263 C30.4078,34.3463 30.4338,34.3533 30.4548,34.3703 C30.5288,34.4313 30.6038,34.4903 30.6938,34.5273 C30.8088,34.5753 30.9318,34.6003 31.0548,34.6003 L47.3418,34.6003 C47.8658,34.6003 48.2918,34.1743 48.2918,33.6503 L48.2918,18.3113 C48.2918,18.1623 48.2508,18.0253 48.1898,17.9003 L78.0868,17.9003 C78.9268,17.9003 79.6108,18.5993 79.6108,19.4583 L79.6108,24.7203 C79.6108,25.2443 80.0358,25.6703 80.5608,25.6703 C81.0848,25.6703 81.5108,25.2443 81.5108,24.7203 L81.5108,19.4583 C81.5108,17.5513 79.9748,15.9993 78.0868,15.9993 L47.4918,15.9993 C47.2368,15.9993 46.9938,16.1023 46.8158,16.2833 L30.3848,32.9773 C30.3838,32.9783 30.3828,32.9793 30.3818,32.9803 L30.3778,32.9843 C30.3628,32.9993 30.3578,33.0203 30.3428,33.0373 C30.2768,33.1143 30.2158,33.1963 30.1768,33.2923 C30.1458,33.3673 30.1398,33.4483 30.1288,33.5283 L30.1288,33.5283 Z" id="Fill-12" fill="#343852"></path>
        <path d="M84.7392,46.9069 C84.7392,46.3829 84.3132,45.9569 83.7892,45.9569 L70.5662,45.9569 C70.0422,45.9569 69.6162,46.3829 69.6162,46.9069 C69.6162,47.4309 70.0422,47.8569 70.5662,47.8569 L83.7892,47.8569 C84.3132,47.8569 84.7392,47.4309 84.7392,46.9069 M84.7392,60.7329 C84.7392,60.2089 84.3132,59.7829 83.7892,59.7829 L56.3512,59.7829 C55.8272,59.7829 55.4012,60.2089 55.4012,60.7329 C55.4012,61.2579 55.8272,61.6829 56.3512,61.6829 L83.7892,61.6829 C84.3132,61.6829 84.7392,61.2579 84.7392,60.7329 M84.7392,74.4519 C84.7392,73.9279 84.3132,73.5019 83.7892,73.5019 L56.3512,73.5019 C55.8272,73.5019 55.4012,73.9279 55.4012,74.4519 C55.4012,74.9759 55.8272,75.4019 56.3512,75.4019 L83.7892,75.4019 C84.3132,75.4019 84.7392,74.9759 84.7392,74.4519 M83.7892,89.1209 L56.3512,89.1209 C55.8272,89.1209 55.4012,88.6949 55.4012,88.1709 C55.4012,87.6459 55.8272,87.2199 56.3512,87.2199 L83.7892,87.2199 C84.3132,87.2199 84.7392,87.6459 84.7392,88.1709 C84.7392,88.6949 84.3132,89.1209 83.7892,89.1209" id="Fill-15" fill="#969CBB"></path>
    </g>
</svg>