<?xml version="1.0" encoding="UTF-8"?>
<svg width="120px" height="120px" viewBox="0 0 120 120" version="1.1" xmlns="http://www.w3.org/2000/svg" xmlns:xlink="http://www.w3.org/1999/xlink">
    <title>02.Icons/Illustrative/Autres Informatique</title>
    <g id="02.Icons/Illustrative/Autres-Informatique" stroke="none" stroke-width="1" fill="none" fill-rule="evenodd">
        <path d="M55.31,95.511 L55.308,95.511 C34.703,95.511 18,79.078 18,58.806 L18,17.381 L18,16 C20.917,19.195 26.774,21.916 38.663,22.1 L55.31,22.1 C75.915,22.1 92.618,38.533 92.618,58.806 C92.618,79.078 75.915,95.511 55.31,95.511" id="Fill-1" fill="#F2F3F7"></path>
        <path d="M101.7993,26.8604 L101.7993,68.5104 C101.7993,69.1844 101.2483,69.7354 100.5743,69.7354 L85.8743,69.7354 C85.2003,69.7354 84.6493,69.1844 84.6493,68.5104 L84.6493,26.8604 C84.6493,26.1864 85.2003,25.6354 85.8743,25.6354 L100.5743,25.6354 C101.2483,25.6354 101.7993,26.1864 101.7993,26.8604" id="Fill-3" fill="#969CBB"></path>
        <path d="M98.1243,83.2108 L98.1243,89.3358 C98.1243,92.7168 95.3803,95.4608 91.9993,95.4608 C88.6183,95.4608 85.8743,92.7168 85.8743,89.3358 L85.8743,83.2108 C85.8743,79.8298 88.6183,77.0858 91.9993,77.0858 C95.3803,77.0858 98.1243,79.8298 98.1243,83.2108" id="Fill-5" fill="#D20050"></path>
        <path d="M77.2992,56.2607 L77.2992,59.9357 C77.2992,61.2837 76.1962,62.3857 74.8492,62.3857 L57.6992,62.3857 L47.8992,62.3857 L30.7492,62.3857 C29.4012,62.3857 28.2992,61.2837 28.2992,59.9357 L28.2992,56.2607 L33.1992,56.2607 L77.2992,56.2607 Z" id="Fill-7" fill="#1D71B8"></path>
        <path d="M74.8491,52.5856 L74.8491,31.7606 C74.8491,31.0866 74.2981,30.5356 73.6241,30.5356 L31.9741,30.5356 C31.3001,30.5356 30.7491,31.0866 30.7491,31.7606 L30.7491,52.5856 C30.7491,53.2596 31.3001,53.8106 31.9741,53.8106 L73.6241,53.8106 C74.2981,53.8106 74.8491,53.2596 74.8491,52.5856 M77.2991,30.5356 L77.2991,56.2606 L33.1991,56.2606 L28.2991,56.2606 L28.2991,30.5356 C28.2991,29.1876 29.4011,28.0856 30.7491,28.0856 L74.8491,28.0856 C76.1971,28.0856 77.2991,29.1876 77.2991,30.5356" id="Fill-9" fill="#FFFFFF"></path>
        <path d="M74.8491,31.7605 L74.8491,52.5855 C74.8491,53.2595 74.2981,53.8105 73.6241,53.8105 L31.9741,53.8105 C31.3001,53.8105 30.7491,53.2595 30.7491,52.5855 L30.7491,31.7605 C30.7491,31.0865 31.3001,30.5355 31.9741,30.5355 L73.6241,30.5355 C74.2981,30.5355 74.8491,31.0865 74.8491,31.7605" id="Fill-11" fill="#EDEEF3"></path>
        <polygon id="Fill-13" fill="#969CBB" points="57.699 62.3857 58.924 69.7357 46.674 69.7357 47.899 62.3857"></polygon>
        <path d="M76.0742,77.0858 L69.9492,77.0858 L61.3742,77.0858 L52.7992,77.0858 L44.2242,77.0858 L35.6492,77.0858 L29.5242,77.0858 C28.8502,77.0858 28.2992,77.6368 28.2992,78.3108 L28.2992,84.4358 L28.2992,91.7858 L28.2992,97.9108 C28.2992,98.5848 28.8502,99.1358 29.5242,99.1358 L38.0992,99.1358 L68.7242,99.1358 L76.0742,99.1358 C76.7482,99.1358 77.2992,98.5848 77.2992,97.9108 L77.2992,91.7858 L77.2992,84.4358 L77.2992,78.3108 C77.2992,77.6368 76.7482,77.0858 76.0742,77.0858" id="Fill-15" fill="#EDEEF3"></path>
        <path d="M74.8494,61.4358 L30.7484,61.4358 C29.9214,61.4358 29.2484,60.7628 29.2484,59.9358 L29.2484,30.5358 C29.2484,29.7078 29.9214,29.0358 30.7484,29.0358 L74.8494,29.0358 C75.6764,29.0358 76.3494,29.7078 76.3494,30.5358 L76.3494,55.3108 L33.1994,55.3108 C32.6744,55.3108 32.2484,55.7368 32.2484,56.2608 C32.2484,56.7858 32.6744,57.2108 33.1994,57.2108 L76.3494,57.2108 L76.3494,59.9358 C76.3494,60.7628 75.6764,61.4358 74.8494,61.4358 L74.8494,61.4358 Z M57.8014,68.7858 L47.7954,68.7858 L48.7044,63.3358 L56.8934,63.3358 L57.8014,68.7858 Z M74.8494,27.1348 L30.7484,27.1348 C28.8734,27.1348 27.3484,28.6608 27.3484,30.5358 L27.3484,59.9358 C27.3484,61.8108 28.8734,63.3358 30.7484,63.3358 L46.7774,63.3358 L45.8684,68.7858 L41.7744,68.7858 C41.2494,68.7858 40.8244,69.2108 40.8244,69.7358 C40.8244,70.2598 41.2494,70.6858 41.7744,70.6858 L63.8244,70.6858 C64.3484,70.6858 64.7744,70.2598 64.7744,69.7358 C64.7744,69.2108 64.3484,68.7858 63.8244,68.7858 L59.7284,68.7858 L58.8204,63.3358 L74.8494,63.3358 C76.7244,63.3358 78.2494,61.8108 78.2494,59.9358 L78.2494,30.5358 C78.2494,28.6608 76.7244,27.1348 74.8494,27.1348 L74.8494,27.1348 Z" id="Fill-17" fill="#343852"></path>
        <path d="M95.3992,62.386 C95.3992,62.91 94.9732,63.336 94.4492,63.336 L91.9992,63.336 C91.4742,63.336 91.0482,62.91 91.0482,62.386 C91.0482,61.862 91.4742,61.436 91.9992,61.436 L94.4492,61.436 C94.9732,61.436 95.3992,61.862 95.3992,62.386 L95.3992,62.386 Z M100.8492,68.511 C100.8492,68.659 100.7232,68.785 100.5742,68.785 L85.8742,68.785 C85.7252,68.785 85.5992,68.659 85.5992,68.511 L85.5992,26.861 C85.5992,26.711 85.7252,26.585 85.8742,26.585 L100.5742,26.585 C100.7232,26.585 100.8492,26.711 100.8492,26.861 L100.8492,68.511 Z M100.5742,24.685 L85.8742,24.685 C84.6742,24.685 83.6992,25.661 83.6992,26.861 L83.6992,68.511 C83.6992,69.71 84.6742,70.686 85.8742,70.686 L100.5742,70.686 C101.7732,70.686 102.7502,69.71 102.7502,68.511 L102.7502,26.861 C102.7502,25.661 101.7732,24.685 100.5742,24.685 L100.5742,24.685 Z" id="Fill-19" fill="#343852"></path>
        <path d="M91.9988,78.0364 C89.1448,78.0364 86.8238,80.3574 86.8238,83.2114 L86.8238,89.3364 C86.8238,92.1894 89.1448,94.5114 91.9988,94.5114 C94.8528,94.5114 97.1738,92.1894 97.1738,89.3364 L97.1738,83.2114 C97.1738,80.3574 94.8528,78.0364 91.9988,78.0364 M91.9988,96.4114 C88.0978,96.4114 84.9238,93.2374 84.9238,89.3364 L84.9238,83.2114 C84.9238,79.3094 88.0978,76.1364 91.9988,76.1364 C95.8998,76.1364 99.0738,79.3094 99.0738,83.2114 L99.0738,89.3364 C99.0738,93.2374 95.8998,96.4114 91.9988,96.4114" id="Fill-22" fill="#343852"></path>
        <path d="M91.9988,84.1614 C91.4748,84.1614 91.0488,83.7354 91.0488,83.2114 L91.0488,81.9854 C91.0488,81.4614 91.4748,81.0354 91.9988,81.0354 C92.5228,81.0354 92.9488,81.4614 92.9488,81.9854 L92.9488,83.2114 C92.9488,83.7354 92.5228,84.1614 91.9988,84.1614" id="Fill-24" fill="#FFFFFF"></path>
        <path d="M76.074,98.1858 L69.675,98.1858 L69.675,92.7368 L76.349,92.7368 L76.349,97.9118 C76.349,98.0598 76.223,98.1858 76.074,98.1858 L76.074,98.1858 Z M29.249,97.9118 L29.249,92.7368 L37.148,92.7368 L37.148,98.1858 L29.524,98.1858 C29.375,98.1858 29.249,98.0598 29.249,97.9118 L29.249,97.9118 Z M29.524,78.0368 L34.699,78.0368 L34.699,83.4858 L29.249,83.4858 L29.249,78.3108 C29.249,78.1628 29.375,78.0368 29.524,78.0368 L29.524,78.0368 Z M76.349,78.3108 L76.349,83.4858 L70.899,83.4858 L70.899,78.0368 L76.074,78.0368 C76.223,78.0368 76.349,78.1628 76.349,78.3108 L76.349,78.3108 Z M67.224,90.8358 L76.349,90.8358 L76.349,85.3858 L67.224,85.3858 L67.224,90.8358 Z M39.048,98.1858 L67.774,98.1858 L67.774,92.7368 L39.048,92.7368 L39.048,98.1858 Z M36.599,83.4858 L43.273,83.4858 L43.273,78.0368 L36.599,78.0368 L36.599,83.4858 Z M45.173,83.4858 L51.848,83.4858 L51.848,78.0368 L45.173,78.0368 L45.173,83.4858 Z M53.749,83.4858 L60.424,83.4858 L60.424,78.0368 L53.749,78.0368 L53.749,83.4858 Z M41.499,90.8358 L48.174,90.8358 L48.174,85.3858 L41.499,85.3858 L41.499,90.8358 Z M50.074,90.8358 L56.749,90.8358 L56.749,85.3858 L50.074,85.3858 L50.074,90.8358 Z M58.649,90.8358 L65.324,90.8358 L65.324,85.3858 L58.649,85.3858 L58.649,90.8358 Z M62.324,83.4858 L68.999,83.4858 L68.999,78.0368 L62.324,78.0368 L62.324,83.4858 Z M29.249,90.8358 L39.599,90.8358 L39.599,85.3858 L29.249,85.3858 L29.249,90.8358 Z M76.074,76.1358 L29.524,76.1358 C28.325,76.1358 27.348,77.1118 27.348,78.3108 L27.348,97.9118 C27.348,99.1108 28.325,100.0858 29.524,100.0858 L76.074,100.0858 C77.273,100.0858 78.25,99.1108 78.25,97.9118 L78.25,78.3108 C78.25,77.1118 77.273,76.1358 76.074,76.1358 L76.074,76.1358 Z" id="Fill-26" fill="#343852"></path>
    </g>
</svg>