<?xml version="1.0" encoding="UTF-8"?>
<svg width="120px" height="120px" viewBox="0 0 120 120" version="1.1" xmlns="http://www.w3.org/2000/svg" xmlns:xlink="http://www.w3.org/1999/xlink">
    <title>02.Icons/Illustrative/Autres Cafeteria</title>
    <g id="02.Icons/Illustrative/Autres-Cafeteria" stroke="none" stroke-width="1" fill="none" fill-rule="evenodd">
        <path d="M80.892,47.946 C80.892,67.799 64.798,83.892 44.946,83.892 C25.093,83.892 9,67.799 9,47.946 C9,28.093 25.093,12 44.946,12 C64.798,12 80.892,28.093 80.892,47.946" id="Fill-1" fill="#F2F3F7"></path>
        <path d="M86.5454,47.946 C86.5454,51.92 83.3194,55.146 79.3454,55.146 C75.3704,55.146 72.1454,51.92 72.1454,47.946 C72.1454,51.92 68.9194,55.146 64.9454,55.146 C60.9714,55.146 57.7454,51.92 57.7454,47.946 C57.7454,51.92 54.5194,55.146 50.5454,55.146 C46.5704,55.146 43.3454,51.92 43.3454,47.946 C43.3454,51.92 40.1194,55.146 36.1454,55.146 L36.1454,63.786 L36.1454,64.808 L36.1454,73.866 L36.1454,93.026 L86.5454,93.026 L93.7454,93.026 L93.7454,55.146 C89.7714,55.146 86.5454,51.92 86.5454,47.946" id="Fill-3" fill="#EDEEF3"></path>
        <path d="M86.5452,23.4659 L77.9052,23.4659 L86.5452,39.3059 L86.5452,47.9459 C86.5452,51.9199 89.7712,55.1459 93.7452,55.1459 C97.7192,55.1459 100.9452,51.9199 100.9452,47.9459 L100.9452,39.3059 L86.5452,23.4659 Z" id="Fill-5" fill="#1D71B8"></path>
        <path d="M86.5453,39.3059 L86.5453,47.9459 C86.5453,51.9199 83.3193,55.1459 79.3453,55.1459 C75.3713,55.1459 72.1453,51.9199 72.1453,47.9459 L72.1453,39.3059 L86.5453,39.3059 Z" id="Fill-9" fill="#FFFFFF"></path>
        <polygon id="Fill-11" fill="#EDEEF3" points="77.9053 23.4659 86.5453 39.3059 72.1453 39.3059 69.2653 23.4659"></polygon>
        <path d="M69.2653,23.4659 L60.6253,23.4659 L57.7453,39.3059 L57.7453,47.9459 C57.7453,51.9199 60.9713,55.1459 64.9453,55.1459 C68.9193,55.1459 72.1453,51.9199 72.1453,47.9459 L72.1453,39.3059 L69.2653,23.4659 Z" id="Fill-13" fill="#1D71B8"></path>
        <polygon id="Fill-15" fill="#EDEEF3" points="60.6253 23.4659 57.7453 39.3059 43.3453 39.3059 51.9853 23.4659"></polygon>
        <path d="M57.7453,39.3059 L57.7453,47.9459 C57.7453,51.9199 54.5193,55.1459 50.5453,55.1459 C46.5713,55.1459 43.3453,51.9199 43.3453,47.9459 L43.3453,39.3059 L57.7453,39.3059 Z" id="Fill-17" fill="#FFFFFF"></path>
        <path d="M43.3453,23.4659 L28.9453,39.3059 L28.9453,47.9459 C28.9453,51.9199 32.1713,55.1459 36.1453,55.1459 C40.1193,55.1459 43.3453,51.9199 43.3453,47.9459 L43.3453,39.3059 L51.9853,23.4659 L43.3453,23.4659 Z" id="Fill-19" fill="#1D71B8"></path>
        <path d="M54.91,107.284 C54.003,107.284 53.124,106.91 52.491,106.262 C51.843,105.599 51.511,104.722 51.541,103.799 L52.145,84.244 C52.145,83.741 49.669,80.529 48.905,79.132 C48.661,78.701 48.545,78.225 48.545,77.736 L48.545,65.524 L52.865,65.524 L57.185,65.524 L61.505,65.524 L61.505,77.736 C61.505,78.225 61.39,78.701 61.145,79.132 C60.382,80.529 57.905,83.741 57.905,84.244 L58.51,103.569 C58.54,104.547 58.18,105.484 57.502,106.19 C56.825,106.896 55.889,107.284 54.91,107.284" id="Fill-21" fill="#969CBB"></path>
        <path d="M42.7853,76.9568 C42.7853,81.9108 39.1853,82.1708 39.1853,84.2438 L39.7903,103.5688 C39.8193,104.5478 39.4593,105.4838 38.7673,106.1898 C38.1193,106.8668 37.2423,107.2558 36.3053,107.2838 C35.3683,107.2558 34.4913,106.8668 33.8293,106.1898 C33.1513,105.4838 32.7913,104.5478 32.8203,103.5688 L33.4253,84.2438 C33.4253,82.1708 29.8253,81.9108 29.8253,76.9568 C29.8253,70.4208 32.7913,65.5238 36.3053,65.5238 C39.8193,65.5238 42.7853,70.4208 42.7853,76.9568" id="Fill-23" fill="#969CBB"></path>
        <path d="M85.5752,80.3761 L69.6912,80.3761 C68.9112,80.3761 68.2732,79.7381 68.2732,78.9581 L68.2732,65.1461 C68.2732,64.3671 68.9112,63.7291 69.6912,63.7291 L85.5752,63.7291 C86.3552,63.7291 86.9932,64.3671 86.9932,65.1461 L86.9932,78.9581 C86.9932,79.7381 86.3552,80.3761 85.5752,80.3761" id="Fill-25" fill="#D20050"></path>
        <path d="M69.691,64.679 C69.437,64.679 69.223,64.893 69.223,65.147 L69.223,78.958 C69.223,79.212 69.437,79.426 69.691,79.426 L85.575,79.426 C85.829,79.426 86.043,79.212 86.043,78.958 L86.043,65.147 C86.043,64.893 85.829,64.679 85.575,64.679 L69.691,64.679 Z M85.575,81.326 L69.691,81.326 C68.385,81.326 67.323,80.264 67.323,78.958 L67.323,65.147 C67.323,63.841 68.385,62.779 69.691,62.779 L85.575,62.779 C86.88,62.779 87.943,63.841 87.943,65.147 L87.943,78.958 C87.943,80.264 86.88,81.326 85.575,81.326 L85.575,81.326 Z M52.865,76.554 C52.34,76.554 51.915,76.128 51.915,75.604 L51.915,65.524 C51.915,64.999 52.34,64.574 52.865,64.574 C53.389,64.574 53.815,64.999 53.815,65.524 L53.815,75.604 C53.815,76.128 53.389,76.554 52.865,76.554 L52.865,76.554 Z M57.185,76.554 C56.661,76.554 56.235,76.128 56.235,75.604 L56.235,65.524 C56.235,64.999 56.661,64.574 57.185,64.574 C57.71,64.574 58.135,64.999 58.135,65.524 L58.135,75.604 C58.135,76.128 57.71,76.554 57.185,76.554 L57.185,76.554 Z M99.995,47.946 C99.995,51.392 97.192,54.196 93.746,54.196 C90.299,54.196 87.496,51.392 87.496,47.946 L87.496,40.256 L99.995,40.256 L99.995,47.946 Z M79.505,24.416 L86.126,24.416 L98.797,38.356 L87.109,38.356 L79.505,24.416 Z M85.595,47.946 C85.595,51.392 82.792,54.196 79.345,54.196 C75.899,54.196 73.095,51.392 73.095,47.946 L73.095,40.256 L85.595,40.256 L85.595,47.946 Z M70.403,24.416 L77.341,24.416 L84.945,38.356 L72.938,38.356 L70.403,24.416 Z M71.195,47.946 C71.195,51.392 68.391,54.196 64.945,54.196 C61.499,54.196 58.696,51.392 58.696,47.946 L58.696,40.256 L71.195,40.256 L71.195,47.946 Z M56.953,38.356 L44.946,38.356 L52.549,24.416 L59.487,24.416 L56.953,38.356 Z M56.795,47.946 C56.795,51.392 53.992,54.196 50.545,54.196 C47.099,54.196 44.295,51.392 44.295,47.946 L44.295,40.256 L56.795,40.256 L56.795,47.946 Z M42.781,38.356 L31.092,38.356 L43.765,24.416 L50.384,24.416 L42.781,38.356 Z M42.395,47.946 C42.395,51.392 39.591,54.196 36.145,54.196 C32.699,54.196 29.895,51.392 29.895,47.946 L29.895,40.256 L42.395,40.256 L42.395,47.946 Z M41.836,76.956 C41.836,79.561 40.731,80.624 39.756,81.562 C39.008,82.282 38.235,83.026 38.236,84.274 L38.84,103.598 C38.863,104.324 38.595,105.008 38.081,105.533 C37.613,106.023 36.983,106.306 36.305,106.334 C35.628,106.306 34.992,106.02 34.514,105.532 C34.013,105.01 33.749,104.323 33.77,103.598 L34.376,84.244 C34.376,83.026 33.602,82.282 32.854,81.562 C31.88,80.624 30.776,79.561 30.776,76.956 C30.776,71.176 33.256,66.474 36.305,66.474 C39.355,66.474 41.836,71.176 41.836,76.956 L41.836,76.956 Z M68.472,24.416 L71.007,38.356 L58.884,38.356 L61.418,24.416 L68.472,24.416 Z M101.867,39.166 C101.857,39.098 101.851,39.031 101.826,38.966 C101.8,38.899 101.758,38.844 101.718,38.785 C101.693,38.747 101.68,38.703 101.648,38.667 L87.249,22.827 C87.068,22.629 86.813,22.516 86.545,22.516 L43.345,22.516 C43.078,22.516 42.823,22.629 42.642,22.827 L28.242,38.667 C28.21,38.703 28.197,38.747 28.171,38.785 C28.132,38.844 28.089,38.899 28.064,38.966 C28.038,39.031 28.033,39.098 28.023,39.166 C28.016,39.214 27.995,39.256 27.995,39.306 L27.995,47.946 C27.995,52.118 31.148,55.563 35.195,56.036 L35.195,64.721 C31.575,65.591 28.876,70.645 28.876,76.956 C28.876,80.369 30.477,81.91 31.537,82.931 C32.154,83.525 32.475,83.853 32.476,84.215 L31.872,103.54 C31.835,104.78 32.286,105.954 33.15,106.854 C33.985,107.708 35.096,108.199 36.277,108.234 C36.286,108.235 36.295,108.235 36.305,108.235 C36.315,108.235 36.325,108.235 36.334,108.234 C37.524,108.199 38.632,107.705 39.446,106.855 C40.318,105.965 40.778,104.787 40.739,103.539 L40.135,84.244 C40.135,83.853 40.457,83.525 41.074,82.931 C42.134,81.91 43.736,80.369 43.736,76.956 C43.736,70.459 40.877,65.279 37.095,64.641 L37.095,56.036 C39.808,55.719 42.117,54.068 43.345,51.755 C44.715,54.334 47.427,56.096 50.545,56.096 C53.664,56.096 56.376,54.334 57.746,51.755 C59.116,54.334 61.827,56.096 64.945,56.096 C68.063,56.096 70.775,54.334 72.145,51.755 C73.515,54.334 76.227,56.096 79.345,56.096 C82.464,56.096 85.175,54.334 86.545,51.755 C87.774,54.068 90.083,55.719 92.795,56.036 L92.795,92.075 L59.1,92.075 L58.859,84.366 C59.046,83.975 59.807,82.871 60.322,82.124 C60.963,81.195 61.627,80.233 61.971,79.601 C62.293,79.035 62.456,78.408 62.456,77.736 L62.456,65.524 C62.456,64.999 62.03,64.574 61.505,64.574 C60.981,64.574 60.555,64.999 60.555,65.524 L60.555,77.736 C60.555,78.075 60.476,78.387 60.311,78.676 C60.006,79.235 59.372,80.156 58.757,81.046 C57.296,83.166 56.955,83.715 56.956,84.274 L57.561,103.597 C57.583,104.322 57.318,105.009 56.815,105.533 C55.89,106.498 54.137,106.587 53.17,105.598 C52.711,105.127 52.469,104.499 52.49,103.828 L53.095,84.244 C53.095,83.715 52.754,83.166 51.293,81.046 C50.678,80.156 50.044,79.235 49.732,78.664 C49.575,78.387 49.496,78.075 49.496,77.736 L49.496,65.524 C49.496,64.999 49.07,64.574 48.545,64.574 C48.021,64.574 47.595,64.999 47.595,65.524 L47.595,77.736 C47.595,78.407 47.757,79.033 48.071,79.588 C48.423,80.233 49.087,81.195 49.728,82.124 C50.243,82.87 51.003,83.973 51.191,84.366 L50.953,92.075 L45.345,92.075 C44.821,92.075 44.395,92.501 44.395,93.026 C44.395,93.55 44.821,93.976 45.345,93.976 L50.894,93.976 L50.591,103.769 C50.553,104.96 50.987,106.081 51.811,106.926 C52.625,107.757 53.753,108.235 54.91,108.235 C56.149,108.235 57.343,107.729 58.187,106.848 C59.045,105.953 59.497,104.78 59.46,103.539 L59.16,93.976 L93.746,93.976 C94.27,93.976 94.696,93.55 94.696,93.026 L94.696,56.036 C98.742,55.563 101.895,52.118 101.895,47.946 L101.895,39.306 C101.895,39.256 101.874,39.214 101.867,39.166 L101.867,39.166 Z" id="Fill-27" fill="#343852"></path>
    </g>
</svg>