<?xml version="1.0" encoding="UTF-8"?>
<svg width="120px" height="120px" viewBox="0 0 120 120" version="1.1" xmlns="http://www.w3.org/2000/svg" xmlns:xlink="http://www.w3.org/1999/xlink">
    <title>02.Icons/Illustrative/Autres Newsletter</title>
    <g id="02.Icons/Illustrative/Autres-Newsletter" stroke="none" stroke-width="1" fill="none" fill-rule="evenodd">
        <path d="M57.008,97.736 L57.006,97.736 C37.12,97.736 21,81.876 21,62.312 L21,22.333 L21,21 C23.815,24.084 29.468,26.709 40.942,26.887 L57.008,26.887 C76.894,26.887 93.014,42.747 93.014,62.312 C93.014,81.876 76.894,97.736 57.008,97.736" id="Fill-1" fill="#F2F3F7"></path>
        <path d="M81.6646,74.4679 L93.3086,27.4279 L55.4296,59.3679 L81.6646,74.4679 Z M29.6256,45.5179 L91.6946,27.4279 L46.3206,54.9309 L29.6256,45.5179 Z" id="Fill-3" fill="#C5C8DA"></path>
        <polygon id="Fill-5" fill="#697097" points="55.4295 59.3678 51.6495 72.3368 64.9525 64.3418"></polygon>
        <polygon id="Fill-7" fill="#969CBB" points="46.3208 54.9312 91.6948 28.7512 55.4298 59.3682 51.6488 72.3362"></polygon>
        <path d="M62.5906,64.8936 L55.9376,61.1616 L53.4526,70.6026 L62.5906,64.8936 Z M87.6976,29.4696 L31.5526,46.3316 L46.1806,54.3726 L87.6976,29.4696 Z M51.8176,69.3476 L54.4126,59.4906 C54.4216,59.4556 54.4456,59.4296 54.4576,59.3966 C54.4726,59.3576 54.4786,59.3166 54.4996,59.2796 C54.5016,59.2756 54.5006,59.2716 54.5026,59.2676 C54.5146,59.2476 54.5336,59.2366 54.5456,59.2176 C54.5816,59.1636 54.6226,59.1176 54.6676,59.0726 C54.6906,59.0496 54.7026,59.0206 54.7276,58.9996 L54.7486,58.9826 C54.7486,58.9826 54.7486,58.9816 54.7486,58.9816 L88.5236,31.1886 L47.3426,55.8906 L51.8176,69.3476 Z M92.5596,30.3276 L57.0066,59.5836 L80.8286,72.9466 L92.5596,30.3276 Z M95.5356,26.6656 C95.5346,26.6696 95.5366,26.6736 95.5356,26.6766 L82.3386,74.6206 C82.3256,74.6696 82.2966,74.7096 82.2766,74.7556 C82.2646,74.7806 82.2646,74.8086 82.2506,74.8336 C82.2426,74.8476 82.2306,74.8576 82.2216,74.8716 C82.2026,74.9026 82.1796,74.9296 82.1576,74.9576 C82.1186,75.0066 82.0766,75.0506 82.0306,75.0896 C82.0046,75.1116 81.9796,75.1316 81.9516,75.1496 C81.8976,75.1866 81.8406,75.2146 81.7816,75.2396 C81.7536,75.2506 81.7286,75.2646 81.6996,75.2726 C81.6126,75.2996 81.5236,75.3166 81.4316,75.3176 C81.4286,75.3176 81.4266,75.3186 81.4236,75.3186 C81.4236,75.3186 81.4236,75.3186 81.4226,75.3186 C81.4226,75.3186 81.4226,75.3186 81.4216,75.3186 C81.3406,75.3186 81.2586,75.3066 81.1786,75.2856 C81.1756,75.2846 81.1736,75.2846 81.1706,75.2846 C81.1636,75.2826 81.1586,75.2766 81.1516,75.2746 C81.0856,75.2546 81.0206,75.2316 80.9576,75.1966 L64.4796,65.9536 L53.0346,73.1036 C52.9276,73.1696 52.8136,73.2046 52.6966,73.2256 C52.6706,73.2626 52.6346,73.2916 52.6036,73.3236 C52.5766,73.3516 52.5546,73.3826 52.5246,73.4066 C52.4356,73.4806 52.3356,73.5406 52.2256,73.5786 C52.2246,73.5786 52.2246,73.5786 52.2236,73.5796 C52.1396,73.6076 52.0546,73.6166 51.9706,73.6206 C51.9546,73.6216 51.9406,73.6286 51.9246,73.6286 C51.9246,73.6286 51.9246,73.6276 51.9246,73.6276 C51.9236,73.6276 51.9236,73.6286 51.9236,73.6286 C51.9226,73.6286 51.9206,73.6276 51.9196,73.6276 C51.8406,73.6266 51.7606,73.6176 51.6816,73.5966 C51.6736,73.5946 51.6686,73.5886 51.6616,73.5866 C51.5526,73.5556 51.4506,73.5056 51.3586,73.4386 C51.3356,73.4206 51.3186,73.3976 51.2976,73.3776 C51.2356,73.3236 51.1806,73.2636 51.1346,73.1926 C51.1116,73.1576 51.0956,73.1206 51.0776,73.0826 C51.0596,73.0466 51.0356,73.0166 51.0226,72.9776 L45.4176,56.1206 L28.6526,46.9046 C28.6376,46.8966 28.6286,46.8816 28.6146,46.8726 C28.5406,46.8266 28.4756,46.7696 28.4156,46.7046 C28.3966,46.6836 28.3726,46.6666 28.3556,46.6436 C28.2886,46.5556 28.2336,46.4576 28.2006,46.3456 C28.1996,46.3436 28.2006,46.3416 28.1996,46.3396 C28.1646,46.2216 28.1526,46.0976 28.1656,45.9736 C28.1796,45.8476 28.2176,45.7276 28.2776,45.6186 C28.2776,45.6176 28.2776,45.6156 28.2786,45.6146 C28.2956,45.5826 28.3256,45.5636 28.3456,45.5346 C28.3956,45.4636 28.4446,45.3916 28.5136,45.3356 C28.5966,45.2676 28.6926,45.2226 28.7916,45.1866 C28.8086,45.1806 28.8196,45.1676 28.8366,45.1626 L28.8406,45.1616 C28.8436,45.1606 28.8456,45.1596 28.8476,45.1596 L94.3446,25.4886 C94.7706,25.3586 95.2006,25.5556 95.4186,25.9206 C95.4226,25.9266 95.4296,25.9306 95.4336,25.9366 C95.4356,25.9396 95.4356,25.9436 95.4376,25.9466 C95.4456,25.9616 95.4496,25.9776 95.4566,25.9916 C95.4796,26.0376 95.5136,26.0746 95.5286,26.1256 C95.5386,26.1606 95.5316,26.1946 95.5376,26.2296 C95.5426,26.2526 95.5566,26.2736 95.5596,26.2966 C95.5636,26.3276 95.5536,26.3606 95.5546,26.3926 C95.5546,26.3966 95.5536,26.4006 95.5546,26.4056 C95.5536,26.4566 95.5546,26.5056 95.5466,26.5546 C95.5406,26.5916 95.5456,26.6296 95.5356,26.6656 L95.5356,26.6656 Z M46.8186,73.4216 C46.5396,72.9766 45.9536,72.8416 45.5086,73.1196 C43.8456,74.1606 42.2856,75.7026 40.9956,77.5786 C40.6986,78.0106 40.8076,78.6016 41.2406,78.8996 C41.4046,79.0116 41.5916,79.0666 41.7776,79.0666 C42.0806,79.0666 42.3766,78.9226 42.5616,78.6546 C43.7056,76.9916 45.0726,75.6336 46.5166,74.7306 C46.9616,74.4526 47.0966,73.8656 46.8186,73.4216 L46.8186,73.4216 Z M39.9296,94.9576 C39.7546,94.4636 39.2146,94.2056 38.7176,94.3766 C38.2226,94.5506 37.9626,95.0936 38.1366,95.5886 C38.5746,96.8296 39.1586,98.0286 39.8726,99.1536 C40.0536,99.4376 40.3616,99.5936 40.6756,99.5936 C40.8496,99.5936 41.0266,99.5466 41.1846,99.4456 C41.6266,99.1646 41.7576,98.5776 41.4766,98.1336 C40.8386,97.1306 40.3186,96.0626 39.9296,94.9576 L39.9296,94.9576 Z M38.1066,90.3276 C38.6216,90.3276 39.0446,89.9156 39.0566,89.3976 C39.0956,87.5796 39.4346,85.6936 40.0626,83.7916 C40.2266,83.2936 39.9556,82.7556 39.4576,82.5906 C38.9596,82.4286 38.4216,82.6966 38.2576,83.1956 C37.5716,85.2766 37.2006,87.3496 37.1566,89.3566 C37.1456,89.8806 37.5616,90.3156 38.0856,90.3276 L38.1066,90.3276 Z M88.5376,87.9506 C88.4926,87.9246 87.4196,87.3246 85.6136,86.7136 C85.1176,86.5496 84.5786,86.8126 84.4096,87.3096 C84.2416,87.8056 84.5086,88.3456 85.0056,88.5136 C86.6266,89.0616 87.5946,89.5996 87.6046,89.6056 C87.7516,89.6876 87.9116,89.7266 88.0686,89.7266 C88.4006,89.7266 88.7236,89.5526 88.8976,89.2436 C89.1546,88.7866 88.9946,88.2086 88.5376,87.9506 L88.5376,87.9506 Z M79.8186,85.5026 C77.8586,85.3326 75.8576,85.4086 73.9306,85.7366 C73.4136,85.8246 73.0656,86.3146 73.1536,86.8326 C73.2316,87.2956 73.6336,87.6236 74.0886,87.6236 C74.1416,87.6236 74.1956,87.6186 74.2486,87.6096 C76.0176,87.3096 77.8546,87.2376 79.6546,87.3946 C80.1706,87.4436 80.6366,87.0536 80.6826,86.5306 C80.7286,86.0076 80.3416,85.5476 79.8186,85.5026 L79.8186,85.5026 Z M47.3246,87.3156 C47.2946,86.7916 46.8406,86.4096 46.3226,86.4216 C45.7976,86.4506 45.3976,86.8996 45.4276,87.4226 C45.5516,89.6076 46.4286,91.5706 47.9636,93.0986 C48.1486,93.2836 48.3916,93.3766 48.6336,93.3766 C48.8776,93.3766 49.1216,93.2826 49.3066,93.0956 C49.6766,92.7246 49.6756,92.1236 49.3036,91.7536 C48.1066,90.5596 47.4216,89.0256 47.3246,87.3156 L47.3246,87.3156 Z M68.2996,87.4436 C66.1346,88.3946 64.4576,89.5036 63.2396,90.3626 C62.8096,90.6646 62.7066,91.2566 63.0096,91.6856 C63.1946,91.9486 63.4886,92.0886 63.7876,92.0886 C63.9766,92.0886 64.1666,92.0326 64.3326,91.9156 C65.4806,91.1066 67.0536,90.0656 69.0636,89.1836 C69.5436,88.9726 69.7626,88.4126 69.5516,87.9316 C69.3406,87.4516 68.7816,87.2306 68.2996,87.4436 L68.2996,87.4436 Z M58.6716,93.4626 C57.0556,94.2786 55.6096,94.4466 53.8056,94.0506 C53.2926,93.9386 52.7856,94.2636 52.6746,94.7776 C52.5636,95.2906 52.8886,95.7966 53.4016,95.9086 C54.1416,96.0686 54.8626,96.1506 55.5436,96.1506 C56.9226,96.1506 58.1886,95.8356 59.5296,95.1576 C59.9966,94.9216 60.1856,94.3496 59.9486,93.8806 C59.7116,93.4136 59.1436,93.2246 58.6716,93.4626 L58.6716,93.4626 Z M50.3656,78.9226 C50.7606,79.2676 50.8006,79.8686 50.4556,80.2626 C49.8316,80.9756 49.2466,81.7446 48.7166,82.5476 C48.5336,82.8236 48.2316,82.9736 47.9226,82.9736 C47.7436,82.9736 47.5616,82.9226 47.4006,82.8166 C46.9616,82.5266 46.8416,81.9376 47.1306,81.5006 C47.7086,80.6256 48.3466,79.7896 49.0256,79.0126 C49.3716,78.6166 49.9726,78.5786 50.3656,78.9226 L50.3656,78.9226 Z" id="Fill-9" fill="#343852"></path>
        <path d="M99.162,67.6688 C99.162,75.1918 93.063,81.2908 85.54,81.2908 C78.016,81.2908 71.917,75.1918 71.917,67.6688 C71.917,60.1458 78.016,54.0468 85.54,54.0468 C93.063,54.0468 99.162,60.1458 99.162,67.6688" id="Fill-11" fill="#1D71B8"></path>
        <path d="M98.0886,67.6208 C98.0886,74.4738 92.5146,80.0478 85.6626,80.0478 C78.8106,80.0478 73.2356,74.4738 73.2356,67.6208 C73.2356,60.7678 78.8106,55.1938 85.6626,55.1938 C92.5146,55.1938 98.0886,60.7678 98.0886,67.6208 M99.9886,67.6208 C99.9886,59.7208 93.5626,53.2938 85.6626,53.2938 C77.7626,53.2938 71.3356,59.7208 71.3356,67.6208 C71.3356,75.5208 77.7626,81.9478 85.6626,81.9478 C93.5626,81.9478 99.9886,75.5208 99.9886,67.6208" id="Fill-13" fill="#343852"></path>
        <path d="M86.9887,67.4021 C86.7597,68.6901 85.6447,70.1641 84.5487,70.1341 C83.9147,70.1171 83.3987,69.5541 83.3737,68.8531 C83.3357,67.7881 83.7207,66.7571 84.4287,66.0231 C85.0187,65.4121 85.7757,65.0751 86.5587,65.0751 C86.8547,65.0751 87.1377,65.1081 87.4027,65.1721 L86.9887,67.4021 Z M88.4457,74.5901 C88.7757,74.4421 88.9377,74.0661 88.8137,73.7331 C88.7497,73.5601 88.6157,73.4191 88.4467,73.3471 C88.2777,73.2751 88.0907,73.2751 87.9217,73.3481 C87.1567,73.6781 86.2307,73.8521 85.2427,73.8521 C82.0897,73.8521 79.9717,71.6241 79.9717,68.3061 C79.9717,64.3291 82.5727,61.4431 86.1557,61.4431 C89.2097,61.4431 91.1067,63.3971 91.1067,66.5431 C91.1067,67.9201 90.7157,69.0941 90.0327,69.7641 C89.7117,70.0781 89.3477,70.2481 89.0077,70.2411 C88.8367,70.2361 88.7077,70.1771 88.6157,70.0621 C88.4497,69.8531 88.3037,69.3411 88.5517,68.0861 L89.1147,65.0901 C89.2327,64.4601 88.8307,63.8571 88.1997,63.7181 C87.7557,63.6201 87.2897,63.5701 86.8137,63.5701 C83.9337,63.5701 81.5897,65.9141 81.5897,68.7951 C81.5897,70.6761 82.8397,71.6611 84.0737,71.6611 C85.2777,71.6611 86.2327,71.1451 86.9817,70.0861 C87.0357,70.5141 87.1957,70.8761 87.4537,71.1461 C87.7697,71.4781 88.2217,71.6611 88.7267,71.6611 C90.6997,71.6611 92.6977,69.8591 92.6977,66.4151 C92.6977,62.6891 90.0777,60.0861 86.3257,60.0861 C81.7967,60.0861 78.3817,63.6751 78.3817,68.4341 C78.3817,72.3841 81.1687,75.2511 85.0087,75.2511 C86.3457,75.2511 87.4377,75.0411 88.4457,74.5901 L88.4457,74.5901 Z" id="Fill-15" fill="#FFFFFF"></path>
    </g>
</svg>