<?xml version="1.0" encoding="UTF-8"?>
<svg width="120px" height="120px" viewBox="0 0 120 120" version="1.1" xmlns="http://www.w3.org/2000/svg" xmlns:xlink="http://www.w3.org/1999/xlink">
    <title>02.Icons/Illustrative/Autres Horaires</title>
    <g id="02.Icons/Illustrative/Autres-Horaires" stroke="none" stroke-width="1" fill="none" fill-rule="evenodd">
        <path d="M93.7969724,59.5508 C93.7969724,41.5268 79.1869724,26.9158 61.1619724,26.9158 C43.1379724,26.9158 28.5279724,41.5268 28.5279724,59.5508 C28.5279724,77.5748 43.1379724,92.1858 61.1619724,92.1858 C79.1869724,92.1858 93.7969724,77.5748 93.7969724,59.5508" id="Fill-1" fill="#F2F3F7"></path>
        <path d="M44.8576724,70.477 C45.4846724,70.111 45.6936724,69.316 45.3406724,68.688 C44.9746724,68.061 44.1796724,67.853 43.5526724,68.218 C42.9266724,68.571 42.7176724,69.367 43.0686724,69.994 C43.4346724,70.621 44.2316724,70.829 44.8576724,70.477 M45.3406724,50.413 C45.6936724,49.786 45.4846724,48.99 44.8576724,48.625 C44.2316724,48.273 43.4346724,48.48 43.0686724,49.108 C42.7176724,49.735 42.9266724,50.53 43.5526724,50.896 C44.1796724,51.248 44.9746724,51.04 45.3406724,50.413 M52.5076724,77.161 C52.8596724,76.534 52.6516724,75.738 52.0246724,75.385 C51.3976724,75.019 50.6016724,75.228 50.2356724,75.855 C49.8846724,76.481 50.0916724,77.278 50.7196724,77.644 C51.3466724,78.008 52.1416724,77.787 52.5076724,77.161 M52.0246724,43.729 C52.6516724,43.363 52.8596724,42.568 52.5076724,41.941 C52.1416724,41.315 51.3466724,41.106 50.7196724,41.458 C50.0916724,41.823 49.8846724,42.62 50.2356724,43.246 C50.6016724,43.873 51.3976724,44.082 52.0246724,43.729 M71.6056724,77.644 C72.2326724,77.278 72.4406724,76.481 72.0886724,75.855 C71.7226724,75.228 70.9276724,75.019 70.2996724,75.385 C69.6726724,75.738 69.4646724,76.534 69.8166724,77.161 C70.1826724,77.787 70.9786724,77.996 71.6056724,77.644 M72.0886724,43.246 C72.4406724,42.62 72.2326724,41.823 71.6056724,41.458 C70.9786724,41.106 70.1826724,41.315 69.8166724,41.941 C69.4646724,42.568 69.6726724,43.363 70.2996724,43.729 C70.9276724,44.082 71.7226724,43.873 72.0886724,43.246 M79.2556724,69.994 C79.6076724,69.367 79.3986724,68.571 78.7726724,68.218 C78.1446724,67.853 77.3496724,68.061 76.9836724,68.688 C76.6306724,69.316 76.8396724,70.111 77.4666724,70.477 C78.0926724,70.829 78.8896724,70.621 79.2556724,69.994 M78.7726724,50.896 C79.3986724,50.53 79.6076724,49.735 79.2556724,49.108 C78.8896724,48.48 78.0926724,48.273 77.4666724,48.625 C76.8396724,48.99 76.6306724,49.786 76.9836724,50.413 C77.3496724,51.04 78.1446724,51.248 78.7726724,50.896 M61.1626724,34.748 C74.8556724,34.748 85.9646724,45.857 85.9646724,59.551 C85.9646724,73.245 74.8556724,84.353 61.1626724,84.353 C47.4686724,84.353 36.3596724,73.245 36.3596724,59.551 C36.3596724,45.857 47.4686724,34.748 61.1626724,34.748 M63.9296724,62.318 C64.6346724,61.613 65.0786724,60.634 65.0786724,59.551 C65.0786724,57.384 63.3296724,55.635 61.1626724,55.635 C58.9946724,55.635 57.2456724,57.384 57.2456724,59.551 C57.2456724,61.718 58.9946724,63.467 61.1626724,63.467 C62.2456724,63.467 63.2246724,63.023 63.9296724,62.318" id="Fill-3" fill="#1D71B8"></path>
        <path d="M63.1136724,61.5022 L63.1136724,61.5162 C62.6146724,62.0142 61.9226724,62.3182 61.1626724,62.3182 C59.6406724,62.3182 58.3946724,61.0872 58.3946724,59.5512 C58.3946724,58.0292 59.6406724,56.7832 61.1626724,56.7832 C62.6836724,56.7832 63.9296724,58.0292 63.9296724,59.5512 C63.9296724,60.3112 63.6256724,61.0032 63.1136724,61.5022" id="Fill-5" fill="#FFFFFF"></path>
        <path d="M62.2460724,60.6346 L62.2460724,60.6426 C61.9690724,60.9186 61.5850724,61.0876 61.1620724,61.0876 C60.3170724,61.0876 59.6250724,60.4046 59.6250724,59.5506 C59.6250724,58.7056 60.3170724,58.0136 61.1620724,58.0136 C62.0070724,58.0136 62.6990724,58.7056 62.6990724,59.5506 C62.6990724,59.9736 62.5300724,60.3576 62.2460724,60.6346" id="Fill-7" fill="#D20050"></path>
        <path d="M43.0691724,49.1077 C42.7171724,49.7347 42.9261724,50.5307 43.5521724,50.8967 C44.1791724,51.2477 44.9751724,51.0407 45.3411724,50.4127 C45.6941724,49.7857 45.4851724,48.9907 44.8581724,48.6247 C44.2321724,48.2727 43.4351724,48.4807 43.0691724,49.1077 M43.5521724,68.2177 C42.9261724,68.5717 42.7171724,69.3667 43.0691724,69.9937 C43.4351724,70.6207 44.2321724,70.8287 44.8581724,70.4767 C45.4851724,70.1107 45.6941724,69.3157 45.3411724,68.6887 C44.9751724,68.0617 44.1791724,67.8537 43.5521724,68.2177 M50.7191724,41.4577 C50.0921724,41.8237 49.8841724,42.6207 50.2361724,43.2467 C50.6021724,43.8737 51.3971724,44.0827 52.0241724,43.7297 C52.6521724,43.3637 52.8591724,42.5677 52.5081724,41.9407 C52.1421724,41.3147 51.3461724,41.1057 50.7191724,41.4577 M50.2361724,75.8557 C49.8841724,76.4817 50.0921724,77.2777 50.7191724,77.6437 C51.3461724,78.0087 52.1421724,77.7867 52.5081724,77.1607 C52.8591724,76.5337 52.6521724,75.7377 52.0241724,75.3847 C51.3971724,75.0187 50.6021724,75.2277 50.2361724,75.8557 M71.6051724,41.4577 C70.9781724,41.1057 70.1831724,41.3147 69.8171724,41.9407 C69.4651724,42.5677 69.6731724,43.3637 70.3001724,43.7297 C70.9271724,44.0827 71.7231724,43.8737 72.0881724,43.2467 C72.4401724,42.6207 72.2321724,41.8237 71.6051724,41.4577 M72.0881724,75.8557 C71.7231724,75.2277 70.9271724,75.0187 70.3001724,75.3847 C69.6731724,75.7377 69.4651724,76.5337 69.8171724,77.1607 C70.1831724,77.7867 70.9781724,77.9957 71.6051724,77.6437 C72.2321724,77.2777 72.4401724,76.4817 72.0881724,75.8557 M76.9841724,50.4127 C77.3491724,51.0407 78.1451724,51.2477 78.7721724,50.8967 C79.3981724,50.5307 79.6071724,49.7347 79.2551724,49.1077 C78.8891724,48.4807 78.0931724,48.2727 77.4671724,48.6247 C76.8401724,48.9907 76.6301724,49.7857 76.9841724,50.4127 M78.7721724,68.2177 C79.3981724,68.5717 79.6071724,69.3667 79.2551724,69.9937 C78.8891724,70.6207 78.0931724,70.8287 77.4671724,70.4767 C76.8401724,70.1107 76.6301724,69.3157 76.9841724,68.6887 C77.3491724,68.0617 78.1451724,67.8537 78.7721724,68.2177" id="Fill-9" fill="#FFFFFF"></path>
        <path d="M61.1625724,56.635 C62.7695724,56.635 64.0785724,57.944 64.0785724,59.551 C64.0785724,60.328 63.7745724,61.06 63.2235724,61.612 C62.6715724,62.163 61.9395724,62.467 61.1625724,62.467 C59.5555724,62.467 58.2465724,61.158 58.2465724,59.551 C58.2465724,57.944 59.5555724,56.635 61.1625724,56.635 M61.1625724,64.467 C62.1345724,64.467 63.0625724,64.183 63.8565724,63.659 L69.5935724,69.396 C69.7885724,69.591 70.0445724,69.689 70.3005724,69.689 C70.5565724,69.689 70.8115724,69.591 71.0075724,69.396 C71.3975724,69.005 71.3975724,68.372 71.0075724,67.982 L65.2705724,62.245 C65.7945724,61.451 66.0785724,60.523 66.0785724,59.551 C66.0785724,57.183 64.3955724,55.202 62.1625724,54.738 L62.1625724,45.192 C62.1625724,44.639 61.7155724,44.192 61.1625724,44.192 C60.6095724,44.192 60.1625724,44.639 60.1625724,45.192 L60.1625724,54.738 C57.9295724,55.202 56.2465724,57.183 56.2465724,59.551 C56.2465724,62.262 58.4515724,64.467 61.1625724,64.467 M78.4375724,59.551 C78.4375724,58.998 78.8855724,58.551 79.4375724,58.551 L82.0485724,58.551 C82.6005724,58.551 83.0485724,58.998 83.0485724,59.551 C83.0485724,60.104 82.6005724,60.551 82.0485724,60.551 L79.4375724,60.551 C78.8855724,60.551 78.4375724,60.104 78.4375724,59.551 M62.1625724,77.826 L62.1625724,80.437 C62.1625724,80.989 61.7155724,81.437 61.1625724,81.437 C60.6095724,81.437 60.1625724,80.989 60.1625724,80.437 L60.1625724,77.826 C60.1625724,77.274 60.6095724,76.826 61.1625724,76.826 C61.7155724,76.826 62.1625724,77.274 62.1625724,77.826 M43.8875724,59.551 C43.8875724,60.104 43.4395724,60.551 42.8875724,60.551 L40.2755724,60.551 C39.7235724,60.551 39.2755724,60.104 39.2755724,59.551 C39.2755724,58.998 39.7235724,58.551 40.2755724,58.551 L42.8875724,58.551 C43.4395724,58.551 43.8875724,58.998 43.8875724,59.551 M60.1625724,41.276 L60.1625724,38.664 C60.1625724,38.112 60.6095724,37.664 61.1625724,37.664 C61.7155724,37.664 62.1625724,38.112 62.1625724,38.664 L62.1625724,41.276 C62.1625724,41.828 61.7155724,42.276 61.1625724,42.276 C60.6095724,42.276 60.1625724,41.828 60.1625724,41.276 M98.7135724,59.551 C98.7135724,80.257 81.8685724,97.102 61.1625724,97.102 C40.4565724,97.102 23.6115724,80.257 23.6115724,59.551 C23.6115724,53.843 24.9165724,48.209 27.3975724,43.108 L22.3215724,44.833 C21.7995724,45.012 21.2315724,44.731 21.0535724,44.207 C20.8755724,43.685 21.1555724,43.116 21.6795724,42.939 L29.1335724,40.406 C29.1425724,40.402 29.1535724,40.405 29.1635724,40.402 C29.2535724,40.374 29.3475724,40.371 29.4425724,40.37 C29.4825724,40.369 29.5205724,40.357 29.5605724,40.361 C29.6745724,40.373 29.7855724,40.413 29.8935724,40.466 C29.9105724,40.474 29.9305724,40.473 29.9465724,40.483 C29.9475724,40.483 29.9475724,40.484 29.9485724,40.484 C29.9495724,40.485 29.9515724,40.485 29.9525724,40.486 C30.0745724,40.556 30.1755724,40.649 30.2545724,40.755 C30.2725724,40.779 30.2775724,40.809 30.2935724,40.834 C30.3485724,40.924 30.3975724,41.017 30.4215724,41.118 C30.4235724,41.126 30.4305724,41.133 30.4325724,41.141 L32.1155724,48.896 C32.2325724,49.435 31.8905724,49.968 31.3505724,50.085 C31.2785724,50.101 31.2075724,50.108 31.1375724,50.108 C30.6775724,50.108 30.2625724,49.788 30.1605724,49.32 L29.0655724,44.274 C26.8065724,49.027 25.6115724,54.253 25.6115724,59.551 C25.6115724,79.154 41.5595724,95.102 61.1625724,95.102 C80.7655724,95.102 96.7135724,79.154 96.7135724,59.551 C96.7135724,39.948 80.7655724,24 61.1625724,24 C54.9975724,24 49.4435724,25.279 44.6575724,27.801 C44.1695724,28.058 43.5635724,27.87 43.3075724,27.382 C43.0495724,26.894 43.2365724,26.289 43.7255724,26.031 C48.8025724,23.357 54.6695724,22 61.1625724,22 C81.8685724,22 98.7135724,38.845 98.7135724,59.551 M61.1625724,35.748 C74.2865724,35.748 84.9645724,46.426 84.9645724,59.551 C84.9645724,72.675 74.2865724,83.353 61.1625724,83.353 C48.0375724,83.353 37.3595724,72.675 37.3595724,59.551 C37.3595724,46.426 48.0375724,35.748 61.1625724,35.748 M61.1625724,85.353 C75.3905724,85.353 86.9645724,73.779 86.9645724,59.551 C86.9645724,45.323 75.3905724,33.748 61.1625724,33.748 C46.9345724,33.748 35.3595724,45.323 35.3595724,59.551 C35.3595724,73.779 46.9345724,85.353 61.1625724,85.353" id="Fill-11" fill="#343852"></path>
    </g>
</svg>