<?xml version="1.0" encoding="UTF-8"?>
<svg width="120px" height="120px" viewBox="0 0 120 120" version="1.1" xmlns="http://www.w3.org/2000/svg" xmlns:xlink="http://www.w3.org/1999/xlink">
    <title>02.Icons/Illustrative/Autres Teletravail</title>
    <g id="02.Icons/Illustrative/Autres-Teletravail" stroke="none" stroke-width="1" fill="none" fill-rule="evenodd">
        <path d="M49.8495,97.9448 L49.8475,97.9448 C30.0495,97.9448 14.0005,82.1548 14.0005,62.6768 L14.0005,22.8748 L14.0005,21.5468 C16.8025,24.6168 22.4305,27.2308 33.8545,27.4078 L49.8495,27.4078 C69.6475,27.4078 85.6965,43.1978 85.6965,62.6768 C85.6965,82.1548 69.6475,97.9448 49.8495,97.9448" id="Fill-1" fill="#F2F3F7"></path>
        <path d="M96.7576,99.1508 L32.5136,99.4488 C31.9886,99.4488 31.5636,99.0228 31.5636,98.4988 L31.2946,53.3208 L26.3096,53.3208 C25.9086,53.3208 25.5526,53.0698 25.4156,52.6938 C25.2796,52.3178 25.3946,51.8968 25.7006,51.6408 L64.2006,20.3708 C64.5546,20.0768 65.0646,20.0768 65.4176,20.3708 L85.3066,36.9058 L85.1946,24.7178 C85.1946,24.1938 85.6206,23.7678 86.1446,23.7678 L96.8376,23.7668 C97.3626,23.7668 97.7886,24.1918 97.7886,24.7168 L97.6426,47.0518 L103.9176,52.2208 C104.2256,52.4768 104.3386,52.8978 104.2026,53.2738 C104.0656,53.6498 103.6656,53.3208 103.2656,53.3208 L97.8496,53.3208 L97.7076,98.2008 C97.7076,98.7248 97.2816,99.1508 96.7576,99.1508" id="Fill-3" fill="#FFFFFF"></path>
        <polygon id="Fill-5" fill="#F2F3F7" points="35.5097 95.1909 35.5097 49.3059 64.5497 25.1049 89.6297 45.9999 89.6297 27.8709 93.5897 27.8709 93.5897 95.1909"></polygon>
        <polygon id="Fill-7" fill="#FFFFFF" points="92.2697 51.6309 87.4257 66.1509 77.7497 66.1509 71.1497 66.1509 66.3707 66.1509 68.1797 60.5409 71.1497 51.6309"></polygon>
        <polygon id="Fill-9" fill="#FFFFFF" points="90.9497 71.4309 90.9497 75.3909 80.3897 75.3909 80.3897 71.4309 85.6697 71.4309"></polygon>
        <path d="M87.4254,66.1509 L85.6694,71.4309 L80.3894,71.4309 L73.7894,71.4309 L73.7894,68.7909 C73.7894,67.3389 72.6014,66.1509 71.1494,66.1509 L77.7494,66.1509 L87.4254,66.1509 Z" id="Fill-11" fill="#D20050"></path>
        <polygon id="Fill-13" fill="#FFFFFF" points="80.3897 71.4309 80.3897 75.3909 71.1497 75.3909 63.8897 75.3909 59.2697 74.0709 59.2697 71.4309 64.5497 71.4309 73.7897 71.4309"></polygon>
        <path d="M59.2697,71.4309 L59.2697,74.0709 L63.8897,75.3909 L66.7537,76.2099 C67.8107,76.5129 68.5757,77.4369 68.6547,78.5319 L69.6707,90.7159 C69.7107,91.1919 69.5527,91.6529 69.2357,91.9969 C68.9187,92.3529 68.4567,92.5509 67.9817,92.5509 C66.0147,92.5509 64.3387,91.0989 64.0607,89.1449 L63.2297,83.3109 L63.2297,80.6709 C63.2297,79.9449 62.6357,79.3509 61.9097,79.3509 L52.6697,79.3509 L50.1887,60.7519 C50.0957,60.0919 49.5407,59.6039 48.8687,59.6039 L44.7497,59.6039 L45.9377,57.2149 C46.8217,55.4059 48.6567,54.2709 50.6637,54.2709 L56.4317,54.2709 L57.9107,54.2709 C60.1407,54.2709 62.1337,55.6699 62.8867,57.7819 L65.8697,66.1509 L66.3707,66.1509 L71.1497,66.1509 C72.6017,66.1509 73.7897,67.3389 73.7897,68.7909 L73.7897,71.4309 L64.5497,71.4309 L59.2697,71.4309 Z" id="Fill-15" fill="#1D71B8"></path>
        <path d="M63.2297,80.6709 L63.2297,83.3109 C63.2297,84.0369 62.6357,84.6309 61.9097,84.6309 L50.0297,84.6309 L40.6577,84.6309 C39.9847,84.6309 39.4167,84.1159 39.3507,83.4429 L38.9157,79.3509 L36.9887,61.0689 C36.9487,60.6859 37.0677,60.3169 37.3187,60.0399 C37.5687,59.7619 37.9257,59.6039 38.2947,59.6039 L44.7497,59.6039 L48.8687,59.6039 C49.5407,59.6039 50.0957,60.0919 50.1887,60.7519 L52.6697,79.3509 L61.9097,79.3509 C62.6357,79.3509 63.2297,79.9449 63.2297,80.6709" id="Fill-17" fill="#FFFFFF"></path>
        <path d="M57.8046,42.4966 C60.6426,43.0906 62.4246,46.1796 61.7776,49.4126 C61.2106,52.2646 58.9266,54.2706 56.4316,54.2706 C56.1016,54.2706 55.7846,54.2316 55.4546,54.1656 C52.6166,53.5716 50.8346,50.4826 51.4816,47.2486 C52.1286,44.0276 54.9536,41.8896 57.8046,42.4966" id="Fill-19" fill="#FFFFFF"></path>
        <path d="M32.4998,98.2006 L96.5998,98.2006 L96.5998,52.9506 C96.5998,52.4266 97.0248,52.0006 97.5498,52.0006 L101.5268,52.0006 L96.9408,48.1766 C96.7248,47.9956 96.5998,47.7286 96.5998,47.4466 L96.5998,24.8606 L86.6198,24.8606 L86.6198,37.5466 C86.6198,37.9146 86.4058,38.2506 86.0728,38.4066 C85.7398,38.5636 85.3468,38.5126 85.0618,38.2756 L64.5498,21.1866 L27.5738,52.0006 L31.5498,52.0006 C32.0738,52.0006 32.4998,52.4266 32.4998,52.9506 L32.4998,98.2006 Z M97.5498,100.1006 L31.5498,100.1006 C31.0248,100.1006 30.5998,99.6756 30.5998,99.1506 L30.5998,53.9006 L24.9498,53.9006 C24.5498,53.9006 24.1928,53.6496 24.0568,53.2736 C23.9208,52.8976 24.0348,52.4766 24.3418,52.2216 L63.9408,19.2216 C64.2948,18.9266 64.8048,18.9266 65.1578,19.2216 L84.7198,35.5176 L84.7198,23.9106 C84.7198,23.3866 85.1458,22.9606 85.6698,22.9606 L97.5498,22.9606 C98.0738,22.9606 98.4998,23.3866 98.4998,23.9106 L98.4998,47.0026 L104.7578,52.2216 C105.0648,52.4766 105.1788,52.8976 105.0428,53.2736 C104.9058,53.6496 104.5498,53.9006 104.1488,53.9006 L98.4998,53.9006 L98.4998,99.1506 C98.4998,99.6756 98.0738,100.1006 97.5498,100.1006 L97.5498,100.1006 Z" id="Fill-21" fill="#969CBB"></path>
        <path d="M81.34,74.441 L90,74.441 L90,72.381 L81.34,72.381 L81.34,74.441 Z M55.649,53.236 C53.322,52.748 51.871,50.147 52.414,47.435 C52.701,46.005 53.508,44.763 54.629,44.026 C55.312,43.578 56.075,43.344 56.835,43.344 C57.093,43.344 57.351,43.372 57.606,43.425 C57.607,43.426 57.609,43.426 57.61,43.426 C59.936,43.913 61.388,46.515 60.846,49.228 C60.375,51.6 58.518,53.321 56.432,53.321 C56.187,53.321 55.936,53.293 55.649,53.236 L55.649,53.236 Z M49.247,60.878 L51.728,79.477 C51.791,79.949 52.193,80.301 52.669,80.301 L61.91,80.301 C62.111,80.301 62.28,80.47 62.28,80.671 L62.28,83.311 C62.28,83.512 62.111,83.681 61.91,83.681 L40.658,83.681 C40.473,83.681 40.315,83.537 40.295,83.342 L37.933,60.97 C37.92,60.857 37.953,60.754 38.022,60.677 C38.093,60.599 38.192,60.554 38.294,60.554 L48.869,60.554 C49.064,60.554 49.22,60.69 49.247,60.878 L49.247,60.878 Z M93.041,51.076 C92.862,50.829 92.576,50.681 92.27,50.681 L71.15,50.681 C70.741,50.681 70.378,50.943 70.249,51.33 L67.278,60.24 C67.112,60.738 67.381,61.276 67.878,61.442 C68.377,61.608 68.915,61.338 69.081,60.841 L71.834,52.581 L90.952,52.581 L86.745,65.201 L77.75,65.201 C77.225,65.201 76.799,65.626 76.799,66.151 C76.799,66.675 77.225,67.101 77.75,67.101 L86.112,67.101 L84.985,70.481 L74.74,70.481 L74.74,68.79 C74.74,66.811 73.129,65.201 71.15,65.201 L66.54,65.201 L63.782,57.463 C63.173,55.754 61.854,54.448 60.236,53.792 C61.454,52.787 62.366,51.326 62.709,49.6 C63.455,45.872 61.343,42.269 58.002,41.568 C56.496,41.246 54.928,41.557 53.585,42.438 C52.043,43.452 50.937,45.137 50.55,47.062 C50.074,49.441 50.764,51.765 52.193,53.321 L50.664,53.321 C48.27,53.321 46.132,54.653 45.087,56.791 L44.161,58.654 L38.294,58.654 C37.657,58.654 37.043,58.926 36.612,59.404 C36.183,59.879 35.975,60.523 36.043,61.168 L38.406,83.535 C38.519,84.702 39.487,85.581 40.658,85.581 L49.08,85.581 L49.08,88.96 L43.429,88.96 C42.178,88.96 41.16,89.979 41.16,91.231 L41.16,92.551 C41.16,93.076 41.585,93.501 42.11,93.501 C42.634,93.501 43.06,93.076 43.06,92.551 L43.06,91.231 C43.06,91.03 43.229,90.861 43.429,90.861 L56.629,90.861 C56.831,90.861 57,91.03 57,91.231 L57,92.551 C57,93.076 57.425,93.501 57.95,93.501 C58.474,93.501 58.9,93.076 58.9,92.551 L58.9,91.231 C58.9,89.979 57.881,88.96 56.629,88.96 L50.98,88.96 L50.98,85.581 L61.91,85.581 C62.144,85.581 62.365,85.536 62.578,85.47 L63.121,89.279 C63.462,91.686 65.552,93.501 67.982,93.501 C68.736,93.501 69.452,93.183 69.935,92.64 C70.431,92.101 70.68,91.371 70.618,90.637 L69.602,78.464 C69.496,76.984 68.457,75.71 67.015,75.296 L60.22,73.354 L60.22,64.83 C60.22,64.306 59.794,63.88 59.27,63.88 C58.746,63.88 58.32,64.306 58.32,64.83 L58.32,74.071 C58.32,74.495 58.601,74.868 59.009,74.984 L66.492,77.122 C67.169,77.317 67.658,77.912 67.709,78.612 L68.725,90.796 C68.743,91.004 68.675,91.203 68.526,91.365 C68.394,91.513 68.191,91.601 67.982,91.601 C66.493,91.601 65.211,90.488 65.001,89.011 L64.18,83.246 L64.18,80.671 C64.18,79.419 63.162,78.401 61.91,78.401 L53.501,78.401 L51.128,60.621 C50.968,59.481 50.018,58.654 48.869,58.654 L46.283,58.654 L46.792,57.631 C47.518,56.145 49.001,55.221 50.664,55.221 L57.911,55.221 C59.738,55.221 61.378,56.378 61.993,58.102 L64.975,66.47 C65.11,66.848 65.468,67.101 65.87,67.101 L71.15,67.101 C72.082,67.101 72.839,67.859 72.839,68.79 L72.839,70.481 L64.549,70.481 C64.025,70.481 63.599,70.907 63.599,71.431 C63.599,71.955 64.025,72.381 64.549,72.381 L79.439,72.381 L79.439,74.441 L71.15,74.441 C70.626,74.441 70.2,74.867 70.2,75.391 C70.2,75.915 70.626,76.341 71.15,76.341 L79.439,76.341 L79.439,91.231 C79.439,91.755 79.865,92.181 80.389,92.181 C80.914,92.181 81.339,91.755 81.339,91.231 L81.339,76.341 L90,76.341 L90,91.231 C90,91.755 90.425,92.181 90.95,92.181 C91.474,92.181 91.9,91.755 91.9,91.231 L91.9,71.431 C91.9,70.907 91.474,70.481 90.95,70.481 L86.988,70.481 L93.171,51.932 C93.268,51.642 93.219,51.324 93.041,51.076 L93.041,51.076 Z" id="Fill-24" fill="#343852"></path>
    </g>
</svg>