<?xml version="1.0" encoding="UTF-8"?>
<svg width="120px" height="120px" viewBox="0 0 120 120" version="1.1" xmlns="http://www.w3.org/2000/svg" xmlns:xlink="http://www.w3.org/1999/xlink">
    <title>02.Icons/Illustrative/Autres Interview</title>
    <g id="02.Icons/Illustrative/Autres-Interview" stroke="none" stroke-width="1" fill="none" fill-rule="evenodd">
        <path d="M92.0924,57.5263972 C92.0924,40.0293972 77.9094,25.8463972 60.4124,25.8463972 C42.9154,25.8463972 28.7324,40.0293972 28.7324,57.5263972 C28.7324,75.0233972 42.9154,89.2063972 60.4124,89.2063972 C77.9094,89.2063972 92.0924,75.0233972 92.0924,57.5263972" id="Fill-1" fill="#F2F3F7"></path>
        <polygon id="Fill-3" fill="#1D71B8" points="19.9499 88.7301972 19.9499 59.0581972 30.7399 59.0581972 30.7399 61.7551972 30.7399 86.0331972 30.7399 88.7301972"></polygon>
        <path d="M93.3355,21.9275972 C100.5375,26.0005972 103.0195,35.0355972 98.8515,42.0905972 L97.3545,44.6535972 C94.8855,48.8335972 90.6245,51.3975972 86.0925,51.9225972 L70.4605,43.0755972 C68.6535,38.9605972 68.7875,34.0665972 71.2565,29.8845972 L72.7675,27.3225972 C76.9215,20.2675972 86.1465,17.8535972 93.3355,21.9275972" id="Fill-5" fill="#969CBB"></path>
        <path d="M63.501,59.5977972 L74.979,66.0987972 L70.541,72.8287972 C66.59,70.4957972 60.358,66.5017972 60.615,65.1137972 L60.723,64.8977972 L62.665,61.1887972 L63.501,59.5977972 Z" id="Fill-7" fill="#D20050"></path>
        <path d="M60.7232,64.8978972 C60.6542,64.9648972 60.6282,65.0318972 60.6152,65.1138972 C60.3582,66.5018972 66.5902,70.4958972 70.5412,72.8278972 C73.3742,74.5138972 74.1422,75.8778972 74.1422,75.8778972 C74.8442,76.8468972 74.8162,78.1688972 74.0752,79.1138972 C73.3332,80.0578972 72.0522,80.3948972 70.9322,79.9368972 C71.6472,80.9078972 71.6202,82.2288972 70.8782,83.1728972 C70.1372,84.1178972 68.8552,84.4548972 67.7352,83.9958972 C68.4512,84.9668972 68.4242,86.2878972 67.6682,87.2338972 C66.9272,88.1768972 65.6582,88.5138972 64.5392,88.0558972 C65.2542,89.0278972 65.2132,90.3488972 64.4722,91.2928972 C63.7302,92.2368972 62.5162,92.3848972 61.3432,92.1148972 C60.4532,91.9118972 59.4812,91.5898972 58.4432,91.1848972 C55.4222,90.0248972 51.9692,88.2308972 49.1772,86.9898972 C48.3142,86.6118972 47.5192,86.2748972 46.8172,86.0328972 C41.9752,84.3468972 40.0732,79.5178972 37.4832,79.5178972 L37.4832,62.9958972 C54.8832,62.9958972 54.8012,61.1888972 62.6642,61.1888972 L60.7232,64.8978972 Z" id="Fill-9" fill="#FFFFFF"></path>
        <path d="M58.4432,91.1853972 L52.0502,100.869397 L44.2272,96.4463972 L49.1772,86.9903972 C51.9692,88.2313972 55.4212,90.0253972 58.4432,91.1853972" id="Fill-11" fill="#D20050"></path>
        <polygon id="Fill-13" fill="#FFFFFF" points="37.4836 79.5180972 37.4836 86.0330972 30.7396 86.0330972 30.7396 61.7550972 37.4836 61.7550972 37.4836 62.9960972"></polygon>
        <polygon id="Fill-15" fill="#FFFFFF" points="92.6203 55.6186972 83.5833 70.9676972 74.9783 66.0986972 63.5013 59.5976972 54.8833 54.7286972 63.9183 39.3796972 70.4603 43.0756972 86.0923 51.9226972"></polygon>
        <path d="M98.031,41.6108972 L96.536,44.1708972 C94.367,47.8428972 90.543,50.3438972 86.267,50.9288972 L71.231,42.4238972 C69.613,38.5108972 69.913,34.0288972 72.075,30.3668972 L73.586,27.8048972 C77.474,21.1988972 86.125,18.9318972 92.868,22.7548972 C96.158,24.6148972 98.501,27.6228972 99.463,31.2218972 C100.408,34.7578972 99.9,38.4468972 98.031,41.6108972 L98.031,41.6108972 Z M83.239,69.6808972 L63.962,58.7728972 C63.955,58.7688972 63.951,58.7608972 63.943,58.7568972 C63.938,58.7548972 63.932,58.7548972 63.926,58.7518972 L56.193,54.3768972 L64.264,40.6658972 L91.312,55.9688972 L83.239,69.6808972 Z M70.248,71.5468972 C64.596,68.1548972 62.058,66.0118972 61.612,65.2578972 L63.885,60.9128972 L73.626,66.4248972 L70.248,71.5468972 Z M73.314,76.3428972 C73.332,76.3748972 73.351,76.4058972 73.373,76.4348972 C73.824,77.0578972 73.805,77.9188972 73.328,78.5268972 C72.85,79.1338972 72.015,79.3528972 71.292,79.0578972 C71.258,79.0438972 71.222,79.0478972 71.188,79.0378972 C71.125,79.0198972 71.064,79.0058972 70.999,79.0008972 C70.936,78.9968972 70.878,79.0008972 70.816,79.0088972 C70.757,79.0158972 70.702,79.0258972 70.644,79.0448972 C70.582,79.0648972 70.526,79.0928972 70.469,79.1258972 C70.437,79.1438972 70.4,79.1498972 70.369,79.1728972 C70.349,79.1868972 70.34,79.2088972 70.322,79.2238972 C70.275,79.2638972 70.238,79.3108972 70.199,79.3598972 C70.158,79.4118972 70.119,79.4638972 70.09,79.5228972 C70.08,79.5428972 70.062,79.5558972 70.053,79.5778972 C70.039,79.6118972 70.043,79.6468972 70.033,79.6818972 C70.015,79.7458972 70.001,79.8068972 69.997,79.8738972 C69.992,79.9348972 69.996,79.9928972 70.004,80.0528972 C70.011,80.1118972 70.021,80.1678972 70.04,80.2258972 C70.06,80.2898972 70.089,80.3458972 70.123,80.4038972 C70.141,80.4358972 70.146,80.4708972 70.168,80.5008972 C70.624,81.1208972 70.609,81.9778972 70.132,82.5868972 C69.655,83.1938972 68.82,83.4118972 68.095,83.1178972 C68.062,83.1038972 68.026,83.1078972 67.992,83.0978972 C67.928,83.0798972 67.867,83.0648972 67.802,83.0608972 C67.739,83.0558972 67.68,83.0608972 67.619,83.0688972 C67.561,83.0758972 67.505,83.0858972 67.449,83.1038972 C67.385,83.1238972 67.328,83.1528972 67.27,83.1868972 C67.238,83.2048972 67.203,83.2098972 67.173,83.2318972 C67.154,83.2458972 67.145,83.2668972 67.127,83.2818972 C67.079,83.3228972 67.041,83.3708972 67.001,83.4208972 C66.96,83.4728972 66.923,83.5238972 66.894,83.5818972 C66.884,83.6018972 66.866,83.6158972 66.857,83.6368972 C66.843,83.6708972 66.847,83.7068972 66.837,83.7418972 C66.819,83.8048972 66.805,83.8668972 66.8,83.9328972 C66.796,83.9948972 66.8,84.0528972 66.808,84.1128972 C66.815,84.1718972 66.825,84.2278972 66.844,84.2848972 C66.864,84.3488972 66.893,84.4058972 66.927,84.4638972 C66.945,84.4948972 66.95,84.5298972 66.971,84.5598972 C67.428,85.1798972 67.41,86.0368972 66.922,86.6458972 C66.438,87.2618972 65.624,87.4728972 64.898,87.1768972 C64.865,87.1628972 64.83,87.1668972 64.796,87.1568972 C64.732,87.1388972 64.67,87.1248972 64.604,87.1198972 C64.543,87.1158972 64.485,87.1198972 64.425,87.1268972 C64.365,87.1348972 64.308,87.1448972 64.249,87.1638972 C64.188,87.1838972 64.133,87.2118972 64.076,87.2448972 C64.044,87.2628972 64.007,87.2688972 63.975,87.2918972 C63.956,87.3058972 63.946,87.3278972 63.928,87.3428972 C63.882,87.3828972 63.845,87.4288972 63.806,87.4778972 C63.764,87.5308972 63.725,87.5828972 63.696,87.6428972 C63.686,87.6628972 63.668,87.6758972 63.66,87.6968972 C63.646,87.7298972 63.65,87.7648972 63.64,87.7988972 C63.622,87.8638972 63.607,87.9268972 63.603,87.9938972 C63.599,88.0548972 63.603,88.1108972 63.61,88.1698972 C63.618,88.2308972 63.628,88.2878972 63.647,88.3468972 C63.667,88.4088972 63.696,88.4648972 63.728,88.5208972 C63.747,88.5528972 63.752,88.5888972 63.774,88.6198972 C64.227,89.2348972 64.207,90.0928972 63.724,90.7068972 C63.155,91.4308972 62.123,91.3208972 61.553,91.1878972 C60.772,91.0108972 59.868,90.7198972 58.784,90.2988972 C56.878,89.5658972 54.797,88.5778972 52.785,87.6218972 C51.66,87.0868972 50.569,86.5688972 49.558,86.1198972 C48.614,85.7058972 47.839,85.3808972 47.13,85.1348972 C44.794,84.3218972 43.186,82.6958972 41.768,81.2598972 C40.633,80.1118972 39.619,79.0978972 38.434,78.7268972 L38.434,63.9418972 C48.207,63.9028972 52.263,63.2768972 55.528,62.7688972 C57.37,62.4818972 58.909,62.2478972 61.081,62.1688972 L59.883,64.4548972 C59.787,64.6038972 59.71,64.7638972 59.68,64.9408972 C59.542,65.6958972 59.251,67.2658972 70.055,73.6448972 C72.574,75.1428972 73.314,76.3428972 73.314,76.3428972 L73.314,76.3428972 Z M51.745,99.6048972 L45.496,96.0718972 L49.601,88.2288972 C50.363,88.5788972 51.15,88.9478972 51.969,89.3378972 C53.644,90.1328972 55.361,90.9438972 57.011,91.6288972 L51.745,99.6048972 Z M31.69,85.0828972 L36.534,85.0828972 L36.534,62.7058972 L31.69,62.7058972 L31.69,85.0828972 Z M101.299,30.7318972 C100.203,26.6348972 97.542,23.2148972 93.804,21.1008972 C86.164,16.7728972 76.361,19.3478972 71.949,26.8398972 L70.438,29.4008972 C68.354,32.9308972 67.802,37.1308972 68.79,41.0428972 L64.386,38.5518972 C63.931,38.2978972 63.362,38.4518972 63.1,38.8978972 L54.065,54.2468972 C53.935,54.4648972 53.9,54.7278972 53.966,54.9738972 C54.032,55.2198972 54.194,55.4298972 54.416,55.5548972 L62.23,59.9768972 L62.089,60.2458972 C59.201,60.2798972 57.346,60.5628972 55.236,60.8908972 C52.035,61.3898972 48.059,62.0028972 38.434,62.0418972 L38.434,61.7558972 C38.434,61.2308972 38.009,60.8048972 37.484,60.8048972 L31.69,60.8048972 L31.69,59.0578972 C31.69,58.5338972 31.264,58.1078972 30.74,58.1078972 L19.95,58.1078972 C19.426,58.1078972 19,58.5338972 19,59.0578972 C19,59.5828972 19.426,60.0078972 19.95,60.0078972 L29.79,60.0078972 L29.79,87.7798972 L19.95,87.7798972 C19.426,87.7798972 19,88.2058972 19,88.7298972 C19,89.2548972 19.426,89.6798972 19.95,89.6798972 L30.74,89.6798972 C31.264,89.6798972 31.69,89.2548972 31.69,88.7298972 L31.69,86.9828972 L37.484,86.9828972 C38.009,86.9828972 38.434,86.5568972 38.434,86.0328972 L38.434,80.8138972 C39.034,81.1988972 39.693,81.8628972 40.417,82.5948972 C41.902,84.0988972 43.752,85.9708972 46.508,86.9308972 C46.924,87.0738972 47.387,87.2618972 47.859,87.4598972 L43.385,96.0058972 C43.148,96.4598972 43.313,97.0198972 43.76,97.2728972 L51.582,101.695897 C51.729,101.778897 51.89,101.818897 52.049,101.818897 C52.358,101.818897 52.661,101.667897 52.843,101.391897 L58.819,92.3398972 C59.681,92.6518972 60.445,92.8858972 61.13,93.0408972 C61.55,93.1368972 61.955,93.1848972 62.343,93.1848972 C63.534,93.1848972 64.548,92.7338972 65.218,91.8808972 C65.837,91.0938972 66.085,90.1108972 65.967,89.1678972 C66.906,89.0648972 67.791,88.6148972 68.411,87.8278972 C69.04,87.0398972 69.293,86.0508972 69.168,85.0998972 C70.115,84.9918972 71.013,84.5398972 71.626,83.7598972 C72.243,82.9728972 72.488,81.9878972 72.364,81.0408972 C73.312,80.9328972 74.209,80.4808972 74.822,79.7008972 C75.811,78.4398972 75.857,76.6598972 74.937,75.3568972 C74.763,75.0708972 73.975,73.9428972 71.867,72.5428972 L75.283,67.3628972 L83.116,71.7948972 C83.263,71.8778972 83.425,71.9178972 83.583,71.9178972 C83.909,71.9178972 84.225,71.7498972 84.402,71.4498972 L93.439,56.1008972 C93.569,55.8818972 93.604,55.6188972 93.539,55.3728972 C93.472,55.1268972 93.31,54.9178972 93.089,54.7918972 L88.747,52.3328972 C92.674,51.2138972 96.095,48.6548972 98.175,45.1328972 L99.67,42.5738972 C101.798,38.9698972 102.377,34.7648972 101.299,30.7318972 L101.299,30.7318972 Z" id="Fill-17" fill="#343852"></path>
    </g>
</svg>