<?xml version="1.0" encoding="UTF-8"?>
<svg width="120px" height="120px" viewBox="0 0 120 120" version="1.1" xmlns="http://www.w3.org/2000/svg" xmlns:xlink="http://www.w3.org/1999/xlink">
    <title>02.Icons/Illustrative/Certificats logiciels</title>
    <g id="02.Icons/Illustrative/Certificats-logiciels" stroke="none" stroke-width="1" fill="none" fill-rule="evenodd">
        <path d="M80.6253148,68.3724781 C80.6253148,49.4218119 65.2633236,34.0598207 46.3126574,34.0598207 C27.3619912,34.0598207 12,49.4218119 12,68.3724781 C12,87.3231443 27.3619912,102.685136 46.3126574,102.685136 C65.2633236,102.685136 80.6253148,87.3231443 80.6253148,68.3724781" id="Fill-1" fill="#F2F3F7"></path>
        <path d="M62.1478763,83.8253067 L59.4191757,88.5520897 L51.6428552,102.019821 L43.1242689,85.6730299 L24.7084512,86.4682391 L32.4837128,73.0005077 L35.2124135,68.2747835 L35.2198255,68.2620771 C37.0029578,69.7826104 40.0376711,70.407342 41.7170344,72.0782344 C43.6706443,74.0403152 44.1365459,78.0947176 46.6587675,79.5506599 C49.1809891,81.0066023 52.9262022,79.3833589 55.6009007,80.0949177 C57.8753473,80.705884 59.934844,83.0226854 62.1552884,83.8136591 L62.1478763,83.8253067 Z" id="Fill-1" fill="#1D71B8"></path>
        <path d="M63.4367294,83.8253067 L66.1654301,88.5510308 L73.9417506,102.019821 L82.4603369,85.6730299 L100.876155,86.4682391 L93.100893,73.0005077 L90.3721923,68.2737247 L90.3647802,68.2620771 C88.5816479,69.7826104 85.5469347,70.407342 83.8675713,72.0782344 C81.9139614,74.0403152 81.4480599,78.0947176 78.9258383,79.5506599 C76.4036167,81.0066023 72.6584036,79.3833589 69.9837051,80.0949177 C67.7092584,80.705884 65.6497618,83.0226854 63.4293174,83.8136591 L63.4367294,83.8253067 Z" id="Fill-3" fill="#1D71B8"></path>
        <path d="M62.263187,76.8509722 C49.7516126,76.8509722 39.233885,68.283678 36.2499974,56.7060245 L36.2499974,56.7060245 C35.6993865,54.5565241 35.4018448,52.3085491 35.4018448,49.9906889 C35.4018448,35.1601955 47.4326935,23.1293468 62.263187,23.1293468 C77.0936804,23.1293468 89.1245291,35.1601955 89.1245291,49.9906889 C89.1245291,52.3074903 88.8269875,54.5554653 88.2763765,56.7049656 L88.2763765,56.7049656 C85.2935477,68.283678 74.7747614,76.8509722 62.263187,76.8509722 M92.1920673,58.0063133 C92.9131558,55.3347915 96.1924674,52.8877495 96.1924674,49.9906889 C96.1924674,47.0925695 92.9131558,44.6465864 92.1920673,41.9740056 C91.4572135,39.2029503 93.055044,35.4418541 91.6552217,33.0255193 C90.2268099,30.5636531 86.1692309,30.0839863 84.1764429,28.0911983 C82.1688307,26.0835861 81.6881051,22.0260072 79.2283566,20.5986542 C76.8109629,19.197773 73.0646909,20.7966624 70.2788114,20.0607497 C67.6072895,19.34072 65.1750717,16.0603496 62.263187,16.0603496 C59.3502434,16.0603496 56.9190844,19.34072 54.2475625,20.0607497 C51.4754483,20.7966624 47.715411,19.197773 45.2980173,20.5986542 C42.8382689,22.0260072 42.3575432,26.0835861 40.3636963,28.0763741 C38.3560842,30.0839863 34.2995641,30.5520056 32.8711523,33.0255193 C31.4713299,35.4418541 33.0691604,39.189185 32.3343066,41.9740056 C31.6132181,44.6465864 28.3328476,47.0925695 28.3328476,49.9906889 C28.3328476,52.7035066 31.2172018,55.0224257 32.1786531,57.5107635 L32.1786531,57.5107635 C32.2347731,57.6674759 32.2919519,57.8368946 32.3343066,58.0063133 C33.0691604,60.7763098 31.4723887,64.537406 32.8711523,66.9547997 C34.2995641,69.4145482 38.357143,69.8952738 40.349931,71.8891207 C42.3575432,73.8967328 42.8382689,77.9543118 45.2980173,79.3816647 C45.7363883,79.6368517 46.2033487,79.7914463 46.7126638,79.8623904 C49.0167588,80.2869962 51.9572329,79.3107206 54.2475625,79.9185104 C56.9190844,80.6406578 59.3513023,83.9189105 62.263187,83.9189105 C65.1761305,83.9189105 67.6072895,80.6406578 70.2798702,79.9185104 C72.5553758,79.3107206 75.4958499,80.2869962 77.814769,79.8623904 C78.3240841,79.7914463 78.7899856,79.6368517 79.2283566,79.3816647 C81.6881051,77.9543118 82.1688307,73.8967328 84.1626776,71.902886 C86.1692309,69.8952738 90.2268099,69.4293723 91.6552217,66.9547997 C93.055044,64.537406 91.4572135,60.791134 92.1920673,58.0063133" id="Fill-5" fill="#DEE0EA"></path>
        <path d="M62.2633987,76.8507605 C49.7518243,76.8507605 39.233038,68.2834662 36.2502092,56.7058127 C35.6995982,54.5563124 35.4020566,52.3083374 35.4020566,49.9904772 C35.4020566,35.1599837 47.4329053,23.129135 62.2633987,23.129135 C77.0938922,23.129135 89.1247409,35.1599837 89.1247409,49.9904772 C89.1247409,52.3083374 88.8271992,54.5563124 88.2765883,56.7058127 C85.2937595,68.2834662 74.7749731,76.8507605 62.2633987,76.8507605" id="Fill-7" fill="#FFFFFF"></path>
        <path d="M62.2633987,73.6700294 C55.0334538,73.6700294 48.295882,70.4330725 43.7776958,64.7903694 C43.4123866,64.3329388 43.4865073,63.6658524 43.9428791,63.2994844 C44.4003097,62.9331164 45.067396,63.0082959 45.4327052,63.4646677 C49.5464041,68.60335 55.6814805,71.5491185 62.2633987,71.5491185 C68.845317,71.5491185 74.9803934,68.60335 79.0940923,63.4646677 C79.4594015,63.0082959 80.1264878,62.9331164 80.5839184,63.2994844 C81.041349,63.6658524 81.1144108,64.3329388 80.7491017,64.7903694 C76.2309155,70.4330725 69.4933437,73.6700294 62.2633987,73.6700294 M44.6046711,36.9125147 C44.3717203,36.9125147 44.1387695,36.8373351 43.9428791,36.6795639 C43.4854485,36.3142548 43.4123866,35.6471685 43.7776958,35.1897378 C48.295882,29.5459759 55.0334538,26.309019 62.2633987,26.309019 C69.4922849,26.309019 76.2309155,29.5459759 80.7480428,35.1897378 C81.1144108,35.6471685 81.041349,36.3142548 80.5839184,36.6795639 C80.1264878,37.045932 79.4594015,36.9718113 79.0930334,36.5154395 C74.9803934,31.3767572 68.845317,28.4299299 62.2633987,28.4299299 C55.6804216,28.4299299 49.5464041,31.3767572 45.4327052,36.5143807 C45.2230495,36.7759209 44.9149191,36.9125147 44.6046711,36.9125147" id="Fill-9" fill="#C5C8DA"></path>
        <path d="M82.5061858,84.6141627 C82.0942865,84.596162 81.7109766,84.8185241 81.5203805,85.1827744 L73.8933603,99.8173774 L64.9660513,84.3536814 C64.9544037,84.3335629 64.9353441,84.3229742 64.9226377,84.3049735 C65.8311458,83.862367 66.6856516,83.2619894 67.5232155,82.6679649 C68.5852592,81.9140515 69.5890653,81.2024927 70.5526344,80.9430703 C71.5818533,80.6677648 72.8450818,80.7810636 74.1834899,80.8996567 C75.4509539,81.0118966 76.7607726,81.128372 77.9827053,80.9091865 C78.630732,80.8160062 79.2131089,80.6158803 79.7605433,80.299279 C81.4388477,79.3240624 82.2795883,77.501752 83.0917394,75.739797 C83.6497624,74.5295119 84.1770782,73.3869942 84.911932,72.6521404 C85.6520802,71.9119922 86.7977744,71.3846764 88.0101773,70.8255945 C88.6994999,70.5089932 89.3951756,70.1860388 90.0474378,69.8111998 C90.0559087,69.8281417 90.0559087,69.8461424 90.0643796,69.8620254 L98.9927475,85.3257215 L82.5061858,84.6141627 Z M51.6910337,99.8173774 L44.0640135,85.1827744 C43.8744763,84.8185241 43.4901075,84.596162 43.0782082,84.6141627 L26.5916465,85.3257215 L35.29977,70.2432176 C35.7000218,70.4433435 36.1076856,70.6328807 36.5121729,70.8192413 C37.7224581,71.3762055 38.8660346,71.9035213 39.5998295,72.6383751 C40.3431543,73.380641 40.8736467,74.528453 41.4348463,75.7450914 C42.2480563,77.5049286 43.0898557,79.3261801 44.7649836,80.2982202 C45.3134767,80.6158803 45.8947948,80.8160062 46.5428215,80.9091865 C47.7573422,81.128372 49.0639842,81.0129555 50.3282716,80.8996567 C51.6698563,80.7810636 52.9373203,80.6677648 53.9707747,80.9420114 C54.9364615,81.2024927 55.9402676,81.9140515 57.0033702,82.6679649 C58.0950623,83.4419968 59.2142849,84.2244996 60.4468062,84.6512231 L51.6910337,99.8173774 Z M33.3620431,57.7485851 C33.3175707,57.5675188 33.2561564,57.3705695 33.1746236,57.1471485 C33.1725059,57.1418542 33.1703881,57.135501 33.1672115,57.1291478 C32.7426058,56.0300437 32.0162229,55.0050603 31.314194,54.0129017 C30.3262709,52.6183737 29.393409,51.3011429 29.393409,49.9902654 C29.393409,48.6751524 30.3252121,47.3579216 31.3120763,45.9633936 C32.1411692,44.7922865 32.9988517,43.5820013 33.3588665,42.2435932 C33.72947,40.8437708 33.5928761,39.3232376 33.4615766,37.8545888 C33.3122763,36.1921674 33.171447,34.6229263 33.7898254,33.5545293 C34.4262046,32.4501308 35.8726171,31.7841034 37.4026802,31.0788979 C38.7315585,30.4668726 40.1049092,29.8347289 41.1140096,28.8256285 C42.1156979,27.8239402 42.7489005,26.4527072 43.3598668,25.1270055 C44.0650724,23.5980014 44.7321587,22.1526477 45.8291451,21.5152096 C46.8964832,20.8978901 48.4699598,21.0387194 50.1355578,21.1869608 C51.6042066,21.3193192 53.1236809,21.4548542 54.5235033,21.0842507 C55.8544993,20.7252947 57.0616079,19.8686712 58.2295384,19.0406371 C59.6240664,18.0537729 60.9402383,17.1198521 62.2627634,17.1198521 C63.5863474,17.1198521 64.9025193,18.0537729 66.2959884,19.0406371 C67.4639189,19.8686712 68.6720863,20.7252947 70.0083767,21.0863684 C71.409258,21.4548542 72.9287323,21.3193192 74.3973811,21.1869608 C76.0598025,21.0387194 77.6301025,20.8978901 78.6953229,21.5152096 C79.7923093,22.1515888 80.4593956,23.5958836 81.16566,25.1238289 C81.7808618,26.454825 82.417241,27.8302934 83.4263414,28.8404527 C84.4290886,29.842141 85.7992627,30.4753436 87.1249644,31.0863099 C88.6550274,31.7915155 90.1003811,32.4586018 90.7367603,33.5555882 C91.3551387,34.6229263 91.2143094,36.1964029 91.0650091,37.8630598 C90.9326507,39.3317085 90.7971157,40.8511829 91.1687781,42.2499464 C91.527734,43.5820013 92.3843576,44.7922865 93.2134506,45.9633936 C94.2003148,47.3579216 95.1321179,48.6751524 95.1321179,49.9902654 C95.1321179,51.3032607 94.2003148,52.6204914 93.2134506,54.0150195 C92.3843576,55.1861265 91.527734,56.3964117 91.1666603,57.7348198 C90.7971157,59.1357011 90.9326507,60.6551754 91.0650091,62.1248831 C91.2143094,63.7862456 91.3540798,65.3565456 90.7367603,66.4249426 C90.0993222,67.5282822 88.6539686,68.1943096 87.1228467,68.8995152 C85.7939684,69.5115404 84.4206177,70.1447429 83.4125761,71.1527845 C82.4098289,72.1544728 81.7776852,73.5257058 81.1667189,74.8514075 C80.4604545,76.3814705 79.7933682,77.8268242 78.6953229,78.4642622 C78.384016,78.6453285 78.0483551,78.7596862 77.6682218,78.8115707 C77.6533976,78.8136884 77.6385735,78.8158061 77.6237493,78.8189827 C76.678181,78.9915781 75.5578995,78.8931034 74.3709094,78.7872167 C72.9086139,78.6569761 71.3954927,78.5235588 70.0020235,78.8952212 C68.6720863,79.2541771 67.4639189,80.1097418 66.2959884,80.9377759 C64.9025193,81.9267579 63.5863474,82.8596198 62.2627634,82.8596198 C60.9402383,82.8596198 59.6240664,81.9267579 58.2295384,80.9377759 C57.0616079,80.1097418 55.8544993,79.2541771 54.5192679,78.8941623 C53.8394751,78.7141549 53.1321519,78.6527406 52.4163577,78.6527406 C51.6603265,78.6527406 50.8937067,78.7205081 50.1408521,78.7872167 C48.9580975,78.8931034 47.8409927,78.9915781 46.9038952,78.8189827 C46.8880122,78.8158061 46.8731881,78.8136884 46.8573051,78.8115707 C46.4782306,78.7596862 46.1425697,78.6453285 45.8302039,78.4642622 C44.7342764,77.8278831 44.0661312,76.3835883 43.3598668,74.8545841 C42.7457239,73.5246469 42.1093447,72.1481196 41.0991854,71.1390192 C40.0974971,70.136272 38.7262641,69.5041283 37.4005624,68.8921031 C35.8715583,68.1868976 34.4251457,67.5198113 33.7887666,66.4228249 C33.171447,65.3554868 33.3122763,63.783069 33.4615766,62.117471 C33.5928761,60.6477634 33.72947,59.1293479 33.3620431,57.7485851 L33.3620431,57.7485851 Z M101.795569,85.9377467 L91.9015142,68.8020994 C91.8517474,68.7163311 91.7808033,68.653858 91.7130358,68.5882082 C92.0412846,68.263136 92.333532,67.9010034 92.5728359,67.4859275 C93.5268752,65.8362125 93.3489856,63.8529543 93.1774491,61.9353458 C93.0567382,60.5884668 92.9423806,59.3167673 93.2155683,58.2822541 C93.4771085,57.3144495 94.1897261,56.306408 94.9446984,55.2411876 C96.079804,53.6370039 97.2530288,51.9788179 97.2530288,49.9902654 C97.2530288,48.0017128 96.079804,46.342468 94.9446984,44.7393431 C94.1897261,43.672005 93.4771085,42.6650223 93.2166272,41.7025121 C92.9423806,40.6679989 93.0567382,39.3973583 93.1774491,38.0515381 C93.3489856,36.1296942 93.5268752,34.1422006 92.5717771,32.4914267 C91.5976193,30.8141811 89.7753089,29.9734405 88.0133539,29.1612894 C86.8030688,28.6022076 85.6605511,28.0748917 84.9256973,27.3410968 C84.1834314,26.5988309 83.652939,25.44996 83.0917394,24.2343805 C82.2774705,22.4734844 81.43673,20.6543506 79.7594844,19.6801929 C78.1108282,18.7250947 76.12757,18.9029844 74.2089027,19.0745208 C72.8620237,19.1962906 71.5903242,19.3106482 70.5547522,19.0364016 C69.5890653,18.7759203 68.5852592,18.0643616 67.5232155,17.3104481 C65.9190317,16.1742837 64.2619046,15 62.2627634,15 C60.2646811,15 58.6064951,16.1742837 57.0033702,17.3104481 C55.9402676,18.0643616 54.9364615,18.7759203 53.9750101,19.0353428 C52.9415558,19.3095894 51.6698563,19.1962906 50.325095,19.0755797 C48.4032511,18.9029844 46.4157575,18.7250947 44.7660424,19.6812517 C43.087738,20.6554095 42.2469974,22.476661 41.4337875,24.238616 C40.8757645,25.4489012 40.3495075,26.5924777 39.6146537,27.3262726 C38.8734467,28.0674797 37.7288113,28.5947955 36.5153495,29.1538774 C34.7512768,29.9660285 32.9268487,30.8057101 31.9537498,32.4924855 C30.9986516,34.1422006 31.1765413,36.1254588 31.3491366,38.0441261 C31.4698475,39.3910051 31.5831463,40.6616457 31.3099585,41.6982766 C31.0494772,42.6650223 30.3358007,43.672005 29.5818873,44.7393431 C28.4467817,46.342468 27.272498,48.0017128 27.272498,49.9902654 C27.272498,51.9767002 28.4478406,53.6348862 29.5850639,55.2401288 C30.2373261,56.1624021 30.8557045,57.0338497 31.1860711,57.8841201 C31.2390144,58.0313026 31.2792514,58.1573078 31.3088997,58.2769598 C31.5831463,59.3104141 31.4698475,60.5821136 31.3491366,61.9268749 C31.1765413,63.8497777 30.9986516,65.8362125 31.9537498,67.4869864 C32.3444717,68.1604259 32.8760231,68.6951538 33.4806362,69.1515255 L23.7898839,85.9377467 C23.5961112,86.2723487 23.6003467,86.6874246 23.8015315,87.01885 C24.0016574,87.3492166 24.3669665,87.5440482 24.7545119,87.5281651 L42.4947724,86.7615453 L50.7031106,102.509018 C50.7984086,102.692202 50.9424146,102.838325 51.1139511,102.937859 C51.2653691,103.025745 51.4400821,103.075512 51.6200896,103.080001 C52.0076349,103.088218 52.3676498,102.883857 52.5614225,102.549255 L62.4544184,85.4136074 C62.5380689,85.2685426 62.5740704,85.113948 62.584659,84.9582945 C62.7244295,84.9487647 62.8652588,84.946647 63.0018527,84.9275874 C63.0082059,85.0938295 63.0410308,85.2590128 63.1299756,85.4136074 L73.0229715,102.549255 C73.2167442,102.883857 73.5778179,103.088218 73.9643044,103.080001 C74.1453707,103.075512 74.3190249,103.025745 74.4715018,102.937859 C74.6430383,102.838325 74.7859853,102.692202 74.8812834,102.509018 L83.0896216,86.7615453 L100.829882,87.5281651 C101.217427,87.5440482 101.582737,87.3492166 101.782863,87.01885 C101.984047,86.6874246 101.988283,86.2723487 101.795569,85.9377467 L101.795569,85.9377467 Z" id="Fill-11" fill="#343852"></path>
        <polygon id="Fill-14" fill="#D20050" points="75.5483697 44.3951054 59.8834889 60.0610451 49.9142546 50.0918107 54.1867836 45.8192817 59.8834889 51.5159871 71.2758407 40.1225764"></polygon>
        <path d="M59.8827477,61.1292303 C59.60956,61.1292303 59.3363722,61.0244024 59.1277754,60.8158056 L49.1585411,50.8465713 C48.7413474,50.4293776 48.7413474,49.7538203 49.1585411,49.3366267 L53.4321289,45.0640977 C53.8482637,44.646904 54.5248799,44.646904 54.9420735,45.0640977 L59.8827477,50.0047719 L70.5211861,39.3673923 C70.9373209,38.9512576 71.613937,38.9512576 72.0311306,39.3673923 L76.3036596,43.6399213 C76.7208533,44.057115 76.7208533,44.7326723 76.3036596,45.1498659 L60.6387788,60.8158056 C60.430182,61.0244024 60.1569943,61.1292303 59.8827477,61.1292303 L59.8827477,61.1292303 Z M51.4245168,50.091599 L59.8827477,58.5498299 L74.0376839,44.3948936 L71.2761584,41.6333681 L60.6387788,52.2718065 C60.2215852,52.6879412 59.5449691,52.6879412 59.1277754,52.2718065 L54.1860424,47.3300734 L51.4245168,50.091599 Z" id="Fill-16" fill="#343852"></path>
    </g>
</svg>