<?xml version="1.0" encoding="UTF-8"?>
<svg width="120px" height="120px" viewBox="0 0 120 120" version="1.1" xmlns="http://www.w3.org/2000/svg" xmlns:xlink="http://www.w3.org/1999/xlink">
    <title>02.Icons/Illustrative/Changement d'activité</title>
    <g id="02.Icons/Illustrative/Changement-d'activité" stroke="none" stroke-width="1" fill="none" fill-rule="evenodd">
        <path d="M44.3198,94.269 L44.3178,94.269 C24.8118,94.269 8.9998,78.713 8.9998,59.522 L8.9998,20.308 L8.9998,19 C11.7618,22.025 17.3058,24.6 28.5608,24.774 L44.3198,24.774 C63.8258,24.774 79.6378,40.331 79.6378,59.522 C79.6378,78.713 63.8258,94.269 44.3198,94.269" id="Fill-1" fill="#F2F3F7"></path>
        <path d="M89.983,85.2318 L30.345,85.2318 C27.579,85.2318 25.316,82.9688 25.316,80.2028 L25.316,56.8838 C25.316,54.1178 27.579,51.8548 30.345,51.8548 L89.983,51.8548 C92.749,51.8548 95.012,54.1178 95.012,56.8838 L95.012,80.2028 C95.012,82.9688 92.749,85.2318 89.983,85.2318" id="Fill-4" fill="#DEE0EA"></path>
        <path d="M90.6713,51.8547 L29.6563,51.8547 C27.2693,51.8547 25.3163,53.8077 25.3163,56.1947 L25.3163,61.1037 C31.0643,66.2167 44.5003,69.8047 60.1693,69.8047 C75.8283,69.8047 89.2573,66.2207 95.0113,61.1117 L95.0113,56.1947 C95.0113,53.8077 93.0583,51.8547 90.6713,51.8547" id="Fill-6" fill="#C5C8DA"></path>
        <path d="M92.0752,31.3885 L28.2622,31.3885 C24.9972,31.3885 22.3252,34.0605 22.3252,37.3255 L22.3252,52.3055 C22.3252,54.1775 23.2052,55.8515 24.5712,56.9415 C29.8352,62.4295 43.7842,66.3525 60.1692,66.3525 C76.5532,66.3525 90.5022,62.4295 95.7672,56.9415 C97.1312,55.8515 98.0122,54.1775 98.0122,52.3055 L98.0122,37.3255 C98.0122,34.0605 95.3402,31.3885 92.0752,31.3885" id="Fill-8" fill="#DEE0EA"></path>
        <path d="M63.0951,59.0578 L57.0181,59.0578 C55.7041,59.0578 54.6291,60.0528 54.6291,61.2698 L54.6291,64.0098 C54.6291,64.0178 54.6321,64.0248 54.6321,64.0328 C54.6321,64.0498 54.6291,64.0658 54.6291,64.0828 L54.6291,67.3488 C54.6291,70.1128 57.0711,72.3738 60.0571,72.3738 C63.0421,72.3738 65.4851,70.1128 65.4851,67.3488 L65.4851,64.0828 C65.4851,64.0668 65.4821,64.0518 65.4821,64.0358 C65.4821,64.0268 65.4851,64.0188 65.4851,64.0098 L65.4851,61.2698 C65.4851,60.0528 64.4101,59.0578 63.0951,59.0578" id="Fill-10" fill="#1D71B8"></path>
        <path d="M92.9697,46.9028 L92.9697,41.1598 C92.9697,38.7298 90.9927,36.7538 88.5637,36.7538 L74.2247,36.7538 C73.6997,36.7538 73.2747,37.1788 73.2747,37.7038 C73.2747,38.2288 73.6997,38.6538 74.2247,38.6538 L88.5637,38.6538 C89.9457,38.6538 91.0697,39.7778 91.0697,41.1598 L91.0697,46.9028 C91.0697,47.4278 91.4947,47.8528 92.0197,47.8528 C92.5437,47.8528 92.9697,47.4278 92.9697,46.9028 M69.6237,38.6538 L65.4377,38.6538 C64.9127,38.6538 64.4877,38.2288 64.4877,37.7038 C64.4877,37.1788 64.9127,36.7538 65.4377,36.7538 L69.6237,36.7538 C70.1487,36.7538 70.5737,37.1788 70.5737,37.7038 C70.5737,38.2288 70.1487,38.6538 69.6237,38.6538" id="Fill-12" fill="#969CBB"></path>
        <path d="M68.2785,22.519 L51.5095,22.519 C49.3265,22.519 47.5405,24.305 47.5405,26.488 L47.5405,27.155 L72.2485,27.155 L72.2485,26.488 C72.2485,24.305 70.4615,22.519 68.2785,22.519" id="Fill-14" fill="#697097"></path>
        <polygon id="Fill-16" fill="#D20050" points="79.6374 69.9251 100.2424 69.9251 100.2424 63.0721 113.8884 75.0471 100.3204 87.2461 100.2444 80.3641 79.6374 80.3641"></polygon>
        <polygon id="Fill-18" fill="#FFFFFF" points="96.7627 80.598 76.1577 80.598 76.1577 73.745 62.5117 85.72 76.0797 97.919 76.1557 91.037 96.7627 91.037"></polygon>
        <path d="M101.1943,85.2701 L101.1943,80.3921 C101.1943,79.8681 100.7683,79.4421 100.2443,79.4421 L80.3743,79.4421 L80.3743,70.8611 L100.2443,70.8611 C100.7683,70.8611 101.1943,70.4351 101.1943,69.9111 L101.1943,65.1561 L112.7073,75.1551 L101.1943,85.2701 Z M78.4733,69.9111 L78.4733,79.4421 L76.9283,79.4421 L76.9283,73.4441 C76.9283,73.3961 76.9083,73.3541 76.9013,73.3081 C76.8913,73.2421 76.8853,73.1781 76.8623,73.1151 C76.8383,73.0491 76.7993,72.9951 76.7613,72.9371 C76.7373,72.8991 76.7263,72.8561 76.6963,72.8221 C76.6883,72.8131 76.6783,72.8101 76.6703,72.8011 C76.6233,72.7511 76.5663,72.7161 76.5093,72.6771 C76.4633,72.6451 76.4213,72.6061 76.3703,72.5831 C76.3223,72.5611 76.2673,72.5551 76.2153,72.5411 C76.1473,72.5241 76.0813,72.5031 76.0113,72.5001 C75.9993,72.5001 75.9903,72.4941 75.9783,72.4941 C75.9313,72.4941 75.8913,72.5141 75.8463,72.5201 C75.7793,72.5301 75.7133,72.5361 75.6493,72.5601 C75.5843,72.5841 75.5293,72.6231 75.4723,72.6611 C75.4343,72.6851 75.3913,72.6961 75.3563,72.7261 L62.0153,84.2821 L30.0703,84.2821 C27.9723,84.2821 26.2663,82.5761 26.2663,80.4781 L26.2663,58.4121 C31.6673,62.5181 42.1533,65.5021 54.6293,66.1941 L54.6293,67.3491 C54.6293,70.1131 57.0713,72.3741 60.0563,72.3741 C63.0423,72.3741 65.4843,70.1131 65.4843,67.3491 L65.4843,66.2061 C78.0513,65.5381 88.6253,62.5461 94.0613,58.4191 L94.0613,68.9601 L79.4233,68.9601 C78.8993,68.9601 78.4733,69.3861 78.4733,69.9111 L78.4733,69.9111 Z M63.5843,64.1411 L63.5843,67.3491 C63.5843,69.0721 62.0023,70.4741 60.0563,70.4741 C58.1113,70.4741 56.5293,69.0721 56.5293,67.3491 L56.5293,64.1461 L56.5313,64.1101 L56.5313,64.0331 L56.5303,63.8771 L56.5293,63.8691 L56.5293,61.2701 C56.5293,61.1461 56.7243,60.9581 57.0183,60.9581 L63.0953,60.9581 C63.3893,60.9581 63.5843,61.1461 63.5843,61.2701 L63.5843,63.9511 C63.5833,63.9901 63.5823,64.0321 63.5823,64.0791 L63.5843,64.1411 Z M25.9423,55.6261 L25.8553,55.5351 L25.7563,55.4571 C24.7833,54.6801 24.2253,53.5311 24.2253,52.3051 L24.2253,37.3251 C24.2253,35.0991 26.0363,33.2881 28.2623,33.2881 L92.0753,33.2881 C94.3013,33.2881 96.1123,35.0991 96.1123,37.3251 L96.1123,52.3051 C96.1123,53.5311 95.5543,54.6801 94.5813,55.4571 L94.4823,55.5351 L94.3953,55.6261 C89.9233,60.2891 78.6663,63.5921 65.4843,64.3031 L65.4843,64.0831 C65.4843,64.0671 65.4823,64.0511 65.4823,64.0351 C65.4823,64.0271 65.4843,64.0191 65.4843,64.0101 L65.4843,61.2701 C65.4843,60.0531 64.4093,59.0581 63.0953,59.0581 L57.0183,59.0581 C55.7043,59.0581 54.6293,60.0531 54.6293,61.2701 L54.6293,64.0101 C54.6293,64.0181 54.6313,64.0251 54.6313,64.0331 C54.6313,64.0501 54.6293,64.0661 54.6293,64.0831 L54.6293,64.2901 C41.5433,63.5541 30.3893,60.2621 25.9423,55.6261 L25.9423,55.6261 Z M48.4903,31.3891 L71.6233,31.3891 L71.6233,28.1051 L48.4903,28.1051 L48.4903,31.3891 Z M52.4053,23.0971 L67.7093,23.0971 C69.5903,23.0971 71.1643,24.4321 71.5373,26.2051 L48.5763,26.2051 C48.9493,24.4321 50.5233,23.0971 52.4053,23.0971 L52.4053,23.0971 Z M115.0683,74.9681 C115.0563,74.9091 115.0453,74.8531 115.0223,74.7981 C114.9983,74.7381 114.9633,74.6871 114.9273,74.6321 C114.9043,74.5971 114.8943,74.5571 114.8653,74.5241 C114.8503,74.5071 114.8293,74.5001 114.8133,74.4841 C114.7983,74.4691 114.7913,74.4481 114.7743,74.4341 L100.8673,62.3561 C100.8323,62.3261 100.7903,62.3151 100.7523,62.2911 C100.6943,62.2531 100.6393,62.2141 100.5733,62.1891 C100.5113,62.1661 100.4483,62.1611 100.3843,62.1511 C100.3373,62.1431 100.2943,62.1221 100.2443,62.1221 C100.2323,62.1221 100.2223,62.1291 100.2103,62.1291 C100.1453,62.1321 100.0853,62.1521 100.0213,62.1671 C99.9633,62.1821 99.9043,62.1891 99.8503,62.2131 C99.8033,62.2351 99.7653,62.2711 99.7213,62.3011 C99.6613,62.3411 99.6013,62.3781 99.5523,62.4301 C99.5453,62.4381 99.5343,62.4411 99.5273,62.4501 C99.4973,62.4841 99.4863,62.5271 99.4623,62.5641 C99.4243,62.6221 99.3853,62.6771 99.3603,62.7431 C99.3363,62.8071 99.3303,62.8721 99.3213,62.9391 C99.3143,62.9851 99.2943,63.0251 99.2943,63.0731 L99.2943,68.9601 L95.9623,68.9601 L95.9623,57.0271 C95.9623,56.9491 95.9353,56.8801 95.9173,56.8071 C97.1933,55.7161 98.0123,54.1051 98.0123,52.3051 L98.0123,37.3251 C98.0123,34.0601 95.3403,31.3881 92.0753,31.3881 L73.5233,31.3881 L73.5233,27.0121 C73.5233,23.8061 70.9153,21.1971 67.7093,21.1971 L52.4053,21.1971 C49.1993,21.1971 46.5903,23.8061 46.5903,27.0121 L46.5903,31.3881 L28.2623,31.3881 C24.9973,31.3881 22.3253,34.0601 22.3253,37.3251 L22.3253,52.3051 C22.3253,54.0851 23.1273,55.6801 24.3793,56.7701 C24.3773,56.7931 24.3663,56.8111 24.3663,56.8341 L24.3663,80.4781 C24.3663,83.6231 26.9243,86.1821 30.0703,86.1821 L61.4653,86.1821 C61.4673,86.1841 61.4683,86.1871 61.4703,86.1891 L75.3563,98.2171 C75.4023,98.2571 75.4563,98.2771 75.5073,98.3061 C75.5483,98.3311 75.5853,98.3611 75.6303,98.3791 C75.7433,98.4241 75.8603,98.4501 75.9783,98.4501 C76.1133,98.4501 76.2403,98.4201 76.3573,98.3691 C76.3833,98.3571 76.4043,98.3341 76.4293,98.3201 C76.5193,98.2701 76.6023,98.2151 76.6713,98.1401 C76.6783,98.1321 76.6893,98.1301 76.6963,98.1221 C76.7263,98.0871 76.7373,98.0441 76.7613,98.0061 C76.7993,97.9481 76.8383,97.8941 76.8623,97.8281 C76.8853,97.7651 76.8913,97.7011 76.9013,97.6351 C76.9083,97.5891 76.9283,97.5471 76.9283,97.4991 L76.9283,91.6841 L96.9383,91.6841 C97.4633,91.6841 97.8883,91.2581 97.8883,90.7341 C97.8883,90.2091 97.4633,89.7841 96.9383,89.7841 L75.9783,89.7841 C75.4543,89.7841 75.0283,90.2091 75.0283,90.7341 L75.0283,95.4201 L63.5433,85.4711 L75.0283,75.5231 L75.0283,80.3921 C75.0283,80.9161 75.4543,81.3421 75.9783,81.3421 L99.2943,81.3421 L99.2943,87.3701 C99.2943,87.4181 99.3143,87.4601 99.3213,87.5071 C99.3313,87.5731 99.3373,87.6381 99.3613,87.7021 C99.3853,87.7671 99.4243,87.8211 99.4623,87.8781 C99.4873,87.9171 99.4993,87.9611 99.5303,87.9971 C99.5373,88.0041 99.5473,88.0071 99.5543,88.0141 C99.6233,88.0881 99.7083,88.1451 99.7983,88.1941 C99.8223,88.2071 99.8413,88.2291 99.8673,88.2401 C99.9833,88.2901 100.1103,88.3201 100.2443,88.3201 C100.3623,88.3201 100.4803,88.2941 100.5923,88.2491 C100.6393,88.2311 100.6763,88.1991 100.7193,88.1741 C100.7703,88.1441 100.8253,88.1241 100.8713,88.0831 L114.7783,75.8651 C114.7963,75.8491 114.8033,75.8261 114.8203,75.8091 C114.8353,75.7951 114.8543,75.7891 114.8683,75.7741 C114.8963,75.7411 114.9063,75.7021 114.9293,75.6671 C114.9653,75.6121 115.0003,75.5591 115.0243,75.5001 C115.0463,75.4431 115.0583,75.3861 115.0693,75.3271 C115.0803,75.2671 115.0913,75.2101 115.0913,75.1491 C115.0913,75.0871 115.0803,75.0291 115.0683,74.9681 L115.0683,74.9681 Z" id="Fill-20" fill="#343852"></path>
    </g>
</svg>