<?xml version="1.0" encoding="UTF-8"?>
<svg width="120px" height="120px" viewBox="0 0 120 120" version="1.1" xmlns="http://www.w3.org/2000/svg" xmlns:xlink="http://www.w3.org/1999/xlink">
    <title>02.Icons/Illustrative/Charts - Semantique</title>
    <g id="02.Icons/Illustrative/Charts---Semantique" stroke="none" stroke-width="1" fill="none" fill-rule="evenodd">
        <g id="Charts---Semantique" transform="translate(7.029100, 19.225500)">
            <path d="M67.6535,81.549 L67.6555,81.549 C88.7885,81.549 105.9205,64.695 105.9205,43.903 L105.9205,1.417 L105.9205,0 C102.9275,3.276 96.9215,6.067 84.7275,6.256 L67.6535,6.256 C46.5205,6.256 29.3885,23.11 29.3885,43.903 C29.3885,64.695 46.5205,81.549 67.6535,81.549" id="Fill-1" fill="#F2F3F7"></path>
            <path d="M81.7624,24.5785 L52.9994,24.5785 C52.0814,24.5785 51.3324,23.8275 51.3324,22.9105 L51.3324,18.3595 C51.3324,17.4425 52.0814,16.6915 52.9994,16.6915 L81.7624,16.6915 C82.6794,16.6915 83.4304,17.4425 83.4304,18.3595 L83.4304,22.9105 C83.4304,23.8275 82.6794,24.5785 81.7624,24.5785" id="Fill-3" fill="#D20050"></path>
            <path d="M44.9992,24.5785 L29.9412,24.5785 C29.2402,24.5785 28.6672,24.0055 28.6672,23.3045 L28.6672,21.6495 C28.6672,20.9485 29.2402,20.3755 29.9412,20.3755 L44.9992,20.3755 C45.7002,20.3755 46.2732,20.9485 46.2732,21.6495 L46.2732,23.3045 C46.2732,24.0055 45.7002,24.5785 44.9992,24.5785" id="Fill-5" fill="#C5C8DA"></path>
            <path d="M95.6866,36.2567 L80.7056,36.2567 C79.9846,36.2567 79.3936,35.6657 79.3936,34.9437 L79.3936,31.0447 C79.3936,30.3227 79.9846,29.7317 80.7056,29.7317 L95.6866,29.7317 C96.4086,29.7317 96.9996,30.3227 96.9996,31.0447 L96.9996,34.9437 C96.9996,35.6657 96.4086,36.2567 95.6866,36.2567" id="Fill-7" fill="#DEE0EA"></path>
            <path d="M22.6854,24.5785 L8.4164,24.5785 C7.6184,24.5785 6.9664,23.9255 6.9664,23.1285 L6.9664,21.8255 C6.9664,21.0285 7.6184,20.3755 8.4164,20.3755 L22.6854,20.3755 C23.4834,20.3755 24.1354,21.0285 24.1354,21.8255 L24.1354,23.1285 C24.1354,23.9255 23.4834,24.5785 22.6854,24.5785" id="Fill-9" fill="#697097"></path>
            <path d="M12.3412,34.5239 L2.1722,34.5239 C1.5872,34.5239 1.1092,34.0459 1.1092,33.4609 L1.1092,30.7949 C1.1092,30.2109 1.5872,29.7319 2.1722,29.7319 L12.3412,29.7319 C12.9252,29.7319 13.4042,30.2109 13.4042,30.7949 L13.4042,33.4609 C13.4042,34.0459 12.9252,34.5239 12.3412,34.5239" id="Fill-11" fill="#D20050"></path>
            <path d="M31.5857,15.4906 L11.0987,15.4906 C10.2317,15.4906 9.5227,14.7806 9.5227,13.9136 L9.5227,10.5116 C9.5227,9.6426 10.2317,8.9346 11.0987,8.9346 L31.5857,8.9346 C32.4527,8.9346 33.1627,9.6426 33.1627,10.5116 L33.1627,13.9136 C33.1627,14.7806 32.4527,15.4906 31.5857,15.4906" id="Fill-13" fill="#DEE0EA"></path>
            <path d="M19.5661,68.5746 L22.9281,59.8156 L17.3831,59.8156 C16.4901,59.8156 15.7601,60.5456 15.7601,61.4386 L15.7601,66.9516 C15.7601,67.8436 16.4901,68.5746 17.3831,68.5746 L19.5661,68.5746 Z" id="Fill-15" fill="#969CBB"></path>
            <path d="M55.0109,50.5987 L58.9329,50.5987 C59.3979,50.5987 59.7789,50.2187 59.7789,49.7527 L59.7789,47.1337 C59.7789,46.6677 59.3979,46.2877 58.9329,46.2877 L53.3889,46.2877 L55.0109,50.5987 Z" id="Fill-17" fill="#697097"></path>
            <path d="M28.1199,46.2874 L9.7549,46.2874 C8.8369,46.2874 8.0869,47.0384 8.0869,47.9554 L8.0869,52.5064 C8.0869,53.4234 8.8369,54.1744 9.7549,54.1744 L25.0929,54.1744 L28.1199,46.2874 Z" id="Fill-19" fill="#DEE0EA"></path>
            <path d="M70.9573,29.732 L20.3503,29.732 C19.2143,29.732 18.2843,30.661 18.2843,31.798 L18.2843,39.669 C18.2843,40.805 19.2143,41.734 20.3503,41.734 L29.8673,41.734 L32.6283,34.542 C32.9573,33.685 33.7803,33.118 34.6983,33.118 L46.8983,33.118 C47.8213,33.118 48.6493,33.69 48.9733,34.555 L51.6743,41.734 L70.9573,41.734 C72.0933,41.734 73.0233,40.805 73.0233,39.669 L73.0233,31.798 C73.0233,30.661 72.0933,29.732 70.9573,29.732" id="Fill-21" fill="#969CBB"></path>
            <path d="M27.559,21.649 L27.559,23.306 C27.559,24.618 28.627,25.687 29.941,25.687 L44.999,25.687 C46.313,25.687 47.382,24.618 47.382,23.306 L47.382,21.649 C47.382,20.335 46.313,19.266 44.999,19.266 L29.941,19.266 C28.627,19.266 27.559,20.335 27.559,21.649 L27.559,21.649 Z M45.164,21.649 L45.164,23.306 C45.164,23.393 45.086,23.47 44.999,23.47 L29.941,23.47 C29.853,23.47 29.777,23.393 29.777,23.306 L29.777,21.649 C29.777,21.561 29.853,21.484 29.941,21.484 L44.999,21.484 C45.086,21.484 45.164,21.561 45.164,21.649 L45.164,21.649 Z M11.099,16.6 L31.585,16.6 C33.065,16.6 34.27,15.394 34.27,13.914 L34.27,10.511 C34.27,9.03 33.065,7.825 31.585,7.825 L11.099,7.825 C9.619,7.825 8.414,9.03 8.414,10.511 L8.414,13.914 C8.414,15.394 9.619,16.6 11.099,16.6 L11.099,16.6 Z M10.631,10.511 C10.631,10.256 10.845,10.042 11.099,10.042 L31.585,10.042 C31.839,10.042 32.053,10.256 32.053,10.511 L32.053,13.914 C32.053,14.168 31.839,14.382 31.585,14.382 L11.099,14.382 C10.845,14.382 10.631,14.168 10.631,13.914 L10.631,10.511 Z M53,25.687 L81.762,25.687 C83.292,25.687 84.538,24.442 84.538,22.911 L84.538,18.359 C84.538,16.828 83.292,15.583 81.762,15.583 L53,15.583 C51.469,15.583 50.223,16.828 50.223,18.359 L50.223,22.911 C50.223,24.442 51.469,25.687 53,25.687 L53,25.687 Z M52.441,18.359 C52.441,18.055 52.697,17.8 53,17.8 L81.762,17.8 C82.065,17.8 82.32,18.055 82.32,18.359 L82.32,22.911 C82.32,23.215 82.065,23.47 81.762,23.47 L53,23.47 C52.697,23.47 52.441,23.215 52.441,22.911 L52.441,18.359 Z M24.667,55.284 L9.754,55.284 C8.223,55.284 6.978,54.037 6.978,52.506 L6.978,47.955 C6.978,46.423 8.223,45.178 9.754,45.178 L28.546,45.178 L27.694,47.396 L9.754,47.396 C9.452,47.396 9.196,47.652 9.196,47.955 L9.196,52.506 C9.196,52.809 9.452,53.066 9.754,53.066 L25.519,53.066 L24.667,55.284 Z M74.133,31.798 L74.133,39.669 C74.133,41.42 72.708,42.843 70.957,42.843 L52.093,42.843 L51.258,40.626 L70.957,40.626 C71.485,40.626 71.915,40.195 71.915,39.669 L71.915,31.798 C71.915,31.27 71.485,30.841 70.957,30.841 L20.351,30.841 C19.823,30.841 19.393,31.27 19.393,31.798 L19.393,39.669 C19.393,40.195 19.823,40.626 20.351,40.626 L30.293,40.626 L29.442,42.843 L20.351,42.843 C18.6,42.843 17.175,41.42 17.175,39.669 L17.175,31.798 C17.175,30.047 18.6,28.623 20.351,28.623 L70.957,28.623 C72.708,28.623 74.133,30.047 74.133,31.798 L74.133,31.798 Z M95.686,28.623 L80.706,28.623 C79.371,28.623 78.285,29.709 78.285,31.044 L78.285,34.944 C78.285,36.279 79.371,37.366 80.706,37.366 L95.686,37.366 C97.021,37.366 98.108,36.279 98.108,34.944 L98.108,31.044 C98.108,29.709 97.021,28.623 95.686,28.623 L95.686,28.623 Z M95.89,34.944 C95.89,35.055 95.797,35.147 95.686,35.147 L80.706,35.147 C80.596,35.147 80.503,35.055 80.503,34.944 L80.503,31.044 C80.503,30.936 80.598,30.841 80.706,30.841 L95.686,30.841 C95.795,30.841 95.89,30.936 95.89,31.044 L95.89,34.944 Z M17.383,69.683 C15.876,69.683 14.651,68.457 14.651,66.951 L14.651,61.438 C14.651,59.933 15.876,58.707 17.383,58.707 L23.353,58.707 L22.502,60.925 L17.383,60.925 C17.104,60.925 16.868,61.16 16.868,61.438 L16.868,66.951 C16.868,67.229 17.104,67.466 17.383,67.466 L19.992,67.466 L19.141,69.683 L17.383,69.683 Z M60.888,47.134 L60.888,49.752 C60.888,50.831 60.011,51.708 58.933,51.708 L55.428,51.708 L54.594,49.49 L58.67,49.49 L58.67,47.396 L53.806,47.396 L52.971,45.178 L58.933,45.178 C60.011,45.178 60.888,46.055 60.888,47.134 L60.888,47.134 Z M8.416,25.687 L22.685,25.687 C24.097,25.687 25.245,24.54 25.245,23.128 L25.245,21.825 C25.245,20.414 24.097,19.266 22.685,19.266 L8.416,19.266 C7.006,19.266 5.857,20.414 5.857,21.825 L5.857,23.128 C5.857,24.54 7.006,25.687 8.416,25.687 L8.416,25.687 Z M8.075,21.825 C8.075,21.64 8.231,21.484 8.416,21.484 L22.685,21.484 C22.87,21.484 23.027,21.64 23.027,21.825 L23.027,23.128 C23.027,23.313 22.87,23.47 22.685,23.47 L8.416,23.47 C8.231,23.47 8.075,23.313 8.075,23.128 L8.075,21.825 Z M14.513,33.461 L14.513,30.795 C14.513,29.598 13.539,28.623 12.341,28.623 L2.173,28.623 C0.975,28.623 0,29.598 0,30.795 L0,33.461 C0,34.658 0.975,35.633 2.173,35.633 L12.341,35.633 C13.539,35.633 14.513,34.658 14.513,33.461 L14.513,33.461 Z M12.296,33.415 L2.218,33.461 L2.173,30.841 L12.296,30.795 L12.296,33.415 Z" id="Fill-23" fill="#343852"></path>
            <path d="M47.5427,67.7788 L33.8807,67.7788 L31.3387,74.1018 L21.0077,74.1018 L35.4607,36.4448 L46.1297,36.4448 L60.3027,74.1018 L49.8577,74.1018 L47.5427,67.7788 Z M44.9447,60.3268 L40.7117,48.1318 L36.5907,60.3268 L44.9447,60.3268 Z" id="Fill-25" fill="#1D71B8"></path>
            <path d="M61.9039,75.2109 L49.0819,75.2109 L46.7669,68.8879 L34.6289,68.8879 L32.0879,75.2109 L19.3949,75.2109 L34.6979,35.3359 L46.8979,35.3359 L61.9039,75.2109 Z M50.6319,72.9929 L58.7009,72.9929 L45.3629,37.5539 L36.2229,37.5539 L22.6209,72.9929 L30.5889,72.9929 L33.1299,66.6699 L48.3179,66.6699 L50.6319,72.9929 Z M46.5029,61.4359 L35.0449,61.4359 L40.6979,44.7099 L46.5029,61.4359 Z M38.1349,59.2179 L43.3859,59.2179 L40.7249,51.5529 L38.1349,59.2179 Z" id="Fill-27" fill="#343852"></path>
            <path d="M86.1897,44.6613 L96.7277,44.6613 L96.7277,74.1023 L86.1897,74.1023 L86.1897,70.8733 C83.7527,74.2343 79.9327,75.0893 77.0357,75.0893 C73.8737,75.0893 69.9877,74.1683 66.4307,70.4133 C63.5987,67.3843 62.2147,64.0253 62.2147,59.6123 C62.2147,54.0793 64.3887,50.1933 66.7607,47.8223 C69.2637,45.3203 73.1497,43.6723 77.3647,43.6723 C82.1057,43.6723 84.9387,46.1093 86.1897,47.4933 L86.1897,44.6613 Z M75.1257,54.5403 C73.6747,55.9233 73.0177,57.8333 73.0177,59.3493 C73.0177,61.0613 73.7417,62.9053 75.0587,64.1573 C76.1787,65.2103 78.0227,66.1323 79.8017,66.1323 C81.5137,66.1323 83.2267,65.4083 84.5427,64.0903 C85.4657,63.1693 86.5187,61.7193 86.5187,59.3493 C86.5187,57.9653 86.1247,56.1213 84.4777,54.5403 C83.4897,53.6183 81.9757,52.6303 79.7357,52.6303 C78.4187,52.6303 76.6397,53.0913 75.1257,54.5403 L75.1257,54.5403 Z" id="Fill-29" fill="#1D71B8"></path>
            <path d="M77.0348,76.1984 C72.6218,76.1984 68.7818,74.5084 65.6258,71.1764 C62.5408,67.8764 61.1058,64.2034 61.1058,59.6124 C61.1058,52.9074 64.1578,48.8574 65.9768,47.0384 C68.7778,44.2374 73.0348,42.5634 77.3638,42.5634 C80.8068,42.5634 83.3548,43.7594 85.0808,45.0174 L85.0808,43.5514 L97.8368,43.5514 L97.8368,75.2104 L85.0808,75.2104 L85.0808,73.6274 C82.3238,75.8154 79.0108,76.1984 77.0348,76.1984 M77.3638,44.7814 C73.6108,44.7814 69.9388,46.2114 67.5448,48.6064 C65.9678,50.1824 63.3238,53.7084 63.3238,59.6124 C63.3238,63.6604 64.5318,66.7584 67.2398,69.6564 C69.9578,72.5244 73.2538,73.9804 77.0348,73.9804 C79.1018,73.9804 82.9208,73.4914 85.2928,70.2234 L87.2988,67.4584 L87.2988,72.9934 L95.6188,72.9934 L95.6188,45.7704 L87.2988,45.7704 L87.2988,50.3694 L85.3688,48.2364 C84.1998,46.9454 81.6058,44.7814 77.3638,44.7814 M79.8018,67.2414 C77.5268,67.2414 75.4158,66.0144 74.2998,64.9644 C72.8008,63.5404 71.9078,61.4424 71.9078,59.3494 C71.9078,57.3304 72.8478,55.1804 74.3598,53.7384 C75.8328,52.3294 77.7918,51.5214 79.7358,51.5214 C81.8158,51.5214 83.6648,52.2644 85.2338,53.7304 C87.2148,55.6304 87.6278,57.8334 87.6278,59.3494 C87.6278,61.5214 86.8748,63.3274 85.3268,64.8754 C83.8248,66.3784 81.8098,67.2414 79.8018,67.2414 M79.7358,53.7394 C79.0838,53.7394 77.4028,53.8954 75.8918,55.3414 L75.8908,55.3424 C74.5888,56.5834 74.1258,58.2264 74.1258,59.3494 C74.1258,60.8244 74.7758,62.3574 75.8228,63.3534 C76.7058,64.1824 78.2808,65.0244 79.8018,65.0244 C81.2268,65.0244 82.6698,64.3974 83.7598,63.3064 C84.4688,62.5984 85.4108,61.4184 85.4108,59.3494 C85.4108,57.7724 84.8388,56.4234 83.7098,55.3404 C82.5598,54.2674 81.2558,53.7394 79.7358,53.7394" id="Fill-31" fill="#343852"></path>
        </g>
    </g>
</svg>