<?xml version="1.0" encoding="UTF-8"?>
<svg width="120px" height="120px" viewBox="0 0 120 120" version="1.1" xmlns="http://www.w3.org/2000/svg" xmlns:xlink="http://www.w3.org/1999/xlink">
    <title>02.Icons/Illustrative/Charts - Bulles</title>
    <g id="02.Icons/Illustrative/Charts---Bulles" stroke="none" stroke-width="1" fill="none" fill-rule="evenodd">
        <g id="Charts---Bulles" transform="translate(1.774500, 14.313400)">
            <path d="M66.329,33.165 C66.329,14.848 51.48,0 33.164,0 C14.849,0 0,14.848 0,33.165 C0,51.482 14.849,66.33 33.164,66.33 C51.48,66.33 66.329,51.482 66.329,33.165" id="Fill-1" fill="#F2F3F7"></path>
            <path d="M98.155,53.3503 L18.296,53.3503 C17.706,53.3503 17.229,52.8743 17.229,52.2853 C17.229,51.6963 17.706,51.2203 18.296,51.2203 L98.155,51.2203 C98.745,51.2203 99.222,51.6963 99.222,52.2853 C99.222,52.8743 98.745,53.3503 98.155,53.3503 M99.222,38.1383 C99.222,37.5493 98.745,37.0723 98.155,37.0723 L18.296,37.0723 C17.706,37.0723 17.229,37.5493 17.229,38.1383 C17.229,38.7273 17.706,39.2033 18.296,39.2033 L98.155,39.2033 C98.745,39.2033 99.222,38.7273 99.222,38.1383 M99.222,23.9883 C99.222,23.3993 98.745,22.9233 98.155,22.9233 L18.272,22.9233 C17.681,22.9233 17.203,23.3993 17.203,23.9883 C17.203,24.5773 17.681,25.0533 18.272,25.0533 L98.155,25.0533 C98.745,25.0533 99.222,24.5773 99.222,23.9883" id="Fill-3" fill="#DEE0EA"></path>
            <path d="M98.1571,74.2196 C97.5681,74.2196 97.0921,74.6956 97.0921,75.2846 L97.0921,79.5266 L85.0711,79.5266 L85.0711,75.2846 C85.0711,74.6956 84.5951,74.2196 84.0051,74.2196 C83.4161,74.2196 82.9401,74.6956 82.9401,75.2846 L82.9401,79.5266 L70.9201,79.5266 L70.9201,75.2846 C70.9201,74.6956 70.4431,74.2196 69.8551,74.2196 C69.2661,74.2196 68.7901,74.6956 68.7901,75.2846 L68.7901,79.5266 L56.7691,79.5266 L56.7691,75.2846 C56.7691,74.6956 56.2931,74.2196 55.7031,74.2196 C55.1151,74.2196 54.6381,74.6956 54.6381,75.2846 L54.6381,79.5266 L42.6171,79.5266 L42.6171,75.2846 C42.6171,74.6956 42.1411,74.2196 41.5521,74.2196 C40.9641,74.2196 40.4871,74.6956 40.4871,75.2846 L40.4871,79.5266 L28.4671,79.5266 L28.4671,75.2846 C28.4671,74.6956 27.9911,74.2196 27.4011,74.2196 C26.8121,74.2196 26.3361,74.6956 26.3361,75.2846 L26.3361,79.5266 L14.3161,79.5266 L14.3161,53.3546 L18.5571,53.3546 C19.1461,53.3546 19.6221,52.8786 19.6221,52.2896 C19.6221,51.7006 19.1461,51.2246 18.5571,51.2246 L14.3161,51.2246 L14.3161,39.2046 L18.5571,39.2046 C19.1461,39.2046 19.6221,38.7286 19.6221,38.1396 C19.6221,37.5506 19.1461,37.0746 18.5571,37.0746 L14.3161,37.0746 L14.3161,25.0526 L18.5571,25.0526 C19.1461,25.0526 19.6221,24.5756 19.6221,23.9876 C19.6221,23.3986 19.1461,22.9226 18.5571,22.9226 L14.3161,22.9226 L14.3161,10.9026 L18.5571,10.9026 C19.1461,10.9026 19.6221,10.4256 19.6221,9.8376 C19.6221,9.2486 19.1461,8.7726 18.5571,8.7726 L13.2511,8.7726 C12.6621,8.7726 12.1861,9.2486 12.1861,9.8376 L12.1861,80.5916 C12.1861,81.1806 12.6621,81.6566 13.2511,81.6566 L98.1571,81.6566 C98.7461,81.6566 99.2221,81.1806 99.2221,80.5916 L99.2221,75.2846 C99.2221,74.6956 98.7461,74.2196 98.1571,74.2196" id="Fill-5" fill="#343852"></path>
            <path d="M36.7243,63.3044 C33.4753,63.3044 30.8323,60.6614 30.8323,57.4124 C30.8323,54.1634 33.4753,51.5204 36.7243,51.5204 C39.9733,51.5204 42.6163,54.1634 42.6163,57.4124 C42.6163,60.6614 39.9733,63.3044 36.7243,63.3044" id="Fill-7" fill="#C5C8DA"></path>
            <path d="M60.0772,64.975 C54.3822,64.975 49.7502,60.341 49.7502,54.648 C49.7502,48.952 54.3822,44.319 60.0772,44.319 C65.7722,44.319 70.4042,48.952 70.4042,54.648 C70.4042,60.341 65.7722,64.975 60.0772,64.975" id="Fill-9" fill="#D20050"></path>
            <path d="M43.975,42.083 C39.491,42.083 35.843,38.435 35.843,33.951 C35.843,29.466 39.491,25.818 43.975,25.818 C48.46,25.818 52.107,29.466 52.107,33.951 C52.107,38.435 48.46,42.083 43.975,42.083" id="Fill-11" fill="#697097"></path>
            <path d="M69.3313,35.4143 C64.4583,35.4143 60.4933,31.4493 60.4933,26.5763 C60.4933,21.7033 64.4583,17.7383 69.3313,17.7383 C74.2043,17.7383 78.1693,21.7033 78.1693,26.5763 C78.1693,31.4493 74.2043,35.4143 69.3313,35.4143" id="Fill-13" fill="#1D71B8"></path>
            <path d="M81.1019,24.1125 C81.2679,24.9085 81.3579,25.7315 81.3579,26.5765 C81.3579,32.9775 76.3269,38.2115 70.0129,38.5675 C71.6859,41.8145 75.0639,44.0375 78.9679,44.0375 C84.5339,44.0375 89.0459,39.5255 89.0459,33.9595 C89.0459,29.1265 85.6419,25.0925 81.1019,24.1125" id="Fill-15" fill="#C5C8DA"></path>
            <path d="M36.7241,63.93 C33.1311,63.93 30.2071,61.007 30.2071,57.413 C30.2071,53.819 33.1311,50.896 36.7241,50.896 C40.3181,50.896 43.2411,53.819 43.2411,57.413 C43.2411,61.007 40.3181,63.93 36.7241,63.93 M36.7241,53.026 C34.3051,53.026 32.3371,54.994 32.3371,57.413 C32.3371,59.831 34.3051,61.8 36.7241,61.8 C39.1431,61.8 41.1111,59.831 41.1111,57.413 C41.1111,54.994 39.1431,53.026 36.7241,53.026 M60.0771,65.694 C53.9861,65.694 49.0311,60.739 49.0311,54.648 C49.0311,48.556 53.9861,43.6 60.0771,43.6 C66.1681,43.6 71.1231,48.556 71.1231,54.648 C71.1231,60.739 66.1681,65.694 60.0771,65.694 M60.0771,45.731 C55.1611,45.731 51.1611,49.731 51.1611,54.648 C51.1611,59.564 55.1611,63.564 60.0771,63.564 C64.9931,63.564 68.9931,59.564 68.9931,54.648 C68.9931,49.731 64.9931,45.731 60.0771,45.731 M43.9751,43.011 C38.9791,43.011 34.9151,38.947 34.9151,33.95 C34.9151,28.954 38.9791,24.889 43.9751,24.889 C48.9711,24.889 53.0361,28.954 53.0361,33.95 C53.0361,38.947 48.9711,43.011 43.9751,43.011 M43.9751,27.02 C40.1541,27.02 37.0461,30.129 37.0461,33.95 C37.0461,37.771 40.1541,40.881 43.9751,40.881 C47.7961,40.881 50.9051,37.771 50.9051,33.95 C50.9051,30.129 47.7961,27.02 43.9751,27.02 M69.3321,36.472 C63.8761,36.472 59.4361,32.033 59.4361,26.576 C59.4361,21.12 63.8761,16.68 69.3321,16.68 C74.7881,16.68 79.2281,21.12 79.2281,26.576 C79.2281,32.033 74.7881,36.472 69.3321,36.472 M69.3321,18.81 C65.0491,18.81 61.5661,22.295 61.5661,26.576 C61.5661,30.858 65.0491,34.341 69.3321,34.341 C73.6131,34.341 77.0971,30.858 77.0971,26.576 C77.0971,22.295 73.6131,18.81 69.3321,18.81 M90.1111,34.011 C90.1111,29.086 86.8081,24.701 82.0781,23.347 C81.5091,23.182 80.9211,23.513 80.7621,24.078 C80.5991,24.643 80.9261,25.234 81.4911,25.394 C85.3121,26.488 87.9811,30.032 87.9811,34.011 C87.9811,38.953 83.9611,42.973 79.0201,42.973 C75.8591,42.973 72.9931,41.357 71.3521,38.651 C71.0471,38.149 70.3921,37.99 69.8891,38.293 C69.3851,38.599 69.2251,39.254 69.5301,39.757 C71.5611,43.105 75.1081,45.103 79.0201,45.103 C85.1351,45.103 90.1111,40.128 90.1111,34.011" id="Fill-17" fill="#343852"></path>
        </g>
    </g>
</svg>