<?xml version="1.0" encoding="UTF-8"?>
<svg width="120px" height="120px" viewBox="0 0 120 120" version="1.1" xmlns="http://www.w3.org/2000/svg" xmlns:xlink="http://www.w3.org/1999/xlink">
    <title>02.Icons/Illustrative/Charts - Pyramide</title>
    <g id="02.Icons/Illustrative/Charts---Pyramide" stroke="none" stroke-width="1" fill="none" fill-rule="evenodd">
        <g id="Charts---Pyramide" transform="translate(2.204300, 22.458500)">
            <path d="M66.871,53.7359 C66.871,35.2699 51.901,20.3009 33.436,20.3009 C14.971,20.3009 0,35.2699 0,53.7359 C0,72.2019 14.971,87.1709 33.436,87.1709 C51.901,87.1709 66.871,72.2019 66.871,53.7359" id="Fill-1" fill="#F2F3F7"></path>
            <path d="M102.016,65.981 C101.422,65.981 100.942,66.461 100.942,67.055 L100.942,71.331 L88.823,71.331 L88.823,67.055 C88.823,66.461 88.343,65.981 87.749,65.981 C87.155,65.981 86.675,66.461 86.675,67.055 L86.675,71.331 L74.557,71.331 L74.557,67.055 C74.557,66.461 74.076,65.981 73.483,65.981 C72.889,65.981 72.409,66.461 72.409,67.055 L72.409,71.331 L60.29,71.331 L60.29,67.055 C60.29,66.461 59.81,65.981 59.216,65.981 C58.623,65.981 58.142,66.461 58.142,67.055 L58.142,71.331 L46.023,71.331 L46.023,67.055 C46.023,66.461 45.543,65.981 44.949,65.981 C44.356,65.981 43.875,66.461 43.875,67.055 L43.875,71.331 L31.757,71.331 L31.757,67.055 C31.757,66.461 31.277,65.981 30.683,65.981 C30.089,65.981 29.609,66.461 29.609,67.055 L29.609,71.331 L17.491,71.331 L17.491,44.946 L21.766,44.946 C22.36,44.946 22.84,44.466 22.84,43.872 C22.84,43.278 22.36,42.798 21.766,42.798 L17.491,42.798 L17.491,30.68 L21.766,30.68 C22.36,30.68 22.84,30.2 22.84,29.606 C22.84,29.012 22.36,28.532 21.766,28.532 L17.491,28.532 L17.491,16.413 L21.766,16.413 C22.36,16.413 22.84,15.932 22.84,15.339 C22.84,14.745 22.36,14.265 21.766,14.265 L17.491,14.265 L17.491,2.147 L21.766,2.147 C22.36,2.147 22.84,1.666 22.84,1.073 C22.84,0.48 22.36,0 21.766,0 L16.417,0 C15.823,0 15.343,0.48 15.343,1.073 L15.343,72.405 C15.343,72.999 15.823,73.479 16.417,73.479 L102.016,73.479 C102.61,73.479 103.09,72.999 103.09,72.405 L103.09,67.055 C103.09,66.461 102.61,65.981 102.016,65.981" id="Fill-3" fill="#343852"></path>
            <path d="M57.7962,51.5272 L57.7962,61.8522 C57.7962,62.4462 57.3152,62.9262 56.7222,62.9262 L27.0192,62.9262 C26.4262,62.9262 25.9452,62.4462 25.9452,61.8522 L25.9452,51.5272 C25.9452,50.9332 26.4262,50.4532 27.0192,50.4532 L56.7222,50.4532 C57.3152,50.4532 57.7962,50.9332 57.7962,51.5272 M57.7962,36.6902 L57.7962,47.0142 C57.7962,47.6082 57.3152,48.0882 56.7222,48.0882 L34.5362,48.0882 C33.9432,48.0882 33.4622,47.6082 33.4622,47.0142 L33.4622,36.6902 C33.4622,36.0962 33.9432,35.6162 34.5362,35.6162 L56.7222,35.6162 C57.3152,35.6162 57.7962,36.0962 57.7962,36.6902 M57.7962,21.8532 L57.7962,32.1772 C57.7962,32.7712 57.3152,33.2512 56.7222,33.2512 L42.0532,33.2512 C41.4612,33.2512 40.9802,32.7712 40.9802,32.1772 L40.9802,21.8532 C40.9802,21.2592 41.4612,20.7792 42.0532,20.7792 L56.7222,20.7792 C57.3152,20.7792 57.7962,21.2592 57.7962,21.8532 M57.7962,7.0152 L57.7962,17.3402 C57.7962,17.9342 57.3152,18.4142 56.7222,18.4142 L49.5712,18.4142 C48.9782,18.4142 48.4972,17.9342 48.4972,17.3402 L48.4972,7.0152 C48.4972,6.4212 48.9782,5.9412 49.5712,5.9412 L56.7222,5.9412 C57.3152,5.9412 57.7962,6.4212 57.7962,7.0152" id="Fill-5" fill="#1D71B8"></path>
            <path d="M61.7108,50.4533 L91.4138,50.4533 C92.0068,50.4533 92.4878,50.9333 92.4878,51.5273 L92.4878,61.8523 C92.4878,62.4453 92.0068,62.9253 91.4138,62.9253 L61.7108,62.9253 C61.1178,62.9253 60.6368,62.4453 60.6368,61.8523 L60.6368,51.5273 C60.6368,50.9333 61.1178,50.4533 61.7108,50.4533 M61.7108,35.6163 L83.8968,35.6163 C84.4898,35.6163 84.9708,36.0963 84.9708,36.6903 L84.9708,47.0143 C84.9708,47.6083 84.4898,48.0883 83.8968,48.0883 L61.7108,48.0883 C61.1178,48.0883 60.6368,47.6083 60.6368,47.0143 L60.6368,36.6903 C60.6368,36.0963 61.1178,35.6163 61.7108,35.6163 M61.7108,20.7793 L76.3798,20.7793 C76.9718,20.7793 77.4538,21.2593 77.4538,21.8523 L77.4538,32.1773 C77.4538,32.7713 76.9718,33.2513 76.3798,33.2513 L61.7108,33.2513 C61.1178,33.2513 60.6368,32.7713 60.6368,32.1773 L60.6368,21.8523 C60.6368,21.2593 61.1178,20.7793 61.7108,20.7793 M61.7108,5.9413 L68.8618,5.9413 C69.4548,5.9413 69.9358,6.4213 69.9358,7.0153 L69.9358,17.3403 C69.9358,17.9343 69.4548,18.4143 68.8618,18.4143 L61.7108,18.4143 C61.1178,18.4143 60.6368,17.9343 60.6368,17.3403 L60.6368,7.0153 C60.6368,6.4213 61.1178,5.9413 61.7108,5.9413" id="Fill-7" fill="#D20050"></path>
            <path d="M57.7957,51.5269 L57.7957,61.8519 C57.7957,62.4459 57.3157,62.9259 56.7217,62.9259 L27.0187,62.9259 C26.4257,62.9259 25.9447,62.4459 25.9447,61.8519 L25.9447,51.5269 C25.9447,50.9329 26.4257,50.4529 27.0187,50.4529 L56.7217,50.4529 C57.3157,50.4529 57.7957,50.9329 57.7957,51.5269 L57.7957,51.5269 Z M28.0927,60.7779 L55.6487,60.7779 L55.6487,52.6009 L28.0927,52.6009 L28.0927,60.7779 Z M57.7957,36.6899 L57.7957,47.0139 C57.7957,47.6079 57.3157,48.0879 56.7217,48.0879 L34.5357,48.0879 C33.9427,48.0879 33.4617,47.6079 33.4617,47.0139 L33.4617,36.6899 C33.4617,36.0959 33.9427,35.6159 34.5357,35.6159 L56.7217,35.6159 C57.3157,35.6159 57.7957,36.0959 57.7957,36.6899 L57.7957,36.6899 Z M35.6097,45.9399 L55.6477,45.9399 L55.6477,37.7629 L35.6097,37.7629 L35.6097,45.9399 Z M57.7957,21.8529 L57.7957,32.1769 C57.7957,32.7709 57.3157,33.2509 56.7217,33.2509 L42.0527,33.2509 C41.4607,33.2509 40.9797,32.7709 40.9797,32.1769 L40.9797,21.8529 C40.9797,21.2589 41.4607,20.7789 42.0527,20.7789 L56.7217,20.7789 C57.3157,20.7789 57.7957,21.2589 57.7957,21.8529 L57.7957,21.8529 Z M43.1267,31.1029 L55.6477,31.1029 L55.6477,22.9259 L43.1267,22.9259 L43.1267,31.1029 Z M57.7957,7.0149 L57.7957,17.3409 C57.7957,17.9339 57.3157,18.4149 56.7217,18.4149 L49.5707,18.4149 C48.9777,18.4149 48.4967,17.9339 48.4967,17.3409 L48.4967,7.0149 C48.4967,6.4219 48.9777,5.9409 49.5707,5.9409 L56.7217,5.9409 C57.3157,5.9409 57.7957,6.4219 57.7957,7.0149 L57.7957,7.0149 Z M50.6447,16.2659 L55.6477,16.2659 L55.6477,8.0889 L50.6447,8.0889 L50.6447,16.2659 Z M61.7117,50.4529 L91.4147,50.4529 C92.0077,50.4529 92.4887,50.9329 92.4887,51.5269 L92.4887,61.8519 C92.4887,62.4459 92.0077,62.9259 91.4147,62.9259 L61.7117,62.9259 C61.1177,62.9259 60.6377,62.4459 60.6377,61.8519 L60.6377,51.5269 C60.6377,50.9329 61.1177,50.4529 61.7117,50.4529 L61.7117,50.4529 Z M62.7847,60.7779 L90.3407,60.7779 L90.3407,52.6009 L62.7847,52.6009 L62.7847,60.7779 Z M61.7117,35.6159 L83.8977,35.6159 C84.4897,35.6159 84.9707,36.0959 84.9707,36.6899 L84.9707,47.0139 C84.9707,47.6079 84.4897,48.0879 83.8977,48.0879 L61.7117,48.0879 C61.1177,48.0879 60.6377,47.6079 60.6377,47.0139 L60.6377,36.6899 C60.6377,36.0959 61.1177,35.6159 61.7117,35.6159 L61.7117,35.6159 Z M62.7847,45.9399 L82.8227,45.9399 L82.8227,37.7629 L62.7847,37.7629 L62.7847,45.9399 Z M61.7117,20.7789 L76.3797,20.7789 C76.9727,20.7789 77.4537,21.2589 77.4537,21.8529 L77.4537,32.1769 C77.4537,32.7709 76.9727,33.2509 76.3797,33.2509 L61.7117,33.2509 C61.1177,33.2509 60.6377,32.7709 60.6377,32.1769 L60.6377,21.8529 C60.6377,21.2589 61.1177,20.7789 61.7117,20.7789 L61.7117,20.7789 Z M62.7847,31.1029 L75.3057,31.1029 L75.3057,22.9259 L62.7847,22.9259 L62.7847,31.1029 Z M61.7117,5.9409 L68.8627,5.9409 C69.4557,5.9409 69.9367,6.4219 69.9367,7.0149 L69.9367,17.3409 C69.9367,17.9339 69.4557,18.4149 68.8627,18.4149 L61.7117,18.4149 C61.1177,18.4149 60.6377,17.9339 60.6377,17.3409 L60.6377,7.0149 C60.6377,6.4219 61.1177,5.9409 61.7117,5.9409 L61.7117,5.9409 Z M62.7847,16.2659 L67.7877,16.2659 L67.7877,8.0889 L62.7847,8.0889 L62.7847,16.2659 Z" id="Fill-9" fill="#343852"></path>
        </g>
    </g>
</svg>