<?xml version="1.0" encoding="UTF-8"?>
<svg width="120px" height="120px" viewBox="0 0 120 120" version="1.1" xmlns="http://www.w3.org/2000/svg" xmlns:xlink="http://www.w3.org/1999/xlink">
    <title>02.Icons/Illustrative/Charts - Anneau</title>
    <g id="02.Icons/Illustrative/Charts---Anneau" stroke="none" stroke-width="1" fill="none" fill-rule="evenodd">
        <g id="Charts---Anneau" transform="translate(5.414500, 13.699600)">
            <path d="M66.575,33.287 C66.575,14.902 51.67,0 33.287,0 C14.904,0 0,14.902 0,33.287 C0,51.672 14.904,66.575 33.287,66.575 C51.67,66.575 66.575,51.672 66.575,33.287" id="Fill-1" fill="#F2F3F7"></path>
            <path d="M65.1583,33.287 C64.9343,33.287 64.7113,33.22 64.5173,33.087 C63.4723,32.366 62.3353,31.754 61.1373,31.269 C60.6473,31.071 60.3423,30.579 60.4153,30.057 L63.1973,9.924 C63.2413,9.603 63.4193,9.318 63.6883,9.139 C63.9563,8.96 64.2873,8.905 64.6003,8.986 C70.5633,10.537 76.1653,13.503 80.8003,17.563 C81.0423,17.775 81.1823,18.077 81.186389,18.398 C81.1903,18.719 81.0593,19.026 80.8233,19.244 L65.9243,32.988 C65.7093,33.185 65.4353,33.287 65.1583,33.287" id="Fill-3" fill="#969CBB"></path>
            <path d="M76.3995,80.7171 C76.3095,80.7171 76.2185,80.7061 76.1295,80.6841 C75.8185,80.6071 75.5535,80.4021 75.4025,80.1191 L65.8535,62.1711 C65.6025,61.6991 65.7265,61.1261 66.1285,60.7731 C69.9425,57.4231 72.1295,52.6111 72.1295,47.5651 C72.1295,44.7011 71.4545,41.9581 70.1215,39.4161 C69.8795,38.9551 69.9585,38.3911 70.3415,38.0371 L85.3135,24.2261 C85.5505,24.0061 85.8735,23.9031 86.1945,23.9321 C86.5165,23.9651 86.8085,24.1351 86.9975,24.3991 C91.8725,31.2161 94.4485,39.2271 94.4485,47.5651 C94.4485,60.7451 87.9395,73.0641 77.0365,80.5191 C76.8465,80.6491 76.6255,80.7171 76.3995,80.7171" id="Fill-5" fill="#D20050"></path>
            <path d="M43.9357,33.2792 C43.6587,33.2792 43.3847,33.1772 43.1687,32.9792 L28.2797,19.2232 C28.0437,19.0052 27.9127,18.6992 27.916611,18.3792 C27.9207,18.0592 28.0607,17.7542 28.3027,17.5432 C35.5927,11.1682 44.9117,7.6572 54.5427,7.6572 C54.7347,7.6572 54.9227,7.6682 55.1117,7.6832 C55.2277,7.6912 55.3437,7.7002 55.4617,7.7022 C55.7827,7.7102 56.0867,7.8532 56.2957,8.0982 C56.5047,8.3432 56.5997,8.6662 56.5557,8.9852 L53.7757,29.0972 C53.7037,29.6252 53.2707,30.0152 52.7407,30.0692 C49.8277,30.3652 47.0037,31.4062 44.5757,33.0792 C44.3827,33.2122 44.1597,33.2792 43.9357,33.2792" id="Fill-7" fill="#464C6D"></path>
            <path d="M47.9379,86.9159 C29.9109,83.8779 16.0429,68.7069 14.7389,50.4729 C14.0679,41.0889 16.6519,31.9889 22.1019,24.3759 C22.2909,24.1129 22.5849,23.9439 22.9059,23.9099 C23.2279,23.8779 23.5499,23.9849 23.7869,24.2049 L38.7479,38.0259 C39.1309,38.3799 39.2099,38.9439 38.9669,39.4049 C37.6319,41.9499 36.9539,44.6949 36.9539,47.5639 C36.9539,57.2609 44.8439,65.1519 54.5419,65.1519 C55.8679,65.1519 57.2399,64.9849 58.6219,64.6559 C59.1219,64.5369 59.6399,64.7699 59.8799,65.2239 L69.4449,83.1999 C69.5959,83.4859 69.6189,83.8219 69.5059,84.1249 C69.3929,84.4289 69.1559,84.6679 68.8529,84.7839 C62.1249,87.3729 55.0169,88.1089 47.9379,86.9159" id="Fill-9" fill="#1D71B8"></path>
            <path d="M65.1585,33.287 C64.9345,33.287 64.7105,33.22 64.5165,33.087 C63.4725,32.366 62.3355,31.754 61.1375,31.268 C60.6475,31.071 60.3425,30.579 60.4155,30.057 L63.1975,9.924 C63.2415,9.603 63.4195,9.318 63.6885,9.139 C63.9565,8.96 64.2875,8.905 64.6005,8.986 C70.5635,10.537 76.1655,13.502 80.8005,17.563 C81.0425,17.775 81.1825,18.077 81.1865883,18.398 C81.1905,18.719 81.0585,19.026 80.8235,19.242 L65.9245,32.988 C65.7095,33.185 65.4335,33.287 65.1585,33.287 L65.1585,33.287 Z M62.7695,29.512 C63.5555,29.872 64.3155,30.278 65.0415,30.73 L78.3525,18.449 C74.5055,15.303 70.0205,12.929 65.2575,11.513 L62.7695,29.512 Z M76.3995,80.717 C76.3095,80.717 76.2185,80.706 76.1295,80.683 C75.8185,80.608 75.5535,80.401 75.4025,80.118 L65.8545,62.171 C65.6025,61.698 65.7265,61.127 66.1285,60.773 C69.9425,57.423 72.1295,52.611 72.1295,47.564 C72.1295,44.7 71.4545,41.958 70.1215,39.417 C69.8795,38.955 69.9585,38.392 70.3425,38.037 L85.3125,24.226 C85.5505,24.006 85.8735,23.902 86.1945,23.933 C86.5165,23.965 86.8085,24.135 86.9975,24.399 C91.8725,31.216 94.4495,39.227 94.4495,47.564 C94.4495,60.744 87.9395,73.063 77.0365,80.52 C76.8465,80.65 76.6255,80.717 76.3995,80.717 L76.3995,80.717 Z M68.2575,61.882 L76.7935,77.925 C86.4595,70.832 92.1905,59.576 92.1905,47.564 C92.1905,40.127 90.0165,32.964 85.8885,26.768 L72.4965,39.123 C73.7365,41.757 74.3875,44.657 74.3875,47.564 C74.3875,52.973 72.1645,58.14 68.2575,61.882 L68.2575,61.882 Z M43.9355,33.279 C43.6595,33.279 43.3845,33.177 43.1695,32.979 L28.2795,19.223 C28.0445,19.006 27.9125,18.699 27.9164117,18.379 C27.9215,18.059 28.0615,17.754 28.3035,17.544 C35.5925,11.168 44.9115,7.657 54.5415,7.657 C54.7335,7.657 54.9225,7.668 55.1105,7.683 C55.2275,7.691 55.3435,7.7 55.4605,7.702 C55.7835,7.71 56.0875,7.855 56.2965,8.098 C56.5055,8.343 56.5985,8.666 56.5545,8.986 L53.7765,29.097 C53.7025,29.625 53.2715,30.015 52.7405,30.069 C49.8265,30.365 47.0045,31.406 44.5765,33.079 C44.3825,33.214 44.1585,33.279 43.9355,33.279 L43.9355,33.279 Z M30.7495,18.432 L44.0535,30.722 C46.3715,29.278 48.9685,28.322 51.6585,27.928 L54.1465,9.917 C45.6205,10.008 37.3745,13.014 30.7495,18.432 L30.7495,18.432 Z M47.9375,86.916 C29.9105,83.878 16.0425,68.707 14.7395,50.473 C14.0675,41.088 16.6525,31.987 22.1035,24.376 C22.2915,24.113 22.5845,23.944 22.9065,23.91 C23.2275,23.878 23.5495,23.985 23.7865,24.205 L38.7485,38.026 C39.1305,38.38 39.2105,38.944 38.9675,39.405 C37.6315,41.95 36.9545,44.695 36.9545,47.563 C36.9545,57.261 44.8445,65.152 54.5415,65.152 C55.8675,65.152 57.2405,64.985 58.6225,64.656 C59.1215,64.537 59.6395,64.77 59.8805,65.224 L69.4445,83.2 C69.5955,83.486 69.6195,83.822 69.5055,84.125 C69.3925,84.429 69.1555,84.668 68.8525,84.784 C62.1245,87.373 55.0175,88.109 47.9375,86.916 L47.9375,86.916 Z M23.2095,26.745 C19.0725,32.947 16.8925,40.117 16.8925,47.563 C16.8925,68.323 33.7825,85.213 54.5415,85.213 C58.7065,85.213 62.8395,84.509 66.8415,83.117 L58.2865,67.039 C57.0235,67.285 55.7665,67.41 54.5415,67.41 C43.5995,67.41 34.6955,58.507 34.6955,47.563 C34.6955,44.651 35.3495,41.747 36.5935,39.11 L23.2095,26.745 Z" id="Fill-11" fill="#343852"></path>
        </g>
    </g>
</svg>