<?xml version="1.0" encoding="UTF-8"?>
<svg width="120px" height="120px" viewBox="0 0 120 120" version="1.1" xmlns="http://www.w3.org/2000/svg" xmlns:xlink="http://www.w3.org/1999/xlink">
    <title>02.Icons/Illustrative/Charts - KPI</title>
    <g id="02.Icons/Illustrative/Charts---KPI" stroke="none" stroke-width="1" fill="none" fill-rule="evenodd">
        <g id="Charts---KPI" transform="translate(5.647900, 22.958200)">
            <path d="M38.973,83.055 L38.971,83.055 C17.448,83.055 0,65.889 0,44.714 L0,1.443 L0,0 C3.047,3.337 9.164,6.179 21.584,6.372 L38.973,6.372 C60.496,6.372 77.944,23.537 77.944,44.714 C77.944,65.889 60.496,83.055 38.973,83.055" id="Fill-1" fill="#F2F3F7"></path>
            <path d="M36.5086,35.52 C36.3056,35.52 36.1006,35.468 35.9146,35.36 L17.7356,24.824 C17.4516,24.66 17.2486,24.386 17.1746,24.067 C17.0996,23.748 17.1616,23.413 17.3426,23.14 C24.7736,11.994 37.1736,4.827 50.5116,3.96782332 C50.8366,3.963 51.1586,4.064 51.3986,4.287 C51.6376,4.513 51.7726,4.824 51.7726,5.153 L51.7726,26.223 C51.7726,26.825 51.3226,27.331 50.7246,27.4 C45.5526,28.005 40.7136,30.793 37.4496,35.055 C37.2186,35.358 36.8666,35.52 36.5086,35.52" id="Fill-3" fill="#969CBB"></path>
            <path d="M69.8742,35.5197 C69.5162,35.5197 69.1642,35.3577 68.9332,35.0547 C65.6692,30.7937 60.8302,28.0047 55.6582,27.3997 C55.0602,27.3307 54.6102,26.8247 54.6102,26.2227 L54.6102,5.1527 C54.6102,4.8237 54.7452,4.5127 54.9842,4.2867 C55.2242,4.0627 55.5422,3.9487 55.8712,3.9697 C69.2092,4.8267 81.6092,11.9937 89.0402,23.1407 C89.2212,23.4127 89.2832,23.7477 89.2082,24.0667 C89.1342,24.3857 88.9312,24.6597 88.6472,24.8247 L70.4682,35.3597 C70.2822,35.4677 70.0772,35.5197 69.8742,35.5197" id="Fill-5" fill="#1D71B8"></path>
            <path d="M90.9568,66.8459 C90.7508,66.8459 90.5468,66.7929 90.3638,66.6869 L72.0908,56.1509 C71.5658,55.8489 71.3538,55.1979 71.5998,54.6429 C72.6458,52.2909 73.1758,49.7239 73.1758,47.0129 C73.1758,44.2549 72.6328,41.6229 71.6068,39.3999 C71.3498,38.8429 71.5598,38.1809 72.0908,37.8749 L90.3638,27.3399 C90.6478,27.1769 90.9868,27.1379 91.2978,27.2309 C91.6108,27.3259 91.8708,27.5459 92.0178,27.8369 C95.0078,33.8199 96.5238,40.2709 96.5238,47.0129 C96.5238,53.7559 95.0078,60.2079 92.0178,66.1899 C91.8708,66.4819 91.6108,66.7009 91.2978,66.7959 C91.1868,66.8289 91.0718,66.8459 90.9568,66.8459" id="Fill-7" fill="#D20050"></path>
            <path d="M15.8115,66.8459 C15.6965,66.8459 15.5815,66.8289 15.4705,66.7959 C15.1575,66.7009 14.8975,66.4819 14.7505,66.1899 C11.7605,60.2079 10.2445,53.7559 10.2445,47.0129 C10.2445,40.2709 11.7605,33.8199 14.7505,27.8369 C14.8975,27.5459 15.1575,27.3259 15.4705,27.2309 C15.7815,27.1379 16.1205,27.1769 16.4045,27.3399 L34.6775,37.8749 C35.2025,38.1789 35.4145,38.8299 35.1685,39.3849 C34.1225,41.7369 33.5925,44.3039 33.5925,47.0129 C33.5925,49.7239 34.1225,52.2909 35.1685,54.6429 C35.4145,55.1979 35.2025,55.8489 34.6775,56.1509 L16.4045,66.6869 C16.2215,66.7929 16.0175,66.8459 15.8115,66.8459" id="Fill-9" fill="#DEE0EA"></path>
            <path d="M53.6855,53.734 C52.1625,53.734 50.6645,53.311 49.3385,52.486 C47.4625,51.321 46.1525,49.496 45.6505,47.344 C45.1485,45.194 45.5125,42.977 46.6775,41.102 C48.0615,38.875 50.3935,37.459 52.9955,37.238 L65.7035,21.483 C66.0975,20.995 66.8015,20.9 67.3125,21.26 L70.2335,23.332 C70.7165,23.675 70.8725,24.322 70.5985,24.849 L61.3995,42.484 C62.3405,44.907 62.1005,47.609 60.7235,49.826 C59.5575,51.702 57.7315,53.012 55.5815,53.513 C54.9515,53.66 54.3165,53.734 53.6855,53.734" id="Fill-11" fill="#FFFFFF"></path>
            <path d="M36.5084,35.5203 C36.3054,35.5203 36.1004,35.4683 35.9144,35.3603 L17.7354,24.8243 C17.4514,24.6593 17.2484,24.3863 17.1744,24.0663 C17.1004,23.7483 17.1614,23.4133 17.3424,23.1403 C24.7734,11.9943 37.1734,4.8273 50.5114,3.9683 C50.8364,3.9613 51.1594,4.0633 51.3984,4.2873 C51.6374,4.5113 51.7724,4.8243 51.7724,5.1523 L51.7724,26.2233 C51.7724,26.8253 51.3224,27.3303 50.7244,27.4003 C45.5524,28.0053 40.7134,30.7933 37.4514,35.0553 C37.2184,35.3583 36.8664,35.5203 36.5084,35.5203 L36.5084,35.5203 Z M20.0324,23.4153 L36.2224,32.7983 C39.6194,28.7673 44.3294,26.0503 49.4014,25.1953 L49.4014,6.4363 C37.6974,7.5623 26.8754,13.8193 20.0324,23.4153 L20.0324,23.4153 Z M90.9564,66.8453 C90.7504,66.8453 90.5464,66.7923 90.3644,66.6873 L72.0904,56.1513 C71.5654,55.8483 71.3534,55.1973 71.6004,54.6423 C72.6454,52.2903 73.1754,49.7233 73.1754,47.0133 C73.1754,44.2553 72.6324,41.6223 71.6074,39.3993 C71.3494,38.8423 71.5594,38.1823 72.0904,37.8763 L90.3644,27.3403 C90.6474,27.1763 90.9864,27.1373 91.2984,27.2303 C91.6114,27.3253 91.8704,27.5453 92.0184,27.8363 C95.0084,33.8193 96.5244,40.2713 96.5244,47.0133 C96.5244,53.7553 95.0084,60.2083 92.0184,66.1913 C91.8704,66.4823 91.6114,66.7003 91.2984,66.7953 C91.1864,66.8303 91.0714,66.8453 90.9564,66.8453 L90.9564,66.8453 Z M74.1754,54.6163 L90.4424,63.9953 C92.9054,58.6663 94.1534,52.9603 94.1534,47.0133 C94.1534,41.0663 92.9054,35.3603 90.4424,30.0323 L74.1834,39.4063 C75.0774,41.7063 75.5464,44.3133 75.5464,47.0133 C75.5464,49.6843 75.0854,52.2353 74.1754,54.6163 L74.1754,54.6163 Z M15.8124,66.8453 C15.6974,66.8453 15.5824,66.8303 15.4704,66.7953 C15.1574,66.7003 14.8964,66.4823 14.7504,66.1913 C11.7604,60.2083 10.2444,53.7553 10.2444,47.0133 C10.2444,40.2713 11.7604,33.8193 14.7504,27.8363 C14.8964,27.5453 15.1574,27.3253 15.4704,27.2303 C15.7824,27.1373 16.1214,27.1763 16.4034,27.3403 L34.6774,37.8763 C35.2034,38.1793 35.4154,38.8303 35.1684,39.3843 C34.1234,41.7373 33.5934,44.3043 33.5934,47.0133 C33.5934,49.7233 34.1234,52.2903 35.1684,54.6423 C35.4154,55.1973 35.2034,55.8483 34.6774,56.1513 L16.4034,66.6873 C16.2224,66.7923 16.0184,66.8453 15.8124,66.8453 L15.8124,66.8453 Z M16.3264,30.0323 C13.8624,35.3603 12.6154,41.0663 12.6154,47.0133 C12.6154,52.9603 13.8624,58.6663 16.3264,63.9953 L32.5924,54.6163 C31.6824,52.2353 31.2224,49.6843 31.2224,47.0133 C31.2224,44.3433 31.6824,41.7923 32.5924,39.4113 L16.3264,30.0323 Z M89.0394,23.1403 C81.6084,11.9943 69.2104,4.8273 55.8714,3.9683 C55.5414,3.9493 55.2234,4.0623 54.9844,4.2873 C54.7444,4.5113 54.6094,4.8243 54.6094,5.1523 L54.6094,26.2233 C54.6094,26.8253 55.0604,27.3303 55.6584,27.4003 C57.1644,27.5753 58.6354,27.9573 60.0554,28.4873 L61.6144,26.5543 C60.1224,25.9353 58.5734,25.4633 56.9804,25.1953 L56.9804,6.4363 C68.6844,7.5623 79.5064,13.8193 86.3494,23.4153 L70.1594,32.7983 C69.4124,31.9113 68.5934,31.1013 67.7304,30.3473 L66.5974,32.5213 C67.4364,33.2973 68.2274,34.1343 68.9324,35.0553 C69.1634,35.3583 69.5154,35.5203 69.8734,35.5203 C70.0764,35.5203 70.2814,35.4683 70.4674,35.3603 L88.6484,24.8243 C88.9304,24.6593 89.1334,24.3863 89.2084,24.0663 C89.2824,23.7483 89.2224,23.4133 89.0394,23.1403 L89.0394,23.1403 Z M53.6854,53.7343 C52.1614,53.7343 50.6654,53.3093 49.3374,52.4853 C47.4614,51.3213 46.1534,49.4953 45.6504,47.3443 C45.1474,45.1943 45.5124,42.9773 46.6784,41.1023 C48.0614,38.8753 50.3934,37.4583 52.9964,37.2383 L65.7044,21.4833 C66.0974,20.9943 66.8004,20.9003 67.3134,21.2603 L70.2334,23.3323 C70.7164,23.6753 70.8724,24.3223 70.5984,24.8493 L61.3994,42.4843 C62.3404,44.9073 62.1014,47.6093 60.7234,49.8263 C59.5584,51.7023 57.7324,53.0113 55.5814,53.5133 C54.9524,53.6603 54.3164,53.7343 53.6854,53.7343 L53.6854,53.7343 Z M66.8494,23.8393 L54.5084,39.1383 C54.2884,39.4123 53.9574,39.5733 53.6074,39.5793 C51.5864,39.6153 49.7484,40.6513 48.6924,42.3513 C47.8614,43.6903 47.6004,45.2713 47.9584,46.8053 C48.3174,48.3383 49.2524,49.6413 50.5894,50.4713 C51.9274,51.3033 53.5104,51.5633 55.0424,51.2053 C56.5754,50.8463 57.8784,49.9123 58.7094,48.5743 C59.7654,46.8743 59.8814,44.7673 59.0174,42.9403 C58.8574,42.6053 58.8654,42.2153 59.0374,41.8853 L68.0174,24.6673 L66.8494,23.8393 Z" id="Fill-13" fill="#343852"></path>
        </g>
    </g>
</svg>