<?xml version="1.0" encoding="UTF-8"?>
<svg width="120px" height="120px" viewBox="0 0 120 120" version="1.1" xmlns="http://www.w3.org/2000/svg" xmlns:xlink="http://www.w3.org/1999/xlink">
    <title>02.Icons/Illustrative/Charts - Liste</title>
    <g id="02.Icons/Illustrative/Charts---Liste" stroke="none" stroke-width="1" fill="none" fill-rule="evenodd">
        <g id="Charts---Liste" transform="translate(8.936200, 5.588400)">
            <path d="M37.786,80.525 L37.784,80.525 C16.916,80.525 0,63.883 0,43.352 L0,1.399 L0,0 C2.954,3.236 8.886,5.991 20.927,6.177 L37.786,6.177 C58.654,6.177 75.57,22.821 75.57,43.352 C75.57,63.883 58.654,80.525 37.786,80.525" id="Fill-1" fill="#F2F3F7"></path>
            <path d="M76.0966,94.3374 L48.2676,94.3374 L20.4376,94.3374 C18.6956,94.3374 17.2816,92.9244 17.2816,91.1814 L17.2816,20.4444 C17.2816,18.7024 18.6956,17.2884 20.4376,17.2884 L76.0966,17.2884 C77.8396,17.2884 79.2526,18.7024 79.2526,20.4444 L79.2526,55.8134 L79.2526,91.1814 C79.2526,92.9244 77.8396,94.3374 76.0966,94.3374" id="Fill-3" fill="#FFFFFF"></path>
            <path d="M76.0798,18.3316 L56.4418,18.3316 L34.8578,18.3316 L20.3978,18.3316 C19.2068,18.3316 18.2388,19.2996 18.2388,20.4916 L18.2388,27.3756 L78.2398,27.3756 L78.2398,20.4916 C78.2398,19.2996 77.2708,18.3316 76.0798,18.3316" id="Fill-5" fill="#1D71B8"></path>
            <path d="M26.5598,43.9066 L35.8268,43.9066 L35.8268,35.8876 L26.5598,35.8876 L26.5598,43.9066 Z M26.5598,81.3226 L35.8268,81.3226 L35.8268,73.3026 L26.5598,73.3026 L26.5598,81.3226 Z M26.5598,62.6136 L35.8268,62.6136 L35.8268,54.5946 L26.5598,54.5946 L26.5598,62.6136 Z" id="Fill-7" fill="#DEE0EA"></path>
            <path d="M69.687,59.7342 C58.377,59.7342 49.21,68.9022 49.21,80.2112 C49.21,91.5212 58.377,100.6882 69.687,100.6882 C80.997,100.6882 90.164,91.5212 90.164,80.2112 C90.164,68.9022 80.997,59.7342 69.687,59.7342" id="Fill-9" fill="#FFFFFF"></path>
            <path d="M36.8055,45.8649 L25.5815,45.8649 C25.0405,45.8649 24.6025,45.4259 24.6025,44.8859 L24.6025,34.9089 C24.6025,34.3689 25.0405,33.9299 25.5815,33.9299 L36.8055,33.9299 C37.3465,33.9299 37.7855,34.3689 37.7855,34.9089 L37.7855,44.8859 C37.7855,45.4259 37.3465,45.8649 36.8055,45.8649 L36.8055,45.8649 Z M26.5605,43.9059 L35.8275,43.9059 L35.8275,35.8869 L26.5605,35.8869 L26.5605,43.9059 Z M36.8055,83.2799 L25.5815,83.2799 C25.0405,83.2799 24.6025,82.8409 24.6025,82.3019 L24.6025,72.3229 C24.6025,71.7829 25.0405,71.3439 25.5815,71.3439 L36.8055,71.3439 C37.3465,71.3439 37.7855,71.7829 37.7855,72.3229 L37.7855,82.3019 C37.7855,82.8409 37.3465,83.2799 36.8055,83.2799 L36.8055,83.2799 Z M26.5605,81.3229 L35.8275,81.3229 L35.8275,73.3029 L26.5605,73.3029 L26.5605,81.3229 Z M36.8055,64.5719 L25.5815,64.5719 C25.0405,64.5719 24.6025,64.1329 24.6025,63.5929 L24.6025,53.6159 C24.6025,53.0759 25.0405,52.6369 25.5815,52.6369 L36.8055,52.6369 C37.3465,52.6369 37.7855,53.0759 37.7855,53.6159 L37.7855,63.5929 C37.7855,64.1329 37.3465,64.5719 36.8055,64.5719 L36.8055,64.5719 Z M26.5605,62.6149 L35.8275,62.6149 L35.8275,54.5959 L26.5605,54.5959 L26.5605,62.6149 Z M76.0975,16.2579 L20.4385,16.2579 C18.1305,16.2579 16.2525,18.1359 16.2525,20.4449 L16.2525,91.1819 C16.2525,93.4899 18.1305,95.3679 20.4385,95.3679 L48.2675,95.3679 C48.8375,95.3679 49.2975,94.9069 49.2975,94.3379 C49.2975,93.7689 48.8375,93.3069 48.2675,93.3069 L20.4385,93.3069 C19.2655,93.3069 18.3125,92.3539 18.3125,91.1819 L18.3125,20.4449 C18.3125,19.2729 19.2655,18.3189 20.4385,18.3189 L76.0975,18.3189 C77.2685,18.3189 78.2215,19.2729 78.2215,20.4449 L78.2215,26.3449 L25.8315,26.3449 C25.2615,26.3449 24.8015,26.8059 24.8015,27.3749 C24.8015,27.9449 25.2615,28.4059 25.8315,28.4059 L78.2215,28.4059 L78.2215,55.8139 C78.2215,56.3829 78.6825,56.8439 79.2515,56.8439 C79.8215,56.8439 80.2825,56.3829 80.2825,55.8139 L80.2825,20.4449 C80.2825,18.1359 78.4045,16.2579 76.0975,16.2579 L76.0975,16.2579 Z M69.8365,60.4509 C80.7255,60.4509 89.5845,69.3099 89.5845,80.1989 C89.5845,91.0869 80.7255,99.9459 69.8365,99.9459 C58.9485,99.9459 50.0895,91.0869 50.0895,80.1989 C50.0895,69.3099 58.9485,60.4509 69.8365,60.4509 L69.8365,60.4509 Z M69.8365,58.3899 C57.7925,58.3899 48.0285,68.1549 48.0285,80.1989 C48.0285,92.2429 57.7925,102.0059 69.8365,102.0059 C81.8815,102.0059 91.6455,92.2429 91.6455,80.1989 C91.6455,68.1549 81.8815,58.3899 69.8365,58.3899 L69.8365,58.3899 Z" id="Fill-10" fill="#343852"></path>
            <path d="M43.3092,54.863 C43.3092,54.322 43.7482,53.883 44.2892,53.883 L66.7972,53.883 C67.3382,53.883 67.7772,54.322 67.7772,54.863 C67.7772,55.403 67.3382,55.842 66.7972,55.842 L44.2892,55.842 C43.7482,55.842 43.3092,55.403 43.3092,54.863 M44.2892,37.135 L66.7972,37.135 C67.3382,37.135 67.7772,36.696 67.7772,36.155 C67.7772,35.615 67.3382,35.176 66.7972,35.176 L44.2892,35.176 C43.7482,35.176 43.3092,35.615 43.3092,36.155 C43.3092,36.696 43.7482,37.135 44.2892,37.135 M44.2892,44.618 L57.8392,44.618 C58.3792,44.618 58.8182,44.179 58.8182,43.639 C58.8182,43.099 58.3792,42.66 57.8392,42.66 L44.2892,42.66 C43.7482,42.66 43.3092,43.099 43.3092,43.639 C43.3092,44.179 43.7482,44.618 44.2892,44.618 M44.2892,63.325 L56.0252,63.325 C56.7942,62.695 57.6192,62.135 58.4702,61.612 C58.2992,61.465 58.0822,61.367 57.8392,61.367 L44.2892,61.367 C43.7482,61.367 43.3092,61.806 43.3092,62.346 C43.3092,62.887 43.7482,63.325 44.2892,63.325 M44.2892,74.55 L48.7942,74.55 C48.9732,73.883 49.1812,73.231 49.4202,72.592 L44.2892,72.592 C43.7482,72.592 43.3092,73.03 43.3092,73.571 C43.3092,74.111 43.7482,74.55 44.2892,74.55 M48.0292,80.198 C48.0292,80.157 48.0352,80.117 48.0352,80.074 L44.2892,80.074 C43.7482,80.074 43.3092,80.513 43.3092,81.053 C43.3092,81.594 43.7482,82.033 44.2892,82.033 L48.1222,82.033 C48.0712,81.426 48.0292,80.817 48.0292,80.198" id="Fill-11" fill="#C5C8DA"></path>
            <path d="M63.2836,89.2147 L59.1226,89.2147 C58.7826,89.2147 58.5056,88.9387 58.5056,88.5987 L58.5056,80.2617 C58.5056,79.9217 58.7826,79.6457 59.1226,79.6457 L63.2836,79.6457 C63.6236,79.6457 63.8996,79.9217 63.8996,80.2617 L63.8996,88.5987 C63.8996,88.9387 63.6236,89.2147 63.2836,89.2147 M72.3836,88.5987 L72.3836,75.6357 C72.3836,75.2957 72.1086,75.0207 71.7676,75.0207 L67.6056,75.0207 C67.2656,75.0207 66.9906,75.2957 66.9906,75.6357 L66.9906,88.5987 C66.9906,88.9387 67.2656,89.2147 67.6056,89.2147 L71.7676,89.2147 C72.1086,89.2147 72.3836,88.9387 72.3836,88.5987 M80.8676,88.5987 L80.8676,70.6917 C80.8676,70.3517 80.5916,70.0757 80.2516,70.0757 L76.0906,70.0757 C75.7506,70.0757 75.4746,70.3517 75.4746,70.6917 L75.4746,88.5987 C75.4746,88.9387 75.7506,89.2147 76.0906,89.2147 L80.2516,89.2147 C80.5916,89.2147 80.8676,88.9387 80.8676,88.5987" id="Fill-12" fill="#D20050"></path>
            <path d="M63.2831,90.2452 L59.1221,90.2452 C58.2141,90.2452 57.4761,89.5062 57.4761,88.5992 L57.4761,80.2602 C57.4761,79.3532 58.2141,78.6152 59.1221,78.6152 L63.2831,78.6152 C64.1911,78.6152 64.9291,79.3532 64.9291,80.2602 L64.9291,88.5992 C64.9291,89.5062 64.1911,90.2452 63.2831,90.2452 L63.2831,90.2452 Z M59.5371,88.1842 L62.8691,88.1842 L62.8691,80.6752 L59.5371,80.6752 L59.5371,88.1842 Z M71.7681,90.2452 L67.6061,90.2452 C66.6981,90.2452 65.9601,89.5062 65.9601,88.5992 L65.9601,75.6352 C65.9601,74.7282 66.6981,73.9892 67.6061,73.9892 L71.7681,73.9892 C72.6761,73.9892 73.4141,74.7282 73.4141,75.6352 L73.4141,88.5992 C73.4141,89.5062 72.6761,90.2452 71.7681,90.2452 L71.7681,90.2452 Z M68.0201,88.1842 L71.3531,88.1842 L71.3531,76.0502 L68.0201,76.0502 L68.0201,88.1842 Z M80.2521,90.2452 L76.0911,90.2452 C75.1831,90.2452 74.4441,89.5062 74.4441,88.5992 L74.4441,70.6922 C74.4441,69.7832 75.1831,69.0442 76.0911,69.0442 L80.2521,69.0442 C81.1601,69.0442 81.8981,69.7832 81.8981,70.6922 L81.8981,88.5992 C81.8981,89.5062 81.1601,90.2452 80.2521,90.2452 L80.2521,90.2452 Z M76.5051,88.1842 L79.8371,88.1842 L79.8371,71.1062 L76.5051,71.1062 L76.5051,88.1842 Z" id="Fill-13" fill="#343852"></path>
        </g>
    </g>
</svg>