<?xml version="1.0" encoding="UTF-8"?>
<svg width="120px" height="120px" viewBox="0 0 120 120" version="1.1" xmlns="http://www.w3.org/2000/svg" xmlns:xlink="http://www.w3.org/1999/xlink">
    <title>02.Icons/Illustrative/Charts - Indicateurs</title>
    <g id="02.Icons/Illustrative/Charts---Indicateurs" stroke="none" stroke-width="1" fill="none" fill-rule="evenodd">
        <g id="Charts---Indicateurs" transform="translate(6.371900, 6.737600)">
            <path d="M38.063,81.114 L38.061,81.114 C17.041,81.114 0,64.35 0,43.669 L0,1.409 L0,0 C2.976,3.259 8.951,6.035 21.081,6.222 L38.063,6.222 C59.083,6.222 76.123,22.987 76.123,43.669 C76.123,64.35 59.083,81.114 38.063,81.114" id="Fill-1" fill="#F2F3F7"></path>
            <path d="M14.972,27.1551 C14.636,27.1551 14.362,26.8811 14.362,26.5451 L14.362,19.8111 C14.362,19.4741 14.636,19.2001 14.972,19.2001 L90.526,19.2001 C90.863,19.2001 91.136,19.4741 91.136,19.8111 L91.136,26.5451 C91.136,26.8811 90.863,27.1551 90.526,27.1551 L14.972,27.1551 Z" id="Fill-3" fill="#1D71B8"></path>
            <path d="M56.52,79.0041 L56.52,89.7861 C56.52,90.3481 56.063,90.8041 55.502,90.8041 L52.368,90.8041 C51.725,90.8041 51.204,90.2821 51.204,89.6391 L51.204,79.0041 M34.167,79.0041 L29.543,94.2881 C29.543,95.2121 30.065,95.9611 30.708,95.9611 L33.841,95.9611 C34.403,95.9611 34.86,95.3061 34.86,94.4971 L39.484,79.0041 M67.779,79.0041 L72.404,94.4971 C72.404,95.3061 72.86,95.9611 73.422,95.9611 L76.556,95.9611 C77.199,95.9611 77.72,95.2121 77.72,94.2881 L73.096,79.0041" id="Fill-5" fill="#C5C8DA"></path>
            <path d="M16.6905,27.1552 L16.6905,78.0552 C16.6905,78.3922 16.9645,78.6652 17.3005,78.6652 L88.1965,78.6652 C88.5345,78.6652 88.8075,78.3922 88.8075,78.0552 L88.8075,27.1552 L16.6905,27.1552 Z" id="Fill-7" fill="#FFFFFF"></path>
            <path d="M87.7536,28.2088 L87.7536,28.2098 L87.7536,77.6118 L74.4146,77.6118 L73.7756,77.6118 L72.2106,77.6118 L69.0926,77.6118 L66.2626,77.6118 L57.5756,77.6118 L57.5696,77.6118 L55.4686,77.6118 L52.2586,77.6118 L50.1496,77.6118 L41.0016,77.6118 L38.1706,77.6118 L35.0526,77.6118 L33.4866,77.6118 L32.8486,77.6118 L17.7446,77.6118 L17.7446,28.2098 L17.7446,28.2088 L87.7536,28.2088 Z M90.5266,18.1458 L14.9716,18.1458 C14.0526,18.1458 13.3066,18.8918 13.3066,19.8108 L13.3066,26.5448 C13.3066,27.4648 14.0526,28.2098 14.9716,28.2098 L15.6356,28.2098 L15.6356,78.0558 C15.6356,78.9748 16.3816,79.7208 17.3006,79.7208 L32.8486,79.7208 L28.5346,93.9828 C28.5046,94.0818 28.4896,94.1848 28.4896,94.2878 C28.4896,95.8168 29.4636,97.0158 30.7076,97.0158 L33.8416,97.0158 C34.9556,97.0158 35.8406,95.9958 35.9096,94.6658 L40.3706,79.7208 L50.1496,79.7208 L50.1496,89.6388 C50.1496,90.8638 51.1446,91.8588 52.3676,91.8588 L55.5016,91.8588 C56.6456,91.8588 57.5756,90.9288 57.5756,89.7848 L57.5756,79.7208 L66.8926,79.7208 L71.3536,94.6658 C71.4216,95.9958 72.3066,97.0158 73.4226,97.0158 L76.5556,97.0158 C77.7996,97.0158 78.7746,95.8168 78.7746,94.2878 C78.7746,94.1848 78.7586,94.0818 78.7296,93.9828 L74.4146,79.7208 L88.1976,79.7208 C89.1166,79.7208 89.8626,78.9748 89.8626,78.0558 L89.8626,28.2098 L90.5266,28.2098 C91.4456,28.2098 92.1916,27.4648 92.1916,26.5448 L92.1916,19.8108 C92.1916,18.8918 91.4456,18.1458 90.5266,18.1458 L90.5266,18.1458 Z M15.4156,26.1008 L15.4156,20.2548 L90.0826,20.2548 L90.0826,26.1008 L88.2106,26.1008 C88.2056,26.1008 88.2016,26.0998 88.1976,26.0998 L17.3006,26.0998 C17.2966,26.0998 17.2926,26.1008 17.2876,26.1008 L15.4156,26.1008 Z M73.5516,94.9068 C73.5096,94.8338 73.4576,94.6898 73.4576,94.4968 C73.4576,94.3948 73.4426,94.2928 73.4136,94.1958 L69.0926,79.7208 L72.2106,79.7208 L76.6596,94.4228 C76.6316,94.7228 76.5196,94.8938 76.5556,94.9068 L73.5516,94.9068 Z M52.3676,89.7508 C52.3066,89.7508 52.2586,89.7008 52.2586,89.6388 L52.2586,79.7208 L55.4686,79.7208 L55.5016,89.7508 L52.3676,89.7508 Z M30.8026,94.9298 C30.7556,94.8968 30.6336,94.7228 30.6046,94.4228 L35.0526,79.7208 L38.1706,79.7208 L33.8496,94.1958 C33.8186,94.2928 33.8056,94.3948 33.8056,94.4968 C33.8056,94.6908 33.7536,94.8348 33.7106,94.9068 L30.8026,94.9298 Z" id="Fill-9" fill="#343852"></path>
            <path d="M82.6794,74.7632 L22.6494,74.7632 C21.7304,74.7632 20.9854,74.0182 20.9854,73.0982 L20.9854,32.7212 C20.9854,31.8022 21.7304,31.0572 22.6494,31.0572 L82.6794,31.0572 C83.5984,31.0572 84.3444,31.8022 84.3444,32.7212 L84.3444,73.0982 C84.3444,74.0182 83.5984,74.7632 82.6794,74.7632" id="Fill-11" fill="#F2F3F7"></path>
            <path d="M44.2209,46.7844 C44.2209,51.4044 40.4759,55.1494 35.8559,55.1494 C31.2359,55.1494 27.4899,51.4044 27.4899,46.7844 C27.4899,42.1644 31.2359,38.4194 35.8559,38.4194 L35.8559,46.7844 L44.2209,46.7844 Z" id="Fill-13" fill="#D20050"></path>
            <path d="M49.0622,41.9949 C49.0622,37.3749 45.3172,33.6299 40.6972,33.6299 L40.6972,41.9949 L49.0622,41.9949 Z" id="Fill-15" fill="#C5C8DA"></path>
            <path d="M35.8557,56.2045 C30.6607,56.2045 26.4367,51.9785 26.4367,46.7845 C26.4367,41.5905 30.6607,37.3645 35.8557,37.3645 C36.4387,37.3645 36.9097,37.8365 36.9097,38.4185 L36.9097,45.7295 L44.2207,45.7295 C44.8037,45.7295 45.2747,46.2005 45.2747,46.7845 C45.2747,51.9785 41.0497,56.2045 35.8557,56.2045 L35.8557,56.2045 Z M34.8017,39.5505 C31.2687,40.0615 28.5447,43.1115 28.5447,46.7845 C28.5447,50.8155 31.8237,54.0955 35.8557,54.0955 C39.5287,54.0955 42.5777,51.3725 43.0907,47.8385 L35.8557,47.8385 C35.2727,47.8385 34.8017,47.3675 34.8017,46.7845 L34.8017,39.5505 Z M49.0627,43.0495 L40.6977,43.0495 C40.1137,43.0495 39.6427,42.5785 39.6427,41.9955 L39.6427,33.6295 C39.6427,33.0475 40.1137,32.5745 40.6977,32.5745 C45.8907,32.5745 50.1167,36.8005 50.1167,41.9955 C50.1167,42.5785 49.6447,43.0495 49.0627,43.0495 L49.0627,43.0495 Z M41.7517,40.9405 L47.9307,40.9405 C47.4697,37.7515 44.9397,35.2225 41.7517,34.7605 L41.7517,40.9405 Z" id="Fill-17" fill="#343852"></path>
            <path d="M78.7007,69.0939 L60.5307,69.0939 L60.5307,57.3279 C60.5307,56.7449 60.0577,56.2729 59.4757,56.2729 C58.8927,56.2729 58.4217,56.7449 58.4217,57.3279 L58.4217,70.1479 C58.4217,70.7309 58.8927,71.2029 59.4757,71.2029 L78.7007,71.2029 C79.2837,71.2029 79.7547,70.7309 79.7547,70.1479 C79.7547,69.5649 79.2837,69.0939 78.7007,69.0939" id="Fill-19" fill="#343852"></path>
            <path d="M64.0315,67.5917 C63.4485,67.5917 62.9775,67.1207 62.9775,66.5377 L62.9775,62.7807 C62.9775,62.1977 63.4485,61.7267 64.0315,61.7267 C64.6145,61.7267 65.0855,62.1977 65.0855,62.7807 L65.0855,66.5377 C65.0855,67.1207 64.6145,67.5917 64.0315,67.5917 M69.7325,66.5377 L69.7325,57.6957 C69.7325,57.1137 69.2615,56.6417 68.6775,56.6417 C68.0955,56.6417 67.6235,57.1137 67.6235,57.6957 L67.6235,66.5377 C67.6235,67.1207 68.0955,67.5917 68.6775,67.5917 C69.2615,67.5917 69.7325,67.1207 69.7325,66.5377 M74.3795,66.5377 L74.3795,60.2757 C74.3795,59.6927 73.9075,59.2217 73.3255,59.2217 C72.7425,59.2217 72.2715,59.6927 72.2715,60.2757 L72.2715,66.5377 C72.2715,67.1207 72.7425,67.5917 73.3255,67.5917 C73.9075,67.5917 74.3795,67.1207 74.3795,66.5377 M78.8435,66.5377 L78.8435,63.4057 C78.8435,62.8237 78.3725,62.3517 77.7895,62.3517 C77.2065,62.3517 76.7355,62.8237 76.7355,63.4057 L76.7355,66.5377 C76.7355,67.1207 77.2065,67.5917 77.7895,67.5917 C78.3725,67.5917 78.8435,67.1207 78.8435,66.5377" id="Fill-21" fill="#969CBB"></path>
            <path d="M32.4162,61.2381 L29.5792,61.2381 L26.5502,66.3051 L26.5322,66.3381 L26.5322,67.7961 L30.2902,67.7961 L30.2902,69.2641 L32.4162,69.2641 L32.4162,67.7961 L33.3592,67.7961 L33.3592,65.9861 L32.4162,65.9861 L32.4162,61.2381 Z M28.8252,65.9861 L30.2902,63.4451 L30.2902,65.9861 L28.8252,65.9861 Z M40.1832,67.2901 L40.1832,69.2641 L33.5172,69.2641 L35.6962,66.9821 C36.4022,66.2411 36.9182,65.6041 37.2732,65.0351 C37.4672,64.7331 37.6732,64.3711 37.6732,63.8951 C37.6732,63.6131 37.6032,63.3801 37.4752,63.2391 C37.4232,63.1821 37.2732,63.0491 37.0012,63.0491 C36.6862,63.0491 36.5092,63.2141 36.4312,63.3131 C36.2822,63.5081 36.1922,63.9031 36.1792,64.1911 L36.1742,64.3181 L33.8322,64.3181 L33.8332,64.1851 C33.8462,62.9571 34.4662,62.2061 34.7312,61.9391 C35.3132,61.3571 36.0852,61.0631 37.0262,61.0631 C38.2152,61.0631 38.9232,61.5211 39.3072,61.9041 C39.8342,62.4351 40.1022,63.1071 40.1022,63.9071 C40.1022,65.0401 39.4992,65.7561 38.9082,66.3071 L37.8502,67.2901 L40.1832,67.2901 Z" id="Fill-23" fill="#343852"></path>
            <path d="M50.8728,64.445 L44.2208,64.445 C43.6378,64.445 43.1668,63.974 43.1668,63.391 C43.1668,62.808 43.6378,62.336 44.2208,62.336 L50.8728,62.336 C51.4558,62.336 51.9268,62.808 51.9268,63.391 C51.9268,63.974 51.4558,64.445 50.8728,64.445 M48.6018,67.262 C48.6018,66.679 48.1308,66.208 47.5478,66.208 L44.2208,66.208 C43.6378,66.208 43.1668,66.679 43.1668,67.262 C43.1668,67.845 43.6378,68.317 44.2208,68.317 L47.5478,68.317 C48.1308,68.317 48.6018,67.845 48.6018,67.262" id="Fill-25" fill="#C5C8DA"></path>
            <path d="M76.2827,50.3072 L59.1427,50.3072 C58.5597,50.3072 58.0877,49.8362 58.0877,49.2532 C58.0877,48.6702 58.5597,48.1982 59.1427,48.1982 L76.2827,48.1982 C76.8657,48.1982 77.3367,48.6702 77.3367,49.2532 C77.3367,49.8362 76.8657,50.3072 76.2827,50.3072 M71.6917,53.1242 C71.6917,52.5412 71.2207,52.0702 70.6377,52.0702 L59.1427,52.0702 C58.5597,52.0702 58.0877,52.5412 58.0877,53.1242 C58.0877,53.7072 58.5597,54.1792 59.1427,54.1792 L70.6377,54.1792 C71.2207,54.1792 71.6917,53.7072 71.6917,53.1242" id="Fill-27" fill="#C5C8DA"></path>
            <path d="M62.1521,39.566 C61.9371,39.566 61.7081,39.599 61.4801,39.658 L63.5641,37.169 L60.9231,37.169 L59.1491,39.503 C58.6121,40.212 57.9711,41.306 57.9711,42.479 C57.9711,43.42 58.3761,44.036 58.7181,44.387 C59.1561,44.836 59.9671,45.37 61.3601,45.37 C62.4301,45.37 63.2961,45.049 63.9331,44.412 C64.5001,43.846 64.7751,43.153 64.7751,42.293 C64.7751,41.505 64.5221,40.869 64.0021,40.349 C63.5051,39.852 62.8301,39.566 62.1521,39.566 M62.4511,42.398 C62.4511,42.697 62.3331,42.986 62.1291,43.189 L62.1281,43.19 C61.9821,43.336 61.7241,43.511 61.3251,43.511 C61.1451,43.511 60.7971,43.465 60.5021,43.156 C60.3111,42.957 60.2011,42.668 60.2011,42.364 C60.2011,42.122 60.3351,41.844 60.5421,41.658 C60.7461,41.473 61.0531,41.355 61.3251,41.355 C61.5391,41.355 61.8541,41.41 62.1311,41.679 C62.3961,41.932 62.4511,42.209 62.4511,42.398 M70.9781,37.953 C70.5411,37.515 69.7401,36.993 68.3951,36.993 C67.0291,36.993 66.2031,37.547 65.7501,38.013 C65.2231,38.561 64.9341,39.305 64.9341,40.105 C64.9341,40.636 65.0771,41.408 65.7531,42.073 C66.2691,42.576 66.8821,42.821 67.6261,42.821 C67.8461,42.821 68.0441,42.8 68.2301,42.753 L66.1801,45.195 L68.8091,45.195 L70.5821,42.898 C71.3801,41.861 71.7841,40.875 71.7841,39.965 C71.7841,39.21 71.4911,38.477 70.9781,37.953 M69.5661,39.954 C69.5661,40.217 69.4091,40.554 69.2021,40.742 C69.0021,40.921 68.7021,41.033 68.4181,41.033 C68.1171,41.033 67.8041,40.912 67.6001,40.718 C67.3951,40.525 67.2691,40.242 67.2691,39.978 C67.2691,39.699 67.3971,39.403 67.6151,39.185 C67.8911,38.909 68.2041,38.852 68.4181,38.852 C68.7561,38.852 69.0621,39.026 69.2321,39.186 C69.4261,39.379 69.5661,39.701 69.5661,39.954 M74.7271,40.678 C74.7271,41.276 74.2431,41.76 73.6451,41.76 C73.0491,41.76 72.5641,41.276 72.5641,40.678 C72.5641,40.082 73.0491,39.598 73.6451,39.598 C74.2431,39.598 74.7271,40.082 74.7271,40.678 M78.0621,44.162 C78.0621,44.759 77.5781,45.244 76.9801,45.244 C76.3831,45.244 75.8981,44.759 75.8981,44.162 C75.8981,43.564 76.3831,43.08 76.9801,43.08 C77.5781,43.08 78.0621,43.564 78.0621,44.162 M73.7151,45.119 L73.6091,45.052 C73.3331,44.872 73.2531,44.5 73.4311,44.224 L76.2161,39.912 C76.3951,39.635 76.7671,39.554 77.0431,39.734 L77.1481,39.801 C77.4251,39.979 77.5051,40.351 77.3261,40.628 L74.5421,44.941 C74.3631,45.217 73.9911,45.297 73.7151,45.119" id="Fill-29" fill="#343852"></path>
        </g>
    </g>
</svg>