<?xml version="1.0" encoding="UTF-8"?>
<svg width="120px" height="120px" viewBox="0 0 120 120" version="1.1" xmlns="http://www.w3.org/2000/svg" xmlns:xlink="http://www.w3.org/1999/xlink">
    <title>02.Icons/Illustrative/Charts - Nuage</title>
    <g id="02.Icons/Illustrative/Charts---Nuage" stroke="none" stroke-width="1" fill="none" fill-rule="evenodd">
        <g id="Charts---Nuage" transform="translate(1.961300, 23.099700)">
            <path d="M66.243,53.4886 C66.243,35.1956 51.413,20.3676 33.122,20.3676 C14.83,20.3676 0,35.1956 0,53.4886 C0,71.7816 14.83,86.6096 33.122,86.6096 C51.413,86.6096 66.243,71.7816 66.243,53.4886" id="Fill-1" fill="#F2F3F7"></path>
            <path d="M99.8973,44.52 L20.1423,44.52 C19.5533,44.52 19.0763,44.044 19.0763,43.456 C19.0763,42.868 19.5533,42.392 20.1423,42.392 L99.8973,42.392 C100.4863,42.392 100.9633,42.868 100.9633,43.456 C100.9633,44.044 100.4863,44.52 99.8973,44.52 M100.9633,29.327 C100.9633,28.74 100.4863,28.264 99.8973,28.264 L20.1423,28.264 C19.5533,28.264 19.0763,28.74 19.0763,29.327 C19.0763,29.916 19.5533,30.391 20.1423,30.391 L99.8973,30.391 C100.4863,30.391 100.9633,29.916 100.9633,29.327 M100.9633,15.196 C100.9633,14.608 100.4863,14.133 99.8973,14.133 L20.1183,14.133 C19.5293,14.133 19.0513,14.608 19.0513,15.196 C19.0513,15.785 19.5293,16.26 20.1183,16.26 L99.8973,16.26 C100.4863,16.26 100.9633,15.785 100.9633,15.196" id="Fill-3" fill="#DEE0EA"></path>
            <path d="M99.8994,65.362 C99.3114,65.362 98.8354,65.838 98.8354,66.426 L98.8354,70.662 L86.8304,70.662 L86.8304,66.426 C86.8304,65.838 86.3544,65.362 85.7664,65.362 C85.1784,65.362 84.7024,65.838 84.7024,66.426 L84.7024,70.662 L72.6984,70.662 L72.6984,66.426 C72.6984,65.838 72.2214,65.362 71.6344,65.362 C71.0464,65.362 70.5704,65.838 70.5704,66.426 L70.5704,70.662 L58.5654,70.662 L58.5654,66.426 C58.5654,65.838 58.0894,65.362 57.5014,65.362 C56.9144,65.362 56.4374,65.838 56.4374,66.426 L56.4374,70.662 L44.4324,70.662 L44.4324,66.426 C44.4324,65.838 43.9564,65.362 43.3684,65.362 C42.7814,65.362 42.3044,65.838 42.3044,66.426 L42.3044,70.662 L30.3004,70.662 L30.3004,66.426 C30.3004,65.838 29.8244,65.362 29.2364,65.362 C28.6484,65.362 28.1724,65.838 28.1724,66.426 L28.1724,70.662 L16.1684,70.662 L16.1684,44.525 L20.4034,44.525 C20.9914,44.525 21.4674,44.049 21.4674,43.461 C21.4674,42.873 20.9914,42.397 20.4034,42.397 L16.1684,42.397 L16.1684,30.393 L20.4034,30.393 C20.9914,30.393 21.4674,29.917 21.4674,29.329 C21.4674,28.741 20.9914,28.265 20.4034,28.265 L16.1684,28.265 L16.1684,16.26 L20.4034,16.26 C20.9914,16.26 21.4674,15.783 21.4674,15.196 C21.4674,14.608 20.9914,14.132 20.4034,14.132 L16.1684,14.132 L16.1684,2.128 L20.4034,2.128 C20.9914,2.128 21.4674,1.651 21.4674,1.064 C21.4674,0.476 20.9914,0 20.4034,0 L15.1044,0 C14.5164,0 14.0404,0.476 14.0404,1.064 L14.0404,71.726 C14.0404,72.314 14.5164,72.79 15.1044,72.79 L99.8994,72.79 C100.4874,72.79 100.9634,72.314 100.9634,71.726 L100.9634,66.426 C100.9634,65.838 100.4874,65.362 99.8994,65.362" id="Fill-5" fill="#343852"></path>
            <path d="M24.8023,57.6821 C22.9903,57.6821 21.5163,56.2091 21.5163,54.3961 C21.5163,52.5831 22.9903,51.1101 24.8023,51.1101 C26.6153,51.1101 28.0893,52.5831 28.0893,54.3961 C28.0893,56.2091 26.6153,57.6821 24.8023,57.6821 M48.9453,33.1131 C48.9453,31.3011 47.4713,29.8271 45.6603,29.8271 C43.8473,29.8271 42.3733,31.3011 42.3733,33.1131 C42.3733,34.9261 43.8473,36.4001 45.6603,36.4001 C47.4713,36.4001 48.9453,34.9261 48.9453,33.1131 M66.5873,48.1611 C66.5873,46.3481 65.1143,44.8731 63.3023,44.8731 C61.4883,44.8731 60.0153,46.3481 60.0153,48.1611 C60.0153,49.9721 61.4883,51.4471 63.3023,51.4471 C65.1143,51.4471 66.5873,49.9721 66.5873,48.1611 M90.6933,14.1331 C90.6933,12.3201 89.2183,10.8471 87.4063,10.8471 C85.5953,10.8471 84.1203,12.3201 84.1203,14.1331 C84.1203,15.9451 85.5953,17.4191 87.4063,17.4191 C89.2183,17.4191 90.6933,15.9451 90.6933,14.1331 M84.3803,39.8151 C84.3803,38.0021 82.9053,36.5291 81.0933,36.5291 C79.2813,36.5291 77.8063,38.0021 77.8063,39.8151 C77.8063,41.6281 79.2813,43.1011 81.0933,43.1011 C82.9053,43.1011 84.3803,41.6281 84.3803,39.8151" id="Fill-7" fill="#D20050"></path>
            <path d="M34.7627,62.4104 C32.9507,62.4104 31.4767,60.9364 31.4767,59.1234 C31.4767,57.3114 32.9507,55.8374 34.7627,55.8374 C36.5747,55.8374 38.0487,57.3114 38.0487,59.1234 C38.0487,60.9364 36.5747,62.4104 34.7627,62.4104 M44.6817,47.5784 C44.6817,45.7664 43.2077,44.2924 41.3957,44.2924 C39.5827,44.2924 38.1087,45.7664 38.1087,47.5784 C38.1087,49.3904 39.5827,50.8644 41.3957,50.8644 C43.2077,50.8644 44.6817,49.3904 44.6817,47.5784 M57.0647,40.8304 C57.0647,39.0184 55.5907,37.5444 53.7787,37.5444 C51.9657,37.5444 50.4917,39.0184 50.4917,40.8304 C50.4917,42.6434 51.9657,44.1174 53.7787,44.1174 C55.5907,44.1174 57.0647,42.6434 57.0647,40.8304 M56.4827,54.4894 C56.4827,52.6764 55.0087,51.2034 53.1967,51.2034 C51.3837,51.2034 49.9097,52.6764 49.9097,54.4894 C49.9097,56.3004 51.3837,57.7754 53.1967,57.7754 C55.0087,57.7754 56.4827,56.3004 56.4827,54.4894 M70.6297,34.7454 C70.6297,32.9334 69.1557,31.4594 67.3427,31.4594 C65.5307,31.4594 64.0567,32.9334 64.0567,34.7454 C64.0567,36.5574 65.5307,38.0314 67.3427,38.0314 C69.1557,38.0314 70.6297,36.5574 70.6297,34.7454 M63.2937,26.0424 C63.2937,24.2294 61.8187,22.7554 60.0077,22.7554 C58.1957,22.7554 56.7217,24.2294 56.7217,26.0424 C56.7217,27.8534 58.1957,29.3274 60.0077,29.3274 C61.8187,29.3274 63.2937,27.8534 63.2937,26.0424 M76.9577,19.0904 C76.9577,17.2784 75.4827,15.8034 73.6717,15.8034 C71.8597,15.8034 70.3847,17.2784 70.3847,19.0904 C70.3847,20.9024 71.8597,22.3774 73.6717,22.3774 C75.4827,22.3774 76.9577,20.9024 76.9577,19.0904 M89.9247,28.8454 C89.9247,27.0334 88.4497,25.5594 86.6387,25.5594 C84.8267,25.5594 83.3527,27.0334 83.3527,28.8454 C83.3527,30.6584 84.8267,32.1324 86.6387,32.1324 C88.4497,32.1324 89.9247,30.6584 89.9247,28.8454 M88.5597,50.3824 C88.5597,48.5704 87.0857,47.0964 85.2737,47.0964 C83.4617,47.0964 81.9877,48.5704 81.9877,50.3824 C81.9877,52.1954 83.4617,53.6684 85.2737,53.6684 C87.0857,53.6684 88.5597,52.1954 88.5597,50.3824" id="Fill-9" fill="#1D71B8"></path>
            <path d="M24.8031,52.1729 C26.0271,52.1729 27.0251,53.1709 27.0251,54.3959 C27.0251,55.6219 26.0271,56.6189 24.8031,56.6189 C23.5771,56.6189 22.5801,55.6219 22.5801,54.3959 C22.5801,53.1709 23.5771,52.1729 24.8031,52.1729 M24.8031,50.0449 C22.4041,50.0449 20.4521,51.9969 20.4521,54.3959 C20.4521,56.7949 22.4041,58.7459 24.8031,58.7459 C27.2011,58.7459 29.1531,56.7949 29.1531,54.3959 C29.1531,51.9969 27.2011,50.0449 24.8031,50.0449 M34.7631,56.9009 C35.9881,56.9009 36.9851,57.8969 36.9851,59.1229 C36.9851,60.3489 35.9881,61.3459 34.7631,61.3459 C33.5371,61.3459 32.5391,60.3489 32.5391,59.1229 C32.5391,57.8969 33.5371,56.9009 34.7631,56.9009 M34.7631,54.7729 C32.3641,54.7729 30.4121,56.7249 30.4121,59.1229 C30.4121,61.5219 32.3641,63.4739 34.7631,63.4739 C37.1601,63.4739 39.1131,61.5219 39.1131,59.1229 C39.1131,56.7249 37.1601,54.7729 34.7631,54.7729 M41.3961,45.3559 C42.6201,45.3559 43.6181,46.3529 43.6181,47.5779 C43.6181,48.8039 42.6201,49.8009 41.3961,49.8009 C40.1701,49.8009 39.1721,48.8039 39.1721,47.5779 C39.1721,46.3529 40.1701,45.3559 41.3961,45.3559 M41.3961,43.2279 C38.9971,43.2279 37.0451,45.1789 37.0451,47.5779 C37.0451,49.9769 38.9971,51.9279 41.3961,51.9279 C43.7941,51.9279 45.7461,49.9769 45.7461,47.5779 C45.7461,45.1789 43.7941,43.2279 41.3961,43.2279 M45.6591,30.8899 C46.8851,30.8899 47.8821,31.8879 47.8821,33.1129 C47.8821,34.3389 46.8851,35.3359 45.6591,35.3359 C44.4341,35.3359 43.4361,34.3389 43.4361,33.1129 C43.4361,31.8879 44.4341,30.8899 45.6591,30.8899 M45.6591,28.7619 C43.2611,28.7619 41.3081,30.7139 41.3081,33.1129 C41.3081,35.5119 43.2611,37.4629 45.6591,37.4629 C48.0571,37.4629 50.0091,35.5119 50.0091,33.1129 C50.0091,30.7139 48.0571,28.7619 45.6591,28.7619 M53.7781,38.6079 C55.0031,38.6079 56.0001,39.6059 56.0001,40.8309 C56.0001,42.0569 55.0031,43.0539 53.7781,43.0539 C52.5521,43.0539 51.5551,42.0569 51.5551,40.8309 C51.5551,39.6059 52.5521,38.6079 53.7781,38.6079 M53.7781,36.4799 C51.3791,36.4799 49.4281,38.4329 49.4281,40.8309 C49.4281,43.2299 51.3791,45.1809 53.7781,45.1809 C56.1771,45.1809 58.1281,43.2299 58.1281,40.8309 C58.1281,38.4329 56.1771,36.4799 53.7781,36.4799 M53.1961,52.2659 C54.4211,52.2659 55.4191,53.2629 55.4191,54.4889 C55.4191,55.7149 54.4211,56.7109 53.1961,56.7109 C51.9701,56.7109 50.9731,55.7149 50.9731,54.4889 C50.9731,53.2629 51.9701,52.2659 53.1961,52.2659 M53.1961,50.1379 C50.7981,50.1379 48.8461,52.0899 48.8461,54.4889 C48.8461,56.8879 50.7981,58.8389 53.1961,58.8389 C55.5951,58.8389 57.5471,56.8879 57.5471,54.4889 C57.5471,52.0899 55.5951,50.1379 53.1961,50.1379 M63.3011,45.9379 C64.5271,45.9379 65.5241,46.9349 65.5241,48.1599 C65.5241,49.3859 64.5271,50.3829 63.3011,50.3829 C62.0751,50.3829 61.0791,49.3859 61.0791,48.1599 C61.0791,46.9349 62.0751,45.9379 63.3011,45.9379 M63.3011,43.8099 C60.9031,43.8099 58.9511,45.7609 58.9511,48.1599 C58.9511,50.5589 60.9031,52.5099 63.3011,52.5099 C65.7001,52.5099 67.6521,50.5589 67.6521,48.1599 C67.6521,45.7609 65.7001,43.8099 63.3011,43.8099 M67.3431,32.5229 C68.5681,32.5229 69.5651,33.5199 69.5651,34.7449 C69.5651,35.9709 68.5681,36.9679 67.3431,36.9679 C66.1171,36.9679 65.1201,35.9709 65.1201,34.7449 C65.1201,33.5199 66.1171,32.5229 67.3431,32.5229 M67.3431,30.3949 C64.9441,30.3949 62.9931,32.3459 62.9931,34.7449 C62.9931,37.1439 64.9441,39.0949 67.3431,39.0949 C69.7411,39.0949 71.6931,37.1439 71.6931,34.7449 C71.6931,32.3459 69.7411,30.3949 67.3431,30.3949 M60.0071,23.8189 C61.2331,23.8189 62.2301,24.8149 62.2301,26.0419 C62.2301,27.2669 61.2331,28.2639 60.0071,28.2639 C58.7821,28.2639 57.7851,27.2669 57.7851,26.0419 C57.7851,24.8149 58.7821,23.8189 60.0071,23.8189 M60.0071,21.6909 C57.6081,21.6909 55.6571,23.6429 55.6571,26.0419 C55.6571,28.4399 57.6081,30.3919 60.0071,30.3919 C62.4061,30.3919 64.3571,28.4399 64.3571,26.0419 C64.3571,23.6429 62.4061,21.6909 60.0071,21.6909 M73.6711,16.8679 C74.8971,16.8679 75.8941,17.8649 75.8941,19.0909 C75.8941,20.3159 74.8971,21.3129 73.6711,21.3129 C72.4461,21.3129 71.4491,20.3159 71.4491,19.0909 C71.4491,17.8649 72.4461,16.8679 73.6711,16.8679 M73.6711,14.7399 C71.2721,14.7399 69.3211,16.6919 69.3211,19.0909 C69.3211,21.4889 71.2721,23.4409 73.6711,23.4409 C76.0701,23.4409 78.0211,21.4889 78.0211,19.0909 C78.0211,16.6919 76.0701,14.7399 73.6711,14.7399 M87.4061,11.9099 C88.6321,11.9099 89.6291,12.9069 89.6291,14.1319 C89.6291,15.3579 88.6321,16.3559 87.4061,16.3559 C86.1811,16.3559 85.1841,15.3579 85.1841,14.1319 C85.1841,12.9069 86.1811,11.9099 87.4061,11.9099 M87.4061,9.7819 C85.0071,9.7819 83.0561,11.7329 83.0561,14.1319 C83.0561,16.5309 85.0071,18.4839 87.4061,18.4839 C89.8051,18.4839 91.7561,16.5309 91.7561,14.1319 C91.7561,11.7329 89.8051,9.7819 87.4061,9.7819 M86.6381,26.6229 C87.8641,26.6229 88.8611,27.6209 88.8611,28.8459 C88.8611,30.0719 87.8641,31.0689 86.6381,31.0689 C85.4131,31.0689 84.4161,30.0719 84.4161,28.8459 C84.4161,27.6209 85.4131,26.6229 86.6381,26.6229 M86.6381,24.4949 C84.2391,24.4949 82.2881,26.4469 82.2881,28.8459 C82.2881,31.2449 84.2391,33.1959 86.6381,33.1959 C89.0371,33.1959 90.9881,31.2449 90.9881,28.8459 C90.9881,26.4469 89.0371,24.4949 86.6381,24.4949 M81.0941,37.5919 C82.3181,37.5919 83.3161,38.5899 83.3161,39.8159 C83.3161,41.0409 82.3181,42.0379 81.0941,42.0379 C79.8681,42.0379 78.8701,41.0409 78.8701,39.8159 C78.8701,38.5899 79.8681,37.5919 81.0941,37.5919 M81.0941,35.4639 C78.6951,35.4639 76.7431,37.4169 76.7431,39.8159 C76.7431,42.2129 78.6951,44.1659 81.0941,44.1659 C83.4921,44.1659 85.4441,42.2129 85.4441,39.8159 C85.4441,37.4169 83.4921,35.4639 81.0941,35.4639 M85.2731,48.1599 C86.4991,48.1599 87.4961,49.1569 87.4961,50.3829 C87.4961,51.6079 86.4991,52.6059 85.2731,52.6059 C84.0481,52.6059 83.0511,51.6079 83.0511,50.3829 C83.0511,49.1569 84.0481,48.1599 85.2731,48.1599 M85.2731,46.0329 C82.8751,46.0329 80.9231,47.9849 80.9231,50.3829 C80.9231,52.7819 82.8751,54.7339 85.2731,54.7339 C87.6721,54.7339 89.6231,52.7819 89.6231,50.3829 C89.6231,47.9849 87.6721,46.0329 85.2731,46.0329" id="Fill-11" fill="#343852"></path>
        </g>
    </g>
</svg>