<?xml version="1.0" encoding="UTF-8"?>
<svg width="120px" height="120px" viewBox="0 0 120 120" version="1.1" xmlns="http://www.w3.org/2000/svg" xmlns:xlink="http://www.w3.org/1999/xlink">
    <title>02.Icons/Illustrative/Charts - Radar</title>
    <g id="02.Icons/Illustrative/Charts---Radar" stroke="none" stroke-width="1" fill="none" fill-rule="evenodd">
        <g id="Charts---Radar" transform="translate(8.001900, 13.199800)">
            <path d="M36.551,77.893 L36.549,77.893 C16.363,77.893 0,61.795 0,41.936 L0,1.354 L0,0 C2.858,3.131 8.595,5.797 20.244,5.977 L36.551,5.977 C56.736,5.977 73.099,22.075 73.099,41.936 C73.099,61.795 56.736,77.893 36.551,77.893" id="Fill-1" fill="#F2F3F7"></path>
            <polygon id="Fill-3" fill="#C5C8DA" points="27.959 42.394 51.999 23.75 70.677 44.166 66.89 71.271 41.299 65.241"></polygon>
            <path d="M93.516,35.2754 L52.702,6.1234 C52.281,5.8224 51.716,5.8224 51.295,6.1234 L10.482,35.2754 C10.054,35.5804 9.872,36.1284 10.033,36.6294 L25.581,85.2174 C25.74,85.7184 26.207,86.0604 26.734,86.0604 L77.264,86.0604 C77.791,86.0604 78.259,85.7184 78.419,85.2174 L93.965,36.6294 C94.126,36.1284 93.945,35.5804 93.516,35.2754 L93.516,35.2754 Z M50.787,49.1194 L13.774,35.9004 L50.787,9.4614 L50.787,49.1194 Z M53.21,9.4614 L90.224,35.9004 L53.21,49.1194 L53.21,9.4614 Z M13.086,38.2244 L50.051,51.4274 L27.168,82.2334 L13.086,38.2244 Z M51.999,52.8694 L74.857,83.6384 L29.143,83.6384 L51.999,52.8694 Z M76.831,82.2334 L53.946,51.4274 L90.912,38.2244 L76.831,82.2334 Z" id="Fill-5" fill="#343852"></path>
            <path d="M70.6767,49.0104 C68.0047,49.0104 65.8327,46.8374 65.8327,44.1664 C65.8327,41.4944 68.0047,39.3214 70.6767,39.3214 C73.3497,39.3214 75.5207,41.4944 75.5207,44.1664 C75.5207,46.8374 73.3497,49.0104 70.6767,49.0104 M67.0527,75.9474 C64.3817,75.9474 62.2087,73.7744 62.2087,71.1034 C62.2087,68.4314 64.3817,66.2584 67.0527,66.2584 C69.7247,66.2584 71.8977,68.4314 71.8977,71.1034 C71.8977,73.7744 69.7247,75.9474 67.0527,75.9474 M27.9587,47.1904 C25.2877,47.1904 23.1147,45.0174 23.1147,42.3454 C23.1147,39.6744 25.2877,37.5014 27.9587,37.5014 C30.6307,37.5014 32.8037,39.6744 32.8037,42.3454 C32.8037,45.0174 30.6307,47.1904 27.9587,47.1904" id="Fill-7" fill="#1D71B8"></path>
            <path d="M41.2987,70.0865 C38.6267,70.0865 36.4547,67.9135 36.4547,65.2425 C36.4547,62.5705 38.6267,60.3975 41.2987,60.3975 C43.9707,60.3975 46.1427,62.5705 46.1427,65.2425 C46.1427,67.9135 43.9707,70.0865 41.2987,70.0865 M51.9987,28.5945 C49.3267,28.5945 47.1547,26.4215 47.1547,23.7505 C47.1547,21.0785 49.3267,18.9055 51.9987,18.9055 C54.6707,18.9055 56.8427,21.0785 56.8427,23.7505 C56.8427,26.4215 54.6707,28.5945 51.9987,28.5945" id="Fill-9" fill="#D20050"></path>
            <path d="M75.5211,44.1657 C75.5211,41.4937 73.3481,39.3217 70.6771,39.3217 C69.9751,39.3217 69.3131,39.4787 68.7101,39.7477 L56.1851,26.1447 C56.5921,25.4347 56.8421,24.6247 56.8421,23.7507 C56.8421,21.0787 54.6701,18.9057 51.9981,18.9057 C49.3261,18.9057 47.1541,21.0787 47.1541,23.7507 C47.1541,24.4287 47.2961,25.0737 47.5501,25.6617 L30.7481,38.3987 C29.9581,37.8377 28.9991,37.5007 27.9591,37.5007 C25.2871,37.5007 23.1151,39.6737 23.1151,42.3457 C23.1151,45.0167 25.2871,47.1897 27.9591,47.1897 C28.3141,47.1897 28.6581,47.1457 28.9921,47.0737 L37.5581,62.2017 C36.8791,63.0357 36.4541,64.0847 36.4541,65.2427 C36.4541,67.9137 38.6261,70.0867 41.2981,70.0867 C43.0941,70.0867 44.6471,69.0937 45.4831,67.6377 L62.2111,71.1317 C62.2281,73.7907 64.3911,75.9467 67.0531,75.9467 C69.7251,75.9467 71.8971,73.7747 71.8971,71.1027 C71.8971,69.2827 70.8761,67.7127 69.3891,66.8857 L71.2651,48.9507 C73.6571,48.6567 75.5211,46.6367 75.5211,44.1657 M73.0991,44.1657 C73.0991,45.5017 72.0121,46.5877 70.6771,46.5877 C69.3421,46.5877 68.2541,45.5017 68.2541,44.1657 C68.2541,42.8307 69.3421,41.7437 70.6771,41.7437 C72.0121,41.7437 73.0991,42.8307 73.0991,44.1657 M51.9981,21.3277 C53.3341,21.3277 54.4201,22.4147 54.4201,23.7507 C54.4201,25.0847 53.3341,26.1727 51.9981,26.1727 C50.6631,26.1727 49.5761,25.0847 49.5761,23.7507 C49.5761,22.4147 50.6631,21.3277 51.9981,21.3277 M25.5371,42.3457 C25.5371,41.0107 26.6231,39.9237 27.9591,39.9237 C29.2941,39.9237 30.3811,41.0107 30.3811,42.3457 C30.3811,43.6817 29.2941,44.7677 27.9591,44.7677 C26.6231,44.7677 25.5371,43.6817 25.5371,42.3457 M41.2981,67.6647 C39.9631,67.6647 38.8761,66.5767 38.8761,65.2427 C38.8761,63.9067 39.9631,62.8197 41.2981,62.8197 C42.6341,62.8197 43.7201,63.9067 43.7201,65.2427 C43.7201,66.5767 42.6341,67.6647 41.2981,67.6647 M62.8251,68.7877 L46.1361,65.3017 C46.1371,65.2807 46.1421,65.2617 46.1421,65.2427 C46.1421,62.5697 43.9701,60.3977 41.2981,60.3977 C40.6681,60.3977 40.0701,60.5267 39.5181,60.7467 L31.1481,45.9637 C32.1541,45.0767 32.8031,43.7917 32.8031,42.3457 C32.8031,41.5937 32.6171,40.8907 32.3091,40.2547 L49.0491,27.5657 C49.8681,28.2007 50.8841,28.5947 51.9981,28.5947 C52.9141,28.5947 53.7601,28.3247 54.4921,27.8827 L66.8181,41.2687 C66.2081,42.0787 65.8321,43.0757 65.8321,44.1657 C65.8321,46.1957 67.0891,47.9307 68.8621,48.6507 L67.0201,66.2617 C65.2061,66.2737 63.6441,67.2977 62.8251,68.7877 M67.0531,73.5247 C65.7171,73.5247 64.6311,72.4387 64.6311,71.1027 C64.6311,69.7667 65.7171,68.6807 67.0531,68.6807 C68.3891,68.6807 69.4751,69.7667 69.4751,71.1027 C69.4751,72.4387 68.3891,73.5247 67.0531,73.5247" id="Fill-11" fill="#343852"></path>
        </g>
    </g>
</svg>