<?xml version="1.0" encoding="UTF-8"?>
<svg width="120px" height="120px" viewBox="0 0 120 120" version="1.1" xmlns="http://www.w3.org/2000/svg" xmlns:xlink="http://www.w3.org/1999/xlink">
    <title>02.Icons/Illustrative/Charts - Batons</title>
    <g id="02.Icons/Illustrative/Charts---Batons" stroke="none" stroke-width="1" fill="none" fill-rule="evenodd">
        <g id="Charts---Batons" transform="translate(4.150700, 22.100300)">
            <path d="M66.639,53.5503 C66.639,35.1483 51.72,20.2303 33.319,20.2303 C14.918,20.2303 0,35.1483 0,53.5503 C0,71.9523 14.918,86.8703 33.319,86.8703 C51.72,86.8703 66.639,71.9523 66.639,53.5503" id="Fill-1" fill="#F2F3F7"></path>
            <path d="M101.6462,44.7863 L21.4142,44.7863 C20.8212,44.7863 20.3422,44.3083 20.3422,43.7163 C20.3422,43.1243 20.8212,42.6463 21.4142,42.6463 L101.6462,42.6463 C102.2392,42.6463 102.7182,43.1243 102.7182,43.7163 C102.7182,44.3083 102.2392,44.7863 101.6462,44.7863 M102.7182,29.5033 C102.7182,28.9123 102.2392,28.4323 101.6462,28.4323 L21.4142,28.4323 C20.8212,28.4323 20.3422,28.9123 20.3422,29.5033 C20.3422,30.0943 20.8212,30.5733 21.4142,30.5733 L101.6462,30.5733 C102.2392,30.5733 102.7182,30.0943 102.7182,29.5033 M102.7182,15.2873 C102.7182,14.6953 102.2392,14.2173 101.6462,14.2173 L21.3902,14.2173 C20.7972,14.2173 20.3162,14.6953 20.3162,15.2873 C20.3162,15.8793 20.7972,16.3573 21.3902,16.3573 L101.6462,16.3573 C102.2392,16.3573 102.7182,15.8793 102.7182,15.2873" id="Fill-3" fill="#DEE0EA"></path>
            <path d="M101.6484,65.753 C101.0564,65.753 100.5784,66.231 100.5784,66.823 L100.5784,71.085 L88.5014,71.085 L88.5014,66.823 C88.5014,66.231 88.0224,65.753 87.4304,65.753 C86.8394,65.753 86.3604,66.231 86.3604,66.823 L86.3604,71.085 L74.2844,71.085 L74.2844,66.823 C74.2844,66.231 73.8054,65.753 73.2144,65.753 C72.6224,65.753 72.1444,66.231 72.1444,66.823 L72.1444,71.085 L60.0674,71.085 L60.0674,66.823 C60.0674,66.231 59.5884,65.753 58.9964,65.753 C58.4064,65.753 57.9264,66.231 57.9264,66.823 L57.9264,71.085 L45.8494,71.085 L45.8494,66.823 C45.8494,66.231 45.3714,65.753 44.7794,65.753 C44.1884,65.753 43.7094,66.231 43.7094,66.823 L43.7094,71.085 L31.6324,71.085 L31.6324,66.823 C31.6324,66.231 31.1544,65.753 30.5624,65.753 C29.9704,65.753 29.4924,66.231 29.4924,66.823 L29.4924,71.085 L17.4164,71.085 L17.4164,44.791 L21.6764,44.791 C22.2684,44.791 22.7474,44.313 22.7474,43.721 C22.7474,43.129 22.2684,42.651 21.6764,42.651 L17.4164,42.651 L17.4164,30.575 L21.6764,30.575 C22.2684,30.575 22.7474,30.096 22.7474,29.504 C22.7474,28.913 22.2684,28.434 21.6764,28.434 L17.4164,28.434 L17.4164,16.357 L21.6764,16.357 C22.2684,16.357 22.7474,15.878 22.7474,15.287 C22.7474,14.695 22.2684,14.217 21.6764,14.217 L17.4164,14.217 L17.4164,2.14 L21.6764,2.14 C22.2684,2.14 22.7474,1.661 22.7474,1.07 C22.7474,0.478 22.2684,0 21.6764,0 L16.3464,0 C15.7544,0 15.2764,0.478 15.2764,1.07 L15.2764,72.155 C15.2764,72.747 15.7544,73.225 16.3464,73.225 L101.6484,73.225 C102.2404,73.225 102.7184,72.747 102.7184,72.155 L102.7184,66.823 C102.7184,66.231 102.2404,65.753 101.6484,65.753" id="Fill-5" fill="#343852"></path>
            <path d="M77.3077,61.7726 L65.9487,61.7726 C65.3567,61.7726 64.8787,61.2936 64.8787,60.7026 L64.8787,21.4676 C64.8787,20.8776 65.3567,20.3976 65.9487,20.3976 L77.3077,20.3976 C77.8997,20.3976 78.3777,20.8776 78.3777,21.4676 L78.3777,60.7026 C78.3777,61.2936 77.8997,61.7726 77.3077,61.7726" id="Fill-7" fill="#1D71B8"></path>
            <path d="M77.3077,61.7726 L65.9487,61.7726 C65.3567,61.7726 64.8787,61.5146 64.8787,61.1976 L64.8787,40.1146 C64.8787,39.7976 65.3567,39.5406 65.9487,39.5406 L77.3077,39.5406 C77.8997,39.5406 78.3777,39.7976 78.3777,40.1146 L78.3777,61.1976 C78.3777,61.5146 77.8997,61.7726 77.3077,61.7726" id="Fill-9" fill="#D20050"></path>
            <path d="M77.3082,61.7726 L65.9482,61.7726 C65.3572,61.7726 64.8782,61.2936 64.8782,60.7026 L64.8782,21.4676 C64.8782,20.8776 65.3572,20.3976 65.9482,20.3976 L77.3082,20.3976 C77.8992,20.3976 78.3782,20.8776 78.3782,21.4676 L78.3782,60.7026 C78.3782,61.2936 77.8992,61.7726 77.3082,61.7726 L77.3082,61.7726 Z M67.0182,59.6326 L76.2372,59.6326 L76.2372,22.5386 L67.0182,22.5386 L67.0182,59.6326 Z" id="Fill-11" fill="#343852"></path>
            <path d="M41.6087,61.7726 L30.2497,61.7726 C29.6577,61.7726 29.1797,61.2936 29.1797,60.7026 L29.1797,9.6976 C29.1797,9.1076 29.6577,8.6276 30.2497,8.6276 L41.6087,8.6276 C42.2007,8.6276 42.6787,9.1076 42.6787,9.6976 L42.6787,60.7026 C42.6787,61.2936 42.2007,61.7726 41.6087,61.7726" id="Fill-13" fill="#1D71B8"></path>
            <path d="M41.6087,61.7726 L30.2497,61.7726 C29.6577,61.7726 29.1797,61.6006 29.1797,61.3876 L29.1797,43.0316 C29.1797,42.8186 29.6577,42.6456 30.2497,42.6456 L41.6087,42.6456 C42.2007,42.6456 42.6787,42.8186 42.6787,43.0316 L42.6787,61.3876 C42.6787,61.6006 42.2007,61.7726 41.6087,61.7726" id="Fill-15" fill="#D20050"></path>
            <path d="M41.6086,61.7726 L30.2496,61.7726 C29.6576,61.7726 29.1796,61.2936 29.1796,60.7026 L29.1796,9.6976 C29.1796,9.1076 29.6576,8.6276 30.2496,8.6276 L41.6086,8.6276 C42.2006,8.6276 42.6786,9.1076 42.6786,9.6976 L42.6786,60.7026 C42.6786,61.2936 42.2006,61.7726 41.6086,61.7726 L41.6086,61.7726 Z M31.3196,59.6326 L40.5386,59.6326 L40.5386,10.7686 L31.3196,10.7686 L31.3196,59.6326 Z" id="Fill-17" fill="#343852"></path>
            <path d="M59.4582,61.7726 L48.0992,61.7726 C47.5072,61.7726 47.0292,61.2936 47.0292,60.7026 L47.0292,33.2376 C47.0292,32.6476 47.5072,32.1676 48.0992,32.1676 L59.4582,32.1676 C60.0502,32.1676 60.5282,32.6476 60.5282,33.2376 L60.5282,60.7026 C60.5282,61.2936 60.0502,61.7726 59.4582,61.7726" id="Fill-19" fill="#1D71B8"></path>
            <path d="M59.4582,61.7726 L48.0992,61.7726 C47.5072,61.7726 47.0292,61.6016 47.0292,61.3896 L47.0292,51.5476 C47.0292,51.3356 47.5072,51.1646 48.0992,51.1646 L59.4582,51.1646 C60.0502,51.1646 60.5282,51.3356 60.5282,51.5476 L60.5282,61.3896 C60.5282,61.6016 60.0502,61.7726 59.4582,61.7726" id="Fill-21" fill="#D20050"></path>
            <path d="M59.4584,61.7726 L48.0994,61.7726 C47.5074,61.7726 47.0294,61.2936 47.0294,60.7026 L47.0294,33.2376 C47.0294,32.6476 47.5074,32.1676 48.0994,32.1676 L59.4584,32.1676 C60.0504,32.1676 60.5284,32.6476 60.5284,33.2376 L60.5284,60.7026 C60.5284,61.2936 60.0504,61.7726 59.4584,61.7726 L59.4584,61.7726 Z M49.1694,59.6326 L58.3884,59.6326 L58.3884,34.3086 L49.1694,34.3086 L49.1694,59.6326 Z" id="Fill-23" fill="#343852"></path>
            <path d="M95.1573,61.7726 L83.7993,61.7726 C83.2073,61.7726 82.7293,61.2936 82.7293,60.7026 L82.7293,38.4706 C82.7293,37.8786 83.2073,37.3996 83.7993,37.3996 L95.1573,37.3996 C95.7493,37.3996 96.2273,37.8786 96.2273,38.4706 L96.2273,60.7026 C96.2273,61.2936 95.7493,61.7726 95.1573,61.7726" id="Fill-25" fill="#1D71B8"></path>
            <path d="M95.1573,61.7726 L83.7993,61.7726 C83.2073,61.7726 82.7293,61.5546 82.7293,61.2846 L82.7293,51.1446 C82.7293,50.8746 83.2073,50.6566 83.7993,50.6566 L95.1573,50.6566 C95.7493,50.6566 96.2273,50.8746 96.2273,51.1446 L96.2273,61.2846 C96.2273,61.5546 95.7493,61.7726 95.1573,61.7726" id="Fill-27" fill="#D20050"></path>
            <path d="M95.157,61.7726 L83.799,61.7726 C83.207,61.7726 82.729,61.2936 82.729,60.7026 L82.729,38.4706 C82.729,37.8786 83.207,37.3996 83.799,37.3996 L95.157,37.3996 C95.749,37.3996 96.227,37.8786 96.227,38.4706 L96.227,60.7026 C96.227,61.2936 95.749,61.7726 95.157,61.7726 L95.157,61.7726 Z M84.869,59.6326 L94.087,59.6326 L94.087,39.5406 L84.869,39.5406 L84.869,59.6326 Z" id="Fill-29" fill="#343852"></path>
        </g>
    </g>
</svg>