<?xml version="1.0" encoding="UTF-8"?>
<svg width="120px" height="120px" viewBox="0 0 120 120" version="1.1" xmlns="http://www.w3.org/2000/svg" xmlns:xlink="http://www.w3.org/1999/xlink">
    <title>02.Icons/Illustrative/Charts - Carte</title>
    <g id="02.Icons/Illustrative/Charts---Carte" stroke="none" stroke-width="1" fill="none" fill-rule="evenodd">
        <g id="Charts---Carte" transform="translate(2.230500, 10.325000)">
            <path d="M71.84,35.921 C71.84,55.759 55.758,71.842 35.919,71.842 C16.082,71.842 0,55.759 0,35.921 C0,16.083 16.082,0 35.919,0 C55.758,0 71.84,16.083 71.84,35.921" id="Fill-1" fill="#F2F3F7"></path>
            <path d="M101.9668,83.0408 L102.4698,83.5208 L102.6478,83.5688 L102.6408,83.7948 L102.7088,84.0638 L102.6748,85.4068 L102.8608,87.1068 L103.1188,87.8148 L103.1858,88.1348 L103.1748,91.4658 L103.1098,91.7378 L102.5688,93.4978 L102.3258,95.9448 L102.2808,96.0628 L102.2898,96.0678 L102.1288,96.4568 L102.1098,96.4528 L101.7168,97.1728 L101.2478,98.7088 L100.8398,98.7428 L100.6818,98.8688 L100.5748,98.7638 L99.5858,98.8448 L100.1818,98.3728 L100.0028,98.1938 L99.6368,97.9328 L97.9938,97.3758 L97.7808,96.7908 L98.2558,96.3738 L97.5408,95.8708 L97.3558,94.8348 L97.7268,94.1698 L96.3848,94.1718 L96.8378,93.5328 L96.8178,93.5078 L97.0708,93.2038 L97.2248,92.9858 L96.6548,92.2348 L96.5738,90.7078 L96.6498,90.6308 L96.9008,90.2898 L96.7788,88.9738 L96.9968,88.6198 L96.9948,88.6188 L97.2138,88.1888 L97.2258,88.1958 L97.6358,87.5278 L98.2678,87.1728 L99.8468,86.2448 L99.8488,86.1668 L100.0028,86.1658 L100.1458,86.0938 L100.1858,86.1658 L100.8628,86.1648 L100.9548,86.0938 L101.0758,83.8948 L101.1708,83.8298 L101.1708,83.7048 L101.7398,83.3228 L101.8668,83.3568 L101.9588,83.2948 L101.9668,83.0408 Z M101.9668,80.9368 C101.6988,80.9368 101.4288,80.9868 101.1728,81.0908 C100.8218,81.2348 100.5248,81.4658 100.3028,81.7528 L99.9998,81.9558 C99.6588,82.1848 99.3978,82.5018 99.2398,82.8668 C99.0848,83.1438 98.9928,83.4538 98.9748,83.7798 L98.9468,84.2648 C98.7308,84.3678 98.5338,84.5078 98.3658,84.6748 L97.2018,85.3588 L96.6038,85.6928 C96.2918,85.8688 96.0288,86.1228 95.8418,86.4278 L95.5578,86.8918 C95.4728,86.9978 95.3998,87.1128 95.3378,87.2358 L95.1418,87.6198 L94.9868,87.8718 C94.7488,88.2598 94.6418,88.7148 94.6838,89.1688 L94.7328,89.6898 C94.5438,90.0308 94.4518,90.4208 94.4728,90.8178 L94.5538,92.3458 C94.5638,92.5518 94.6048,92.7538 94.6748,92.9468 L94.6688,92.9548 C94.2128,93.5978 94.1538,94.4398 94.5158,95.1388 C94.7228,95.5388 95.0468,95.8528 95.4348,96.0488 L95.4688,96.2408 C95.5068,96.4538 95.5778,96.6588 95.6768,96.8478 C95.6828,97.0708 95.7248,97.2958 95.8048,97.5138 L96.0178,98.0988 C96.2368,98.6958 96.7148,99.1618 97.3168,99.3668 L97.5718,99.4548 C97.5888,99.5078 97.6068,99.5618 97.6278,99.6158 C97.9468,100.4248 98.7278,100.9488 99.5848,100.9488 C99.6418,100.9488 99.6998,100.9468 99.7568,100.9408 L100.1628,100.9088 C100.3328,100.9518 100.5078,100.9728 100.6818,100.9728 C100.9718,100.9728 101.2618,100.9138 101.5338,100.7928 C102.3438,100.6828 103.0198,100.1098 103.2608,99.3218 L103.6658,97.9928 L103.8288,97.6948 C103.9248,97.5638 104.0068,97.4198 104.0718,97.2638 L104.2328,96.8748 C104.2718,96.7808 104.3038,96.6868 104.3288,96.5908 C104.3738,96.4488 104.4048,96.3028 104.4188,96.1528 L104.6418,93.9138 L105.1208,92.3538 C105.1328,92.3148 105.1438,92.2738 105.1538,92.2338 L105.2198,91.9628 C105.2588,91.8018 105.2788,91.6378 105.2788,91.4728 L105.2908,88.1428 C105.2908,87.9948 105.2758,87.8488 105.2458,87.7048 L105.1788,87.3848 C105.1578,87.2858 105.1308,87.1888 105.0968,87.0948 L104.9248,86.6258 L104.7808,85.3188 L104.8118,84.1168 C104.8168,83.9308 104.7968,83.7438 104.7518,83.5628 C104.7498,82.7638 104.2968,82.0468 103.6028,81.6928 L103.4198,81.5188 C103.0208,81.1378 102.4978,80.9368 101.9668,80.9368 L101.9668,80.9368 Z M59.0128,6.0438 C58.8488,6.0438 58.6828,6.0628 58.5198,6.1028 L55.2768,6.8848 C55.2068,6.9018 55.1358,6.9228 55.0668,6.9468 L53.0318,7.6698 C52.5658,7.8358 52.1728,8.1588 51.9228,8.5848 L50.9598,10.2208 C50.7898,10.5088 50.6918,10.8338 50.6728,11.1678 L50.4078,15.8048 L50.1498,16.1678 L49.8888,16.3568 L48.0508,17.2018 L45.5958,18.0378 C45.4578,18.0858 45.3258,18.1468 45.2018,18.2198 L43.3748,19.3028 C42.9828,19.5338 42.6768,19.8878 42.5018,20.3098 L41.8608,21.8638 C41.7628,22.1018 41.7088,22.3548 41.7018,22.6098 L39.7178,22.3668 L38.5328,22.1688 C38.4998,22.1628 38.4678,22.1588 38.4338,22.1548 L38.0378,22.1088 C38.0528,21.9398 38.0468,21.7688 38.0188,21.6008 L37.9288,21.0398 C37.8008,20.2348 37.2178,19.5758 36.4348,19.3508 L35.7278,19.1468 C35.6188,19.1158 35.5068,19.0928 35.3938,19.0798 L34.6648,18.9918 C34.5818,18.9828 34.4988,18.9778 34.4158,18.9778 C34.3028,18.9778 34.1908,18.9868 34.0798,19.0048 L32.2018,19.3078 L30.2828,19.0418 C30.1868,19.0278 30.0898,19.0218 29.9928,19.0218 C29.1918,19.0218 28.4508,19.4798 28.0968,20.2158 C27.6998,21.0418 27.8848,22.0288 28.5508,22.6568 L29.0668,23.1438 C29.0428,23.5558 29.1408,23.9708 29.3538,24.3328 L30.6208,26.4868 C30.6768,26.5818 30.7398,26.6728 30.8098,26.7578 L31.0008,27.8658 L31.0198,28.2778 C30.5998,28.2968 30.1828,28.4408 29.8298,28.7158 L29.6008,28.8928 L29.5838,28.8948 L28.9878,28.7308 C28.8048,28.6808 28.6178,28.6558 28.4308,28.6558 C28.1538,28.6558 27.8778,28.7108 27.6188,28.8188 L26.9038,29.1178 L26.3378,28.3648 C26.1128,28.0648 25.8118,27.8308 25.4658,27.6858 L24.0128,27.0798 C23.7548,26.9728 23.4788,26.9178 23.2018,26.9178 C23.1068,26.9178 23.0118,26.9238 22.9178,26.9368 L20.4838,27.2688 C19.9638,27.3398 19.4898,27.6028 19.1538,28.0048 L18.9528,28.2448 C18.9408,28.2498 18.9278,28.2538 18.9158,28.2588 C18.6618,28.1538 18.3888,28.1018 18.1158,28.1018 C17.9288,28.1018 17.7398,28.1268 17.5558,28.1768 L15.7708,28.6698 C15.7068,28.6878 15.6418,28.7088 15.5798,28.7328 L14.5588,29.1218 C14.4818,29.1508 14.4058,29.1858 14.3338,29.2238 L12.2708,30.3018 C11.8658,30.5138 11.5408,30.8518 11.3458,31.2638 L11.0828,31.8188 C10.9408,32.1168 10.8708,32.4458 10.8781838,32.7758 L10.9138,34.1178 C10.9288,34.6768 11.1648,35.2048 11.5668,35.5868 C11.2178,36.0168 11.0488,36.5728 11.1088,37.1368 C11.1868,37.8648 11.6368,38.4998 12.2998,38.8148 L13.6018,39.4328 L13.8388,39.7618 L13.9278,39.9968 C14.0598,40.3438 14.2798,40.6498 14.5678,40.8838 L14.9528,41.1978 C15.3338,41.5068 15.8038,41.6698 16.2818,41.6698 C16.4858,41.6698 16.6918,41.6398 16.8928,41.5798 L18.1018,41.2128 C18.1428,41.1998 18.1828,41.1858 18.2228,41.1718 L18.6328,41.4068 C18.8588,41.5368 19.1058,41.6228 19.3638,41.6628 L19.6598,41.7078 L20.7158,42.0708 L23.1618,43.3418 C23.2748,43.4008 23.3938,43.4508 23.5158,43.4868 L24.6828,43.8438 C24.7978,43.8798 24.9158,43.9048 25.0338,43.9198 L25.3598,43.9608 L25.5208,44.6428 C25.6578,45.2278 26.0388,45.7248 26.5678,46.0098 L27.1428,46.3218 C27.2528,46.6468 27.4438,46.9458 27.7028,47.1858 L27.6488,47.4318 C27.5328,47.9678 27.6318,48.5288 27.9258,48.9938 L29.1158,50.8868 L29.2928,51.1878 L29.8298,52.2608 C29.9778,52.5558 30.1938,52.8128 30.4588,53.0098 L31.8558,54.0448 C32.0588,54.1958 32.2878,54.3078 32.5308,54.3778 L33.7218,54.7188 L33.7078,54.9788 C33.7018,55.0868 33.7038,55.1938 33.7138,55.3008 L33.7748,55.9248 L33.7218,55.9958 C33.7008,56.0248 33.6778,56.0558 33.6578,56.0858 L33.3638,56.5248 C32.9038,57.2108 32.8878,58.1028 33.3228,58.8048 L33.8968,59.7308 L33.6148,60.7838 C33.5748,60.9318 33.5518,61.0848 33.5458,61.2378 L33.4718,62.9638 L32.9248,67.0798 C32.9138,67.1708 32.9068,67.2628 32.9068,67.3548 L32.9048,69.2328 L32.8518,69.4758 C32.8328,69.5658 32.8188,69.6548 32.8098,69.7468 L32.6508,71.6068 L32.4488,73.0958 C32.4388,73.1708 32.4328,73.2478 32.4308,73.3248 L32.4128,74.0258 C32.3588,74.1918 32.3268,74.3628 32.3148,74.5388 L32.2738,75.1648 L31.4528,77.6078 L30.4648,78.1118 C29.7898,78.4558 29.3508,79.1368 29.3188,79.8938 C29.2848,80.6508 29.6618,81.3678 30.3028,81.7698 L32.0798,82.8818 L32.1898,83.6748 C32.2698,84.2618 32.5938,84.7888 33.0818,85.1238 C33.4358,85.3668 33.8518,85.4928 34.2738,85.4928 C34.4338,85.4928 34.5948,85.4758 34.7538,85.4388 L35.2938,85.3108 L36.2578,85.8018 L38.0278,87.1048 C38.0718,87.1368 38.1158,87.1668 38.1628,87.1958 L38.5068,87.4098 C38.8068,87.5978 39.1488,87.7068 39.5028,87.7258 L40.9848,87.8088 L41.3148,87.9738 L42.0228,88.4758 C42.2848,88.6608 42.5818,88.7818 42.8918,88.8348 C43.0818,88.8898 43.2778,88.9168 43.4748,88.9168 C43.6818,88.9168 43.8898,88.8858 44.0918,88.8238 L44.4468,88.7148 L44.6618,88.7668 C44.8178,88.8038 44.9778,88.8228 45.1378,88.8238 L46.8408,88.8378 L46.8568,88.8378 C47.0488,88.8378 47.2398,88.8118 47.4238,88.7598 L48.0428,88.5868 C48.1708,88.5508 48.2948,88.5028 48.4138,88.4448 L48.5268,88.3878 C48.7088,88.2968 48.8758,88.1818 49.0238,88.0428 L50.1668,88.6988 C50.2398,88.7408 50.3148,88.7788 50.3908,88.8108 C50.6918,88.9778 51.0198,89.0648 51.3498,89.0748 L51.8148,89.3138 C51.8568,89.3358 51.8998,89.3558 51.9438,89.3748 C52.0968,89.5968 52.2928,89.7898 52.5248,89.9418 L53.0478,90.2828 C53.2038,90.3858 53.3748,90.4668 53.5528,90.5238 C53.5998,90.8268 53.7138,91.1218 53.8928,91.3858 C54.2908,91.9678 54.9458,92.3038 55.6318,92.3038 C55.7768,92.3038 55.9228,92.2888 56.0688,92.2568 L56.5768,92.1498 C56.7798,92.1348 56.9798,92.0928 57.1678,92.0228 L58.0328,91.8318 C58.0548,91.8278 58.0758,91.8228 58.0968,91.8178 L58.4138,91.9878 C58.7268,92.1538 59.0678,92.2358 59.4048,92.2358 C59.8018,92.2358 60.1948,92.1238 60.5348,91.9068 C60.6718,91.8678 60.8058,91.8138 60.9328,91.7468 L61.9578,91.2088 L62.0438,91.1668 L63.2938,91.1568 C63.6368,91.1538 63.9748,91.0668 64.2768,90.9038 L64.7008,90.6748 C65.6948,90.1368 66.0868,88.9108 65.5898,87.8958 L65.0918,86.8818 L65.0238,86.7138 L64.7418,84.8528 L64.7388,84.5348 L64.8518,84.0358 L64.8888,83.9518 C65.3558,83.8968 65.8008,83.6868 66.1458,83.3368 L67.5278,81.9308 C67.6778,81.7778 67.8008,81.6058 67.8968,81.4218 L68.4778,81.0288 C68.4798,81.0298 68.4808,81.0308 68.4828,81.0328 L69.6868,81.7008 C69.7888,81.7568 69.8948,81.8058 70.0038,81.8448 C70.3788,82.4688 71.0608,82.8648 71.8068,82.8648 C71.8808,82.8648 71.9558,82.8608 72.0328,82.8528 L73.9348,82.6488 C73.9748,82.6438 74.0148,82.6388 74.0538,82.6328 L74.2718,82.7748 C74.5918,82.9838 74.9618,83.1008 75.3388,83.1158 L75.5618,83.4248 C75.8208,83.7848 76.1868,84.0538 76.6078,84.1938 L76.8028,84.2578 L78.3668,85.0198 C78.6548,85.1598 78.9688,85.2328 79.2878,85.2328 L79.3038,85.2328 L80.0638,85.2258 C80.1118,85.2258 80.1588,85.2238 80.2058,85.2208 L80.4028,85.2058 L81.1268,85.3158 C81.2308,85.3308 81.3368,85.3398 81.4428,85.3398 C81.6788,85.3398 81.9148,85.2998 82.1388,85.2208 L82.3018,85.1638 L83.2648,85.1088 C83.6888,85.0848 84.0958,84.9338 84.4318,84.6748 L85.0598,84.1898 L85.3118,84.0928 C85.6588,83.9588 85.9648,83.7358 86.1978,83.4468 L86.7988,82.6988 C86.9418,82.5208 87.0548,82.3208 87.1328,82.1078 L87.3538,81.5068 L88.0888,81.0638 C88.2538,80.9648 88.4038,80.8428 88.5358,80.7028 L88.9848,80.2248 L89.3698,79.8768 C89.3948,79.8548 89.4198,79.8318 89.4428,79.8088 L89.8408,79.4138 L91.2578,78.6188 C91.7868,78.3218 92.1608,77.8108 92.2868,77.2178 L92.4808,76.2908 L93.0468,75.6158 C93.3638,75.2378 93.5388,74.7608 93.5398,74.2678 L93.5418,72.6598 C93.5438,71.7998 93.0228,71.0268 92.2258,70.7048 L91.4888,70.4068 C91.2378,70.3048 90.9688,70.2538 90.7008,70.2538 C90.4888,70.2538 90.2758,70.2858 90.0708,70.3508 L89.7238,70.4598 L88.8488,69.9008 L89.4018,68.7548 C89.4848,68.5818 89.5438,68.3988 89.5768,68.2108 L89.6808,67.6348 C89.7148,67.4388 89.7218,67.2408 89.7008,67.0438 L89.6498,66.5618 C89.6138,66.2268 89.4988,65.9048 89.3118,65.6248 L88.8258,64.8878 C88.8638,64.8598 88.9018,64.8298 88.9378,64.7988 L89.3788,64.4178 C89.6828,64.1558 89.9048,63.8118 90.0188,63.4278 L90.5428,61.6738 C90.6798,61.2148 90.6568,60.7228 90.4758,60.2788 L90.2508,59.7248 C90.0678,59.2738 89.7338,58.9008 89.3058,58.6678 L89.0658,58.5378 L88.9048,58.1638 C88.9768,58.0798 89.0418,57.9908 89.0998,57.8968 L89.4248,57.3668 C89.8698,56.6408 89.8328,55.7168 89.3318,55.0288 L88.4218,53.7798 C88.4208,53.7618 88.4188,53.7448 88.4168,53.7288 L88.2418,52.2908 C88.2328,52.2148 88.2188,52.1378 88.2008,52.0618 L88.0768,51.5368 C87.9378,50.9518 87.5588,50.4618 87.0448,50.1788 L87.0308,50.1668 C86.6568,49.8348 86.1758,49.6468 85.6758,49.6368 L85.6118,49.6358 C85.6858,49.4638 85.7358,49.2838 85.7618,49.1008 L85.9308,48.6178 C85.9458,48.5738 85.9588,48.5308 85.9718,48.4858 L86.5208,48.1178 C86.7308,47.9778 86.9128,47.8018 87.0588,47.5968 L88.4458,45.6648 C88.5668,45.5688 88.6788,45.4588 88.7788,45.3358 L88.8848,45.2048 C89.0148,45.1298 89.1368,45.0408 89.2478,44.9388 C89.3378,44.9188 89.4258,44.8928 89.5128,44.8598 L89.9178,44.7098 C90.1718,44.6158 90.4048,44.4728 90.6048,44.2898 L92.4288,42.6248 C92.7888,42.2948 93.0228,41.8518 93.0928,41.3698 L93.1698,40.8218 C93.1948,40.6548 93.1988,40.4858 93.1818,40.3158 L93.0438,38.9308 L93.0968,38.7578 C93.1608,38.5488 93.1908,38.3308 93.1878,38.1118 L93.1648,36.6248 L93.1688,36.5318 L93.8268,34.8148 C93.8828,34.6688 93.9228,34.5158 93.9448,34.3608 L94.1258,33.1018 L94.1828,32.8478 L95.2878,31.5818 C95.3628,31.4968 95.4298,31.4058 95.4888,31.3098 L96.9738,28.9268 C97.3348,28.3478 97.3908,27.6298 97.1268,27.0008 C96.8628,26.3718 96.3108,25.9088 95.6448,25.7608 L93.6618,25.3198 L93.1748,25.1828 C93.0908,25.1598 93.0078,25.1418 92.9228,25.1288 L92.4138,25.0508 L91.4998,24.3178 C91.2928,24.1518 91.0568,24.0268 90.8028,23.9488 L90.2978,23.7928 C90.0948,23.7298 89.8858,23.6998 89.6768,23.6998 C89.3088,23.6998 88.9438,23.7958 88.6188,23.9848 L88.2838,24.1798 C88.1688,24.1408 88.0498,24.1138 87.9278,24.0958 L86.8778,23.9448 L86.5838,23.3138 C86.5388,23.2168 86.4848,23.1228 86.4248,23.0338 L86.1698,22.6508 C86.0148,22.4188 85.8158,22.2208 85.5838,22.0668 L84.4948,21.3448 C84.1828,21.1388 83.8238,21.0188 83.4498,20.9978 L81.9968,20.9158 C81.9568,20.9138 81.9178,20.9128 81.8778,20.9128 C81.7138,20.9128 81.5498,20.9308 81.3898,20.9698 L80.9888,21.0658 L80.5788,20.8288 C80.4578,20.7608 80.3318,20.7028 80.1998,20.6588 L79.6658,20.4798 C79.5568,20.4428 79.4468,20.4158 79.3328,20.3978 L78.8908,20.3258 C78.7848,20.3088 78.6778,20.2998 78.5688,20.2988 L78.4478,20.2978 C78.3608,20.2208 78.2668,20.1508 78.1688,20.0898 L76.3798,18.9718 C76.2818,18.9108 76.1778,18.8578 76.0708,18.8138 L75.9368,17.0368 C75.8868,16.3608 75.5128,15.7508 74.9338,15.3978 L74.3568,15.0458 C74.0178,14.8398 73.6388,14.7388 73.2628,14.7388 C72.7308,14.7388 72.2048,14.9388 71.8018,15.3268 L71.4318,15.6838 L71.2938,15.1548 C71.2088,14.8288 71.0468,14.5288 70.8218,14.2788 L70.3848,13.7928 C70.0628,13.4348 69.6298,13.1998 69.1558,13.1228 L68.0418,12.9428 L67.8048,12.6138 C67.4838,12.1658 67.0008,11.8628 66.4588,11.7688 L65.9488,11.6788 C65.9288,11.6328 65.9068,11.5878 65.8838,11.5438 L65.0618,9.9818 C64.7368,9.3668 64.1298,8.9508 63.4388,8.8718 L62.7928,8.7978 C62.7128,8.7888 62.6328,8.7838 62.5528,8.7838 C62.2738,8.7838 61.9988,8.8398 61.7408,8.9468 L61.6048,8.1838 C61.5138,7.6698 61.2348,7.2078 60.8228,6.8888 L60.3018,6.4848 C59.9288,6.1968 59.4748,6.0438 59.0128,6.0438 L59.0128,6.0438 Z" id="Fill-3" fill="#FFFFFF"></path>
            <path d="M54.2594,18.8622 L52.6374,17.6242 L53.0624,17.0192 L53.2014,16.7132 C53.2284,16.6532 53.2444,16.5892 53.2474,16.5232 L53.5334,11.5192 L54.2594,10.2872 L55.9744,9.6742 L58.8264,8.9902 L58.9304,9.5732 C58.2354,10.7502 57.6734,12.0212 57.2724,13.3682 C56.7974,14.9592 56.5564,16.6212 56.5564,18.3042 C56.5564,20.1372 56.8424,21.9472 57.4084,23.6832 C57.6694,24.4802 57.9934,25.2582 58.3714,26.0132 L56.5094,25.6412 C56.4774,25.6342 56.4394,25.6312 56.4044,25.6312 L55.2474,25.6392 L54.9984,25.5902 L54.7224,25.4332 L54.7864,25.3522 C54.8604,25.2592 54.9004,25.1442 54.9004,25.0242 L54.8994,24.4382 C54.8994,24.3242 54.8624,24.2152 54.7934,24.1242 L54.7254,23.7172 L54.8194,22.9182 C54.8224,22.8762 54.8224,22.8322 54.8184,22.7882 L54.6974,21.9192 L54.7254,19.7452 C54.7264,19.6512 54.7024,19.5602 54.6574,19.4792 L54.3984,19.0202 C54.3634,18.9592 54.3164,18.9052 54.2594,18.8622 L54.2594,18.8622 Z M32.0034,23.1622 L33.0724,24.9562 C33.0754,24.9582 33.0804,24.9632 33.0884,24.9702 C33.0994,24.9772 33.1114,24.9832 33.1224,24.9902 C33.1694,25.0222 33.2104,25.0602 33.2454,25.1022 L33.3134,25.1542 C33.4184,25.2352 33.4874,25.3512 33.5114,25.4822 L33.8624,27.5402 L33.9764,30.0032 C34.0164,30.0252 34.0524,30.0532 34.0874,30.0872 C34.1244,30.1252 34.1544,30.1662 34.1784,30.2112 L34.1854,30.2142 C34.2174,30.2332 34.3874,30.3342 34.4124,30.3582 L34.6614,30.5112 C34.8414,30.6162 34.9424,30.8182 34.9194,31.0252 C34.8954,31.2332 34.7504,31.4062 34.5524,31.4672 L34.2874,31.5502 L34.3634,31.7282 L35.0164,31.6812 C35.0884,31.6442 35.1614,31.6202 35.2254,31.6192 L36.0594,31.6012 C36.1004,31.6022 36.1404,31.6042 36.1804,31.6122 L36.6484,31.7122 C36.7114,31.7262 36.7754,31.7542 36.8384,31.7902 C36.8564,31.8012 36.8714,31.8122 36.8894,31.8252 C36.9314,31.8532 36.9694,31.8852 37.0054,31.9212 C37.0144,31.9312 37.0284,31.9372 37.0374,31.9482 L38.1244,32.2772 L39.3574,32.2722 L40.9484,32.1152 L41.4134,31.8342 C41.6054,31.7212 41.8464,31.7382 42.0184,31.8792 L43.0054,32.6352 C43.0274,32.6492 43.1174,32.7252 43.1374,32.7422 C43.1674,32.7592 43.2454,32.7942 43.2704,32.8162 L43.3324,32.8562 L43.8244,32.8832 L44.9654,32.4202 C44.9864,32.4112 45.0414,32.3862 45.0624,32.3782 C45.2114,32.3052 45.4294,32.2822 45.5774,32.3562 C45.7174,32.4292 45.8624,32.5812 45.8954,32.7352 L46.2014,33.7892 L47.6514,34.3872 L48.2164,33.2332 L48.5764,32.6912 L48.6084,32.3482 L47.9614,31.5982 C47.8524,31.4702 47.8084,31.2992 47.8464,31.1362 L47.9314,30.7702 C47.9614,30.6342 48.0454,30.5162 48.1634,30.4422 L49.4484,29.6552 C49.5134,29.6122 49.6064,29.5712 49.6824,29.5602 L51.0134,29.3802 L51.5394,28.8222 C51.5524,28.7892 51.5734,28.7402 51.5914,28.7092 L51.6384,28.6342 L51.8404,28.0542 C51.8764,27.9532 51.9404,27.8672 52.0234,27.8052 L52.1264,27.1652 C52.1384,27.0972 52.1614,27.0332 52.1974,26.9742 L52.4284,26.5992 C52.4754,26.4842 52.5204,26.4672 52.6284,26.4082 L52.7444,26.3492 L53.0494,26.0562 C53.0584,26.0312 53.0834,25.9772 53.0954,25.9532 C53.1074,25.9322 53.1194,25.9122 53.1324,25.8932 L53.2954,25.3612 C53.3424,25.2082 53.4554,25.0862 53.6024,25.0272 C53.6424,25.0122 53.6854,25.0002 53.7274,24.9952 L53.8484,24.8432 L53.8264,24.5862 C53.7674,24.5072 53.7304,24.4102 53.7224,24.3112 L53.6774,23.6962 L53.7664,22.8642 L53.6494,21.9812 L53.6724,19.8732 L53.5354,19.6312 L51.9324,18.4242 L51.3704,18.8312 L49.1294,19.8692 L46.5764,20.7432 L45.0634,21.6452 L44.6134,22.7322 L44.6544,22.9072 L45.3084,23.4872 C45.4364,23.6012 45.4994,23.7692 45.4814,23.9382 C45.4614,24.1092 45.3604,24.2592 45.2114,24.3412 L44.2704,24.8572 C44.2384,24.8752 44.2044,24.8892 44.1684,24.9002 L42.1024,25.5132 C42.0284,25.5342 41.9544,25.5402 41.8814,25.5302 L36.9974,24.8812 C36.9264,24.8732 36.8574,24.8492 36.7954,24.8142 L35.5194,24.0752 C35.4524,24.0362 35.3954,23.9842 35.3514,23.9202 L35.1834,23.7002 C35.1534,23.6732 35.1274,23.6452 35.1024,23.6122 L35.0274,23.5102 C34.9884,23.4792 34.9544,23.4412 34.9254,23.3982 C34.9184,23.3862 34.9124,23.3742 34.9054,23.3632 L34.8864,23.3442 C34.7804,23.2282 34.7314,23.0742 34.7504,22.9192 L34.8114,22.4462 C34.8194,22.3852 34.8374,22.3242 34.8684,22.2692 L35.0414,21.9402 L34.9674,21.9172 L34.4354,21.8622 L32.3034,22.2062 C32.2354,22.2172 32.1684,22.2142 32.1044,22.2002 L32.0124,22.1782 L32.1024,22.5962 C32.1204,22.6812 32.1174,22.7712 32.0924,22.8552 L32.0034,23.1622 Z M55.1434,26.6812 L54.7094,26.6042 C54.6564,26.5952 54.6044,26.5752 54.5574,26.5502 L54.1104,26.2962 L54.1074,26.3022 C54.0884,26.3652 54.0584,26.4212 54.0194,26.4712 L53.9844,26.5762 C53.9544,26.6652 53.9004,26.7452 53.8274,26.8072 L53.3784,27.1892 C53.3464,27.2182 53.3094,27.2432 53.2704,27.2612 L53.2454,27.2742 L53.1314,27.5492 L52.9954,28.3852 C53.0164,28.4062 53.0254,28.4162 53.0424,28.4342 L53.0444,28.4332 L53.0634,28.4572 C53.0694,28.4632 53.0864,28.4802 53.0874,28.4832 L53.5354,29.0602 C53.5974,29.1422 53.6374,29.2382 53.6454,29.3402 L53.7094,30.1032 L53.9444,30.7762 L54.0094,30.8412 L53.6414,31.2242 L54.0764,30.9262 L55.3864,32.7762 L55.7144,33.0362 C55.8074,33.1092 55.8724,33.2142 55.8984,33.3292 L56.0314,33.9082 L56.7254,33.8312 C56.7704,33.8272 56.8224,33.8262 56.8684,33.8342 L58.2434,34.0622 C58.2584,34.0662 58.3384,34.0862 58.3534,34.0912 L59.0134,34.3422 C59.1244,34.3842 59.2194,34.4632 59.2804,34.5662 L59.4124,34.7902 C59.4624,34.8742 59.4934,34.9822 59.4914,35.0802 L59.4894,35.2002 L59.5874,35.3202 L61.5344,35.3182 L61.6424,35.3182 L61.8034,34.5282 C61.8204,34.4452 61.8674,34.3192 61.9214,34.2542 L62.5844,33.4442 C62.6814,33.3262 62.8424,33.2362 62.9944,33.2322 L63.2734,33.2252 L59.7864,28.3702 C59.5124,27.9862 59.2584,27.5922 59.0184,27.1932 L58.8824,27.1832 L56.3044,26.6732 L55.1434,26.6812 Z M48.4784,38.6942 L48.3404,38.8832 C48.3264,38.9032 48.3114,38.9202 48.2954,38.9382 L48.1924,39.1082 C48.1554,39.1692 48.1054,39.2212 48.0484,39.2622 L45.3894,41.1612 L45.0844,41.4832 L44.3394,43.6822 L44.1774,44.9022 L44.6004,45.1702 C44.6434,45.1962 44.6824,45.2312 44.7144,45.2692 L45.7184,46.3822 L46.7954,46.1802 C46.8834,46.1642 46.9734,46.1692 47.0584,46.1972 L47.3194,46.2832 C47.4364,46.3232 47.5374,46.4022 47.6014,46.5072 L49.1434,49.0152 L49.8894,50.0622 L51.2024,51.7852 L52.1094,51.7922 L52.8554,51.5552 L54.3674,51.3302 L57.0324,51.3022 L57.4434,50.6672 C57.4784,50.6112 57.5254,50.5632 57.5794,50.5242 L58.0284,50.2042 C58.0784,50.1682 58.1344,50.1422 58.1934,50.1262 L58.8604,49.9412 L59.5114,48.9002 C59.5634,48.8152 59.6394,48.7462 59.7304,48.7032 L60.3594,48.3992 C60.4054,48.3782 60.4544,48.3622 60.5044,48.3532 L61.2544,48.2312 L61.9544,48.0352 L62.0264,47.7232 L62.0614,46.5962 C62.0624,46.5922 62.0624,46.5892 62.0624,46.5842 L62.0594,46.5742 L61.8334,45.8602 C61.8204,45.8202 61.8124,45.7792 61.8094,45.7382 L61.3774,44.8792 C61.3544,44.8342 61.3394,44.7852 61.3304,44.7342 L61.2604,44.3262 L61.1434,43.0232 C61.1394,42.9732 61.1414,42.9222 61.1514,42.8732 L61.1644,42.8152 L61.0694,42.6522 C61.0444,42.6082 61.0244,42.5612 61.0114,42.5122 C61.0114,42.5082 60.9864,42.4032 60.9854,42.4002 C60.9824,42.3862 60.9804,42.3722 60.9784,42.3572 C60.9654,42.3422 60.9564,42.3262 60.9464,42.3072 L60.6704,41.6782 C60.6494,41.6202 60.6394,41.5592 60.6394,41.4982 L60.6394,41.2742 C60.6394,41.1512 60.6824,41.0322 60.7604,40.9372 L61.1774,40.4542 L60.7734,39.7492 C60.6884,39.6002 60.6814,39.4192 60.7544,39.2642 L60.8014,39.1632 C60.8504,39.0562 60.9364,38.9702 61.0424,38.9172 L61.7044,38.5532 L61.7464,38.5112 L61.8794,38.2412 L62.1994,36.7752 C62.1714,36.7572 62.1424,36.7342 62.1174,36.7102 C62.1104,36.7012 62.0734,36.6652 62.0374,36.6282 L61.9814,36.6062 C61.9514,36.5912 61.8514,36.5172 61.8244,36.4962 L61.6514,36.3982 C61.6284,36.3942 61.6114,36.3912 61.6104,36.3912 L61.5524,36.3802 L61.4914,36.3702 L59.3374,36.3732 C59.1794,36.3732 59.0294,36.3022 58.9294,36.1802 L58.6934,35.8902 C58.6914,35.8892 58.6914,35.8872 58.6904,35.8862 L58.5684,35.7372 C58.4884,35.6402 58.4314,35.4992 58.4334,35.3732 L58.4354,35.2472 L57.9784,35.0752 L56.7684,34.8842 L55.7554,34.9972 C55.5294,35.0172 55.2424,34.8982 55.1514,34.6822 C55.1384,34.6522 55.0944,34.5362 55.0874,34.5022 L54.9134,33.7432 L54.6744,33.5582 C54.6274,33.5252 54.5874,33.4832 54.5544,33.4372 L53.2084,31.5222 C53.2064,31.5192 53.1304,31.4452 53.1274,31.4422 C53.1044,31.4092 53.0134,31.2882 52.9984,31.2492 L52.6924,30.3802 C52.6784,30.3382 52.6694,30.2952 52.6664,30.2512 L52.6104,29.5862 L52.4534,29.3852 C52.4274,29.4392 52.3934,29.4882 52.3504,29.5302 L51.7564,30.1262 L51.6804,30.2022 C51.5994,30.2832 51.4474,30.3822 51.3334,30.3982 L49.9534,30.5842 L49.8354,30.6632 C49.7954,30.6902 49.7534,30.7112 49.7084,30.7252 L48.9824,31.1702 L49.5524,31.8302 C49.6474,31.9402 49.6924,32.0822 49.6784,32.2252 L49.6104,32.9232 C49.6014,33.0102 49.5714,33.0932 49.5224,33.1662 L49.1254,33.7582 L48.6714,34.6952 C48.6934,34.7932 48.6794,34.8882 48.6484,34.9772 C48.6404,35.0012 48.6304,35.0202 48.6194,35.0422 C48.6054,35.0692 48.6004,35.0992 48.5834,35.1222 L48.5864,35.1282 C48.6294,35.2052 48.6524,35.2942 48.6524,35.3832 L48.6624,37.4182 L48.5764,38.4312 C48.5674,38.5262 48.5334,38.6162 48.4784,38.6942 L48.4784,38.6942 Z M85.3344,52.5082 L84.2254,52.4842 L83.1324,52.6132 L83.1014,53.5852 C83.0974,53.7012 83.0554,53.8142 82.9814,53.9042 L82.4514,54.5472 C82.4094,54.5982 82.3574,54.6412 82.3004,54.6722 L82.0634,54.8032 C81.9694,54.8542 81.8624,54.8762 81.7574,54.8662 L80.7834,54.7692 C80.6044,54.7512 80.4464,54.6432 80.3664,54.4812 C80.2854,54.3182 80.2924,54.1262 80.3874,53.9722 L80.7674,53.3532 L79.8814,53.6532 C79.8054,53.6772 79.7274,53.6852 79.6454,53.6762 L79.0194,53.5942 L78.2354,53.3952 L77.5384,53.5342 C77.3664,53.5662 77.1454,53.5222 77.0214,53.3982 C77.0074,53.3842 76.9434,53.3192 76.9314,53.3032 L76.7204,53.0322 L76.2264,52.4882 C76.2114,52.4722 76.1624,52.4242 76.1474,52.4082 L75.7694,52.0132 L75.6074,51.9152 L74.4814,51.6122 L74.3264,52.5952 C74.3154,52.6562 74.2924,52.7342 74.2634,52.7892 L74.1564,52.9602 L73.5854,54.1622 C73.5054,54.3282 73.3454,54.4402 73.1624,54.4592 C72.9774,54.4712 72.7994,54.3982 72.6904,54.2502 L72.1614,53.5452 L72.0754,53.5992 C72.0684,53.6022 71.9874,53.6442 71.9794,53.6462 L71.8544,53.6952 C71.8414,53.7012 71.7504,53.7302 71.7364,53.7342 C71.6714,53.7522 71.6054,53.7572 71.5394,53.7532 L71.4374,53.7392 L70.8914,53.9842 L70.4934,54.4312 C70.4234,54.5092 70.3234,54.5732 70.2214,54.6012 L69.8244,54.7032 C69.7814,54.7142 69.7364,54.7202 69.6924,54.7202 L68.2804,54.7632 L68.2664,54.7632 C68.1814,54.7632 68.0984,54.7432 68.0234,54.7032 L67.5414,54.4582 C67.3374,54.3532 67.2234,54.1292 67.2614,53.9032 L67.3824,53.1622 C67.3954,53.0772 67.4314,52.9802 67.4834,52.9122 L67.8044,52.4852 L67.8344,51.8952 L67.6744,51.7022 L67.2214,51.4982 C67.1634,51.4722 67.0924,51.4302 67.0464,51.3852 L66.3974,50.7632 C66.3604,50.7272 66.3294,50.6862 66.3034,50.6412 L65.7934,49.7302 C65.7634,49.7762 65.7134,49.8432 65.6884,49.8682 L65.4464,50.0892 C65.3004,50.2242 65.0914,50.2632 64.9044,50.1922 L63.4654,49.6472 L62.6024,49.5152 C62.4774,49.4942 62.3624,49.4292 62.2814,49.3292 L62.0854,49.0892 L61.4804,49.2572 L60.7494,49.3792 L60.3254,49.5832 L59.6354,50.6802 C59.5654,50.7882 59.4574,50.8672 59.3344,50.9002 L58.5634,51.1142 L58.2724,51.3222 L57.8814,51.9292 L59.1844,53.1852 C59.2394,53.2482 59.2764,53.3212 59.2964,53.4012 L59.7074,55.0472 C59.7304,55.1382 59.7284,55.2342 59.6994,55.3262 L59.2664,56.7652 C59.2454,56.8362 59.2084,56.9032 59.1604,56.9602 L58.8274,57.3382 L59.1064,57.7902 C59.1384,57.8412 59.1614,57.8982 59.1734,57.9562 L59.2894,58.4952 C59.2934,58.5192 59.2964,58.5442 59.2994,58.5682 L59.4274,60.4102 L59.4284,60.4382 C59.4414,60.5012 59.4474,60.5702 59.4444,60.6382 C59.4414,60.7042 59.4284,60.7682 59.4044,60.8182 L59.1854,61.2662 C59.1314,61.3752 59.0414,61.4622 58.9294,61.5132 L58.2544,61.8192 L57.3284,63.2052 L56.8054,64.9092 L57.2814,66.0202 C57.3094,66.0862 57.3234,66.1572 57.3234,66.2292 L57.4214,67.5312 L58.1054,67.6322 L58.4764,67.1862 L58.6804,66.7802 C58.7014,66.7382 58.7274,66.6992 58.7604,66.6642 L60.0404,65.2472 C60.1734,65.1022 60.3784,65.0382 60.5644,65.0902 L60.9254,65.1852 C61.0524,65.2182 61.1624,65.2972 61.2334,65.4062 L61.6454,66.0082 C61.7034,66.0512 61.7484,66.1032 61.7834,66.1632 L61.8354,66.2232 L61.8644,66.1532 C61.8724,66.1322 61.8804,66.1112 61.8924,66.0922 C61.8994,66.0782 61.9074,66.0632 61.9164,66.0512 C61.9484,66.0012 62.0374,65.8782 62.0834,65.8422 L62.2874,65.6842 C62.3084,65.6682 62.4054,65.6092 62.4294,65.5952 L63.3884,65.1092 C63.4144,65.0872 63.4444,65.0622 63.4544,65.0542 C63.4604,65.0512 63.5534,64.9962 63.5614,64.9932 L63.8394,64.8442 C63.9674,64.7662 64.1204,64.7472 64.2624,64.7882 L65.0114,65.0112 C65.1634,65.0562 65.2864,65.1672 65.3464,65.3112 L65.5414,65.7752 L65.5484,65.7712 C65.6494,65.7202 65.7614,65.7022 65.8724,65.7202 L66.5814,65.8362 C66.6614,65.8502 66.7384,65.8802 66.8044,65.9292 L67.0294,66.0852 C67.1004,66.1342 67.1574,66.1982 67.1954,66.2722 L67.2094,66.2852 L67.9154,66.9912 C67.9584,67.0262 67.9974,67.0672 68.0274,67.1122 L68.1244,67.2652 C68.1524,67.3102 68.1754,67.3592 68.1894,67.4122 L69.0654,70.5382 L69.1714,70.7132 L69.4754,70.9662 L69.7494,70.9292 L69.9054,70.7702 C69.9704,70.7042 70.0504,70.6572 70.1394,70.6332 L70.5024,70.5322 C70.6034,70.5022 70.7124,70.5062 70.8124,70.5402 L72.2544,71.0282 L72.7254,70.8182 C72.8454,70.7642 72.9804,70.7572 73.1034,70.7972 L73.4444,70.9082 C73.4464,70.9092 73.4484,70.9102 73.4504,70.9102 C73.4304,70.7862 73.4574,70.6572 73.5254,70.5492 L73.7154,70.2482 C73.8474,70.0422 74.1014,69.9532 74.3334,70.0322 L74.5944,70.1222 C74.6874,70.1552 74.7704,70.2132 74.8324,70.2902 L75.3074,70.8152 C75.3454,70.8492 75.3794,70.8892 75.4054,70.9352 L75.6184,71.2992 L76.5324,71.6022 C76.5724,71.6152 76.6114,71.6332 76.6484,71.6562 L77.4864,72.1832 C77.5254,72.2082 77.5624,72.2372 77.5924,72.2732 L77.6114,72.2932 L77.7994,72.2922 L77.7924,72.1142 L77.4724,71.8392 C77.4214,71.7962 77.3784,71.7412 77.3474,71.6802 L76.7674,70.5462 C76.7484,70.5122 76.7354,70.4742 76.7244,70.4352 L76.5824,69.8672 C76.5214,69.6242 76.6424,69.3702 76.8714,69.2632 L77.3444,69.0412 C77.4104,69.0102 77.4844,68.9922 77.5574,68.9912 L78.0194,68.9842 L77.9794,68.5102 C77.9694,68.4022 77.9944,68.2932 78.0504,68.1992 L78.3184,67.7442 C78.3724,67.6512 78.4544,67.5772 78.5534,67.5322 L79.1374,67.2662 L79.2364,67.1412 L79.9854,66.3632 C80.0274,66.3212 80.0864,66.2742 80.1404,66.2472 L80.7804,66.0012 C80.7984,65.9972 80.8854,65.9722 80.9034,65.9692 L81.8454,65.8332 L81.9214,65.7162 L81.6004,65.6462 C81.3624,65.5942 81.1914,65.3862 81.1854,65.1432 L81.1814,64.8862 C81.1794,64.7612 81.2224,64.6062 81.3004,64.5012 L81.3944,64.3172 C81.3994,64.3052 81.4054,64.2952 81.4124,64.2842 C81.4334,64.2432 81.4654,64.1832 81.4964,64.1322 L81.4894,64.1292 L81.8064,63.5982 C81.9324,63.3852 82.2304,63.2192 82.4704,63.2962 L83.8694,63.7712 L84.3444,63.6742 L84.8414,63.6282 C84.9184,63.6222 84.9944,63.6322 85.0654,63.6562 L87.1444,62.5512 L87.3254,62.3912 L87.7084,61.1102 L87.6904,61.0642 L87.0684,60.7262 C86.9794,60.6782 86.9064,60.6062 86.8574,60.5172 L86.5354,59.9312 L86.1944,59.1332 L85.4874,57.9932 C85.4034,57.8562 85.3854,57.6872 85.4414,57.5362 L85.5614,57.2092 C85.5984,57.1112 85.6634,57.0252 85.7484,56.9642 L86.6904,56.2872 L85.7984,55.0632 C85.6614,54.9442 85.5344,54.7632 85.5384,54.6122 L85.5574,53.9972 L85.3344,52.5082 Z M102.3644,87.9772 L102.1264,87.3502 C102.1124,87.3082 102.1014,87.2652 102.0964,87.2212 L101.9044,85.4582 L101.9344,84.1502 L101.9314,84.1382 C101.9244,84.1392 101.9184,84.1402 101.9124,84.1402 C101.8924,84.1952 101.8624,84.2462 101.8264,84.2902 L101.7194,86.2492 C101.7114,86.4002 101.6374,86.5422 101.5164,86.6362 L101.2704,86.8282 C101.1774,86.8982 101.0654,86.9372 100.9484,86.9372 L100.2814,86.9382 C100.2564,86.9492 100.2314,86.9582 100.2044,86.9632 C100.1724,86.9712 100.1404,86.9762 100.1064,86.9792 L100.0624,87.0022 C100.0534,87.0112 100.0444,87.0182 100.0434,87.0192 C100.0084,87.0522 99.9684,87.0812 99.9254,87.1022 L99.7104,87.2132 C99.6634,87.2522 99.6094,87.2952 99.5804,87.3102 L99.3624,87.4192 C99.3184,87.4572 99.2644,87.5012 99.2364,87.5162 L99.0114,87.6302 C98.9664,87.6702 98.9174,87.7092 98.8924,87.7222 L98.6794,87.8302 C98.6324,87.8702 98.5794,87.9132 98.5494,87.9282 L98.3434,88.0332 C98.2924,88.0822 98.2264,88.1272 98.1614,88.1512 L98.1564,88.1532 L97.8154,88.7192 C97.8044,88.7452 97.7924,88.7712 97.7774,88.7972 C97.7704,88.8102 97.7614,88.8222 97.7524,88.8362 L97.5714,89.1582 L97.6794,90.2952 C97.6914,90.4142 97.6604,90.5342 97.5964,90.6342 L97.4934,90.7912 C97.4804,90.8092 97.4434,90.8522 97.4124,90.8872 C97.4004,90.9052 97.3904,90.9222 97.3874,90.9302 L97.3604,90.9642 L97.4144,91.9562 L97.9774,92.6982 C98.1204,92.8852 98.1204,93.1452 97.9774,93.3342 L97.9344,93.3982 L97.9594,93.3982 C98.0784,93.3982 98.1914,93.4372 98.2844,93.5092 L98.4274,93.6222 C98.6234,93.7762 98.6854,94.0472 98.5724,94.2712 L98.4814,94.4552 C98.4574,94.5022 98.4274,94.5442 98.3914,94.5812 L98.1664,94.9762 L98.2454,95.4232 L98.8624,95.8562 C99.0084,95.9582 99.0914,96.1282 99.0854,96.3062 L99.0784,96.4632 C99.0724,96.6082 99.0084,96.7422 98.8984,96.8372 L98.8754,96.8592 L100.0004,97.2422 C100.0714,97.2652 100.1364,97.3052 100.1904,97.3562 L100.4784,97.5832 C100.5014,97.6012 100.5404,97.6382 100.5604,97.6602 L100.7144,97.8142 L101.1974,96.4852 L101.3584,96.1662 C101.3804,96.1202 101.4124,96.0772 101.4484,96.0392 L101.4714,95.9972 C101.4824,95.9662 101.4964,95.9382 101.5114,95.9102 L101.5794,95.7342 L101.8104,93.3742 C101.8144,93.3392 101.8194,93.3052 101.8314,93.2722 L102.4094,91.3442 L102.4144,88.1942 L102.3644,87.9772 Z M89.6404,73.4632 L89.1444,73.4282 C89.0574,73.4222 88.9724,73.3932 88.8974,73.3462 L86.7454,71.9702 C86.6884,71.9322 86.6384,71.8852 86.5984,71.8302 L86.1814,71.2362 C86.1374,71.1732 86.1074,71.1012 86.0934,71.0252 L85.9934,70.4592 L85.9254,69.5022 C85.9194,69.4102 85.9374,69.3202 85.9774,69.2382 L86.7764,67.5752 L86.8294,67.2442 L86.8094,67.0532 L86.5354,66.6402 L86.3704,66.5642 L85.8164,66.4422 C85.6794,66.4082 85.5594,66.3202 85.4864,66.1982 L84.6034,64.7042 L84.4944,64.7132 L83.9404,64.8292 C83.8474,64.8482 83.7554,64.8412 83.6674,64.8122 L82.5354,64.4302 L82.3944,64.6672 C82.3934,64.6682 82.3934,64.6692 82.3924,64.6702 L82.3594,64.7352 L82.3904,64.7412 C82.4784,64.7602 82.5604,64.8022 82.6284,64.8632 L82.9214,65.1242 C82.9974,65.1912 83.0524,65.2802 83.0784,65.3782 L83.1114,65.4992 C83.1514,65.6462 83.1254,65.8002 83.0424,65.9272 L82.5934,66.6082 C82.5114,66.7342 82.3784,66.8182 82.2304,66.8402 L80.9274,67.0632 L80.6794,67.1602 L79.8124,68.0542 C79.7904,68.0772 79.7424,68.1142 79.7154,68.1332 C79.6884,68.1522 79.6014,68.2102 79.5724,68.2232 L79.1404,68.4202 L79.0414,68.5882 L79.0994,69.2562 C79.1114,69.4012 79.0644,69.5442 78.9694,69.6512 L78.7914,69.8522 C78.6934,69.9612 78.5544,70.0262 78.4074,70.0292 L77.7104,70.0412 L77.7314,70.1212 L78.2364,71.1092 L78.6504,71.4652 C78.7594,71.5592 78.8254,71.6952 78.8324,71.8392 L78.8714,72.7002 C78.8804,72.8822 78.7934,73.0552 78.6424,73.1572 L78.5094,73.2482 C78.4234,73.3082 78.3194,73.3402 78.2154,73.3412 L77.4264,73.3462 L77.4234,73.3462 C77.4224,73.3462 77.4214,73.3452 77.4204,73.3452 C77.2954,73.3342 77.2254,73.3182 77.1414,73.2642 L77.0384,73.1992 C77.0044,73.1782 76.9754,73.1542 76.9474,73.1262 L76.8644,73.0352 L76.1414,72.5802 L75.0994,72.2342 C74.9784,72.1942 74.8754,72.1112 74.8114,72.0012 L74.5634,71.5792 C74.5614,71.5832 74.5594,71.5862 74.5584,71.5882 L74.2394,72.1232 C74.1484,72.2772 73.9864,72.3722 73.8094,72.3802 C73.6464,72.3722 73.4764,72.3342 73.3704,72.2332 L72.9714,71.8602 L72.8644,71.9092 L72.8894,71.9732 C72.9064,72.0182 72.9184,72.0672 72.9224,72.1162 L73.3044,73.3502 L73.7034,74.2032 C73.7874,74.3822 73.7624,74.5952 73.6404,74.7502 L73.5174,74.9082 C73.4584,74.9822 73.3814,75.0402 73.2944,75.0732 L73.1784,75.1192 C73.1574,75.1272 73.1364,75.1322 73.1154,75.1392 C73.0774,75.1842 73.0314,75.2232 72.9784,75.2552 C72.9594,75.2662 72.9394,75.2772 72.9194,75.2852 L72.6474,76.8882 C72.6254,77.0102 72.5634,77.1202 72.4704,77.2002 L72.2154,77.4182 C72.1394,77.4822 72.0494,77.5242 71.9524,77.5392 L71.3654,77.6272 C71.3644,77.6292 71.3634,77.6312 71.3614,77.6332 L71.0754,78.1552 C71.0254,78.2532 70.9474,78.3322 70.8514,78.3832 C70.8434,78.3882 70.7604,78.4312 70.7534,78.4342 L70.1944,78.6972 L70.7974,79.0282 L71.0954,78.5232 C71.2134,78.3262 71.4454,78.2252 71.6694,78.2802 L71.9204,78.3392 C72.0144,78.3622 72.1004,78.4112 72.1704,78.4792 L72.3354,78.6442 C72.3594,78.6702 72.3924,78.7052 72.4114,78.7352 C72.4774,78.8352 72.5484,79.0152 72.5364,79.1342 L72.4654,79.9132 L73.4274,79.8102 L73.6194,79.6742 C73.7504,79.5802 73.9164,79.5542 74.0704,79.5982 L75.0724,79.8882 C75.1214,79.9032 75.1684,79.9252 75.2124,79.9532 L75.5964,80.2042 L76.1944,80.1072 C76.3384,80.0852 76.4854,80.1212 76.5994,80.2112 L76.9764,80.5022 C77.0164,80.5332 77.0524,80.5702 77.0824,80.6112 L77.7514,81.5442 L77.8734,81.5852 L79.4624,82.3542 L80.4524,82.3172 C80.4664,82.3162 80.4784,82.3162 80.4924,82.3162 C80.5184,82.3162 80.5454,82.3172 80.5714,82.3212 L81.3684,82.4432 L81.6624,82.3392 C81.7094,82.3222 81.7584,82.3142 81.8074,82.3112 L82.8634,82.2512 L83.5744,81.7032 C83.6144,81.6702 83.6594,81.6462 83.7074,81.6272 L84.0864,81.4822 L84.5014,80.9652 L84.9364,79.7462 C84.9754,79.6352 85.0514,79.5402 85.1524,79.4772 L86.5394,78.6382 L86.9754,78.1522 C86.9914,78.1342 87.0754,78.0522 87.0914,78.0352 L88.0414,77.1502 C88.0564,77.1362 88.1534,77.0582 88.1704,77.0452 L89.5444,76.2792 L89.6994,75.5562 L89.6984,75.3082 C89.7024,75.1902 89.7454,75.0772 89.8214,74.9862 L90.6634,73.9812 L90.6644,73.1802 L89.8364,73.4402 C89.7734,73.4602 89.7064,73.4682 89.6404,73.4632 L89.6404,73.4632 Z M92.9454,28.1062 L92.4264,27.9582 L91.3574,27.8002 C91.2664,27.7862 91.1794,27.7482 91.1084,27.6912 L89.7874,26.6332 L88.9884,27.0582 C88.9284,27.0812 88.8894,27.0822 88.7984,27.0922 L88.7114,27.0922 C88.4514,27.5292 88.1784,27.9592 87.8784,28.3772 L82.0364,36.5082 L83.7974,37.4292 L84.3164,36.7792 C84.4244,36.6442 84.5984,36.5742 84.7654,36.5822 C84.9384,36.5952 85.0944,36.6922 85.1814,36.8422 L85.8014,37.9052 L86.5084,38.5912 L87.7704,40.1242 C87.8114,40.1742 87.8434,40.2322 87.8634,40.2932 L88.3484,41.7652 L88.8354,42.0332 L90.2844,40.6902 L90.3094,40.5072 L90.1364,38.7472 C90.1284,38.6772 90.1364,38.6082 90.1564,38.5412 L90.3104,38.0342 L90.2874,36.5902 L90.3134,36.0212 C90.3154,35.9652 90.3274,35.9092 90.3474,35.8572 L91.1184,33.8422 L91.2934,32.5932 L91.5074,31.6332 C91.5254,31.5482 91.5664,31.4682 91.6244,31.4032 L93.0974,29.7202 L93.9574,28.3322 L92.9744,28.1142 C92.9644,28.1122 92.9544,28.1092 92.9454,28.1062 L92.9454,28.1062 Z M70.2774,77.3772 L70.3344,77.2882 C70.3354,77.1732 70.3744,77.0622 70.4624,76.9772 L70.8444,76.6072 C70.9994,76.4572 71.2264,76.4182 71.4254,76.5062 C71.4484,76.5172 71.4724,76.5312 71.4934,76.5432 L71.6424,76.5212 L71.9114,74.9352 C71.9284,74.8352 71.9734,74.7412 72.0434,74.6662 L72.2804,74.4082 C72.3134,74.3742 72.3484,74.3442 72.3864,74.3202 C72.4094,74.3012 72.4344,74.2852 72.4604,74.2722 L72.5524,74.2272 L72.3384,73.7722 C72.3294,73.7512 72.3194,73.7282 72.3134,73.7062 L71.9104,72.4392 C71.8974,72.4022 71.8864,72.3522 71.8834,72.3132 L71.7594,71.9722 L70.6284,71.5892 L70.5574,71.6092 L70.3744,71.7952 C70.2934,71.8782 70.1864,71.9312 70.0714,71.9472 L69.3534,72.0462 C69.1554,72.0722 68.9674,71.9892 68.8534,71.8312 L68.8564,71.8282 C68.8374,71.8082 68.7824,71.7532 68.7724,71.7432 L68.4314,71.4652 C68.3834,71.4252 68.3434,71.3772 68.3134,71.3242 L68.1164,70.9842 L67.8974,70.4152 L67.1884,67.7542 L66.4654,67.0292 L66.7524,66.5792 L66.4324,66.9502 L66.4004,66.9302 L66.3834,66.9472 C66.3614,66.9262 66.3414,66.9012 66.3224,66.8762 L66.2944,66.8562 L65.8724,66.7862 L65.6734,66.8882 C65.5404,66.9572 65.3844,66.9652 65.2454,66.9112 L65.0164,66.8232 C64.8824,66.7712 64.7754,66.6672 64.7204,66.5362 L64.4734,65.9502 L64.1824,65.8632 L64.0504,65.9252 C64.0194,65.9522 63.9894,65.9772 63.9794,65.9842 L62.8494,66.5842 C62.8444,66.5982 62.8374,66.6102 62.8294,66.6232 C62.8144,66.6482 62.7974,66.6722 62.7784,66.6962 L62.5754,67.1952 C62.5724,67.2042 62.5684,67.2122 62.5644,67.2212 L62.5254,67.3362 C62.4774,67.4822 62.3684,67.5972 62.2284,67.6552 C62.0884,67.7142 61.9274,67.7082 61.7924,67.6392 C61.7484,67.6182 61.6254,67.5492 61.5894,67.5162 C61.5744,67.5032 61.4914,67.4262 61.4784,67.4112 L60.9484,66.8022 C60.9454,66.7992 60.9424,66.7962 60.9384,66.7912 L60.8964,66.7582 C60.8474,66.7222 60.8064,66.6782 60.7744,66.6272 L60.5384,66.2662 L59.5884,67.3162 L59.3884,67.7122 C59.3714,67.7482 59.3494,67.7802 59.3244,67.8112 L58.7674,68.4812 C58.6504,68.6242 58.4234,68.7502 58.2424,68.7172 L57.0574,68.5402 C56.9334,68.5222 56.8214,68.4622 56.7404,68.3682 L56.5184,68.1172 C56.4414,68.0312 56.3964,67.9232 56.3864,67.8082 L56.2784,66.3552 L56.0004,65.7062 L55.0724,65.9272 C54.9954,65.9442 54.9134,65.9472 54.8354,65.9292 L53.9854,65.7392 C53.8664,65.7122 53.7604,65.6452 53.6854,65.5482 L53.4434,65.2612 L52.4624,65.6282 L52.4024,66.3612 C52.3974,66.4252 52.3804,66.4882 52.3524,66.5462 L52.1814,66.9012 C52.1584,66.9482 52.1294,66.9922 52.0934,67.0302 L49.9494,69.4312 L50.1144,70.1152 C50.1614,70.2632 50.1394,70.4242 50.0564,70.5562 L49.8284,70.9152 C49.7404,71.0502 49.5964,71.1402 49.4344,71.1552 L49.2254,71.1752 L49.4244,71.7372 C49.4534,71.8232 49.4614,71.9152 49.4454,72.0052 L49.4034,72.2402 C49.3854,72.3432 49.3354,72.4392 49.2624,72.5152 L47.6874,74.1362 C47.6004,74.2242 47.4854,74.2822 47.3614,74.2952 L46.6824,74.3632 L46.0354,74.3662 L44.7024,74.6992 L44.0074,74.8172 C43.9524,74.8902 43.8764,74.9492 43.7874,74.9862 L43.2324,75.2142 C43.1144,75.2622 42.9824,75.2662 42.8604,75.2242 L42.7554,75.1872 L42.1464,75.6452 L42.1254,75.9412 L42.1954,76.1032 C42.2224,76.1692 42.2374,76.2372 42.2374,76.3082 L42.2874,77.9242 C42.3204,77.9392 42.3494,77.9592 42.3774,77.9802 L43.0854,78.5482 C43.1234,78.5792 43.1564,78.6142 43.1854,78.6532 L43.2674,78.7672 C43.2914,78.8032 43.3134,78.8432 43.3294,78.8822 L43.5324,79.2052 C43.5834,79.2832 43.6134,79.3722 43.6184,79.4652 L43.6774,80.4502 C43.6844,80.5632 43.6534,80.6772 43.5904,80.7732 L43.5214,80.8722 L43.3374,81.4802 C43.3264,81.5212 43.3074,81.5612 43.2854,81.5982 L42.7354,82.5022 L42.2174,83.1252 L41.9214,83.6352 C41.9134,83.6622 41.8744,83.7352 41.8614,83.7602 L41.8424,83.7992 C41.8444,83.8132 41.8454,83.8292 41.8464,83.8462 L41.8914,84.9522 L42.0004,85.1002 C42.0664,85.1232 42.0794,85.1372 42.1194,85.1782 L42.2034,85.2342 L42.7454,85.4732 C42.7794,85.4882 42.8104,85.5082 42.8414,85.5292 L43.0394,85.6572 C43.0854,85.6812 43.1264,85.7112 43.1634,85.7472 L43.5204,85.9902 L44.2164,85.7762 C44.3064,85.7512 44.4024,85.7472 44.4924,85.7682 L45.2734,85.9552 L46.7824,85.9612 L47.1044,85.8662 L47.2114,85.7482 L47.1454,85.2952 C47.1194,85.1232 47.1804,84.9502 47.3084,84.8322 L47.4744,84.6782 C47.5984,84.5632 47.7674,84.5112 47.9354,84.5492 L48.8274,84.7262 C48.8944,84.7392 48.9564,84.7652 49.0144,84.8022 L49.1764,84.9082 L50.0714,85.3092 C50.1214,85.3222 50.1694,85.3432 50.2164,85.3742 L50.6494,85.6312 C50.6864,85.6262 50.7254,85.6232 50.7634,85.6272 L51.9704,85.6832 C52.1054,85.6882 52.2364,85.7452 52.3324,85.8452 C52.3634,85.8762 52.4084,85.9322 52.4344,85.9752 C52.4704,86.0082 52.5024,86.0472 52.5284,86.0912 C52.5434,86.1192 52.5574,86.1482 52.5684,86.1762 C52.5684,86.1772 52.5694,86.1772 52.5694,86.1782 C52.6054,86.2112 52.6374,86.2482 52.6624,86.2912 C52.6814,86.3232 52.6974,86.3542 52.7094,86.3892 C52.7454,86.4202 52.7764,86.4582 52.8014,86.5002 C52.8174,86.5292 52.8314,86.5602 52.8444,86.5902 C52.8484,86.5982 52.8524,86.6042 52.8544,86.6112 L52.9504,86.6622 L53.8724,86.6262 C54.0634,86.6302 54.2714,86.7322 54.3634,86.9172 L54.7454,87.6822 C54.7784,87.7452 54.7954,87.8112 54.8004,87.8792 L55.4354,88.0182 C55.5084,88.0352 55.5764,88.0672 55.6364,88.1112 L56.2134,88.5422 C56.2994,88.6082 56.3634,88.6982 56.3984,88.8012 L56.4994,89.1122 L56.5764,89.0582 C56.5974,89.0412 56.6754,88.9982 56.7204,88.9732 L56.7874,88.9172 C56.8154,88.8952 56.9274,88.8342 56.9604,88.8172 C57.0664,88.7302 57.1764,88.7002 57.3164,88.7162 L58.5514,88.8452 C58.6154,88.8512 58.6764,88.8702 58.7314,88.8972 L58.8954,88.9802 C58.9014,88.9802 58.9074,88.9812 58.9134,88.9822 L59.8104,89.0882 L59.8674,89.0592 C59.8924,89.0462 59.9404,89.0242 59.9664,89.0162 L61.2684,88.3472 C61.3394,88.3132 61.4154,88.2952 61.4934,88.2942 L62.5784,88.2852 L62.2764,87.6182 C62.2524,87.5682 62.2354,87.5152 62.2284,87.4602 L61.8734,85.1002 L61.8594,84.2862 C61.8594,84.2442 61.8644,84.2032 61.8734,84.1602 L62.1074,83.1552 L62.4604,82.3272 C62.4784,82.2862 62.5014,82.2472 62.5304,82.2122 C62.5414,82.1952 62.6144,82.1072 62.6274,82.0932 L63.1804,81.5912 C63.2104,81.5502 63.2464,81.5132 63.2894,81.4822 C63.3034,81.4722 63.3174,81.4642 63.3294,81.4562 L63.5114,81.2752 C63.5584,81.2272 63.6744,81.1342 63.7354,81.1072 L64.2394,80.8542 C64.2574,80.8442 64.3574,80.8072 64.3774,80.8002 C64.4004,80.7922 64.4234,80.7852 64.4484,80.7812 L64.6994,80.6532 C64.7274,80.6402 64.7554,80.6292 64.7834,80.6202 L64.7944,80.6102 C64.8004,80.5842 64.8094,80.5592 64.8214,80.5332 L65.0034,80.1592 C65.0224,80.1212 65.0454,80.0842 65.0724,80.0512 L65.4004,79.6602 C65.4314,79.6232 65.4694,79.5892 65.5094,79.5622 L68.0614,77.8382 C68.1494,77.7792 68.2524,77.7482 68.3574,77.7482 L68.6574,77.7482 C68.7594,77.7482 68.8584,77.7772 68.9434,77.8332 L69.1954,77.9952 L70.2274,77.4732 C70.2394,77.4432 70.2584,77.4062 70.2774,77.3772 L70.2774,77.3772 Z M36.2824,52.4612 L36.3084,52.4212 C36.3964,52.2852 36.5424,52.1972 36.7054,52.1832 L37.1344,52.1462 C37.2354,52.1392 37.3314,52.1572 37.4194,52.2012 L37.7854,52.3892 L39.0284,52.0462 L39.0864,51.9292 L38.8554,50.7552 L37.6064,47.1742 C37.5554,47.0252 37.5744,46.8592 37.6574,46.7252 L37.7754,46.5342 C37.8204,46.4602 37.8834,46.4002 37.9574,46.3562 L39.5304,45.3932 C39.6194,45.3202 39.7304,45.2792 39.8444,45.2752 L41.8944,45.2132 L42.8404,45.0472 L43.1124,44.9252 L43.3194,43.4412 L44.1244,41.0372 C44.1494,40.9622 44.1904,40.8942 44.2454,40.8392 L44.7054,40.3662 L47.4094,38.3712 C47.4314,38.3342 47.4574,38.3012 47.4894,38.2672 L47.4884,38.2672 L47.5404,38.1942 L47.6124,37.3752 L47.5974,35.5322 L45.6134,34.6802 C45.5024,34.6322 45.4134,34.5492 45.3564,34.4442 L45.1674,34.0842 C45.1484,34.0482 45.1344,34.0092 45.1244,33.9702 L45.0144,33.5572 L44.0564,33.9152 C43.9944,33.9352 43.9284,33.9472 43.8634,33.9402 L43.1394,33.8992 C43.0594,33.8942 42.9814,33.8712 42.9104,33.8322 L42.7554,33.7452 C42.7234,33.7272 42.6814,33.7002 42.6534,33.6742 L42.8854,33.1932 L42.5434,33.6052 C42.5004,33.5812 42.4604,33.5512 42.4254,33.5172 L42.0954,33.2952 L42.3814,32.8532 L41.9974,33.2202 L41.6384,32.9272 L41.4324,33.0522 C41.3884,33.0792 41.3384,33.0982 41.2884,33.1122 L41.0204,33.1782 L39.4034,33.3222 L38.0494,33.3292 C38.0104,33.3132 37.9454,33.3222 37.8964,33.3062 L37.2794,33.1212 L37.3784,33.8232 C37.3884,33.8902 37.3844,33.9592 37.3694,34.0252 L37.0644,35.4352 L37.7054,37.2222 C37.7594,37.3732 37.7424,37.5392 37.6584,37.6762 C37.5754,37.8112 37.4344,37.9032 37.2764,37.9222 L36.8234,37.9792 L36.2364,38.3332 L36.0664,38.6062 C36.0204,38.6792 35.9574,38.7402 35.8814,38.7832 L34.8134,39.3952 L33.5924,39.9422 L31.1864,40.6992 L30.8344,40.9312 L29.4224,42.4502 C29.3854,42.4892 29.3424,42.5232 29.2954,42.5502 L28.4504,43.0262 C28.3834,43.0642 28.3074,43.0852 28.2324,43.0922 L28.1394,43.2122 L28.2414,43.6452 L28.9414,44.0232 L29.8014,43.5112 C29.8364,43.4902 29.8754,43.4732 29.9154,43.4602 L30.1154,43.3972 C30.2114,43.3692 30.3154,43.3652 30.4104,43.3922 L31.0424,43.5642 C31.2774,43.6282 31.4364,43.8442 31.4304,44.0872 C31.4224,44.3292 31.2514,44.5352 31.0154,44.5872 L30.3744,44.7242 L30.1884,44.8782 L30.0534,45.3002 L30.5674,45.6142 C30.6684,45.6612 30.7374,45.7292 30.7914,45.8282 L30.9844,46.1842 C31.0694,46.3362 31.0714,46.5232 30.9904,46.6782 L30.5744,47.4772 L30.5244,47.7242 L31.8154,49.8042 L32.3204,50.8072 L33.4914,51.6762 L36.2824,52.4612 Z M28.7074,41.6742 L30.1064,40.1672 C30.1354,40.1362 30.1684,40.1082 30.2034,40.0862 L30.6704,39.7802 C30.7114,39.7522 30.7554,39.7322 30.8014,39.7172 L33.2204,38.9592 L34.3394,38.4572 L35.2424,37.9372 L35.4094,37.6692 C35.4534,37.6002 35.5134,37.5402 35.5834,37.4982 L36.3734,37.0212 C36.4124,36.9972 36.4534,36.9802 36.4964,36.9662 L36.0254,35.6582 C35.9954,35.5702 35.9864,35.4772 36.0034,35.3862 L36.3234,33.8692 L36.1544,32.6832 L36.0204,32.6542 L35.3944,32.6682 C35.3354,32.6962 35.2764,32.7162 35.2244,32.7202 L34.0644,32.8042 C33.8534,32.8252 33.6314,32.6922 33.5424,32.4852 L33.2434,31.7842 L31.9234,31.8562 C31.8494,31.8642 31.7744,31.8482 31.7054,31.8222 L31.4124,31.7092 C31.3414,31.6832 31.2794,31.6412 31.2264,31.5882 L31.0504,31.4092 L30.8394,31.5722 C30.7614,31.6312 30.6704,31.6692 30.5744,31.6802 L29.4524,31.8042 C29.3884,31.8112 29.3184,31.8062 29.2554,31.7882 L28.4804,31.5742 L27.1044,32.1502 L26.7024,32.3902 C26.5324,32.4902 26.3214,32.4862 26.1554,32.3812 L25.4804,31.9542 C25.4244,31.9202 25.3764,31.8752 25.3374,31.8232 L24.1644,30.2602 L23.0984,29.8152 L21.1694,30.0782 L21.0664,30.2032 L21.0064,30.8432 C20.9914,31.0072 20.8984,31.1562 20.7584,31.2422 C20.6174,31.3282 20.4454,31.3432 20.2894,31.2832 L19.7184,31.0582 L19.6694,31.0812 L19.5974,31.2812 C19.5364,31.4352 19.4074,31.5522 19.2474,31.5972 C19.0884,31.6422 18.9174,31.6062 18.7864,31.5072 L18.6134,31.3742 L18.0124,31.0352 L16.5574,31.4362 L15.6104,31.7992 L13.8344,32.7322 L13.7604,32.8862 L13.8084,33.7092 L14.3534,33.6292 C14.4084,33.6202 14.4654,33.6222 14.5234,33.6312 L16.0634,33.9092 C16.3094,33.9532 16.4904,34.1652 16.4954,34.4152 C16.5004,34.6662 16.3294,34.8842 16.0854,34.9392 L15.8754,34.9862 C15.8354,34.9972 15.7894,34.9952 15.7524,35.0002 L15.2654,34.9932 L15.2224,35.0472 L15.9384,35.0402 L15.9434,35.0402 C16.0834,35.0402 16.2174,35.0962 16.3164,35.1952 L16.6694,35.5492 C16.7904,35.6712 16.8434,35.8442 16.8144,36.0122 C16.7834,36.1812 16.6744,36.3252 16.5184,36.3972 L16.3584,36.4722 L14.9494,36.8912 L15.3254,37.1152 C15.3394,37.1242 15.4204,37.1932 15.4344,37.2042 L15.6004,37.3262 C15.6444,37.3592 15.6824,37.3972 15.7144,37.4412 L16.3554,38.3342 C16.3814,38.3722 16.4034,38.4122 16.4204,38.4552 L16.5094,38.6902 L17.1524,38.4942 L17.3704,38.2942 C17.4154,38.2532 17.4664,38.2202 17.5224,38.1962 L18.2174,37.9052 C18.4194,37.8192 18.6584,37.8702 18.8094,38.0342 L19.1324,38.3882 L19.9684,38.8572 L20.2794,38.8922 C20.3184,38.8962 20.3564,38.9062 20.3924,38.9182 L21.8324,39.4162 L24.4484,40.7732 L25.4844,41.0842 L27.2184,41.2612 C27.3184,41.2702 27.4144,41.3062 27.4944,41.3682 L28.2364,41.9392 L28.7074,41.6742 Z M42.3504,81.1112 L42.5284,80.5232 C42.5444,80.4732 42.5784,80.3892 42.6084,80.3442 L42.6164,80.3332 L42.5774,79.6672 L42.3794,79.3312 L41.6104,78.7602 C41.4644,78.6852 41.3204,78.5312 41.2894,78.3722 L41.1984,77.8832 L41.1854,76.4172 L41.1114,76.2432 C41.0784,76.1682 41.0614,76.0762 41.0674,75.9942 L41.1124,75.3322 C41.1234,75.1802 41.1994,75.0402 41.3214,74.9472 L42.3484,74.1772 C42.4894,74.0722 42.6704,74.0452 42.8364,74.1012 L43.0174,74.1642 L43.1434,74.1142 C43.2164,73.9672 43.3564,73.8592 43.5244,73.8312 L44.4874,73.6702 L45.8414,73.3302 C45.8824,73.3202 45.9254,73.3142 45.9684,73.3142 L47.0634,73.2682 L48.3734,71.9212 L48.0994,71.1452 C48.0444,70.9902 48.0654,70.8202 48.1564,70.6822 L48.3404,70.4002 C48.4274,70.2662 48.5714,70.1802 48.7294,70.1652 L49.0264,70.1372 L48.9704,69.9352 C48.9254,69.8592 48.8994,69.7732 48.8984,69.6862 L48.8984,69.2722 C48.8984,69.1062 48.9774,68.8982 49.1124,68.7992 L49.1464,68.7422 L51.2684,66.3732 L51.3604,66.1792 L51.4314,65.3312 C51.4394,65.2212 51.4844,65.1152 51.5564,65.0312 L51.7074,64.8572 C51.7634,64.7892 51.8384,64.7382 51.9214,64.7062 L53.3254,64.1812 C53.4794,64.1252 53.6554,64.1422 53.7974,64.2352 L54.1314,64.4542 C54.1794,64.4852 54.2224,64.5242 54.2574,64.5702 L54.3994,64.7532 L54.9464,64.8762 L55.7784,64.6772 L56.3444,62.8242 C56.3594,62.7742 56.3814,62.7272 56.4094,62.6842 L57.4634,61.1092 C57.5174,61.0282 57.5944,60.9642 57.6844,60.9242 L58.3234,60.6332 L58.3794,60.5182 L58.2524,58.6752 L58.1634,58.2662 L57.7294,57.5612 C57.6074,57.3662 57.6284,57.1122 57.7794,56.9382 L58.2924,56.3542 L58.6504,55.1602 L58.3064,53.7782 L58.1734,53.6232 L56.8094,52.3722 L54.4434,52.3772 L53.0894,52.5782 L52.3474,52.8182 C52.2964,52.8352 52.2424,52.8442 52.1904,52.8442 L52.1864,52.8442 L50.9784,52.8362 C50.8354,52.8352 50.7014,52.7772 50.6024,52.6752 L50.3904,52.4552 L48.2664,49.5962 L46.8214,47.2452 L45.7334,47.4502 C45.6154,47.4722 45.4964,47.4542 45.3914,47.3982 L45.0904,47.2402 C45.0324,47.2102 44.9814,47.1702 44.9384,47.1202 L43.9744,46.0192 L43.6714,45.8272 L43.2084,46.0332 C43.1694,46.0512 43.1274,46.0632 43.0844,46.0712 L42.0004,46.2582 L40.0554,46.3222 L39.9544,46.4042 L38.7074,47.1352 L39.8684,50.4822 L40.1544,51.9032 C40.1774,52.0192 40.1604,52.1392 40.1074,52.2442 L39.8614,52.7292 C39.7934,52.8612 39.6744,52.9582 39.5324,52.9972 L37.8684,53.4582 C37.7414,53.4952 37.6044,53.4792 37.4884,53.4202 L37.0734,53.2082 L37.0524,53.2092 L36.9554,53.3582 C36.9114,53.4282 36.8504,53.4772 36.7834,53.5182 C36.7644,53.5302 36.7454,53.5362 36.7254,53.5452 C36.6994,53.5562 36.6774,53.5732 36.6514,53.5802 L36.6514,53.5812 L36.5784,55.0962 L36.7274,56.5522 C36.7394,56.6832 36.7034,56.8142 36.6254,56.9202 L36.0294,57.7122 L36.6874,58.7732 L36.8224,58.8542 C36.8674,58.8822 36.9084,58.9152 36.9434,58.9542 L39.0474,61.3252 C39.0984,61.3842 39.1364,61.4512 39.1584,61.5272 L39.1964,61.6562 L39.3554,63.1962 C39.3804,63.4562 39.2114,63.6982 38.9554,63.7602 C38.7064,63.8212 38.4414,63.6912 38.3434,63.4472 L38.3084,63.3682 C38.2934,63.3402 38.2804,63.3132 38.2694,63.2842 L38.1724,63.0292 C38.1644,63.0142 38.1574,62.9992 38.1504,62.9842 L38.0474,62.7722 C38.0364,62.7572 38.0264,62.7392 38.0174,62.7212 L38.2334,62.5192 L38.2264,62.4442 L37.9484,62.5862 L37.7924,62.2542 L37.3824,61.6232 L36.5934,60.7852 L36.4104,61.4702 L36.3394,63.2842 C36.3354,63.3552 36.3194,63.4252 36.2874,63.4902 L35.7794,67.4252 L35.7814,69.4892 C35.7814,69.5292 35.7774,69.5672 35.7674,69.6062 L35.6654,70.0532 L35.5114,71.9162 L35.3014,73.4532 L35.2734,74.6802 C35.2714,74.7892 35.2334,74.8962 35.1694,74.9822 L35.1264,75.6542 C35.1224,75.7012 35.1144,75.7462 35.0984,75.7892 L33.9444,79.2262 C33.9204,79.2972 33.8814,79.3632 33.8294,79.4192 L33.5214,79.7482 C33.4794,79.7922 33.4304,79.8292 33.3764,79.8572 L32.9874,80.0552 L33.7424,80.5292 L34.0674,80.5372 L34.5924,80.6082 C34.8614,80.6442 35.0574,80.8812 35.0454,81.1542 L35.0054,81.9742 C34.9994,82.0792 34.9644,82.1812 34.8994,82.2662 L34.9244,82.4442 L35.5264,82.3222 C35.6414,82.3062 35.7574,82.3182 35.8614,82.3722 L37.7524,83.3372 L39.8584,84.8642 L40.8354,84.9182 L40.8104,84.2872 C40.6664,84.1312 40.6294,83.9032 40.7194,83.7102 L40.9274,83.2772 C40.9394,83.2502 41.0284,83.0792 41.0454,83.0572 L41.3594,82.5232 L42.0064,81.6832 L42.3504,81.1112 Z" id="Fill-5" fill="#DEE0EA"></path>
            <path d="M85.7342,39.302 L85.0152,38.61 C84.9822,38.577 84.9522,38.538 84.9282,38.497 L84.6602,38.036 L84.4552,38.291 C84.3692,38.399 84.2452,38.469 84.1082,38.486 L83.8272,38.52 C83.7272,38.535 83.6232,38.515 83.5312,38.471 L82.9332,38.18 L81.4002,37.392 L76.3292,44.452 C75.7532,45.253 74.8202,45.73 73.8342,45.73 C72.8482,45.73 71.9162,45.253 71.3372,44.45 L64.0172,34.259 L63.2612,34.278 L62.8172,34.819 L62.6432,35.68 C62.6372,35.703 62.6302,35.728 62.6222,35.752 C62.6422,35.764 62.6612,35.776 62.6752,35.787 C62.6912,35.799 62.7072,35.813 62.7242,35.828 C62.7652,35.846 62.8022,35.868 62.8382,35.898 L62.9492,35.991 C62.9742,36.01 63.0002,36.032 63.0232,36.055 L63.1272,36.142 C63.2752,36.267 63.3432,36.463 63.3032,36.654 L62.9152,38.478 C62.9102,38.491 62.8822,38.582 62.8772,38.596 C62.8762,38.597 62.8212,38.712 62.8212,38.713 L62.6682,39.018 C62.6432,39.068 62.5902,39.154 62.5502,39.194 L62.4722,39.273 C62.4672,39.278 62.3942,39.35 62.3902,39.356 C62.3382,39.403 62.2612,39.457 62.1962,39.481 L61.9122,39.624 L62.2412,40.198 C62.3192,40.336 62.3312,40.502 62.2732,40.65 L62.2522,40.706 C62.2392,40.816 62.1932,40.923 62.1142,41.003 C62.1132,41.004 61.9892,41.129 61.9882,41.131 L61.8852,41.229 L61.7062,41.445 L61.7722,41.623 C61.8842,41.699 61.9662,41.809 61.9852,41.946 L62.0042,42.101 C62.0102,42.126 62.0152,42.151 62.0192,42.177 L62.1722,42.457 C62.2372,42.569 62.2602,42.699 62.2342,42.827 L62.1982,43.006 L62.3522,44.475 L62.8212,45.408 C62.8452,45.455 62.8602,45.502 62.8702,45.549 C62.8782,45.596 62.8832,45.643 62.8822,45.69 L63.0182,46.119 C63.0882,46.21 63.1292,46.322 63.1222,46.435 C63.1632,46.558 63.1572,46.696 63.1072,46.815 L63.0642,47.862 L62.9352,48.466 L62.9702,48.509 L63.7382,48.636 L64.9492,49.087 L65.2912,48.524 C65.3132,48.487 65.3582,48.423 65.3872,48.393 C65.4862,48.294 65.6362,48.223 65.7762,48.223 L65.8852,48.223 C66.0872,48.223 66.2722,48.34 66.3602,48.523 C66.3602,48.524 66.4062,48.618 66.4062,48.618 L66.7032,49.2 L67.1832,50.059 L67.7802,50.591 L68.1532,50.765 C68.2202,50.798 68.3682,50.89 68.4152,50.947 L68.7752,51.383 C68.8582,51.484 68.9012,51.613 68.8942,51.744 L68.8462,52.695 C68.8392,52.826 68.7862,52.955 68.6932,53.047 L68.4012,53.44 L68.3602,53.695 L68.3852,53.706 L69.8042,53.621 L70.1802,53.201 C70.2242,53.152 70.2782,53.111 70.3372,53.081 L71.1402,52.718 C71.2312,52.677 71.3302,52.663 71.4282,52.677 L71.5302,52.691 L71.5962,52.668 L71.8082,52.526 C71.9152,52.46 72.0422,52.432 72.1672,52.452 L72.5112,52.506 C72.6472,52.527 72.7692,52.601 72.8512,52.71 L73.0112,52.925 L73.2992,52.352 L73.5152,50.992 C73.5302,50.9 73.5692,50.814 73.6282,50.743 C73.7042,50.648 73.8212,50.572 73.9412,50.548 L74.1552,50.498 C74.2422,50.478 74.3302,50.481 74.4112,50.503 L75.9532,50.919 C76.0012,50.932 76.0462,50.951 76.0882,50.977 L76.5212,51.239 C76.5752,51.271 76.6242,51.313 76.6632,51.362 L77.4742,52.309 C77.4812,52.318 77.5432,52.377 77.5512,52.387 L77.6002,52.449 L78.1502,52.341 C78.2292,52.324 78.3082,52.329 78.3852,52.347 L79.2092,52.563 L79.6612,52.617 L80.2572,52.395 C80.2662,52.379 80.2762,52.362 80.2852,52.345 L80.3332,52.251 C80.3422,52.231 80.4052,52.137 80.4172,52.119 L80.8252,51.607 L81.1712,50.482 C81.1892,50.422 81.2172,50.367 81.2552,50.317 L82.0002,49.338 C82.0212,49.311 82.0672,49.254 82.0932,49.232 L82.8172,48.571 C82.8372,48.516 82.8652,48.465 82.9062,48.419 C82.9282,48.395 82.9502,48.372 82.9752,48.353 L83.1962,47.722 L83.3002,46.897 C83.3102,46.816 83.3392,46.738 83.3852,46.672 L83.5172,46.472 C83.5932,46.356 83.7132,46.276 83.8492,46.249 L84.3162,46.152 L84.8322,45.79 L86.4932,43.461 C86.4962,43.456 86.5052,43.445 86.5182,43.431 C86.4562,43.428 86.3732,43.415 86.3212,43.394 C86.1732,43.335 86.0292,43.2 85.9822,43.049 C85.9352,42.896 85.9302,42.718 86.0182,42.587 C86.0192,42.585 86.0742,42.494 86.0752,42.492 C86.0762,42.491 86.0762,42.49 86.0772,42.488 L86.3172,42.143 L86.6602,41.607 C86.7602,41.455 86.9252,41.416 87.1092,41.366 L86.8962,40.716 L85.7342,39.302 Z" id="Fill-7" fill="#969CBB"></path>
            <path d="M105.2457,87.7054 L105.1797,87.3844 C105.1587,87.2864 105.1307,87.1894 105.0967,87.0954 L104.9247,86.6244 L104.7817,85.3184 L104.8127,84.1174 C104.8167,83.9304 104.7967,83.7444 104.7527,83.5624 C104.7497,82.7634 104.2967,82.0464 103.6027,81.6934 L103.4207,81.5194 C103.0217,81.1384 102.4977,80.9364 101.9667,80.9364 C101.6987,80.9364 101.4297,80.9864 101.1727,81.0924 C100.8227,81.2354 100.5247,81.4654 100.3027,81.7524 L99.9987,81.9554 C99.6587,82.1844 99.3977,82.5024 99.2397,82.8664 C99.0847,83.1434 98.9917,83.4554 98.9737,83.7794 L98.9477,84.2654 C98.7307,84.3684 98.5347,84.5074 98.3647,84.6744 L97.2017,85.3584 L96.6047,85.6934 C96.2927,85.8694 96.0297,86.1224 95.8417,86.4284 L95.5567,86.8924 C95.4737,86.9984 95.3987,87.1134 95.3367,87.2354 L95.1417,87.6204 L94.9867,87.8714 C94.7477,88.2594 94.6417,88.7154 94.6837,89.1684 L94.7317,89.6894 C94.5437,90.0314 94.4527,90.4224 94.4737,90.8184 L94.5537,92.3454 C94.5637,92.5514 94.6047,92.7544 94.6747,92.9474 L94.6677,92.9554 C94.2137,93.5974 94.1547,94.4394 94.5167,95.1394 C94.7227,95.5384 95.0477,95.8524 95.4347,96.0494 L95.4687,96.2414 C95.5077,96.4544 95.5777,96.6584 95.6767,96.8474 C95.6827,97.0714 95.7247,97.2964 95.8037,97.5144 L96.0187,98.0994 C96.2377,98.6964 96.7147,99.1624 97.3167,99.3664 L97.5717,99.4544 C97.5887,99.5084 97.6077,99.5624 97.6287,99.6164 C97.9477,100.4244 98.7267,100.9484 99.5857,100.9484 C99.6427,100.9484 99.6987,100.9464 99.7567,100.9414 L100.1617,100.9084 C100.3327,100.9514 100.5067,100.9734 100.6827,100.9734 C100.9717,100.9734 101.2627,100.9134 101.5337,100.7934 C102.3437,100.6834 103.0207,100.1104 103.2607,99.3214 L103.6657,97.9924 L103.8287,97.6954 C103.9257,97.5634 104.0077,97.4194 104.0717,97.2644 L104.2337,96.8744 C104.2727,96.7814 104.3037,96.6864 104.3287,96.5914 C104.3747,96.4494 104.4047,96.3024 104.4197,96.1534 L104.6417,93.9144 L105.1207,92.3544 C105.1327,92.3144 105.1437,92.2744 105.1537,92.2334 L105.2197,91.9624 C105.2587,91.8024 105.2797,91.6384 105.2797,91.4734 L105.28975,88.1424 C105.2907,87.9954 105.2767,87.8484 105.2457,87.7054 L105.2457,87.7054 Z M103.1747,91.4654 L103.1087,91.7374 L102.5687,93.4984 L102.3257,95.9454 L102.2807,96.0624 L102.2907,96.0674 L102.1287,96.4564 L102.1097,96.4534 L101.7157,97.1724 L101.2477,98.7094 L100.8407,98.7424 L100.6817,98.8694 L100.5747,98.7644 L99.5867,98.8444 L100.1807,98.3724 L100.0027,98.1944 L99.6357,97.9344 L97.9947,97.3754 L97.7797,96.7904 L98.2557,96.3744 L97.5397,95.8704 L97.3557,94.8354 L97.7277,94.1704 L96.3847,94.1714 L96.8387,93.5324 L96.8177,93.5074 L97.0697,93.2044 L97.2257,92.9874 L96.6547,92.2344 L96.5747,90.7084 L96.6497,90.6314 L96.9017,90.2894 L96.7797,88.9744 L96.9977,88.6204 L96.9937,88.6184 L97.2127,88.1894 L97.2257,88.1954 L97.6357,87.5274 L98.2677,87.1734 L99.8467,86.2454 L99.8497,86.1664 L100.0027,86.1664 L100.1457,86.0944 L100.1857,86.1664 L100.8637,86.1644 L100.9537,86.0944 L101.0747,83.8944 L101.1707,83.8304 L101.1697,83.7044 L101.7397,83.3224 L101.8667,83.3574 L101.9577,83.2954 L101.9667,83.0404 L102.4707,83.5214 L102.6477,83.5684 L102.6417,83.7944 L102.7087,84.0644 L102.6747,85.4074 L102.8617,87.1064 L103.1197,87.8154 L103.1857,88.1354 L103.1747,91.4654 Z" id="Fill-9" fill="#343852"></path>
            <path d="M95.4894,31.31 L96.9724,28.927 C97.3334,28.348 97.3914,27.63 97.1274,27.001 C96.8634,26.371 96.3104,25.91 95.6444,25.761 L93.6624,25.32 L93.1744,25.184 C93.0914,25.16 93.0074,25.142 92.9234,25.129 L92.4144,25.052 L91.4994,24.318 C91.2924,24.153 91.0574,24.027 90.8034,23.948 L90.2984,23.793 C90.2734,23.785 90.2474,23.789 90.2234,23.781 C89.9674,24.548 89.6604,25.298 89.2974,26.024 L89.6774,25.803 L90.1824,25.959 L91.5384,27.047 L92.6064,27.209 L93.1494,27.361 L95.1874,27.815 L93.7034,30.198 L92.2464,31.864 L92.0544,32.721 L91.8614,34.062 L91.0834,36.096 L91.0604,36.593 L91.0844,38.144 L90.9084,38.72 L91.0874,40.524 L91.0094,41.071 L89.1864,42.737 L88.7814,42.887 L87.6124,42.24 L87.2194,42.167 L86.8894,42.666 L87.2824,42.674 L87.9164,43.106 L87.7224,43.313 L87.8294,43.385 L87.6884,43.349 L87.5014,43.57 L87.1444,44.012 L87.1294,43.909 L87.0344,44.022 L85.3494,46.37 L84.5794,46.886 L84.1034,46.985 L84.0594,47.052 L83.9434,47.925 L83.6484,48.774 L83.6784,48.804 L83.5184,48.963 L83.3794,49.14 L83.3574,49.123 L83.1624,49.317 L82.6064,49.809 L81.8964,50.75 L81.6084,51.648 L82.0254,51.91 L82.1674,52.542 L81.2524,54.04 L81.7584,54.09 L81.8854,54.02 L82.3334,53.478 L82.3664,52.368 L82.5004,52.103 L82.5184,51.88 L82.7414,51.874 L83.4734,51.456 L83.3524,51.812 L84.2074,51.713 L85.6354,51.741 L85.9164,51.991 L86.0294,52.022 L86.1534,52.547 L86.3274,53.983 L86.3154,54.486 L86.3794,54.549 L87.6304,56.267 L87.3054,56.797 L86.2604,57.547 L86.2074,57.691 L86.8884,58.799 L87.2244,59.582 L87.4994,60.082 L88.3014,60.517 L88.5264,61.072 L88.0034,62.826 L87.5624,63.205 L85.3184,64.396 L86.0984,65.715 L86.6474,65.847 L87.0594,66.03 L87.5574,66.785 L87.6084,67.265 L87.5064,67.842 L86.7014,69.514 L86.7584,70.351 L86.8444,70.836 L87.2034,71.345 L89.2624,72.663 L89.6484,72.689 L90.7014,72.359 L91.4374,72.656 L91.4344,74.264 L90.4684,75.416 L90.4604,75.674 L90.2274,76.784 L88.5614,77.72 L87.9614,78.315 L87.5114,78.72 L87.0024,79.263 L85.6344,80.087 L85.1584,81.381 L84.5574,82.128 L84.0174,82.336 L83.1464,83.009 L81.8854,83.08 L81.4424,83.235 L80.4824,83.09 L80.0484,83.123 L79.2884,83.128 L77.5984,82.305 L77.2704,82.197 L76.4754,81.091 L76.2104,80.887 L75.4224,81.013 L74.8194,80.62 L73.9694,80.374 L73.7114,80.557 L71.8074,80.761 L71.6624,80.205 L71.7584,79.159 L71.6674,79.073 L71.2964,79.7 L70.7084,79.861 L69.5044,79.193 L69.1684,78.9 L68.5834,78.521 L68.4324,78.521 L65.9704,80.183 L65.7214,80.481 L66.0264,80.457 L64.6454,81.862 L64.6644,81.537 L64.2724,81.735 L64.2734,81.733 L64.0154,81.862 L63.6114,82.264 L63.5964,82.248 L63.4224,82.389 L63.1574,82.662 L62.8444,83.374 L62.6324,84.306 L62.6384,85.02 L62.9844,87.307 L63.0294,87.393 L63.1694,87.74 L63.7004,88.824 L63.2764,89.052 L61.5564,89.067 L61.0124,89.329 L59.9534,89.885 L59.2564,89.801 L59.4054,90.132 L58.4274,89.609 L57.3424,89.495 L57.2284,89.549 L57.1604,89.608 L57.5834,89.777 L56.5024,90.014 L56.4084,90.061 L56.3614,90.044 L55.6314,90.199 L55.9164,89.767 L55.8824,89.712 L55.6874,89.114 L55.2164,88.762 L54.1974,88.521 L53.6744,88.179 L53.9754,87.871 L53.7444,87.405 L52.7774,87.443 L52.2824,87.189 L52.2164,87.059 L52.1914,87.065 L52.1204,86.93 L51.9844,86.79 L52.0074,86.768 L51.9844,86.724 L51.8484,86.583 L51.8694,86.563 L51.8464,86.517 L51.7814,86.449 L51.1404,86.428 L51.4124,86.971 L51.1994,86.842 L51.2154,86.874 L49.3654,85.812 L48.7534,85.556 L48.6294,85.474 L47.9314,85.335 L48.0294,86.002 L47.5894,86.504 L47.4754,86.56 L46.8574,86.733 L45.1534,86.721 L44.3784,86.535 L43.4744,86.812 L43.2594,86.719 L43.2394,86.759 L42.4014,86.166 L41.5324,85.729 L41.5324,85.731 L41.4684,85.7 L41.3494,85.539 L41.3384,85.52 L41.1744,85.712 L39.6194,85.626 L39.2754,85.411 L37.3664,84.004 L35.5844,83.098 L35.2704,83.156 L34.2744,83.39 L34.0904,82.053 L34.2374,81.86 L34.2624,81.341 L34.0204,81.308 L33.5364,81.296 L33.4544,81.26 L31.4194,79.986 L32.9874,79.188 L33.2284,78.93 L34.3564,75.575 L34.4144,74.674 L34.5044,74.547 L34.5344,73.378 L34.7434,71.838 L34.9074,69.926 L35.0084,69.462 L35.0104,67.357 L35.5644,63.201 L35.5684,63.202 L35.6484,61.327 L36.1444,59.472 L36.5884,59.72 L36.3894,59.496 L36.1294,59.339 L35.1114,57.697 L35.4064,57.257 L35.9484,56.533 L35.8084,55.097 L35.9064,53.356 L35.9854,53.177 L33.1084,52.355 L31.7114,51.319 L31.1424,50.181 L30.9124,49.792 L29.7064,47.874 L29.8544,47.187 L30.2444,46.438 L30.1484,46.263 L29.1354,45.645 L29.4614,44.614 L28.9624,44.913 L27.5684,44.159 L27.3004,43.028 L27.7094,42.507 L27.0794,42.025 L26.2754,41.956 L25.2984,41.832 L24.1324,41.475 L21.5464,40.132 L20.1654,39.657 L19.6824,39.583 L18.6194,38.971 L18.3554,38.684 L17.8604,38.891 L17.4904,39.199 L16.2824,39.566 L15.8964,39.252 L15.7094,38.759 L15.1094,37.923 L14.6944,37.622 L13.2004,36.913 L13.8554,36.411 L15.8504,35.822 L15.8424,35.814 L14.8844,35.824 L14.1044,35.212 L14.7104,34.451 L14.4264,34.4 L13.5854,34.525 L13.0174,34.063 L12.9824,32.722 L13.2454,32.167 L15.3094,31.088 L16.3304,30.699 L18.1164,30.205 L18.9734,30.695 L19.0074,30.543 L19.6884,30.217 L20.2674,30.444 L20.3194,29.892 L20.7684,29.354 L23.2014,29.022 L24.6554,29.628 L25.9314,31.326 L26.4414,31.648 L26.7764,31.451 L28.4304,30.76 L29.4144,31.03 L30.4204,30.92 L31.1174,30.38 L31.7384,31.007 L31.9334,31.082 L33.4584,30.999 L33.8094,30.889 L33.6204,30.794 L33.5384,30.842 L33.4674,30.717 L33.3414,30.653 L33.3844,30.569 L33.2154,30.274 L33.0964,27.639 L32.7654,25.707 L32.5254,25.522 L32.5284,25.514 L32.4344,25.42 L31.1674,23.266 L31.3334,22.698 L31.2504,22.311 L29.9944,21.126 L32.2254,21.436 L34.4154,21.083 L35.1454,21.169 L35.8514,21.373 L35.9414,21.934 L35.5714,22.588 L35.5324,22.904 L35.7224,23.11 L35.7044,23.127 L35.9544,23.434 L37.1394,24.121 L38.1864,24.245 L39.4164,24.449 L41.9334,24.758 L43.9234,24.167 L44.5334,23.833 L43.9594,23.322 L43.8054,22.667 L44.4484,21.112 L46.2744,20.03 L48.8324,19.158 L50.9594,18.181 L51.6664,17.665 L52.3814,16.657 L52.4784,16.436 L52.7734,11.289 L53.7354,9.653 L55.7704,8.93 L59.0134,8.148 L59.5344,8.552 L59.5454,8.619 C59.9504,8.026 60.3924,7.464 60.8664,6.929 C60.8504,6.916 60.8384,6.9 60.8224,6.889 L60.3024,6.485 C59.9294,6.196 59.4754,6.044 59.0134,6.044 C58.8484,6.044 58.6824,6.064 58.5194,6.103 L55.2774,6.884 C55.2054,6.901 55.1354,6.922 55.0654,6.948 L53.0324,7.67 C52.5664,7.836 52.1734,8.16 51.9234,8.586 L50.9604,10.221 C50.7904,10.509 50.6914,10.834 50.6724,11.169 L50.4084,15.804 L50.1494,16.167 L49.8894,16.357 L48.0514,17.201 L45.5954,18.039 C45.4584,18.085 45.3264,18.146 45.2014,18.22 L43.3744,19.302 C42.9834,19.535 42.6774,19.887 42.5024,20.309 L41.8604,21.863 C41.7624,22.102 41.7094,22.355 41.7024,22.61 L39.7174,22.367 L38.5334,22.169 C38.5004,22.164 38.4664,22.159 38.4344,22.155 L38.0384,22.108 C38.0524,21.94 38.0464,21.77 38.0194,21.6 L37.9294,21.039 C37.7994,20.235 37.2184,19.577 36.4344,19.351 L35.7284,19.148 C35.6184,19.116 35.5074,19.093 35.3944,19.08 L34.6654,18.993 C34.5824,18.983 34.4994,18.978 34.4154,18.978 C34.3034,18.978 34.1914,18.987 34.0794,19.005 L32.2024,19.309 L30.2834,19.041 C30.1864,19.028 30.0884,19.022 29.9934,19.022 C29.1924,19.022 28.4494,19.479 28.0964,20.217 C27.7004,21.042 27.8834,22.028 28.5494,22.656 L29.0674,23.145 C29.0434,23.556 29.1414,23.971 29.3534,24.332 L30.6204,26.486 C30.6774,26.582 30.7404,26.672 30.8104,26.759 L31.0014,27.865 L31.0194,28.278 C30.6004,28.297 30.1834,28.442 29.8304,28.716 L29.6004,28.893 L29.5834,28.894 L28.9884,28.731 C28.8054,28.681 28.6184,28.656 28.4304,28.656 C28.1544,28.656 27.8774,28.71 27.6184,28.819 L26.9044,29.117 L26.3374,28.364 C26.1124,28.064 25.8114,27.831 25.4664,27.687 L24.0124,27.08 C23.7554,26.972 23.4794,26.917 23.2014,26.917 C23.1074,26.917 23.0124,26.924 22.9174,26.936 L20.4844,27.269 C19.9644,27.339 19.4904,27.602 19.1534,28.004 L18.9534,28.245 C18.9404,28.249 18.9284,28.255 18.9154,28.259 C18.6614,28.155 18.3894,28.101 18.1164,28.101 C17.9284,28.101 17.7404,28.126 17.5564,28.177 L15.7704,28.67 C15.7054,28.688 15.6424,28.708 15.5794,28.732 L14.5584,29.123 C14.4814,29.152 14.4064,29.186 14.3334,29.224 L12.2704,30.303 C11.8664,30.515 11.5414,30.852 11.3454,31.265 L11.0824,31.819 C10.9404,32.118 10.8714,32.445 10.8787761,32.776 L10.9144,34.118 C10.9284,34.677 11.1644,35.205 11.5664,35.588 C11.2174,36.017 11.0484,36.574 11.1084,37.137 C11.1854,37.865 11.6374,38.501 12.2994,38.815 L13.6024,39.432 L13.8394,39.762 L13.9274,39.997 C14.0594,40.343 14.2804,40.649 14.5684,40.884 L14.9534,41.198 C15.3334,41.507 15.8044,41.67 16.2824,41.67 C16.4864,41.67 16.6924,41.641 16.8934,41.58 L18.1014,41.212 C18.1424,41.2 18.1834,41.186 18.2234,41.171 L18.6334,41.407 C18.8584,41.536 19.1064,41.624 19.3624,41.663 L19.6594,41.708 L20.7154,42.071 L23.1614,43.343 C23.2754,43.402 23.3944,43.45 23.5164,43.487 L24.6834,43.845 C24.7974,43.879 24.9154,43.905 25.0344,43.919 L25.3594,43.96 L25.5194,44.642 C25.6574,45.227 26.0394,45.725 26.5674,46.011 L27.1434,46.321 C27.2534,46.647 27.4444,46.945 27.7014,47.185 L27.6494,47.431 C27.5334,47.968 27.6324,48.53 27.9244,48.995 L29.1154,50.887 L29.2924,51.188 L29.8304,52.261 C29.9784,52.556 30.1934,52.813 30.4594,53.01 L31.8564,54.045 C32.0594,54.195 32.2874,54.309 32.5304,54.378 L33.7214,54.718 L33.7074,54.979 C33.7014,55.086 33.7034,55.194 33.7144,55.301 L33.7754,55.925 L33.7214,55.996 C33.6994,56.026 33.6784,56.055 33.6584,56.086 L33.3644,56.526 C32.9044,57.212 32.8874,58.103 33.3234,58.806 L33.8964,59.731 L33.6154,60.783 C33.5754,60.932 33.5524,61.084 33.5464,61.238 L33.4724,62.964 L32.9254,67.08 C32.9124,67.171 32.9074,67.263 32.9064,67.355 L32.9044,69.233 L32.8514,69.476 C32.8314,69.565 32.8184,69.656 32.8104,69.746 L32.6504,71.606 L32.4484,73.095 C32.4384,73.172 32.4324,73.249 32.4304,73.326 L32.4134,74.026 C32.3594,74.191 32.3254,74.364 32.3154,74.539 L32.2744,75.165 L31.4534,77.608 L30.4644,78.112 C29.7894,78.456 29.3514,79.136 29.3174,79.894 C29.2844,80.651 29.6604,81.368 30.3034,81.77 L32.0804,82.882 L32.1884,83.676 C32.2694,84.262 32.5944,84.788 33.0824,85.124 C33.4354,85.367 33.8524,85.494 34.2744,85.494 C34.4344,85.494 34.5954,85.475 34.7534,85.438 L35.2944,85.312 L36.2584,85.801 L38.0284,87.105 C38.0724,87.136 38.1164,87.167 38.1624,87.195 L38.5064,87.411 C38.8064,87.598 39.1494,87.707 39.5034,87.727 L40.9854,87.809 L41.3144,87.974 L42.0224,88.476 C42.2844,88.662 42.5824,88.783 42.8914,88.835 C43.0814,88.889 43.2784,88.917 43.4744,88.917 C43.6824,88.917 43.8904,88.886 44.0924,88.824 L44.4464,88.715 L44.6624,88.767 C44.8184,88.804 44.9774,88.824 45.1374,88.825 L46.8404,88.838 L46.8574,88.838 C47.0484,88.838 47.2394,88.811 47.4244,88.76 L48.0434,88.586 C48.1714,88.55 48.2944,88.503 48.4134,88.444 L48.5274,88.387 C48.7094,88.297 48.8764,88.181 49.0244,88.043 L50.1674,88.699 C50.2394,88.741 50.3144,88.779 50.3914,88.811 C50.6914,88.978 51.0204,89.065 51.3494,89.074 L51.8144,89.314 C51.8564,89.335 51.9004,89.356 51.9434,89.374 C52.0964,89.597 52.2934,89.79 52.5244,89.941 L53.0474,90.282 C53.2044,90.385 53.3744,90.466 53.5524,90.523 C53.5994,90.827 53.7134,91.122 53.8934,91.386 C54.2904,91.968 54.9454,92.303 55.6304,92.303 C55.7774,92.303 55.9234,92.289 56.0694,92.258 L56.5774,92.15 C56.7794,92.135 56.9794,92.093 57.1674,92.022 L58.0334,91.833 C58.0544,91.828 58.0754,91.824 58.0964,91.818 L58.4144,91.988 C58.7274,92.154 59.0664,92.236 59.4054,92.236 C59.8014,92.236 60.1944,92.124 60.5354,91.907 C60.6724,91.868 60.8064,91.814 60.9334,91.748 L61.9584,91.209 L62.0444,91.167 L63.2944,91.156 C63.6374,91.154 63.9744,91.067 64.2764,90.904 L64.7004,90.675 C65.6954,90.138 66.0874,88.911 65.5884,87.896 L65.0924,86.883 L65.0234,86.713 L64.7414,84.852 L64.7384,84.535 L64.8524,84.036 L64.8894,83.952 C65.3564,83.897 65.8014,83.688 66.1454,83.337 L67.5264,81.931 C67.6784,81.778 67.8014,81.606 67.8964,81.421 L68.4774,81.029 C68.4784,81.03 68.4814,81.031 68.4834,81.032 L69.6864,81.701 C69.7884,81.758 69.8954,81.805 70.0034,81.844 C70.3794,82.468 71.0604,82.865 71.8054,82.865 C71.8814,82.865 71.9564,82.861 72.0314,82.852 L73.9354,82.648 C73.9754,82.644 74.0144,82.639 74.0524,82.632 L74.2714,82.775 C74.5924,82.985 74.9624,83.101 75.3394,83.115 L75.5614,83.425 C75.8204,83.785 76.1864,84.054 76.6074,84.194 L76.8034,84.259 L78.3674,85.02 C78.6534,85.16 78.9694,85.232 79.2884,85.232 L79.3044,85.232 L80.0644,85.227 C80.1124,85.226 80.1594,85.224 80.2064,85.221 L80.4024,85.206 L81.1264,85.316 C81.2314,85.332 81.3364,85.339 81.4424,85.339 C81.6794,85.339 81.9144,85.299 82.1394,85.222 L82.3014,85.164 L83.2654,85.109 C83.6894,85.086 84.0954,84.934 84.4314,84.675 L85.0584,84.191 L85.3124,84.093 C85.6594,83.96 85.9644,83.737 86.1984,83.447 L86.7994,82.699 C86.9414,82.521 87.0544,82.321 87.1324,82.107 L87.3534,81.507 L88.0894,81.064 C88.2534,80.965 88.4034,80.844 88.5364,80.703 L88.9854,80.224 L89.3704,79.878 C89.3944,79.855 89.4184,79.832 89.4434,79.809 L89.8394,79.415 L91.2574,78.619 C91.7874,78.322 92.1614,77.811 92.2864,77.217 L92.4814,76.291 L93.0474,75.616 C93.3644,75.238 93.5374,74.761 93.5384,74.267 L93.5424,72.66 C93.5434,71.801 93.0224,71.027 92.2254,70.705 L91.4894,70.407 C91.2364,70.305 90.9694,70.254 90.7014,70.254 C90.4884,70.254 90.2764,70.286 90.0704,70.351 L89.7234,70.46 L88.8494,69.901 L89.4024,68.754 C89.4854,68.582 89.5444,68.399 89.5774,68.21 L89.6794,67.635 C89.7144,67.44 89.7214,67.24 89.7004,67.043 L89.6494,66.563 C89.6144,66.227 89.4984,65.905 89.3124,65.624 L88.8264,64.889 C88.8644,64.859 88.9024,64.83 88.9384,64.798 L89.3784,64.418 C89.6814,64.155 89.9044,63.812 90.0194,63.427 L90.5434,61.674 C90.6804,61.215 90.6564,60.722 90.4764,60.28 L90.2514,59.725 C90.0684,59.274 89.7334,58.901 89.3064,58.669 L89.0664,58.538 L88.9054,58.164 C88.9774,58.08 89.0424,57.991 89.1004,57.897 L89.4244,57.366 C89.8704,56.64 89.8334,55.718 89.3314,55.029 L88.4224,53.78 C88.4204,53.763 88.4194,53.745 88.4174,53.728 L88.2414,52.292 C88.2324,52.214 88.2184,52.137 88.2004,52.062 L88.0764,51.537 C87.9384,50.952 87.5584,50.462 87.0454,50.179 L87.0314,50.167 C86.6574,49.834 86.1764,49.647 85.6764,49.638 L85.6124,49.635 C85.6864,49.464 85.7354,49.284 85.7614,49.102 L85.9304,48.618 C85.9454,48.575 85.9594,48.531 85.9724,48.487 L86.5214,48.118 C86.7294,47.977 86.9114,47.802 87.0594,47.598 L88.4454,45.665 C88.5674,45.569 88.6794,45.46 88.7794,45.336 L88.8854,45.205 C89.0144,45.129 89.1364,45.041 89.2484,44.939 C89.3374,44.919 89.4264,44.893 89.5124,44.86 L89.9174,44.71 C90.1724,44.616 90.4054,44.473 90.6054,44.291 L92.4284,42.624 C92.7884,42.295 93.0234,41.852 93.0914,41.37 L93.1704,40.823 C93.1944,40.655 93.1984,40.485 93.1824,40.317 L93.0444,38.931 L93.0974,38.759 C93.1614,38.548 93.1914,38.331 93.1884,38.112 L93.1654,36.624 L93.1694,36.532 L93.8274,34.815 C93.8824,34.668 93.9214,34.517 93.9434,34.361 L94.1244,33.102 L94.1824,32.848 L95.2884,31.581 C95.3624,31.497 95.4294,31.406 95.4894,31.31" id="Fill-11" fill="#343852"></path>
            <path d="M87.451,14.2463 C87.836,15.5353 88.039,16.8943 88.039,18.3053 C88.039,21.3893 87.055,24.2503 85.382,26.5843 L73.835,42.6563 L62.288,26.5843 C61.456,25.4173 60.786,24.1193 60.33,22.7283 C59.873,21.3283 59.629,19.8473 59.629,18.3053 C59.629,16.8943 59.832,15.5353 60.218,14.2463 C61.963,8.3823 67.402,4.1003 73.835,4.1003 C80.267,4.1003 85.706,8.3823 87.451,14.2463 M78.786,21.8563 C79.496,20.8513 79.922,19.6233 79.922,18.3053 C79.922,14.9463 77.193,12.2173 73.835,12.2173 C70.476,12.2173 67.746,14.9463 67.746,18.3053 C67.746,19.6233 68.172,20.8513 68.884,21.8563 C69.989,23.3883 71.796,24.3923 73.835,24.3923 C75.874,24.3923 77.68,23.3883 78.786,21.8563" id="Fill-13" fill="#1D71B8"></path>
            <path d="M73.8345,43.7092 C73.4955,43.7092 73.1775,43.5452 72.9805,43.2702 L61.4335,27.1972 C60.5185,25.9142 59.8115,24.5212 59.3305,23.0562 C58.8305,21.5262 58.5785,19.9262 58.5785,18.3052 C58.5785,16.8142 58.7905,15.3482 59.2105,13.9452 C61.1195,7.5292 67.1335,3.0482 73.8345,3.0482 C80.5365,3.0482 86.5505,7.5292 88.4585,13.9462 C88.8795,15.3512 89.0925,16.8172 89.0925,18.3052 C89.0925,21.5192 88.1045,24.5942 86.2355,27.1972 L74.6885,43.2702 C74.4915,43.5452 74.1735,43.7092 73.8345,43.7092 M73.8345,5.1522 C68.0575,5.1522 62.8725,9.0152 61.2265,14.5462 C60.8655,15.7542 60.6825,17.0182 60.6825,18.3052 C60.6825,19.7042 60.9005,21.0842 61.3305,22.4032 C61.7435,23.6632 62.3555,24.8652 63.1455,25.9742 L73.8345,40.8542 L84.5255,25.9712 C86.1365,23.7272 86.9875,21.0762 86.9875,18.3052 C86.9875,17.0202 86.8045,15.7562 86.4425,14.5472 L86.4425,14.5462 C84.7975,9.0152 79.6125,5.1522 73.8345,5.1522 M73.8345,25.4452 C71.5435,25.4452 69.3735,24.3342 68.0305,22.4712 C67.1535,21.2322 66.6945,19.7952 66.6945,18.3052 C66.6945,14.3682 69.8975,11.1642 73.8345,11.1642 C77.7715,11.1642 80.9745,14.3682 80.9745,18.3052 C80.9745,19.7962 80.5155,21.2342 79.6445,22.4632 C79.6435,22.4662 79.6415,22.4692 79.6385,22.4712 C78.2955,24.3342 76.1255,25.4452 73.8345,25.4452 M73.8345,13.2692 C71.0585,13.2692 68.7995,15.5282 68.7995,18.3052 C68.7995,19.3572 69.1255,20.3762 69.7415,21.2492 C70.6855,22.5562 72.2175,23.3402 73.8345,23.3402 C75.4495,23.3402 76.9805,22.5572 77.9305,21.2442 C78.5455,20.3732 78.8695,19.3572 78.8695,18.3052 C78.8695,15.5282 76.6105,13.2692 73.8345,13.2692" id="Fill-15" fill="#343852"></path>
        </g>
    </g>
</svg>