<?xml version="1.0" encoding="UTF-8"?>
<svg width="120px" height="120px" viewBox="0 0 120 120" version="1.1" xmlns="http://www.w3.org/2000/svg" xmlns:xlink="http://www.w3.org/1999/xlink">
    <title>02.Icons/Illustrative/Charts - Barres</title>
    <g id="02.Icons/Illustrative/Charts---Barres" stroke="none" stroke-width="1" fill="none" fill-rule="evenodd">
        <g id="Charts---Barres" transform="translate(3.205400, 22.296800)">
            <path d="M66.44,53.3903 C66.44,35.0433 51.566,20.1703 33.22,20.1703 C14.874,20.1703 0,35.0433 0,53.3903 C0,71.7373 14.874,86.6103 33.22,86.6103 C51.566,86.6103 66.44,71.7373 66.44,53.3903" id="Fill-1" fill="#F2F3F7"></path>
            <path d="M57.8616,2.4847 L57.8616,69.6887 C57.8616,70.1857 57.3836,70.5867 56.7946,70.5867 C56.2046,70.5867 55.7276,70.1857 55.7276,69.6887 L55.7276,2.4847 C55.7276,1.9887 56.2046,1.5867 56.7946,1.5867 C57.3836,1.5867 57.8616,1.9887 57.8616,2.4847 M42.6236,1.5867 C42.0336,1.5867 41.5566,1.9887 41.5566,2.4847 L41.5566,69.6887 C41.5566,70.1857 42.0336,70.5867 42.6236,70.5867 C43.2136,70.5867 43.6906,70.1857 43.6906,69.6887 L43.6906,2.4847 C43.6906,1.9887 43.2136,1.5867 42.6236,1.5867 M28.4506,1.5867 C27.8606,1.5867 27.3836,1.9887 27.3836,2.4847 L27.3836,69.7087 C27.3836,70.2057 27.8606,70.6077 28.4506,70.6077 C29.0396,70.6077 29.5176,70.2057 29.5176,69.7087 L29.5176,2.4847 C29.5176,1.9887 29.0396,1.5867 28.4506,1.5867 M100.3996,2.3687 L100.3996,69.5717 C100.3996,70.0677 99.9226,70.4707 99.3326,70.4707 C98.7426,70.4707 98.2656,70.0677 98.2656,69.5717 L98.2656,2.3687 C98.2656,1.8727 98.7426,1.4697 99.3326,1.4697 C99.9226,1.4697 100.3996,1.8727 100.3996,2.3687 M85.1616,1.4697 C84.5726,1.4697 84.0946,1.8727 84.0946,2.3687 L84.0946,69.5717 C84.0946,70.0677 84.5726,70.4707 85.1616,70.4707 C85.7516,70.4707 86.2286,70.0677 86.2286,69.5717 L86.2286,2.3687 C86.2286,1.8727 85.7516,1.4697 85.1616,1.4697 M70.9886,1.4697 C70.3986,1.4697 69.9216,1.8727 69.9216,2.3687 L69.9216,69.5917 C69.9216,70.0897 70.3986,70.4917 70.9886,70.4917 C71.5786,70.4917 72.0556,70.0897 72.0556,69.5917 L72.0556,2.3687 C72.0556,1.8727 71.5786,1.4697 70.9886,1.4697" id="Fill-3" fill="#DEE0EA"></path>
            <path d="M15.3526,1.067 C15.3526,0.477 14.8756,0 14.2856,0 C13.6956,0 13.2186,0.477 13.2186,1.067 L13.2186,71.94 C13.2186,72.53 13.6956,73.007 14.2856,73.007 L99.3326,73.007 C99.9226,73.007 100.3996,72.53 100.3996,71.94 L100.3996,66.623 C100.3996,66.034 99.9226,65.556 99.3326,65.556 C98.7426,65.556 98.2656,66.034 98.2656,66.623 L98.2656,70.873 L86.2246,70.873 L86.2246,66.623 C86.2246,66.034 85.7476,65.556 85.1576,65.556 C84.5676,65.556 84.0906,66.034 84.0906,66.623 L84.0906,70.873 L72.0506,70.873 L72.0506,66.623 C72.0506,66.034 71.5726,65.556 70.9836,65.556 C70.3936,65.556 69.9166,66.034 69.9166,66.623 L69.9166,70.873 L57.8756,70.873 L57.8756,66.623 C57.8756,66.034 57.3986,65.556 56.8086,65.556 C56.2196,65.556 55.7416,66.034 55.7416,66.623 L55.7416,70.873 L43.7006,70.873 L43.7006,66.623 C43.7006,66.034 43.2236,65.556 42.6336,65.556 C42.0446,65.556 41.5666,66.034 41.5666,66.623 L41.5666,70.873 L29.5266,70.873 L29.5266,66.623 C29.5266,66.034 29.0496,65.556 28.4596,65.556 C27.8696,65.556 27.3926,66.034 27.3926,66.623 L27.3926,70.873 L15.3526,70.873 L15.3526,44.658 L15.3526,14.174 L15.3526,2.134" id="Fill-5" fill="#343852"></path>
            <path d="M20.845,57.4868 L20.845,46.1618 C20.845,45.5718 21.323,45.0948 21.912,45.0948 L71.699,45.0948 C72.288,45.0948 72.766,45.5718 72.766,46.1618 L72.766,57.4868 C72.766,58.0768 72.288,58.5538 71.699,58.5538 L21.912,58.5538 C21.323,58.5538 20.845,58.0768 20.845,57.4868" id="Fill-7" fill="#D20050"></path>
            <path d="M20.8449,57.4865 L20.8449,46.1615 C20.8449,45.5715 21.3229,45.0945 21.9119,45.0945 L71.6989,45.0945 C72.2879,45.0945 72.7659,45.5715 72.7659,46.1615 L72.7659,57.4865 C72.7659,58.0765 72.2879,58.5535 71.6989,58.5535 L21.9119,58.5535 C21.3229,58.5535 20.8449,58.0765 20.8449,57.4865 L20.8449,57.4865 Z M22.9789,56.4195 L70.6319,56.4195 L70.6319,47.2285 L22.9789,47.2285 L22.9789,56.4195 Z" id="Fill-9" fill="#343852"></path>
            <path d="M20.845,21.8946 L20.845,10.5696 C20.845,9.9796 21.323,9.5026 21.912,9.5026 L83.434,9.5026 C84.023,9.5026 84.501,9.9796 84.501,10.5696 L84.501,21.8946 C84.501,22.4846 84.023,22.9616 83.434,22.9616 L21.912,22.9616 C21.323,22.9616 20.845,22.4846 20.845,21.8946" id="Fill-11" fill="#1D71B8"></path>
            <path d="M20.8449,21.8948 L20.8449,10.5698 C20.8449,9.9798 21.3229,9.5028 21.9119,9.5028 L83.4339,9.5028 C84.0239,9.5028 84.5009,9.9798 84.5009,10.5698 L84.5009,21.8948 C84.5009,22.4848 84.0239,22.9618 83.4339,22.9618 L21.9119,22.9618 C21.3229,22.9618 20.8449,22.4848 20.8449,21.8948 L20.8449,21.8948 Z M22.9789,20.8278 L82.3669,20.8278 L82.3669,11.6368 L22.9789,11.6368 L22.9789,20.8278 Z" id="Fill-13" fill="#343852"></path>
            <path d="M20.845,39.6907 L20.845,28.3657 C20.845,27.7757 21.323,27.2987 21.912,27.2987 L59.964,27.2987 C60.553,27.2987 61.031,27.7757 61.031,28.3657 L61.031,39.6907 C61.031,40.2807 60.553,40.7577 59.964,40.7577 L21.912,40.7577 C21.323,40.7577 20.845,40.2807 20.845,39.6907" id="Fill-15" fill="#1D71B8"></path>
            <path d="M20.8449,39.6912 L20.8449,28.3652 C20.8449,27.7762 21.3229,27.2982 21.9119,27.2982 L59.9639,27.2982 C60.5529,27.2982 61.0309,27.7762 61.0309,28.3652 L61.0309,39.6912 C61.0309,40.2802 60.5529,40.7582 59.9639,40.7582 L21.9119,40.7582 C21.3229,40.7582 20.8449,40.2802 20.8449,39.6912 L20.8449,39.6912 Z M22.9789,38.6242 L58.8969,38.6242 L58.8969,29.4332 L22.9789,29.4332 L22.9789,38.6242 Z" id="Fill-17" fill="#343852"></path>
        </g>
    </g>
</svg>