<?xml version="1.0" encoding="UTF-8"?>
<svg width="120px" height="120px" viewBox="0 0 120 120" version="1.1" xmlns="http://www.w3.org/2000/svg" xmlns:xlink="http://www.w3.org/1999/xlink">
    <title>02.Icons/Illustrative/Charts - Courbes</title>
    <g id="02.Icons/Illustrative/Charts---Courbes" stroke="none" stroke-width="1" fill="none" fill-rule="evenodd">
        <g id="Charts---Courbes" transform="translate(2.383900, 22.458900)">
            <path d="M66.44,53.3898 C66.44,35.0428 51.566,20.1698 33.22,20.1698 C14.874,20.1698 0,35.0428 0,53.3898 C0,71.7368 14.874,86.6098 33.22,86.6098 C51.566,86.6098 66.44,71.7368 66.44,53.3898" id="Fill-1" fill="#F2F3F7"></path>
            <path d="M99.3306,44.652 L19.3386,44.652 C18.7476,44.652 18.2696,44.175 18.2696,43.585 C18.2696,42.995 18.7476,42.518 19.3386,42.518 L99.3306,42.518 C99.9216,42.518 100.3996,42.995 100.3996,43.585 C100.3996,44.175 99.9216,44.652 99.3306,44.652 M100.3996,29.414 C100.3996,28.825 99.9216,28.347 99.3306,28.347 L19.3386,28.347 C18.7476,28.347 18.2696,28.825 18.2696,29.414 C18.2696,30.004 18.7476,30.481 19.3386,30.481 L99.3306,30.481 C99.9216,30.481 100.3996,30.004 100.3996,29.414 M100.3996,15.241 C100.3996,14.651 99.9216,14.174 99.3306,14.174 L19.3146,14.174 C18.7236,14.174 18.2446,14.651 18.2446,15.241 C18.2446,15.831 18.7236,16.308 19.3146,16.308 L99.3306,16.308 C99.9216,16.308 100.3996,15.831 100.3996,15.241" id="Fill-3" fill="#DEE0EA"></path>
            <path d="M99.3327,65.556 C98.7427,65.556 98.2657,66.033 98.2657,66.623 L98.2657,70.872 L86.2247,70.872 L86.2247,66.623 C86.2247,66.033 85.7477,65.556 85.1577,65.556 C84.5677,65.556 84.0907,66.033 84.0907,66.623 L84.0907,70.872 L72.0507,70.872 L72.0507,66.623 C72.0507,66.033 71.5727,65.556 70.9837,65.556 C70.3937,65.556 69.9167,66.033 69.9167,66.623 L69.9167,70.872 L57.8757,70.872 L57.8757,66.623 C57.8757,66.033 57.3987,65.556 56.8087,65.556 C56.2197,65.556 55.7417,66.033 55.7417,66.623 L55.7417,70.872 L43.7007,70.872 L43.7007,66.623 C43.7007,66.033 43.2237,65.556 42.6337,65.556 C42.0447,65.556 41.5667,66.033 41.5667,66.623 L41.5667,70.872 L29.5267,70.872 L29.5267,66.623 C29.5267,66.033 29.0497,65.556 28.4597,65.556 C27.8697,65.556 27.3927,66.033 27.3927,66.623 L27.3927,70.872 L15.3527,70.872 L15.3527,44.657 L19.6007,44.657 C20.1907,44.657 20.6677,44.18 20.6677,43.59 C20.6677,43 20.1907,42.523 19.6007,42.523 L15.3527,42.523 L15.3527,30.483 L19.6007,30.483 C20.1907,30.483 20.6677,30.006 20.6677,29.416 C20.6677,28.826 20.1907,28.349 19.6007,28.349 L15.3527,28.349 L15.3527,16.308 L19.6007,16.308 C20.1907,16.308 20.6677,15.83 20.6677,15.241 C20.6677,14.651 20.1907,14.174 19.6007,14.174 L15.3527,14.174 L15.3527,2.134 L19.6007,2.134 C20.1907,2.134 20.6677,1.656 20.6677,1.067 C20.6677,0.477 20.1907,0 19.6007,0 L14.2857,0 C13.6957,0 13.2187,0.477 13.2187,1.067 L13.2187,71.939 C13.2187,72.529 13.6957,73.006 14.2857,73.006 L99.3327,73.006 C99.9227,73.006 100.3997,72.529 100.3997,71.939 L100.3997,66.623 C100.3997,66.033 99.9227,65.556 99.3327,65.556" id="Fill-5" fill="#343852"></path>
            <path d="M31.2311,40.7242 C27.9671,40.7242 25.3121,38.0692 25.3121,34.8062 C25.3121,31.5442 27.9671,28.8892 31.2311,28.8892 C34.4941,28.8892 37.1491,31.5442 37.1491,34.8062 C37.1491,38.0692 34.4941,40.7242 31.2311,40.7242" id="Fill-7" fill="#1D71B8"></path>
            <path d="M44.1663,60.1271 C40.9023,60.1271 38.2473,57.4721 38.2473,54.2091 C38.2473,50.9471 40.9023,48.2921 44.1663,48.2921 C47.4293,48.2921 50.0843,50.9471 50.0843,54.2091 C50.0843,57.4721 47.4293,60.1271 44.1663,60.1271" id="Fill-9" fill="#1D71B8"></path>
            <path d="M61.9521,26.1717 C58.6891,26.1717 56.0341,23.5167 56.0341,20.2537 C56.0341,16.9917 58.6891,14.3367 61.9521,14.3367 C65.2151,14.3367 67.8701,16.9917 67.8701,20.2537 C67.8701,23.5167 65.2151,26.1717 61.9521,26.1717" id="Fill-11" fill="#D20050"></path>
            <path d="M76.5045,45.5747 C73.2415,45.5747 70.5865,42.9197 70.5865,39.6567 C70.5865,36.3947 73.2415,33.7397 76.5045,33.7397 C79.7675,33.7397 82.4225,36.3947 82.4225,39.6567 C82.4225,42.9197 79.7675,45.5747 76.5045,45.5747" id="Fill-13" fill="#1D71B8"></path>
            <path d="M89.1564,22.3883 C85.8934,22.3883 83.2384,19.7333 83.2384,16.4703 C83.2384,13.2083 85.8934,10.5523 89.1564,10.5523 C92.4194,10.5523 95.0744,13.2083 95.0744,16.4703 C95.0744,19.7333 92.4194,22.3883 89.1564,22.3883" id="Fill-15" fill="#1D71B8"></path>
            <path d="M89.1565,10.5521 C85.8935,10.5521 83.2385,13.2081 83.2385,16.4711 C83.2385,18.4681 84.2365,20.2341 85.7575,21.3061 L78.4605,34.0791 C77.8475,33.8631 77.1915,33.7401 76.5055,33.7401 C75.5575,33.7401 74.6645,33.9691 73.8695,34.3661 L66.2915,24.2631 C67.2685,23.2081 67.8695,21.8011 67.8695,20.2541 C67.8695,16.9911 65.2155,14.3371 61.9525,14.3371 C58.6895,14.3371 56.0345,16.9911 56.0345,20.2541 C56.0345,21.9771 56.7795,23.5261 57.9585,24.6091 L45.4745,48.4431 C45.0535,48.3471 44.6165,48.2921 44.1665,48.2921 C43.3045,48.2921 42.4875,48.4821 41.7485,48.8151 L35.1515,39.2261 C36.3735,38.1421 37.1485,36.5651 37.1485,34.8071 C37.1485,31.5441 34.4945,28.8891 31.2315,28.8891 C27.9675,28.8891 25.3125,31.5441 25.3125,34.8071 C25.3125,38.0691 27.9675,40.7251 31.2315,40.7251 C31.9685,40.7251 32.6715,40.5831 33.3225,40.3351 L39.9895,50.0221 C38.9135,51.0951 38.2475,52.5761 38.2475,54.2091 C38.2475,57.4721 40.9025,60.1271 44.1665,60.1271 C47.4295,60.1271 50.0845,57.4721 50.0845,54.2091 C50.0845,52.1571 49.0335,50.3481 47.4415,49.2851 L59.7705,25.7491 C60.4455,26.0191 61.1805,26.1721 61.9525,26.1721 C62.8985,26.1721 63.7915,25.9421 64.5865,25.5451 L72.1645,35.6491 C71.1895,36.7041 70.5875,38.1101 70.5875,39.6581 C70.5875,42.9191 73.2425,45.5741 76.5055,45.5741 C79.7665,45.5741 82.4215,42.9191 82.4215,39.6581 C82.4215,37.8461 81.6015,36.2231 80.3145,35.1371 L87.7035,22.2001 C88.1695,22.3191 88.6535,22.3881 89.1565,22.3881 C92.4195,22.3881 95.0745,19.7341 95.0745,16.4711 C95.0745,13.2081 92.4195,10.5521 89.1565,10.5521 M33.9295,37.4511 L33.9165,37.4331 L32.6345,38.3131 C32.1995,38.4881 31.7275,38.5911 31.2315,38.5911 C29.1445,38.5911 27.4465,36.8931 27.4465,34.8071 C27.4465,32.7211 29.1445,31.0231 31.2315,31.0231 C33.3175,31.0231 35.0145,32.7211 35.0145,34.8071 C35.0145,35.8361 34.5985,36.7681 33.9295,37.4511 M47.9505,54.2091 C47.9505,56.2951 46.2525,57.9931 44.1665,57.9931 C42.0795,57.9931 40.3815,56.2951 40.3815,54.2091 C40.3815,52.1231 42.0795,50.4261 44.1665,50.4261 C46.2525,50.4261 47.9505,52.1231 47.9505,54.2091 M61.9525,24.0381 C59.8665,24.0381 58.1685,22.3401 58.1685,20.2541 C58.1685,18.1681 59.8665,16.4711 61.9525,16.4711 C64.0385,16.4711 65.7355,18.1681 65.7355,20.2541 C65.7355,22.3401 64.0385,24.0381 61.9525,24.0381 M76.5055,43.4401 C74.4185,43.4401 72.7215,41.7441 72.7215,39.6581 C72.7215,37.5711 74.4185,35.8741 76.5055,35.8741 C78.5915,35.8741 80.2875,37.5711 80.2875,39.6581 C80.2875,41.7441 78.5915,43.4401 76.5055,43.4401 M89.1565,20.2541 C87.0705,20.2541 85.3725,18.5571 85.3725,16.4711 C85.3725,14.3841 87.0705,12.6861 89.1565,12.6861 C91.2425,12.6861 92.9405,14.3841 92.9405,16.4711 C92.9405,18.5571 91.2425,20.2541 89.1565,20.2541" id="Fill-17" fill="#343852"></path>
        </g>
    </g>
</svg>