<?xml version="1.0" encoding="UTF-8"?>
<svg width="120px" height="120px" viewBox="0 0 120 120" version="1.1" xmlns="http://www.w3.org/2000/svg" xmlns:xlink="http://www.w3.org/1999/xlink">
    <title>02.Icons/Illustrative/Charts - Tableau</title>
    <g id="02.Icons/Illustrative/Charts---Tableau" stroke="none" stroke-width="1" fill="none" fill-rule="evenodd">
        <g id="Charts---Tableau" transform="translate(3.697500, 9.151800)">
            <path d="M37.27,79.425 L37.268,79.425 C16.685,79.425 0,63.01 0,42.76 L0,1.381 L0,0 C2.914,3.193 8.764,5.91 20.641,6.095 L37.27,6.095 C57.852,6.095 74.538,22.51 74.538,42.76 C74.538,63.01 57.852,79.425 37.27,79.425" id="Fill-1" fill="#F2F3F7"></path>
            <path d="M21.0655,85.1085 C18.3395,85.1085 16.1235,82.8915 16.1235,80.1655 L16.1235,24.3225 C16.1235,21.5965 18.3395,19.3805 21.0655,19.3805 L93.2275,19.3805 C95.9535,19.3805 98.1695,21.5965 98.1695,24.3225 L98.1695,80.1655 C98.1695,82.8915 95.9535,85.1085 93.2275,85.1085 L21.0655,85.1085 Z" id="Fill-3" fill="#F2F3F7"></path>
            <path d="M93.2277,20.4551 C95.3597,20.4551 97.0947,22.1901 97.0947,24.3221 L97.0947,80.1661 C97.0947,82.2991 95.3597,84.0331 93.2277,84.0331 L21.0657,84.0331 C18.9337,84.0331 17.1977,82.2991 17.1977,80.1661 L17.1977,24.3221 C17.1977,22.1901 18.9337,20.4551 21.0657,20.4551 L93.2277,20.4551 Z M93.2277,18.3051 L21.0657,18.3051 C17.7567,18.3051 15.0477,21.0131 15.0477,24.3221 L15.0477,80.1661 C15.0477,83.4761 17.7567,86.1831 21.0657,86.1831 L93.2277,86.1831 C96.5367,86.1831 99.2447,83.4761 99.2447,80.1661 L99.2447,24.3221 C99.2447,21.0131 96.5367,18.3051 93.2277,18.3051 L93.2277,18.3051 Z" id="Fill-5" fill="#343852"></path>
            <path d="M89.3383,77.3362 L24.9423,77.3362 C23.7763,77.3362 22.8203,76.3822 22.8203,75.2142 L22.8203,28.5102 C22.8203,27.3422 23.7763,26.3882 24.9423,26.3882 L89.3383,26.3882 C90.5053,26.3882 91.4603,27.3422 91.4603,28.5102 L91.4603,75.2142 C91.4603,76.3822 90.5053,77.3362 89.3383,77.3362" id="Fill-7" fill="#FFFFFF"></path>
            <polygon id="Fill-9" fill="#969CBB" points="23.8945 76.3672 33.2035 76.3672 33.2035 36.6972 23.8945 36.6972"></polygon>
            <polygon id="Fill-11" fill="#1D71B8" points="23.8945 36.6972 90.3845 36.6972 90.3845 27.4622 23.8945 27.4622"></polygon>
            <path d="M75.7568,56.1788 L75.7568,63.1448 L68.0528,63.1448 L75.7568,56.1788 Z M52.0948,63.1448 L57.4038,63.1448 C57.4038,62.8518 57.5138,62.5588 57.7478,62.3458 L71.4938,49.9208 L66.1848,49.9208 C66.1848,50.2148 66.0748,50.5058 65.8408,50.7188 L52.0948,63.1448 Z M73.8188,50.7188 L60.0728,63.1448 L65.3828,63.1448 C65.3828,62.8518 65.4928,62.5588 65.7278,62.3458 L75.0358,53.9318 C75.2418,53.7458 75.4998,53.6638 75.7568,53.6638 L75.7568,49.9208 L74.1628,49.9208 C74.1628,50.2148 74.0528,50.5058 73.8188,50.7188 L73.8188,50.7188 Z M49.7708,62.3458 L63.5158,49.9208 L58.2058,49.9208 C58.2058,50.2148 58.0948,50.5058 57.8608,50.7188 L48.5528,59.1338 C48.3468,59.3198 48.0888,59.4108 47.8318,59.4108 L47.8318,63.1448 L49.4258,63.1448 C49.4258,62.8518 49.5348,62.5588 49.7708,62.3458 L49.7708,62.3458 Z M55.5358,49.9208 L47.8318,49.9208 L47.8318,56.8858 L55.5358,49.9208 Z" id="Fill-12" fill="#D20050"></path>
            <path d="M90.385,26.3878 L23.896,26.3878 C23.302,26.3878 22.821,26.8698 22.821,27.4628 L22.821,76.3678 C22.821,76.9618 23.302,77.4418 23.896,77.4418 L90.385,77.4418 C90.979,77.4418 91.46,76.9618 91.46,76.3678 L91.46,27.4628 C91.46,26.8698 90.979,26.3878 90.385,26.3878 L90.385,26.3878 Z M34.279,48.8468 L46.757,48.8468 L46.757,37.7728 L34.279,37.7728 L34.279,48.8468 Z M48.906,48.8468 L61.384,48.8468 L61.384,37.7728 L48.906,37.7728 L48.906,48.8468 Z M63.534,48.8468 L74.682,48.8468 L74.682,37.7728 L63.534,37.7728 L63.534,48.8468 Z M76.832,48.8468 L89.31,48.8468 L89.31,37.7728 L76.832,37.7728 L76.832,48.8468 Z M24.971,48.8468 L32.129,48.8468 L32.129,37.7728 L24.971,37.7728 L24.971,48.8468 Z M24.971,62.0698 L32.129,62.0698 L32.129,50.9958 L24.971,50.9958 L24.971,62.0698 Z M34.279,62.0698 L46.757,62.0698 L46.757,50.9958 L34.279,50.9958 L34.279,62.0698 Z M34.279,75.2928 L46.757,75.2928 L46.757,64.2188 L34.279,64.2188 L34.279,75.2928 Z M48.906,75.2938 L61.384,75.2938 L61.384,64.2198 L48.906,64.2198 L48.906,75.2938 Z M63.534,75.2938 L74.682,75.2938 L74.682,64.2198 L63.534,64.2198 L63.534,75.2938 Z M48.906,62.0698 L74.681,62.0698 L74.681,50.9958 L48.906,50.9958 L48.906,62.0698 Z M76.831,62.0698 L89.309,62.0698 L89.309,50.9958 L76.831,50.9958 L76.831,62.0698 Z M24.971,35.6228 L89.31,35.6228 L89.31,28.5378 L24.971,28.5378 L24.971,35.6228 Z M24.971,75.2938 L32.129,75.2938 L32.129,64.2198 L24.971,64.2198 L24.971,75.2938 Z M76.831,75.2938 L89.309,75.2938 L89.309,64.2198 L76.831,64.2198 L76.831,75.2938 Z" id="Fill-13" fill="#343852"></path>
            <path d="M43.6095,42.6756 L37.2695,42.6756 C36.6745,42.6756 36.1945,42.1956 36.1945,41.6006 C36.1945,41.0066 36.6745,40.5256 37.2695,40.5256 L43.6095,40.5256 C44.2035,40.5256 44.6845,41.0066 44.6845,41.6006 C44.6845,42.1956 44.2035,42.6756 43.6095,42.6756 M41.7255,45.0186 C41.7255,44.4246 41.2445,43.9436 40.6505,43.9436 L37.2695,43.9436 C36.6745,43.9436 36.1945,44.4246 36.1945,45.0186 C36.1945,45.6116 36.6745,46.0936 37.2695,46.0936 L40.6505,46.0936 C41.2445,46.0936 41.7255,45.6116 41.7255,45.0186 M72.2785,42.6756 L65.9385,42.6756 C65.3435,42.6756 64.8635,42.1956 64.8635,41.6006 C64.8635,41.0066 65.3435,40.5256 65.9385,40.5256 L72.2785,40.5256 C72.8725,40.5256 73.3535,41.0066 73.3535,41.6006 C73.3535,42.1956 72.8725,42.6756 72.2785,42.6756 M70.3945,45.0186 C70.3945,44.4246 69.9135,43.9436 69.3195,43.9436 L65.9385,43.9436 C65.3435,43.9436 64.8635,44.4246 64.8635,45.0186 C64.8635,45.6116 65.3435,46.0936 65.9385,46.0936 L69.3195,46.0936 C69.9135,46.0936 70.3945,45.6116 70.3945,45.0186 M86.2205,56.2786 L79.8785,56.2786 C79.2855,56.2786 78.8035,55.7976 78.8035,55.2036 C78.8035,54.6096 79.2855,54.1286 79.8785,54.1286 L86.2205,54.1286 C86.8145,54.1286 87.2945,54.6096 87.2945,55.2036 C87.2945,55.7976 86.8145,56.2786 86.2205,56.2786 M84.3345,58.6206 C84.3345,58.0276 83.8545,57.5456 83.2595,57.5456 L79.8785,57.5456 C79.2855,57.5456 78.8035,58.0276 78.8035,58.6206 C78.8035,59.2146 79.2855,59.6956 79.8785,59.6956 L83.2595,59.6956 C83.8545,59.6956 84.3345,59.2146 84.3345,58.6206 M58.3155,69.1216 L51.9745,69.1216 C51.3815,69.1216 50.9005,68.6416 50.9005,68.0466 C50.9005,67.4536 51.3815,66.9726 51.9745,66.9726 L58.3155,66.9726 C58.9095,66.9726 59.3905,67.4536 59.3905,68.0466 C59.3905,68.6416 58.9095,69.1216 58.3155,69.1216 M56.4315,71.4646 C56.4315,70.8706 55.9505,70.3896 55.3565,70.3896 L51.9745,70.3896 C51.3815,70.3896 50.9005,70.8706 50.9005,71.4646 C50.9005,72.0596 51.3815,72.5396 51.9745,72.5396 L55.3565,72.5396 C55.9505,72.5396 56.4315,72.0596 56.4315,71.4646" id="Fill-14" fill="#969CBB"></path>
        </g>
    </g>
</svg>