<?xml version="1.0" encoding="UTF-8"?>
<svg width="120px" height="120px" viewBox="0 0 120 120" version="1.1" xmlns="http://www.w3.org/2000/svg" xmlns:xlink="http://www.w3.org/1999/xlink">
    <title>02.Icons/Illustrative/Cible Biologie medicale</title>
    <g id="02.Icons/Illustrative/Cible-Biologie-medicale" stroke="none" stroke-width="1" fill="none" fill-rule="evenodd">
        <path d="M85.36,65.3494965 C85.36,47.8534965 71.176,33.6694965 53.68,33.6694965 C36.184,33.6694965 22,47.8534965 22,65.3494965 C22,82.8454965 36.184,97.0294965 53.68,97.0294965 C71.176,97.0294965 85.36,82.8454965 85.36,65.3494965" id="Fill-1" fill="#F2F3F7"></path>
        <path d="M94,95.5894965 L94,101.349496 L30.64,101.349496 L30.64,95.5894965 C30.64,94.0054965 31.936,92.7094965 33.52,92.7094965 L70.96,92.7094965 L91.12,92.7094965 C92.704,92.7094965 94,94.0054965 94,95.5894965" id="Fill-3" fill="#1D71B8"></path>
        <path d="M91.12,92.7094965 L70.96,92.7094965 L70.96,86.9494965 L70.96,84.5154965 L70.96,79.7494965 C70.96,79.0584965 71.046,78.4534965 71.19,77.9354965 C71.651,76.2644965 72.746,75.4294965 73.84,75.4294965 C75.179,75.4294965 76.619,75.8324965 78.059,76.5094965 C81.688,78.2084965 85.403,81.6934965 87.952,85.2504965 L87.952,85.2644965 C89.882,87.9574965 91.12,90.6934965 91.12,92.7094965" id="Fill-5" fill="#FFFFFF"></path>
        <polygon id="Fill-7" fill="#EDEEF3" points="73.5088 18.5782965 69.9808 26.6422965 61.6718 22.9992965 65.1998 14.9492965"></polygon>
        <path d="M70.3408,34.3030965 C71.5788,35.0660965 72.3998,36.4340965 72.3998,37.9890965 C72.3998,40.3800965 70.4708,42.3090965 68.0798,42.3090965 C67.6768,42.3090965 67.2878,42.2520965 66.9138,42.1370965 C65.0848,41.6470965 63.7598,39.9770965 63.7598,37.9890965 C63.7598,35.5990965 65.6898,33.6690965 68.0798,33.6690965 C68.9148,33.6690965 69.6928,33.9000965 70.3408,34.3030965" id="Fill-9" fill="#FFFFFF"></path>
        <path d="M39.28,68.2294965 L71.19,77.9354965 C71.046,78.4534965 70.96,79.0584965 70.96,79.7494965 L70.96,84.5154965 L37.437,74.3064965 L39.28,68.2294965 Z" id="Fill-11" fill="#D20050"></path>
        <path d="M81.04,63.9094965 C81.04,54.5204965 73.538,46.3704965 65.517,45.3044965 L66.914,42.1364965 C67.288,42.2514965 67.677,42.3094965 68.08,42.3094965 C70.47,42.3094965 72.4,40.3794965 72.4,37.9894965 C72.4,36.4344965 71.579,35.0664965 70.341,34.3034965 L71.752,31.0774965 C80.45,34.4474965 94,47.1044965 94,62.4694965 C94,71.3394965 90.717,79.6774965 88.197,84.7604965 L87.952,85.2504965 C85.403,81.6934965 81.688,78.2084965 78.059,76.5094965 C79.542,73.4564965 81.04,69.0504965 81.04,63.9094965" id="Fill-13" fill="#EDEEF3"></path>
        <path d="M70.4416,26.8438965 C71.1476,27.1458965 71.6946,27.7218965 71.9826,28.4278965 C72.2556,29.1478965 72.2416,29.9398965 71.9396,30.6458965 L71.7516,31.0778965 L70.3406,34.3028965 C69.6926,33.8998965 68.9156,33.6698965 68.0796,33.6698965 C65.6896,33.6698965 63.7596,35.5988965 63.7596,37.9898965 C63.7596,39.9768965 65.0846,41.6468965 66.9136,42.1368965 L65.5166,45.3048965 L63.6306,49.6248965 L66.8706,51.0498965 L63.7596,58.1498965 L60.8226,56.8678965 L54.9756,54.3048965 L50.0946,52.1738965 L44.1756,49.5818965 L40.7196,48.0698965 L43.8306,40.9698965 L48.9136,43.1878965 L57.2226,24.1938965 C57.8556,22.7398965 59.5556,22.0778965 61.0096,22.7108965 L61.6716,22.9988965 L69.9806,26.6418965 L70.4416,26.8438965 Z" id="Fill-15" fill="#969CBB"></path>
        <polygon id="Fill-17" fill="#FFFFFF" points="60.8224 56.8678965 58.0004 65.3498965 52.2404 63.9098965 54.9764 54.3048965"></polygon>
        <polygon id="Fill-19" fill="#FFFFFF" points="50.0944 52.1734965 45.0404 61.0294965 39.2804 58.1494965 44.1764 49.5814965"></polygon>
        <path d="M93.0498,100.399496 L31.5898,100.399496 L31.5898,95.5894965 C31.5898,94.5254965 32.4548,93.6594965 33.5198,93.6594965 L91.1198,93.6594965 C92.1848,93.6594965 93.0498,94.5254965 93.0498,95.5894965 L93.0498,100.399496 Z M71.9098,79.7494965 C71.9098,79.1824965 71.9758,78.6584965 72.1068,78.1874965 C72.4138,77.0724965 73.0778,76.3794965 73.8398,76.3794965 C74.9738,76.3794965 76.2578,76.7124965 77.6558,77.3704965 C80.8808,78.8794965 84.5208,82.1024965 87.1638,85.7824965 C87.1708,85.7944965 87.1718,85.8074965 87.1798,85.8184965 C88.7578,88.0204965 89.7658,90.1184965 90.0658,91.7584965 L71.9098,91.7584965 L71.9098,79.7494965 Z M38.6208,73.6744965 L39.9128,69.4154965 L70.0928,78.5944965 C70.0408,78.9654965 70.0098,79.3494965 70.0098,79.7494965 L70.0098,83.2324965 L38.6208,73.6744965 Z M66.8738,44.5954965 L67.4778,43.2164965 C67.6768,43.2404965 67.8768,43.2594965 68.0798,43.2594965 C70.9868,43.2594965 73.3508,40.8954965 73.3508,37.9894965 C73.3508,36.4274965 72.6718,34.9874965 71.5128,33.9934965 L72.2488,32.3104965 C81.2368,36.2464965 93.0498,48.4764965 93.0498,62.4694965 C93.0498,70.5684965 90.2768,78.2074965 87.7768,83.4504965 C85.2808,80.3044965 82.2338,77.6594965 79.2998,76.0874965 C80.6068,73.1824965 81.9898,68.9344965 81.9898,63.9094965 C81.9898,54.9324965 75.1838,46.3964965 66.8738,44.5954965 L66.8738,44.5954965 Z M55.4998,45.0384965 C55.0178,44.8274965 54.4588,45.0484965 54.2488,45.5294965 C54.0388,46.0094965 54.2588,46.5704965 54.7398,46.7804965 L65.6188,51.5374965 L63.2708,56.8994965 L41.9718,47.5804965 L44.3198,42.2194965 L48.5338,44.0584965 C48.6578,44.1124965 48.7848,44.1364965 48.9108,44.1374965 C48.9118,44.1374965 48.9128,44.1374965 48.9128,44.1374965 C49.0208,44.1374965 49.1248,44.1144965 49.2248,44.0794965 C49.2578,44.0674965 49.2878,44.0514965 49.3208,44.0354965 C49.3898,44.0024965 49.4528,43.9614965 49.5128,43.9124965 C49.5398,43.8904965 49.5678,43.8694965 49.5928,43.8434965 C49.6678,43.7654965 49.7348,43.6774965 49.7818,43.5724965 C49.7828,43.5704965 49.7838,43.5694965 49.7848,43.5674965 C49.7858,43.5664965 49.7858,43.5654965 49.7858,43.5654965 L58.0938,24.5744965 C58.2978,24.1044965 58.6748,23.7424965 59.1538,23.5544965 C59.6368,23.3664965 60.1578,23.3774965 60.6308,23.5824965 L69.5968,27.5104965 C69.5978,27.5114965 69.5988,27.5124965 69.5998,27.5124965 C69.6008,27.5134965 69.6018,27.5134965 69.6038,27.5134965 L70.0678,27.7164965 C70.5348,27.9184965 70.9038,28.2974965 71.0948,28.7644965 C71.2808,29.2564965 71.2718,29.7924965 71.0688,30.2664965 L69.8578,33.0354965 C69.2938,32.8344965 68.6958,32.7184965 68.0798,32.7184965 C65.1738,32.7184965 62.8098,35.0834965 62.8098,37.9894965 C62.8098,39.9874965 63.9418,41.7694965 65.6518,42.6484965 L64.6998,44.8194965 C64.6968,44.8254965 64.6958,44.8324965 64.6918,44.8374965 L63.1388,48.3804965 L55.4998,45.0384965 Z M57.3768,64.2144965 L53.4228,63.2254965 L55.5908,55.6124965 L59.6478,57.3874965 L57.3768,64.2144965 Z M44.6608,59.7774965 L40.6038,57.7494965 L44.5778,50.7944965 L48.7468,52.6184965 L44.6608,59.7774965 Z M65.6898,16.1994965 L72.2578,19.0684965 L69.4918,25.3904965 L62.9228,22.5114965 L65.6898,16.1994965 Z M67.1938,41.2284965 C67.1828,41.2254965 67.1708,41.2214965 67.1588,41.2184965 C65.7168,40.8334965 64.7098,39.5044965 64.7098,37.9894965 C64.7098,36.1304965 66.2218,34.6194965 68.0798,34.6194965 C68.7148,34.6194965 69.3228,34.7884965 69.8418,35.1114965 C70.8498,35.7324965 71.4498,36.8084965 71.4498,37.9894965 C71.4498,39.8474965 69.9388,41.3594965 68.0798,41.3594965 C67.7738,41.3594965 67.4758,41.3154965 67.1938,41.2284965 L67.1938,41.2284965 Z M92.0148,91.8754965 C91.7748,89.9734965 90.7368,87.6454965 89.0478,85.1854965 L89.0488,85.1824965 C91.7398,79.7514965 94.9498,71.4014965 94.9498,62.4694965 C94.9498,47.6424965 82.4578,34.6994965 72.9618,30.5504965 C73.1928,29.7434965 73.1718,28.8844965 72.8628,28.0684965 C72.5308,27.2584965 71.9468,26.6134965 71.2148,26.1904965 L74.3788,18.9594965 C74.4808,18.7274965 74.4858,18.4664965 74.3938,18.2314965 C74.3018,17.9974965 74.1198,17.8084965 73.8888,17.7084965 L65.5798,14.0794965 C65.1078,13.8704965 64.5418,14.0874965 64.3298,14.5674965 L61.1728,21.7704965 C59.2858,21.0784965 57.1638,21.9534965 56.3528,23.8134965 L48.4248,41.9374965 L44.2098,40.0984965 C43.7308,39.8914965 43.1708,40.1084965 42.9598,40.5884965 L39.8498,47.6884965 C39.7478,47.9194965 39.7428,48.1804965 39.8348,48.4154965 C39.9268,48.6504965 40.1088,48.8384965 40.3388,48.9394965 L42.8258,50.0274965 L38.4548,57.6774965 C38.3258,57.9054965 38.2948,58.1744965 38.3708,58.4244965 C38.4458,58.6744965 38.6218,58.8824965 38.8558,58.9994965 L44.6148,61.8784965 C44.7508,61.9474965 44.8968,61.9794965 45.0388,61.9794965 C45.3698,61.9794965 45.6908,61.8054965 45.8648,61.5004965 L50.4978,53.3844965 L53.8338,54.8444965 L51.3258,63.6494965 C51.2558,63.8964965 51.2888,64.1624965 51.4178,64.3844965 C51.5468,64.6074965 51.7598,64.7684965 52.0098,64.8314965 L57.7698,66.2714965 C57.8468,66.2914965 57.9238,66.2994965 57.9998,66.2994965 C58.4008,66.2994965 58.7698,66.0454965 58.9018,65.6494965 L61.3958,58.1524965 L63.3798,59.0204965 C63.5038,59.0744965 63.6328,59.0994965 63.7588,59.0994965 C64.1248,59.0994965 64.4738,58.8864965 64.6298,58.5304965 L67.7398,51.4304965 C67.9498,50.9514965 67.7328,50.3914965 67.2528,50.1804965 L64.8798,49.1424965 L66.0918,46.3784965 C73.7478,47.8034965 80.0898,55.6454965 80.0898,63.9094965 C80.0898,68.5884965 78.8018,72.5584965 77.5798,75.2804965 C76.2558,74.7574965 74.9988,74.4794965 73.8398,74.4794965 C72.4848,74.4794965 71.2968,75.3574965 70.6238,76.7694965 L39.5568,67.3204965 C39.0508,67.1694965 38.5238,67.4514965 38.3708,67.9534965 C38.3708,67.9534965 38.3708,67.9544965 38.3708,67.9544965 L36.5278,74.0294965 C36.5278,74.0294965 36.5278,74.0294965 36.5278,74.0304965 C36.4888,74.1554965 36.4788,74.2834965 36.4918,74.4064965 C36.5228,74.7004965 36.7018,74.9544965 36.9618,75.1084965 C37.0258,75.1474965 37.0848,75.1924965 37.1598,75.2154965 L70.0098,85.2194965 L70.0098,85.9994965 L39.2798,85.9994965 C38.7558,85.9994965 38.3298,86.4244965 38.3298,86.9494965 C38.3298,87.4734965 38.7558,87.8994965 39.2798,87.8994965 L70.0098,87.8994965 L70.0098,91.7584965 L33.5198,91.7584965 C31.4078,91.7584965 29.6898,93.4774965 29.6898,95.5894965 L29.6898,101.349496 C29.6898,101.874496 30.1148,102.299496 30.6398,102.299496 L93.9998,102.299496 C94.5248,102.299496 94.9498,101.874496 94.9498,101.349496 L94.9498,95.5894965 C94.9498,93.7874965 93.6948,92.2814965 92.0148,91.8754965 L92.0148,91.8754965 Z" id="Fill-21" fill="#343852"></path>
    </g>
</svg>