<?xml version="1.0" encoding="UTF-8"?>
<svg width="120px" height="120px" viewBox="0 0 120 120" version="1.1" xmlns="http://www.w3.org/2000/svg" xmlns:xlink="http://www.w3.org/1999/xlink">
    <title>02.Icons/Illustrative/Cible Centre de radiologie</title>
    <g id="02.Icons/Illustrative/Cible-Centre-de-radiologie" stroke="none" stroke-width="1" fill="none" fill-rule="evenodd">
        <path d="M41.5009,77.9997 L41.4989,77.9997 C24.6549,77.9997 10.9999,64.5657 10.9999,47.9937 L10.9999,14.1297 L10.9999,12.9997 C13.3849,15.6117 18.1729,17.8357 27.8919,17.9867 L41.5009,17.9867 C58.3449,17.9867 71.9999,31.4207 71.9999,47.9937 C71.9999,64.5657 58.3449,77.9997 41.5009,77.9997" id="Fill-1" fill="#F2F3F7"></path>
        <path d="M93.0929,33.8081 L29.3609,33.8081 C27.1629,33.8081 25.3639,35.6061 25.3639,37.8041 L25.3639,92.1461 C25.3639,94.3451 27.1629,96.1431 29.3609,96.1431 L93.0929,96.1431 C95.2909,96.1431 97.0889,94.3451 97.0889,92.1461 L97.0889,37.8041 C97.0889,35.6061 95.2909,33.8081 93.0929,33.8081" id="Fill-4" fill="#EDEEF3"></path>
        <path d="M61.2372,24.3954 C57.5052,24.3954 54.3872,26.9924 53.5722,30.4754 L50.2912,30.4754 C49.4342,30.4754 48.7342,31.1764 48.7342,32.0324 L48.7342,38.5964 C48.7342,39.4524 49.4342,40.1534 50.2912,40.1534 L72.0982,40.1534 C72.9542,40.1534 73.6552,39.4524 73.6552,38.5964 L73.6552,32.0324 C73.6552,31.1764 72.9542,30.4754 72.0982,30.4754 L68.9012,30.4754 C68.0872,26.9924 64.9692,24.3954 61.2372,24.3954" id="Fill-7" fill="#1D71B8"></path>
        <path d="M63.0641,32.3843 C63.0641,33.4173 62.2271,34.2543 61.1941,34.2543 C60.1621,34.2543 59.3241,33.4173 59.3241,32.3843 C59.3241,31.3513 60.1621,30.5143 61.1941,30.5143 C62.2271,30.5143 63.0641,31.3513 63.0641,32.3843" id="Fill-9" fill="#FFFFFF"></path>
        <path d="M95.0894,92.1465 C95.0894,93.2475 94.1934,94.1435 93.0934,94.1435 L29.3604,94.1435 C28.2594,94.1435 27.3644,93.2475 27.3644,92.1465 L27.3644,37.8045 C27.3644,36.7035 28.2594,35.8085 29.3604,35.8085 L48.7514,35.8085 L48.7514,38.5965 C48.7514,39.4525 49.4514,40.1525 50.3074,40.1525 L72.1154,40.1525 C72.9714,40.1525 73.6714,39.4525 73.6714,38.5965 L73.6714,35.8085 L93.0934,35.8085 C94.1934,35.8085 95.0894,36.7035 95.0894,37.8045 L95.0894,92.1465 Z M50.7514,32.4755 L53.5894,32.4755 L55.1754,32.4755 L55.5374,30.9315 C56.1614,28.2605 58.5124,26.3955 61.2544,26.3955 C63.9954,26.3955 66.3464,28.2605 66.9714,30.9315 L67.3324,32.4755 L68.9184,32.4755 L71.6714,32.4755 L71.6714,38.1525 L50.7514,38.1525 L50.7514,32.4755 Z M93.0934,33.8085 L73.6714,33.8085 L73.6714,32.0325 C73.6714,31.1765 72.9714,30.4755 72.1154,30.4755 L68.9184,30.4755 C68.1044,26.9925 64.9854,24.3955 61.2544,24.3955 C57.5224,24.3955 54.4044,26.9925 53.5894,30.4755 L50.3074,30.4755 C49.4514,30.4755 48.7514,31.1765 48.7514,32.0325 L48.7514,33.8085 L29.3604,33.8085 C27.1624,33.8085 25.3644,35.6065 25.3644,37.8045 L25.3644,92.1465 C25.3644,94.3445 27.1624,96.1435 29.3604,96.1435 L93.0934,96.1435 C95.2914,96.1435 97.0894,94.3445 97.0894,92.1465 L97.0894,37.8045 C97.0894,35.6065 95.2914,33.8085 93.0934,33.8085 L93.0934,33.8085 Z" id="Fill-11" fill="#343852"></path>
        <path d="M72.7633,89.6188 L68.2443,89.6188 C67.9773,89.6188 67.7223,89.5068 67.5413,89.3108 C67.3603,89.1148 67.2693,88.8518 67.2903,88.5858 C67.3233,88.1658 68.0713,78.8208 68.2283,76.9888 C67.5623,76.5318 65.0853,76.0318 63.8553,75.7838 C61.7143,75.3518 61.1413,75.2168 60.8143,74.6978 C60.2803,73.8488 60.3613,71.2748 61.3173,70.4918 C61.7013,70.1778 62.2583,70.1358 63.6043,70.0328 C65.0523,69.9228 68.4433,69.6648 68.9583,68.7408 C69.4363,67.8828 69.8543,66.4018 70.1913,65.2118 C70.4453,64.3118 70.6463,63.6008 70.8583,63.1718 C71.2743,62.3288 74.0643,58.7578 76.1203,58.7578 C76.9153,58.7578 77.4533,59.4458 77.6303,59.6718 C79.1833,61.6558 80.9733,67.5708 80.4053,69.8608 C80.0113,71.4518 78.9893,72.8078 77.9073,74.2448 C77.2003,75.1828 76.4693,76.1538 75.8893,77.2298 C74.0953,80.5528 73.7233,88.6228 73.7193,88.7028 C73.6973,89.2158 73.2753,89.6188 72.7633,89.6188 L72.7633,89.6188 Z M63.7263,89.6958 L60.1293,89.6958 C59.9233,89.6958 59.7263,89.5958 59.5843,89.4178 C59.4423,89.2398 59.3683,88.9998 59.3773,88.7548 C59.9373,74.8618 60.2713,74.5518 60.5943,74.2518 C61.4823,73.4308 64.5853,74.8858 64.6143,74.9018 C64.9513,75.0888 65.1233,75.5408 65.0203,75.9668 C64.8803,76.6598 64.6353,83.1118 64.4783,88.8268 C64.4643,89.3118 64.1323,89.6958 63.7263,89.6958 L63.7263,89.6958 Z M62.1123,66.9198 C60.2053,66.9198 58.7973,65.0888 58.4323,64.7528 C58.0743,64.4238 57.6943,63.7668 57.0553,62.6328 C56.5373,61.7158 55.0613,60.1638 54.6393,59.9108 L34.4253,52.1718 L34.4263,43.7338 L35.7383,44.2818 C43.6813,47.5938 56.0963,52.6348 57.7443,52.9468 C58.9383,53.1718 60.8793,53.1538 62.5903,53.1358 C64.1533,53.1188 65.5023,53.1068 66.3513,53.2578 C68.5513,53.6478 70.6323,56.2558 70.6323,57.3698 C70.6323,57.8748 70.2673,60.4518 69.2303,61.0828 C69.0833,61.1728 68.8263,61.2988 68.5213,61.4448 C68.1073,61.6438 67.1363,62.1088 66.9423,62.3538 C66.8983,62.4778 66.8453,63.1068 66.8093,63.5228 C66.7253,64.5138 66.6453,65.4508 66.2393,66.0488 C65.5023,67.1358 63.6063,66.9198 62.1123,66.9198 L62.1123,66.9198 Z M83.1713,57.8128 C82.6423,57.8128 82.2253,57.9368 82.0613,58.2238 C81.4613,59.2738 82.2943,66.1398 84.3493,66.1398 C84.3743,66.1398 84.3983,66.1388 84.4233,66.1368 C86.5333,65.9688 87.5283,61.2948 87.1403,59.8098 C86.8573,58.7258 84.6033,57.8128 83.1713,57.8128 L83.1713,57.8128 Z" id="Fill-14" fill="#FFFFFF"></path>
        <path d="M77.95,59.0204 C77.765,58.7854 77.203,58.0664 76.372,58.0664 C74.221,58.0664 71.308,61.7984 70.875,62.6774 C70.653,63.1264 70.442,63.8714 70.177,64.8124 C69.825,66.0544 69.387,67.6004 68.888,68.4974 C68.351,69.4624 64.808,69.7324 63.296,69.8464 C61.889,69.9544 61.307,69.9984 60.907,70.3254 C60.123,70.9664 59.907,72.7494 60.118,73.9214 C59.821,74.8714 59.482,77.9394 58.997,89.5374 C58.973,90.0884 59.402,90.5544 59.954,90.5784 C59.969,90.5794 59.982,90.5794 59.997,90.5794 C60.53,90.5794 60.972,90.1584 60.995,89.6214 C61.229,84.0324 61.575,77.8264 61.834,75.4834 C62.266,75.5904 62.815,75.7044 63.556,75.8544 C63.605,75.8644 63.667,75.8774 63.719,75.8874 C63.477,78.9134 63.235,86.8484 63.157,89.5504 C63.141,90.1024 63.576,90.5624 64.129,90.5794 C64.686,90.5784 65.14,90.1604 65.157,89.6074 C65.278,85.3764 65.506,78.8804 65.685,76.3124 C66.719,76.5574 67.731,76.8424 68.127,77.1144 C67.963,79.0284 67.181,88.7914 67.146,89.2304 C67.102,89.7814 67.513,90.2634 68.063,90.3074 C68.091,90.3094 68.118,90.3104 68.144,90.3104 C68.661,90.3104 69.098,89.9144 69.14,89.3904 C69.149,89.2764 70.049,78.0274 70.14,77.0474 C70.315,75.1774 67.366,74.5834 63.952,73.8934 C63.278,73.7574 62.473,73.5954 62.05,73.4754 C62.002,73.0554 62.064,72.3274 62.181,71.9554 C62.487,71.9144 63.009,71.8744 63.447,71.8404 C66.677,71.5954 69.656,71.2294 70.637,69.4694 C71.249,68.3704 71.721,66.6994 72.101,65.3564 C72.31,64.6154 72.527,63.8484 72.669,63.5634 C73.13,62.6264 75.358,60.3214 76.241,60.0854 C77.277,61.0144 79.414,67.1484 78.908,69.1864 C78.595,70.4524 77.69,71.6534 76.642,73.0434 C75.859,74.0834 75.049,75.1594 74.371,76.4164 C72.279,80.2914 71.882,88.9024 71.866,89.2664 C71.842,89.8184 72.269,90.2854 72.821,90.3094 C73.41,90.3714 73.841,89.9054 73.864,89.3544 C73.868,89.2694 74.257,80.8374 76.131,77.3654 C76.737,76.2424 77.501,75.2274 78.24,74.2474 C79.37,72.7474 80.438,71.3294 80.849,69.6664 C81.442,67.2744 79.573,61.0944 77.95,59.0204 L77.95,59.0204 Z M82.888,56.9544 C82.25,56.9544 81.747,57.1044 81.549,57.4504 C80.826,58.7174 81.83,66.9984 84.308,66.9984 C84.338,66.9984 84.368,66.9974 84.398,66.9944 C86.942,66.7914 88.143,61.1544 87.675,59.3634 C87.333,58.0554 84.615,56.9544 82.888,56.9544 L82.888,56.9544 Z M83.306,58.9844 C84.279,59.1134 85.433,59.6354 85.766,59.9884 C85.987,61.2174 85.162,63.8814 84.476,64.7534 C83.812,63.5764 83.295,60.5644 83.306,58.9844 L83.306,58.9844 Z M62.642,68.3874 C60.627,68.3874 58.603,66.6184 58.218,66.2644 C57.84,65.9164 57.44,65.2234 56.765,64.0274 C56.264,63.1384 55.365,61.5464 54.876,61.0854 C54.802,61.0154 54.708,60.9724 54.613,60.9364 L34.068,53.0764 C33.553,52.8784 33.295,52.3004 33.492,51.7854 L33.492,51.7854 C33.69,51.2694 34.268,51.0114 34.783,51.2094 L55.504,59.1384 C56.453,59.5014 57.272,60.8564 58.507,63.0444 C58.879,63.7034 59.389,64.6084 59.575,64.7954 C60.407,65.5604 61.724,66.3874 62.642,66.3874 C63.586,66.3874 64.468,66.1104 64.966,65.8224 C65.222,65.6744 65.398,65.4284 65.452,65.1364 C65.526,64.7404 65.575,64.1644 65.606,63.8044 C65.69,62.8164 65.754,62.1874 66.016,61.7274 C66.406,61.0404 67.348,60.5494 68.539,59.9794 C68.739,59.8834 68.913,59.8014 69.035,59.7364 C69.243,59.4184 69.537,58.3904 69.614,57.7534 C69.636,57.5704 69.617,57.3914 69.541,57.2224 C69.171,56.4074 67.824,54.5204 66.766,54.3324 C66.054,54.2064 64.651,54.2194 63.164,54.2354 C61.176,54.2524 59.115,54.2754 57.661,54.0004 C55.157,53.5284 36.195,45.6354 34.041,44.7374 C33.532,44.5244 33.29,43.9394 33.503,43.4294 C33.716,42.9184 34.303,42.6784 34.811,42.8914 C43.193,46.3874 56.293,51.7074 58.032,52.0354 C59.292,52.2734 61.342,52.2534 63.145,52.2354 C64.798,52.2174 66.219,52.2044 67.115,52.3644 C69.436,52.7754 71.633,56.3064 71.633,57.4824 C71.633,58.0144 71.247,60.7324 70.154,61.3994 C69.997,61.4944 69.726,61.6274 69.404,61.7814 C69.103,61.9264 68.527,62.2024 68.129,62.4454 C67.867,62.6044 67.704,62.8804 67.671,63.1844 C67.644,63.4334 67.619,63.7364 67.598,63.9734 C67.509,65.0204 67.425,66.0084 66.997,66.6404 C66.219,67.7864 64.217,68.3874 62.642,68.3874 L62.642,68.3874 Z" id="Fill-16" fill="#343852"></path>
    </g>
</svg>