<?xml version="1.0" encoding="UTF-8"?>
<svg width="120px" height="120px" viewBox="0 0 120 120" version="1.1" xmlns="http://www.w3.org/2000/svg" xmlns:xlink="http://www.w3.org/1999/xlink">
    <title>02.Icons/Illustrative/Cible Industriel</title>
    <g id="02.Icons/Illustrative/Cible-Industriel" stroke="none" stroke-width="1" fill="none" fill-rule="evenodd">
        <path d="M59.9397,101.221 L59.9417,101.221 C81.7937,101.221 99.5067,83.794 99.5067,62.296 L99.5067,18.366 L99.5067,16.901 C96.4137,20.289 90.2017,23.174 77.5937,23.37 L59.9397,23.37 C38.0887,23.37 20.3747,40.797 20.3747,62.296 C20.3747,83.794 38.0887,101.221 59.9397,101.221" id="Fill-1" fill="#F2F3F7"></path>
        <path d="M39.6048,42.0992 C39.6048,47.7942 34.9878,52.4112 29.2928,52.4112 C23.5978,52.4112 18.9808,47.7942 18.9808,42.0992 C18.9808,36.4042 23.5978,31.7872 29.2928,31.7872 C34.9878,31.7872 39.6048,36.4042 39.6048,42.0992" id="Fill-3" fill="#FFFFFF"></path>
        <path d="M67.8252,27.3305 C67.8252,30.1365 65.5502,32.4115 62.7442,32.4115 C59.9382,32.4115 57.6642,30.1365 57.6642,27.3305 C57.6642,24.5245 59.9382,22.2495 62.7442,22.2495 C65.5502,22.2495 67.8252,24.5245 67.8252,27.3305" id="Fill-5" fill="#FFFFFF"></path>
        <path d="M39.6048,42.0992 C39.6048,36.4092 34.9808,31.7872 29.2928,31.7872 C23.6048,31.7872 18.9808,36.4092 18.9808,42.0992 C18.9808,47.7892 23.6048,52.4112 29.2928,52.4112 C34.9808,52.4112 39.6048,47.7892 39.6048,42.0992 M37.8858,27.2322 C37.9378,27.2492 37.9718,27.2672 38.0238,27.3022 L43.2658,24.4832 L46.9088,28.1272 L44.0908,33.3682 C44.8988,34.7262 45.5348,36.2212 45.9288,37.8022 L51.6358,39.5212 L51.6358,44.6772 L45.9288,46.3962 C45.5348,47.9772 44.8988,49.4722 44.0908,50.8302 L46.9088,56.0712 L43.2658,59.7152 L38.0238,56.8962 C36.6658,57.7042 35.1708,58.3412 33.5898,58.7352 L31.8708,64.4412 L26.7148,64.4412 L24.9958,58.7352 C23.4148,58.3412 21.9198,57.7042 20.5618,56.8962 L15.3208,59.7152 L11.6768,56.0712 L14.4948,50.8302 C13.6878,49.4722 13.0508,47.9772 12.6568,46.3962 L6.9508,44.6772 L6.9508,39.5212 L12.6568,37.8022 C12.7258,37.5102 12.8108,37.2182 12.9138,36.9432 C13.2928,35.6712 13.8418,34.4692 14.4948,33.3682 L11.6768,28.1272 L15.3208,24.4832 L20.5618,27.3022 C21.9198,26.4942 23.4148,25.8572 24.9958,25.4632 L26.7148,19.7572 L31.8708,19.7572 L33.5898,25.4632 C35.1188,25.8412 36.5638,26.4602 37.8858,27.2322" id="Fill-7" fill="#1D71B8"></path>
        <path d="M27.4206,63.4918 L31.1646,63.4918 L32.6806,58.4608 C32.7766,58.1408 33.0356,57.8948 33.3596,57.8138 C34.8056,57.4528 36.2106,56.8688 37.5376,56.0788 C37.8236,55.9088 38.1786,55.9008 38.4736,56.0588 L43.0936,58.5438 L45.7386,55.8998 L43.2536,51.2808 C43.0956,50.9868 43.1036,50.6308 43.2746,50.3448 C44.0636,49.0178 44.6466,47.6118 45.0066,46.1648 C45.0876,45.8408 45.3336,45.5818 45.6546,45.4868 L50.6856,43.9708 L50.6856,40.2278 L45.6546,38.7118 C45.3336,38.6168 45.0876,38.3578 45.0066,38.0338 C44.6456,36.5848 44.0626,35.1788 43.2746,33.8538 C43.1036,33.5678 43.0956,33.2118 43.2536,32.9178 L45.7386,28.2988 L43.0936,25.6548 L38.4736,28.1398 C38.1746,28.2998 37.8116,28.2898 37.5246,28.1108 C37.4836,28.0938 37.4446,28.0758 37.4066,28.0528 C36.0916,27.2848 34.7316,26.7238 33.3616,26.3848 C33.0366,26.3048 32.7776,26.0588 32.6806,25.7378 L31.1646,20.7068 L27.4206,20.7068 L25.9056,25.7378 C25.8096,26.0578 25.5506,26.3038 25.2266,26.3848 C23.7776,26.7458 22.3716,27.3288 21.0486,28.1178 C20.7636,28.2898 20.4076,28.2978 20.1126,28.1398 L15.4926,25.6548 L12.8476,28.2988 L15.3316,32.9178 C15.4896,33.2118 15.4826,33.5668 15.3126,33.8538 C14.6636,34.9448 14.1636,36.0758 13.8246,37.2148 C13.8186,37.2348 13.8116,37.2548 13.8046,37.2748 C13.7156,37.5138 13.6416,37.7668 13.5816,38.0198 C13.5046,38.3508 13.2566,38.6148 12.9316,38.7118 L7.9006,40.2278 L7.9006,43.9708 L12.9316,45.4868 C13.2516,45.5818 13.4976,45.8408 13.5786,46.1648 C13.9396,47.6118 14.5226,49.0178 15.3116,50.3448 C15.4826,50.6308 15.4906,50.9868 15.3316,51.2808 L12.8476,55.8998 L15.4926,58.5438 L20.1126,56.0588 C20.4066,55.9018 20.7616,55.9098 21.0486,56.0788 C22.3746,56.8688 23.7806,57.4528 25.2266,57.8138 C25.5506,57.8948 25.8096,58.1408 25.9056,58.4608 L27.4206,63.4918 Z M31.8706,65.3918 L26.7146,65.3918 C26.2956,65.3918 25.9256,65.1178 25.8056,64.7158 L24.2396,59.5168 C22.9686,59.1558 21.7306,58.6408 20.5466,57.9828 L15.7706,60.5518 C15.4026,60.7498 14.9446,60.6828 14.6486,60.3868 L11.0046,56.7428 C10.7086,56.4468 10.6416,55.9908 10.8396,55.6208 L13.4086,50.8458 C12.7506,49.6608 12.2376,48.4228 11.8756,47.1528 L6.6756,45.5858 C6.2746,45.4658 5.9996,45.0958 5.9996,44.6768 L5.9996,39.5218 C5.9996,39.1028 6.2746,38.7328 6.6756,38.6128 L11.8776,37.0448 C11.9186,36.9098 11.9636,36.7748 12.0126,36.6428 C12.3466,35.5288 12.8156,34.4238 13.4086,33.3538 L10.8396,28.5768 C10.6416,28.2078 10.7076,27.7518 11.0046,27.4548 L14.6486,23.8108 C14.9446,23.5138 15.4026,23.4478 15.7706,23.6458 L20.5466,26.2158 C21.7286,25.5578 22.9666,25.0438 24.2396,24.6818 L25.8056,19.4828 C25.9256,19.0808 26.2956,18.8068 26.7146,18.8068 L31.8706,18.8068 C32.2896,18.8068 32.6606,19.0808 32.7806,19.4828 L34.3466,24.6818 C35.5956,25.0358 36.8296,25.5528 38.0296,26.2208 L42.8156,23.6458 C43.1836,23.4478 43.6406,23.5138 43.9376,23.8108 L47.5806,27.4548 C47.8776,27.7518 47.9446,28.2078 47.7456,28.5768 L45.1776,33.3528 C45.8346,34.5358 46.3486,35.7748 46.7096,37.0458 L51.9106,38.6128 C52.3116,38.7328 52.5856,39.1028 52.5856,39.5218 L52.5856,44.6768 C52.5856,45.0958 52.3116,45.4658 51.9106,45.5858 L46.7096,47.1528 C46.3486,48.4228 45.8346,49.6608 45.1776,50.8458 L47.7456,55.6208 C47.9446,55.9908 47.8766,56.4468 47.5806,56.7428 L43.9376,60.3868 C43.6406,60.6828 43.1836,60.7498 42.8156,60.5518 L38.0386,57.9828 C36.8556,58.6408 35.6176,59.1558 34.3466,59.5168 L32.7806,64.7158 C32.6606,65.1178 32.2896,65.3918 31.8706,65.3918 L31.8706,65.3918 Z M29.2926,32.7378 C24.1306,32.7378 19.9316,36.9368 19.9316,42.0988 C19.9316,47.2608 24.1306,51.4608 29.2926,51.4608 C34.4546,51.4608 38.6546,47.2608 38.6546,42.0988 C38.6546,36.9368 34.4546,32.7378 29.2926,32.7378 L29.2926,32.7378 Z M29.2926,53.3618 C23.0826,53.3618 18.0316,48.3088 18.0316,42.0988 C18.0316,35.8888 23.0826,30.8368 29.2926,30.8368 C35.5026,30.8368 40.5546,35.8888 40.5546,42.0988 C40.5546,48.3088 35.5026,53.3618 29.2926,53.3618 L29.2926,53.3618 Z" id="Fill-9" fill="#343852"></path>
        <path d="M68.1807,27.3435 C68.1807,24.4425 65.8227,22.0855 62.9227,22.0855 C60.0217,22.0855 57.6637,24.4425 57.6637,27.3435 C57.6637,30.2445 60.0217,32.6015 62.9227,32.6015 C65.8227,32.6015 68.1807,30.2445 68.1807,27.3435 M67.3047,19.7625 C67.3307,19.7705 67.3477,19.7805 67.3747,19.7985 L70.0477,18.3605 L71.9057,20.2185 L70.4687,22.8915 C70.8797,23.5835 71.2047,24.3465 71.4057,25.1525 L74.3157,26.0285 L74.3157,28.6585 L71.4057,29.5345 C71.2047,30.3405 70.8797,31.1035 70.4687,31.7955 L71.9057,34.4685 L70.0477,36.3265 L67.3747,34.8885 C66.6817,35.3015 65.9197,35.6255 65.1137,35.8265 L64.2367,38.7365 L61.6077,38.7365 L60.7317,35.8265 C59.9247,35.6255 59.1627,35.3015 58.4707,34.8885 L55.7977,36.3265 L53.9397,34.4685 L55.3767,31.7955 C54.9647,31.1035 54.6407,30.3405 54.4387,29.5345 L51.5297,28.6585 L51.5297,26.0285 L54.4387,25.1525 C54.4747,25.0035 54.5177,24.8545 54.5697,24.7145 C54.7637,24.0655 55.0437,23.4525 55.3767,22.8915 L53.9397,20.2185 L55.7977,18.3605 L58.4707,19.7985 C59.1627,19.3855 59.9247,19.0615 60.7317,18.8605 L61.6077,15.9505 L64.2367,15.9505 L65.1137,18.8605 C65.8927,19.0525 66.6297,19.3685 67.3047,19.7625" id="Fill-12" fill="#969CBB"></path>
        <path d="M62.3133,37.786 L63.5313,37.786 L64.2033,35.553 C64.2993,35.232 64.5583,34.985 64.8833,34.904 C65.5773,34.732 66.2523,34.451 66.8883,34.072 C67.1753,33.902 67.5303,33.894 67.8253,34.052 L69.8753,35.155 L70.7343,34.296 L69.6323,32.246 C69.4743,31.952 69.4813,31.598 69.6523,31.311 C70.0313,30.673 70.3103,29.998 70.4833,29.305 C70.5643,28.98 70.8103,28.721 71.1323,28.624 L73.3653,27.952 L73.3653,26.735 L71.1323,26.063 C70.8103,25.966 70.5643,25.707 70.4833,25.382 C70.3103,24.691 70.0313,24.016 69.6523,23.377 C69.4813,23.09 69.4743,22.735 69.6323,22.442 L70.7343,20.391 L69.8753,19.531 L67.8253,20.635 C67.5403,20.787 67.1963,20.785 66.9153,20.629 C66.8843,20.615 66.8543,20.6 66.8253,20.583 C66.1943,20.214 65.5413,19.944 64.8853,19.782 C64.5593,19.702 64.3003,19.456 64.2033,19.134 L63.5313,16.901 L62.3133,16.901 L61.6413,19.134 C61.5453,19.455 61.2863,19.701 60.9613,19.782 C60.2683,19.955 59.5933,20.235 58.9573,20.614 C58.6683,20.785 58.3133,20.791 58.0203,20.635 L55.9693,19.531 L55.1103,20.391 L56.2133,22.442 C56.3703,22.735 56.3633,23.09 56.1933,23.376 C55.8823,23.9 55.6423,24.442 55.4803,24.985 C55.4743,25.006 55.4673,25.027 55.4603,25.048 C55.4213,25.151 55.3893,25.262 55.3643,25.371 C55.2863,25.701 55.0383,25.964 54.7133,26.063 L52.4793,26.735 L52.4793,27.952 L54.7133,28.624 C55.0343,28.721 55.2803,28.98 55.3613,29.305 C55.5343,29.998 55.8133,30.673 56.1923,31.311 C56.3633,31.598 56.3703,31.952 56.2133,32.246 L55.1103,34.296 L55.9693,35.155 L58.0203,34.052 C58.3133,33.895 58.6683,33.902 58.9573,34.072 C59.5933,34.451 60.2683,34.732 60.9613,34.904 C61.2863,34.985 61.5453,35.232 61.6413,35.553 L62.3133,37.786 Z M64.2373,39.687 L61.6073,39.687 C61.1883,39.687 60.8183,39.411 60.6973,39.01 L59.9713,36.599 C59.4563,36.436 58.9513,36.227 58.4633,35.972 L56.2483,37.163 C55.8793,37.361 55.4233,37.295 55.1263,36.998 L53.2673,35.141 C52.9713,34.844 52.9043,34.389 53.1023,34.019 L54.2933,31.804 C54.0393,31.315 53.8303,30.81 53.6673,30.294 L51.2563,29.568 C50.8543,29.447 50.5793,29.077 50.5793,28.658 L50.5793,26.028 C50.5793,25.61 50.8543,25.239 51.2563,25.118 L53.6753,24.39 C53.8313,23.881 54.0383,23.376 54.2943,22.885 L53.1023,20.669 C52.9043,20.299 52.9713,19.844 53.2673,19.547 L55.1263,17.689 C55.4233,17.393 55.8793,17.325 56.2483,17.524 L58.4633,18.715 C58.9513,18.46 59.4563,18.251 59.9713,18.088 L60.6973,15.677 C60.8183,15.276 61.1883,15 61.6073,15 L64.2373,15 C64.6563,15 65.0263,15.276 65.1473,15.677 L65.8733,18.088 C66.3823,18.249 66.8853,18.46 67.3783,18.718 L69.5963,17.524 C69.9653,17.325 70.4223,17.393 70.7183,17.689 L72.5773,19.547 C72.8733,19.844 72.9403,20.299 72.7423,20.669 L71.5513,22.884 C71.8053,23.373 72.0153,23.877 72.1773,24.393 L74.5893,25.118 C74.9903,25.239 75.2653,25.61 75.2653,26.028 L75.2653,28.658 C75.2653,29.077 74.9903,29.447 74.5893,29.568 L72.1773,30.294 C72.0143,30.81 71.8053,31.315 71.5513,31.804 L72.7423,34.019 C72.9403,34.389 72.8733,34.844 72.5773,35.141 L70.7183,36.998 C70.4223,37.295 69.9653,37.361 69.5963,37.163 L67.3833,35.972 C66.8943,36.227 66.3893,36.436 65.8733,36.599 L65.1473,39.01 C65.0263,39.411 64.6563,39.687 64.2373,39.687 L64.2373,39.687 Z M62.9233,23.035 C60.5473,23.035 58.6143,24.968 58.6143,27.344 C58.6143,29.719 60.5473,31.651 62.9233,31.651 C65.2983,31.651 67.2303,29.719 67.2303,27.344 C67.2303,24.968 65.2983,23.035 62.9233,23.035 L62.9233,23.035 Z M62.9233,33.552 C59.4993,33.552 56.7143,30.767 56.7143,27.344 C56.7143,23.92 59.4993,21.135 62.9233,21.135 C66.3453,21.135 69.1313,23.92 69.1313,27.344 C69.1313,30.767 66.3453,33.552 62.9233,33.552 L62.9233,33.552 Z" id="Fill-14" fill="#343852"></path>
        <path d="M96.4517,82.5941 L96.4517,87.0651 C96.4517,88.2941 95.4457,89.3001 94.2167,89.3001 L67.3927,89.3001 L58.4517,89.3001 L31.6287,89.3001 C30.3997,89.3001 29.3927,88.2941 29.3927,87.0651 L29.3927,82.5941 L33.8637,82.5941 L96.4517,82.5941 Z" id="Fill-16" fill="#1D71B8"></path>
        <path d="M96.4517,44.5942 L96.4517,82.5942 L33.8637,82.5942 L29.3927,82.5942 L29.3927,44.5942 C29.3927,43.3642 30.3997,42.3592 31.6287,42.3592 L94.2167,42.3592 C95.4457,42.3592 96.4517,43.3642 96.4517,44.5942" id="Fill-18" fill="#FFFFFF"></path>
        <polygon id="Fill-20" fill="#969CBB" points="66.412 89.6726 69.029 96.7886 56.815 96.7886 59.433 89.6726"></polygon>
        <path d="M95.502,81.6437 L30.344,81.6437 L30.344,44.5937 C30.344,43.8847 30.92,43.3087 31.628,43.3087 L94.217,43.3087 C94.926,43.3087 95.502,43.8847 95.502,44.5937 L95.502,81.6437 Z M95.502,87.0647 C95.502,87.7737 94.926,88.3497 94.217,88.3497 L31.628,88.3497 C30.92,88.3497 30.344,87.7737 30.344,87.0647 L30.344,83.5437 L95.502,83.5437 L95.502,87.0647 Z M58.249,95.7887 L60.286,90.2497 L65.559,90.2497 L67.596,95.7887 L58.249,95.7887 Z M94.217,41.4087 L31.628,41.4087 C29.872,41.4087 28.443,42.8367 28.443,44.5937 L28.443,87.0647 C28.443,88.8217 29.872,90.2497 31.628,90.2497 L58.155,90.2497 L56.118,95.7887 L52.453,95.7887 C51.9,95.7887 51.453,96.2357 51.453,96.7887 C51.453,97.3407 51.9,97.7887 52.453,97.7887 L73.392,97.7887 C73.944,97.7887 74.392,97.3407 74.392,96.7887 C74.392,96.2357 73.944,95.7887 73.392,95.7887 L69.727,95.7887 L67.69,90.2497 L94.217,90.2497 C95.974,90.2497 97.402,88.8217 97.402,87.0647 L97.402,44.5937 C97.402,42.8367 95.974,41.4087 94.217,41.4087 L94.217,41.4087 Z" id="Fill-22" fill="#343852"></path>
        <path d="M44.9473,75.172 C44.9473,74.619 44.5003,74.172 43.9473,74.172 L40.0213,74.172 C39.4683,74.172 39.0213,74.619 39.0213,75.172 C39.0213,75.725 39.4683,76.172 40.0213,76.172 L43.9473,76.172 C44.5003,76.172 44.9473,75.725 44.9473,75.172 M44.9473,69.138 C44.9473,68.585 44.5003,68.138 43.9473,68.138 L40.0213,68.138 C39.4683,68.138 39.0213,68.585 39.0213,69.138 C39.0213,69.691 39.4683,70.138 40.0213,70.138 L43.9473,70.138 C44.5003,70.138 44.9473,69.691 44.9473,69.138 M44.9473,63.104 C44.9473,62.551 44.5003,62.104 43.9473,62.104 L40.0213,62.104 C39.4683,62.104 39.0213,62.551 39.0213,63.104 C39.0213,63.656 39.4683,64.104 40.0213,64.104 L43.9473,64.104 C44.5003,64.104 44.9473,63.656 44.9473,63.104 M44.9473,57.069 C44.9473,56.517 44.5003,56.069 43.9473,56.069 L40.0213,56.069 C39.4683,56.069 39.0213,56.517 39.0213,57.069 C39.0213,57.622 39.4683,58.069 40.0213,58.069 L43.9473,58.069 C44.5003,58.069 44.9473,57.622 44.9473,57.069 M43.9473,52.034 L40.0213,52.034 C39.4683,52.034 39.0213,51.587 39.0213,51.034 C39.0213,50.482 39.4683,50.034 40.0213,50.034 L43.9473,50.034 C44.5003,50.034 44.9473,50.482 44.9473,51.034 C44.9473,51.587 44.5003,52.034 43.9473,52.034" id="Fill-24" fill="#343852"></path>
        <path d="M69.8115,75.172 C69.8115,74.619 69.3645,74.172 68.8115,74.172 L53.1075,74.172 C52.5545,74.172 52.1075,74.619 52.1075,75.172 C52.1075,75.725 52.5545,76.172 53.1075,76.172 L68.8115,76.172 C69.3645,76.172 69.8115,75.725 69.8115,75.172 M74.8735,69.138 C74.8735,68.585 74.4255,68.138 73.8735,68.138 L70.1205,68.138 C69.5675,68.138 69.1205,68.585 69.1205,69.138 C69.1205,69.691 69.5675,70.138 70.1205,70.138 L73.8735,70.138 C74.4255,70.138 74.8735,69.691 74.8735,69.138 M64.5775,69.138 C64.5775,68.585 64.1295,68.138 63.5775,68.138 L53.1075,68.138 C52.5545,68.138 52.1075,68.585 52.1075,69.138 C52.1075,69.691 52.5545,70.138 53.1075,70.138 L63.5775,70.138 C64.1295,70.138 64.5775,69.691 64.5775,69.138 M78.9715,63.104 C78.9715,62.551 78.5245,62.104 77.9715,62.104 L64.8855,62.104 C64.3325,62.104 63.8855,62.551 63.8855,63.104 C63.8855,63.656 64.3325,64.104 64.8855,64.104 L77.9715,64.104 C78.5245,64.104 78.9715,63.656 78.9715,63.104 M59.3415,63.104 C59.3415,62.551 58.8945,62.104 58.3415,62.104 L53.1075,62.104 C52.5545,62.104 52.1075,62.551 52.1075,63.104 C52.1075,63.656 52.5545,64.104 53.1075,64.104 L58.3415,64.104 C58.8945,64.104 59.3415,63.656 59.3415,63.104 M67.1945,57.069 C67.1945,56.517 66.7475,56.069 66.1945,56.069 L53.1075,56.069 C52.5545,56.069 52.1075,56.517 52.1075,57.069 C52.1075,57.622 52.5545,58.069 53.1075,58.069 L66.1945,58.069 C66.7475,58.069 67.1945,57.622 67.1945,57.069 M84.5145,52.034 L53.1075,52.034 C52.5545,52.034 52.1075,51.587 52.1075,51.034 C52.1075,50.482 52.5545,50.034 53.1075,50.034 L84.5145,50.034 C85.0675,50.034 85.5145,50.482 85.5145,51.034 C85.5145,51.587 85.0675,52.034 84.5145,52.034" id="Fill-26" fill="#969CBB"></path>
        <path d="M96.4517,78.1347 C96.4517,72.5797 91.9477,68.0757 86.3927,68.0757 C80.8387,68.0757 76.3337,72.5797 76.3337,78.1347 C76.3337,83.6897 80.8387,88.1937 86.3927,88.1937 C91.9477,88.1937 96.4517,83.6897 96.4517,78.1347 L96.4517,78.1347 Z M105.5267,93.6477 C106.1307,94.2507 106.5107,95.0897 106.5107,96.0167 C106.5107,97.8727 105.0127,99.3697 103.1577,99.3697 C102.2297,99.3697 101.3917,98.9897 100.7877,98.3867 L93.3117,90.9087 C91.2547,92.0267 88.8967,92.6637 86.3927,92.6637 C86.0127,92.6637 85.6437,92.6527 85.2757,92.6197 C82.1797,92.3847 79.3627,91.1887 77.1167,89.3107 C73.9087,86.6517 71.8637,82.6267 71.8637,78.1347 C71.8637,70.4897 77.7757,64.2197 85.2757,63.6497 C85.6437,63.6167 86.0127,63.6057 86.3927,63.6057 C94.4177,63.6057 100.9227,70.1107 100.9227,78.1347 C100.9227,81.2187 99.9607,84.0807 98.3177,86.4387 L105.5267,93.6477 Z" id="Fill-28" fill="#EDEEF3"></path>
        <path d="M86.3929,68.0758 C91.9469,68.0758 96.4519,72.5788 96.4519,78.1348 C96.4519,83.6898 91.9469,88.1938 86.3929,88.1938 C80.8389,88.1938 76.3339,83.6898 76.3339,78.1348 C76.3339,72.5788 80.8389,68.0758 86.3929,68.0758" id="Fill-30" fill="#FFFFFF"></path>
        <path d="M93.3115,89.9591 C93.5575,89.9591 93.8005,90.0551 93.9835,90.2371 L101.4595,97.7151 C101.9155,98.1701 102.5175,98.4201 103.1575,98.4201 C104.4825,98.4201 105.5605,97.3421 105.5605,96.0171 C105.5605,95.3771 105.3105,94.7741 104.8555,94.3191 L97.6465,87.1101 C97.3215,86.7851 97.2755,86.2731 97.5395,85.8961 C99.1305,83.6111 99.9715,80.9281 99.9715,78.1351 C99.9715,70.6471 93.8795,64.5561 86.3925,64.5561 C86.0425,64.5561 85.7035,64.5641 85.3635,64.5971 C78.3195,65.1311 72.8135,71.0771 72.8135,78.1351 C72.8135,82.1861 74.6025,85.9921 77.7225,88.5791 C79.8885,90.3901 82.5245,91.4581 85.3465,91.6721 C85.3525,91.6721 85.3575,91.6731 85.3635,91.6731 C87.8935,91.9111 90.5765,91.3131 92.8585,90.0741 C93.0005,89.9971 93.1565,89.9591 93.3115,89.9591 M103.1575,100.3201 C102.0095,100.3201 100.9295,99.8721 100.1165,99.0591 L93.1285,92.0701 C90.6715,93.2591 87.8575,93.8181 85.1965,93.5651 C81.9785,93.3201 78.9745,92.1021 76.5065,90.0391 C72.9535,87.0931 70.9135,82.7531 70.9135,78.1351 C70.9135,70.0901 77.1905,63.3121 85.2035,62.7031 C85.5855,62.6681 85.9825,62.6551 86.3925,62.6551 C94.9275,62.6551 101.8725,69.6001 101.8725,78.1351 C101.8725,81.0501 101.0675,83.8611 99.5385,86.3141 L106.1995,92.9761 C107.0125,93.7891 107.4605,94.8691 107.4605,96.0171 C107.4605,98.3901 105.5305,100.3201 103.1575,100.3201 M86.3925,69.0261 C81.3705,69.0261 77.2845,73.1121 77.2845,78.1351 C77.2845,83.1571 81.3705,87.2431 86.3925,87.2431 C91.4155,87.2431 95.5015,83.1571 95.5015,78.1351 C95.5015,73.1121 91.4155,69.0261 86.3925,69.0261 M86.3925,89.1441 C80.3225,89.1441 75.3835,84.2051 75.3835,78.1351 C75.3835,72.0641 80.3225,67.1261 86.3925,67.1261 C92.4625,67.1261 97.4025,72.0641 97.4025,78.1351 C97.4025,84.2051 92.4625,89.1441 86.3925,89.1441" id="Fill-32" fill="#343852"></path>
        <path d="M84.5264,83.5558 C84.5154,83.5558 84.5054,83.5558 84.4944,83.5548 C84.2234,83.5458 83.9694,83.4218 83.7964,83.2128 L80.0744,78.7428 C79.7394,78.3388 79.7944,77.7408 80.1974,77.4048 C80.5984,77.0698 81.1984,77.1218 81.5354,77.5278 L84.5744,81.1778 L91.2944,74.1258 C91.6564,73.7458 92.2584,73.7318 92.6364,74.0938 C93.0164,74.4548 93.0314,75.0568 92.6694,75.4368 L85.2134,83.2608 C85.0344,83.4498 84.7864,83.5558 84.5264,83.5558" id="Fill-34" fill="#D20050"></path>
    </g>
</svg>