<?xml version="1.0" encoding="UTF-8"?>
<svg width="120px" height="120px" viewBox="0 0 120 120" version="1.1" xmlns="http://www.w3.org/2000/svg" xmlns:xlink="http://www.w3.org/1999/xlink">
    <title>02.Icons/Illustrative/Cible Infirmier</title>
    <g id="02.Icons/Illustrative/Cible-Infirmier" stroke="none" stroke-width="1" fill="none" fill-rule="evenodd">
        <path d="M58.832,96.0683 L58.834,96.0683 C78.072,96.0683 93.666,80.7263 93.666,61.7993 L93.666,23.1233 L93.666,21.8333 C90.943,24.8173 85.475,27.3573 74.374,27.5293 L58.832,27.5293 C39.594,27.5293 24,42.8713 24,61.7993 C24,80.7263 39.594,96.0683 58.832,96.0683" id="Fill-1" fill="#F2F3F7"></path>
        <path d="M91.4372,97.1288 L90.3772,88.7338 C90.3772,81.6718 82.2122,77.0778 77.2392,75.5558 L77.1872,75.4418 L72.6872,74.5358 C70.9292,73.7628 68.4282,71.9028 67.2982,68.1288 C66.9322,66.8698 66.7042,65.4048 66.7042,63.7108 C69.9322,61.3048 72.0612,57.0028 72.0612,52.1018 C72.0612,49.9048 71.6252,47.8448 70.8712,46.0118 C65.0092,45.9898 60.6132,42.0278 56.0342,38.3648 C55.6232,42.4388 52.3722,48.1178 49.2352,50.7298 C49.1882,51.1628 49.1662,51.6438 49.1662,52.1018 C49.1662,57.0028 51.2942,61.3048 54.5232,63.7108 C54.5232,65.4048 54.2952,66.8698 53.9282,68.1288 C52.7982,71.9058 50.2942,73.7658 48.5362,74.5378 L44.3932,75.3708 L44.3582,75.4468 C39.4322,76.8468 30.8502,81.4928 30.8502,88.7338 L29.7902,97.1288 L46.4322,97.1288 L49.9012,97.1288 L53.6322,97.1288 C52.9292,94.9988 52.3532,92.7778 51.8672,90.5768 C52.1372,90.5858 52.4012,90.6098 52.6732,90.6128 C52.1962,88.1078 51.8292,85.6878 51.5602,83.4928 C54.0042,85.5978 57.1772,86.8558 60.6132,86.8558 C64.2482,86.8558 67.5812,85.4388 70.0762,83.1108 C69.8032,85.4198 69.4162,88.0068 68.9072,90.6838 C68.3312,93.6218 68.7342,94.2498 67.7842,97.1288 L74.9842,97.1288 L74.9842,97.1288 L91.4372,97.1288 Z M49.9562,36.3328 C49.5842,36.3328 49.2422,36.1028 49.1072,35.7438 L45.9752,27.3718 C45.4012,25.8358 45.7582,24.0998 46.8872,22.9478 C50.2272,19.5388 55.6182,17.5028 61.3082,17.5028 C66.9992,17.5028 72.3902,19.5388 75.7302,22.9478 C76.8582,24.0998 77.2162,25.8358 76.6412,27.3718 L73.5092,35.7438 C73.3572,36.1508 72.9372,36.3928 72.5082,36.3198 C63.5202,34.7918 58.0822,34.7908 50.1282,36.3168 C50.0702,36.3278 50.0132,36.3328 49.9562,36.3328 L49.9562,36.3328 Z" id="Fill-4" fill="#FFFFFF"></path>
        <path d="M65.2191,25.9892 L62.2081,25.9892 L62.2081,22.7462 C62.2081,22.2492 61.8051,21.8452 61.3081,21.8452 C60.8111,21.8452 60.4071,22.2492 60.4071,22.7462 L60.4071,25.9892 L57.3981,25.9892 C56.9011,25.9892 56.4971,26.3922 56.4971,26.8892 C56.4971,27.3862 56.9011,27.7902 57.3981,27.7902 L60.4071,27.7902 L60.4071,31.0342 C60.4071,31.5312 60.8111,31.9342 61.3081,31.9342 C61.8051,31.9342 62.2081,31.5312 62.2081,31.0342 L62.2081,27.7902 L65.2191,27.7902 C65.7161,27.7902 66.1191,27.3862 66.1191,26.8892 C66.1191,26.3922 65.7161,25.9892 65.2191,25.9892" id="Fill-6" fill="#D20050"></path>
        <path d="M70.085,83.1201 C67.59,85.4481 64.249,86.8561 60.614,86.8561 C57.178,86.8561 54.004,85.5981 51.559,83.4941 C49.102,81.3781 54.401,97.1291 54.401,97.1291 L60.614,97.1291 L60.614,97.1291 L67.784,97.1291 C67.784,97.1291 72.319,81.0351 70.085,83.1201" id="Fill-8" fill="#1D71B8"></path>
        <path d="M49.2356,50.7293 C49.1886,51.1633 49.1666,51.6433 49.1666,52.1023 C49.1666,57.0033 51.2946,61.3043 54.5236,63.7103 C54.5236,65.4053 54.2956,66.8693 53.9286,68.1283 L44.5876,68.1283 C39.0466,68.1283 37.7186,65.8393 37.7186,65.8393 C37.7186,65.8393 42.2976,60.6873 42.2976,47.3403 C42.2976,39.0003 45.7896,34.9723 48.4166,33.1213 C48.8016,34.9253 49.1076,35.7433 49.1076,35.7433 C49.1076,35.7433 53.4686,34.7123 60.3366,34.7123 C64.5336,34.7123 70.0506,34.4473 72.5626,35.8203 C73.4146,35.2233 74.8206,32.6943 74.8206,32.6943 C79.9646,39.2023 78.9296,49.5083 78.9296,54.3913 C78.9296,61.8323 83.3246,65.8393 83.3246,65.8393 C83.3246,65.8393 81.0356,68.1283 76.6396,68.1283 L67.2986,68.1283 C66.9316,66.8693 66.7036,65.4053 66.7036,63.7103 C69.9326,61.3043 72.0606,57.0033 72.0606,52.1023 C72.0606,49.9043 71.6246,47.8453 70.8716,46.0113 C65.0096,45.9893 60.6136,42.0273 56.0346,38.3653 C55.6236,42.4393 52.3726,48.1183 49.2356,50.7293" id="Fill-10" fill="#C5C8DA"></path>
        <path d="M52.4502,82.9486 C52.4362,82.8326 52.4192,82.7136 52.4062,82.5986 C51.8152,77.6726 51.6932,74.0986 51.6922,74.0636 C51.6922,74.0366 51.6782,74.0136 51.6752,73.9876 C51.6722,73.9626 51.6782,73.9386 51.6752,73.9136 C52.9372,72.8386 54.0082,71.1756 54.8402,68.3946 C55.1142,67.4546 55.2912,66.4516 55.3872,65.4076 C57.0142,66.3126 58.7932,66.7886 60.6132,66.7886 C62.4362,66.7886 64.2162,66.3116 65.8402,65.4076 C65.9362,66.4526 66.1132,67.4576 66.3892,68.4016 C67.2912,71.4176 68.4752,73.1206 69.8862,74.1806 C69.8702,74.6096 69.7302,78.0156 69.1802,82.6156 C66.8772,84.6646 63.8602,85.9056 60.6132,85.9056 C57.5512,85.9056 54.6982,84.7936 52.4502,82.9486 M50.1162,52.1026 C50.1162,51.7796 50.1312,51.4686 50.1542,51.1696 C53.0512,48.5946 55.7662,43.9496 56.6912,40.1136 C60.7042,43.3546 64.8642,46.6526 70.1912,46.9336 C70.7912,48.5766 71.1102,50.3086 71.1102,52.1026 C71.1102,56.5736 69.2512,60.6276 66.1272,62.9556 C62.8202,65.4856 58.4162,65.4926 55.0902,62.9496 C51.9762,60.6276 50.1162,56.5736 50.1162,52.1026 M91.2892,87.9516 C89.9362,80.9326 83.2392,76.8756 78.0452,75.0416 C77.9182,74.7676 77.6702,74.5696 77.3742,74.5096 L72.7942,73.5886 C70.7792,72.9006 69.3512,71.6756 68.2112,67.8636 C67.8772,66.7186 67.7002,65.4626 67.6682,64.1336 C71.0132,61.4166 73.0112,56.9736 73.0112,52.1026 C73.0112,49.8566 72.5862,47.6856 71.7502,45.6506 C71.7502,45.6496 71.7492,45.6486 71.7492,45.6486 C71.7002,45.5316 71.6292,45.4266 71.5412,45.3396 C71.5232,45.3206 71.4972,45.3126 71.4772,45.2956 C71.3132,45.1566 71.1082,45.0626 70.8752,45.0616 C65.8172,45.0416 61.8912,41.8706 57.7342,38.5136 L56.6282,37.6226 C56.3552,37.4066 55.9862,37.3546 55.6662,37.4896 C55.3462,37.6236 55.1242,37.9236 55.0892,38.2696 C54.7162,41.9626 51.6972,47.4446 48.5922,50.0306 L48.5672,50.0526 C48.5162,50.0996 48.4882,50.1596 48.4502,50.2146 C48.4342,50.2386 48.4132,50.2576 48.4002,50.2826 C48.3132,50.4346 48.2732,50.5996 48.2802,50.7696 C48.2402,51.1876 48.2162,51.6416 48.2162,52.1026 C48.2162,56.9776 50.2162,61.4256 53.5592,64.1356 C53.5262,65.4636 53.3492,66.7186 53.0182,67.8566 C51.8752,71.6776 50.4452,72.9026 48.4442,73.5866 L44.2052,74.4396 C43.9382,74.4936 43.7232,74.6706 43.5872,74.9026 C38.3262,76.6736 31.3252,80.7586 29.9372,87.9566 C29.8242,88.5346 28.8402,93.6966 28.8402,97.1286 C28.8402,97.6536 29.2662,98.0786 29.7902,98.0786 C30.3152,98.0786 30.7402,97.6536 30.7402,97.1286 C30.7402,93.8736 31.6922,88.8776 31.8032,88.3106 C32.8832,82.7096 37.9442,79.2126 42.4272,77.3596 L39.6562,83.3546 C39.4612,83.7766 39.6002,84.2776 39.9842,84.5386 L43.1532,86.7016 L41.4242,87.8816 C41.0352,88.1476 40.9002,88.6576 41.1042,89.0796 C41.1042,89.0796 41.1942,89.2676 41.3602,89.5846 C41.5882,90.0266 41.8812,90.6056 42.2102,91.2546 C43.2692,93.3436 44.7182,96.2036 45.5522,97.5576 C45.7322,97.8486 46.0432,98.0086 46.3612,98.0086 C46.5312,98.0086 46.7032,97.9626 46.8592,97.8676 C47.3062,97.5916 47.4442,97.0066 47.1692,96.5596 C46.3772,95.2756 44.9482,92.4546 43.9052,90.3956 C43.6372,89.8666 43.3922,89.3826 43.1862,88.9806 L46.8152,86.5046 C47.2482,86.2086 47.3592,85.6176 47.0652,85.1846 C46.7692,84.7516 46.1802,84.6406 45.7442,84.9346 L44.8392,85.5516 L41.7192,83.4226 L45.0132,76.3036 L45.0572,76.2056 L49.8472,75.2436 C49.9272,76.6956 50.1142,79.4466 50.5202,82.8206 C50.8132,85.3786 51.2342,88.1356 51.7402,90.7956 C52.3292,93.8036 52.5552,94.4856 53.5032,97.3566 C53.6352,97.7556 54.0072,98.0086 54.4052,98.0086 C54.5042,98.0086 54.6052,97.9926 54.7032,97.9606 C55.2012,97.7956 55.4722,97.2586 55.3082,96.7606 C54.3662,93.9126 54.1712,93.3216 53.6072,90.4356 C53.2982,88.8146 53.0262,87.1596 52.7912,85.5326 C55.0822,86.9706 57.7692,87.8056 60.6132,87.8056 C63.6262,87.8056 66.4622,86.8676 68.8362,85.2676 C68.5922,86.9996 68.3042,88.7706 67.9752,90.5006 C67.4082,93.3896 67.2132,93.9826 66.2732,96.8306 C66.1092,97.3286 66.3792,97.8666 66.8772,98.0316 C66.9762,98.0636 67.0762,98.0786 67.1752,98.0786 C67.5742,98.0786 67.9452,97.8266 68.0772,97.4266 C69.0252,94.5546 69.2502,93.8716 69.8412,90.8616 C70.3462,88.2026 70.7682,85.4476 71.0602,82.8956 C71.4662,79.5186 71.6542,76.7656 71.7342,75.3136 L76.5232,76.2766 L79.8602,83.4926 L76.7412,85.6216 L75.8372,85.0046 C75.4042,84.7076 74.8132,84.8206 74.5172,85.2526 C74.2212,85.6866 74.3322,86.2776 74.7652,86.5736 L78.3942,89.0506 C78.1872,89.4556 77.9382,89.9466 77.6662,90.4836 C76.6252,92.5366 75.2002,95.3496 74.4112,96.6306 C74.1362,97.0766 74.2752,97.6616 74.7222,97.9376 C74.8772,98.0336 75.0492,98.0786 75.2192,98.0786 C75.5382,98.0786 75.8492,97.9186 76.0282,97.6266 C76.8592,96.2786 78.3052,93.4256 79.3602,91.3416 C79.6932,90.6856 79.9892,90.1006 80.2192,89.6566 C80.3852,89.3376 80.4752,89.1526 80.4752,89.1526 C80.6812,88.7286 80.5452,88.2176 80.1552,87.9516 L78.4272,86.7716 L81.5962,84.6096 C81.9802,84.3476 82.1182,83.8466 81.9232,83.4246 L79.1902,77.5186 C83.5632,79.4086 88.3742,82.8696 89.4252,88.3196 C89.5342,88.8776 90.4862,93.8736 90.4862,97.1286 C90.4862,97.6536 90.9122,98.0786 91.4372,98.0786 C91.9612,98.0786 92.3872,97.6536 92.3872,97.1286 C92.3872,93.6966 91.4022,88.5346 91.2892,87.9516 M47.3512,24.0126 C50.5492,20.7486 55.7662,18.8006 61.3082,18.8006 C66.8502,18.8006 72.0672,20.7486 75.2662,24.0126 C75.9472,24.7076 76.1692,25.8066 75.8172,26.7466 L72.7572,34.9256 C68.2092,34.1766 64.4912,33.8026 60.8972,33.8026 C57.3242,33.8026 53.8742,34.1716 49.8552,34.9106 L46.7992,26.7466 C46.4472,25.8066 46.6692,24.7076 47.3512,24.0126 M44.5872,69.0786 C45.1112,69.0786 45.5372,68.6536 45.5372,68.1286 C45.5372,67.6046 45.1112,67.1786 44.5872,67.1786 C41.2582,67.1786 39.6382,66.3036 38.9572,65.7676 C40.2142,63.9196 43.2482,58.3206 43.2482,47.3396 C43.2482,40.4996 45.6552,36.7526 47.8722,34.7496 L48.4342,36.2506 C48.5672,36.6076 48.9062,36.8356 49.2762,36.8356 C49.3322,36.8356 49.3892,36.8296 49.4462,36.8196 C57.8872,35.2006 63.6562,35.2006 73.1902,36.8236 C73.6032,36.8896 74.0312,36.6566 74.1832,36.2506 L74.8712,34.4116 C78.3112,39.8046 78.1302,47.4256 78.0162,52.2196 C77.9962,53.0226 77.9792,53.7526 77.9792,54.3916 C77.9792,60.2976 80.5862,64.1436 81.9222,65.7256 C81.0062,66.3206 79.2362,67.1786 76.6402,67.1786 C76.1152,67.1786 75.6902,67.6046 75.6902,68.1286 C75.6902,68.6536 76.1152,69.0786 76.6402,69.0786 C81.3742,69.0786 83.8922,66.6156 83.9962,66.5106 C84.1792,66.3266 84.2782,66.0766 84.2743166,65.8186 C84.2682,65.5606 84.1562,65.3146 83.9662,65.1386 C83.9262,65.1006 79.8792,61.2886 79.8792,54.3916 C79.8792,53.7666 79.8962,53.0506 79.9152,52.2656 C80.0442,46.9056 80.2382,38.2046 75.6732,32.2696 L77.5032,27.3776 C78.1042,25.7706 77.7312,23.9546 76.5512,22.7526 C73.0232,19.1516 67.3232,16.9996 61.3082,16.9996 C55.2922,16.9996 49.5942,19.1516 46.0662,22.7526 C44.8862,23.9546 44.5132,25.7706 45.1132,27.3776 L47.1842,32.9106 C44.4802,35.1086 41.3482,39.3686 41.3482,47.3396 C41.3482,60.0826 37.0492,65.1606 37.0092,65.2076 C36.7362,65.5136 36.6922,65.9606 36.8972,66.3156 C37.0612,66.5986 38.6712,69.0786 44.5872,69.0786" id="Fill-12" fill="#343852"></path>
    </g>
</svg>