<?xml version="1.0" encoding="UTF-8"?>
<svg width="120px" height="120px" viewBox="0 0 120 120" version="1.1" xmlns="http://www.w3.org/2000/svg" xmlns:xlink="http://www.w3.org/1999/xlink">
    <title>02.Icons/Illustrative/Cible Medecine de ville</title>
    <g id="02.Icons/Illustrative/Cible-Medecine-de-ville" stroke="none" stroke-width="1" fill="none" fill-rule="evenodd">
        <path d="M100.1685,49.187 C100.1685,66.562 86.0835,80.647 68.7085,80.647 C51.3335,80.647 37.2485,66.562 37.2485,49.187 C37.2485,31.812 51.3335,17.727 68.7085,17.727 C86.0835,17.727 100.1685,31.812 100.1685,49.187" id="Fill-1" fill="#F2F3F7"></path>
        <polygon id="Fill-3" fill="#DEE0EA" points="39.7594 87.2236 20.9764 87.2236 20.9764 42.7406 39.7594 35.5716"></polygon>
        <polygon id="Fill-5" fill="#F2F3F7" points="57.2153 28.0442 57.2153 22.6012 47.5223 22.6012 47.5223 28.0442 40.6273 28.0442 40.6273 87.2232 64.2443 87.2232 64.2443 28.0442"></polygon>
        <polygon id="Fill-7" fill="#FFFFFF" points="27.366 86.707 34.121 86.707 34.121 83.102 27.366 83.102"></polygon>
        <path d="M46.043,77.8327 L46.043,75.5577 C46.043,75.0327 45.617,74.6067 45.093,74.6067 C44.568,74.6067 44.143,75.0327 44.143,75.5577 L44.143,77.8327 C44.143,78.3567 44.568,78.7827 45.093,78.7827 C45.617,78.7827 46.043,78.3567 46.043,77.8327 M55.698,69.6007 L55.698,67.3247 C55.698,66.8007 55.272,66.3747 54.748,66.3747 C54.224,66.3747 53.798,66.8007 53.798,67.3247 L53.798,69.6007 C53.798,70.1247 54.224,70.5507 54.748,70.5507 C55.272,70.5507 55.698,70.1247 55.698,69.6007 M50.87,69.6007 L50.87,67.3247 C50.87,66.8007 50.444,66.3747 49.92,66.3747 C49.396,66.3747 48.97,66.8007 48.97,67.3247 L48.97,69.6007 C48.97,70.1247 49.396,70.5507 49.92,70.5507 C50.444,70.5507 50.87,70.1247 50.87,69.6007 M46.043,69.6007 L46.043,67.3247 C46.043,66.8007 45.617,66.3747 45.093,66.3747 C44.568,66.3747 44.143,66.8007 44.143,67.3247 L44.143,69.6007 C44.143,70.1247 44.568,70.5507 45.093,70.5507 C45.617,70.5507 46.043,70.1247 46.043,69.6007 M55.698,61.0287 L55.698,58.7547 C55.698,58.2297 55.272,57.8047 54.748,57.8047 C54.224,57.8047 53.798,58.2297 53.798,58.7547 L53.798,61.0287 C53.798,61.5537 54.224,61.9787 54.748,61.9787 C55.272,61.9787 55.698,61.5537 55.698,61.0287 M50.87,61.0287 L50.87,58.7547 C50.87,58.2297 50.444,57.8047 49.92,57.8047 C49.396,57.8047 48.97,58.2297 48.97,58.7547 L48.97,61.0287 C48.97,61.5537 49.396,61.9787 49.92,61.9787 C50.444,61.9787 50.87,61.5537 50.87,61.0287 M46.043,61.0287 L46.043,58.7547 C46.043,58.2297 45.617,57.8047 45.093,57.8047 C44.568,57.8047 44.143,58.2297 44.143,58.7547 L44.143,61.0287 C44.143,61.5537 44.568,61.9787 45.093,61.9787 C45.617,61.9787 46.043,61.5537 46.043,61.0287 M50.87,52.4577 L50.87,50.1837 C50.87,49.6587 50.444,49.2327 49.92,49.2327 C49.396,49.2327 48.97,49.6587 48.97,50.1837 L48.97,52.4577 C48.97,52.9817 49.396,53.4077 49.92,53.4077 C50.444,53.4077 50.87,52.9817 50.87,52.4577 M46.043,52.4577 L46.043,50.1837 C46.043,49.6587 45.617,49.2327 45.093,49.2327 C44.568,49.2327 44.143,49.6587 44.143,50.1837 L44.143,52.4577 C44.143,52.9817 44.568,53.4077 45.093,53.4077 C45.617,53.4077 46.043,52.9817 46.043,52.4577 M50.87,43.8867 L50.87,41.6117 C50.87,41.0877 50.444,40.6617 49.92,40.6617 C49.396,40.6617 48.97,41.0877 48.97,41.6117 L48.97,43.8867 C48.97,44.4107 49.396,44.8367 49.92,44.8367 C50.444,44.8367 50.87,44.4107 50.87,43.8867 M46.043,43.8867 L46.043,41.6117 C46.043,41.0877 45.617,40.6617 45.093,40.6617 C44.568,40.6617 44.143,41.0877 44.143,41.6117 L44.143,43.8867 C44.143,44.4107 44.568,44.8367 45.093,44.8367 C45.617,44.8367 46.043,44.4107 46.043,43.8867 M55.698,35.3477 L55.698,33.0727 C55.698,32.5487 55.272,32.1227 54.748,32.1227 C54.224,32.1227 53.798,32.5487 53.798,33.0727 L53.798,35.3477 C53.798,35.8717 54.224,36.2977 54.748,36.2977 C55.272,36.2977 55.698,35.8717 55.698,35.3477 M50.87,35.3477 L50.87,33.0727 C50.87,32.5487 50.444,32.1227 49.92,32.1227 C49.396,32.1227 48.97,32.5487 48.97,33.0727 L48.97,35.3477 C48.97,35.8717 49.396,36.2977 49.92,36.2977 C50.444,36.2977 50.87,35.8717 50.87,35.3477 M45.093,36.2977 C44.568,36.2977 44.143,35.8717 44.143,35.3477 L44.143,33.0727 C44.143,32.5487 44.568,32.1227 45.093,32.1227 C45.617,32.1227 46.043,32.5487 46.043,33.0727 L46.043,35.3477 C46.043,35.8717 45.617,36.2977 45.093,36.2977" id="Fill-9" fill="#969CBB"></path>
        <path d="M99.7856,81.8117 C98.7836,80.6127 94.5796,78.7247 89.4066,76.1147 L89.4066,76.1037 C87.9866,75.3937 86.4946,74.6247 84.9696,73.7977 L84.7836,73.0757 L78.8196,71.3287 C78.8196,71.3287 76.4896,69.9427 76.4896,67.8337 L76.4896,65.1087 C79.2966,62.9997 80.7526,59.5987 81.4286,56.1397 C81.4286,56.1397 84.6436,55.8487 84.6436,51.1537 C84.6436,49.5927 84.2126,48.7427 83.9096,48.3467 C83.7586,48.1257 83.6296,48.0327 83.6296,48.0327 C80.4376,48.0327 80.9156,40.4617 74.9286,40.4617 C72.7856,40.4617 66.5776,42.6977 62.4296,38.6557 C60.4156,43.6877 58.2376,46.6697 55.3716,48.0327 C55.3716,48.0327 55.2436,48.1257 55.0926,48.3467 C54.7896,48.7427 54.3586,49.5927 54.3586,51.1537 C54.3586,55.8487 57.5726,56.1397 57.5726,56.1397 C58.2486,59.5987 59.7046,62.9997 62.5116,65.1087 L62.5116,67.8337 C62.5116,69.9427 60.1826,71.3287 60.1826,71.3287 L54.0316,73.7977 C53.7756,73.9377 53.5196,74.0767 53.2626,74.2067 C46.5076,77.8277 40.4506,80.3447 39.2156,81.8117 C37.2826,84.1067 35.7216,95.7897 35.7216,98.1187 L91.6316,98.1187 C89.6986,98.1187 88.1376,96.5587 88.1376,94.6247 C88.1376,92.6907 89.6986,91.1297 91.6316,91.1297 L91.6676,91.1297 C93.5886,91.1527 95.1266,92.7017 95.1266,94.6247 C95.1266,96.5587 93.5656,98.1187 91.6316,98.1187 L103.2796,98.1187 C103.2796,95.7897 101.7196,84.1067 99.7856,81.8117" id="Fill-10" fill="#FFFFFF"></path>
        <path d="M91.6673,91.1301 C93.5883,91.1531 95.1263,92.7021 95.1263,94.6241 C95.1263,96.5581 93.5653,98.1191 91.6323,98.1191 C89.6983,98.1191 88.1373,96.5581 88.1373,94.6241 C88.1373,92.6911 89.6983,91.1301 91.6323,91.1301 L91.6673,91.1301 Z" id="Fill-11" fill="#D20050"></path>
        <path d="M63.6768,98.1189 C62.1518,91.2349 61.2888,85.2479 60.8118,80.6939 L63.6768,80.6469 C64.7018,82.4409 67.0088,85.6909 69.5008,86.4709 C71.9928,85.6909 74.2998,82.4409 75.3248,80.6469 L78.1898,80.6939 C77.7128,85.2479 76.8498,91.2349 75.3248,98.1189 L63.6768,98.1189 Z" id="Fill-12" fill="#1D71B8"></path>
        <path d="M84.6432,41.9753 C84.6432,43.9903 84.6432,46.3433 83.9212,48.3353 L83.9092,48.3463 C83.7582,48.1253 83.6292,48.0323 83.6292,48.0323 C80.4382,48.0323 80.9152,40.4613 74.9292,40.4613 C72.7862,40.4613 66.5772,42.6973 62.4302,38.6563 C60.4152,43.6873 58.2372,46.6693 55.3722,48.0323 C55.3722,48.0323 55.2432,48.1253 55.0922,48.3463 L55.0812,48.3353 C54.3582,46.3433 54.3582,45.8193 54.3582,40.7413 C54.3582,36.6293 56.8862,33.4383 59.4022,32.4013 C60.9862,29.9893 63.3852,28.2313 69.5012,28.2313 C71.9822,28.2313 74.3932,28.6863 76.5122,29.6403 L76.5252,29.6403 C80.2862,30.7243 83.6292,30.3163 83.6292,30.3163 C83.6292,30.3163 84.1072,32.6693 82.6272,34.4863 C84.0142,36.3733 84.6432,39.5993 84.6432,41.9753" id="Fill-13" fill="#C5C8DA"></path>
        <path d="M89.0879,94.6247 C89.0879,96.0277 90.2289,97.1687 91.6319,97.1687 C93.0349,97.1687 94.1759,96.0277 94.1759,94.6247 C94.1759,93.2147 93.0689,92.0977 91.6559,92.0807 C90.2289,92.0807 89.0879,93.2217 89.0879,94.6247 L89.0879,94.6247 Z M80.4959,55.9567 C80.5769,55.5427 80.9219,55.2307 81.3429,55.1927 C81.5709,55.1657 83.6929,54.8037 83.6929,51.1537 C83.6929,49.7847 83.3219,49.1447 83.1589,48.9287 C81.5569,48.6647 80.7319,47.0967 79.9419,45.5607 C78.8939,43.5207 77.8099,41.4117 74.9289,41.4117 C74.5499,41.4117 73.9389,41.5077 73.2309,41.6197 C70.5669,42.0387 66.2779,42.7127 62.8099,40.2137 C60.8319,44.7657 58.6759,47.4417 55.9309,48.8077 C55.9219,48.8187 55.9049,48.8397 55.8749,48.8837 C55.6859,49.1347 55.3089,49.7767 55.3089,51.1537 C55.3089,54.8037 57.4309,55.1657 57.6719,55.1947 C58.0809,55.2437 58.4269,55.5527 58.5059,55.9567 C59.2579,59.8097 60.7979,62.6327 63.0819,64.3497 C63.3429,64.5557 63.6149,64.7427 63.9349,64.9367 C64.2839,65.1447 64.5929,65.3637 64.8949,65.5807 C65.9079,66.3087 66.7089,66.8837 69.5009,66.8837 C72.2939,66.8837 73.0939,66.3087 74.1079,65.5807 C74.4089,65.3637 74.7169,65.1447 75.0709,64.9327 C75.3859,64.7427 75.6579,64.5567 75.8979,64.3657 C78.2029,62.6327 79.7439,59.8097 80.4959,55.9567 L80.4959,55.9567 Z M61.5619,65.5507 C59.2349,63.6437 57.6139,60.7527 56.7679,56.9317 C55.3239,56.4597 53.4079,54.8827 53.4079,51.1537 C53.4079,49.7747 53.7079,48.8457 54.0389,48.2357 C53.4089,46.3997 53.4079,45.5017 53.4079,40.7407 C53.4079,36.3597 56.0609,32.9067 58.7679,31.6427 C59.4179,30.6977 60.2589,29.7587 61.5379,28.9947 L41.2779,28.9947 L41.2779,79.2567 C42.4669,78.6037 44.0039,77.8337 45.9839,76.8527 C48.0099,75.8487 50.3029,74.7117 52.6829,73.4387 C54.4029,71.4817 56.8209,70.4577 59.8739,70.3917 C60.3289,70.0717 61.5619,69.0927 61.5619,67.8337 L61.5619,65.5507 Z M48.4719,27.0947 L56.2649,27.0947 L56.2649,23.5517 L48.4719,23.5517 L48.4719,27.0947 Z M69.5009,29.1817 C63.8179,29.1817 61.6719,30.6767 60.1959,32.9227 C60.0919,33.0827 59.9409,33.2067 59.7649,33.2787 C57.5499,34.1917 55.3089,37.0477 55.3089,40.7407 C55.3089,44.5247 55.3089,45.6917 55.5929,46.8207 C57.8859,45.4567 59.7479,42.7987 61.5479,38.3037 C61.6659,38.0087 61.9229,37.7927 62.2329,37.7267 C62.5429,37.6617 62.8649,37.7537 63.0929,37.9757 C66.0229,40.8307 70.1819,40.1757 72.9349,39.7427 C73.7539,39.6137 74.4009,39.5117 74.9289,39.5117 C78.9689,39.5117 80.5089,42.5057 81.6329,44.6907 C82.2789,45.9497 82.7419,46.7877 83.3129,47.0147 C83.6869,45.4027 83.6929,43.6007 83.6929,41.9757 C83.6929,39.8397 83.1199,36.7607 81.8619,35.0487 C81.6069,34.6997 81.6179,34.2217 81.8919,33.8867 C82.5769,33.0437 82.7359,32.0267 82.7509,31.3287 C81.4399,31.3837 78.9879,31.3307 76.3119,30.5677 C76.2459,30.5537 76.1819,30.5327 76.1229,30.5067 C74.1959,29.6397 71.9069,29.1817 69.5009,29.1817 L69.5009,29.1817 Z M27.8599,86.2727 L33.1709,86.2727 L33.1709,83.4587 L27.8599,83.4587 L27.8599,86.2727 Z M104.2309,98.1187 C104.2309,98.6437 103.8049,99.0687 103.2799,99.0687 C102.7559,99.0687 102.3299,98.6437 102.3299,98.1187 C102.3299,95.5497 100.7069,84.3797 99.0589,82.4247 C98.3969,81.6317 95.3569,80.1277 92.1389,78.5367 C91.8599,78.3987 91.5649,78.2527 91.2759,78.1097 C92.4179,81.6867 92.6229,86.3007 92.6199,90.3077 C94.6079,90.7747 96.0759,92.5377 96.0759,94.6247 C96.0759,97.0747 94.0819,99.0687 91.6319,99.0687 C89.1819,99.0687 87.1879,97.0747 87.1879,94.6247 C87.1879,92.4867 88.7059,90.6987 90.7199,90.2767 C90.7209,85.9037 90.4509,80.1737 88.6929,76.8067 C87.9069,76.4117 87.1469,76.0227 86.4089,75.6367 L87.8949,81.5817 C87.9639,81.8597 87.9039,82.1547 87.7319,82.3847 L85.0779,85.9007 L86.3789,86.8757 C86.6969,87.1157 86.8319,87.5287 86.7169,87.9097 C86.6209,88.2277 84.3599,95.7007 83.1899,98.4867 C83.0359,98.8507 82.6849,99.0687 82.3139,99.0687 C82.1909,99.0687 82.0659,99.0457 81.9449,98.9947 C81.4619,98.7917 81.2339,98.2337 81.4379,97.7507 C82.3769,95.5157 84.1239,89.8907 84.7049,87.9947 L80.5789,84.9017 C80.1589,84.5877 80.0729,83.9917 80.3879,83.5717 C80.7019,83.1517 81.2979,83.0657 81.7179,83.3807 L83.5579,84.7597 L85.9419,81.6027 L83.9979,73.8357 L79.7429,72.5897 C79.6929,74.1037 79.5499,76.9277 79.1349,80.7957 C78.5379,86.4907 77.5679,92.3897 76.2529,98.3237 C76.1539,98.7677 75.7619,99.0687 75.3259,99.0687 C75.2579,99.0687 75.1889,99.0617 75.1199,99.0467 C74.6079,98.9337 74.2839,98.4257 74.3979,97.9137 C75.6969,92.0477 76.6549,86.2217 77.2459,80.5957 C77.7289,76.0977 77.8379,72.9757 77.8619,71.8207 C77.0639,71.2187 75.5389,69.8097 75.5389,67.8337 L75.5389,66.8947 C75.4299,66.9707 75.3219,67.0477 75.2159,67.1237 C74.0799,67.9397 72.9049,68.7837 69.5009,68.7837 C66.0969,68.7837 64.9219,67.9397 63.7859,67.1237 C63.6799,67.0477 63.5719,66.9707 63.4619,66.8947 L63.4619,67.8337 C63.4619,69.8097 61.9379,71.2187 61.1399,71.8207 C61.1639,72.9757 61.2739,76.0977 61.7559,80.5927 C62.3469,86.2217 63.3049,92.0477 64.6049,97.9137 C64.7179,98.4257 64.3949,98.9337 63.8819,99.0467 C63.8139,99.0617 63.7439,99.0687 63.6759,99.0687 C63.2399,99.0687 62.8479,98.7677 62.7489,98.3237 C61.4339,92.3897 60.4639,86.4907 59.8669,80.7927 C59.4639,77.0367 59.3179,74.2657 59.2639,72.7217 L54.4399,74.6577 C54.2589,74.7567 54.0779,74.8517 53.8969,74.9457 C52.3819,76.8057 51.9439,79.2317 51.8449,80.9287 C55.7599,81.4147 58.8029,84.7557 58.8029,88.8007 L58.8029,98.1187 C58.8029,98.6437 58.3769,99.0687 57.8529,99.0687 L55.5239,99.0687 C54.9989,99.0687 54.5729,98.6437 54.5729,98.1187 C54.5729,97.5947 54.9989,97.1687 55.5239,97.1687 L56.9019,97.1687 L56.9019,88.8007 C56.9019,85.4717 54.1929,82.7627 50.8639,82.7627 C47.5339,82.7627 44.8249,85.4717 44.8249,88.8007 L44.8249,97.1687 L46.2049,97.1687 C46.7299,97.1687 47.1549,97.5947 47.1549,98.1187 C47.1549,98.6437 46.7299,99.0687 46.2049,99.0687 L43.8749,99.0687 C43.3509,99.0687 42.9249,98.6437 42.9249,98.1187 L42.9249,88.8007 C42.9249,84.7347 45.9999,81.3767 49.9459,80.9197 C50.0279,79.3317 50.3309,77.8557 50.8339,76.5457 C49.4289,77.2627 48.0749,77.9367 46.8279,78.5547 C43.4879,80.2087 40.6039,81.6387 39.9429,82.4237 C38.2949,84.3797 36.6719,95.5497 36.6719,98.1187 C36.6719,98.6437 36.2459,99.0687 35.7219,99.0687 C35.1969,99.0687 34.7719,98.6437 34.7719,98.1187 C34.7719,96.8777 35.2699,92.3177 36.1169,88.1737 L15.9499,88.1737 C15.4259,88.1737 14.9999,87.7477 14.9999,87.2237 C14.9999,86.6987 15.4259,86.2727 15.9499,86.2727 L20.0259,86.2727 L20.0259,42.7407 C20.0259,42.3487 20.2689,41.9957 20.6349,41.8537 L36.2439,35.8297 C36.7309,35.6437 37.2829,35.8847 37.4729,36.3747 C37.6609,36.8637 37.4169,37.4137 36.9279,37.6037 L21.9269,43.3927 L21.9269,86.2727 L25.9599,86.2727 L25.9599,82.5087 C25.9599,81.9837 26.3859,81.5587 26.9099,81.5587 L34.1209,81.5587 C34.6459,81.5587 35.0709,81.9837 35.0709,82.5087 L35.0709,86.2727 L36.5399,86.2727 C37.0909,84.0097 37.7489,82.0787 38.4889,81.1997 C38.6989,80.9507 38.9959,80.6927 39.3779,80.4167 L39.3779,28.0447 C39.3779,27.5207 39.8039,27.0947 40.3279,27.0947 L46.5709,27.0947 L46.5709,22.6017 C46.5709,22.0767 46.9969,21.6507 47.5219,21.6507 L51.4179,21.6507 L51.4179,14.9497 C51.4179,14.4257 51.8439,13.9997 52.3679,13.9997 C52.8929,13.9997 53.3179,14.4257 53.3179,14.9497 L53.3179,21.6507 L57.2149,21.6507 C57.7389,21.6507 58.1649,22.0767 58.1649,22.6017 L58.1649,27.0947 L64.2439,27.0947 C64.6369,27.0947 64.9749,27.3337 65.1199,27.6747 C66.3419,27.4257 67.7819,27.2807 69.5009,27.2807 C72.1399,27.2807 74.6669,27.7837 76.8179,28.7357 C80.3209,29.7387 83.4859,29.3777 83.5159,29.3727 C83.9969,29.3237 84.4619,29.6427 84.5609,30.1277 C84.5819,30.2307 85.0189,32.4837 83.7779,34.5027 C85.1089,36.7107 85.5939,39.8367 85.5939,41.9757 C85.5939,43.8587 85.5849,46.1687 84.9529,48.2147 C85.2799,48.8027 85.5939,49.7407 85.5939,51.1537 C85.5939,54.8827 83.6779,56.4597 82.2339,56.9317 C81.3899,60.7437 79.7729,63.6307 77.4399,65.5507 L77.4399,67.8337 C77.4399,69.1667 78.8479,70.2067 79.2169,70.4547 L84.9589,72.1377 C87.1049,72.1947 88.8239,73.2897 90.0789,75.3887 C91.0889,75.8977 92.0649,76.3807 92.9809,76.8337 C97.3279,78.9837 99.6379,80.1547 100.5149,81.2027 C102.7359,83.8387 104.2309,95.9657 104.2309,98.1187 L104.2309,98.1187 Z M76.1499,81.1187 C75.6539,81.9857 73.0169,86.3647 69.7849,87.3777 C69.6919,87.4067 69.5969,87.4217 69.5009,87.4217 C69.4049,87.4217 69.3099,87.4067 69.2169,87.3777 C65.9849,86.3647 63.3479,81.9857 62.8519,81.1187 C62.5919,80.6627 62.7499,80.0827 63.2049,79.8217 C63.6629,79.5617 64.2399,79.7197 64.5019,80.1757 C65.6439,82.1737 67.6059,84.6897 69.5009,85.4627 C71.3969,84.6897 73.3589,82.1737 74.4999,80.1757 C74.7619,79.7207 75.3409,79.5627 75.7969,79.8217 C76.2519,80.0827 76.4099,80.6627 76.1499,81.1187 L76.1499,81.1187 Z M36.6619,76.6947 C36.6619,76.1707 36.2359,75.7447 35.7119,75.7447 L33.0309,75.7447 C32.5069,75.7447 32.0809,76.1707 32.0809,76.6947 C32.0809,77.2197 32.5069,77.6457 33.0309,77.6457 L35.7119,77.6457 C36.2359,77.6457 36.6619,77.2197 36.6619,76.6947 L36.6619,76.6947 Z M29.2549,76.6947 C29.2549,76.1707 28.8289,75.7447 28.3049,75.7447 L25.6239,75.7447 C25.0999,75.7447 24.6739,76.1707 24.6739,76.6947 C24.6739,77.2197 25.0999,77.6457 25.6239,77.6457 L28.3049,77.6457 C28.8289,77.6457 29.2549,77.2197 29.2549,76.6947 L29.2549,76.6947 Z M36.6619,70.6037 C36.6619,70.0787 36.2359,69.6527 35.7119,69.6527 L33.0309,69.6527 C32.5069,69.6527 32.0809,70.0787 32.0809,70.6037 C32.0809,71.1277 32.5069,71.5537 33.0309,71.5537 L35.7119,71.5537 C36.2359,71.5537 36.6619,71.1277 36.6619,70.6037 L36.6619,70.6037 Z M29.2549,70.6037 C29.2549,70.0787 28.8289,69.6527 28.3049,69.6527 L25.6239,69.6527 C25.0999,69.6527 24.6739,70.0787 24.6739,70.6037 C24.6739,71.1277 25.0999,71.5537 25.6239,71.5537 L28.3049,71.5537 C28.8289,71.5537 29.2549,71.1277 29.2549,70.6037 L29.2549,70.6037 Z M36.6619,64.5127 C36.6619,63.9877 36.2359,63.5627 35.7119,63.5627 L33.0309,63.5627 C32.5069,63.5627 32.0809,63.9877 32.0809,64.5127 C32.0809,65.0367 32.5069,65.4627 33.0309,65.4627 L35.7119,65.4627 C36.2359,65.4627 36.6619,65.0367 36.6619,64.5127 L36.6619,64.5127 Z M29.2549,64.5127 C29.2549,63.9877 28.8289,63.5627 28.3049,63.5627 L25.6239,63.5627 C25.0999,63.5627 24.6739,63.9877 24.6739,64.5127 C24.6739,65.0367 25.0999,65.4627 25.6239,65.4627 L28.3049,65.4627 C28.8289,65.4627 29.2549,65.0367 29.2549,64.5127 L29.2549,64.5127 Z M36.6619,58.4207 C36.6619,57.8957 36.2359,57.4707 35.7119,57.4707 L33.0309,57.4707 C32.5069,57.4707 32.0809,57.8957 32.0809,58.4207 C32.0809,58.9447 32.5069,59.3707 33.0309,59.3707 L35.7119,59.3707 C36.2359,59.3707 36.6619,58.9447 36.6619,58.4207 L36.6619,58.4207 Z M29.2549,58.4207 C29.2549,57.8957 28.8289,57.4707 28.3049,57.4707 L25.6239,57.4707 C25.0999,57.4707 24.6739,57.8957 24.6739,58.4207 C24.6739,58.9447 25.0999,59.3707 25.6239,59.3707 L28.3049,59.3707 C28.8289,59.3707 29.2549,58.9447 29.2549,58.4207 L29.2549,58.4207 Z M36.6619,52.3297 C36.6619,51.8057 36.2359,51.3797 35.7119,51.3797 L33.0309,51.3797 C32.5069,51.3797 32.0809,51.8057 32.0809,52.3297 C32.0809,52.8537 32.5069,53.2797 33.0309,53.2797 L35.7119,53.2797 C36.2359,53.2797 36.6619,52.8537 36.6619,52.3297 L36.6619,52.3297 Z M29.2549,52.3297 C29.2549,51.8057 28.8289,51.3797 28.3049,51.3797 L25.6239,51.3797 C25.0999,51.3797 24.6739,51.8057 24.6739,52.3297 C24.6739,52.8537 25.0999,53.2797 25.6239,53.2797 L28.3049,53.2797 C28.8289,53.2797 29.2549,52.8537 29.2549,52.3297 L29.2549,52.3297 Z M36.6619,46.2377 C36.6619,45.7137 36.2359,45.2877 35.7119,45.2877 L33.0309,45.2877 C32.5069,45.2877 32.0809,45.7137 32.0809,46.2377 C32.0809,46.7627 32.5069,47.1877 33.0309,47.1877 L35.7119,47.1877 C36.2359,47.1877 36.6619,46.7627 36.6619,46.2377 L36.6619,46.2377 Z M28.3049,47.1877 L25.6239,47.1877 C25.0999,47.1877 24.6739,46.7627 24.6739,46.2377 C24.6739,45.7137 25.0999,45.2877 25.6239,45.2877 L28.3049,45.2877 C28.8289,45.2877 29.2549,45.7137 29.2549,46.2377 C29.2549,46.7627 28.8289,47.1877 28.3049,47.1877 L28.3049,47.1877 Z" id="Fill-14" fill="#343852"></path>
    </g>
</svg>