<?xml version="1.0" encoding="UTF-8"?>
<svg width="120px" height="120px" viewBox="0 0 120 120" version="1.1" xmlns="http://www.w3.org/2000/svg" xmlns:xlink="http://www.w3.org/1999/xlink">
    <title>02.Icons/Illustrative/Commander carte CPS</title>
    <g id="02.Icons/Illustrative/Commander-carte-CPS" stroke="none" stroke-width="1" fill="none" fill-rule="evenodd">
        <path d="M77,47 C77,26.5654643 60.4345357,10 40,10 C19.5654643,10 3,26.5654643 3,47 C3,67.4345357 19.5654643,84 40,84 C49.8130443,84 59.2242038,80.1019441 66.1630739,73.1630739 C73.1019441,66.2242038 77,56.8130443 77,47" id="Fill-1" fill="#F2F3F7"></path>
        <path d="M21.1252359,34.68953 L21.1252359,83.24018 C21.1236183,84.4478438 21.6026428,85.6065112 22.4565908,86.4604592 C23.3105388,87.3144072 24.4692062,87.7934317 25.67687,87.7918141 L106.08887,87.7918141 L106.08887,34.68953 L21.1252359,34.68953 Z" id="Fill-1-2" fill="#FFFFFF"></path>
        <path d="M102.21251,30.13791 L25.00162,30.13791 C23.9735411,30.13791 22.9875576,30.5462531 22.2605773,31.2731959 C21.533597,32.0001387 21.12515,32.9861011 21.12515,34.01418 L21.12515,49.50241 C21.12515,49.50241 26.46838,46.73901 37.43362,46.73901 C52.98652,46.97342 65.10237,53.3785 82.98987,53.3785 C100.87737,53.3785 106.0888,47.9852 106.0888,47.9852 L106.0888,34.0142 C106.0888,31.8733965 104.353313,30.13791 102.21251,30.13791" id="Fill-3" fill="#1D71B8"></path>
        <path d="M30.53057,36.03395 C29.850093,36.7342407 29.4658809,37.6699719 29.4579,38.64639 C29.4660813,39.6135071 29.8508676,40.5393587 30.53057,41.22739 C31.2678105,41.9293898 32.2528853,42.3111288 33.27065,42.28924 C33.818927,42.2733293 34.3593286,42.1545065 34.86372,41.93896 L34.86372,39.76154 C34.4663591,40.2355745 33.8785661,40.5080622 33.26003,40.50497 C32.7760897,40.5087753 32.3075462,40.3350291 31.94309,40.01662 C31.5765309,39.6505716 31.3702573,39.1539914 31.36958,38.63596 C31.3639272,38.0864566 31.5870831,37.5593595 31.98558,37.18096 C32.3328089,36.8643016 32.7904165,36.6965164 33.26004,36.71367 C33.8874936,36.7022808 34.4829248,36.9901387 34.86372,37.48896 L34.86372,35.29052 C34.3401628,35.0636536 33.777409,34.9410006 33.20693,34.9293898 C32.203105,34.9253996 31.2393885,35.3231255 30.53058,36.03395" id="Fill-17" fill="#FFFFFF"></path>
        <path d="M39.26043,38.07307 C39.035456,38.2345997 38.7615553,38.3133829 38.48514,38.29607 L37.86914,38.29607 L37.86914,36.53307 L38.49575,36.53307 C38.7811548,36.5104584 39.0638532,36.6021445 39.28166,36.78796 C39.4359634,36.9627674 39.5126282,37.192762 39.49407,37.42519 C39.5162847,37.6651227 39.4306682,37.902511 39.26042,38.07303 M38.96305,35.04625 L36.03181,35.04625 L36.03181,42.13007 L37.86915,42.13007 L37.86915,39.78297 L39.02678,39.78297 C39.6741686,39.8289389 40.3118925,39.6061154 40.78978,39.16697 C41.238762,38.6944787 41.4664575,38.0538355 41.41638,37.40397 C41.4597265,36.7616137 41.2190182,36.1325905 40.75792,35.68327 C40.2706581,35.2365119 39.6229434,35.0066365 38.96306,35.04627" id="Fill-19" fill="#FFFFFF"></path>
        <path d="M46.84342,38.51907 C46.4875977,38.1717775 46.0429675,37.9292356 45.55834,37.81807 L44.99546,37.64814 C44.7625635,37.6069936 44.5477083,37.4959316 44.37946,37.32972 C44.3101429,37.2384806 44.2761918,37.1252357 44.28388,37.01091 C44.2877197,36.863771 44.3532407,36.7250247 44.46443,36.62858 C44.6324099,36.484316 44.8484973,36.4084948 45.06979,36.41617 C45.5176333,36.4252415 45.9473105,36.5949184 46.28052,36.89428 L47.01333,35.46028 C46.3377401,35.1037603 45.5891315,34.9075859 44.82552,34.88696 C44.1548711,34.8568729 43.5003317,35.0979507 43.00942,35.55586 C42.5680707,36.012908 42.3338412,36.6311855 42.36157,37.26594 C42.3312719,37.7198044 42.4756567,38.1680775 42.76515,38.51894 C43.0502186,38.7943555 43.4013162,38.9918451 43.78472,39.09244 L44.26264,39.24113 C44.5884158,39.3044102 44.8986844,39.4307481 45.176,39.61304 C45.3030968,39.7175006 45.3770593,39.8731453 45.37778,40.03766 C45.3786124,40.2043053 45.3137474,40.3645672 45.19724,40.48372 C45.0048861,40.6614711 44.7466405,40.7501225 44.48567,40.72799 C43.8734128,40.6962351 43.2945786,40.4389775 42.86073,40.0058 L42.07482,41.49267 C42.4079601,41.7235436 42.7682186,41.9125881 43.14749,42.05555 C43.5925169,42.2199067 44.0644676,42.2991656 44.53877,42.2892 C45.3066167,42.3526475 46.0658006,42.0906226 46.63105,41.56707 C47.0907316,41.0901533 47.3328452,40.4444448 47.30005,39.78287 C47.3311824,39.3162792 47.1655744,38.8579604 46.84338,38.51904" id="Fill-21" fill="#FFFFFF"></path>
        <polygon id="Fill-23" fill="#DEE0EA" points="31.55605 64.54107 42.17605 64.54107 42.17605 56.12007 31.55605 56.12007"></polygon>
        <circle id="Oval" fill="#D20050" cx="89.393" cy="78.58939" r="20.05501"></circle>
        <polygon id="Path" fill="#FFFFFF" points="92.62405 75.08807 92.62405 68.10407 87.03705 68.10407 87.03705 75.08807 81.45005 75.08807 80.05405 75.08807 80.05405 80.67507 81.45005 80.67507 87.03705 80.67507 87.03705 87.65907 92.62405 87.65907 92.62405 80.67507 99.60805 80.67507 99.60805 75.08807"></polygon>
        <path d="M101.53713,28.99996 L25.67678,28.99996 C22.5360292,29.0035697 19.9908679,31.5487891 19.98733,34.68954 L19.98733,83.24014 C19.9908734,86.380887 22.5360331,88.9261004 25.67678,88.92971 L65.47978,88.92971 C66.1082303,88.92971 66.61769,88.4202503 66.61769,87.7918 C66.61769,87.1633497 66.1082303,86.65389 65.47978,86.65389 L25.67678,86.65389 C23.792345,86.6517241 22.2652765,85.1245752 22.26321,83.24014 L22.26321,49.91 C27.3351105,48.2567118 32.6478403,47.463476 37.98147,47.56313 C44.8323,47.56313 50.87502,48.99838 57.27273,50.51791 C64.73025,52.28907 72.44192,54.12069 82.57205,54.12069 C95.55862,54.12069 102.04617,51.36769 104.95095,49.50655 L104.95095,59.53664 C104.95095,60.1651069 105.460423,60.67458 106.08889,60.67458 C106.717357,60.67458 107.22683,60.1651069 107.22683,59.53664 L107.22683,34.68954 C107.223198,31.5487304 104.67794,29.0035254 101.53713,28.99996 Z M100.70852,49.11617 C95.08352,51.37148 87.74099,51.84487 82.57205,51.84487 C72.70852,51.84487 65.12893,50.0447 57.79861,48.30373 C51.26761,46.75253 45.0989,45.28732 37.98147,45.28732 C32.6578536,45.1938553 27.3529376,45.9427042 22.26321,47.50613 L22.26321,34.68954 C22.265271,32.8051009 23.7923411,31.2779459 25.67678,31.27578 L101.53713,31.27578 C103.421619,31.2779236 104.948773,32.8050514 104.95095,34.68954 L104.95095,46.67312 C103.69086,47.7297337 102.254874,48.5566623 100.70852,49.11617 Z M60.77174,61.635165 C61.1790778,61.6339625 61.5559913,61.8505814 61.7600096,62.2031465 C61.9640279,62.5557115 61.9640279,62.9904385 61.7600096,63.3430035 C61.5559913,63.6955686 61.1790778,63.9121875 60.77174,63.910985 L49.19355,63.910985 C48.5664194,63.9091209 48.0590133,63.4002084 48.0590133,62.773075 C48.0590133,62.1459416 48.5664194,61.6370291 49.19355,61.635165 L60.77174,61.635165 M49.18119,71.236785 C49.8083206,71.2386491 50.3157267,71.7475616 50.3157267,72.374695 C50.3157267,73.0018284 49.8083206,73.5107409 49.18119,73.512605 L31.42113,73.512605 C31.0137922,73.5138075 30.6368787,73.2971886 30.4328604,72.9446235 C30.2288421,72.5920585 30.2288421,72.1573315 30.4328604,71.8047665 C30.6368787,71.4522014 31.0137922,71.2355825 31.42113,71.236785 L49.18119,71.236785 M40.63735,75.798065 C41.0446878,75.7968625 41.4216013,76.0134814 41.6256196,76.3660465 C41.8296379,76.7186115 41.8296379,77.1533385 41.6256196,77.5059035 C41.4216013,77.8584686 41.0446878,78.0750875 40.63735,78.073885 L31.42105,78.073885 C30.7939194,78.0720209 30.2865133,77.5631084 30.2865133,76.935975 C30.2865133,76.3088416 30.7939194,75.7999291 31.42105,75.798065 L40.63735,75.798065 M43.51248,80.359515 C43.9198178,80.3583125 44.2967313,80.5749314 44.5007496,80.9274965 C44.7047679,81.2800615 44.7047679,81.7147885 44.5007496,82.0673535 C44.2967313,82.4199186 43.9198178,82.6365375 43.51248,82.635335 L31.42105,82.635335 C30.7939194,82.6334709 30.2865133,82.1245584 30.2865133,81.497425 C30.2865133,80.8702916 30.7939194,80.3613791 31.42105,80.359515 L43.51248,80.359515 M32.69395,63.40345 L41.0386,63.40345 L41.0386,57.258 L32.69395,57.258 L32.69395,63.40345 Z M42.1765,54.98217 L31.55605,54.98217 C30.9276402,54.9822783 30.41814,55.4916802 30.41814,56.12009 L30.41814,64.54135 C30.41814,65.1697261 30.9276739,65.67907 31.55605,65.67907 L42.1765,65.67907 C42.8048761,65.67907 43.31441,65.1697261 43.31441,64.54135 L43.31441,56.12007 C43.31441,55.4916602 42.8049098,54.98217 42.1765,54.98217 L42.1765,54.98217 Z M99.60814,74.05887 L93.6536,74.05887 L93.6536,68.10433 C93.6533186,67.5363002 93.1929098,67.0758914 92.62488,67.07561 L87.03722,67.07561 C86.4691879,67.0758859 86.0087759,67.5362979 86.0085,68.10433 L86.0085,74.05887 L80.05396,74.05887 C79.4859279,74.0591459 79.0255159,74.5195579 79.02524,75.08759 L79.02524,80.67525 C79.0255214,81.2432798 79.4859302,81.7036886 80.05396,81.70397 L86.0085,81.70397 L86.0085,87.65851 C86.0087759,88.2265421 86.4691879,88.6869541 87.03722,88.68723 L92.62488,88.68723 C93.1929098,88.6869486 93.6533186,88.2265398 93.6536,87.65851 L93.6536,81.70397 L99.60814,81.70397 C100.17617,81.7036886 100.636579,81.2432798 100.63686,80.67525 L100.63686,75.08759 C100.636584,74.5195579 100.176172,74.0591459 99.60814,74.05887 Z M98.57942,79.64653 L92.62488,79.64653 C92.0568502,79.6468114 91.5964414,80.1072202 91.59616,80.67525 L91.59616,86.62979 L88.06594,86.62979 L88.06594,80.67525 C88.0656586,80.1072202 87.6052498,79.6468114 87.03722,79.64653 L81.08268,79.64653 L81.08268,76.11631 L87.03722,76.11631 C87.6052498,76.1160286 88.0656586,75.6556198 88.06594,75.08759 L88.06594,69.13307 L91.59616,69.13307 L91.59616,75.08761 C91.5964414,75.6556398 92.0568502,76.1160486 92.62488,76.11633 L98.57942,76.11633 L98.57942,79.64653 Z M89.39282,59.67882 C99.7669699,59.67882 108.17688,68.0887301 108.17688,78.46288 C108.17688,88.8370299 99.7669699,97.24694 89.39282,97.24694 C79.0186701,97.24694 70.60876,88.8370299 70.60876,78.46288 C70.6204927,68.0935939 79.0235339,59.6905527 89.39282,59.67882 M89.39282,57.37882 C77.7484483,57.37882 68.30882,66.8184483 68.30882,78.46282 C68.30882,90.1071917 77.7484483,99.54682 89.39282,99.54682 C101.037192,99.54682 110.47682,90.1071917 110.47682,78.46282 C110.47682,66.8184483 101.037192,57.37882 89.39282,57.37882 L89.39282,57.37882 Z" id="Shape" fill="#343852"></path>
    </g>
</svg>