<?xml version="1.0" encoding="UTF-8"?>
<svg width="120px" height="120px" viewBox="0 0 120 120" version="1.1" xmlns="http://www.w3.org/2000/svg" xmlns:xlink="http://www.w3.org/1999/xlink">
    <title>02.Icons/Illustrative/Consulter mes demandes en cours</title>
    <g id="02.Icons/Illustrative/Consulter-mes-demandes-en-cours" stroke="none" stroke-width="1" fill="none" fill-rule="evenodd">
        <path d="M79.8229,45.405 C79.8229,27.508 65.3149,13 47.4179,13 C29.5209,13 15.0129,27.508 15.0129,45.405 C15.0129,63.302 29.5209,77.81 47.4179,77.81 C65.3149,77.81 79.8229,63.302 79.8229,45.405" id="Fill-1" fill="#F2F3F7"></path>
        <path d="M53.8988,81.0506 L53.8988,85.9116 L53.8988,90.7726 L42.5568,90.7726 C42.5568,88.0496 40.3538,85.9116 37.6318,85.9116 L24.7338,85.9116 L24.7338,81.0506 L16.6328,81.0506 L15.0128,81.0506 L15.0128,74.5696 C15.0128,67.4086 20.8138,61.6076 27.9748,61.6076 L29.5948,61.6076 C30.9728,65.4806 34.8928,68.0886 39.3168,68.0886 C43.7398,68.0886 47.6608,65.4806 49.0378,61.6076 C56.1998,61.6076 61.9998,67.4086 61.9998,74.5696 L61.9998,81.0506 L61.5948,81.0506 L58.9538,81.0506 L53.8988,81.0506 Z" id="Fill-3" fill="#1D71B8"></path>
        <polygon id="Fill-5" fill="#FFFFFF" points="61.595 81.0506 61.595 88.3416 60.38 90.7726 60.364 90.7726 54.401 90.7726 53.899 90.7726 53.899 85.9116 53.899 81.0506 58.954 81.0506"></polygon>
        <path d="M105.1147,71.7183 C104.9687,71.4743 104.7097,71.3293 104.4347,71.3293 L72.0937,71.3293 C70.8787,71.3293 69.7447,72.0263 69.2107,73.1113 L61.5947,88.3413 L60.3797,90.7723 L60.3637,90.7723 L54.4007,90.7723 L53.8987,90.7723 L42.5567,90.7723 L32.8357,90.7723 L32.8357,94.0123 C32.8357,95.7953 34.2937,97.2533 36.0757,97.2533 L57.1397,97.2533 L90.7757,97.2533 C92.0067,97.2533 93.1247,96.5563 93.6757,95.4553 L105.1637,72.5123 C105.2767,72.2523 105.2767,71.9613 105.1147,71.7183" id="Fill-7" fill="#DEE0EA"></path>
        <path d="M49.038,29.2024 C49.038,29.2024 52.279,31.5034 52.279,35.6834 C52.279,39.8634 48.908,42.3264 48.908,42.3264 C48.908,42.3264 48.908,42.3104 48.892,42.2774 C48.649,41.7594 46.672,37.7084 42.557,37.7084 C38.166,37.7084 36.076,42.1644 36.076,42.1644 C30.502,41.2574 30.324,47.6404 32.835,48.6454 C32.835,48.6454 29.595,48.6454 29.595,40.5444 C29.595,30.9194 40.807,30.8224 42.557,30.8224 C47.612,30.8224 49.038,29.2024 49.038,29.2024" id="Fill-9" fill="#C5C8DA"></path>
        <path d="M42.557,90.7721 C42.557,88.0501 40.354,85.9111 37.631,85.9111 L24.734,85.9111 L24.734,81.0501 L16.633,81.0501 L16.633,87.5311 C16.633,91.1121 19.533,94.0131 23.114,94.0131 L26.339,94.0131 L32.835,94.0131 L32.835,90.7721 L42.557,90.7721 M49.038,43.7851 L49.038,48.6451 C49.038,53.1171 45.408,56.7471 40.937,56.7471 C36.465,56.7471 32.835,53.1171 32.835,48.6451 C30.325,47.6411 30.502,41.2571 36.076,42.1641 C36.076,42.1641 38.166,37.7091 42.557,37.7091 C46.672,37.7091 48.649,41.7591 48.892,42.2781 C48.908,42.3101 48.908,42.3271 48.908,42.3271 C48.99,42.7971 49.038,43.2821 49.038,43.7851" id="Fill-11" fill="#FFFFFF"></path>
        <path d="M91.1616,45.9473 L94.1996,47.2833 C92.2696,49.4783 89.4406,50.8643 86.2876,50.8643 C80.4716,50.8643 75.7576,46.1503 75.7576,40.3343 L69.6036,40.3343 C69.6036,49.5493 77.0726,57.0193 86.2876,57.0193 C91.7676,57.0193 96.6316,54.3763 99.6726,50.2963 L102.8116,52.0433 L100.1216,42.8403 L91.1616,45.9473 Z" id="Fill-13" fill="#DEE0EA"></path>
        <path d="M86.2875,22.6501 C80.7825,22.6501 75.9015,25.3161 72.8625,29.4261 C72.0155,29.0851 69.7835,28.0201 69.7835,28.0201 L72.4905,37.0691 L81.2175,33.8261 C81.2175,33.8261 78.8955,32.6401 78.3285,32.4401 C80.2585,30.2131 83.1085,28.8041 86.2875,28.8041 C92.1035,28.8041 96.8175,33.5191 96.8175,39.3341 L102.9715,39.3341 C102.9715,30.1201 95.5025,22.6501 86.2875,22.6501" id="Fill-15" fill="#D20050"></path>
        <path d="M86.3728,56.0684 C78.0708,56.0684 71.2778,49.5604 70.7818,41.3794 L74.9628,41.3794 C75.4488,47.2534 80.3758,51.8884 86.3728,51.8884 C89.6158,51.8884 92.7188,50.5054 94.8888,48.0944 C94.8928,48.0904 94.8958,48.0874 94.8998,48.0834 C94.9008,48.0814 94.9038,48.0804 94.9048,48.0784 C94.9098,48.0724 94.9108,48.0654 94.9148,48.0604 C94.9668,48.0014 95.0138,47.9374 95.0508,47.8634 C95.0598,47.8444 95.0578,47.8234 95.0658,47.8044 C95.0918,47.7434 95.1028,47.6834 95.1148,47.6204 C95.1258,47.5604 95.1398,47.5034 95.1398,47.4444 C95.1398,47.3844 95.1268,47.3274 95.1148,47.2684 C95.1038,47.2074 95.0938,47.1494 95.0708,47.0914 C95.0498,47.0374 95.0168,46.9904 94.9848,46.9404 C94.9498,46.8854 94.9148,46.8324 94.8688,46.7854 C94.8538,46.7704 94.8488,46.7504 94.8328,46.7364 C94.7988,46.7064 94.7558,46.6944 94.7178,46.6694 C94.6828,46.6454 94.6578,46.6114 94.6178,46.5914 L93.5668,46.0734 L99.4538,43.9034 L101.3598,50.1344 L100.1778,49.4684 C100.1378,49.4454 100.0928,49.4434 100.0508,49.4274 C99.9918,49.4044 99.9358,49.3814 99.8748,49.3704 C99.8128,49.3594 99.7538,49.3604 99.6918,49.3624 C99.6318,49.3634 99.5748,49.3634 99.5158,49.3764 C99.4548,49.3894 99.3998,49.4134 99.3418,49.4374 C99.2878,49.4604 99.2348,49.4824 99.1858,49.5164 C99.1328,49.5514 99.0898,49.5974 99.0438,49.6434 C99.0128,49.6744 98.9738,49.6944 98.9468,49.7304 C96.0068,53.6994 91.3058,56.0684 86.3728,56.0684 L86.3728,56.0684 Z M103.8978,52.1284 C103.8978,52.0384 103.8968,51.9484 103.8718,51.8624 C103.8708,51.8594 103.8718,51.8554 103.8708,51.8514 L100.9768,42.3864 C100.9738,42.3774 100.9668,42.3724 100.9638,42.3634 C100.9608,42.3544 100.9628,42.3444 100.9598,42.3354 C100.9398,42.2824 100.9018,42.2434 100.8738,42.1964 C100.8418,42.1414 100.8158,42.0834 100.7748,42.0364 C100.7368,41.9944 100.6898,41.9664 100.6448,41.9314 C100.5928,41.8904 100.5438,41.8454 100.4838,41.8164 C100.4378,41.7934 100.3868,41.7864 100.3368,41.7714 C100.2698,41.7504 100.2058,41.7264 100.1348,41.7214 C100.0768,41.7174 100.0188,41.7324 99.9608,41.7384 C99.9038,41.7454 99.8478,41.7384 99.7908,41.7554 C99.7818,41.7584 99.7758,41.7654 99.7668,41.7684 C99.7578,41.7714 99.7488,41.7694 99.7398,41.7724 L90.8558,45.0474 C90.8558,45.0474 90.8558,45.0474 90.8548,45.0474 L90.8338,45.0554 C90.7938,45.0704 90.7658,45.1004 90.7288,45.1204 C90.6588,45.1574 90.5878,45.1904 90.5278,45.2434 C90.4718,45.2944 90.4348,45.3584 90.3928,45.4194 C90.3668,45.4574 90.3308,45.4854 90.3098,45.5274 C90.3078,45.5314 90.3078,45.5354 90.3058,45.5394 C90.2688,45.6174 90.2558,45.7024 90.2408,45.7884 C90.2338,45.8254 90.2158,45.8604 90.2138,45.8974 C90.2118,45.9384 90.2278,45.9804 90.2308,46.0224 C90.2378,46.1044 90.2408,46.1864 90.2688,46.2634 C90.2698,46.2674 90.2688,46.2714 90.2698,46.2764 C90.3088,46.3804 90.3668,46.4714 90.4338,46.5524 C90.4498,46.5724 90.4718,46.5864 90.4888,46.6044 C90.5528,46.6694 90.6228,46.7244 90.7018,46.7684 C90.7168,46.7764 90.7258,46.7914 90.7418,46.7994 L92.5648,47.6974 C90.8458,49.1604 88.6538,49.9874 86.3728,49.9874 C81.1018,49.9874 76.8148,45.6994 76.8148,40.4294 C76.8148,39.9044 76.3898,39.4794 75.8648,39.4794 C75.8458,39.4794 75.8298,39.4884 75.8108,39.4904 C75.7928,39.4884 75.7768,39.4794 75.7578,39.4794 L69.7838,39.4794 C69.2598,39.4794 68.8338,39.9044 68.8338,40.4294 C68.8338,50.1004 76.7018,57.9684 86.3728,57.9684 C91.6238,57.9684 96.6358,55.5714 99.9528,51.5234 L102.4958,52.9574 C102.5328,52.9774 102.5718,52.9874 102.6108,53.0034 C102.6378,53.0144 102.6638,53.0274 102.6918,53.0364 C102.7808,53.0624 102.8708,53.0794 102.9618,53.0794 C102.9618,53.0794 102.9618,53.0794 102.9618,53.0794 C102.9628,53.0794 102.9628,53.0794 102.9628,53.0794 C102.9648,53.0794 102.9668,53.0784 102.9688,53.0784 C103.0558,53.0784 103.1418,53.0644 103.2238,53.0404 C103.2298,53.0394 103.2348,53.0394 103.2398,53.0384 C103.2518,53.0344 103.2598,53.0254 103.2708,53.0214 C103.3648,52.9884 103.4518,52.9404 103.5318,52.8804 C103.5518,52.8654 103.5718,52.8514 103.5908,52.8354 C103.6668,52.7674 103.7368,52.6904 103.7898,52.5964 C103.7918,52.5924 103.7918,52.5884 103.7938,52.5844 C103.8338,52.5114 103.8518,52.4284 103.8718,52.3454 C103.8808,52.3074 103.9018,52.2704 103.9058,52.2314 C103.9098,52.1984 103.8978,52.1634 103.8978,52.1284 L103.8978,52.1284 Z M86.3728,23.7904 C94.6758,23.7904 101.4688,30.2984 101.9648,38.4794 L97.7838,38.4794 C97.2978,32.6044 92.3708,27.9704 86.3728,27.9704 C83.1348,27.9704 80.0468,29.3494 77.8738,31.7514 C77.8728,31.7524 77.8718,31.7534 77.8708,31.7544 C77.8478,31.7804 77.8208,31.8024 77.7978,31.8284 C77.7668,31.8634 77.7558,31.9064 77.7308,31.9434 C77.7048,31.9824 77.6688,32.0114 77.6478,32.0554 C77.6398,32.0724 77.6428,32.0904 77.6348,32.1084 C77.6108,32.1694 77.6008,32.2324 77.5898,32.2964 C77.5788,32.3554 77.5658,32.4114 77.5658,32.4694 C77.5668,32.5304 77.5818,32.5874 77.5938,32.6474 C77.6058,32.7074 77.6148,32.7654 77.6388,32.8214 C77.6608,32.8754 77.6958,32.9214 77.7288,32.9714 C77.7648,33.0264 77.7978,33.0794 77.8448,33.1264 C77.8578,33.1394 77.8638,33.1574 77.8778,33.1694 C77.9138,33.2014 77.9588,33.2134 77.9978,33.2394 C78.0358,33.2644 78.0628,33.2994 78.1048,33.3184 L78.8788,33.6824 L73.1168,35.8234 L71.3558,29.8034 L72.5108,30.4624 C72.5888,30.5064 72.6718,30.5374 72.7558,30.5584 C72.7648,30.5604 72.7748,30.5594 72.7838,30.5614 C72.8488,30.5754 72.9148,30.5874 72.9798,30.5874 C73.0168,30.5874 73.0508,30.5774 73.0868,30.5734 C73.1098,30.5704 73.1318,30.5684 73.1548,30.5644 C73.2628,30.5444 73.3678,30.5094 73.4628,30.4534 C73.4708,30.4494 73.4768,30.4424 73.4848,30.4374 C73.5708,30.3834 73.6458,30.3124 73.7128,30.2304 C73.7228,30.2174 73.7378,30.2114 73.7478,30.1984 C76.6858,26.1854 81.4058,23.7904 86.3728,23.7904 L86.3728,23.7904 Z M68.8458,27.7674 C68.8408,27.8694 68.8438,27.9714 68.8708,28.0694 C68.8718,28.0724 68.8708,28.0754 68.8718,28.0784 L71.5788,37.3364 C71.5828,37.3484 71.5918,37.3584 71.5958,37.3704 C71.5988,37.3804 71.5968,37.3904 71.6008,37.4004 C71.6168,37.4454 71.6458,37.4804 71.6678,37.5204 C71.6898,37.5594 71.7068,37.6014 71.7328,37.6364 C71.7688,37.6844 71.8128,37.7224 71.8558,37.7624 C71.8848,37.7884 71.9098,37.8184 71.9408,37.8404 C71.9948,37.8794 72.0558,37.9054 72.1158,37.9314 C72.1448,37.9444 72.1708,37.9624 72.1998,37.9724 C72.2938,38.0024 72.3908,38.0194 72.4908,38.0194 C72.5788,38.0194 72.6688,38.0074 72.7578,37.9814 C72.7678,37.9784 72.7748,37.9704 72.7848,37.9664 C72.7968,37.9624 72.8098,37.9644 72.8218,37.9604 L81.6618,34.6744 C81.6798,34.6684 81.6908,34.6534 81.7078,34.6464 C81.7908,34.6104 81.8658,34.5634 81.9358,34.5044 C81.9578,34.4864 81.9808,34.4704 81.9998,34.4504 C82.0758,34.3754 82.1428,34.2904 82.1908,34.1884 C82.1918,34.1864 82.1918,34.1844 82.1928,34.1824 C82.2438,34.0704 82.2748,33.9494 82.2798,33.8244 C82.2848,33.6984 82.2648,33.5744 82.2218,33.4574 C82.2218,33.4564 82.2218,33.4544 82.2218,33.4534 C82.2088,33.4194 82.1828,33.3964 82.1668,33.3654 C82.1268,33.2864 82.0888,33.2074 82.0278,33.1424 C81.9668,33.0764 81.8918,33.0304 81.8158,32.9844 C81.7858,32.9664 81.7658,32.9394 81.7338,32.9244 L81.7258,32.9204 L81.7258,32.9204 L80.1558,32.1834 C81.8788,30.7074 84.0788,29.8714 86.3728,29.8714 C91.6438,29.8714 95.9318,34.1584 95.9318,39.4294 C95.9318,39.9544 96.3568,40.3794 96.8818,40.3794 L102.9628,40.3794 C103.4868,40.3794 103.9128,39.9544 103.9128,39.4294 C103.9128,29.7574 96.0448,21.8894 86.3728,21.8894 C81.0878,21.8894 76.0548,24.3124 72.7378,28.4044 L70.2548,26.9864 C70.2528,26.9854 70.2498,26.9854 70.2478,26.9844 C70.0818,26.8904 69.8888,26.8644 69.6918,26.8844 C69.6378,26.8894 69.5818,26.8844 69.5288,26.8994 C69.5248,26.9004 69.5208,26.8984 69.5178,26.9004 C69.4628,26.9164 69.4208,26.9514 69.3718,26.9764 C69.3128,27.0054 69.2518,27.0264 69.1988,27.0664 C69.1338,27.1184 69.0868,27.1844 69.0378,27.2504 C69.0138,27.2824 68.9798,27.3044 68.9588,27.3404 C68.9568,27.3434 68.9568,27.3464 68.9558,27.3494 C68.9078,27.4354 68.8828,27.5314 68.8638,27.6284 C68.8588,27.6524 68.8438,27.6754 68.8408,27.7004 C68.8378,27.7224 68.8468,27.7454 68.8458,27.7674 L68.8458,27.7674 Z M30.6078,40.5444 C30.6078,32.6844 38.9638,31.8354 42.5568,31.8354 C46.0798,31.8354 48.0238,31.0734 48.9928,30.4944 C49.8138,31.2854 51.2658,33.0584 51.2658,35.6834 C51.2658,38.0074 50.0408,39.7534 49.1678,40.7034 C48.1548,39.1344 46.0228,36.6964 42.5568,36.6964 C38.6248,36.6964 36.3488,39.7124 35.5188,41.0804 C33.0298,40.9064 31.5148,42.0784 30.7948,43.5064 C30.6778,42.6814 30.6078,41.7024 30.6078,40.5444 L30.6078,40.5444 Z M48.0258,48.6454 C48.0258,52.5544 44.8458,55.7344 40.9368,55.7344 C37.0278,55.7344 33.8478,52.5544 33.8478,48.6454 C33.8478,48.6204 33.8358,48.5994 33.8338,48.5754 C33.8288,48.4954 33.8108,48.4204 33.7878,48.3444 C33.7728,48.2994 33.7628,48.2544 33.7418,48.2114 C33.7068,48.1394 33.6598,48.0764 33.6088,48.0144 C33.5818,47.9814 33.5608,47.9444 33.5298,47.9154 C33.4648,47.8524 33.3858,47.8064 33.3048,47.7624 C33.2748,47.7474 33.2508,47.7234 33.2198,47.7104 C33.2168,47.7094 33.2148,47.7064 33.2118,47.7054 C32.4828,47.4134 32.0938,46.0584 32.4118,44.9154 C32.6418,44.0864 33.4038,42.7554 35.9138,43.1644 C36.3578,43.2354 36.7978,43.0034 36.9918,42.5974 C37.0098,42.5584 38.8798,38.7214 42.5568,38.7214 C45.7698,38.7214 47.4918,41.7294 47.9238,42.6024 C47.9898,43.0094 48.0258,43.3984 48.0258,43.7844 L48.0258,48.6454 Z M31.8628,49.4224 C32.2588,54.0854 36.1738,57.7594 40.9368,57.7594 C45.9618,57.7594 50.0508,53.6714 50.0508,48.6454 L50.0508,43.7844 C50.0508,43.4414 50.0238,43.0954 49.9848,42.7464 C51.0038,41.8314 53.2908,39.3714 53.2908,35.6834 C53.2908,31.0334 49.7738,28.4834 49.6238,28.3764 C49.1858,28.0654 48.6218,28.1034 48.2878,28.5204 C48.1498,28.6444 46.7358,29.8104 42.5568,29.8104 C39.7748,29.8104 37.1748,30.2684 35.0388,31.1364 C30.8148,32.8514 28.5818,36.1054 28.5818,40.5444 C28.5818,46.9794 30.5928,48.8674 31.8628,49.4224 L31.8628,49.4224 Z M92.7698,95.0024 C92.3878,95.7664 91.6238,96.2404 90.7758,96.2404 L58.7778,96.2404 L70.1188,73.5584 C70.4828,72.8194 71.2578,72.3414 72.0938,72.3414 L104.1168,72.3414 L92.7698,95.0024 Z M17.6458,87.5314 L17.6458,82.0634 L23.7218,82.0634 L23.7218,85.9114 C23.7218,86.4704 24.1748,86.9244 24.7338,86.9244 L37.6318,86.9244 C39.4658,86.9244 40.9518,88.1114 41.3958,89.7594 L32.8358,89.7594 C32.2768,89.7594 31.8228,90.2124 31.8228,90.7724 L31.8228,93.0004 L23.1138,93.0004 C20.0988,93.0004 17.6458,90.5464 17.6458,87.5314 L17.6458,87.5314 Z M16.0258,74.5694 C16.0258,67.9804 21.3858,62.6204 27.9748,62.6204 L28.9078,62.6204 C30.6228,66.5254 34.7128,69.1014 39.3168,69.1014 C43.9128,69.1014 47.9968,66.5334 49.7168,62.6394 C55.9308,62.9884 60.8828,68.1094 60.9788,74.3864 C60.9668,74.4484 60.9418,74.5044 60.9418,74.5694 L60.9418,80.0374 L58.9538,80.0374 L55.2788,80.0374 L53.2908,80.0374 L53.2908,74.5694 C53.2908,74.0104 52.8378,73.5564 52.2788,73.5564 C51.7198,73.5564 51.2658,74.0104 51.2658,74.5694 L51.2658,81.0504 C51.2658,81.6094 51.7198,82.0634 52.2788,82.0634 L52.8858,82.0634 L52.8858,89.7594 L43.4748,89.7594 C42.9878,87.0024 40.5558,84.8984 37.6318,84.8984 L25.7468,84.8984 L25.7468,82.0634 L26.3548,82.0634 C26.9138,82.0634 27.3668,81.6094 27.3668,81.0504 L27.3668,74.5694 C27.3668,74.0104 26.9138,73.5564 26.3548,73.5564 C25.7948,73.5564 25.3418,74.0104 25.3418,74.5694 L25.3418,80.0374 L16.0258,80.0374 L16.0258,74.5694 Z M105.9708,71.1774 C105.6438,70.6454 105.0568,70.3164 104.4348,70.3164 L72.0938,70.3164 C70.4918,70.3164 69.0038,71.2384 68.3048,72.6584 L56.5138,96.2404 L36.0758,96.2404 C34.8478,96.2404 33.8478,95.2414 33.8478,94.0124 L33.8478,91.7844 L53.8988,91.7844 C54.3268,91.7844 54.6878,91.5184 54.8368,91.1434 C54.8838,91.1134 54.9118,91.0454 54.9118,90.9114 L54.9118,82.0634 L55.2788,82.0634 L58.9538,82.0634 L61.9538,82.0634 C62.5138,82.0634 62.9668,81.6094 62.9668,81.0504 L62.9668,74.7964 C62.9848,74.7214 63.0128,74.6504 63.0128,74.5694 C63.0128,66.8634 56.7438,60.5944 49.0378,60.5944 C48.6098,60.5944 48.2278,60.8644 48.0838,61.2684 C46.8488,64.7424 43.3248,67.0764 39.3168,67.0764 C35.3078,67.0764 31.7848,64.7424 30.5488,61.2684 C30.4058,60.8644 30.0238,60.5944 29.5948,60.5944 L27.9748,60.5944 C20.2688,60.5944 13.9998,66.8634 13.9998,74.5694 L13.9998,81.0504 C13.9998,81.6094 14.4538,82.0634 15.0128,82.0634 L15.6208,82.0634 L15.6208,87.5314 C15.6208,91.6634 18.9818,95.0254 23.1138,95.0254 L31.9578,95.0254 C32.4158,96.8804 34.0808,98.2654 36.0758,98.2654 L57.1398,98.2654 L90.7758,98.2654 C92.3958,98.2654 93.8538,97.3624 94.5808,95.9084 L106.0688,72.9654 C106.0778,72.9494 106.0848,72.9334 106.0918,72.9164 C106.3458,72.3344 106.2998,71.6864 105.9708,71.1774 L105.9708,71.1774 Z" id="Fill-17" fill="#343852"></path>
    </g>
</svg>