<?xml version="1.0" encoding="UTF-8"?>
<svg width="120px" height="120px" viewBox="0 0 120 120" version="1.1" xmlns="http://www.w3.org/2000/svg" xmlns:xlink="http://www.w3.org/1999/xlink">
    <title>02.Icons/Illustrative/Consulter carte CPS</title>
    <g id="02.Icons/Illustrative/Consulter-carte-CPS" stroke="none" stroke-width="1" fill="none" fill-rule="evenodd">
        <path d="M40.3198,89.2694 L40.31762,89.2694 C20.81193,89.2694 5,73.71307 5,54.52269 L5,14 C7.76135,17.025 13.3058,19.6004 24.56118,19.77488 L40.3198,19.77488 C59.82549,19.77488 75.63742,35.33121 75.63742,54.52267 C75.63742,73.71305 59.82549,89.2694 40.3198,89.2694" id="Fill-12" fill="#F2F3F7"></path>
        <path d="M38.305,32.27603 C37.77538,32.27603 37.2979101,32.5950659 37.0952342,33.0843713 C36.8925584,33.5736767 37.0045903,34.136891 37.3790896,34.5113874 C37.7535889,34.8858839 38.3168041,34.9979115 38.8061079,34.7952319 C39.2954118,34.5925524 39.61444,34.11508 39.61444,33.58546 C39.6123256,32.8631555 39.0273045,32.2781389 38.305,32.27603 Z M27.82949,34.8949 C28.35911,34.8949 28.8365824,34.5758718 29.0392619,34.0865679 C29.2419415,33.5972641 29.1299139,33.0340489 28.7554174,32.6595496 C28.380921,32.2850503 27.8177067,32.1730184 27.3284013,32.3756942 C26.8390959,32.5783701 26.52006,33.05584 26.52006,33.58546 C26.5221689,34.3077645 27.1071855,34.8927856 27.82949,34.8949 Z M34.37669,33.58546 C34.37669,32.8622763 33.7904337,32.27602 33.06725,32.27602 C32.3440663,32.27602 31.75781,32.8622763 31.75781,33.58546 C31.75781,34.3086437 32.3440663,34.8949 33.06725,34.8949 C33.7895779,34.8928185 34.3746309,34.3077878 34.37674,33.58546 L34.37669,33.58546 Z M98.5391636,37.51378 L19.9728565,37.51378 L19.9728565,33.58546 C19.9714642,32.5431784 20.3848917,31.5431847 21.1218977,30.8061806 C21.8589037,30.0691765 22.8588984,29.6557516 23.90118,29.6571464 L94.61085,29.6571464 C95.6531347,29.6557383 96.6531362,30.0691592 97.3901435,30.8061665 C98.1271508,31.5431738 98.5405717,32.5431753 98.5391636,33.58546 L98.5391636,37.51378 Z" id="Shape" fill="#1D71B8"></path>
        <path d="M25.21052,37.51378 L19.9727367,37.51378 L19.9727367,85.96299 C19.9713948,87.0052803 20.3848597,88.0052653 21.1218878,88.7422596 C21.8589158,89.4792539 22.8589198,89.892673 23.90121,89.8912835 L94.61091,89.8912835 C95.6531757,89.8926678 96.653151,89.479239 97.3901382,88.7422387 C98.1271254,88.0052383 98.5405364,87.0052557 98.5391336,85.96299 L98.5391336,37.51378 L25.21052,37.51378 Z" id="Path" fill="#FFFFFF"></path>
        <rect id="Rectangle" fill="#EDEEF3" x="23.90125" y="41.44206" width="70.70946" height="44.52092"></rect>
        <path d="M38.305,32.27603 C38.83462,32.27603 39.3120899,32.5950659 39.5147658,33.0843713 C39.7174416,33.5736767 39.6054097,34.136891 39.2309104,34.5113874 C38.8564111,34.8858839 38.2931959,34.9979115 37.8038921,34.7952319 C37.3145882,34.5925524 36.99556,34.11508 36.99556,33.58546 C36.9976744,32.8631555 37.5826955,32.2781389 38.305,32.27603 Z M31.75781,33.58546 C31.75781,34.11508 32.0768382,34.5925524 32.5661421,34.7952319 C33.0554459,34.9979115 33.6186611,34.8858839 33.9931604,34.5113874 C34.3676597,34.136891 34.4796916,33.5736767 34.2770158,33.0843713 C34.0743399,32.5950659 33.59687,32.27603 33.06725,32.27603 C32.3449478,32.2781444 31.7599299,32.8631578 31.75781,33.58546 Z M26.52006,33.58546 C26.52006,34.1150809 26.8390893,34.5925539 27.3283944,34.7952329 C27.8176995,34.9979119 28.3809154,34.8858824 28.7554139,34.5113839 C29.1299124,34.1368854 29.2419419,33.5736695 29.0392629,33.0843644 C28.8365839,32.5950593 28.3591109,32.27603 27.82949,32.27603 C27.1071894,32.2781444 26.5221744,32.8631594 26.52006,33.58546 L26.52006,33.58546 Z" id="Shape" fill="#FFFFFF"></path>
        <path d="M38.22655,49.69617 L38.22655,75.33355 C38.206417,75.9511024 38.4325254,76.5513421 38.8550983,77.0021286 C39.2776711,77.4529151 39.8620658,77.7172928 40.47963,77.73706 L80.28417,77.73706 L80.28417,49.69617 L38.22655,49.69617 Z" id="Fill-1" fill="#FFFFFF"></path>
        <path d="M78.36533,49.19796 L40.14538,49.19796 C39.6364738,49.19796 39.1484051,49.4000924 38.7885447,49.759934 C38.4286843,50.1197756 38.2265,50.6078338 38.2265,51.11674 L38.2265,58.78353 C38.2265,58.78353 40.87144,57.41562 46.29931,57.41562 C53.99811,57.53162 59.99554,60.70222 68.84999,60.70222 C77.70444,60.70222 80.28412,58.0325 80.28412,58.0325 L80.28412,51.11674 C80.28412,50.0570277 79.4250423,49.19796 78.36533,49.19796" id="Fill-3" fill="#D20050"></path>
        <path d="M42.88225,52.11654 C42.5454036,52.4631884 42.3552088,52.9263827 42.35125,53.40972 C42.3553103,53.8884449 42.5457896,54.3467393 42.88225,54.68731 C43.2471899,55.0348041 43.7348085,55.2237709 44.23861,55.21294 C44.510013,55.2050619 44.777517,55.1462407 45.02719,55.03954 L45.02719,53.96172 C44.8304928,54.1963666 44.5395305,54.3312479 44.23335,54.32972 C43.9937977,54.3315992 43.761868,54.2455928 43.58146,54.08798 C43.4000103,53.9067823 43.2979039,53.6609702 43.29757,53.40454 C43.2947659,53.1325332 43.4052289,52.8716162 43.60249,52.68431 C43.7743669,52.527559 44.0008839,52.444501 44.23335,52.45299 C44.5439472,52.4473528 44.8386926,52.5898468 45.02719,52.83677 L45.02719,51.74853 C44.7680211,51.6362363 44.4894525,51.5755248 44.20706,51.5697751 C43.7101609,51.5678038 43.2331166,51.7646803 42.88225,52.11654" id="Fill-17" fill="#FFFFFF"></path>
        <path d="M47.2036,53.12592 C47.0922348,53.2058811 46.9566507,53.2448838 46.81982,53.23632 L46.5149,53.23632 L46.5149,52.36363 L46.82508,52.36363 C46.9663466,52.3524449 47.1062716,52.3978288 47.21408,52.4898 C47.2904596,52.5763303 47.3284077,52.6901782 47.31922,52.80523 C47.3302201,52.9239986 47.2878423,53.0415093 47.20357,53.12592 M47.05636,51.62762 L45.60536,51.62762 L45.60536,55.13417 L46.51485,55.13417 L46.51485,53.97233 L47.08785,53.97233 C47.408309,53.9950856 47.7239843,53.8847879 47.96054,53.66741 C48.1827935,53.4335286 48.2955079,53.1164072 48.27072,52.79472 C48.2921793,52.4767469 48.1730235,52.1653735 47.94477,51.94296 C47.7035766,51.7218007 47.3829509,51.6080028 47.0563,51.62762" id="Fill-19" fill="#FFFFFF"></path>
        <path d="M50.95723,53.34668 C50.7810952,53.17477 50.561002,53.0547104 50.32111,52.99968 L50.04248,52.91557 C49.9271935,52.8952032 49.8208389,52.8402226 49.73756,52.75794 C49.7032436,52.7127788 49.6864347,52.6567221 49.69024,52.60013 C49.6921446,52.5272936 49.7245799,52.4586126 49.77962,52.41087 C49.8627736,52.339461 49.9697386,52.3019308 50.07928,52.30573 C50.3009655,52.3102231 50.5136581,52.3942149 50.6786,52.5424 L51.04134,51.83258 C50.7069126,51.6560985 50.3363391,51.5589931 49.95834,51.54879 C49.6263576,51.5338889 49.3023476,51.6532248 49.05934,51.8799 C48.840868,52.1061407 48.7249227,52.4121924 48.73865,52.7264 C48.7236506,52.9510704 48.7951201,53.1729738 48.93842,53.34666 C49.0795352,53.4829854 49.2533273,53.580744 49.44311,53.63055 L49.67969,53.70415 C49.8409512,53.7354707 49.9945366,53.7980062 50.13181,53.88824 C50.194725,53.9399519 50.2313362,54.0170011 50.23169,54.09844 C50.232106,54.1809308 50.1999961,54.2602623 50.14232,54.31924 C50.0471037,54.4072266 49.9192709,54.4511078 49.79009,54.44015 C49.4870197,54.4244329 49.2004941,54.2970878 48.98574,54.08266 L48.59674,54.81866 C48.7616496,54.9329516 48.9399879,55.0265305 49.12774,55.09729 C49.3480325,55.1786527 49.5816544,55.217887 49.81644,55.21295 C50.196526,55.2443412 50.5723179,55.1146263 50.85211,54.85546 C51.0796734,54.619384 51.1995363,54.299746 51.18331,53.97225 C51.1987166,53.7412853 51.1167379,53.5144167 50.95725,53.34665" id="Fill-21" fill="#FFFFFF"></path>
        <polygon id="Fill-23" fill="#DEE0EA" points="43.38974 66.2284 48.64674 66.2284 48.64674 62.0594 43.38974 62.0594"></polygon>
        <path d="M77.98074,48.3844 L40.531,48.3844 C38.8099153,48.3862354 37.4151598,49.7809953 37.41333,51.50208 L37.41333,75.43277 C37.4153858,77.1536816 38.8100881,78.5481691 40.531,78.54996 L77.98074,78.54996 C79.7016558,78.5481746 81.0963642,77.1536855 81.09842,75.43277 L81.09842,51.50211 C81.0966067,49.7810097 79.7018403,48.3862299 77.98074,48.3844 Z M40.531,50.0231 L77.98074,50.0231 C78.797158,50.0240918 79.4587482,50.685682 79.45974,51.5021 L79.45974,57.2775 C78.8768859,57.7379344 78.2249765,58.1034362 77.5281,58.3605 C74.6682066,59.3248926 71.6603177,59.7760069 68.64334,59.69301 C64.5160096,59.6228371 60.4137383,59.0357468 56.4324,57.94546 C53.2177562,57.0485244 49.9060772,56.545327 46.5701,56.44692 C44.0284451,56.4105965 41.495281,56.7485272 39.05203,57.44985 L39.05203,51.50211 C39.0530163,50.6856998 39.7145898,50.0241083 40.531,50.0231 Z M77.98074,76.91226 L40.531,76.91226 C39.7144845,76.9110423 39.0529472,76.2492858 39.052,75.43277 L39.052,59.15531 C41.4844286,58.396661 44.022425,58.0314232 46.57007,58.0734 C49.7838294,58.1757828 52.9735186,58.6653161 56.07007,59.5314 C60.1696535,60.6520557 64.3938439,61.2529591 68.64331,61.31998 C74.57641,61.31998 77.8186,60.15006 79.45971,59.22379 L79.45971,75.43279 C79.4587518,76.2492863 78.797236,76.9110258 77.98074,76.91226 Z M58.54023,65.3527 C58.5398056,65.7327611 58.2318111,66.0407556 57.85175,66.04118 L52.12075,66.04118 C51.7405019,66.04118 51.43225,65.7329281 51.43225,65.35268 C51.43225,64.9724319 51.7405019,64.66418 52.12075,64.66418 L57.85175,64.66418 C58.231829,64.6645989 58.5398332,64.972621 58.54023,65.3527 L58.54023,65.3527 Z M52.11444,68.82731 L43.32294,68.82731 C42.9426919,68.82731 42.63444,69.1355619 42.63444,69.51581 C42.63444,69.8960581 42.9426919,70.20431 43.32294,70.20431 L52.11444,70.20431 C52.4946881,70.20431 52.80294,69.8960581 52.80294,69.51581 C52.80294,69.1355619 52.4946881,68.82731 52.11444,68.82731 L52.11444,68.82731 Z M43.32294,72.462085 L47.88494,72.462085 C48.1315335,72.4630198 48.3597984,72.3320031 48.4833673,72.1186022 C48.6069361,71.9052012 48.6069361,71.6420088 48.4833673,71.4286078 C48.3597984,71.2152069 48.1315335,71.0841902 47.88494,71.085125 L43.32294,71.085125 C42.94373,71.0865752 42.6370839,71.3943923 42.6370839,71.773605 C42.6370839,72.1528177 42.94373,72.4606348 43.32294,72.462085 Z M49.30829,73.34294 L43.32294,73.34294 C42.9426919,73.34294 42.63444,73.6511919 42.63444,74.03144 C42.63444,74.4116881 42.9426919,74.71994 43.32294,74.71994 L49.30829,74.71994 C49.6885381,74.71994 49.99679,74.4116881 49.99679,74.03144 C49.99679,73.6511919 49.6885381,73.34294 49.30829,73.34294 L49.30829,73.34294 Z M42.70136,66.2277 L42.70136,62.0597 C42.7017789,61.6796366 43.0097766,61.3716389 43.38984,61.37122 L48.64716,61.37122 C49.0271295,61.3716778 49.3349672,61.6797303 49.33516,62.0597 L49.33516,66.2277 C49.3349672,66.6076697 49.0271295,66.9157222 48.64716,66.91618 L43.38984,66.91618 C43.0097766,66.9157611 42.7017789,66.6077634 42.70136,66.2277 Z M47.95868,65.53923 L47.95868,62.74723 L44.07831,62.74723 L44.07831,65.53923 L47.95868,65.53923 Z" id="Shape" fill="#343852"></path>
        <path d="M110.831,95.83287 C112.368332,97.3702015 112.368332,99.8627085 110.831,101.40004 C109.293668,102.937372 106.801162,102.937372 105.26383,101.40004 L96.31236,92.41882 C95.3948728,92.9202986 94.4319368,93.3337226 93.43646,93.65355 C85.4843226,96.2222625 76.8420295,92.6527598 73.0203091,85.221123 C69.1985888,77.7894861 71.3224919,68.6834654 78.0377192,63.7094834 C84.7529464,58.7355015 94.0826465,59.3578158 100.077768,65.17961 C106.07289,71.0014041 106.96857,80.3088386 102.19368,87.16706 L110.831,95.83287 Z M100.00117,77.41232 C100.00117,72.6330004 97.1221752,68.3242841 92.7066581,66.4953214 C88.2911409,64.6663587 83.2086634,65.677333 79.8291798,69.0568281 C76.4496962,72.4363231 75.4387391,77.5188041 77.2677167,81.934315 C79.0966943,86.3498259 83.4054204,89.22879 88.18474,89.22879 C94.7104558,89.2279839 100.000386,83.9380358 100.00117,77.41232 Z" id="Shape" fill="#969CBB"></path>
        <circle id="Oval" fill="#FFFFFF" cx="88.1847" cy="77.41232" r="11.81647"></circle>
        <path d="M99.489815,33.5854 L99.489815,57.17814 C99.4909137,57.5183463 99.3100493,57.8331831 99.0156046,58.0036056 C98.7211599,58.1740282 98.3580701,58.1740282 98.0636254,58.0036056 C97.7691807,57.8331831 97.5883163,57.5183463 97.58942,57.17814 L97.58942,38.46379 L25.21052,38.46379 C24.8703137,38.4648937 24.5554769,38.2840293 24.3850544,37.9895846 C24.2146318,37.6951399 24.2146318,37.3320501 24.3850544,37.0376054 C24.5554769,36.7431607 24.8703137,36.5622963 25.21052,36.5634 L97.58942,36.5634 L97.58942,33.5854 C97.5874853,31.941299 96.2550113,30.6090532 94.61091,30.6074 L23.90091,30.6074 C22.2571373,30.6094666 20.9251827,31.941627 20.92337,33.5854 L20.92337,85.9633 C20.9253811,87.6069162 22.2572938,88.9388289 23.90091,88.94084 L69.65874,88.94084 C70.1823148,88.9425385 70.6058575,89.3674574 70.6058575,89.891035 C70.6058575,90.4146126 70.1823148,90.8395315 69.65874,90.84123 L23.90095,90.84123 C21.2082777,90.838012 19.026238,88.6559723 19.02302,85.9633 L19.02302,33.5854 C19.026023,30.8925592 21.2081095,28.7102535 23.90095,28.70698 L94.61095,28.70698 C97.3041058,28.7098566 99.4866905,30.8922445 99.489815,33.5854 Z M88.18432,64.44498 C82.9395399,64.44498 78.2110754,67.603983 76.2038028,72.4494526 C74.1965301,77.2949221 75.3057475,82.8724274 79.0142284,86.5811857 C82.7227093,90.289944 88.3001316,91.3995786 93.1457513,89.3926685 C97.991371,87.3857583 101.15112,82.6575301 101.15112,77.41275 C101.143097,70.2545529 95.3425165,64.4535384 88.18432,64.44498 L88.18432,64.44498 Z M88.18432,88.07877 C83.8700266,88.07877 79.9804412,85.4802402 78.3293373,81.4943923 C76.6782334,77.5085444 77.5907823,72.9205646 80.6414485,69.8698985 C83.6921146,66.8192323 88.2800944,65.9066834 92.2659423,67.5577873 C96.2517902,69.2088912 98.85032,73.0984766 98.85032,77.41277 C98.8440588,83.3008437 94.0723937,88.0725088 88.18432,88.07877 L88.18432,88.07877 Z M111.64526,95.02115 L103.66874,87.01724 C108.324105,79.5124951 106.925375,69.7494183 100.350154,63.8536499 C93.7749324,57.9578814 83.9176828,57.6281186 76.9631315,63.0712643 C70.0085803,68.5144099 67.9604828,78.1621771 72.1038754,85.9612742 C76.247268,93.7603713 85.3883505,97.4637112 93.79174,94.74771 L93.79274,94.74771 C94.5789984,94.4928043 95.3470415,94.1848059 96.09157,93.82584 L104.44997,102.21353 C105.734275,103.501294 107.608394,104.0054 109.365425,103.535704 C111.122456,103.066009 112.495041,101.693983 112.965452,99.937143 C113.435863,98.1803031 112.93252,96.3059789 111.64528,95.02115 L111.64526,95.02115 Z M108.04761,101.404947 C107.308375,101.406657 106.599147,101.112698 106.07788,100.58853 L97.12674,91.60709 C96.765261,91.2435356 96.2066627,91.1634509 95.7576,91.4108 C94.9035364,91.8773814 94.0073008,92.262228 93.08084,92.56021 C85.6659011,94.9536213 77.6086735,91.6241121 74.046304,84.694519 C70.4839345,77.764926 72.4649849,69.2749326 78.7263723,64.6376096 C84.9877596,60.0002866 93.6864827,60.5806018 99.2763883,66.0085563 C104.866294,71.4365109 105.702028,80.1144196 101.25074,86.5094 C100.93257,86.965657 100.986867,87.5842922 101.37965,87.97815 L110.01734,96.64615 C110.815774,97.4427516 111.05522,98.6421235 110.623875,99.6842424 C110.19253,100.726361 109.175481,101.405655 108.04762,101.404947 L108.04761,101.404947 Z" id="Shape" fill="#343852"></path>
    </g>
</svg>