<?xml version="1.0" encoding="UTF-8"?>
<svg width="120px" height="120px" viewBox="0 0 120 120" version="1.1" xmlns="http://www.w3.org/2000/svg" xmlns:xlink="http://www.w3.org/1999/xlink">
    <title>02.Icons/Illustrative/Enregistrer professionnel</title>
    <defs>
        <path d="M94,44 C100.075132,44 105,48.9248678 105,55 C105,61.0751322 100.075132,66 94,66 C87.9248678,66 83,61.0751322 83,55 C83,48.9248678 87.9248678,44 94,44 Z M94,46 C89.0294373,46 85,50.0294373 85,55 C85,59.9705627 89.0294373,64 94,64 C98.9705627,64 103,59.9705627 103,55 C103,50.0294373 98.9705627,46 94,46 Z M94,50 C94.5522847,50 95,50.4477153 95,51 L95,51 L95,54 L98,54 C98.5128358,54 98.9355072,54.3860402 98.9932723,54.8833789 L99,55 C99,55.5522847 98.5522847,56 98,56 L98,56 L95,56 L95,59 C95,59.5128358 94.6139598,59.9355072 94.1166211,59.9932723 L94,60 C93.4477153,60 93,59.5522847 93,59 L93,59 L93,56 L90,56 C89.4871642,56 89.0644928,55.6139598 89.0067277,55.1166211 L89,55 C89,54.4477153 89.4477153,54 90,54 L90,54 L93,54 L93,51 C93,50.4871642 93.3860402,50.0644928 93.8833789,50.0067277 Z" id="path-1"></path>
    </defs>
    <g id="02.Icons/Illustrative/Enregistrer-professionnel" stroke="none" stroke-width="1" fill="none" fill-rule="evenodd">
        <path d="M58.0413877,88.2885217 L58.0396934,88.2885217 C42.8520894,88.2885217 30.5405405,76.0946737 30.5405405,61.0522664 L30.5405405,30.3138352 L30.5405405,29.2885217 C32.6905929,31.6596642 37.0076405,33.6784076 45.7713489,33.815172 L58.0413877,33.815172 C73.2289917,33.815172 85.5405405,46.00902 85.5405405,61.0522664 C85.5405405,76.0946737 73.2289917,88.2885217 58.0413877,88.2885217" id="Fill-12" fill="#F2F3F7" transform="translate(58.040541, 58.788522) rotate(-180.000000) translate(-58.040541, -58.788522) "></path>
        <path d="M94.0672269,93.5545441 L81.6302521,93.5545441 C83.6949454,93.5545441 85.3613445,91.888145 85.3613445,89.8234517 C85.3613445,87.7708845 83.7191975,86.1166113 81.6678739,86.0923592 C81.7044076,81.1175693 81.5184748,74.1023382 79.2546345,70.0603214 C84.7771176,72.8465147 89.2660882,74.8627038 90.3361345,76.1427794 C92.4008277,78.5937962 94.0672269,91.0671492 94.0672269,93.5545441" id="Fill-3" fill="#FFFFFF"></path>
        <path d="M81.6302521,93.5545441 L71.6806723,93.5545441 C72.9243697,90.5946996 75.4117647,82.3612668 75.4117647,82.3612668 L73.211042,80.7069937 L76.6554622,76.1427794 L74.5166134,67.5862962 C76.1453908,68.4693214 77.7376345,69.2903172 79.2546345,70.0481954 L79.2546345,70.0603214 C81.5184748,74.1023382 81.7044076,81.1175693 81.6678739,86.0923592 L81.6302521,86.0923592 C79.5655588,86.0923592 77.8991597,87.7587584 77.8991597,89.8234517 C77.8991597,91.888145 79.5655588,93.5545441 81.6302521,93.5545441" id="Fill-5" fill="#FFFFFF"></path>
        <path d="M74.3174508,66.8150483 C76.5935727,66.8150483 78.1603206,68.0829979 79.2546189,70.0481954 C77.7376189,69.2903172 76.1453752,68.4693214 74.5165979,67.5862962 L74.3174508,66.8150483 Z" id="Fill-7" fill="#FFFFFF"></path>
        <path d="M65.4621849,61.2184097 C65.4621849,63.4701239 67.9495798,64.9495021 67.9495798,64.9495021 C67.9495798,64.9495021 67.9495798,68.6927206 67.2779832,74.9488298 L64.2184874,74.8990819 C63.1241891,76.8143761 60.6610462,80.2844475 58,81.1175693 C55.3389538,80.2844475 52.8758109,76.8143761 51.7815126,74.8990819 L48.7220168,74.9488298 C48.0504202,68.6927206 48.0504202,64.9495021 48.0504202,64.9495021 C48.0504202,64.9495021 50.5378151,63.4701239 50.5378151,61.2184097 L50.5378151,58.308313 C50.8487395,58.5561197 51.183916,58.7807626 51.5324622,58.9921912 C53.2243571,59.9989643 53.8207101,61.2184097 58,61.2184097 C62.1792899,61.2184097 62.7756429,59.9989643 64.4675378,58.9921912 C64.816084,58.7807626 65.1512605,58.5561197 65.4621849,58.308313 L65.4621849,61.2184097 Z" id="Fill-9" fill="#FFFFFF"></path>
        <path d="M33.2256395,93.5545441 L30.6385933,93.5545441 L30.6385933,83.6049643 C30.6385933,79.4877038 33.9713916,76.1427794 38.1007782,76.1427794 C42.2169504,76.1427794 45.562963,79.4877038 45.562963,83.6049643 L45.562963,93.5545441 L42.9760723,93.5545441 L33.2256395,93.5545441 Z" id="Fill-11" fill="#FFFFFF"></path>
        <path d="M48.0504202,64.9495021 L41.4833866,67.5862962 C41.210084,67.7356954 40.9367815,67.8838508 40.6623908,68.0223676 C42.2047311,66.1810735 44.5683782,64.9495021 48.0504202,64.9495021" id="Fill-13" fill="#FFFFFF"></path>
        <path d="M30.6386555,93.5545441 L21.9327731,93.5545441 C21.9327731,91.0671492 23.5991723,78.5937962 25.6638655,76.1427794 C26.9817185,74.5760315 33.4491008,71.8894895 40.6623908,68.0223676 C38.784563,70.2230903 38.1008403,73.3080819 38.1008403,76.1427794 C33.9712983,76.1427794 30.6386555,79.4877038 30.6386555,83.6049643 L30.6386555,93.5545441 Z" id="Fill-15" fill="#FFFFFF"></path>
        <path d="M41.4833555,67.5862962 L48.0503891,64.9495021 C48.0503891,64.9495021 48.0503891,68.6927206 48.7221412,74.9488298 C49.2322126,79.8119979 50.1528597,86.2041366 51.7814815,93.5545441 L45.5629941,93.5545441 L45.5629941,83.6049643 C45.5629941,79.4877038 42.2169815,76.1427794 38.1008092,76.1427794 C38.1008092,73.3080819 38.7846874,70.2230903 40.6623597,68.0223676 C40.9367504,67.8838508 41.2100529,67.7356954 41.4833555,67.5862962" id="Fill-17" fill="#FFFFFF"></path>
        <path d="M73.2109954,80.7070559 L75.4117181,82.361329 C75.4117181,82.361329 72.9243231,90.5947618 71.6806256,93.5546063 L64.2184408,93.5546063 C65.8472181,86.2040433 66.7678651,79.8119046 67.2779366,74.948892 C67.9495332,68.6927828 67.9495332,64.9495643 67.9495332,64.9495643 L74.3174197,66.8151105 L74.5165668,67.5863584 L76.6554155,76.1428416 L73.2109954,80.7070559 Z" id="Fill-19" fill="#FFFFFF"></path>
        <path d="M81.667905,86.0923592 C83.7192286,86.1166113 85.3613756,87.7708845 85.3613756,89.8234517 C85.3613756,91.888145 83.6949765,93.5545441 81.6302832,93.5545441 C79.5655899,93.5545441 77.8991908,91.888145 77.8991908,89.8234517 C77.8991908,87.7587584 79.5655899,86.0923592 81.6302832,86.0923592 L81.667905,86.0923592 Z" id="Fill-21" fill="#D20050"></path>
        <path d="M51.7815126,93.5545441 C50.1527353,86.2041366 49.2322437,79.8119979 48.7220168,74.9488298 L51.7815126,74.8990819 C52.8758109,76.8143761 55.3389538,80.2844475 58,81.1175693 C60.6610462,80.2844475 63.1241891,76.8143761 64.2184874,74.8990819 L67.2779832,74.9488298 C66.7677563,79.8119979 65.8472647,86.2041366 64.2184874,93.5545441 L51.7815126,93.5545441 Z" id="Fill-23" fill="#1D71B8"></path>
        <path d="M42.9140895,40.0755525 C45.9735853,38.6205819 48.299455,35.4359391 50.4504298,30.0640987 C54.8786147,34.3792626 61.5076777,31.9915189 63.7957702,31.9915189 C70.1879088,31.9915189 69.6778374,40.0755525 73.0858794,40.0755525 C73.0858794,40.0755525 73.2231525,40.1752038 73.3846777,40.410729 C73.7077282,40.8334307 74.1680517,41.7419517 74.1680517,43.4081954 C74.1680517,48.4207626 70.7357576,48.731687 70.7357576,48.731687 C70.0142576,52.4251576 68.4596357,56.0565987 65.4621693,58.308313 C65.151245,58.5561197 64.8160685,58.7807626 64.4675223,58.9921912 C62.7756273,59.9989643 62.1792744,61.2184097 57.9999845,61.2184097 C53.8206945,61.2184097 53.2243416,59.9989643 51.5326021,58.9921912 C51.1839004,58.7807626 50.8487239,58.5561197 50.5377996,58.308313 C47.5403332,56.0565987 45.9857113,52.4251576 45.2642113,48.731687 C45.2642113,48.731687 41.8319172,48.4207626 41.8319172,43.4081954 C41.8319172,41.7419517 42.2922408,40.8334307 42.6152912,40.410729 C42.7768164,40.1752038 42.9140895,40.0755525 42.9140895,40.0755525" id="Fill-25" fill="#FFFFFF"></path>
        <path d="M74.1680672,33.6080924 C74.1680672,35.7590672 74.1680672,38.271958 73.3968193,40.3986807 L73.3846933,40.4108067 C73.2231681,40.1751261 73.085895,40.0756303 73.085895,40.0756303 C69.6778529,40.0756303 70.1879244,31.9915966 63.7957857,31.9915966 C61.5075378,31.9915966 54.8786303,34.3793403 50.4504454,30.064021 C48.2994706,35.4360168 45.9736008,38.6205042 42.914105,40.0756303 C42.914105,40.0756303 42.7768319,40.1751261 42.6153067,40.4108067 L42.6031807,40.3986807 C41.8319328,38.271958 41.8319328,37.7119832 41.8319328,32.2902395 C41.8319328,27.8996765 44.5306008,24.4928782 47.2172983,23.3852101 C48.9090378,20.8104454 51.4705882,18.9327731 58,18.9327731 C60.6489202,18.9327731 63.2238403,19.4185924 65.486437,20.4374916 L65.4998067,20.4374916 C69.5163277,21.595063 73.085895,21.1589916 73.085895,21.1589916 C73.085895,21.1589916 73.5959664,23.6718824 72.0158487,25.6114286 C73.4964706,27.6263739 74.1680672,31.0709496 74.1680672,33.6080924" id="Fill-27" fill="#C5C8DA"></path>
        <path d="M64.2194046,94.4875504 C64.1524004,94.4875504 64.0847744,94.4802437 64.0166819,94.4651639 C63.5137618,94.3538529 63.196308,93.8557521 63.3079298,93.3528319 C64.6960517,87.0872395 65.7196147,80.8626891 66.3503248,74.8515882 C66.8719004,69.9921513 66.9853878,66.6347899 67.0099508,65.4355546 C66.1790055,64.8160378 64.5293962,63.320958 64.5293962,61.2184874 L64.5293962,58.3083908 C64.5293962,57.7931891 64.9471231,57.3756176 65.4621693,57.3756176 C65.977371,57.3756176 66.3949424,57.7931891 66.3949424,58.3083908 L66.3949424,61.2184874 C66.3949424,62.9026092 68.4084887,64.136979 68.4288542,64.1492605 C68.7086861,64.3182479 68.8823374,64.6226429 68.8823374,64.9495798 C68.8823374,65.1044202 68.8745643,68.8143697 68.205455,75.0484034 C67.5677492,81.1272857 66.5326819,87.4222605 65.1291693,93.7562563 C65.0327828,94.191395 64.6472366,94.4875504 64.2194046,94.4875504" id="Fill-29" fill="#343852"></path>
        <path d="M51.7805954,94.4875504 C51.3527634,94.4875504 50.9672172,94.191395 50.8708307,93.7562563 C49.4673181,87.4222605 48.4322508,81.1272857 47.7943895,75.0462269 C47.1254357,68.8143697 47.1176626,65.1044202 47.1176626,64.9495798 C47.1176626,64.6206218 47.2908475,64.315916 47.5734777,64.1478613 C47.5915113,64.136979 49.6050576,62.9026092 49.6050576,61.2184874 L49.6050576,58.3083908 C49.6050576,57.7931891 50.022629,57.3756176 50.5378307,57.3756176 C51.0528769,57.3756176 51.4706038,57.7931891 51.4706038,58.3083908 L51.4706038,61.2184874 C51.4706038,63.320958 49.8209945,64.8160378 48.9900492,65.4355546 C49.0146122,66.6346345 49.1280996,69.9916849 49.6495197,74.8492563 C50.2803853,80.8626891 51.3039483,87.0872395 52.6920702,93.3528319 C52.803692,93.8557521 52.4862382,94.3538529 51.9833181,94.4651639 C51.9153811,94.4802437 51.8474441,94.4875504 51.7805954,94.4875504" id="Fill-31" fill="#343852"></path>
        <path d="M58,82.0503424 C57.9061008,82.0503424 57.8120462,82.0361954 57.7212563,82.0077458 C56.3836597,81.5889307 54.9997353,80.5893088 53.6085042,79.0365525 C52.2702857,77.5430273 51.3185462,75.9691282 50.9715546,75.3618929 C50.7159748,74.9144727 50.871437,74.3447038 51.3187017,74.0892794 C51.7659664,73.8333887 52.3358908,73.9890063 52.5914706,74.436271 C53.8228866,76.5917542 55.9461891,79.3104769 58,80.128208 C60.0538109,79.3104769 62.1771134,76.5917542 63.4085294,74.436271 C63.6641092,73.9891618 64.2337227,73.8335441 64.6812983,74.0892794 C65.128563,74.3447038 65.2840252,74.9144727 65.0284454,75.3618929 C64.6814538,75.9691282 63.7297143,77.5430273 62.3914958,79.0365525 C61.0002647,80.5893088 59.6163403,81.5889307 58.2787437,82.0077458 C58.1879538,82.0361954 58.0938992,82.0503424 58,82.0503424" id="Fill-33" fill="#343852"></path>
        <path d="M73.2102492,81.6399067 C73.0145223,81.6399067 72.8173962,81.5784992 72.6491861,81.451642 C72.2378332,81.141184 72.1562155,80.5563353 72.4665181,80.1451378 L75.6426105,75.936621 L73.5468248,67.5612513 L67.687455,65.8446378 C67.1929298,65.6997471 66.9096777,65.1815916 67.054413,64.6872218 C67.1993038,64.1928521 67.7180811,63.9096 68.211829,64.0543353 L74.5797155,65.9198815 C74.8949929,66.0122261 75.1384466,66.2637639 75.2206861,66.5818395 L75.4198332,67.3530874 L77.560392,75.9165664 C77.6287954,76.1900244 77.5698752,76.4796504 77.399955,76.7046042 L73.9555349,81.2689739 C73.7720895,81.5119613 73.4928794,81.6399067 73.2102492,81.6399067" id="Fill-35" fill="#343852"></path>
        <path d="M71.6802214,94.4875504 C71.5598937,94.4875504 71.4373895,94.4640756 71.3193937,94.4144832 C70.8444567,94.2150252 70.621213,93.6681092 70.8208265,93.1931723 C71.8342845,90.781021 73.7256374,84.6830168 74.3289861,82.7142437 L69.8779483,79.376937 C69.4655071,79.0680336 69.3815576,78.4834958 69.6903055,78.0710546 C69.9988979,77.6587689 70.5837466,77.5748193 70.9960324,77.8834118 L75.9722214,81.6155924 C76.2851668,81.8508067 76.4179315,82.2564076 76.3045996,82.6310714 C76.2026164,82.9692017 73.788755,90.9451891 72.5405492,93.915916 C72.3905282,94.2728571 72.0446248,94.4875504 71.6802214,94.4875504" id="Fill-37" fill="#343852"></path>
        <path d="M79.2538416,70.9811861 C79.1137702,70.9811861 78.9716777,70.9494718 78.8376693,70.8826231 C77.1400223,70.0345769 75.5812029,69.2244634 74.0721315,68.4064214 C73.6192702,68.1607912 73.4510601,67.5945979 73.6966903,67.1417366 C73.9420097,66.6887197 74.5085139,66.5208206 74.9612197,66.7662954 C76.4519466,67.5743878 77.9927324,68.3750181 79.6715685,69.2137366 C80.1322029,69.4439761 80.3193794,70.0042618 80.0889845,70.4650517 C79.9255937,70.7919887 79.5961693,70.9811861 79.2538416,70.9811861" id="Fill-39" fill="#343852"></path>
        <path d="M94.0672269,94.4873172 C93.5521807,94.4873172 93.1344538,94.0695903 93.1344538,93.5545441 C93.1344538,90.8050399 91.3917227,78.8436239 89.6227185,76.7437962 C88.9047941,75.8847122 85.8030126,74.3509223 82.2113697,72.5749223 C81.1321513,72.0410651 80.0159328,71.4891744 78.8345756,70.8931324 C78.374563,70.6610273 78.1897185,70.1001197 78.4218235,69.6401071 C78.6537731,69.1804055 79.2151471,68.9957164 79.6746933,69.2275105 C80.8496765,69.8202878 81.9623193,70.3704685 83.0384286,70.9026155 C87.6680924,73.1921071 90.1270378,74.438292 91.0518824,75.5445609 C93.4128866,78.3472332 95,91.2613214 95,93.5545441 C95,94.0695903 94.5822731,94.4873172 94.0672269,94.4873172" id="Fill-41" fill="#343852"></path>
        <path d="M21.9327731,94.4873172 C21.4177269,94.4873172 21,94.0695903 21,93.5545441 C21,91.2613214 22.5871134,78.3472332 24.9504496,75.5417626 C25.9164916,74.393208 28.7039286,73.0122374 32.9231723,70.9218929 C35.1276261,69.8296155 37.6260588,68.5916702 40.2216555,67.2002836 C40.2284958,67.1965525 40.2351807,67.1929769 40.2421765,67.1895567 C40.5092605,67.054771 40.7806975,66.9072374 41.0359664,66.7677878 C41.0683025,66.7502206 41.1017269,66.7343634 41.1357731,66.7206828 L47.7029622,64.0838887 C48.1808529,63.8918929 48.7241933,64.1238424 48.9160336,64.6018887 C49.1080294,65.0799349 48.8760798,65.6231197 48.3978782,65.8151155 L41.8821471,68.4312332 C41.6306092,68.5686618 41.3641471,68.7127752 41.0927101,68.8498929 C38.474416,70.2534055 35.9655672,71.4963256 33.7513193,72.5934223 C30.1789538,74.3633592 27.0934958,75.8920189 26.3777479,76.7431744 C24.6082773,78.8436239 22.8655462,90.8050399 22.8655462,93.5545441 C22.8655462,94.0695903 22.4478193,94.4873172 21.9327731,94.4873172" id="Fill-43" fill="#343852"></path>
        <path d="M58,62.1511828 C54.3920336,62.1511828 53.1488025,61.2580525 51.946458,60.3944601 C51.6518571,60.1828761 51.3738908,59.9831071 51.0555042,59.7937542 C50.634979,59.5387962 50.2809916,59.2954979 49.9671134,59.046292 C47.2620714,57.0094265 45.4158025,53.8045735 44.4740126,49.5145945 C42.9540588,49.0373256 40.8991597,47.3821197 40.8991597,43.4081954 C40.8991597,41.5373634 41.4180924,40.4499055 41.859916,39.8633466 C42.0890672,39.5345441 42.3046933,39.3652458 42.3662563,39.3206282 L43.4619538,40.8304769 C43.4619538,40.8304769 43.4739244,40.8233256 43.4936681,40.8059139 C43.4933571,40.8063803 43.4467185,40.8477332 43.3845336,40.9382122 C43.3756723,40.9514265 43.3661891,40.9644853 43.356395,40.9772332 C43.1785462,41.2099601 42.7647059,41.9128046 42.7647059,43.4081954 C42.7647059,47.5211029 45.3225252,47.800313 45.3483319,47.802645 C45.761395,47.8401113 46.1001471,48.14575 46.1797437,48.55275 C46.9870588,52.6861786 48.6419538,55.7173803 51.0981008,57.5625609 C51.1050966,57.5680021 51.1120924,57.5732878 51.1190882,57.5788845 C51.3726471,57.7809853 51.6661597,57.9823088 52.016105,58.1945147 C52.3969874,58.4210231 52.7211261,58.6540609 53.0348487,58.8793256 C54.0853067,59.6339391 54.992584,60.2856366 58,60.2856366 C61.007416,60.2856366 61.9146933,59.6339391 62.9651513,58.8793256 C63.2788739,58.6540609 63.6030126,58.4210231 63.9904244,58.1904727 C64.3338403,57.9823088 64.6273529,57.7809853 64.8809118,57.5788845 C64.8879076,57.5732878 64.8949034,57.5680021 64.9018992,57.5625609 C67.3580462,55.7173803 69.0129412,52.6861786 69.8202563,48.55275 C69.8998529,48.14575 70.238605,47.8401113 70.6516681,47.802645 C70.9053824,47.7724853 73.2352941,47.3827416 73.2352941,43.4081954 C73.2352941,41.9128046 72.8214538,41.2099601 72.643605,40.9772332 C72.6338109,40.9644853 72.6243277,40.9514265 72.6154664,40.9382122 C72.5532815,40.8477332 72.5066429,40.8063803 72.5063319,40.8059139 C72.5260756,40.8233256 72.5380462,40.8304769 72.5380462,40.8304769 L73.6337437,39.3206282 C73.6953067,39.3652458 73.9109328,39.5345441 74.140084,39.8633466 C74.5819076,40.4499055 75.1008403,41.5373634 75.1008403,43.4081954 C75.1008403,47.3821197 73.0459412,49.0373256 71.5259874,49.5145945 C70.5841975,53.8045735 68.7379286,57.0094265 66.0328866,59.046292 C65.7190084,59.2954979 65.3651765,59.5387962 64.9510252,59.7898676 C64.6261092,59.9831071 64.3481429,60.1828761 64.053542,60.3944601 C62.8511975,61.2580525 61.6079664,62.1511828 58,62.1511828" id="Fill-45" fill="#343852"></path>
        <path d="M42.9146958,41.0085588 C42.5659941,41.0085588 42.2314395,40.8120546 42.0717798,40.4762563 C41.8504017,40.010958 42.048305,39.4544034 42.5134479,39.2331807 C45.2990193,37.9084874 47.4796874,34.9736723 49.5843345,29.7173403 C49.7001538,29.4283361 49.9526244,29.2161303 50.2570193,29.151458 C50.5614143,29.0869412 50.8784017,29.1786639 51.1013345,29.396 C54.2587714,32.4729076 58.7241118,31.7697521 61.6789815,31.3044538 C62.550658,31.1671807 63.2390445,31.0588235 63.7957546,31.0588235 C68.0594605,31.0588235 69.6901034,34.2296303 70.8807882,36.5449286 C71.7092462,38.1555168 72.258805,39.1428571 73.0858639,39.1428571 C73.6010655,39.1428571 74.018637,39.5604286 74.018637,40.0756303 C74.018637,40.5906765 73.6010655,41.0084034 73.0858639,41.0084034 C71.0783807,41.0084034 70.1345697,39.1728613 69.2218513,37.3979496 C68.0907084,35.1986261 66.9211664,32.9243697 63.7957546,32.9243697 C63.3850235,32.9243697 62.7289731,33.0275966 61.9692294,33.1473025 C59.1189857,33.5959664 54.5138849,34.321042 50.821658,31.6009202 C48.6671076,36.5907899 46.3246034,39.4864286 43.3147,40.9179244 C43.1853555,40.9794874 43.0490151,41.0085588 42.9146958,41.0085588" id="Fill-47" fill="#343852"></path>
        <path d="M73.3968349,41.3316248 C73.2911206,41.3316248 73.1838517,41.3135912 73.0787592,41.2755029 C72.5944945,41.0998307 72.3442004,40.5648853 72.5198727,40.0806206 C73.2353097,38.1081164 73.2353097,35.7174189 73.2353097,33.608108 C73.2353097,31.3147298 72.6184357,28.0069609 71.2642046,26.1638013 C71.0125113,25.8213181 71.024171,25.3518223 71.2928097,25.0223979 C72.0688769,24.0697256 72.2260492,22.9149525 72.2297803,22.1556752 C70.859692,22.2139735 68.2026878,22.1785282 65.2935239,21.348671 C65.2272971,21.3349903 65.1624693,21.3146248 65.1033937,21.2880408 C63.0368349,20.3572887 60.5806878,19.8654063 58.0000155,19.8654063 C51.5369861,19.8654063 49.3727971,21.8033979 47.9968013,23.8974735 C47.8938853,24.0541794 47.7460408,24.1760618 47.5728559,24.2475744 C45.1835576,25.2327382 42.7647214,28.3116668 42.7647214,32.290255 C42.7647214,37.6686248 42.7647214,38.1081164 43.4801584,40.0806206 C43.6556752,40.5648853 43.4055366,41.0998307 42.9212718,41.2755029 C42.4371626,41.4507088 41.9019063,41.2010366 41.726234,40.7166164 C40.8991752,38.4358307 40.8991752,37.7362508 40.8991752,32.290255 C40.8991752,27.6358727 43.7212803,23.9705408 46.5948433,22.6397845 C48.8659903,19.3481836 52.1970786,17.9998601 58.0000155,17.9998601 C60.8075071,17.9998601 63.4959147,18.5351164 65.7829189,19.5484189 C69.544171,20.6262382 72.940087,20.2372718 72.9738223,20.2329189 C73.4568433,20.1755534 73.9034861,20.4973601 74.0000282,20.9733853 C74.0224147,21.0837634 74.4891122,23.4914063 73.1479399,25.6299441 C73.7301458,26.5896122 74.2108349,27.8054819 74.5528517,29.1904945 C74.9062172,30.6223013 75.1008559,32.1912256 75.1008559,33.608108 C75.1008559,35.8710155 75.1008559,38.4358307 74.2737971,40.7166164 C74.136213,41.0959441 73.7781836,41.3316248 73.3968349,41.3316248" id="Fill-49" fill="#343852"></path>
        <path d="M45.5630252,94.4873172 L43.0756303,94.4873172 C42.560584,94.4873172 42.1428571,94.0695903 42.1428571,93.5545441 C42.1428571,93.0394979 42.560584,92.621771 43.0756303,92.621771 L44.6302521,92.621771 L44.6302521,83.6049643 C44.6302521,80.0046155 41.7011891,77.0755525 38.1008403,77.0755525 C34.5004916,77.0755525 31.5714286,80.0046155 31.5714286,83.6049643 L31.5714286,92.621771 L33.1260504,92.621771 C33.6410966,92.621771 34.0588235,93.0394979 34.0588235,93.5545441 C34.0588235,94.0695903 33.6410966,94.4873172 33.1260504,94.4873172 L30.6386555,94.4873172 C30.1236092,94.4873172 29.7058824,94.0695903 29.7058824,93.5545441 L29.7058824,83.6049643 C29.7058824,78.9759223 33.4719538,75.2100063 38.1008403,75.2100063 C42.7297269,75.2100063 46.4957983,78.9759223 46.4957983,83.6049643 L46.4957983,93.5545441 C46.4957983,94.0695903 46.0780714,94.4873172 45.5630252,94.4873172" id="Fill-52" fill="#343852"></path>
        <path d="M38.1008403,77.0755525 C37.5857941,77.0755525 37.1680672,76.6578256 37.1680672,76.1427794 C37.1680672,72.6204727 38.1569622,69.521645 39.9527059,67.4168424 C41.8409496,65.1629517 44.5672899,64.016729 48.0504202,64.016729 C48.5654664,64.016729 48.9831933,64.4344559 48.9831933,64.9495021 C48.9831933,65.4645483 48.5654664,65.8822752 48.0504202,65.8822752 C45.1451429,65.8822752 42.899958,66.803855 41.3773613,68.6213634 C39.3373866,71.0123718 39.0336134,74.3596282 39.0336134,76.1427794 C39.0336134,76.6578256 38.6158866,77.0755525 38.1008403,77.0755525" id="Fill-54" fill="#343852"></path>
        <path d="M81.6568206,87.0250546 L81.6302366,87.0250546 C80.0872744,87.0250546 78.8319172,88.2804118 78.8319172,89.8233739 C78.8319172,91.3664916 80.0872744,92.6216933 81.6302366,92.6216933 C83.1731987,92.6216933 84.4285559,91.3664916 84.4285559,89.8233739 C84.4285559,88.2726387 83.2111315,87.0435546 81.6568206,87.0250546 M81.6302366,94.4872395 C79.0585811,94.4872395 76.966371,92.3950294 76.966371,89.8233739 C76.966371,87.2517185 79.0585811,85.1595084 81.6302366,85.1595084 L81.6678584,85.1595084 C84.2238122,85.1898235 86.2941021,87.2818782 86.2941021,89.8233739 C86.2941021,92.3950294 84.201892,94.4872395 81.6302366,94.4872395" id="Fill-56" fill="#343852"></path>
        <path d="M81.6680605,87.0251324 L81.6610647,87.0251324 C81.1460185,87.0214013 80.7314008,86.6007206 80.7351319,86.0855189 C80.8095983,75.9346155 79.4614303,72.3381534 78.440821,70.5161366 C78.4238756,70.4859769 78.4087958,70.4550399 78.3954261,70.4234811 C77.3692202,68.623229 76.0345773,67.7478214 74.3174975,67.7478214 C73.8022958,67.7478214 73.3847244,67.3300945 73.3847244,66.8150483 C73.3847244,66.3000021 73.8022958,65.8822752 74.3174975,65.8822752 C76.7626067,65.8822752 78.6979555,67.1312584 80.0695983,69.5944013 C80.0868546,69.6256492 80.1025563,69.6576744 80.1160815,69.6904769 C82.3929807,73.8430273 82.6406319,80.6343929 82.6006782,86.0991996 C82.5969471,86.6120693 82.1799975,87.0251324 81.6680605,87.0251324" id="Fill-58" fill="#343852"></path>
        <mask id="mask-2" fill="white">
            <use xlink:href="#path-1"></use>
        </mask>
        <use id="Combined-Shape" fill="#343852" xlink:href="#path-1"></use>
    </g>
</svg>