<?xml version="1.0" encoding="UTF-8"?>
<svg width="120px" height="120px" viewBox="0 0 120 120" version="1.1" xmlns="http://www.w3.org/2000/svg" xmlns:xlink="http://www.w3.org/1999/xlink">
    <title>02.Icons/Illustrative/Etablissements de santé</title>
    <defs>
        <path d="M52.4574,42.2559 L69.8214,42.2559 C71.1864,42.2559 72.3024,41.1399 72.3024,39.7749 L72.3024,31.0929 L72.3024,22.4109 C72.3024,21.0469 71.1864,19.9299 69.8214,19.9299 L52.4574,19.9299 C51.0934,19.9299 49.9764,21.0469 49.9764,22.4109 L49.9764,31.0929 L49.9764,39.7749 C49.9764,41.1399 51.0934,42.2559 52.4574,42.2559" id="path-1"></path>
    </defs>
    <g id="02.Icons/Illustrative/Etablissements-de-santé" stroke="none" stroke-width="1" fill="none" fill-rule="evenodd">
        <path d="M74.8101266,45.4050633 C74.8101266,27.5079494 60.3021772,13 42.4050633,13 C24.5079494,13 10,27.5079494 10,45.4050633 C10,63.3021772 24.5079494,77.8101266 42.4050633,77.8101266 C60.3021772,77.8101266 74.8101266,63.3021772 74.8101266,45.4050633" id="Fill-1" fill="#F2F3F7"></path>
        <path d="M95.8682,41.0156 L87.1862,41.0156 L82.2252,41.0156 L82.2252,33.5736 C82.2252,32.2096 81.1082,31.0936 79.7442,31.0936 L72.3022,31.0936 L72.3022,39.7756 C72.3022,41.1396 71.1862,42.2556 69.8212,42.2556 L52.4572,42.2556 C51.0932,42.2556 49.9772,41.1396 49.9772,39.7756 L49.9772,31.0936 L42.5352,31.0936 C41.1702,31.0936 40.0542,32.2096 40.0542,33.5736 L40.0542,41.0156 L35.0932,41.0156 L26.4112,41.0156 C25.0462,41.0156 23.9302,42.1316 23.9302,43.4966 L23.9302,94.3486 L40.0542,94.3486 L49.9772,94.3486 L61.1392,94.3486 L72.3022,94.3486 L78.5432,94.3486 C76.7252,91.5566 75.7292,88.2846 75.7292,84.8966 C75.7292,80.6496 77.2712,76.5716 80.0682,73.4156 C80.7282,72.6686 81.4592,72.0046 82.2252,71.3906 C85.2842,68.9346 89.1002,67.5476 93.0772,67.5476 C94.9152,67.5476 96.6852,67.8406 98.3492,68.3726 L98.3492,43.4966 C98.3492,42.1316 97.2322,41.0156 95.8682,41.0156" id="Fill-1" fill="#EDEEF3"></path>
        <path d="M87.1861,68.5994 C88.7701,68.0264 90.4391,67.6894 92.1471,67.5974 L92.1471,62.1004 L87.1861,62.1004 L87.1861,68.5994 Z M45.0151,54.6594 L52.4571,54.6594 L52.4571,48.4574 L45.0151,48.4574 L45.0151,54.6594 Z M45.0151,67.0624 L52.4571,67.0624 L52.4571,60.8604 L45.0151,60.8604 L45.0151,67.0624 Z M57.4181,54.6594 L64.8601,54.6594 L64.8601,48.4574 L57.4181,48.4574 L57.4181,54.6594 Z M57.4191,67.0624 L64.8611,67.0624 L64.8611,60.8604 L57.4191,60.8604 L57.4191,67.0624 Z M69.8221,54.6594 L77.2641,54.6594 L77.2641,48.4574 L69.8221,48.4574 L69.8221,54.6594 Z M69.8221,67.0624 L77.2641,67.0624 L77.2641,60.8604 L69.8221,60.8604 L69.8221,67.0624 Z M30.1861,83.1864 L35.1471,83.1864 L35.1471,75.7444 L30.1861,75.7444 L30.1861,83.1864 Z M30.1861,69.8994 L35.1471,69.8994 L35.1471,62.4574 L30.1861,62.4574 L30.1861,69.8994 Z M30.1861,55.8994 L35.1471,55.8994 L35.1471,48.4574 L30.1861,48.4574 L30.1861,55.8994 Z M87.1861,55.8994 L92.1471,55.8994 L92.1471,48.4574 L87.1861,48.4574 L87.1861,55.8994 Z" id="Fill-3" fill="#FFFFFF"></path>
        <polygon id="Fill-5" fill="#969CBB" points="47.4962 79.4652 49.9772 79.4652 61.1392 79.4652 72.3022 79.4652 74.7832 79.4652 74.7832 73.2632 47.4962 73.2632"></polygon>
        <mask id="mask-2" fill="white">
            <use xlink:href="#path-1"></use>
        </mask>
        <use id="Fill-7" fill="#1D71B8" xlink:href="#path-1"></use>
        <path d="M58.349,53.729 L63.93,53.729 L63.93,49.388 L58.349,49.388 L58.349,53.729 Z M65.791,48.457 L65.791,54.659 C65.791,55.173 65.374,55.589 64.86,55.589 L57.419,55.589 C56.905,55.589 56.488,55.173 56.488,54.659 L56.488,48.457 C56.488,47.944 56.905,47.527 57.419,47.527 L64.86,47.527 C65.374,47.527 65.791,47.944 65.791,48.457 L65.791,48.457 Z M45.946,53.729 L51.527,53.729 L51.527,49.388 L45.946,49.388 L45.946,53.729 Z M53.388,48.457 L53.388,54.659 C53.388,55.173 52.971,55.589 52.457,55.589 L45.015,55.589 C44.502,55.589 44.085,55.173 44.085,54.659 L44.085,48.457 C44.085,47.944 44.502,47.527 45.015,47.527 L52.457,47.527 C52.971,47.527 53.388,47.944 53.388,48.457 L53.388,48.457 Z M70.752,53.729 L76.333,53.729 L76.333,49.388 L70.752,49.388 L70.752,53.729 Z M78.194,48.457 L78.194,54.659 C78.194,55.173 77.777,55.589 77.264,55.589 L69.822,55.589 C69.308,55.589 68.891,55.173 68.891,54.659 L68.891,48.457 C68.891,47.944 69.308,47.527 69.822,47.527 L77.264,47.527 C77.777,47.527 78.194,47.944 78.194,48.457 L78.194,48.457 Z M31.062,54.969 L34.163,54.969 L34.163,49.388 L31.062,49.388 L31.062,54.969 Z M36.023,48.457 L36.023,55.899 C36.023,56.413 35.607,56.83 35.093,56.83 L30.132,56.83 C29.618,56.83 29.202,56.413 29.202,55.899 L29.202,48.457 C29.202,47.944 29.618,47.527 30.132,47.527 L35.093,47.527 C35.607,47.527 36.023,47.944 36.023,48.457 L36.023,48.457 Z M88.116,54.969 L91.217,54.969 L91.217,49.388 L88.116,49.388 L88.116,54.969 Z M93.078,48.457 L93.078,55.899 C93.078,56.413 92.661,56.83 92.147,56.83 L87.186,56.83 C86.672,56.83 86.256,56.413 86.256,55.899 L86.256,48.457 C86.256,47.944 86.672,47.527 87.186,47.527 L92.147,47.527 C92.661,47.527 93.078,47.944 93.078,48.457 L93.078,48.457 Z M31.062,68.612 L34.163,68.612 L34.163,63.031 L31.062,63.031 L31.062,68.612 Z M36.023,62.101 L36.023,69.543 C36.023,70.056 35.607,70.473 35.093,70.473 L30.132,70.473 C29.618,70.473 29.202,70.056 29.202,69.543 L29.202,62.101 C29.202,61.587 29.618,61.171 30.132,61.171 L35.093,61.171 C35.607,61.171 36.023,61.587 36.023,62.101 L36.023,62.101 Z M31.062,82.256 L34.163,82.256 L34.163,76.675 L31.062,76.675 L31.062,82.256 Z M36.023,75.744 L36.023,83.186 C36.023,83.7 35.607,84.116 35.093,84.116 L30.132,84.116 C29.618,84.116 29.202,83.7 29.202,83.186 L29.202,75.744 C29.202,75.231 29.618,74.814 30.132,74.814 L35.093,74.814 C35.607,74.814 36.023,75.231 36.023,75.744 L36.023,75.744 Z M58.349,66.132 L63.93,66.132 L63.93,61.791 L58.349,61.791 L58.349,66.132 Z M65.791,60.861 L65.791,67.062 C65.791,67.576 65.374,67.992 64.86,67.992 L57.419,67.992 C56.905,67.992 56.488,67.576 56.488,67.062 L56.488,60.861 C56.488,60.347 56.905,59.93 57.419,59.93 L64.86,59.93 C65.374,59.93 65.791,60.347 65.791,60.861 L65.791,60.861 Z M45.946,66.132 L51.527,66.132 L51.527,61.791 L45.946,61.791 L45.946,66.132 Z M53.388,60.861 L53.388,67.062 C53.388,67.576 52.971,67.992 52.457,67.992 L45.015,67.992 C44.502,67.992 44.085,67.576 44.085,67.062 L44.085,60.861 C44.085,60.347 44.502,59.93 45.015,59.93 L52.457,59.93 C52.971,59.93 53.388,60.347 53.388,60.861 L53.388,60.861 Z M70.752,66.132 L76.333,66.132 L76.333,61.791 L70.752,61.791 L70.752,66.132 Z M78.194,60.861 L78.194,67.062 C78.194,67.576 77.777,67.992 77.264,67.992 L69.822,67.992 C69.308,67.992 68.891,67.576 68.891,67.062 L68.891,60.861 C68.891,60.347 69.308,59.93 69.822,59.93 L77.264,59.93 C77.777,59.93 78.194,60.347 78.194,60.861 L78.194,60.861 Z M71.372,22.411 C71.372,21.556 70.677,20.861 69.822,20.861 L52.457,20.861 C51.602,20.861 50.907,21.556 50.907,22.411 L50.907,39.775 C50.907,40.63 51.602,41.326 52.457,41.326 L69.822,41.326 C70.677,41.326 71.372,40.63 71.372,39.775 L71.372,22.411 Z M50.907,93.419 L60.209,93.419 L60.209,80.396 L50.907,80.396 L50.907,93.419 Z M48.426,78.535 L73.852,78.535 L73.852,74.194 L48.426,74.194 L48.426,78.535 Z M62.07,93.418 L71.372,93.418 L71.372,80.395 L62.07,80.395 L62.07,93.418 Z M83.155,33.574 L83.155,70.686 C82.506,71.139 81.88,71.627 81.295,72.169 L81.295,33.574 C81.295,32.719 80.599,32.023 79.744,32.023 L73.233,32.023 L73.233,39.775 C73.233,41.656 71.702,43.186 69.822,43.186 L52.457,43.186 C50.577,43.186 49.046,41.656 49.046,39.775 L49.046,32.023 L42.535,32.023 C41.68,32.023 40.984,32.719 40.984,33.574 L40.984,93.419 L49.046,93.419 L49.046,80.395 L47.496,80.395 C46.982,80.395 46.566,79.979 46.566,79.465 L46.566,73.264 C46.566,72.75 46.982,72.333 47.496,72.333 L74.783,72.333 C75.297,72.333 75.713,72.75 75.713,73.264 L75.713,79.465 C75.713,79.979 75.297,80.395 74.783,80.395 L73.233,80.395 L73.233,93.419 L77.977,93.419 C78.34,94.061 78.736,94.685 79.182,95.279 L23.93,95.279 C23.417,95.279 23,94.863 23,94.349 L23,43.496 C23,41.615 24.53,40.085 26.411,40.085 L35.093,40.085 C35.607,40.085 36.023,40.502 36.023,41.016 C36.023,41.529 35.607,41.946 35.093,41.946 L26.411,41.946 C25.556,41.946 24.86,42.641 24.86,43.496 L24.86,93.419 L39.124,93.419 L39.124,33.574 C39.124,31.693 40.654,30.163 42.535,30.163 L49.046,30.163 L49.046,22.411 C49.046,20.53 50.577,19 52.457,19 L69.822,19 C71.702,19 73.233,20.53 73.233,22.411 L73.233,30.163 L79.744,30.163 C81.625,30.163 83.155,31.693 83.155,33.574 L83.155,33.574 Z M92.147,61.171 L87.186,61.171 C86.672,61.171 86.256,61.587 86.256,62.101 L86.256,68.962 C86.862,68.702 87.483,68.482 88.116,68.293 L88.116,63.031 L91.217,63.031 L91.217,67.648 C91.832,67.582 92.453,67.548 93.078,67.548 L93.078,62.101 C93.078,61.587 92.661,61.171 92.147,61.171 L92.147,61.171 Z M99.279,43.496 L99.279,68.713 C98.674,68.481 98.054,68.284 97.419,68.12 L97.419,43.496 C97.419,42.641 96.723,41.946 95.868,41.946 L87.186,41.946 C86.672,41.946 86.256,41.529 86.256,41.016 C86.256,40.502 86.672,40.085 87.186,40.085 L95.868,40.085 C97.749,40.085 99.279,41.615 99.279,43.496 L99.279,43.496 Z" id="Fill-9" fill="#343852"></path>
        <path d="M66.1007,30.1629 L62.0697,30.1629 L62.0697,26.1319 C62.0697,25.6179 61.6527,25.2019 61.1397,25.2019 C60.6257,25.2019 60.2097,25.6179 60.2097,26.1319 L60.2097,30.1629 L56.1787,30.1629 C55.6647,30.1629 55.2477,30.5799 55.2477,31.0929 C55.2477,31.6069 55.6647,32.0229 56.1787,32.0229 L60.2097,32.0229 L60.2097,36.0539 C60.2097,36.5679 60.6257,36.9849 61.1397,36.9849 C61.6527,36.9849 62.0697,36.5679 62.0697,36.0539 L62.0697,32.0229 L66.1007,32.0229 C66.6147,32.0229 67.0307,31.6069 67.0307,31.0929 C67.0307,30.5799 66.6147,30.1629 66.1007,30.1629" id="Fill-11" fill="#FFFFFF"></path>
        <path d="M82.2432,75.3381 C84.8922,72.3401 88.7682,70.4501 93.0772,70.4501 C101.0592,70.4501 107.5232,76.9151 107.5232,84.8961 C107.5232,92.8771 101.0592,99.3421 93.0772,99.3421 C88.7682,99.3421 84.8922,97.4521 82.2432,94.4541 C79.9922,91.9151 78.6322,88.5681 78.6322,84.8961 C78.6322,81.2251 79.9922,77.8781 82.2432,75.3381" id="Fill-12" fill="#FFFFFF"></path>
        <path d="M93.0775,71.3534 C89.1955,71.3534 85.4925,73.0234 82.9195,75.9354 C80.7365,78.3994 79.5345,81.5814 79.5345,84.8964 C79.5345,88.2114 80.7365,91.3934 82.9185,93.8554 C82.9195,93.8564 82.9195,93.8564 82.9195,93.8564 C85.4925,96.7694 89.1955,98.4394 93.0775,98.4394 C100.5455,98.4394 106.6205,92.3634 106.6205,84.8964 C106.6205,77.4284 100.5455,71.3534 93.0775,71.3534 M93.0775,100.2454 C88.6785,100.2454 84.4835,98.3524 81.5675,95.0534 C79.0925,92.2604 77.7285,88.6534 77.7285,84.8964 C77.7285,81.1394 79.0925,77.5324 81.5675,74.7394 C84.4825,71.4404 88.6775,69.5474 93.0775,69.5474 C101.5405,69.5474 108.4265,76.4334 108.4265,84.8964 C108.4265,93.3594 101.5405,100.2454 93.0775,100.2454" id="Fill-13" fill="#343852"></path>
        <polygon id="Fill-14" fill="#D20050" points="102.082 80.7242 91.565 91.2412 84.872 84.5482 87.74 81.6802 91.565 85.5052 99.214 77.8562"></polygon>
        <path d="M85.8862,84.5486 L91.5652,90.2276 L101.0682,80.7246 L99.2132,78.8696 L92.0722,86.0116 C91.7922,86.2916 91.3372,86.2916 91.0582,86.0116 L87.7402,82.6946 L85.8862,84.5486 Z M91.5652,91.9586 C91.3812,91.9586 91.1982,91.8886 91.0582,91.7486 L84.3652,85.0556 C84.0852,84.7756 84.0852,84.3216 84.3652,84.0416 L87.2332,81.1736 C87.5132,80.8936 87.9672,80.8936 88.2472,81.1736 L91.5652,84.4906 L98.7062,77.3486 C98.9862,77.0686 99.4412,77.0686 99.7202,77.3486 L102.5892,80.2176 C102.8692,80.4976 102.8692,80.9516 102.5892,81.2316 L92.0722,91.7486 C91.9322,91.8886 91.7482,91.9586 91.5652,91.9586 L91.5652,91.9586 Z" id="Fill-15" fill="#343852"></path>
    </g>
</svg>