<?xml version="1.0" encoding="UTF-8"?>
<svg width="120px" height="120px" viewBox="0 0 120 120" version="1.1" xmlns="http://www.w3.org/2000/svg" xmlns:xlink="http://www.w3.org/1999/xlink">
    <title>02.Icons/Illustrative/Expédition</title>
    <g id="02.Icons/Illustrative/Expédition" stroke="none" stroke-width="1" fill="none" fill-rule="evenodd">
        <path d="M97.9893409,55.7433656 C97.9893409,34.8984229 81.090918,18 60.2459753,18 C39.3999101,18 22.5014872,34.8984229 22.5014872,55.7433656 C22.5014872,76.5883083 39.3999101,93.4867313 60.2459753,93.4867313 C81.090918,93.4867313 97.9893409,76.5883083 97.9893409,55.7433656" id="Fill-1" fill="#F2F3F7"></path>
        <polygon id="Fill-3" fill="#FFFFFF" points="93.0139872 47.1650729 85.9796188 47.1650729 85.9796188 60.8903413 104.251916 60.8903413"></polygon>
        <path d="M85.9800678,60.8903413 L85.9800678,47.1650729 L93.0144362,47.1650729 L104.251242,60.8903413 L85.9800678,60.8903413 Z M111.714385,67.7529755 L111.714385,60.7017704 C111.714385,59.7229975 111.372039,58.7621839 110.736734,57.9910635 L97.5603421,41.8805976 C96.7544259,40.8861106 95.5365721,40.3024387 94.2491267,40.3024387 L79.1174336,40.3024387 L79.1174336,81.4782439 L80.8336534,81.4782439 L85.9800678,81.4782439 L86.151802,81.4950805 C86.9408815,77.5653975 90.405872,74.6156097 94.5589218,74.6156097 C98.7097267,74.6156097 102.17584,77.5653975 102.964919,81.4950805 L103.136653,81.4782439 L108.28419,81.4782439 C110.169899,81.4782439 111.714385,79.9337583 111.714385,78.0469268 L111.714385,74.6156097 L104.851751,74.6156097 L104.851751,67.7529755 L111.714385,67.7529755 Z" id="Fill-5" fill="#1D71B8"></path>
        <path d="M94.5584728,86.6248828 C92.6705188,86.6248828 91.1271557,85.0803972 91.1271557,83.1935657 C91.1271557,81.3067341 92.6705188,79.7622486 94.5584728,79.7622486 C96.4453043,79.7622486 97.9897899,81.3067341 97.9897899,83.1935657 C97.9897899,85.0803972 96.4453043,86.6248828 94.5584728,86.6248828 M102.96447,81.495305 C102.175391,77.565622 98.7104001,74.6147117 94.5584728,74.6147117 C90.4065454,74.6147117 86.9404325,77.565622 86.151353,81.495305 C86.0312513,82.0441811 85.9796188,82.6098938 85.9796188,83.1935657 C85.9796188,87.9291649 89.8228736,91.7712972 94.5584728,91.7712972 C99.2929496,91.7712972 103.136204,87.9291649 103.136204,83.1935657 C103.136204,82.6098938 103.084572,82.0441811 102.96447,81.495305" id="Fill-7" fill="#FFFFFF"></path>
        <path d="M94.5584728,79.7620241 C92.6705188,79.7620241 91.1271557,81.3065096 91.1271557,83.1933412 C91.1271557,85.0801727 92.6705188,86.6246583 94.5584728,86.6246583 C96.4453043,86.6246583 97.9897899,85.0801727 97.9897899,83.1933412 C97.9897899,81.3065096 96.4453043,79.7620241 94.5584728,79.7620241" id="Fill-9" fill="#D20050"></path>
        <path d="M17.3550728,33.440029 L17.3550728,38.5875659 L17.3550728,45.4490776 L17.3550728,54.0279316 L17.3550728,60.8905658 L17.3550728,81.4784683 L20.7863899,81.4784683 L27.6490241,81.4784683 L27.8196358,81.495305 C28.6087153,77.565622 32.0748282,74.6147117 36.2267556,74.6147117 C40.378683,74.6147117 43.8447959,77.565622 44.6327529,81.495305 L44.8044871,81.4784683 L51.6671213,81.4784683 L79.1176581,81.4784683 L79.1176581,40.3026632 L79.1176581,33.440029 L17.3550728,33.440029 Z" id="Fill-11" fill="#FFFFFF"></path>
        <path d="M36.2268678,86.6248828 C34.3400363,86.6248828 32.7955507,85.0803972 32.7955507,83.1935657 C32.7955507,81.3067341 34.3400363,79.7622486 36.2268678,79.7622486 C38.1136994,79.7622486 39.6581849,81.3067341 39.6581849,83.1935657 C39.6581849,85.0803972 38.1136994,86.6248828 36.2268678,86.6248828 M44.6328651,81.495305 C43.8449081,77.565622 40.3787952,74.6147117 36.2268678,74.6147117 C32.0749405,74.6147117 28.6088276,77.565622 27.8197481,81.495305 C27.6996464,82.0441811 27.6480139,82.6098938 27.6480139,83.1935657 C27.6480139,87.9291649 31.4912686,91.7712972 36.2268678,91.7712972 C40.9624671,91.7712972 44.8045994,87.9291649 44.8045994,83.1935657 C44.8045994,82.6098938 44.7540893,82.0441811 44.6328651,81.495305" id="Fill-15" fill="#FFFFFF"></path>
        <path d="M36.2268678,79.7620241 C34.3400363,79.7620241 32.7955507,81.3065096 32.7955507,83.1933412 C32.7955507,85.0801727 34.3400363,86.6246583 36.2268678,86.6246583 C38.1136994,86.6246583 39.6581849,85.0801727 39.6581849,83.1933412 C39.6581849,81.3065096 38.1136994,79.7620241 36.2268678,79.7620241" id="Fill-17" fill="#D20050"></path>
        <path d="M36.2268678,90.4849742 C32.2062666,90.4849742 28.9354593,87.2141669 28.9354593,83.1935657 C28.9354593,82.6716283 28.9814796,82.2069357 29.0768875,81.7691818 C29.0791324,81.7624472 29.0802548,81.7557125 29.0813773,81.7478554 C29.7627019,78.3603137 32.7663671,75.9021571 36.2268678,75.9021571 C39.6862461,75.9021571 42.6910337,78.3603137 43.3723584,81.7478554 C43.3734808,81.7557125 43.3746033,81.7624472 43.3768482,81.7691818 C43.4722561,82.2069357 43.5182764,82.6716283 43.5182764,83.1935657 C43.5182764,87.2141669 40.247469,90.4849742 36.2268678,90.4849742 M45.8922494,81.2304078 C44.967354,76.6508286 40.9040999,73.3283887 36.2268678,73.3283887 C31.5496358,73.3283887 27.4863817,76.6508286 26.5603638,81.2304078 C26.4267927,81.8466306 26.3616909,82.4886697 26.3616909,83.1935657 C26.3616909,88.6329385 30.787495,93.0576202 36.2268678,93.0576202 C41.6662406,93.0576202 46.0920448,88.6329385 46.0920448,83.1935657 C46.0920448,82.4886697 46.0269429,81.8466306 45.8922494,81.2304078" id="Fill-19" fill="#343852"></path>
        <path d="M94.5584728,90.4849742 C90.5378716,90.4849742 87.2670643,87.2141669 87.2670643,83.1935657 C87.2670643,82.6716283 87.3130845,82.2069357 87.4084924,81.7691818 C87.4107373,81.7624472 87.4118598,81.7557125 87.4129822,81.7478554 C88.0931844,78.3603137 91.0979721,75.9021571 94.5584728,75.9021571 C98.017851,75.9021571 101.022639,78.3603137 101.702841,81.7478554 L101.708453,81.7691818 C101.803861,82.2069357 101.849881,82.6716283 101.849881,83.1935657 C101.849881,87.2141669 98.579074,90.4849742 94.5584728,90.4849742 M104.223854,81.2304078 C103.298959,76.651951 99.2357048,73.3283887 94.5584728,73.3283887 C89.8812407,73.3283887 85.8179866,76.651951 84.8919687,81.2304078 C84.7583977,81.8466306 84.6932958,82.4886697 84.6932958,83.1935657 C84.6932958,88.6329385 89.1191,93.0576202 94.5584728,93.0576202 C99.9978456,93.0576202 104.42365,88.6329385 104.42365,83.1935657 C104.42365,82.4886697 104.357425,81.8466306 104.223854,81.2304078" id="Fill-21" fill="#343852"></path>
        <path d="M111.733354,57.1760556 L98.5603291,41.0712019 C97.5018627,39.7646749 95.9304384,39.0160034 94.2490145,39.0160034 L79.1173214,39.0160034 C78.4068131,39.0160034 77.8309984,39.5918182 77.8309984,40.3023264 L77.8309984,81.4781316 C77.8309984,82.1886399 78.4068131,82.7644546 79.1173214,82.7644546 L80.8335411,82.7644546 C81.5440494,82.7644546 82.1198641,82.1886399 82.1198641,81.4781316 C82.1198641,80.7676234 81.5440494,80.1906862 80.8335411,80.1906862 L80.4047668,80.1906862 L80.4047668,41.5897719 L94.2490145,41.5897719 C95.151461,41.5897719 95.9932954,41.9904851 96.5646203,42.6953811 L109.743258,58.8080919 C110.184379,59.3457435 110.42795,60.0180886 110.42795,60.7016581 L110.42795,78.0468145 C110.42795,79.22875 109.464891,80.1906862 108.284078,80.1906862 C107.572447,80.1906862 106.996632,80.7676234 106.996632,81.4781316 C106.996632,82.1886399 107.572447,82.7644546 108.284078,82.7644546 C110.884785,82.7644546 113.001718,80.6486441 113.001718,78.0468145 L113.001718,60.7016581 C113.001718,59.4231922 112.550495,58.1705426 111.733354,57.1760556" id="Fill-23" fill="#343852"></path>
        <path d="M87.266952,59.6034571 L87.266952,48.4519571 L92.4043869,48.4519571 L101.535484,59.6034571 L87.266952,59.6034571 Z M105.247413,60.0748843 L94.0094845,46.3496159 C93.7659137,46.0510453 93.3999964,45.8781887 93.013875,45.8781887 L85.980629,45.8781887 C85.2701208,45.8781887 84.6931836,46.4551259 84.6931836,47.1645117 L84.6931836,60.88978 C84.6931836,61.6002883 85.2701208,62.176103 85.980629,62.176103 L104.251803,62.176103 C104.749047,62.176103 105.201393,61.8910018 105.413535,61.440901 C105.627922,60.9919226 105.561698,60.4598833 105.247413,60.0748843 L105.247413,60.0748843 Z" id="Fill-26" fill="#343852"></path>
        <path d="M111.714609,73.3287254 L106.138298,73.3287254 L106.138298,69.0398597 L111.714609,69.0398597 C112.425118,69.0398597 113.000932,68.4640449 113.000932,67.7524142 C113.000932,67.041906 112.425118,66.4660913 111.714609,66.4660913 L104.851975,66.4660913 C104.141467,66.4660913 103.565652,67.041906 103.565652,67.7524142 L103.565652,74.6150484 C103.565652,75.3255567 104.141467,75.9013714 104.851975,75.9013714 L111.714609,75.9013714 C112.425118,75.9013714 113.000932,75.3255567 113.000932,74.6150484 C113.000932,73.9045402 112.425118,73.3287254 111.714609,73.3287254" id="Fill-28" fill="#343852"></path>
        <path d="M79.1176581,80.1911352 L51.6671213,80.1911352 C50.9566131,80.1911352 50.3807983,80.7669499 50.3807983,81.4774581 C50.3807983,82.1879664 50.9566131,82.7637811 51.6671213,82.7637811 L79.1176581,82.7637811 C79.8281663,82.7637811 80.4039811,82.1879664 80.4039811,81.4774581 C80.4039811,80.7669499 79.8281663,80.1911352 79.1176581,80.1911352" id="Fill-30" fill="#343852"></path>
        <path d="M20.7861654,80.1911352 L18.6411713,80.1911352 L18.6411713,60.890678 C18.6411713,60.1790473 18.0653565,59.6032326 17.3548483,59.6032326 C16.64434,59.6032326 16.0685253,60.1790473 16.0685253,60.890678 L16.0685253,81.4774581 C16.0685253,82.1879664 16.64434,82.7637811 17.3548483,82.7637811 L20.7861654,82.7637811 C21.4966736,82.7637811 22.0724884,82.1879664 22.0724884,81.4774581 C22.0724884,80.7669499 21.4966736,80.1911352 20.7861654,80.1911352" id="Fill-32" fill="#343852"></path>
        <path d="M79.1176581,32.1533693 L17.3550728,32.1533693 C16.6445645,32.1533693 16.0687498,32.729184 16.0687498,33.4396922 L16.0687498,38.5872291 C16.0687498,39.2977374 16.6445645,39.8735521 17.3550728,39.8735521 C18.065581,39.8735521 18.6413958,39.2977374 18.6413958,38.5872291 L18.6413958,34.7260152 L77.8313351,34.7260152 L77.8313351,40.3023264 C77.8313351,41.0128347 78.4071498,41.5897719 79.1176581,41.5897719 C79.8281663,41.5897719 80.4039811,41.0128347 80.4039811,40.3023264 L80.4039811,33.4396922 C80.4039811,32.729184 79.8281663,32.1533693 79.1176581,32.1533693" id="Fill-34" fill="#343852"></path>
        <path d="M31.0936983,52.7410473 L4.28744544,52.7410473 C3.57581474,52.7410473 3,53.3168621 3,54.0273703 C3,54.7378786 3.57581474,55.3136933 4.28744544,55.3136933 L31.0936983,55.3136933 C31.8042065,55.3136933 32.3800213,54.7378786 32.3800213,54.0273703 C32.3800213,53.3168621 31.8042065,52.7410473 31.0936983,52.7410473" id="Fill-36" fill="#343852"></path>
        <path d="M37.9559957,44.1627546 L9.43352313,44.1627546 C8.72301488,44.1627546 8.14720014,44.7385693 8.14720014,45.4490776 C8.14720014,46.1595859 8.72301488,46.736523 9.43352313,46.736523 L37.9559957,46.736523 C38.666504,46.736523 39.2423187,46.1595859 39.2423187,45.4490776 C39.2423187,44.7385693 38.666504,44.1627546 37.9559957,44.1627546" id="Fill-39" fill="#343852"></path>
    </g>
</svg>