<?xml version="1.0" encoding="UTF-8"?>
<svg width="120px" height="120px" viewBox="0 0 120 120" version="1.1" xmlns="http://www.w3.org/2000/svg" xmlns:xlink="http://www.w3.org/1999/xlink">
    <title>02.Icons/Illustrative/Faire opposition</title>
    <g id="02.Icons/Illustrative/Faire-opposition" stroke="none" stroke-width="1" fill="none" fill-rule="evenodd">
        <path d="M81,69.69169 C81,49.2571543 64.4345357,32.69169 44,32.69169 C23.5654643,32.69169 7,49.2571543 7,69.69169 C7,90.1262257 23.5654643,106.69169 44,106.69169 C53.8130451,106.69169 63.2242061,102.793638 70.1630769,95.8547669 C77.1019476,88.9158961 81,79.5047351 81,69.69169" id="Fill-1" fill="#F2F3F7"></path>
        <path d="M18.1252459,34.68954 L18.1252459,83.24019 C18.1236283,84.4478538 18.6026528,85.6065212 19.4566008,86.4604692 C20.3105488,87.3144172 21.4692162,87.7934417 22.67688,87.7918241 L103.08888,87.7918241 L103.08888,34.68954 L18.1252459,34.68954 Z" id="Fill-1-2" fill="#FFFFFF"></path>
        <path d="M99.21252,30.13791 L22.0016,30.13791 C20.9735211,30.13791 19.9875387,30.5462583 19.2605603,31.273203 C18.5335818,32.0001477 18.12514,32.9861111 18.12514,34.01419 L18.12514,49.50242 C18.12514,49.50242 23.46838,46.73901 34.4336,46.73901 C49.98649,46.97342 62.10235,53.3785 79.98985,53.3785 C97.87735,53.3785 103.0888,47.98521 103.0888,47.98521 L103.0888,34.01421 C103.0888,31.8734065 101.353323,30.13791 99.21252,30.13791" id="Fill-3" fill="#1D71B8"></path>
        <path d="M27.5306,36.03395 C26.8501241,36.7342455 26.4659125,37.6699793 26.45793,38.6464 C26.466119,39.6135008 26.8509051,40.5393341 27.5306,41.22735 C28.2678335,41.9293533 29.2529064,42.3110989 30.27067,42.28921 C30.8189502,42.2732989 31.359355,42.1544761 31.86375,41.93893 L31.86375,39.76154 C31.4663836,40.2355741 30.8785894,40.5080643 30.26005,40.50498 C29.7761118,40.50878 29.3075722,40.3350305 28.94312,40.01662 C28.5765596,39.6505766 28.3702855,39.1539988 28.36961,38.63597 C28.3639548,38.0864661 28.5871111,37.5593681 28.98561,37.18097 C29.3328349,36.8643104 29.7904385,36.6965218 30.26006,36.71367 C30.8875185,36.7022816 31.4829538,36.9901433 31.86375,37.48897 L31.86375,35.29052 C31.3401908,35.0636612 30.7774379,34.9410117 30.20696,34.9293998 C29.2031334,34.9254065 28.2394138,35.3231286 27.5306,36.03395" id="Fill-17" fill="#FFFFFF"></path>
        <path d="M36.26044,38.07308 C36.035466,38.2346097 35.7615653,38.3133929 35.48515,38.29608 L34.86915,38.29608 L34.86915,36.53308 L35.49576,36.53308 C35.7811648,36.5104684 36.0638632,36.6021545 36.28167,36.78797 C36.4359734,36.9627774 36.5126382,37.192772 36.49408,37.4252 C36.5162949,37.6651357 36.4306786,37.9025271 36.26043,38.07305 M35.96306,35.04622 L33.03182,35.04622 L33.03182,42.13007 L34.86916,42.13007 L34.86916,39.78297 L36.02679,39.78297 C36.6741786,39.8289389 37.3119025,39.6061154 37.78979,39.16697 C38.238779,38.6944824 38.4664786,38.0538375 38.4164,37.40397 C38.4597466,36.7616118 38.2190342,36.1325872 37.75793,35.68327 C37.2706717,35.2365125 36.6229604,35.0066369 35.96308,35.04627" id="Fill-19" fill="#FFFFFF"></path>
        <path d="M43.84343,38.51905 C43.4876017,38.1717757 43.0429721,37.9292514 42.55835,37.8181 L41.99547,37.64817 C41.7625735,37.6070236 41.5477183,37.4959616 41.37947,37.32975 C41.3101469,37.2385133 41.276192,37.1252673 41.28388,37.01094 C41.2877243,36.8637992 41.3532442,36.7250516 41.46443,36.6286 C41.632417,36.4843414 41.8485052,36.4085211 42.0698,36.41619 C42.5176441,36.4252669 42.9473205,36.5949471 43.28053,36.89431 L44.01334,35.46031 C43.3377477,35.1037978 42.5891401,34.9076271 41.82553,34.887 C41.1548801,34.8569061 40.5003381,35.0979849 40.00943,35.5559 C39.5680766,36.0129454 39.3338465,36.6312248 39.36158,37.26598 C39.3312819,37.7198444 39.4756667,38.1681175 39.76516,38.51898 C40.0502293,38.7943893 40.4013219,38.9918781 40.78472,39.09248 L41.26264,39.24117 C41.5884179,39.3044481 41.8986895,39.4307825 42.17601,39.61307 C42.3031072,39.7175346 42.3770695,39.8731824 42.37779,40.0377 C42.3786202,40.2043449 42.3137555,40.364606 42.19725,40.48376 C42.0048905,40.6615083 41.7466431,40.750159 41.48567,40.72803 C40.8734172,40.696269 40.2945882,40.439012 39.86074,40.00584 L39.07484,41.49276 C39.4079808,41.7236351 39.7682391,41.9126827 40.14751,42.05565 C40.5925369,42.2200067 41.0644876,42.2992656 41.53879,42.2893 C42.3066306,42.3527182 43.0657964,42.0906679 43.63102,41.5671 C44.0907406,41.0901907 44.3328847,40.4444671 44.3001,39.78287 C44.3312337,39.316279 44.1656254,38.8579597 43.84343,38.51904" id="Fill-21" fill="#FFFFFF"></path>
        <polygon id="Fill-23" fill="#DEE0EA" points="28.5556 64.54176 39.1766 64.54176 39.1766 56.11976 28.5556 56.11976"></polygon>
        <path d="M98.5372,29 L22.67685,29 C19.536102,29.0035601 16.9909215,31.548772 16.9874,34.68952 L16.9874,83.24018 C16.990927,86.3809241 19.5361059,88.9261299 22.67685,88.92969 L78.4796,88.92969 C79.1080503,88.92969 79.61751,88.4202303 79.61751,87.79178 C79.61751,87.1633297 79.1080503,86.65387 78.4796,86.65387 L22.67685,86.65387 C20.7924361,86.6517097 19.2653741,85.124594 19.26328,83.24018 L19.26328,49.90991 C24.3351922,48.2566782 29.6479164,47.4634669 34.98154,47.56311 C41.83237,47.56311 47.8751,48.99842 54.27254,50.51789 C61.7303,52.28907 69.44197,54.12067 79.5721,54.12067 C92.55891,54.12067 99.04646,51.36762 101.951,49.50647 L101.951,59.53662 C101.951,60.1650206 102.460419,60.67444 103.08882,60.67444 C103.717221,60.67444 104.22664,60.1650206 104.22664,59.53662 L104.22664,34.68952 C104.223119,31.5487759 101.677944,29.0035656 98.5372,29 L98.5372,29 Z M97.7086,49.11615 C92.08336,51.37152 84.74107,51.84485 79.57213,51.84485 C69.70836,51.84485 62.12877,50.04468 54.79869,48.30371 C48.26769,46.75257 42.09898,45.2873 34.98155,45.2873 C29.6579407,45.1938804 24.3530349,45.9427075 19.26329,47.50605 L19.26329,34.68952 C19.2653786,32.8051021 20.7924422,31.2779803 22.67686,31.27582 L98.5372,31.27582 C100.421668,31.2779581 101.948816,32.8050525 101.95102,34.68952 L101.95102,46.6731 C100.690901,47.7296671 99.2549268,48.5565908 97.7086,49.11615 L97.7086,49.11615 Z M57.77182,63.91095 L46.19345,63.91095 C45.5649997,63.91095 45.05554,63.4014903 45.05554,62.77304 C45.05554,62.1445897 45.5649997,61.63513 46.19345,61.63513 L57.77182,61.63513 C58.4002703,61.63513 58.90973,62.1445897 58.90973,62.77304 C58.90973,63.4014903 58.4002703,63.91095 57.77182,63.91095 L57.77182,63.91095 Z M46.18125,73.51258 L28.42099,73.51258 C27.7925397,73.51258 27.2830801,73.0031203 27.2830801,72.37467 C27.2830801,71.7462197 27.7925397,71.23676 28.42099,71.23676 L46.18125,71.23676 C46.5877861,71.23676 46.963441,71.4536444 47.166709,71.805715 C47.3699771,72.1577856 47.3699771,72.5915544 47.166709,72.943625 C46.963441,73.2956956 46.5877861,73.51258 46.18125,73.51258 Z M27.2833,76.93598 C27.2833,76.3075856 27.7925956,75.7981173 28.42099,75.79804 L37.6373,75.79804 C38.0438361,75.79804 38.419491,76.0149244 38.6227591,76.366995 C38.8260272,76.7190656 38.8260272,77.1528344 38.6227591,77.504905 C38.419491,77.8569756 38.0438361,78.07386 37.6373,78.07386 L28.42099,78.07386 C27.792619,78.0737827 27.2833,77.564351 27.2833,76.93598 Z M27.2833,81.49738 C27.2833,80.8690067 27.7926167,80.3595718 28.42099,80.3595 L40.5126,80.3595 C40.9191361,80.3595 41.294791,80.5763844 41.4980591,80.928455 C41.7013272,81.2805256 41.7013272,81.7142944 41.4980591,82.066365 C41.294791,82.4184356 40.9191361,82.63532 40.5126,82.63532 L28.42099,82.63532 C27.7925956,82.6352427 27.2833,82.1257744 27.2833,81.49738 L27.2833,81.49738 Z M28.556,65.67908 L39.17636,65.67908 C39.8048177,65.67908 40.3143623,65.1697776 40.31455,64.54132 L40.31455,56.12006 C40.3143512,55.4915875 39.8048325,54.98218 39.17636,54.98218 L28.556,54.98218 C27.9276137,54.982318 27.4182311,55.4916737 27.41806,56.12006 L27.41806,64.54132 C27.4181925,65.1697029 27.9276171,65.67908 28.556,65.67908 Z M29.69394,57.258 L38.03867,57.258 L38.03867,63.40345 L29.69394,63.40345 L29.69394,57.258 Z" id="Shape" fill="#343852"></path>
        <path d="M94.4671,46.67218 L94.4671,43.90445 C94.4671,42.70756 95.49024,40.74159 96.75766,40.74159 C98.86435,40.74159 100.57551,43.35719 100.57551,45.34643 L100.57551,48.23023 C100.592072,47.639536 100.8428,47.0796613 101.272453,46.6739616 C101.702106,46.2682619 102.275428,46.050027 102.8661,46.06734 C104.914616,46.0115165 106.622043,47.6238282 106.6836,49.67218 L106.6836,70.89276 C106.6836,70.89276 110.50144,60.9719 114.31897,60.9719 C116.22773,60.9719 117.37318,62.05334 117.37318,63.22118 C117.37318,64.13084 114.74651,69.70982 114.31897,72.50737 C113.29611,79.16963 112.34381,75.41021 107.10637,83.84675 C105.96092,85.67732 103.62969,91.39123 103.62969,94.63556 L103.62969,101.3879 L86.83205,101.3879 L86.83205,93.92862 C86.83205,91.53667 87.35973,88.91454 86.36649,86.72346 L85.30492,83.29355 C84.31168,81.10244 82.25086,78.99035 82.25086,76.59737 L82.25086,49.55612 C82.2674273,48.9654164 82.5181551,48.4055324 82.9478055,47.9998161 C83.3774559,47.5940998 83.9507769,47.3758394 84.54146,47.39312 C86.5899838,47.3372853 88.2974228,48.9496002 88.35898,50.99796 L88.35898,45.23026 C88.3755444,44.6395651 88.626275,44.0796904 89.0559293,43.673991 C89.4855836,43.2682916 90.0589066,43.050057 90.64958,43.06737 C92.6980924,43.0115351 94.4055266,44.6238321 94.4671,46.67218 L94.4671,46.67218 Z" id="Path" fill="#FFFFFF"></path>
        <rect id="Rectangle" fill="#D20050" x="82.5397" y="90.14105" width="26.77825" height="11.59096" rx="2.72936"></rect>
        <path d="M114.31894,59.82196 C111.75229,59.82196 109.44638,62.86286 107.83359,65.74274 L107.83359,48.67206 C107.770391,45.9892438 105.548826,43.8631012 102.86582,43.91767 C102.469231,43.9210675 102.076073,43.9915178 101.70298,44.12604 C101.524101,41.5391554 99.3500795,39.5458101 96.75742,39.59149 C94.9828411,39.5669269 93.4909652,40.9179086 93.33994,42.68622 C92.5327008,42.1837672 91.6008386,41.9175223 90.65,41.91767 C88.7860613,41.8848806 87.2469515,43.3663377 87.20859,45.23017 L87.20859,46.99994 C86.406781,46.5056923 85.4834914,46.2437682 84.54159,46.24335 C82.6775406,46.2107676 81.1384715,47.6924091 81.10018,49.55635 L81.10018,72.38446 C81.10018,74.9462418 81.6510978,77.4780659 82.71542,79.80829 L84.27206,83.24188 C85.2007212,85.2736924 85.6813245,87.4815386 85.68124,89.71552 L85.68124,90.14105 L85.01571,90.14105 C83.6882645,90.1079565 82.5826819,91.1518898 82.53964,92.47905 L82.53964,99.3939 C82.5826659,100.72108 83.6882448,101.765045 85.01571,101.73198 L106.84188,101.73198 C108.169347,101.765045 109.274929,100.721081 109.31796,99.3939 L109.31796,92.47907 C109.274913,91.1519082 108.169327,90.1079764 106.84188,90.14107 L105.86508,90.14107 C106.218122,88.2033737 106.914882,86.3444392 107.92245,84.65207 C109.167775,82.4688398 110.750466,80.4962418 112.6119,78.80734 C114.14706,77.40598 114.85116,76.62082 115.45565,72.68134 C115.93214,70.6467439 116.582982,68.6569676 117.40096,66.73407 C117.939368,65.6221089 118.317461,64.4394516 118.52396,63.22138 C118.52396,61.57294 117.05039,59.82196 114.31894,59.82196 Z M106.94565,92.47907 L106.94565,99.39392 C106.940011,99.4477282 106.895932,99.4893599 106.84189,99.49192 L85.01572,99.49192 C84.9616777,99.4893599 84.9175991,99.4477282 84.91196,99.39392 L84.91196,92.47907 C84.9175748,92.4252498 84.9616671,92.3836051 85.01572,92.38107 L106.84189,92.38107 C106.895943,92.3836051 106.940035,92.4252498 106.94565,92.47907 L106.94565,92.47907 Z M115.25449,65.9079 C114.371907,67.982819 113.678338,70.1331398 113.18222,72.33271 C112.67539,75.63544 112.26914,76.00653 111.06113,77.1081 C109.045683,78.9395071 107.328406,81.0742408 105.97129,83.43524 C104.738421,85.4948786 103.909882,87.7708479 103.53012,90.14105 L87.98203,90.14105 L87.98203,89.71552 C87.9820416,87.1541512 87.4315225,84.6227001 86.36777,82.29267 L84.81113,78.85907 C83.8818975,76.8270679 83.40097,74.6188515 83.40097,72.38446 L83.40097,49.55634 C83.438883,48.9629036 83.9478335,48.5108171 84.5416,48.54315 C85.9544144,48.4885277 87.1460588,49.585274 87.2086,50.99776 L87.2086,64.73993 C87.2086,65.3752729 87.7236471,65.89032 88.35899,65.89032 C88.9943329,65.89032 89.50938,65.3752729 89.50938,64.73993 L89.50938,45.23017 C89.5473488,44.6368309 90.0563491,44.1849188 90.65001,44.21747 C92.062817,44.1628475 93.2544582,45.2595819 93.31701,46.67206 L93.31701,66.73993 C93.31701,67.3752729 93.8320571,67.89032 94.4674,67.89032 C95.1027429,67.89032 95.61779,67.3752729 95.61779,66.73993 L95.61779,42.90448 C95.6552363,42.3112186 96.1638748,41.8590251 96.75744,41.8913 C98.1706782,41.8364841 99.3627984,42.9334671 99.42544,44.34638 L99.42544,66.73993 C99.42544,67.3752729 99.9404871,67.89032 100.57583,67.89032 C101.211173,67.89032 101.72622,67.3752729 101.72622,66.73993 L101.72622,47.23017 C101.763875,46.6370793 102.272465,46.1851435 102.86587,46.21747 C104.278677,46.1628475 105.470318,47.2595819 105.53287,48.67206 L105.53287,70.14026 C102.046955,71.5971031 99.5417932,74.7274733 98.88443,78.44794 C98.7777102,79.074099 99.1987233,79.6682395 99.82486,79.77509 C99.8890801,79.7859043 99.9540761,79.7914561 100.0192,79.79169 C100.579403,79.7909374 101.057674,79.3868936 101.15201,78.83469 C101.741637,75.6751619 103.982234,73.0754828 107.02017,72.02609 C107.354511,71.9195665 107.620258,71.6635481 107.73917,71.33341 C107.74356,71.32321 107.7526,71.31674 107.7565,71.30641 C109.18228,67.60231 112.25357,62.12184 114.319,62.12184 C115.51139,62.12184 116.2233,62.68141 116.22623,63.16774 C115.951832,64.097938 115.627447,65.0126541 115.25449,65.9079 L115.25449,65.9079 Z" id="Shape" fill="#343852"></path>
    </g>
</svg>