<?xml version="1.0" encoding="UTF-8"?>
<svg width="120px" height="120px" viewBox="0 0 120 120" version="1.1" xmlns="http://www.w3.org/2000/svg" xmlns:xlink="http://www.w3.org/1999/xlink">
    <title>02.Icons/Illustrative/Offres Portails génériques</title>
    <g id="02.Icons/Illustrative/Offres-Portails-génériques" stroke="none" stroke-width="1" fill="none" fill-rule="evenodd">
        <path d="M87.0863,46.671 C87.0863,31.915 75.1233,19.951 60.3663,19.951 C45.6093,19.951 33.6463,31.915 33.6463,46.671 C33.6463,61.427 45.6093,73.391 60.3663,73.391 C75.1233,73.391 87.0863,61.427 87.0863,46.671" id="Fill-1" fill="#F2F3F7"></path>
        <path d="M101.7823,80.512 L101.7823,92.99 C101.7823,93.979 100.9803,94.767 100.0053,94.767 L89.7583,94.767 L79.5113,94.767 C79.0433,94.767 78.5893,94.58 78.2553,94.246 C77.9213,93.912 77.7343,93.457 77.7343,92.977 L77.7343,80.512 C77.7343,79.523 78.5363,78.735 79.5113,78.735 L100.0053,78.735 C100.4733,78.735 100.9273,78.922 101.2613,79.256 C101.5953,79.59 101.7823,80.045 101.7823,80.512" id="Fill-3" fill="#969CBB"></path>
        <path d="M79.0703,22.6229 L79.0703,41.3269 C79.0703,42.7959 77.8683,43.9989 76.3983,43.9989 L63.0383,43.9989 L57.6943,43.9989 L44.3343,43.9989 C42.8643,43.9989 41.6623,42.7959 41.6623,41.3269 L41.6623,22.6229 C41.6623,21.1539 42.8643,19.9509 44.3343,19.9509 L76.3983,19.9509 C77.8683,19.9509 79.0703,21.1539 79.0703,22.6229" id="Fill-5" fill="#1D71B8"></path>
        <path d="M72.3903,80.512 L72.3903,92.99 C72.3903,93.979 71.5883,94.767 70.6133,94.767 L60.3663,94.767 L50.1193,94.767 C49.1303,94.767 48.3423,93.966 48.3423,92.977 L48.3423,80.512 C48.3423,80.045 48.5293,79.59 48.8633,79.256 C49.1973,78.922 49.6513,78.735 50.1193,78.735 L70.6133,78.735 C71.0813,78.735 71.5353,78.922 71.8693,79.256 C72.2033,79.59 72.3903,80.045 72.3903,80.512" id="Fill-7" fill="#969CBB"></path>
        <polygon id="Fill-9" fill="#D20050" points="57.694 50.679 63.038 50.679 63.038 43.999 57.694 43.999"></polygon>
        <path d="M42.9982,80.512 L42.9982,92.99 C42.9982,93.979 42.1962,94.767 41.2212,94.767 L30.9742,94.767 L20.7272,94.767 C19.7382,94.767 18.9502,93.966 18.9502,92.977 L18.9502,80.512 C18.9502,80.045 19.1372,79.59 19.4712,79.256 C19.8052,78.922 20.2592,78.735 20.7272,78.735 L41.2212,78.735 C41.6892,78.735 42.1432,78.922 42.4772,79.256 C42.8112,79.59 42.9982,80.045 42.9982,80.512" id="Fill-11" fill="#969CBB"></path>
        <path d="M100.832,92.9897 C100.832,93.4457 100.461,93.8167 100.005,93.8167 L79.512,93.8167 C79.295,93.8167 79.082,93.7287 78.928,93.5747 C78.77,93.4187 78.685,93.2057 78.685,92.9767 L78.685,80.5117 C78.685,80.0557 79.056,79.6847 79.512,79.6847 L100.005,79.6847 C100.222,79.6847 100.435,79.7727 100.589,79.9267 C100.743,80.0817 100.832,80.2957 100.832,80.5117 L100.832,92.9897 Z M101.933,78.5837 C101.425,78.0757 100.723,77.7847 100.005,77.7847 L79.512,77.7847 C78.008,77.7847 76.784,79.0087 76.784,80.5117 L76.784,92.9767 C76.784,93.7137 77.068,94.4027 77.584,94.9187 C78.092,95.4267 78.794,95.7177 79.512,95.7177 L88.809,95.7177 L88.809,99.1607 L84.414,99.1607 C83.89,99.1607 83.464,99.5867 83.464,100.1107 C83.464,100.6357 83.89,101.0607 84.414,101.0607 L95.103,101.0607 C95.627,101.0607 96.053,100.6357 96.053,100.1107 C96.053,99.5867 95.627,99.1607 95.103,99.1607 L90.709,99.1607 L90.709,95.7177 L100.005,95.7177 C101.509,95.7177 102.732,94.4937 102.732,92.9897 L102.732,80.5117 C102.732,79.7947 102.44,79.0927 101.933,78.5837 L101.933,78.5837 Z M42.048,92.9897 C42.048,93.4457 41.677,93.8167 41.221,93.8167 L20.728,93.8167 C20.264,93.8167 19.9,93.4477 19.9,92.9767 L19.9,80.5117 C19.9,80.2957 19.989,80.0817 20.144,79.9267 C20.298,79.7727 20.511,79.6847 20.728,79.6847 L41.221,79.6847 C41.437,79.6847 41.65,79.7727 41.805,79.9267 C41.959,80.0817 42.048,80.2957 42.048,80.5117 L42.048,92.9897 Z M41.221,77.7847 L20.728,77.7847 C20.01,77.7847 19.308,78.0757 18.8,78.5837 C18.292,79.0927 18,79.7947 18,80.5117 L18,92.9767 C18,94.4877 19.224,95.7177 20.728,95.7177 L30.023,95.7177 L30.023,99.1607 L25.63,99.1607 C25.105,99.1607 24.68,99.5867 24.68,100.1107 C24.68,100.6357 25.105,101.0607 25.63,101.0607 L36.318,101.0607 C36.843,101.0607 37.269,100.6357 37.269,100.1107 C37.269,99.5867 36.843,99.1607 36.318,99.1607 L31.924,99.1607 L31.924,95.7177 L41.221,95.7177 C42.725,95.7177 43.948,94.4937 43.948,92.9897 L43.948,80.5117 C43.948,79.7947 43.656,79.0927 43.148,78.5837 C42.641,78.0757 41.938,77.7847 41.221,77.7847 L41.221,77.7847 Z M71.44,92.9897 C71.44,93.4457 71.069,93.8167 70.613,93.8167 L50.119,93.8167 C49.655,93.8167 49.292,93.4477 49.292,92.9767 L49.292,80.5117 C49.292,80.2957 49.381,80.0817 49.535,79.9267 C49.689,79.7727 49.902,79.6847 50.119,79.6847 L70.613,79.6847 C70.83,79.6847 71.043,79.7727 71.197,79.9267 C71.352,80.0817 71.44,80.2957 71.44,80.5117 L71.44,92.9897 Z M70.613,77.7847 L50.119,77.7847 C49.401,77.7847 48.699,78.0757 48.191,78.5837 C47.684,79.0927 47.392,79.7947 47.392,80.5117 L47.392,92.9767 C47.392,94.4877 48.615,95.7177 50.119,95.7177 L59.416,95.7177 L59.416,99.1607 L55.022,99.1607 C54.498,99.1607 54.072,99.5867 54.072,100.1107 C54.072,100.6357 54.498,101.0607 55.022,101.0607 L65.71,101.0607 C66.234,101.0607 66.66,100.6357 66.66,100.1107 C66.66,99.5867 66.234,99.1607 65.71,99.1607 L61.316,99.1607 L61.316,95.7177 L70.613,95.7177 C72.117,95.7177 73.341,94.4937 73.341,92.9897 L73.341,80.5117 C73.341,79.7947 73.049,79.0927 72.541,78.5837 C72.033,78.0757 71.331,77.7847 70.613,77.7847 L70.613,77.7847 Z M78.12,41.3267 C78.12,42.2757 77.348,43.0487 76.398,43.0487 L44.334,43.0487 C43.385,43.0487 42.612,42.2757 42.612,41.3267 L42.612,22.6227 C42.612,21.6737 43.385,20.9007 44.334,20.9007 L76.398,20.9007 C77.348,20.9007 78.12,21.6737 78.12,22.6227 L78.12,41.3267 Z M58.645,49.7287 L62.088,49.7287 L62.088,44.9487 L58.645,44.9487 L58.645,49.7287 Z M76.398,19.0007 L44.334,19.0007 C42.337,19.0007 40.712,20.6257 40.712,22.6227 L40.712,41.3267 C40.712,43.3237 42.337,44.9487 44.334,44.9487 L56.744,44.9487 L56.744,49.7287 L52.351,49.7287 C51.826,49.7287 51.4,50.1547 51.4,50.6787 C51.4,51.2037 51.826,51.6297 52.351,51.6297 L68.382,51.6297 C68.906,51.6297 69.332,51.2037 69.332,50.6787 C69.332,50.1547 68.906,49.7287 68.382,49.7287 L63.988,49.7287 L63.988,44.9487 L76.398,44.9487 C78.395,44.9487 80.02,43.3237 80.02,41.3267 L80.02,22.6227 C80.02,20.6257 78.395,19.0007 76.398,19.0007 L76.398,19.0007 Z" id="Fill-12" fill="#343852"></path>
        <path d="M85.75,63.0883 L61.316,63.0883 L61.316,57.3593 C61.316,56.8343 60.891,56.4083 60.366,56.4083 C59.842,56.4083 59.416,56.8343 59.416,57.3593 L59.416,63.0883 L34.982,63.0883 C32.248,63.0883 30.023,65.3133 30.023,68.0473 L30.023,72.0553 C30.023,72.5793 30.449,73.0053 30.974,73.0053 C31.498,73.0053 31.924,72.5793 31.924,72.0553 L31.924,68.0473 C31.924,66.3603 33.296,64.9883 34.982,64.9883 L59.416,64.9883 L59.416,72.0553 C59.416,72.5793 59.842,73.0053 60.366,73.0053 C60.891,73.0053 61.316,72.5793 61.316,72.0553 L61.316,64.9883 L85.75,64.9883 C87.437,64.9883 88.809,66.3603 88.809,68.0473 L88.809,72.0553 C88.809,72.5793 89.234,73.0053 89.759,73.0053 C90.283,73.0053 90.709,72.5793 90.709,72.0553 L90.709,68.0473 C90.709,65.3133 88.484,63.0883 85.75,63.0883" id="Fill-13" fill="#969CBB"></path>
    </g>
</svg>