<?xml version="1.0" encoding="UTF-8"?>
<svg width="120px" height="120px" viewBox="0 0 120 120" version="1.1" xmlns="http://www.w3.org/2000/svg" xmlns:xlink="http://www.w3.org/1999/xlink">
    <title>02.Icons/Illustrative/Offres Europe</title>
    <g id="02.Icons/Illustrative/Offres-Europe" stroke="none" stroke-width="1" fill="none" fill-rule="evenodd">
        <path d="M97.7862859,62.3065435 C97.7862859,82.2515435 81.6172859,98.4205435 61.6722859,98.4205435 C41.7272859,98.4205435 25.5582859,82.2515435 25.5582859,62.3065435 C25.5582859,42.3615435 41.7272859,26.1925435 61.6722859,26.1925435 C81.6172859,26.1925435 97.7862859,42.3615435 97.7862859,62.3065435" id="Fill-1" fill="#F2F3F7"></path>
        <path d="M82.6240859,96.2921435 C76.3410859,100.173143 69.0970859,102.225143 61.6720859,102.225143 C44.2830859,102.225143 28.8230859,90.8321435 23.6110859,74.3611435 L28.6030859,77.2231435 C29.0600859,77.4831435 29.6390859,77.3271435 29.9000859,76.8721435 C30.1610859,76.4161435 30.0040859,75.8351435 29.5490859,75.5751435 L22.5070859,71.5381435 C22.2880859,71.4101435 22.0310859,71.3761435 21.7840859,71.4391435 C21.5400859,71.5031435 21.3310859,71.6621435 21.2040859,71.8811435 L17.1280859,78.9111435 C16.8650859,79.3651435 17.0200859,79.9461435 17.4740859,80.2091435 C17.6240859,80.2961435 17.7870859,80.3381435 17.9490859,80.3381435 C18.2770859,80.3381435 18.5960859,80.1681435 18.7720859,79.8641435 L21.7420859,74.7431435 C27.1430859,92.1001435 43.3890859,104.125143 61.6720859,104.125143 C69.4490859,104.125143 77.0400859,101.976143 83.6220859,97.9081435 C84.0680859,97.6321435 84.2070859,97.0471435 83.9320859,96.6011435 C83.6560859,96.1551435 83.0690859,96.0161435 82.6240859,96.2921435 M20.8020859,61.3921435 C20.8160859,61.3921435 20.8310859,61.3931435 20.8460859,61.3931435 C21.3510859,61.3931435 21.7700859,60.9951435 21.7940859,60.4851435 C22.7530859,39.1221435 40.2700859,22.3881435 61.6720859,22.3881435 C64.4040859,22.3881435 67.1250859,22.6781435 69.7790859,23.2261435 L64.7920859,26.3781435 C64.3490859,26.6591435 64.2170859,27.2451435 64.4970859,27.6891435 C64.6780859,27.9751435 64.9850859,28.1311435 65.3010859,28.1311435 C65.4750859,28.1311435 65.6490859,28.0841435 65.8080859,27.9841435 L72.6760859,23.6421435 C73.1170859,23.3631435 73.2510859,22.7791435 72.9740859,22.3351435 L68.6650859,15.4451435 C68.3860859,15.0011435 67.8030859,14.8671435 67.3550859,15.1441435 C66.9110859,15.4221435 66.7750859,16.0081435 67.0540859,16.4531435 L70.1210859,21.3581435 C67.3540859,20.7901435 64.5190859,20.4871435 61.6720859,20.4871435 C39.2510859,20.4871435 20.9000859,38.0191435 19.8950859,60.4001435 C19.8720859,60.9241435 20.2780859,61.3681435 20.8020859,61.3921435 M98.9370859,91.0571435 C98.9360859,91.5811435 98.5110859,92.0041435 97.9870859,92.0041435 L97.9850859,92.0041435 L89.8590859,91.9841435 C89.3350859,91.9831435 88.9110859,91.5581435 88.9110859,91.0341435 L88.8920859,82.9111435 C88.8910859,82.3861435 89.3140859,81.9591435 89.8400859,81.9581435 L89.8420859,81.9581435 C90.3650859,81.9581435 90.7900859,82.3821435 90.7920859,82.9061435 L90.8090859,89.5841435 C97.7600859,82.1621435 101.591086,72.4921435 101.591086,62.3061435 C101.591086,48.2341435 94.3990859,35.4671435 82.3540859,28.1561435 C81.9060859,27.8841435 81.7640859,27.2991435 82.0350859,26.8511435 C82.3060859,26.4021435 82.8900859,26.2591435 83.3410859,26.5321435 C95.9580859,34.1901435 103.491086,47.5641435 103.491086,62.3061435 C103.491086,72.6191435 99.7400859,82.4261435 92.9130859,90.0921435 L97.9890859,90.1041435 C98.5150859,90.1051435 98.9380859,90.5321435 98.9370859,91.0571435" id="Fill-3" fill="#343852"></path>
        <path d="M89.1333859,62.3065435 C89.1333859,77.4725435 76.8383859,89.7675435 61.6723859,89.7675435 C46.5053859,89.7675435 34.2113859,77.4725435 34.2113859,62.3065435 C34.2113859,47.1405435 46.5053859,34.8455435 61.6723859,34.8455435 C76.8383859,34.8455435 89.1333859,47.1405435 89.1333859,62.3065435" id="Fill-6" fill="#1D71B8"></path>
        <path d="M75.6883859,39.1266435 L75.9403859,42.6946435 L76.9883859,44.1636435 L78.0383859,44.9606435 L76.4433859,47.1016435 L76.4853859,49.0016435 L78.7943859,50.6916435 L77.7343859,52.9236435 L75.3523859,51.9646435 L71.0713859,54.6146435 L68.2593859,53.6066435 L66.7903859,53.2206435 L66.7903859,49.7876435 L63.8903859,51.2566435 L63.3903859,54.9496435 L61.2923859,56.0396435 L56.8853859,58.9216435 L54.7863859,58.6856435 L51.7643859,59.4826435 L54.1293859,62.3066435 L52.0393859,66.7856435 L45.0513859,64.6456435 L43.9153859,66.2836435 L44.3353859,69.0106435 L42.0693859,72.9556435 L44.0833859,74.1316435 L44.5453859,75.5166435 L49.3303859,75.8726435 L52.7183859,74.4666435 L52.7183859,72.7036435 L57.0523859,70.6896435 L58.0433859,68.5216435 L63.5583859,68.8426435 L69.4343859,75.8726435 L70.1903859,78.8316435 L72.5453859,75.5586435 L73.2963859,73.3536435 L69.3503859,71.9486435 L66.7063859,68.0456435 L67.8813859,66.0306435 L70.5673859,66.2836435 L73.0863859,70.2696435 L75.8983859,70.9836435 L76.4853859,75.0126435 L77.9133859,76.1456435 L77.3673859,77.4886435 L79.8853859,79.5456435 L81.1863859,78.5386435 L81.3963859,75.1386435 L78.7523859,72.6626435 L84.3343859,71.5286435 L88.0603859,69.9316435 L88.9943859,61.0356435 L87.6083859,51.9646435 L82.4053859,44.2986435 L75.6883859,39.1266435 Z M49.1993859,52.0586435 C49.8083859,51.8836435 50.3633859,51.4696435 50.5943859,51.2536435 C51.0023859,50.8726435 51.1463859,49.7996435 51.1523859,49.4516435 C51.1573859,49.2106435 51.1333859,48.8616435 50.8823859,48.6116435 C50.2803859,48.0096435 48.0213859,48.6236435 47.8593859,48.7156435 C47.5033859,48.9166435 47.3893859,49.2776435 47.3143859,49.5166435 C47.2933859,49.5796435 47.2753859,49.6466435 47.2623859,49.6786435 C47.2333859,49.7176435 47.1913859,49.7546435 47.1523859,49.7936435 C46.9603859,49.9826435 46.5093859,50.4256435 46.7493859,51.0296435 C46.9803859,51.6196435 48.1003859,52.1016435 48.8563859,52.1016435 C48.9823859,52.1016435 49.0993859,52.0886435 49.1993859,52.0586435 L49.1993859,52.0586435 Z M58.6263859,53.2256435 C58.8793859,52.7746435 59.3503859,51.0486435 58.9503859,50.3936435 L58.1563859,49.1006435 L57.9403859,47.3026435 L58.3473859,45.4116435 C58.3733859,45.2926435 58.3693859,45.1696435 58.3373859,45.0536435 C58.2763859,44.8376435 57.9373859,43.7416435 57.1953859,43.3046435 C56.1303859,42.6796435 55.2133859,44.1036435 54.6623859,44.9526435 C54.6003859,45.0466435 54.5483859,45.1276435 54.5073859,45.1856435 C54.1113859,45.7516435 54.1463859,46.8686435 54.2033859,47.4846435 C54.2153859,47.6126435 54.2603859,47.7366435 54.3343859,47.8426435 C54.6323859,48.2706435 55.5053859,49.5456435 55.5293859,49.6726435 C55.5133859,49.8076435 55.3363859,50.1956435 55.1283859,50.5616435 L54.3343859,50.8516435 C54.1263859,50.9276435 53.9633859,51.0926435 53.8893859,51.3016435 C53.6933859,51.8516435 52.8503859,52.1336435 53.2803859,52.7316435 L53.2803859,52.7316435 C53.4183859,52.9236435 53.7793859,53.4286435 55.8153859,53.2536435 C56.5513859,53.5036435 57.4383859,53.7766435 57.7933859,53.7766435 C57.9893859,53.7766435 58.3573859,53.7056435 58.6263859,53.2256435 L58.6263859,53.2256435 Z M74.2703859,37.9006435 L72.8113859,41.6946435 L74.2703859,44.7446435 L73.1903859,48.3506435 L72.1683859,48.3506435 L71.0293859,49.5166435 L69.5433859,49.0016435 L69.5433859,47.9846435 L68.7343859,44.8116435 L65.2993859,45.8246435 L65.2993859,44.3396435 L64.8303859,40.9396435 L68.7343859,39.2766435 L70.5313859,36.3056435 L74.2703859,37.9006435 Z" id="Fill-8" fill="#EDEEF3"></path>
        <path d="M61.6719859,88.8175435 C47.0539859,88.8175435 35.1609859,76.9245435 35.1609859,62.3065435 C35.1609859,47.6885435 47.0539859,35.7955435 61.6719859,35.7955435 C64.2709859,35.7955435 66.7799859,36.1775435 69.1549859,36.8775435 C69.0479859,37.2085435 68.9229859,37.4825435 68.7669859,37.7095435 C68.4379859,38.1875435 67.0879859,38.8215435 66.1949859,39.2405435 C65.1679859,39.7245435 64.6159859,39.9935435 64.2919859,40.3585435 C63.5829859,41.1555435 63.9719859,42.3335435 64.2559859,43.1925435 C64.3109859,43.3585435 64.3639859,43.5055435 64.3909859,43.6185435 L64.0639859,45.6575435 C64.0169859,45.9535435 64.1119859,46.2555435 64.3209859,46.4705435 C64.7569859,46.9185435 65.6109859,47.2015435 66.4599859,46.7625435 C66.6499859,46.6635435 66.9429859,46.4865435 67.2739859,46.2875435 C67.5099859,46.1445435 67.8959859,45.9105435 68.2249859,45.7265435 C68.2929859,46.2225435 68.3149859,46.9425435 68.3269859,47.3915435 C68.3629859,48.6235435 68.3969859,49.2345435 68.7499859,49.6535435 C69.2159859,50.2085435 70.3009859,50.6915435 71.1329859,50.6915435 C71.3529859,50.6915435 71.5549859,50.6575435 71.7239859,50.5835435 C72.2809859,50.3335435 72.4319859,49.7705435 72.5099859,49.3315435 C72.8909859,49.3455435 73.3599859,49.3265435 73.7539859,49.0605435 C74.6539859,48.4515435 75.0669859,45.0355435 74.9349859,44.2525435 C74.8299859,43.6355435 74.4779859,43.0675435 74.1659859,42.5655435 C74.0239859,42.3365435 73.8079859,41.9895435 73.7839859,41.9145435 C73.7849859,41.5845435 74.1669859,40.2915435 74.5619859,39.1515435 C74.6619859,39.2075435 74.7599859,39.2655435 74.8599859,39.3235435 C74.7929859,40.1355435 74.7169859,41.2815435 74.7719859,41.6795435 L74.7859859,41.7955435 C74.9779859,43.3035435 75.2289859,44.2455435 75.9449859,44.5945435 L76.0969859,44.6675435 C76.4249859,44.8235435 76.6939859,44.9595435 76.9039859,45.0725435 C76.7569859,45.2105435 76.5579859,45.3865435 76.2889859,45.6105435 L76.1869859,45.6975435 C75.5809859,46.2195435 75.2549859,48.5375435 75.8099859,49.4285435 C76.1079859,49.9065435 76.6419859,50.2275435 77.1579859,50.5375435 C77.2979859,50.6215435 77.4869859,50.7345435 77.6139859,50.8235435 C77.5829859,51.0675435 77.4719859,51.4425435 77.3519859,51.7315435 C77.1599859,51.6055435 76.9459859,51.4515435 76.8019859,51.3475435 C76.2079859,50.9195435 75.8169859,50.6365435 75.3599859,50.6295435 C75.0269859,50.6225435 74.6689859,50.6255435 70.6669859,53.5885435 L69.6249859,53.3145435 L68.9159859,52.5405435 C68.7299859,52.3355435 68.4659859,52.2365435 68.1849859,52.2325435 C68.0899859,52.2355435 67.9979859,52.2525435 67.9099859,52.2825435 L68.0049859,51.8845435 C68.0269859,51.7915435 68.0349859,51.6945435 68.0289859,51.5995435 C67.9129859,49.9025435 67.4539859,48.9305435 66.6659859,48.7115435 C65.4849859,48.3805435 63.2989859,50.1755435 63.0279859,50.8755435 C62.8289859,51.3945435 62.9709859,52.0105435 63.1079859,52.6065435 C63.1159859,52.6455435 63.1249859,52.6845435 63.1339859,52.7215435 C63.1159859,52.7335435 63.0999859,52.7445435 63.0829859,52.7545435 C62.8989859,52.8805435 62.7239859,52.9985435 62.5919859,53.2015435 C62.3979859,53.5035435 62.4079859,53.8095435 62.4689859,54.1105435 C61.9799859,54.1395435 61.6119859,54.1785435 61.3099859,54.4095435 C61.1139859,54.5585435 60.8379859,54.8715435 59.7139859,56.3315435 L59.5969859,56.4835435 C59.3329859,56.6755435 58.3369859,57.1745435 57.5139859,57.5485435 L56.5289859,58.0145435 L56.0169859,57.3855435 C55.8129859,57.1355435 55.5019859,57.0015435 55.1739859,57.0425435 C54.8539859,57.0775435 54.5719859,57.2745435 54.4289859,57.5645435 L54.0949859,58.2395435 C53.4679859,58.1175435 52.6139859,57.9545435 52.3359859,57.9125435 C51.4839859,57.7835435 50.8679859,58.5305435 50.6009859,59.2095435 C50.1839859,60.2625435 50.7469859,60.7545435 50.9289859,60.8805435 C50.9889859,60.9215435 51.1509859,61.0225435 51.3679859,61.1575435 C52.2539859,61.7095435 52.8609859,62.1065435 53.1839859,62.3435435 C52.9719859,63.1745435 52.1989859,65.1415435 51.9919859,65.5375435 C51.9549859,65.6095435 51.7969859,65.7105435 51.6469859,65.7545435 C51.1689859,65.6275435 49.6269859,65.0485435 48.5829859,64.6555435 C46.7689859,63.9745435 45.9359859,63.6685435 45.5739859,63.6065435 C44.2309859,63.3695435 43.5739859,64.8795435 43.3219859,65.4525435 C43.1489859,65.8085435 43.1779859,66.1935435 43.2869859,67.2555435 C43.3179859,67.5555435 43.3679859,68.0335435 43.3709859,68.2435435 C43.2189859,68.5195435 42.7339859,69.1975435 42.3699859,69.7045435 C41.0619859,71.5335435 40.7319859,72.0645435 40.7319859,72.5945435 C40.7319859,72.9715435 40.7319859,73.7305435 43.2049859,74.5845435 L43.4009859,75.7745435 C43.4719859,76.1985435 43.8189859,76.5235435 44.2479859,76.5645435 L49.0199859,77.0205435 C49.2239859,77.0395435 49.4279859,76.9935435 49.6039859,76.8865435 L51.4199859,75.7855435 L53.2439859,75.4265435 C53.5199859,75.3735435 53.7559859,75.2005435 53.8929859,74.9555435 C54.0279859,74.7105435 54.0489859,74.4185435 53.9489859,74.1565435 L53.6069859,73.2555435 L54.9739859,72.2125435 L57.5419859,71.4055435 C57.8659859,71.3035435 58.1109859,71.0355435 58.1849859,70.7035435 C58.2989859,70.1865435 58.4579859,69.6335435 58.5899859,69.2775435 C58.7729859,69.3495435 58.9789859,69.4415435 59.1179859,69.5035435 C59.5799859,69.7095435 59.8779859,69.8375435 60.1699859,69.8725435 L60.3289859,69.8935435 C61.0949859,69.9905435 61.8249859,70.0665435 62.3559859,69.9185435 C62.6349859,69.8395435 62.8669859,69.6925435 63.0669859,69.5385435 C63.3019859,69.8725435 63.5889859,70.3035435 63.8109859,70.6355435 C64.4409859,71.5775435 64.8429859,72.1715435 65.1249859,72.4665435 L65.2729859,72.6205435 C67.8649859,75.3205435 68.3469859,75.9635435 68.4289859,76.1055435 C68.5029859,76.2605435 68.5929859,76.8235435 68.6519859,77.1965435 C68.8509859,78.4325435 69.0559859,79.7105435 70.1769859,79.7545435 C70.5169859,79.7715435 71.3079859,79.8005435 72.8739859,77.2205435 C72.9489859,77.0985435 72.9939859,76.9605435 73.0079859,76.8175435 L73.0679859,76.1875435 L73.6939859,75.9695435 C74.1199859,75.8215435 74.3829859,75.3935435 74.3229859,74.9465435 L74.1239859,73.4545435 C74.0779859,73.1115435 73.8499859,72.8205435 73.5279859,72.6945435 C72.0149859,72.1045435 70.2359859,71.3505435 69.8949859,71.1195435 C69.7399859,70.9795435 69.5299859,70.3505435 69.4289859,70.0475435 C69.2389859,69.4785435 69.1019859,69.0675435 68.7539859,68.7955435 L68.6429859,68.7095435 C68.0719859,68.2695435 67.8109859,68.0205435 67.6969859,67.8825435 C67.7849859,67.6015435 68.1079859,67.1095435 68.2439859,67.0195435 C68.5429859,66.9425435 69.5919859,67.1435435 69.9289859,67.2875435 C70.0559859,67.5075435 70.2869859,68.0455435 70.4309859,68.3805435 C70.8179859,69.2825435 71.0009859,69.6915435 71.2809859,69.9405435 C71.3269859,69.9815435 71.3899859,70.0435435 71.4639859,70.1155435 C72.1259859,70.7655435 72.7779859,71.3525435 73.4879859,71.3955435 L73.6439859,71.4035435 C74.4669859,71.4515435 74.9659859,71.4935435 75.2519859,71.5245435 C75.3269859,72.1985435 75.3719859,73.5425435 75.3689859,74.6705435 C75.3679859,74.9335435 75.4779859,75.1855435 75.6699859,75.3655435 L76.6369859,76.2715435 L76.3469859,76.6655435 C76.0389859,77.0835435 76.1229859,77.6705435 76.5349859,77.9845435 L77.7899859,78.9425435 L78.6499859,79.9335435 C78.7319859,80.0285435 78.8319859,80.1065435 78.9439859,80.1625435 C79.0759859,80.2275435 79.5839859,80.4595435 80.1689859,80.4595435 C80.4479859,80.4595435 80.7459859,80.4055435 81.0279859,80.2555435 C82.0899859,79.6905435 82.5949859,77.0625435 82.5989859,77.0345435 C82.6589859,76.5905435 82.3799859,74.4925435 81.5509859,73.9785435 L80.3409859,73.2305435 C80.3349859,73.2265435 80.3299859,73.2235435 80.3239859,73.2195435 C80.3639859,73.2155435 80.4029859,73.2115435 80.4419859,73.2075435 C81.3989859,73.1095435 82.7089859,72.9775435 83.8929859,72.6445435 C84.7829859,72.3935435 85.6749859,72.0615435 86.4389859,71.7495435 C82.6249859,81.7175435 72.9639859,88.8175435 61.6719859,88.8175435 L61.6719859,88.8175435 Z M71.8999859,42.1335435 C71.9689859,42.6295435 72.2519859,43.0855435 72.5519859,43.5675435 C72.7599859,43.9035435 73.0199859,44.3205435 73.0619859,44.5685435 C73.1409859,45.0415435 72.8339859,46.7275435 72.5969859,47.4335435 C72.5329859,47.4315435 72.4679859,47.4285435 72.4169859,47.4255435 C72.0789859,47.4085435 71.7349859,47.3895435 71.4029859,47.5495435 C70.9049859,47.7895435 70.7669859,48.2755435 70.6919859,48.6885435 C70.5399859,48.6335435 70.3899859,48.5645435 70.2889859,48.4995435 C70.2529859,48.2435435 70.2379859,47.7285435 70.2269859,47.3365435 C70.1789859,45.6885435 70.1329859,44.1315435 69.0069859,43.6395435 C68.4159859,43.4285435 67.8569859,43.7125435 66.2889859,44.6625435 C66.2349859,44.6945435 66.1839859,44.7265435 66.1319859,44.7565435 L66.2819859,43.8165435 C66.3419859,43.4495435 66.2239859,43.0925435 66.0599859,42.5975435 C65.9739859,42.3375435 65.8069859,41.8305435 65.7899859,41.5705435 C66.0369859,41.4145435 66.5869859,41.1565435 67.0039859,40.9605435 C68.2729859,40.3635435 69.7109859,39.6875435 70.3309859,38.7865435 C70.6249859,38.3605435 70.8179859,37.9105435 70.9599859,37.4785435 C71.6039859,37.7205435 72.2349859,37.9875435 72.8539859,38.2775435 C72.3549859,39.6805435 71.8019859,41.4425435 71.8999859,42.1335435 L71.8999859,42.1335435 Z M88.1829859,62.3065435 C88.1829859,64.7365435 87.8469859,67.0885435 87.2329859,69.3255435 C86.5149859,69.6645435 84.9069859,70.3855435 83.3789859,70.8155435 C82.3539859,71.1035435 81.1869859,71.2215435 80.2489859,71.3175435 C78.8089859,71.4635435 78.0849859,71.5375435 77.8319859,72.2925435 C77.4049859,73.5655435 79.3289859,74.8385435 79.3479859,74.8495435 L80.4039859,75.5035435 C80.5389859,75.8105435 80.7149859,76.5745435 80.7169859,76.7725435 C80.6649859,77.1085435 80.3249859,78.1545435 80.0939859,78.5535435 C80.0459859,78.5455435 79.9889859,78.5315435 79.9349859,78.5155435 L79.1619859,77.6245435 C79.1199859,77.5745435 79.0719859,77.5305435 79.0209859,77.4905435 L78.4309859,77.0405435 L78.6669859,76.7185435 C78.9529859,76.3315435 78.9029859,75.7915435 78.5519859,75.4625435 L77.2699859,74.2605435 C77.2589859,70.2835435 76.9099859,70.1095435 76.4329859,69.8685435 C76.0759859,69.6905435 75.4249859,69.6025435 73.7509859,69.5075435 L73.6929859,69.5145435 C73.4819859,69.4345435 72.9649859,68.9265435 72.7949859,68.7595435 C72.7259859,68.6925435 72.6639859,68.6315435 72.6109859,68.5825435 C72.5139859,68.4165435 72.3129859,67.9475435 72.1769859,67.6305435 C71.7139859,66.5525435 71.4919859,66.0875435 71.1599859,65.8245435 C70.5799859,65.3615435 68.3949859,64.8095435 67.4269859,65.3085435 C66.5179859,65.7775435 65.4249859,67.4885435 65.8929859,68.5545435 C66.1569859,69.1555435 66.8459859,69.7225435 67.4729859,70.2065435 C67.5239859,70.3205435 67.5689859,70.4785435 67.6269859,70.6505435 C67.8629859,71.3565435 68.1559859,72.2345435 68.8169859,72.6825435 C69.3899859,73.0715435 71.3139859,73.8595435 72.3149859,74.2585435 L72.3379859,74.4295435 L71.8679859,74.5925435 C71.5179859,74.7145435 71.2709859,75.0305435 71.2349859,75.4005435 L71.1379859,76.4155435 C70.9599859,76.6955435 70.7649859,76.9765435 70.5809859,77.2195435 C70.5619859,77.1035435 70.5439859,76.9915435 70.5289859,76.8965435 C70.4159859,76.1925435 70.3179859,75.5845435 70.0859859,75.1745435 C69.8069859,74.6855435 68.7769859,73.5275435 66.6439859,71.3045435 L66.4979859,71.1525435 C66.3099859,70.9565435 65.7779859,70.1615435 65.3909859,69.5805435 C64.1889859,67.7795435 63.9439859,67.4375435 63.3929859,67.3515435 C62.8139859,67.2655435 62.3969859,67.6205435 62.0909859,67.8805435 C62.0069859,67.9525435 61.8649859,68.0725435 61.8459859,68.0885435 C61.6099859,68.1435435 60.8269859,68.0405435 60.5699859,68.0085435 L60.4369859,67.9925435 C60.3039859,67.9605435 60.1079859,67.8635435 59.8909859,67.7675435 C59.0919859,67.4115435 58.3389859,67.0755435 57.6809859,67.4025435 C57.4409859,67.5245435 56.9589859,67.7665435 56.4559859,69.7555435 L54.2449859,70.4495435 C54.1409859,70.4825435 54.0419859,70.5335435 53.9539859,70.6005435 L51.8899859,72.1745435 C51.5549859,72.4305435 51.4289859,72.8755435 51.5779859,73.2685435 L51.7729859,73.7795435 L50.8889859,73.9535435 C50.7789859,73.9745435 50.6739859,74.0155435 50.5779859,74.0735435 L48.8869859,75.0995435 L45.1569859,74.7425435 L44.9849859,73.7045435 C44.9259859,73.3485435 44.6709859,73.0565435 44.3249859,72.9505435 C43.7879859,72.7865435 43.2049859,72.5575435 42.8339859,72.3735435 C43.1179859,71.9235435 43.5939859,71.2595435 43.9149859,70.8105435 C44.9269859,69.3985435 45.1899859,68.9955435 45.2489859,68.5955435 C45.2979859,68.2655435 45.2539859,67.7965435 45.1779859,67.0585435 C45.1469859,66.7625435 45.1029859,66.3355435 45.0989859,66.1335435 C45.2429859,65.8035435 45.3469859,65.6235435 45.4189859,65.5255435 C45.8969859,65.6765435 47.0439859,66.1075435 47.9139859,66.4345435 C51.0359859,67.6075435 51.3809859,67.7025435 51.7619859,67.6615435 C52.4289859,67.5885435 53.2789859,67.1755435 53.6759859,66.4185435 C53.6959859,66.3805435 55.5909859,62.4925435 54.9809859,61.4675435 C54.8059859,61.1745435 54.4739859,60.8775435 53.0539859,59.9735435 C53.7179859,60.0995435 54.4399859,60.2425435 54.4409859,60.2425435 C54.8629859,60.3255435 55.2849859,60.1155435 55.4759859,59.7325435 L55.4769859,59.7305435 L55.5259859,59.7915435 C55.8019859,60.1315435 56.2759859,60.2365435 56.6689859,60.0495435 L58.3119859,59.2725435 C60.6639859,58.2075435 60.9379859,57.8545435 61.0539859,57.7055435 L61.2189859,57.4905435 C61.8069859,56.7285435 62.2019859,56.2285435 62.3759859,56.0195435 C62.4799859,56.0105435 62.6039859,56.0065435 62.7269859,56.0005435 C63.4079859,55.9635435 63.9449859,55.9355435 64.2889859,55.4825435 C64.6049859,55.0665435 64.5349859,54.5805435 64.4279859,54.1295435 C64.7079859,53.9145435 64.9999859,53.6175435 65.0709859,53.1865435 C65.1219859,52.8895435 65.0539859,52.5925435 64.9589859,52.1815435 C64.9209859,52.0165435 64.8579859,51.7385435 64.8359859,51.5645435 C65.0729859,51.3245435 65.5909859,50.9455435 65.9829859,50.7275435 C66.0409859,50.9715435 66.0939859,51.2885435 66.1219859,51.5905435 L65.7519859,53.1435435 C65.6899859,53.4035435 65.7399859,53.6775435 65.8899859,53.8985435 L66.5289859,54.8385435 C66.6989859,55.0885435 66.9769859,55.2425435 67.2779859,55.2545435 C67.5799859,55.2645435 67.8679859,55.1345435 68.0569859,54.8995435 L68.2639859,54.6405435 L68.4129859,54.8035435 C68.5359859,54.9385435 68.6949859,55.0345435 68.8719859,55.0805435 L70.6259859,55.5415435 C70.9029859,55.6165435 71.2019859,55.5575435 71.4349859,55.3845435 C72.8839859,54.3065435 74.6139859,53.0765435 75.3359859,52.6365435 C75.4529859,52.7165435 75.5859859,52.8135435 75.6919859,52.8885435 C76.5359859,53.4975435 77.3359859,54.0715435 78.1089859,53.7125435 C78.2759859,53.6345435 78.7779859,53.3995435 79.2239859,52.1505435 C79.4559859,51.4995435 79.6719859,50.5955435 79.3819859,49.9925435 C79.1529859,49.5185435 78.6589859,49.2225435 78.1369859,48.9085435 C77.9009859,48.7675435 77.5069859,48.5305435 77.4469859,48.4725435 C77.3599859,48.2185435 77.4589859,47.3795435 77.5659859,47.0205435 C78.7719859,46.0075435 79.3099859,45.3875435 79.1139859,44.6445435 C78.9509859,44.0235435 78.3129859,43.6225435 76.9459859,42.9665435 C76.8799859,42.8005435 76.7799859,42.4205435 76.6709859,41.5565435 L76.6549859,41.4325435 C76.6439859,41.3095435 76.6569859,40.9315435 76.6839859,40.4715435 C83.6229859,45.2575435 88.1829859,53.2575435 88.1829859,62.3065435 L88.1829859,62.3065435 Z M88.9549859,70.2125435 C89.6849859,67.7005435 90.0829859,65.0505435 90.0829859,62.3065435 C90.0829859,46.6405435 77.3379859,33.8955435 61.6719859,33.8955435 C46.0059859,33.8955435 33.2609859,46.6405435 33.2609859,62.3065435 C33.2609859,77.9725435 46.0059859,90.7175435 61.6719859,90.7175435 C74.5519859,90.7175435 85.4499859,82.0995435 88.9219859,70.3295435 C88.9369859,70.2905435 88.9449859,70.2525435 88.9549859,70.2125435 L88.9549859,70.2125435 Z M48.2949859,50.3265435 C48.3749859,50.1615435 48.4359859,49.9825435 48.4899859,49.8075435 C48.4959859,49.7895435 48.5009859,49.7715435 48.5069859,49.7545435 C48.8959859,49.6655435 49.5909859,49.5585435 50.0999859,49.5165435 C50.0519859,49.8185435 49.9689859,50.1605435 49.8919859,50.3355435 C49.6429859,50.5465435 49.1879859,50.8445435 48.8129859,50.9535435 C48.6459859,50.9705435 48.3019859,50.8705435 48.0089859,50.7455435 C48.1139859,50.6265435 48.2169859,50.4895435 48.2949859,50.3265435 L48.2949859,50.3265435 Z M48.8319859,52.8455435 C49.0089859,52.8455435 49.1719859,52.8265435 49.3119859,52.7855435 C50.1619859,52.5405435 50.9369859,51.9635435 51.2599859,51.6605435 C51.8289859,51.1295435 52.0299859,49.6295435 52.0379859,49.1445435 C52.0449859,48.8085435 52.0119859,48.3215435 51.6619859,47.9715435 C50.8209859,47.1305435 47.6669859,47.9885435 47.4409859,48.1165435 C46.9429859,48.3975435 46.7839859,48.9015435 46.6789859,49.2345435 C46.6509859,49.3235435 46.6239859,49.4175435 46.6069859,49.4625435 C46.5669859,49.5165435 46.5079859,49.5675435 46.4529859,49.6215435 C46.1849859,49.8855435 45.5559859,50.5045435 45.8899859,51.3475435 C46.2129859,52.1715435 47.7769859,52.8455435 48.8319859,52.8455435 L48.8319859,52.8455435 Z M54.2209859,52.1975435 L55.1019859,51.8755435 C55.2999859,51.8025435 55.4689859,51.6655435 55.5799859,51.4855435 C55.8579859,51.0425435 56.5049859,49.9295435 56.5399859,49.1685435 C56.5709859,48.4585435 55.9979859,47.4545435 55.5649859,46.8045435 C55.5289859,46.1955435 55.5649859,45.5345435 55.6339859,45.3785435 C55.6949859,45.2905435 55.7749859,45.1685435 55.8679859,45.0255435 C56.0279859,44.7785435 56.4409859,44.1425435 56.7579859,43.7925435 C56.8639859,43.9645435 56.9759859,44.1955435 57.0589859,44.4245435 L56.5599859,46.7395435 C56.5369859,46.8425435 56.5319859,46.9485435 56.5449859,47.0535435 L56.8639859,49.7085435 C56.8809859,49.8445435 56.9269859,49.9745435 56.9979859,50.0915435 L58.0429859,51.7945435 C58.0549859,52.1025435 57.9389859,52.7725435 57.8109859,53.2205435 C57.3639859,53.0965435 56.7159859,52.8915435 56.1669859,52.7025435 C56.0679859,52.6685435 55.9629859,52.6505435 55.8589859,52.6505435 C55.8269859,52.6505435 55.7969859,52.6525435 55.7669859,52.6555435 C55.1819859,52.7115435 54.5129859,52.7145435 54.1289859,52.6715435 C54.1459859,52.5365435 54.1779859,52.3685435 54.2209859,52.1975435 L54.2209859,52.1975435 Z M52.5139859,53.9015435 C52.6909859,54.1465435 53.1499859,54.7885435 55.7429859,54.5655435 C56.6819859,54.8835435 57.8119859,55.2325435 58.2639859,55.2325435 C58.5129859,55.2325435 58.9819859,55.1415435 59.3239859,54.5295435 C59.6469859,53.9555435 60.2469859,51.7565435 59.7369859,50.9225435 L58.7259859,49.2755435 L58.4499859,46.9845435 L58.9699859,44.5755435 C59.0019859,44.4235435 58.9969859,44.2675435 58.9559859,44.1185435 C58.8789859,43.8445435 58.4469859,42.4485435 57.5019859,41.8905435 C56.1449859,41.0945435 54.9769859,42.9085435 54.2749859,43.9905435 C54.1959859,44.1105435 54.1289859,44.2135435 54.0769859,44.2875435 C53.5719859,45.0085435 53.6169859,46.4315435 53.6899859,47.2155435 C53.7049859,47.3795435 53.7629859,47.5375435 53.8569859,47.6725435 C54.2359859,48.2175435 54.6109859,48.9135435 54.6429859,49.0745435 C54.6219859,49.2475435 54.3969859,49.7415435 54.1309859,50.2075435 L53.1199859,50.5775435 C52.8559859,50.6745435 52.6479859,50.8845435 52.5529859,51.1505435 C52.3029859,51.8505435 51.9659859,53.1385435 52.5139859,53.9005435 L52.5139859,53.9015435 Z" id="Fill-10" fill="#343852"></path>
        <path d="M84.9872859,64.1050435 C84.9872859,65.9390435 83.5002859,67.4260435 81.6662859,67.4260435 C79.8332859,67.4260435 78.3462859,65.9390435 78.3462859,64.1050435 C78.3462859,62.2710435 79.8332859,60.7840435 81.6662859,60.7840435 C83.5002859,60.7840435 84.9872859,62.2710435 84.9872859,64.1050435 M64.5852859,56.5330435 C64.5852859,58.3660435 63.0982859,59.8530435 61.2642859,59.8530435 C59.4302859,59.8530435 57.9442859,58.3660435 57.9442859,56.5330435 C57.9442859,54.6990435 59.4302859,53.2120435 61.2642859,53.2120435 C63.0982859,53.2120435 64.5852859,54.6990435 64.5852859,56.5330435 M53.4202859,73.9610435 C53.4202859,75.7950435 51.9332859,77.2810435 50.0992859,77.2810435 C48.2662859,77.2810435 46.7792859,75.7950435 46.7792859,73.9610435 C46.7792859,72.1270435 48.2662859,70.6400435 50.0992859,70.6400435 C51.9332859,70.6400435 53.4202859,72.1270435 53.4202859,73.9610435" id="Fill-12" fill="#D20050"></path>
        <path d="M81.6667859,59.5126435 C79.1307859,59.5126435 77.0747859,61.5686435 77.0747859,64.1046435 C77.0747859,66.6416435 79.1307859,68.6976435 81.6667859,68.6976435 C84.2027859,68.6976435 86.2587859,66.6416435 86.2587859,64.1046435 C86.2587859,61.5686435 84.2027859,59.5126435 81.6667859,59.5126435 M81.6667859,61.4126435 C83.1517859,61.4126435 84.3587859,62.6206435 84.3587859,64.1046435 C84.3587859,65.5896435 83.1517859,66.7976435 81.6667859,66.7976435 C80.1817859,66.7976435 78.9747859,65.5896435 78.9747859,64.1046435 C78.9747859,62.6206435 80.1817859,61.4126435 81.6667859,61.4126435 M61.2647859,51.9406435 C58.7287859,51.9406435 56.6717859,53.9966435 56.6717859,56.5326435 C56.6717859,59.0686435 58.7287859,61.1246435 61.2647859,61.1246435 C63.8007859,61.1246435 65.8567859,59.0686435 65.8567859,56.5326435 C65.8567859,53.9966435 63.8007859,51.9406435 61.2647859,51.9406435 M61.2647859,53.8406435 C62.7487859,53.8406435 63.9567859,55.0476435 63.9567859,56.5326435 C63.9567859,58.0176435 62.7487859,59.2246435 61.2647859,59.2246435 C59.7797859,59.2246435 58.5717859,58.0176435 58.5717859,56.5326435 C58.5717859,55.0476435 59.7797859,53.8406435 61.2647859,53.8406435 M50.0997859,69.3686435 C47.5637859,69.3686435 45.5077859,71.4246435 45.5077859,73.9606435 C45.5077859,76.4976435 47.5637859,78.5536435 50.0997859,78.5536435 C52.6357859,78.5536435 54.6917859,76.4976435 54.6917859,73.9606435 C54.6917859,71.4246435 52.6357859,69.3686435 50.0997859,69.3686435 M50.0997859,71.2686435 C51.5847859,71.2686435 52.7917859,72.4766435 52.7917859,73.9606435 C52.7917859,75.4456435 51.5847859,76.6536435 50.0997859,76.6536435 C48.6147859,76.6536435 47.4077859,75.4456435 47.4077859,73.9606435 C47.4077859,72.4766435 48.6147859,71.2686435 50.0997859,71.2686435" id="Fill-14" fill="#343852"></path>
    </g>
</svg>