<?xml version="1.0" encoding="UTF-8"?>
<svg width="120px" height="120px" viewBox="0 0 120 120" version="1.1" xmlns="http://www.w3.org/2000/svg" xmlns:xlink="http://www.w3.org/1999/xlink">
    <title>02.Icons/Illustrative/Offres International</title>
    <g id="02.Icons/Illustrative/Offres-International" stroke="none" stroke-width="1" fill="none" fill-rule="evenodd">
        <path d="M97.7866859,62.3058 C97.7866859,82.2508 81.6176859,98.4198 61.6726859,98.4198 C41.7276859,98.4198 25.5586859,82.2508 25.5586859,62.3058 C25.5586859,42.3608 41.7276859,26.1918 61.6726859,26.1918 C81.6176859,26.1918 97.7866859,42.3608 97.7866859,62.3058" id="Fill-1" fill="#F2F3F7"></path>
        <path d="M82.6240859,96.291 C76.3410859,100.173 69.0970859,102.225 61.6730859,102.225 C44.2830859,102.225 28.8230859,90.831 23.6110859,74.361 L28.6030859,77.223 C29.0600859,77.482 29.6390859,77.325 29.9000859,76.871 C30.1610859,76.416 30.0040859,75.835 29.5490859,75.574 L22.4980859,71.532 C22.0430859,71.273 21.4680859,71.43 21.2040859,71.881 L17.1280859,78.91 C16.8650859,79.364 17.0200859,79.945 17.4740859,80.209 C17.6240859,80.296 17.7870859,80.337 17.9490859,80.337 C18.2770859,80.337 18.5960859,80.167 18.7720859,79.863 L21.7420859,74.742 C27.1430859,92.1 43.3900859,104.125 61.6730859,104.125 C69.4490859,104.125 77.0400859,101.975 83.6220859,97.908 C84.0680859,97.632 84.2070859,97.047 83.9320859,96.601 C83.6560859,96.154 83.0700859,96.017 82.6240859,96.291 M20.8020859,61.392 C20.8160859,61.392 20.8310859,61.393 20.8460859,61.393 C21.3510859,61.393 21.7700859,60.994 21.7940859,60.485 C22.7530859,39.121 40.2700859,22.387 61.6730859,22.387 C64.4050859,22.387 67.1260859,22.677 69.7780859,23.225 L64.7920859,26.378 C64.3490859,26.658 64.2170859,27.245 64.4970859,27.688 C64.6780859,27.975 64.9850859,28.131 65.3010859,28.131 C65.4750859,28.131 65.6500859,28.083 65.8080859,27.983 L72.6580859,23.653 C72.8760859,23.522 73.0330859,23.309 73.0930859,23.061 C73.1520859,22.812 73.1090859,22.552 72.9750859,22.335 L68.6660859,15.445 C68.3880859,15.001 67.8030859,14.867 67.3560859,15.144 C66.9120859,15.422 66.7760859,16.008 67.0550859,16.453 L70.1210859,21.356 C67.3540859,20.789 64.5200859,20.486 61.6730859,20.486 C39.2510859,20.486 20.9000859,38.019 19.8950859,60.399 C19.8720859,60.924 20.2780859,61.368 20.8020859,61.392 M98.9370859,91.056 C98.9360859,91.58 98.5110859,92.004 97.9870859,92.004 L97.9850859,92.004 L89.8590859,91.983 C89.3350859,91.981 88.9110859,91.557 88.9110859,91.033 L88.8920859,82.909 C88.8910859,82.385 89.3140859,81.959 89.8400859,81.957 L89.8420859,81.957 C90.3650859,81.957 90.7910859,82.381 90.7920859,82.905 L90.8080859,89.585 C97.7610859,82.162 101.592086,72.491 101.592086,62.306 C101.592086,48.232 94.4000859,35.466 82.3540859,28.156 C81.9060859,27.884 81.7640859,27.3 82.0350859,26.851 C82.3070859,26.402 82.8910859,26.261 83.3410859,26.531 C95.9590859,34.189 103.492086,47.562 103.492086,62.306 C103.492086,72.618 99.7410859,82.425 92.9140859,90.091 L97.9890859,90.104 C98.5150859,90.105 98.9380859,90.531 98.9370859,91.056" id="Fill-3" fill="#343852"></path>
        <path d="M89.1337859,62.3058 C89.1337859,77.4718 76.8387859,89.7668 61.6727859,89.7668 C46.5057859,89.7668 34.2117859,77.4718 34.2117859,62.3058 C34.2117859,47.1398 46.5057859,34.8448 61.6727859,34.8448 C76.8387859,34.8448 89.1337859,47.1398 89.1337859,62.3058" id="Fill-6" fill="#1D71B8"></path>
        <path d="M72.4387859,37.1772 C72.4387859,37.1772 68.2507859,40.7632 67.6887859,43.7002 C67.1267859,46.6362 68.7017859,47.2452 70.0357859,47.2452 C72.3197859,47.2452 74.1667859,44.3132 75.6387859,44.3382 C77.1107859,44.3632 77.4597859,45.1622 78.6887859,45.4592 C80.1767859,45.8192 83.7597859,45.6442 83.7597859,45.6442 C83.7597859,45.6442 81.5937859,43.0852 78.4367859,40.5552 C75.2797859,38.0262 72.4387859,37.1772 72.4387859,37.1772 M87.5007859,55.5542 C85.0507859,55.7392 81.4727859,55.2022 80.1847859,55.0172 C78.8957859,54.8312 78.4827859,53.9102 76.6467859,54.0822 C74.8107859,54.2542 73.2387859,56.0012 72.5437859,57.3572 C71.8487859,58.7122 71.7237859,61.8442 73.1207859,63.5262 C74.5167859,65.2082 77.0607859,64.2712 79.2017859,65.7652 C81.3417859,67.2602 81.4187859,68.7702 81.1687859,69.8932 C80.9197859,71.0162 79.4457859,73.2802 79.9457859,74.2102 C80.4467859,75.1402 81.4687859,75.7072 81.9427859,77.1552 C82.1327859,77.7362 82.5577859,79.5332 82.4537859,80.2572 C82.4537859,80.2572 87.4077859,73.8402 88.8877859,68.6022 C90.3687859,63.3642 87.5007859,55.5542 87.5007859,55.5542 M62.3897859,68.1772 C61.4637859,69.7112 59.4867859,70.7892 59.0337859,71.9102 C58.5807859,73.0312 59.2617859,74.8942 58.9177859,75.8632 C58.5727859,76.8312 56.5017859,77.9812 56.0857859,79.0992 C55.6697859,80.2172 55.8607859,81.2052 55.0747859,82.5372 C54.2877859,83.8692 52.7297859,84.1282 51.1587859,83.8822 C49.5877859,83.6362 49.2687859,82.1982 49.1267859,81.0232 C48.9847859,79.8482 50.2037859,72.0802 49.0197859,70.5532 C47.8357859,69.0262 46.5767859,67.3682 45.8037859,65.8622 C45.0317859,64.3572 44.4747859,61.7262 44.8417859,60.4422 C45.2097859,59.1572 45.2807859,58.0952 44.7107859,56.9142 C44.1407859,55.7332 39.0127859,49.6992 37.2627859,49.8172 C37.2627859,49.8172 40.3767859,44.3462 44.1037859,41.2002 C47.8297859,38.0532 54.9207859,35.9322 54.9207859,35.9322 C55.9847859,37.1772 57.5667859,40.6262 58.0387859,43.0032 C58.5107859,45.3792 57.3697859,46.6842 56.0187859,47.8872 C54.6677859,49.0902 46.8967859,50.0002 46.1827859,51.2682 C45.4677859,52.5362 48.6317859,53.8532 50.1527859,54.3902 C51.8717859,54.9972 53.9437859,56.2122 54.8727859,57.1882 C55.8007859,58.1642 56.0537859,62.2412 57.9057859,62.3482 C59.7587859,62.4542 61.7147859,59.2782 62.8617859,59.4462 C64.0077859,59.6152 64.5767859,59.8562 65.0007859,61.4722 C65.4237859,63.0872 63.3157859,66.6432 62.3897859,68.1772" id="Fill-8" fill="#EDEEF3"></path>
        <path d="M61.6729859,88.8164 C47.0539859,88.8164 35.1609859,76.9234 35.1609859,62.3054 C35.1609859,58.2334 36.0859859,54.3744 37.7339859,50.9234 C39.3659859,51.7844 43.2949859,56.1664 43.8559859,57.3274 C44.2629859,58.1704 44.2819859,58.9434 43.9289859,60.1814 C43.4779859,61.7594 44.0969859,64.6174 44.9579859,66.2954 C45.7549859,67.8474 46.9789859,69.4704 48.2689859,71.1354 C48.8709859,71.9124 48.4699859,76.6624 48.3189859,78.4504 C48.1939859,79.9204 48.1319859,80.7084 48.1839859,81.1374 C48.2939859,82.0414 48.5849859,84.4394 51.0119859,84.8214 C51.4169859,84.8844 51.8059859,84.9164 52.1749859,84.9164 C53.8609859,84.9164 55.1599859,84.2624 55.8929859,83.0204 C56.4629859,82.0544 56.5999859,81.2454 56.7199859,80.5304 C56.7869859,80.1284 56.8459859,79.7814 56.9769859,79.4304 C57.1089859,79.0744 57.7239859,78.5244 58.2179859,78.0834 C58.9099859,77.4634 59.5639859,76.8794 59.8129859,76.1814 C60.0449859,75.5274 59.9679859,74.7434 59.8929859,73.9854 C59.8309859,73.3564 59.7609859,72.6444 59.9139859,72.2664 C60.0599859,71.9054 60.6289859,71.3914 61.1799859,70.8954 C61.8779859,70.2654 62.6689859,69.5524 63.2029859,68.6694 C65.4829859,64.8904 66.2949859,62.6674 65.9189859,61.2314 C65.3939859,59.2244 64.4879859,58.7254 62.9989859,58.5054 C62.0369859,58.3774 61.2219859,59.0974 60.2679859,59.9434 C59.5179859,60.6084 58.5449859,61.4364 57.9609859,61.3994 C57.4399859,61.3694 56.9189859,59.7504 56.6399859,58.8804 C56.3239859,57.8984 56.0519859,57.0494 55.5609859,56.5344 C54.5469859,55.4674 52.3579859,54.1614 50.4699859,53.4954 C48.3379859,52.7424 47.3439859,52.0304 47.0859859,51.7044 C47.7369859,51.2904 50.0409859,50.7304 51.4569859,50.3864 C54.1819859,49.7244 55.8909859,49.2734 56.6509859,48.5964 C57.6809859,47.6794 59.5969859,45.9714 58.9699859,42.8184 C58.5789859,40.8474 57.4319859,38.0754 56.3539859,36.3314 C58.0729859,35.9804 59.8519859,35.7954 61.6729859,35.7954 C64.8759859,35.7954 67.9489859,36.3664 70.7939859,37.4124 C69.4419859,38.7434 67.1909859,41.2434 66.7559859,43.5214 C66.4609859,45.0634 66.6569859,46.2644 67.3399859,47.0894 C67.9379859,47.8134 68.8699859,48.1954 70.0349859,48.1954 C71.6269859,48.1954 72.9529859,47.1444 74.0189859,46.2994 C74.5589859,45.8724 75.2959859,45.2884 75.6179859,45.2884 L75.6219859,45.2884 C76.2349859,45.2974 76.5339859,45.4744 76.9889859,45.7414 C77.3599859,45.9574 77.8189859,46.2264 78.4659859,46.3834 C79.6449859,46.6674 81.8409859,46.6524 83.0289859,46.6204 C84.7919859,49.0144 86.1619859,51.7124 87.0439859,54.6224 C84.7949859,54.7194 81.6779859,54.2734 80.4589859,54.0974 L80.3199859,54.0774 C79.9659859,54.0264 79.6959859,53.8904 79.3569859,53.7184 C78.7269859,53.4014 77.9439859,53.0144 76.5589859,53.1354 C74.4399859,53.3344 72.5909859,55.1804 71.6979859,56.9224 C70.8549859,58.5694 70.7079859,62.1094 72.3899859,64.1324 C73.3589859,65.3004 74.7229859,65.5044 75.9259859,65.6834 C76.9049859,65.8294 77.8309859,65.9674 78.6569859,66.5454 C80.4089859,67.7674 80.4239859,68.8664 80.2409859,69.6864 C80.1769859,69.9794 79.9549859,70.4794 79.7419859,70.9634 C79.1609859,72.2794 78.5599859,73.6394 79.1099859,74.6604 C79.3579859,75.1194 79.6799859,75.4824 79.9919859,75.8334 C80.4129859,76.3064 80.8119859,76.7534 81.0399859,77.4514 C81.2919859,78.2204 80.9839859,79.7834 80.6939859,80.7454 C75.8719859,85.7174 69.1299859,88.8164 61.6729859,88.8164 M54.3979859,36.8184 C55.3349859,38.0964 56.6859859,41.0704 57.1069859,43.1884 C57.4569859,44.9534 56.8029859,45.9174 55.3869859,47.1784 C54.9269859,47.5884 52.5689859,48.1614 51.0079859,48.5404 C47.7679859,49.3274 45.9079859,49.8214 45.3559859,50.8014 C45.0999859,51.2554 45.0599859,51.7754 45.2439859,52.2674 C45.6459859,53.3374 47.1909859,54.3524 49.8369859,55.2864 C51.4269859,55.8474 53.3759859,56.9944 54.1839859,57.8434 C54.3759859,58.0454 54.6389859,58.8634 54.8309859,59.4624 C55.3639859,61.1234 56.0289859,63.1914 57.8519859,63.2954 C59.2799859,63.3844 60.4659859,62.3064 61.5279859,61.3644 C61.9439859,60.9964 62.5689859,60.4404 62.7229859,60.3854 C63.5719859,60.5114 63.7749859,60.5414 64.0809859,61.7124 C64.2049859,62.1874 64.0449859,63.5954 61.5759859,67.6864 C61.1889859,68.3294 60.5369859,68.9174 59.9069859,69.4844 C59.1639859,70.1544 58.4619859,70.7884 58.1519859,71.5534 C57.8239859,72.3664 57.9189859,73.3254 58.0019859,74.1704 C58.0519859,74.6704 58.1119859,75.2904 58.0229859,75.5454 C57.9369859,75.7864 57.3439859,76.3164 56.9509859,76.6674 C56.2339859,77.3084 55.4909859,77.9714 55.1949859,78.7684 C55.0019859,79.2874 54.9229859,79.7584 54.8459859,80.2134 C54.7389859,80.8454 54.6479859,81.3914 54.2559859,82.0544 C53.6519859,83.0794 52.3189859,83.1044 51.3069859,82.9444 C50.6679859,82.8434 50.2609859,82.4784 50.0699859,80.9094 C50.0389859,80.6534 50.1309859,79.5674 50.2119859,78.6094 C50.5599859,74.4874 50.7479859,71.2324 49.7709859,69.9714 C48.5869859,68.4444 47.3699859,66.8354 46.6489859,65.4284 C45.9349859,64.0374 45.4839859,61.6524 45.7549859,60.7034 C46.0939859,59.5194 46.3359859,58.0934 45.5669859,56.5014 C45.2059859,55.7524 41.3029859,50.7644 38.5909859,49.2884 C41.9849859,43.2944 47.6429859,38.7494 54.3979859,36.8184 M81.4999859,44.7334 C80.5169859,44.7254 79.4939859,44.6774 78.9119859,44.5374 C78.5379859,44.4464 78.2659859,44.2864 77.9499859,44.1014 C77.4219859,43.7924 76.7649859,43.4074 75.6539859,43.3874 C74.6609859,43.3784 73.7729859,44.0704 72.8389859,44.8104 C71.9179859,45.5404 70.9659859,46.2954 70.0349859,46.2954 C69.6309859,46.2954 69.0889859,46.2224 68.8049859,45.8794 C68.5039859,45.5164 68.4409859,44.8244 68.6209859,43.8784 C68.9929859,41.9394 71.4409859,39.3694 72.7079859,38.2104 C76.0769859,39.7594 79.0679859,41.9924 81.4999859,44.7334 M82.8459859,76.8594 C82.4939859,75.7864 81.8939859,75.1114 81.4119859,74.5704 C81.1509859,74.2764 80.9249859,74.0224 80.7979859,73.7944 C80.7179859,73.4574 81.2329859,72.2924 81.4799859,71.7314 C81.7419859,71.1364 81.9909859,70.5744 82.0969859,70.0984 C82.5399859,68.1054 81.7489859,66.3854 79.7449859,64.9864 C78.5529859,64.1544 77.3059859,63.9674 76.2059859,63.8034 C75.0599859,63.6324 74.3319859,63.4994 73.8509859,62.9204 C72.7599859,61.6054 72.8189859,58.9024 73.3899859,57.7904 C74.0439859,56.5114 75.4039859,55.1524 76.7359859,55.0284 C77.5669859,54.9434 77.9629859,55.1444 78.4999859,55.4154 C78.9159859,55.6254 79.3879859,55.8624 80.0489859,55.9584 L80.1879859,55.9774 C81.6519859,56.1894 85.0669859,56.6794 87.5359859,56.5034 C87.9549859,58.3724 88.1839859,60.3124 88.1839859,62.3054 C88.1839859,68.1794 86.2609859,73.6104 83.0159859,78.0094 C83.0029859,77.6044 82.9599859,77.2084 82.8459859,76.8594 M61.6729859,33.8944 C46.0069859,33.8944 33.2609859,46.6394 33.2609859,62.3054 C33.2609859,77.9714 46.0069859,90.7164 61.6729859,90.7164 C77.3389859,90.7164 90.0839859,77.9714 90.0839859,62.3054 C90.0839859,46.6394 77.3389859,33.8944 61.6729859,33.8944" id="Fill-10" fill="#343852"></path>
        <path d="M69.6480859,42.2112 C67.8140859,42.2112 66.3270859,43.6982 66.3270859,45.5322 C66.3270859,47.3652 67.8140859,48.8522 69.6480859,48.8522 C71.4820859,48.8522 72.9690859,47.3652 72.9690859,45.5322 C72.9690859,43.6982 71.4820859,42.2112 69.6480859,42.2112 M77.5610859,62.2242 C75.7270859,62.2242 74.2400859,63.7112 74.2400859,65.5452 C74.2400859,67.3782 75.7270859,68.8652 77.5610859,68.8652 C79.3950859,68.8652 80.8810859,67.3782 80.8810859,65.5452 C80.8810859,63.7112 79.3950859,62.2242 77.5610859,62.2242 M49.3730859,64.0622 C49.3730859,65.8962 47.8860859,67.3822 46.0530859,67.3822 C44.2190859,67.3822 42.7320859,65.8962 42.7320859,64.0622 C42.7320859,62.2282 44.2190859,60.7412 46.0530859,60.7412 C47.8860859,60.7412 49.3730859,62.2282 49.3730859,64.0622" id="Fill-12" fill="#D20050"></path>
        <path d="M69.6481859,40.9393 C67.1121859,40.9393 65.0561859,42.9953 65.0561859,45.5313 C65.0561859,48.0683 67.1121859,50.1243 69.6481859,50.1243 C72.1841859,50.1243 74.2401859,48.0683 74.2401859,45.5313 C74.2401859,42.9953 72.1841859,40.9393 69.6481859,40.9393 M69.6481859,42.8393 C71.1331859,42.8393 72.3401859,44.0473 72.3401859,45.5313 C72.3401859,47.0163 71.1331859,48.2243 69.6481859,48.2243 C68.1631859,48.2243 66.9561859,47.0163 66.9561859,45.5313 C66.9561859,44.0473 68.1631859,42.8393 69.6481859,42.8393 M77.5611859,60.9523 C75.0251859,60.9523 72.9681859,63.0083 72.9681859,65.5443 C72.9681859,68.0813 75.0251859,70.1373 77.5611859,70.1373 C80.0971859,70.1373 82.1531859,68.0813 82.1531859,65.5443 C82.1531859,63.0083 80.0971859,60.9523 77.5611859,60.9523 M77.5611859,62.8523 C79.0451859,62.8523 80.2531859,64.0603 80.2531859,65.5443 C80.2531859,67.0293 79.0451859,68.2373 77.5611859,68.2373 C76.0761859,68.2373 74.8681859,67.0293 74.8681859,65.5443 C74.8681859,64.0603 76.0761859,62.8523 77.5611859,62.8523 M46.0521859,59.4693 C43.5161859,59.4693 41.4601859,61.5263 41.4601859,64.0623 C41.4601859,66.5983 43.5161859,68.6543 46.0521859,68.6543 C48.5891859,68.6543 50.6451859,66.5983 50.6451859,64.0623 C50.6451859,61.5263 48.5891859,59.4693 46.0521859,59.4693 M46.0521859,61.3693 C47.5371859,61.3693 48.7451859,62.5773 48.7451859,64.0623 C48.7451859,65.5463 47.5371859,66.7543 46.0521859,66.7543 C44.5681859,66.7543 43.3601859,65.5463 43.3601859,64.0623 C43.3601859,62.5773 44.5681859,61.3693 46.0521859,61.3693" id="Fill-14" fill="#343852"></path>
    </g>
</svg>