<?xml version="1.0" encoding="UTF-8"?>
<svg width="120px" height="120px" viewBox="0 0 120 120" version="1.1" xmlns="http://www.w3.org/2000/svg" xmlns:xlink="http://www.w3.org/1999/xlink">
    <title>02.Icons/Illustrative/Offres Services nationaux</title>
    <g id="02.Icons/Illustrative/Offres-Services-nationaux" stroke="none" stroke-width="1" fill="none" fill-rule="evenodd">
        <path d="M96.0192,60.2753 C96.0192,39.8193 79.4372,23.2363 58.9802,23.2363 C38.5242,23.2363 21.9422,39.8193 21.9422,60.2753 C21.9422,80.7313 38.5242,97.3143 58.9802,97.3143 C79.4372,97.3143 96.0192,80.7313 96.0192,60.2753" id="Fill-1" fill="#F2F3F7"></path>
        <path d="M102.4841,76.5529 C102.4841,79.7559 101.3341,82.6809 99.4281,84.9629 C97.9351,82.2199 94.9771,81.4809 89.3431,81.4809 C92.0701,81.4809 94.2711,79.2799 94.2711,76.5529 L94.2711,74.9099 C94.2711,72.1829 92.0701,69.9829 89.3431,69.9829 C86.6161,69.9829 84.4161,72.1829 84.4161,74.9099 L84.4161,76.5529 C84.4161,79.2799 86.6161,81.4809 89.3431,81.4809 C83.7101,81.4809 80.7521,82.2199 79.2581,84.9629 C77.3531,82.6809 76.2031,79.7559 76.2031,76.5529 C76.2031,69.2929 82.0831,63.4119 89.3431,63.4119 C96.6031,63.4119 102.4841,69.2929 102.4841,76.5529" id="Fill-3" fill="#FFFFFF"></path>
        <path d="M99.4284,84.9631 C97.0304,87.8541 93.4004,89.6931 89.3434,89.6931 C85.2864,89.6931 81.6564,87.8541 79.2584,84.9631 C80.7524,82.2201 83.7104,81.4811 89.3434,81.4811 C94.9774,81.4811 97.9354,82.2201 99.4284,84.9631" id="Fill-5" fill="#1D71B8"></path>
        <path d="M94.2712,74.9103 L94.2712,76.5533 C94.2712,79.2803 92.0702,81.4803 89.3432,81.4803 C86.6162,81.4803 84.4152,79.2803 84.4152,76.5533 L84.4152,74.9103 C84.4152,72.1833 86.6162,69.9823 89.3432,69.9823 C92.0702,69.9823 94.2712,72.1833 94.2712,74.9103" id="Fill-7" fill="#FFFFFF"></path>
        <path d="M89.3434,88.7433 C85.9434,88.7433 82.7484,87.3273 80.4534,84.8573 C81.7614,83.0813 84.2234,82.4313 89.3434,82.4313 C94.4634,82.4313 96.9254,83.0813 98.2334,84.8573 C95.9394,87.3263 92.7444,88.7433 89.3434,88.7433 L89.3434,88.7433 Z M85.3654,76.5533 L85.3654,74.9103 C85.3654,72.7173 87.1504,70.9323 89.3434,70.9323 C91.5364,70.9323 93.3214,72.7173 93.3214,74.9103 L93.3214,76.5533 C93.3214,78.7463 91.5364,80.5303 89.3434,80.5303 C87.1504,80.5303 85.3654,78.7463 85.3654,76.5533 L85.3654,76.5533 Z M76.7664,75.7883 L73.3254,73.2533 L77.4784,72.2943 C77.7734,72.2253 78.0184,72.0213 78.1374,71.7433 C80.0634,67.2603 84.4614,64.3623 89.3434,64.3623 C96.0654,64.3623 101.5334,69.8313 101.5334,76.5533 C101.5334,78.9703 100.7984,81.3323 99.4554,83.3343 C98.1064,81.7573 96.1274,81.0293 93.4784,80.7253 C94.5534,79.6593 95.2214,78.1833 95.2214,76.5533 L95.2214,74.9103 C95.2214,71.6693 92.5844,69.0323 89.3434,69.0323 C86.1024,69.0323 83.4654,71.6693 83.4654,74.9103 L83.4654,76.5533 C83.4654,78.1833 84.1334,79.6593 85.2084,80.7253 C82.5594,81.0293 80.5804,81.7573 79.2314,83.3343 C77.8884,81.3323 77.1534,78.9703 77.1534,76.5533 C77.1534,76.2513 77.0094,75.9673 76.7664,75.7883 L76.7664,75.7883 Z M100.1724,85.5543 C102.2754,83.0253 103.4344,79.8303 103.4344,76.5533 C103.4344,68.7833 97.1134,62.4623 89.3434,62.4623 C83.8644,62.4623 78.9114,65.6203 76.5914,70.5493 L70.8854,71.8663 C70.5244,71.9503 70.2434,72.2363 70.1684,72.5993 C70.0934,72.9633 70.2374,73.3373 70.5354,73.5563 L75.2614,77.0393 C75.3694,80.1453 76.5164,83.1513 78.5134,85.5523 C78.5154,85.5533 78.5164,85.5553 78.5174,85.5563 C78.5204,85.5613 78.5234,85.5653 78.5274,85.5693 C81.2024,88.7943 85.1454,90.6433 89.3434,90.6433 C93.5414,90.6433 97.4834,88.7953 100.1584,85.5713 C100.1634,85.5663 100.1664,85.5613 100.1704,85.5553 L100.1724,85.5543 Z" id="Fill-9" fill="#343852"></path>
        <path d="M53.615,74.5095 C53.615,80.8105 48.507,85.9175 42.207,85.9175 C35.906,85.9175 30.799,80.8105 30.799,74.5095 C30.799,68.2085 35.906,63.1015 42.207,63.1015 C48.507,63.1015 53.615,68.2085 53.615,74.5095" id="Fill-12" fill="#FFFFFF"></path>
        <path d="M52.9644,78.2996 C55.0554,72.3636 51.9314,65.8416 45.9974,63.7516 C40.0634,61.6606 33.5404,64.7826 31.4484,70.7186 C29.3574,76.6546 32.4814,83.1766 38.4164,85.2666 C44.3504,87.3576 50.8734,84.2356 52.9644,78.2996 M56.6364,62.1576 C56.6844,62.1946 56.7124,62.2256 56.7544,62.2816 L63.2584,61.2666 L65.7204,66.4076 L60.8544,70.8406 C61.1974,72.5536 61.3114,74.3476 61.1414,76.1416 L66.4634,80.0326 L64.5674,85.4116 L57.9824,85.1066 C56.9904,86.6116 55.7764,87.9376 54.4354,89.0576 L55.4484,95.5616 L50.3074,98.0236 L45.8764,93.1546 C44.1624,93.4996 42.3684,93.6136 40.5734,93.4436 L36.6834,98.7656 L31.3044,96.8706 L31.6084,90.2856 C30.1044,89.2926 28.7784,88.0796 27.6594,86.7366 L21.1544,87.7516 L18.6924,82.6106 L23.5584,78.1776 C23.2154,76.4646 23.1014,74.6706 23.2714,72.8766 L17.9504,68.9856 L19.8454,63.6066 L26.4304,63.9116 C26.6094,63.6316 26.8064,63.3586 27.0144,63.1096 C27.8774,61.9216 28.8914,60.8696 29.9774,59.9606 L28.9644,53.4566 L34.1054,50.9946 L38.5374,55.8636 C40.2504,55.5186 42.0444,55.4046 43.8394,55.5746 L47.7294,50.2526 L53.1084,52.1476 L52.8044,58.7326 C54.2604,59.6886 55.5404,60.8666 56.6364,62.1576" id="Fill-14" fill="#969CBB"></path>
        <path d="M32.2854,96.2094 L36.3324,97.6354 L39.8074,92.8844 C40.0044,92.6144 40.3344,92.4764 40.6624,92.4984 C42.3214,92.6584 44.0084,92.5624 45.6884,92.2234 C46.0134,92.1554 46.3534,92.2674 46.5774,92.5154 L50.5344,96.8614 L54.4014,95.0104 L53.4964,89.2034 C53.4454,88.8734 53.5714,88.5414 53.8264,88.3274 C55.1444,87.2284 56.2764,85.9694 57.1904,84.5834 C57.3744,84.3044 57.6894,84.1554 58.0274,84.1574 L63.9074,84.4294 L65.3314,80.3834 L60.5804,76.9084 C60.3104,76.7114 60.1634,76.3864 60.1964,76.0524 C60.3514,74.4034 60.2594,72.7124 59.9224,71.0264 C59.8574,70.6994 59.9684,70.3624 60.2144,70.1374 L64.5584,66.1804 L62.7064,62.3144 L56.9004,63.2204 C56.5594,63.2724 56.2164,63.1374 56.0044,62.8674 C55.9714,62.8384 55.9414,62.8054 55.9114,62.7714 C54.8154,61.4794 53.5944,60.3874 52.2824,59.5264 C52.0024,59.3434 51.8394,59.0234 51.8554,58.6884 L52.1274,52.8084 L48.0804,51.3844 L44.6064,56.1354 C44.4084,56.4054 44.0974,56.5574 43.7494,56.5194 C42.0994,56.3644 40.4074,56.4554 38.7244,56.7954 C38.3974,56.8594 38.0594,56.7504 37.8344,56.5034 L33.8784,52.1574 L30.0114,54.0094 L30.9154,59.8144 C30.9674,60.1434 30.8424,60.4754 30.5864,60.6894 C29.5034,61.5954 28.5604,62.5974 27.7824,63.6684 C27.7704,63.6844 27.7574,63.7024 27.7434,63.7194 C27.5604,63.9374 27.3874,64.1784 27.2304,64.4234 C27.0464,64.7094 26.7224,64.8604 26.3864,64.8604 L20.5064,64.5884 L19.0804,68.6354 L23.8314,72.1094 C24.1024,72.3064 24.2484,72.6324 24.2174,72.9654 C24.0614,74.6194 24.1534,76.3094 24.4914,77.9914 C24.5564,78.3184 24.4464,78.6554 24.1994,78.8804 L19.8544,82.8374 L21.7054,86.7034 L27.5124,85.7984 C27.8404,85.7494 28.1754,85.8724 28.3884,86.1284 C29.4894,87.4474 30.7474,88.5794 32.1314,89.4924 C32.4114,89.6774 32.5744,89.9944 32.5584,90.3294 L32.2854,96.2094 Z M36.6834,99.7164 C36.5774,99.7164 36.4714,99.6984 36.3674,99.6614 L30.9894,97.7654 C30.5934,97.6274 30.3354,97.2454 30.3554,96.8264 L30.6354,90.7714 C29.4164,89.9154 28.2924,88.9044 27.2824,87.7574 L21.3004,88.6894 C20.8774,88.7564 20.4774,88.5394 20.2974,88.1614 L17.8354,83.0204 C17.6544,82.6424 17.7424,82.1904 18.0524,81.9084 L22.5284,77.8324 C22.2694,76.3284 22.1864,74.8184 22.2824,73.3304 L17.3894,69.7524 C17.0504,69.5054 16.9144,69.0644 17.0544,68.6704 L18.9494,63.2914 C19.0884,62.8944 19.4824,62.6664 19.8894,62.6574 L25.9454,62.9374 C26.0494,62.7944 26.1564,62.6564 26.2644,62.5254 C27.0294,61.4764 27.9334,60.4894 28.9574,59.5854 L28.0264,53.6034 C27.9614,53.1884 28.1764,52.7814 28.5544,52.6004 L33.6954,50.1384 C34.0714,49.9554 34.5264,50.0454 34.8074,50.3554 L38.8824,54.8324 C40.3884,54.5714 41.8984,54.4904 43.3854,54.5854 L46.9634,49.6924 C47.2104,49.3534 47.6494,49.2184 48.0454,49.3564 L53.4244,51.2514 C53.8204,51.3904 54.0774,51.7724 54.0584,52.1914 L53.7784,58.2454 C54.9744,59.0874 56.0954,60.0984 57.1194,61.2634 L63.1124,60.3284 C63.5244,60.2604 63.9344,60.4774 64.1154,60.8564 L66.5764,65.9974 C66.7584,66.3754 66.6694,66.8274 66.3604,67.1094 L61.8844,71.1864 C62.1444,72.6934 62.2264,74.2034 62.1304,75.6874 L67.0234,79.2654 C67.3624,79.5124 67.4974,79.9524 67.3594,80.3474 L65.4644,85.7264 C65.3244,86.1234 64.9384,86.3514 64.5244,86.3604 L58.4694,86.0804 C57.6124,87.2994 56.6014,88.4244 55.4554,89.4334 L56.3874,95.4154 C56.4514,95.8294 56.2374,96.2374 55.8594,96.4184 L50.7184,98.8804 C50.3404,99.0614 49.8884,98.9714 49.6064,98.6634 L45.5304,94.1864 C44.0264,94.4474 42.5194,94.5274 41.0284,94.4334 L37.4494,99.3264 C37.2674,99.5764 36.9804,99.7164 36.6834,99.7164 L36.6834,99.7164 Z M42.2054,64.0494 C40.6624,64.0494 39.1264,64.3944 37.6924,65.0814 C35.1704,66.2894 33.2724,68.4034 32.3454,71.0344 C31.4174,73.6664 31.5724,76.5034 32.7804,79.0244 C33.9874,81.5454 36.1004,83.4434 38.7314,84.3704 C44.1714,86.2904 50.1524,83.4224 52.0694,77.9844 C52.9954,75.3524 52.8414,72.5144 51.6334,69.9934 C50.4264,67.4724 48.3124,65.5744 45.6814,64.6474 C44.5464,64.2474 43.3744,64.0494 42.2054,64.0494 L42.2054,64.0494 Z M42.1954,86.8654 C40.8354,86.8654 39.4534,86.6394 38.1004,86.1634 C34.9914,85.0674 32.4924,82.8234 31.0664,79.8444 C29.6394,76.8664 29.4564,73.5124 30.5534,70.4034 C31.6484,67.2934 33.8924,64.7944 36.8714,63.3684 C39.8514,61.9414 43.2024,61.7614 46.3124,62.8544 C49.4224,63.9504 51.9204,66.1944 53.3474,69.1734 C54.7744,72.1514 54.9564,75.5054 53.8614,78.6154 L53.8604,78.6154 C52.0734,83.6874 47.2904,86.8654 42.1954,86.8654 L42.1954,86.8654 Z" id="Fill-16" fill="#343852"></path>
        <path d="M96.9691,32.0461 L96.9691,47.5271 C96.9691,48.8731 95.8681,49.9751 94.5221,49.9751 L79.2151,49.9751 L74.3391,55.4011 L74.3391,49.9751 L67.5991,49.9751 C66.2531,49.9751 65.1511,48.8731 65.1511,47.5271 L65.1511,32.0461 C65.1511,30.7001 66.2531,29.5981 67.5991,29.5981 L94.5221,29.5981 C95.8681,29.5981 96.9691,30.7001 96.9691,32.0461" id="Fill-19" fill="#FFFFFF"></path>
        <path d="M67.5993,30.549 C66.7743,30.549 66.1023,31.221 66.1023,32.046 L66.1023,47.528 C66.1023,48.353 66.7743,49.025 67.5993,49.025 L74.3393,49.025 C74.8643,49.025 75.2893,49.45 75.2893,49.975 L75.2893,53.153 L78.4883,49.362 C78.6683,49.149 78.9343,49.025 79.2143,49.025 L94.5213,49.025 C95.3473,49.025 96.0193,48.353 96.0193,47.528 L96.0193,32.046 C96.0193,31.221 95.3473,30.549 94.5213,30.549 L67.5993,30.549 Z M74.3393,56.703 C74.2303,56.703 74.1203,56.685 74.0133,56.646 C73.6383,56.508 73.3893,56.152 73.3893,55.753 L73.3893,50.925 L67.5993,50.925 C65.7263,50.925 64.2023,49.401 64.2023,47.528 L64.2023,32.046 C64.2023,30.173 65.7263,28.649 67.5993,28.649 L94.5213,28.649 C96.3953,28.649 97.9193,30.173 97.9193,32.046 L97.9193,47.528 C97.9193,49.401 96.3953,50.925 94.5213,50.925 L79.6563,50.925 L75.0663,56.365 C74.8813,56.584 74.6143,56.703 74.3393,56.703 L74.3393,56.703 Z" id="Fill-21" fill="#343852"></path>
        <path d="M22.3433,23.3976 L22.3433,37.8786 C22.3433,39.2246 23.4443,40.3266 24.7913,40.3266 L33.3763,40.3266 L38.2523,45.7526 L38.2523,40.3266 L51.7133,40.3266 C53.0593,40.3266 54.1613,39.2246 54.1613,37.8786 L54.1613,23.3976 C54.1613,22.0516 53.0593,20.9496 51.7133,20.9496 L24.7913,20.9496 C23.4443,20.9496 22.3433,22.0516 22.3433,23.3976" id="Fill-23" fill="#D20050"></path>
        <path d="M28.7014,30.2534 C28.7014,31.4484 29.6664,32.4134 30.8614,32.4134 C32.0564,32.4134 33.0214,31.4484 33.0214,30.2534 C33.0214,29.0584 32.0564,28.0934 30.8614,28.0934 C29.6664,28.0934 28.7014,29.0584 28.7014,30.2534 M36.3414,30.2534 C36.3414,31.4484 37.3064,32.4134 38.5014,32.4134 C39.6964,32.4134 40.6614,31.4484 40.6614,30.2534 C40.6614,29.0584 39.6964,28.0934 38.5014,28.0934 C37.3064,28.0934 36.3414,29.0584 36.3414,30.2534 M46.1414,28.0934 C47.3364,28.0934 48.3014,29.0584 48.3014,30.2534 C48.3014,31.4484 47.3364,32.4134 46.1414,32.4134 C44.9464,32.4134 43.9814,31.4484 43.9814,30.2534 C43.9814,29.0584 44.9464,28.0934 46.1414,28.0934" id="Fill-25" fill="#FFFFFF"></path>
        <path d="M24.7907,21.9006 C23.9657,21.9006 23.2937,22.5726 23.2937,23.3976 L23.2937,37.8796 C23.2937,38.7046 23.9657,39.3766 24.7907,39.3766 L33.3767,39.3766 C33.6567,39.3766 33.9227,39.5006 34.1037,39.7136 L37.3017,43.5046 L37.3017,40.3266 C37.3017,39.8016 37.7277,39.3766 38.2517,39.3766 L51.7137,39.3766 C52.5387,39.3766 53.2107,38.7046 53.2107,37.8796 L53.2107,23.3976 C53.2107,22.5726 52.5387,21.9006 51.7137,21.9006 L24.7907,21.9006 Z M38.2517,47.0546 C37.9777,47.0546 37.7097,46.9356 37.5247,46.7166 L32.9357,41.2766 L24.7907,41.2766 C22.9177,41.2766 21.3937,39.7526 21.3937,37.8796 L21.3937,23.3976 C21.3937,21.5246 22.9177,20.0006 24.7907,20.0006 L51.7137,20.0006 C53.5867,20.0006 55.1107,21.5246 55.1107,23.3976 L55.1107,37.8796 C55.1107,39.7526 53.5867,41.2766 51.7137,41.2766 L39.2017,41.2766 L39.2017,46.1046 C39.2017,46.5036 38.9527,46.8596 38.5777,46.9976 C38.4717,47.0366 38.3607,47.0546 38.2517,47.0546 L38.2517,47.0546 Z" id="Fill-27" fill="#343852"></path>
        <path d="M70.286,46.329 L73.454,46.329 L73.454,41.294 L70.286,41.294 L70.286,46.329 Z M76.413,46.329 L79.581,46.329 L79.581,35.28 L76.413,35.28 L76.413,46.329 Z M85.708,37.857 L84.124,37.857 L82.54,37.857 L82.54,45.59 L82.54,46.329 L85.708,46.329 L85.708,43.871 L85.708,37.857 Z M91.835,43.012 L91.835,43.194 L91.771,46.329 L88.667,46.329 L88.667,43.012 L88.667,33.561 L91.835,33.561 L91.835,43.012 Z" id="Fill-29" fill="#1D71B8"></path>
        <path d="M89.618,45.379 L90.885,45.379 L90.885,34.511 L89.618,34.511 L89.618,45.379 Z M91.835,47.279 L88.668,47.279 C88.143,47.279 87.717,46.854 87.717,46.329 L87.717,33.561 C87.717,33.036 88.143,32.611 88.668,32.611 L91.835,32.611 C92.359,32.611 92.785,33.036 92.785,33.561 L92.785,46.329 C92.785,46.854 92.359,47.279 91.835,47.279 L91.835,47.279 Z M83.49,45.379 L84.758,45.379 L84.758,38.471 L83.49,38.471 L83.49,45.379 Z M85.708,47.279 L82.54,47.279 C82.015,47.279 81.59,46.854 81.59,46.329 L81.59,37.521 C81.59,36.996 82.015,36.57 82.54,36.57 L85.708,36.57 C86.232,36.57 86.658,36.996 86.658,37.521 L86.658,46.329 C86.658,46.854 86.232,47.279 85.708,47.279 L85.708,47.279 Z M77.363,45.379 L78.631,45.379 L78.631,36.095 L77.363,36.095 L77.363,45.379 Z M79.581,47.279 L76.413,47.279 C75.888,47.279 75.463,46.854 75.463,46.329 L75.463,35.145 C75.463,34.62 75.888,34.195 76.413,34.195 L79.581,34.195 C80.105,34.195 80.531,34.62 80.531,35.145 L80.531,46.329 C80.531,46.854 80.105,47.279 79.581,47.279 L79.581,47.279 Z M71.236,45.379 L72.504,45.379 L72.504,41.639 L71.236,41.639 L71.236,45.379 Z M73.454,47.279 L70.286,47.279 C69.761,47.279 69.336,46.854 69.336,46.329 L69.336,40.689 C69.336,40.164 69.761,39.738 70.286,39.738 L73.454,39.738 C73.978,39.738 74.404,40.164 74.404,40.689 L74.404,46.329 C74.404,46.854 73.978,47.279 73.454,47.279 L73.454,47.279 Z" id="Fill-31" fill="#343852"></path>
    </g>
</svg>