<?xml version="1.0" encoding="UTF-8"?>
<svg width="120px" height="120px" viewBox="0 0 120 120" version="1.1" xmlns="http://www.w3.org/2000/svg" xmlns:xlink="http://www.w3.org/1999/xlink">
    <title>02.Icons/Illustrative/01. Profils/Pedicure-Podologue</title>
    <g id="02.Icons/Illustrative/01.-Profils/Pedicure-Podologue" stroke="none" stroke-width="1" fill="none" fill-rule="evenodd">
        <path d="M60.445,105.428451 L60.447,105.428451 C82.785,105.428451 100.893,87.6134512 100.893,65.6364512 L100.893,20.7284512 L100.893,19.2304512 C97.731,22.6944512 91.381,25.6444512 78.492,25.8444512 L60.445,25.8444512 C38.107,25.8444512 20,43.6594512 20,65.6364512 C20,87.6134512 38.107,105.428451 60.445,105.428451" id="Fill-1" fill="#F2F3F7"></path>
        <path d="M46.6379,71.6282512 L47.0479,72.5862512 C51.0149,82.5182512 61.3939,105.619251 72.0529,105.619251 C72.3959,105.619251 72.7429,105.595251 73.0819,105.547251 C78.3009,104.806251 83.4199,99.3822512 82.3239,89.2222512 L82.2119,88.1872512 L82.2169,88.1862512 C81.2739,82.5782512 79.8889,80.5142512 79.1249,79.3742512 L79.0119,79.2062512 L78.9609,79.0102512 C76.6539,70.2062512 76.3999,57.6382512 77.1039,51.9502512 L77.1239,51.7902512 L77.1849,51.6422512 C78.3259,48.8592512 78.6669,45.7432512 78.1999,42.3782512 L78.0419,41.2442512 L78.0749,41.2382512 C77.2869,37.7592512 75.3989,34.6782512 74.1079,32.5702512 L73.7129,31.9222512 L73.5929,31.7242512 L73.5549,31.4952512 L73.3569,30.2822512 L73.3519,30.2502512 L73.3479,30.2182512 C72.7209,24.4932512 70.3299,19.6312512 66.7879,16.8792512 C65.2619,15.6932512 63.6359,15.0392512 62.2089,15.0392512 C61.9949,15.0392512 61.7829,15.0542512 61.5789,15.0832512 C61.0409,15.1592512 56.3459,16.0072512 57.2209,22.1732512 C57.2359,22.2812512 57.2529,22.3832512 57.2699,22.4852512 L57.2959,22.6442512 L57.6419,24.8122512 L55.6299,23.9322512 C55.0559,23.6812512 54.4609,23.5542512 53.8629,23.5542512 C53.6679,23.5542512 53.4709,23.5682512 53.2769,23.5952512 C50.8869,23.9342512 49.2189,26.1542512 49.5579,28.5432512 L49.5699,28.5832512 C49.5909,28.6572512 49.6109,28.7322512 49.6269,28.8082512 L49.8999,30.1382512 L48.5459,30.2452512 C48.4659,30.2522512 48.3869,30.2532512 48.3069,30.2532512 L48.2489,30.2542512 C47.1189,30.4152512 46.0949,31.0202512 45.3919,31.9562512 C44.6889,32.8922512 44.3919,34.0442512 44.5549,35.1992512 C44.5949,35.4752512 44.6689,35.7632512 44.7839,36.0792512 L45.2029,37.2312512 L44.0419,37.6252512 C42.0499,38.3012512 40.8189,40.3002512 41.1129,42.3782512 C41.2359,43.2392512 41.6059,44.0352512 42.1849,44.6792512 L43.1059,45.7032512 L41.9649,46.4752512 C40.5579,47.4282512 39.8299,49.0482512 40.0639,50.7032512 C40.3839,52.9582512 43.5589,63.7552512 46.6379,71.6282512" id="Fill-4" fill="#FFFFFF"></path>
        <path d="M46.078,67.3765512 C43.218,59.6055512 41.366,53.0385512 41.016,50.5675512 C40.752,48.7035512 42.054,46.9715512 43.918,46.7065512 C44.821,46.5755512 45.721,46.8105512 46.45,47.3575512 C47.18,47.9055512 47.651,48.7045512 47.779,49.6085512 C48.044,51.4735512 46.742,53.2055512 44.877,53.4705512 C44.33,53.5485512 43.95,54.0545512 44.027,54.6015512 C44.105,55.1475512 44.606,55.5255512 45.158,55.4505512 C46.591,55.2475512 47.858,54.4985512 48.727,53.3425512 C49.597,52.1865512 49.963,50.7605512 49.76,49.3285512 C49.557,47.8965512 48.808,46.6275512 47.651,45.7585512 C46.526,44.9125512 45.143,44.5525512 43.746,44.7215512 C42.827,44.1925512 42.214,43.2925512 42.065,42.2425512 C41.937,41.3395512 42.168,40.4395512 42.717,39.7105512 C43.265,38.9805512 44.063,38.5095512 44.968,38.3815512 C45.869,38.2505512 46.768,38.4835512 47.499,39.0325512 C48.228,39.5805512 48.701,40.3805512 48.829,41.2825512 C48.943,42.0885512 48.766,42.9095512 48.33,43.5965512 C48.033,44.0625512 48.171,44.6805512 48.638,44.9765512 C49.102,45.2725512 49.722,45.1345512 50.017,44.6685512 C50.709,43.5815512 50.99,42.2795512 50.809,41.0025512 C50.606,39.5695512 49.857,38.3025512 48.701,37.4335512 C47.906,36.8355512 46.979,36.4955512 46.015,36.3945512 C45.759,35.9895512 45.576,35.5485512 45.507,35.0635512 C45.243,33.1995512 46.545,31.4675512 48.408,31.2025512 C50.29,30.9295512 52.007,32.2405512 52.27,34.1055512 C52.43,35.2275512 52.023,36.3535512 51.182,37.1165512 C50.774,37.4885512 50.744,38.1215512 51.115,38.5295512 C51.313,38.7465512 51.584,38.8565512 51.855,38.8565512 C52.096,38.8565512 52.337,38.7715512 52.528,38.5975512 C53.859,37.3865512 54.503,35.6025512 54.251,33.8235512 C53.97,31.8415512 52.639,30.2655512 50.902,29.5655512 C50.706,29.2065512 50.568,28.8195512 50.51,28.4075512 C50.382,27.5045512 50.612,26.6055512 51.161,25.8765512 C51.709,25.1475512 52.509,24.6745512 53.412,24.5465512 C55.285,24.2775512 57.01,25.5845512 57.273,27.4485512 C57.486,28.9525512 56.668,30.4335512 55.282,31.0495512 C54.777,31.2735512 54.551,31.8645512 54.774,32.3695512 C54.94,32.7425512 55.306,32.9635512 55.689,32.9635512 C55.825,32.9635512 55.963,32.9365512 56.095,32.8775512 C57.519,32.2435512 58.556,31.0315512 59.025,29.6095512 C59.346,29.9945512 59.676,30.3525512 60.012,30.7135512 C61.014,31.7905512 62.05,32.9045512 62.96,35.1455512 C63.169,35.6575512 63.754,35.9015512 64.263,35.6955512 C64.774,35.4875512 65.021,34.9035512 64.813,34.3935512 C63.765,31.8125512 62.549,30.5045512 61.476,29.3515512 C60.041,27.8075512 58.802,26.4745512 58.173,22.0385512 C57.463,17.0355512 60.704,16.1785512 61.714,16.0345512 C63.018,15.8505512 64.65,16.4355512 66.198,17.6365512 C69.487,20.1915512 71.803,24.9345512 72.399,30.3745512 L72.642,31.8705512 C72.663,31.9975512 72.708,32.1185512 72.774,32.2285512 L72.849,32.3515512 C74.236,34.6465512 75.332,36.4575512 76.102,38.3065512 C76.263,38.6895512 76.634,38.9215512 77.025,38.9215512 C77.154,38.9215512 77.284,38.8975512 77.41,38.8445512 C77.92,38.6325512 78.161,38.0465512 77.948,37.5365512 C77.125,35.5625512 76.004,33.7045512 74.586,31.3585512 L74.381,30.1055512 C73.724,24.1015512 71.188,18.9805512 67.425,16.0575512 C65.421,14.5015512 63.289,13.7885512 61.432,14.0545512 C60.789,14.1465512 55.177,15.1555512 56.192,22.3195512 C56.23,22.5865512 56.271,22.8395512 56.314,23.0875512 C55.364,22.6115512 54.265,22.4065512 53.131,22.5655512 C51.698,22.7695512 50.431,23.5185512 49.561,24.6745512 C48.692,25.8315512 48.326,27.2565512 48.529,28.6885512 C48.553,28.8565512 48.609,29.0135512 48.647,29.1765512 C48.475,29.1835512 48.302,29.1975512 48.128,29.2225512 C45.172,29.6425512 43.108,32.3885512 43.526,35.3455512 C43.588,35.7765512 43.702,36.1985512 43.864,36.6005512 C42.774,36.9325512 41.814,37.5815512 41.117,38.5095512 C40.248,39.6655512 39.882,41.0915512 40.085,42.5235512 C40.247,43.6655512 40.76,44.6915512 41.532,45.4975512 C39.774,46.5985512 38.726,48.6645512 39.035,50.8495512 C39.4,53.4235512 41.293,60.1645512 44.201,68.0675512 C44.349,68.4725512 44.732,68.7225512 45.14,68.7225512 C45.255,68.7225512 45.371,68.7025512 45.485,68.6605512 C46.003,68.4705512 46.268,67.8955512 46.078,67.3765512 M83.355,89.0955512 C83.296,88.5455512 82.796,88.1515512 82.254,88.2085512 C81.704,88.2685512 81.307,88.7615512 81.367,89.3105512 C82.401,98.8445512 77.727,103.916551 72.947,104.595551 C65.65,105.634551 56.505,93.7525512 47.849,72.0055512 C47.646,71.4915512 47.066,71.2405512 46.551,71.4465512 C46.038,71.6505512 45.787,72.2315512 45.992,72.7455512 C51.111,85.6075512 61.155,106.658551 72.05,106.658551 C72.441,106.658551 72.835,106.631551 73.228,106.575551 C78.932,105.766551 84.533,99.9505512 83.355,89.0955512 M58.593,51.0395512 C58.515,50.4925512 58.012,50.1105512 57.462,50.1895512 C56.915,50.2685512 56.535,50.7735512 56.612,51.3205512 C57.43,57.0835512 61.028,60.8305512 66.238,61.3435512 C66.271,61.3465512 66.305,61.3485512 66.337,61.3485512 C66.846,61.3485512 67.28,60.9625512 67.331,60.4455512 C67.385,59.8965512 66.983,59.4065512 66.433,59.3535512 C62.14,58.9305512 59.282,55.9005512 58.593,51.0395512 M78.091,41.3195512 C78.635,41.2365512 79.143,41.6225512 79.222,42.1695512 C79.734,45.7805512 79.354,49.0955512 78.138,52.0525512 C77.435,57.6905512 77.682,70.0555512 79.973,78.7765512 C80.992,80.2905512 81.82,82.1045512 82.419,84.2195512 C82.569,84.7505512 82.261,85.3035512 81.729,85.4535512 C81.639,85.4805512 81.547,85.4915512 81.456,85.4915512 C81.02,85.4915512 80.62,85.2045512 80.495,84.7645512 C79.961,82.8795512 79.252,81.2905512 78.388,79.9765512 C78.294,79.8895512 78.221,79.7855512 78.166,79.6655512 C76.888,77.8505512 75.287,76.6065512 73.351,75.9925512 C72.825,75.8255512 72.534,75.2635512 72.701,74.7365512 C72.867,74.2115512 73.428,73.9165512 73.957,74.0865512 C75.164,74.4695512 76.259,75.0775512 77.26,75.8515512 C75.917,68.9305512 75.657,61.2675512 75.851,55.9985512 C74.567,57.6575512 72.949,59.1565512 70.994,60.4725512 C70.822,60.5875512 70.629,60.6425512 70.436,60.6425512 C70.115,60.6425512 69.799,60.4875512 69.605,60.2005512 C69.298,59.7415512 69.419,59.1205512 69.877,58.8125512 C73.147,56.6115512 75.093,54.0555512 76.193,51.4775512 C76.196,51.4555512 76.198,51.4285512 76.201,51.4065512 C76.225,51.2345512 76.302,51.0885512 76.398,50.9575512 C77.551,47.9445512 77.593,44.9325512 77.241,42.4505512 C77.164,41.9035512 77.544,41.3975512 78.091,41.3195512" id="Fill-6" fill="#343852"></path>
        <path d="M68.7196,43.9448512 C67.6476,43.9448512 66.7756,43.0728512 66.7756,42.0008512 C66.7756,40.9288512 67.6476,40.0568512 68.7196,40.0568512 C69.7906,40.0568512 70.6626,40.9288512 70.6626,42.0008512 C70.6626,43.0728512 69.7906,43.9448512 68.7196,43.9448512 M92.2706,41.0008512 L72.5186,41.0008512 C72.0726,39.3118512 70.5466,38.0568512 68.7196,38.0568512 C66.5446,38.0568512 64.7756,39.8258512 64.7756,42.0008512 C64.7756,44.1748512 66.5446,45.9448512 68.7196,45.9448512 C70.5466,45.9448512 72.0726,44.6898512 72.5186,43.0008512 L92.2706,43.0008512 C92.8236,43.0008512 93.2706,42.5528512 93.2706,42.0008512 C93.2706,41.4478512 92.8236,41.0008512 92.2706,41.0008512" id="Fill-8" fill="#1D71B8"></path>
        <path d="M73.2899,90.6860512 C72.2189,90.6860512 71.3469,89.8140512 71.3469,88.7420512 C71.3469,87.6700512 72.2189,86.7980512 73.2899,86.7980512 C74.3619,86.7980512 75.2339,87.6700512 75.2339,88.7420512 C75.2339,89.8140512 74.3619,90.6860512 73.2899,90.6860512 M96.8409,87.7420512 L77.0899,87.7420512 C76.6439,86.0530512 75.1169,84.7980512 73.2899,84.7980512 C71.1149,84.7980512 69.3469,86.5670512 69.3469,88.7420512 C69.3469,90.9160512 71.1149,92.6860512 73.2899,92.6860512 C75.1169,92.6860512 76.6439,91.4310512 77.0899,89.7420512 L96.8409,89.7420512 C97.3939,89.7420512 97.8409,89.2940512 97.8409,88.7420512 C97.8409,88.1890512 97.3939,87.7420512 96.8409,87.7420512" id="Fill-10" fill="#1D71B8"></path>
        <path d="M56.3427,73.6587512 C55.2707,73.6587512 54.3987,72.7867512 54.3987,71.7147512 C54.3987,70.6427512 55.2707,69.7707512 56.3427,69.7707512 C57.4137,69.7707512 58.2857,70.6427512 58.2857,71.7147512 C58.2857,72.7867512 57.4137,73.6587512 56.3427,73.6587512 M56.3427,67.7707512 C54.5157,67.7707512 52.9887,69.0257512 52.5427,70.7147512 L32.7907,70.7147512 C32.2387,70.7147512 31.7907,71.1617512 31.7907,71.7147512 C31.7907,72.2667512 32.2387,72.7147512 32.7907,72.7147512 L52.5427,72.7147512 C52.9887,74.4037512 54.5157,75.6587512 56.3427,75.6587512 C58.5177,75.6587512 60.2857,73.8887512 60.2857,71.7147512 C60.2857,69.5397512 58.5177,67.7707512 56.3427,67.7707512" id="Fill-12" fill="#D20050"></path>
    </g>
</svg>