<?xml version="1.0" encoding="UTF-8"?>
<svg width="120px" height="120px" viewBox="0 0 120 120" version="1.1" xmlns="http://www.w3.org/2000/svg" xmlns:xlink="http://www.w3.org/1999/xlink">
    <title>02.Icons/Illustrative/Préparation</title>
    <g id="02.Icons/Illustrative/Préparation" stroke="none" stroke-width="1" fill="none" fill-rule="evenodd">
        <path d="M96.684133,60.0003 C96.684133,39.7403 80.260133,23.3163 60.000133,23.3163 C39.741133,23.3163 23.318133,39.7403 23.318133,60.0003 C23.318133,80.2603 39.741133,96.6833 60.000133,96.6833 C80.260133,96.6833 96.684133,80.2603 96.684133,60.0003" id="Fill-1" fill="#F2F3F7"></path>
        <polygon id="Fill-3" fill="#D20050" points="67.643133 52.4495 67.643133 62.6445 75.286133 60.7645 75.286133 50.3245"></polygon>
        <polygon id="Fill-5" fill="#FFFFFF" points="63.058133 32.4876 53.887133 35.0406 75.286133 50.3246 84.456133 47.7726"></polygon>
        <polygon id="Fill-7" fill="#FFFFFF" points="46.244733 37.1649 35.545733 40.1299 56.943733 55.4149 67.642733 52.4499"></polygon>
        <polygon id="Fill-9" fill="#FFFFFF" points="75.285733 50.325 75.285733 60.764 67.642733 62.644 67.642733 52.45 56.943733 55.415 56.943733 85.984 84.456733 78.342 84.456733 47.772"></polygon>
        <polygon id="Fill-11" fill="#1D71B8" points="35.545433 40.1302 35.545433 70.6992 56.943433 85.9842 56.943433 55.4152"></polygon>
        <polygon id="Fill-13" fill="#969CBB" points="53.887233 35.0404 46.244233 37.1654 67.643233 52.4494 75.285233 50.3254"></polygon>
        <path d="M93.235933,26.765 C84.359933,17.888 72.555933,13 60.000933,13 C59.367933,13 58.853933,13.513 58.853933,14.146 C58.853933,14.779 59.367933,15.292 60.000933,15.292 C71.943933,15.292 83.171933,19.942 91.614933,28.386 C100.057933,36.83 104.708933,48.057 104.708933,60 C104.708933,71.943 100.057933,83.171 91.614933,91.614 C83.171933,100.058 71.943933,104.708 60.000933,104.708 C48.057933,104.708 36.830933,100.058 28.386933,91.614 C19.942933,83.171 15.292933,71.943 15.292933,60 C15.292933,48.835 19.348933,38.34 26.756933,30.137 L26.756933,40.13 C26.756933,40.763 27.269933,41.276 27.902933,41.276 C28.535933,41.276 29.048933,40.763 29.048933,40.13 L29.048933,27.138 C29.048933,26.78 28.881933,26.442 28.595933,26.225 C28.310933,26.009 27.940933,25.937 27.595933,26.034 L13.839933,29.855 C13.229933,30.024 12.872933,30.656 13.041933,31.266 C13.211933,31.876 13.842933,32.233 14.453933,32.064 L24.450933,29.286 C17.047933,37.807 13,48.569 13,60 C13,72.556 17.888933,84.359 26.764933,93.235 C35.641933,102.112 47.445933,107.001 60.000933,107.001 C72.555933,107.001 84.359933,102.112 93.235933,93.235 C102.112933,84.359 107.001933,72.556 107.001933,60 C107.001933,47.445 102.112933,35.641 93.235933,26.765" id="Fill-15" fill="#969CBB"></path>
        <path d="M62.837433,33.7391 L81.838433,47.3111 L75.504433,49.0721 L56.504433,35.5011 L62.837433,33.7391 Z M58.090433,56.2871 L66.496433,53.9571 L66.496433,62.6441 C66.496433,62.9971 66.658433,63.3291 66.936433,63.5471 C67.140433,63.7061 67.389433,63.7911 67.643433,63.7911 C67.734433,63.7911 67.826433,63.7801 67.917433,63.7581 L75.559433,61.8781 C76.071433,61.7521 76.432433,61.2921 76.432433,60.7641 L76.432433,51.1951 L83.310433,49.2811 L83.310433,77.4701 L58.090433,84.4761 L58.090433,56.2871 Z M36.691433,42.3581 L55.797433,56.0051 L55.797433,83.7571 L36.691433,70.1101 L36.691433,42.3581 Z M68.789433,53.3211 L74.139433,51.8321 L74.139433,59.8661 L68.789433,61.1821 L68.789433,53.3211 Z M53.665433,36.2901 L72.665433,49.8631 L67.863433,51.1981 L48.862433,37.6261 L53.665433,36.2901 Z M46.024433,38.4161 L65.022433,51.9861 L57.164433,54.1641 L38.165433,40.5931 L46.024433,38.4161 Z M85.603433,47.7721 C85.603433,47.7401 85.587433,47.7131 85.584433,47.6821 C85.580433,47.6281 85.576433,47.5771 85.565433,47.5251 C85.561433,47.5051 85.566433,47.4851 85.561433,47.4651 C85.554433,47.4401 85.535433,47.4231 85.527433,47.4001 C85.509433,47.3481 85.488433,47.3021 85.463433,47.2541 C85.440433,47.2071 85.415433,47.1641 85.385433,47.1211 C85.359433,47.0841 85.333433,47.0501 85.304433,47.0161 C85.267433,46.9751 85.227433,46.9421 85.186433,46.9071 C85.161433,46.8861 85.149433,46.8581 85.122433,46.8401 L63.724433,31.5551 C63.441433,31.3531 63.084433,31.2901 62.750433,31.3831 L45.938433,36.0601 L35.238433,39.0251 C35.214433,39.0321 35.196433,39.0511 35.173433,39.0591 C35.121433,39.0771 35.074433,39.0971 35.026433,39.1221 C34.981433,39.1461 34.938433,39.1701 34.895433,39.2001 C34.857433,39.2261 34.822433,39.2521 34.789433,39.2821 C34.748433,39.3191 34.715433,39.3591 34.680433,39.4011 C34.659433,39.4251 34.631433,39.4381 34.612433,39.4641 C34.600433,39.4801 34.599433,39.5011 34.588433,39.5181 C34.565433,39.5541 34.545433,39.5901 34.526433,39.6281 C34.501433,39.6781 34.485433,39.7301 34.468433,39.7851 C34.452433,39.8351 34.434433,39.8811 34.425433,39.9321 C34.417433,39.9741 34.416433,40.0151 34.413433,40.0571 C34.411433,40.0831 34.399433,40.1041 34.399433,40.1301 L34.399433,70.6991 C34.399433,70.7311 34.414433,70.7591 34.417433,70.7901 C34.423433,70.8691 34.441433,70.9431 34.463433,71.0191 C34.483433,71.0891 34.504433,71.1551 34.537433,71.2181 C34.569433,71.2811 34.611433,71.3371 34.656433,71.3941 C34.705433,71.4571 34.755433,71.5131 34.816433,71.5651 C34.840433,71.5851 34.853433,71.6141 34.879433,71.6331 L56.277433,86.9171 C56.321433,86.9491 56.374433,86.9651 56.422433,86.9891 C56.462433,87.0101 56.498433,87.0331 56.541433,87.0501 C56.670433,87.0981 56.805433,87.1311 56.943433,87.1311 C57.046433,87.1311 57.150433,87.1171 57.250433,87.0891 L84.763433,79.4471 C84.787433,79.4401 84.805433,79.4211 84.828433,79.4131 C84.904433,79.3861 84.970433,79.3471 85.038433,79.3061 C85.100433,79.2691 85.160433,79.2361 85.212433,79.1891 C85.268433,79.1401 85.309433,79.0831 85.354433,79.0241 C85.398433,78.9651 85.442433,78.9101 85.475433,78.8431 C85.506433,78.7811 85.522433,78.7141 85.541433,78.6441 C85.563433,78.5681 85.583433,78.4941 85.588433,78.4141 C85.590433,78.3891 85.603433,78.3671 85.603433,78.3421 L85.603433,47.7721 Z" id="Fill-18" fill="#343852"></path>
    </g>
</svg>