<?xml version="1.0" encoding="UTF-8"?>
<svg width="120px" height="120px" viewBox="0 0 120 120" version="1.1" xmlns="http://www.w3.org/2000/svg" xmlns:xlink="http://www.w3.org/1999/xlink">
    <title>02.Icons/Illustrative/Recuperer code secret</title>
    <g id="02.Icons/Illustrative/Recuperer-code-secret" stroke="none" stroke-width="1" fill="none" fill-rule="evenodd">
        <path d="M109.283577,54.22535 C109.283577,40.4475247 100.984023,28.0263506 88.2549731,22.7538023 C75.5259234,17.4812541 60.8741516,20.3956699 51.1317564,30.1380622 C41.3893613,39.8804544 38.4749412,54.5322254 43.7474857,67.2612766 C49.0200303,79.9903278 61.4412019,88.28989 75.2190272,88.28989 C84.2535384,88.28989 92.9180501,84.7010982 99.3064151,78.312735 C105.69478,71.9243718 109.283577,63.2598612 109.283577,54.22535" id="Fill-1" fill="#F2F3F7"></path>
        <rect id="Rectangle" fill="#FFFFFF" x="37.9538872" y="20.16081" width="40.36896" height="40.09375" rx="5.67542"></rect>
        <path d="M38.3122572,59.14053 C38.3122572,49.3133 38.3122572,45.38237 35.3640872,45.38237 C34.9567905,45.3778561 34.5537126,45.465186 34.1848072,45.63787 C34.0421683,45.7091395 33.9071669,45.7947655 33.7818972,45.89342 C34.0078972,45.48063 34.2634272,45.03842 34.5188972,44.5569 C35.4820072,42.81747 36.6317772,40.70459 37.6439972,38.73917 C39.0885872,35.90891 40.2776872,33.37347 40.2776872,32.60697 C40.3936902,31.7950007 40.1206315,30.9758008 39.5406576,30.3958171 C38.9606837,29.8158334 38.1414884,29.5427608 37.3295172,29.65875 C35.3640572,29.65875 23.5713672,47.34784 23.5713672,49.31325 L23.5713672,67.00233 L17.6749772,71.91597 L22.2707872,83.58849 L26.2017172,83.58849 L30.4504172,79.77778 C30.4504172,79.77778 40.2776872,77.81232 40.2776872,68.96778 C40.2776872,68.11278 40.2481772,67.32661 40.1892472,66.58958 C39.8256572,61.40082 38.3122572,59.14053 38.3122572,59.14053 Z" id="Path" fill="#FFFFFF"></path>
        <path d="M74.9811572,18 L41.2956072,18 C38.8065884,18.0026951 36.7895123,20.0197712 36.7868172,22.50879 L36.7868172,24.82422 L37.1696272,24.58448 C37.6537608,24.2537883 38.2194209,24.062418 38.8048872,24.03125 L39.0412172,24.01856 L39.0412172,22.50879 C39.042562,21.2642822 40.0510994,20.2557448 41.2956072,20.2544 L74.9811572,20.2544 C76.225665,20.2557448 77.2342024,21.2642822 77.2355472,22.50879 L77.2355472,55.90679 C77.2342024,57.1512994 76.2256666,58.1598397 74.9811572,58.16119 L43.8776372,58.16119 L43.9655272,58.47759 C44.1061572,58.98736 44.2409172,59.57134 44.3654272,60.21295 L44.4049772,60.41509 L74.9811572,60.41509 C77.47001,60.4124559 79.4870426,58.3956425 79.4899472,55.90679 L79.4899472,22.50879 C79.4872521,20.0197712 77.470176,18.0026951 74.9811572,18 L74.9811572,18 Z" id="Path" fill="#343852"></path>
        <path d="M71.1300672,65.4242 C70.2838872,64.11687 67.4622772,63.41442 66.0123272,64.87508 C65.8257172,63.71149 62.5965372,62.19502 60.8838272,64.32601 L60.8838272,49.50043 C60.8838272,47.9841543 59.6546429,46.75497 58.1383672,46.75497 C56.6220915,46.75497 55.3929072,47.9841543 55.3929072,49.50043 L55.3929072,74.1443 C51.2092772,65.90783 49.9019072,64.32601 47.7710072,64.32601 C47.167835,64.2722709 46.5711748,64.4839528 46.1367349,64.9058137 C45.702295,65.3276746 45.4731785,65.9178595 45.5091772,66.52235 C45.5091772,67.97235 48.3200772,71.39879 49.9019472,76.40608 C50.4070772,77.9987 52.5262372,86.49891 57.1935472,90.37477 C57.4456718,90.5832242 57.590935,90.8938251 57.5892972,91.22096 L57.5892972,92.87896 L72.9639472,92.87896 L72.9639472,92.03385 C72.9663345,91.1422983 73.1494778,90.2604883 73.5023072,89.44172 L75.7201572,84.23604 C76.0730023,83.4172763 76.2561495,82.5354637 76.2585272,81.64391 L76.2585272,67.62054 C76.2585272,65.55607 74.1940572,63.56775 71.1300672,65.4242 Z" id="Path" fill="#FFFFFF"></path>
        <path d="M48.5814972,31.25023 L46.5873572,31.25023 C45.5509238,31.2472094 44.7114743,30.4077734 44.7084372,29.37134 L44.7084372,27.37719 C44.7114743,26.3407644 45.5509116,25.5013315 46.5873372,25.4983 L48.5814772,25.4983 C49.6179285,25.5012932 50.4574054,26.3407388 50.4604372,27.37719 L50.4604372,29.37134 C50.4574055,30.4077834 49.6179407,31.2472259 48.5814972,31.25023 L48.5814972,31.25023 Z M61.0143372,29.37134 L61.0143372,27.37719 C61.0113001,26.3407644 60.1718628,25.5013315 59.1354372,25.4983 L57.1412972,25.4983 C56.1048849,25.501348 55.2654687,26.3407777 55.2624372,27.37719 L55.2624372,29.37134 C55.2654688,30.407764 56.1049032,31.2471984 57.1413272,31.25023 L59.1354372,31.25023 C60.1718628,31.2471985 61.0113001,30.4077656 61.0143372,29.37134 Z M71.5776372,29.37134 L71.5776372,27.37719 C71.5746056,26.340766 70.7351712,25.5013316 69.6987472,25.4983 L67.7045972,25.4983 C66.6681732,25.5013316 65.8287388,26.340766 65.8257072,27.37719 L65.8257072,29.37134 C65.8287388,30.407764 66.6681732,31.2471984 67.7045972,31.25023 L69.6987472,31.25023 C70.7351712,31.2471984 71.5746056,30.407764 71.5776372,29.37134 L71.5776372,29.37134 Z M50.4604372,39.92528 L50.4604372,37.93114 C50.4574057,36.8947144 49.6179728,36.0552771 48.5815472,36.05224 L46.5873572,36.05224 C45.5509277,36.0552716 44.7114888,36.8947105 44.7084572,37.93114 L44.7084572,39.92528 C44.7114888,40.9617095 45.5509277,41.8011484 46.5873572,41.80418 L48.5814972,41.80418 C49.6179423,41.8011704 50.4574055,40.9617251 50.4604372,39.92528 L50.4604372,39.92528 Z M61.0144372,39.92528 L61.0144372,37.93114 C61.0114056,36.8947105 60.1719667,36.0552716 59.1355372,36.05224 L57.1412972,36.05224 C56.1048833,36.0552935 55.2654687,36.8947261 55.2624372,37.93114 L55.2624372,39.92528 C55.2654688,40.9617056 56.1049016,41.8011429 57.1413272,41.80418 L59.1354372,41.80418 C60.1718667,41.8011484 61.0113056,40.9617095 61.0143372,39.92528 L61.0144372,39.92528 Z M71.5777372,39.92528 L71.5777372,37.93114 C71.5747057,36.8947144 70.7352728,36.0552771 69.6988472,36.05224 L67.7045972,36.05224 C66.6681716,36.0552771 65.8287388,36.8947144 65.8257072,37.93114 L65.8257072,39.92528 C65.8287388,40.9617056 66.6681716,41.8011429 67.7045972,41.80418 L69.6987472,41.80418 C70.7351728,41.8011429 71.5746057,40.9617056 71.5776372,39.92528 L71.5777372,39.92528 Z M50.4604372,50.47923 L50.4604372,48.48508 C50.4574056,47.448656 49.6179712,46.6092216 48.5815472,46.60619 L46.5873572,46.60619 C45.5509316,46.6092215 44.7114943,47.4486544 44.7084572,48.48508 L44.7084572,50.47923 C44.7114943,51.5156556 45.5509316,52.3550885 46.5873572,52.35812 L48.5814972,52.35812 C49.6179407,52.3551159 50.4574055,51.5156734 50.4604372,50.47923 L50.4604372,50.47923 Z M71.5776872,50.47923 L71.5776872,48.48508 C71.5746556,47.448656 70.7352212,46.6092216 69.6987972,46.60619 L67.7045972,46.60619 C66.6681732,46.6092216 65.8287388,47.448656 65.8257072,48.48508 L65.8257072,50.47923 C65.8287388,51.515654 66.6681732,52.3550884 67.7045972,52.35812 L69.6987472,52.35812 C70.7351712,52.3550884 71.5746056,51.515654 71.5776872,50.47923 L71.5776872,50.47923 Z" id="Shape" fill="#969CBB"></path>
        <path d="M89.1674872,48.49574 L89.1674872,42.79664 C89.1673926,42.526638 89.0110899,42.2810723 88.7665177,42.1666803 C88.5219455,42.0522884 88.233274,42.0897297 88.0259772,42.26273 L74.7883172,53.32505 C74.6301219,53.4572358 74.5386956,53.6527725 74.5386956,53.858925 C74.5386956,54.0650775 74.6301219,54.2606142 74.7883172,54.3928 L88.0259772,65.45502 C88.2332629,65.628011 88.5219158,65.6654584 88.7664815,65.5510866 C89.0110471,65.4367149 89.1673615,65.1911775 89.1674872,64.92119 L89.1674872,58.92934 L103.471947,58.92934 L103.471947,48.49574 L89.1674872,48.49574 Z" id="Path" fill="#D20050"></path>
        <path d="M88.4718772,66.6171919 C88.0746385,66.6165275 87.6901395,66.4769608 87.3849672,66.22266 L74.1471672,55.15964 C73.7616901,54.8376287 73.5387651,54.3612532 73.5387651,53.8589745 C73.5387651,53.3566959 73.7613214,52.8802365 74.1466772,52.55808 L87.3849672,41.49508 C87.8903463,41.0733658 88.5940835,40.9821348 89.1902896,41.2610418 C89.7864957,41.5399488 90.1674936,42.1386221 90.1676772,42.79684 L90.1676772,47.49564 L104.471877,47.49564 L104.471877,59.9292 L90.1676772,59.9292 L90.1676772,64.9209 C90.1661836,65.5792764 89.7848337,66.1776492 89.1886772,66.45704 C88.9645563,66.5628595 88.7197236,66.6175609 88.4718772,66.6171919 L88.4718772,66.6171919 Z M75.7091772,53.85889 L88.1676772,64.27051 L88.1676772,57.9292 L102.471877,57.9292 L102.471877,49.49564 L88.1676772,49.49564 L88.1676772,43.44776 L75.7091772,53.85889 Z" id="Shape" fill="#343852"></path>
        <rect id="Rectangle" fill="#1D71B8" x="53.5498172" y="92.87897" width="22.57558" height="8.48706" rx="2.08749"></rect>
        <path d="M75.3644872,64.05175 C74.1139,63.3934531 72.6210737,63.3854349 71.3634872,64.03026 C70.5935248,63.4269583 69.6671731,63.056285 68.6935672,62.96191 C67.8815667,62.8647298 67.0583635,62.9871471 66.3097772,63.3164 C65.7511022,62.8305084 65.0879287,62.4799572 64.3717772,62.29198 C63.5998178,62.0758705 62.7836538,62.0735097 62.0104572,62.28515 L62.0104572,49.49999 C62.0070244,47.3637992 60.2743357,45.6338928 58.1381422,45.6338928 C56.0019487,45.6338928 54.2692601,47.3637992 54.2658272,49.49999 L54.2658272,69.55764 C51.5500072,64.59279 50.0841872,63.19924 47.7711972,63.19924 C46.8667735,63.1386725 45.9794915,63.4669779 45.3323174,64.1016561 C44.6851432,64.7363343 44.3396028,65.6170474 44.3825272,66.52248 C44.3825272,67.46779 44.9777372,68.56248 45.8869172,70.2344 C47.0798657,72.3027956 48.0648255,74.48436 48.8273472,76.74709 C48.8737372,76.8926 48.9337972,77.09768 49.0084972,77.35354 C49.8224972,80.13186 51.9840872,87.51369 56.4621172,91.22072 L56.4621172,92.87899 L55.6371172,92.87899 C54.4856731,92.8824113 53.553101,93.8150058 53.5497072,94.96645 L53.5497072,99.27852 C53.5530899,100.42998 54.4856573,101.362601 55.6371172,101.36605 L74.0378272,101.36605 C75.1893695,101.362706 76.1220666,100.430062 76.1254772,99.27852 L76.1254772,94.96642 C76.1210898,93.836306 75.2195539,92.9141765 74.0898272,92.88427 L74.0910472,92.8789 L74.0910472,92.03417 C74.0930922,91.2940763 74.2455981,90.562126 74.5392972,89.8828 L76.7565772,84.67964 C77.1701169,83.7207742 77.3840996,82.6877498 77.38581,81.64351 L77.38581,67.62011 C77.4039181,66.1534125 76.6318498,64.790217 75.3644872,64.05175 Z M74.1254372,94.96642 L74.1254372,99.27849 C74.1219407,99.3253523 74.0846543,99.3625877 74.0377872,99.36602 L55.6371972,99.36602 C55.5904181,99.3624869 55.5532562,99.3252739 55.5497872,99.27849 L55.5497872,94.96642 C55.5532644,94.919652 55.5904312,94.8824639 55.6371972,94.87896 L74.0378272,94.87896 C74.0846655,94.8823819 74.121935,94.9195876 74.1254372,94.96642 L74.1254372,94.96642 Z M75.1315372,81.64355 C75.1294907,82.3836393 74.9769883,83.1155854 74.6832972,83.79491 L72.4660072,88.99901 C72.0522869,89.9574777 71.8382968,90.9902239 71.8371072,92.03417 L71.8371072,92.87896 L58.7160472,92.87896 L58.7160472,91.22069 C58.718223,90.5583826 58.4236928,89.9299049 57.9133172,89.5078 C53.9528672,86.21874 51.8596072,79.06933 51.1716172,76.71972 C51.0910472,76.44433 51.0261072,76.22167 50.9763072,76.06737 C50.1677705,73.6628059 49.1238071,71.3439423 47.8596072,69.14452 C47.3455134,68.3241741 46.9346817,67.4434875 46.6364372,66.52245 C46.6364372,65.80273 47.0075372,65.45312 47.7712072,65.45312 C49.1935672,65.45312 50.3908372,66.80858 54.2658372,74.41601 L54.2658372,75.30764 C54.2658372,75.9300373 54.7703899,76.43459 55.3927872,76.43459 C56.0151845,76.43459 56.5197372,75.9300373 56.5197372,75.30764 L56.5197372,49.49999 C56.5197372,48.6061668 57.244324,47.88158 58.1381472,47.88158 C59.0319704,47.88158 59.7565572,48.6061668 59.7565572,49.49999 L59.7565572,64.32616 C59.7568869,64.8042493 60.0587068,65.2301504 60.5096737,65.3888901 C60.9606407,65.5476299 61.4626917,65.4046903 61.7624172,65.03222 C62.1950573,64.4903374 62.9046818,64.2516318 63.5768672,64.42187 C64.0696551,64.500612 64.5290868,64.7204046 64.8996272,65.05468 C64.9672267,65.4732194 65.2639832,65.8184165 65.6676392,65.9480573 C66.0712952,66.0776981 66.5135551,65.9698484 66.8122172,65.66894 C67.2657114,65.278173 67.8688213,65.1079996 68.4596872,65.20409 C69.1220447,65.2424191 69.7421272,65.5420089 70.1838072,66.03709 C70.512931,66.55172 71.1937337,66.7076942 71.7140772,66.38768 C72.4341722,65.8168724 73.404622,65.6749375 74.2580272,66.01561 C74.8126039,66.3581908 75.1448073,66.9683782 75.1315572,67.6201 L75.1315372,81.64355 Z" id="Shape" fill="#343852"></path>
        <rect id="Rectangle" fill="#1D71B8" transform="translate(20.371658, 78.768294) rotate(51.278860) translate(-20.371658, -78.768294) " x="9.08386831" y="74.5247642" width="22.57558" height="8.48706" rx="2.08749"></rect>
        <path d="M39.4391972,58.83642 C39.4391972,49.28466 39.4313872,44.74169 35.9465172,44.30077 C37.0075172,42.37157 37.9152672,40.67431 38.6481772,39.25146 C41.1916372,34.26757 41.4045272,33.20846 41.4045272,32.60692 C41.5207155,31.4945778 41.128838,30.3891879 40.3379656,29.5984125 C39.5470931,28.8076371 38.4416552,28.4158952 37.3293272,28.53222 C36.7336272,28.53222 35.3386072,28.53222 28.7829472,38.11278 C27.7248372,39.66064 22.4445672,47.47558 22.4445672,49.31298 L22.4445672,66.47464 L18.5727372,69.74084 L17.9272272,68.93572 C17.2044564,68.0392603 15.8933052,67.8949913 14.9929072,68.61285 L11.6286472,71.31017 C10.732421,72.0331082 10.588123,73.3440535 11.3056472,74.24462 L22.8159072,88.60082 C23.5387743,89.4972791 24.8499807,89.6415215 25.7504372,88.92364 L29.1146872,86.22631 C30.0109826,85.5033801 30.1551863,84.1923175 29.4374472,83.29186 L28.8976472,82.61858 L31.0089772,80.80468 C32.77067,80.3514682 34.4483534,79.6188735 35.9782172,78.63476 C39.3737398,76.6031368 41.4386205,72.9245139 41.4044872,68.96776 C41.4044872,68.08105 41.3746972,67.27733 41.3136672,66.51076 C41.2331392,63.8496094 40.5945284,61.2350481 39.4391972,58.83642 Z M27.8637572,84.66595 L24.4992572,87.36327 C24.4847757,87.375096 24.4664081,87.3811033 24.4477372,87.3802342 C24.4205611,87.3815017 24.3942635,87.3702877 24.3764472,87.34972 L12.8661972,72.99352 C12.8396635,72.9548626 12.8453719,72.9026157 12.8796272,72.8706 L16.2438872,70.17327 C16.2584682,70.1614564 16.2768939,70.1554356 16.2956372,70.156254 C16.3228165,70.155031 16.3490999,70.1662611 16.3669272,70.18682 L27.8771872,84.54296 C27.9020715,84.5820415 27.8964896,84.63316 27.8637572,84.66595 L27.8637572,84.66595 Z M34.7931972,76.71679 C33.3918251,77.6205057 31.8482675,78.2817691 30.2272772,78.67284 C30.0161889,78.7142438 29.8219352,78.8168044 29.6686872,78.96776 L27.4880272,80.86034 L19.9836272,71.50054 L24.2927072,67.86816 C24.5505226,67.6544959 24.6993473,67.3367838 24.6984672,67.00194 L24.6955472,49.37011 C24.9103872,47.61523 35.3005472,31.95458 37.4699572,30.78811 C38.7092172,30.8218 39.1506172,31.30276 39.1506172,32.59572 C39.1481772,32.67385 39.0539372,33.49758 36.6423172,38.22317 C35.7990572,39.85988 34.7507172,41.81203 33.5236672,44.02883 C33.3791372,44.30083 33.2346072,44.55959 33.0964172,44.80715 L32.8884172,45.18115 C31.8514661,46.3063234 31.2798243,47.7828913 31.2888072,49.31299 L31.2888072,61.10644 C31.2849907,61.5115899 31.4989475,61.8876077 31.8491954,62.0912924 C32.1994433,62.2949771 32.6320712,62.2949771 32.982319,62.0912924 C33.3325669,61.8876077 33.5465237,61.5115899 33.5427072,61.10644 L33.5427072,49.31298 C33.5288493,48.371222 33.8718065,47.4590914 34.5027072,46.75976 C34.5541356,46.722027 34.6081445,46.6879435 34.6643372,46.65776 C34.8832648,46.5557661 35.1225556,46.505001 35.3640372,46.50932 C37.1155072,46.50932 37.1853272,50.1558 37.1853272,59.14067 C37.1864918,59.3599071 37.2503658,59.574233 37.3694072,59.75834 C37.4250772,59.84574 38.7346472,61.95121 39.0661872,66.67875 C39.1228272,67.39164 39.1506572,68.14067 39.1506572,68.96781 C39.1901971,72.1446377 37.5282198,75.1001734 34.7931972,76.71679 L34.7931972,76.71679 Z" id="Shape" fill="#343852"></path>
    </g>
</svg>