<?xml version="1.0" encoding="UTF-8"?>
<svg width="120px" height="120px" viewBox="0 0 120 120" version="1.1" xmlns="http://www.w3.org/2000/svg" xmlns:xlink="http://www.w3.org/1999/xlink">
    <title>02.Icons/Illustrative/01. Profils/Sage-femme</title>
    <g id="02.Icons/Illustrative/01.-Profils/Sage-femme" stroke="none" stroke-width="1" fill="none" fill-rule="evenodd">
        <path d="M59.638,88.2154 L59.64,88.2154 C80.428,88.2154 97.279,71.6364 97.279,51.1854 L97.279,9.3934 L97.279,7.9994 C94.336,11.2234 88.427,13.9684 76.432,14.1544 L59.638,14.1544 C38.851,14.1544 22,30.7324 22,51.1854 C22,71.6364 38.851,88.2154 59.638,88.2154" id="Fill-1" fill="#F2F3F7"></path>
        <path d="M94.8702,84.9586 L93.7242,75.8876 C93.7242,68.2566 84.9022,63.2916 79.5282,61.6476 L79.4722,61.5236 L74.6092,60.5456 C72.7102,59.7106 70.0072,57.7006 68.7872,53.6216 C68.3912,52.2616 68.1442,50.6796 68.1442,48.8476 C71.6332,46.2486 73.9332,41.5996 73.9332,36.3046 C73.9332,33.9296 73.4622,31.7046 72.6472,29.7236 C66.3132,29.6986 61.5632,25.4176 56.6152,21.4606 C56.1712,25.8626 52.6582,31.9986 49.2682,34.8206 C49.2182,35.2896 49.1932,35.8086 49.1932,36.3046 C49.1932,41.5996 51.4932,46.2486 54.9822,48.8476 C54.9822,50.6796 54.7362,52.2616 54.3392,53.6216 C53.1182,57.7036 50.4122,59.7136 48.5132,60.5476 L44.0352,61.4476 L43.9982,61.5296 C38.6762,63.0426 30.5142,72.7736 29.4022,75.8876 C28.2902,79.0006 25.6442,86.4126 25.6442,86.4126 L28.6592,99.2796 L36.8242,107.0896 L50.2202,110.6376 L60.6352,110.6376 L60.8812,105.7276 L45.9772,102.4956 L36.8242,94.1906 L35.2592,89.2156 L35.0952,85.7456 L37.8522,78.5136 L45.9772,75.6406 C45.2172,73.3386 52.6372,80.2576 52.1122,77.8786 C52.4042,77.8876 52.6892,77.9136 52.9822,77.9176 C52.4682,75.2116 52.0712,72.5956 51.7802,70.2246 C54.4212,72.4976 57.8502,73.8576 61.5632,73.8576 C65.4912,73.8576 69.0922,72.3266 71.7882,69.8106 C71.4942,72.3066 71.0752,75.1016 70.5252,77.9936 C69.9032,81.1686 70.3382,81.8476 69.3112,84.9586 L77.0912,84.9586 L77.0912,84.9586 L94.8702,84.9586 Z" id="Fill-4" fill="#FFFFFF"></path>
        <path d="M71.7977,69.8212 C69.1017,72.3372 65.4907,73.8572 61.5637,73.8572 C57.8507,73.8572 54.4207,72.4992 51.7797,70.2252 C49.1237,67.9392 54.8497,84.9582 54.8497,84.9582 L61.5637,84.9582 L61.5637,84.9582 L69.3117,84.9582 C69.3117,84.9582 74.2117,67.5682 71.7977,69.8212" id="Fill-6" fill="#1D71B8"></path>
        <path d="M48.3835,15.7938 C45.5445,17.7938 41.7715,22.1468 41.7715,31.1578 C41.7715,45.5818 36.8235,51.1478 36.8235,51.1478 C36.8235,51.1478 38.2585,53.6218 44.2455,53.6218 L54.3395,53.6218 C54.7355,52.2618 54.9825,50.6788 54.9825,48.8478 C51.4935,46.2478 49.1935,41.5998 49.1935,36.3038 C49.1935,35.8088 49.2175,35.2898 49.2685,34.8208 C52.6575,31.9988 56.1705,25.8628 56.6155,21.4608 C61.5635,25.4178 66.3125,29.6988 72.6475,29.7228 C73.4615,31.7038 73.9325,33.9288 73.9325,36.3038 C73.9325,41.5998 71.6325,46.2478 68.1445,48.8478 C68.1445,50.6788 68.3905,52.2618 68.7865,53.6218 L78.8805,53.6218 C83.6305,53.6218 86.1045,51.1478 86.1045,51.1478 C86.1045,51.1478 81.3545,46.8188 81.3545,38.7778 C81.3545,33.5018 82.3105,24.1168 77.1845,18.3878 C72.0585,12.6578 63.6145,13.4118 63.6145,13.4118 L53.8145,13.4118 L48.3835,15.7938 Z" id="Fill-8" fill="#C5C8DA"></path>
        <path d="M60.2847,110.7844 C60.2847,110.7844 77.2957,109.1144 77.5787,105.4384 C77.8617,101.7634 71.6757,104.6144 66.7347,104.3114 C61.7937,104.0084 60.6747,104.2414 60.5367,105.7734 L60.2847,110.7844 Z" id="Fill-10" fill="#FFFFFF"></path>
        <path d="M35.9356,51.6625 C35.7136,51.2795 35.7626,50.7965 36.0566,50.4655 C36.1006,50.4155 40.7456,44.9285 40.7456,31.1585 C40.7456,22.5445 44.1296,17.9415 47.0516,15.5655 C50.6666,12.9455 54.4426,11.8545 58.2616,12.3065 C58.9146,12.3065 67.0576,10.2205 72.6616,13.2845 C77.1596,15.7435 79.6856,19.9455 80.9536,22.5335 C83.4006,27.5275 82.4866,33.7015 82.4196,36.4805 C82.3986,37.3295 82.3806,38.1025 82.3806,38.7785 C82.3806,46.2315 86.7536,50.3495 86.7976,50.3905 C87.0026,50.5805 87.1236,50.8465 87.1297676,51.1255 C87.1346,51.4055 87.0276,51.6755 86.8296,51.8735 C86.7166,51.9865 83.9966,54.6485 78.8806,54.6485 C78.3136,54.6485 77.8536,54.1885 77.8536,53.6225 C77.8536,53.0555 78.3136,52.5955 78.8806,52.5955 C81.6866,52.5955 83.5986,51.6675 84.5886,51.0255 C83.1446,49.3155 80.3276,45.1605 80.3276,38.7785 C80.3276,38.0875 80.3466,37.2985 80.3676,36.4315 C80.4916,31.2505 82.0816,26.8485 76.5736,19.2435 C69.4156,10.2885 58.8846,14.6795 58.5506,14.4505 C56.8426,13.9915 50.2756,14.4985 47.7956,17.5535 C45.3996,19.7185 42.7986,23.7665 42.7986,31.1585 C42.7986,43.0235 39.5206,49.0735 38.1626,51.0705 C38.8976,51.6495 40.6486,52.5955 44.2456,52.5955 C44.8126,52.5955 45.2726,53.0555 45.2726,53.6225 C45.2726,54.1885 44.8126,54.6485 44.2456,54.6485 C37.8526,54.6485 36.1126,51.9685 35.9356,51.6625 L35.9356,51.6625 Z M70.8196,69.2755 C68.3306,71.4905 65.0706,72.8305 61.5636,72.8305 C58.2536,72.8305 55.1706,71.6295 52.7416,69.6355 C52.7276,69.5115 52.7086,69.3815 52.6946,69.2575 C52.0556,63.9345 51.9246,60.0725 51.9236,60.0345 C51.9226,60.0055 51.9076,59.9815 51.9046,59.9525 C51.9016,59.9255 51.9076,59.8995 51.9046,59.8725 C53.2686,58.7115 54.4256,56.9145 55.3246,53.9095 C55.6206,52.8935 55.8116,51.8095 55.9156,50.6815 C57.6736,51.6595 59.5956,52.1745 61.5636,52.1745 C63.5326,52.1745 65.4566,51.6585 67.2106,50.6815 C67.3146,51.8115 67.5066,52.8965 67.8036,53.9165 C68.7786,57.1755 70.0576,59.0155 71.5826,60.1615 C71.5656,60.6255 71.4146,64.3055 70.8196,69.2755 L70.8196,69.2755 Z M50.2206,36.3045 C50.2206,35.9565 50.2366,35.6195 50.2606,35.2965 C53.3916,32.5135 56.3246,27.4955 57.3246,23.3495 C61.6616,26.8515 66.1566,30.4155 71.9126,30.7195 C72.5606,32.4945 72.9056,34.3665 72.9056,36.3045 C72.9056,41.1355 70.8966,45.5165 67.5206,48.0325 C63.9476,50.7655 59.1886,50.7725 55.5946,48.0255 C52.2296,45.5165 50.2206,41.1355 50.2206,36.3045 L50.2206,36.3045 Z M61.4076,105.8525 C61.4476,105.4175 61.4776,105.0735 63.7676,105.0735 C64.4906,105.0735 65.4376,105.1085 66.6806,105.1845 C68.4906,105.3035 70.4296,105.0085 72.1426,104.7555 C73.9646,104.4875 76.0256,104.1835 76.5606,104.6815 C76.6836,104.7955 76.7326,105.0285 76.7066,105.3715 C76.6006,106.7425 70.3956,108.8055 61.2096,109.8085 L61.4076,105.8525 Z M94.7106,75.0415 C93.2476,67.4575 86.0116,63.0735 80.3996,61.0915 C80.2616,60.7965 79.9946,60.5815 79.6746,60.5175 L74.7256,59.5215 C72.5486,58.7785 71.0056,57.4545 69.7726,53.3345 C69.4126,52.0985 69.2216,50.7415 69.1856,49.3055 C72.8006,46.3695 74.9596,41.5685 74.9596,36.3045 C74.9596,33.8775 74.5006,31.5315 73.5966,29.3325 C73.5966,29.3315 73.5956,29.3315 73.5956,29.3305 C73.5436,29.2045 73.4666,29.0915 73.3716,28.9965 C73.3516,28.9765 73.3236,28.9675 73.3026,28.9495 C73.1246,28.7985 72.9026,28.6975 72.6516,28.6965 C67.1866,28.6755 62.9436,25.2485 58.4516,21.6205 L57.2566,20.6585 C56.9616,20.4245 56.5636,20.3685 56.2176,20.5135 C55.8716,20.6595 55.6316,20.9835 55.5936,21.3565 C55.1906,25.3475 51.9286,31.2715 48.5736,34.0655 L48.5466,34.0895 C48.4916,34.1405 48.4606,34.2055 48.4196,34.2645 C48.4026,34.2905 48.3806,34.3105 48.3656,34.3385 C48.2726,34.5025 48.2286,34.6805 48.2356,34.8645 C48.1926,35.3155 48.1666,35.8065 48.1666,36.3045 C48.1666,41.5725 50.3286,46.3785 53.9406,49.3065 C53.9046,50.7415 53.7136,52.0975 53.3556,53.3275 C52.1206,57.4565 50.5756,58.7805 48.4136,59.5195 C48.4136,59.5195 24.4016,64.1105 24.4016,88.8565 C24.4016,112.4035 56.2686,111.8555 59.3596,111.7465 L59.3596,111.7535 L59.4686,111.7435 C59.5616,111.7395 59.6236,111.7365 59.6236,111.7365 L59.6236,111.7275 L60.3706,111.6555 C64.5326,111.2455 78.1366,109.5955 78.4506,105.5065 C78.5196,104.6055 78.2856,103.8975 77.7546,103.4015 C76.6046,102.3285 74.5216,102.6345 71.8876,103.0255 C70.2596,103.2645 68.4166,103.5395 66.7886,103.4385 C62.2636,103.1575 59.8966,103.1355 59.6626,105.7295 L59.4606,109.7515 C56.1016,109.9085 26.1676,110.6905 26.1676,88.5135 C26.1676,65.0195 49.9296,61.3095 49.9296,61.3095 C50.0156,62.8785 50.2176,65.8515 50.6566,69.4975 C50.9726,72.2615 51.4286,75.2405 51.9756,78.1155 C52.6116,81.3655 52.8556,82.1015 53.8796,85.2045 C54.0226,85.6365 54.4246,85.9095 54.8546,85.9095 C54.9616,85.9095 55.0706,85.8925 55.1766,85.8575 C55.7146,85.6795 56.0076,85.0985 55.8296,84.5605 C54.8126,81.4835 54.6016,80.8445 53.9916,77.7255 C53.6586,75.9745 53.3646,74.1865 53.1106,72.4285 C55.5856,73.9825 58.4906,74.8845 61.5636,74.8845 C64.8186,74.8845 67.8826,73.8705 70.4486,72.1415 C70.1846,74.0135 68.6236,82.4855 68.2686,84.3555 L70.0486,84.9645 C70.3266,83.2315 72.6626,71.2235 72.8506,69.5785 C73.2906,65.9295 73.4926,62.9555 73.5796,61.3855 L78.7536,62.4265 L82.3606,70.2245 L78.9896,72.5245 L78.0136,71.8575 C77.5456,71.5365 76.9066,71.6585 76.5866,72.1255 C76.2666,72.5945 76.3876,73.2325 76.8546,73.5525 L80.7756,76.2295 C80.5526,76.6675 80.2836,77.1975 79.9896,77.7775 C78.8646,79.9965 77.3256,83.0355 76.4726,84.4205 C76.1756,84.9025 76.3246,85.5345 76.8086,85.8325 C76.9756,85.9355 77.1616,85.9855 77.3456,85.9855 C77.6906,85.9855 78.0256,85.8125 78.2206,85.4965 C79.1186,84.0395 80.6796,80.9575 81.8206,78.7055 C82.1806,77.9965 82.5006,77.3645 82.7486,76.8835 C82.9276,76.5395 83.0246,76.3395 83.0246,76.3395 C83.2476,75.8815 83.1006,75.3295 82.6796,75.0425 L80.8116,73.7675 L84.2356,71.4305 C84.6506,71.1475 84.8006,70.6065 84.5896,70.1505 L81.6356,63.7685 C86.3616,65.8105 91.5606,69.5505 92.6956,75.4395 C92.8146,76.0425 93.8426,81.4415 93.8426,84.9585 C93.8426,85.5255 94.3026,85.9855 94.8696,85.9855 C95.4366,85.9855 95.8966,85.5255 95.8966,84.9585 C95.8966,81.2495 94.8326,75.6715 94.7106,75.0415 L94.7106,75.0415 Z" id="Fill-12" fill="#343852"></path>
        <path d="M72.8051,86.864 C65.3821,83.424 55.3551,82.557 55.3551,82.557 C55.3551,82.557 39.8011,78.465 36.5431,80.701 C34.8961,82.979 33.2441,92.214 40.1491,98.511 C43.0091,101.119 50.6301,103.831 58.7081,104.551 C70.1321,105.569 82.4701,103.682 83.5501,101.237 C85.3941,97.063 80.2281,90.304 72.8051,86.864" id="Fill-14" fill="#D20050"></path>
        <path d="M37.1633,81.3455 C35.7713,83.5345 34.3323,92.0235 40.7383,97.8645 C43.2173,100.1245 50.3853,102.9305 58.7863,103.6795 C71.1983,104.7815 82.0513,102.4655 82.7493,100.8835 C84.3703,97.2145 79.4553,90.9105 72.4363,87.6575 C65.2363,84.3215 55.3793,83.4375 55.2803,83.4295 L55.1333,83.4045 C49.3753,81.8885 39.5353,80.0305 37.1633,81.3455 M65.3923,105.7215 C63.2093,105.7215 60.9383,105.6275 58.6303,105.4215 C50.7953,104.7245 42.7743,102.0895 39.5593,99.1575 C32.2793,92.5185 33.9653,82.7725 35.8343,80.1885 L35.9233,80.0655 L36.0483,79.9795 C39.4883,77.6165 53.5663,81.1865 55.5073,81.6925 C56.5203,81.7845 65.9533,82.7245 73.1733,86.0705 C81.1463,89.7665 86.3703,97.0185 84.3513,101.5905 C83.3843,103.7785 75.3213,105.7215 65.3923,105.7215" id="Fill-16" fill="#343852"></path>
        <path d="M55.4105,87.7016 C53.8095,92.0156 48.2885,93.9456 43.0785,92.0116 C37.8685,90.0786 34.9425,85.0146 36.5435,80.7016 C38.1445,76.3876 43.6655,74.4576 48.8755,76.3906 C52.7825,77.8406 55.4055,81.0516 55.7975,84.3866 C55.9275,85.4976 55.8105,86.6236 55.4105,87.7016" id="Fill-18" fill="#FFFFFF"></path>
        <path d="M44.7688,76.5154 C41.3858,76.5154 38.4108,78.1834 37.3638,81.0054 C35.9338,84.8594 38.6338,89.4294 43.3838,91.1924 C48.1318,92.9534 53.1608,91.2514 54.5898,87.3974 C54.9328,86.4734 55.0458,85.4944 54.9278,84.4894 C54.5608,81.3654 52.0658,78.5074 48.5708,77.2104 C47.2978,76.7394 46.0058,76.5154 44.7688,76.5154 M47.1668,93.6334 C45.7308,93.6334 44.2408,93.3764 42.7748,92.8324 C37.1208,90.7344 33.9568,85.1554 35.7228,80.3964 C37.4888,75.6384 43.5248,73.4734 49.1798,75.5704 C53.2848,77.0934 56.2238,80.5144 56.6658,84.2854 C56.8178,85.5684 56.6708,86.8204 56.2308,88.0064 C54.9228,91.5314 51.2708,93.6334 47.1668,93.6334" id="Fill-20" fill="#343852"></path>
    </g>
</svg>