<?xml version="1.0" encoding="UTF-8"?>
<svg width="120px" height="120px" viewBox="0 0 120 120" version="1.1" xmlns="http://www.w3.org/2000/svg" xmlns:xlink="http://www.w3.org/1999/xlink">
    <title>02.Icons/Illustrative/Téléchargement attestations</title>
    <g id="02.Icons/Illustrative/Téléchargement-attestations" stroke="none" stroke-width="1" fill="none" fill-rule="evenodd">
        <path d="M49.3198,94.269 L49.3178,94.269 C29.8118,94.269 13.9998,78.713 13.9998,59.522 L13.9998,20.308 L13.9998,19 C16.7618,22.025 22.3058,24.6 33.5608,24.775 L49.3198,24.775 C68.8258,24.775 84.6378,40.331 84.6378,59.522 C84.6378,78.713 68.8258,94.269 49.3198,94.269" id="Fill-1" fill="#F2F3F7"></path>
        <polygon id="Fill-4" fill="#FFFFFF" points="31.8702 35.6797 45.5502 35.6797 45.5502 21.9997 86.5902 21.9997 86.5902 64.2837 86.5902 89.1557 86.5902 96.6177 31.8702 96.6177 31.8702 40.6547"></polygon>
        <polygon id="Fill-6" fill="#1D71B8" points="45.5502 21.9997 45.5502 35.6797 31.8702 35.6797"></polygon>
        <path d="M57.7295,90.7091 C58.3175,90.5141 58.8735,90.3301 59.2305,90.3301 C59.7545,90.3301 60.1805,89.9041 60.1805,89.3801 C60.1805,88.8551 59.7545,88.4301 59.2305,88.4301 C58.5665,88.4301 57.8695,88.6611 57.1305,88.9051 C56.3255,89.1731 55.4915,89.4491 54.6665,89.4491 C54.3545,89.4491 54.1935,89.2171 53.8825,88.3201 C53.6695,87.7051 53.3485,86.7751 52.3905,86.7751 C51.7385,86.7751 51.1495,87.2731 50.2585,88.0251 C49.8085,88.4051 48.9605,89.1221 48.4305,89.3651 C48.3705,89.0861 48.3215,88.6721 48.2865,88.3671 C48.1155,86.9111 47.8285,84.4751 45.5495,84.4751 C43.8005,84.4751 42.5675,86.0571 41.4785,87.4521 C40.7845,88.3421 39.9195,89.4491 39.3325,89.4491 C38.8075,89.4491 38.3815,89.8751 38.3815,90.3991 C38.3815,90.9241 38.8075,91.3501 39.3325,91.3501 C40.8475,91.3501 41.9295,89.9621 42.9765,88.6211 C43.7975,87.5681 44.7285,86.3751 45.5495,86.3751 C46.0505,86.3751 46.2225,87.0891 46.3985,88.5891 C46.5355,89.7541 46.7225,91.3501 48.1365,91.3501 C49.2675,91.3501 50.4455,90.3551 51.4845,89.4781 C51.6735,89.3171 51.8975,89.1281 52.0975,88.9701 C52.3905,89.8171 52.9405,91.3501 54.6665,91.3501 C55.7975,91.3501 56.8235,91.0091 57.7295,90.7091 L57.7295,90.7091 Z M55.2065,54.3341 C55.2065,53.8091 54.7805,53.3841 54.2555,53.3841 L39.3325,53.3841 C38.8075,53.3841 38.3815,53.8091 38.3815,54.3341 C38.3815,54.8591 38.8075,55.2841 39.3325,55.2841 L54.2555,55.2841 C54.7805,55.2841 55.2065,54.8591 55.2065,54.3341 L55.2065,54.3341 Z M60.1805,65.8201 L70.7165,65.8201 L70.7165,61.5031 L60.1805,61.5031 L60.1805,65.8201 Z M72.6175,66.7711 L72.6175,60.5531 C72.6175,60.0281 72.1915,59.6031 71.6675,59.6031 L59.2305,59.6031 C58.7065,59.6031 58.2805,60.0281 58.2805,60.5531 L58.2805,66.7711 C58.2805,67.2951 58.7065,67.7211 59.2305,67.7211 L71.6675,67.7211 C72.1915,67.7211 72.6175,67.2951 72.6175,66.7711 L72.6175,66.7711 Z M40.2825,78.2561 L65.7425,78.2561 L65.7425,73.9381 L40.2825,73.9381 L40.2825,78.2561 Z M67.6425,79.2071 L67.6425,72.9881 C67.6425,72.4641 67.2165,72.0381 66.6925,72.0381 L39.3325,72.0381 C38.8075,72.0381 38.3815,72.4641 38.3815,72.9881 L38.3815,79.2071 C38.3815,79.7311 38.8075,80.1571 39.3325,80.1571 L66.6925,80.1571 C67.2165,80.1571 67.6425,79.7311 67.6425,79.2071 L67.6425,79.2071 Z M40.2825,65.8201 L53.3055,65.8201 L53.3055,61.5031 L40.2825,61.5031 L40.2825,65.8201 Z M55.2065,66.7711 L55.2065,60.5531 C55.2065,60.0281 54.7805,59.6031 54.2555,59.6031 L39.3325,59.6031 C38.8075,59.6031 38.3815,60.0281 38.3815,60.5531 L38.3815,66.7711 C38.3815,67.2951 38.8075,67.7211 39.3325,67.7211 L54.2555,67.7211 C54.7805,67.7211 55.2065,67.2951 55.2065,66.7711 L55.2065,66.7711 Z M40.2825,47.1651 L78.1785,47.1651 L78.1785,42.8481 L40.2825,42.8481 L40.2825,47.1651 Z M80.0795,48.1161 L80.0795,41.8981 C80.0795,41.3731 79.6535,40.9481 79.1285,40.9481 L39.3325,40.9481 C38.8075,40.9481 38.3815,41.3731 38.3815,41.8981 L38.3815,48.1161 C38.3815,48.6411 38.8075,49.0661 39.3325,49.0661 L79.1285,49.0661 C79.6535,49.0661 80.0795,48.6411 80.0795,48.1161 L80.0795,48.1161 Z M77.8845,34.1431 L53.0115,34.1431 C52.4875,34.1431 52.0615,33.7171 52.0615,33.1921 C52.0615,32.6671 52.4875,32.2421 53.0115,32.2421 L77.8845,32.2421 C78.4095,32.2421 78.8345,32.6671 78.8345,33.1921 C78.8345,33.7171 78.4095,34.1431 77.8845,34.1431 L77.8845,34.1431 Z" id="Fill-8" fill="#969CBB"></path>
        <path d="M100.7299,73.1395 C100.7299,80.6625 94.6309,86.7615 87.1079,86.7615 C79.5839,86.7615 73.4849,80.6625 73.4849,73.1395 C73.4849,65.6165 79.5839,59.5175 87.1079,59.5175 C94.6309,59.5175 100.7299,65.6165 100.7299,73.1395" id="Fill-10" fill="#D20050"></path>
        <path d="M87.2307,60.6648 C80.3777,60.6648 74.8037,66.2388 74.8037,73.0918 C74.8037,79.9438 80.3777,85.5188 87.2307,85.5188 C94.0827,85.5188 99.6567,79.9438 99.6567,73.0918 C99.6567,66.2388 94.0827,60.6648 87.2307,60.6648 L87.2307,60.6648 Z M87.2307,87.4188 C79.3307,87.4188 72.9037,80.9918 72.9037,73.0918 C72.9037,65.1908 79.3307,58.7648 87.2307,58.7648 C95.1297,58.7648 101.5567,65.1908 101.5567,73.0918 C101.5567,80.9918 95.1297,87.4188 87.2307,87.4188 L87.2307,87.4188 Z M44.5997,24.2928 L34.1627,34.7298 L44.5997,34.7298 L44.5997,24.2928 Z M87.5397,21.9998 L87.5397,54.3338 C87.5397,54.8588 87.1147,55.2848 86.5897,55.2848 C86.0657,55.2848 85.6397,54.8588 85.6397,54.3338 L85.6397,22.9498 L46.4997,22.9498 L46.4997,35.6798 C46.4997,36.2048 46.0737,36.6298 45.5497,36.6298 L31.8697,36.6298 C31.4867,36.6298 31.1397,36.3988 30.9917,36.0438 C30.8457,35.6888 30.9267,35.2798 31.1987,35.0078 L44.8777,21.3278 C44.9577,21.2478 45.0517,21.1898 45.1507,21.1438 C45.1797,21.1298 45.2107,21.1228 45.2417,21.1118 C45.3227,21.0838 45.4047,21.0668 45.4897,21.0618 C45.5107,21.0598 45.5287,21.0498 45.5497,21.0498 L86.5897,21.0498 C87.1147,21.0498 87.5397,21.4748 87.5397,21.9998 L87.5397,21.9998 Z M87.5397,91.7998 L87.5397,96.6188 C87.5397,97.1428 87.1147,97.5688 86.5897,97.5688 L31.8697,97.5688 C31.3457,97.5688 30.9197,97.1428 30.9197,96.6188 L30.9197,40.6548 C30.9197,40.1298 31.3457,39.7038 31.8697,39.7038 C32.3947,39.7038 32.8207,40.1298 32.8207,40.6548 L32.8207,95.6678 L85.6397,95.6678 L85.6397,91.7998 C85.6397,91.2758 86.0657,90.8498 86.5897,90.8498 C87.1147,90.8498 87.5397,91.2758 87.5397,91.7998 L87.5397,91.7998 Z" id="Fill-12" fill="#343852"></path>
        <path d="M86.4531,74.9621 C86.6391,75.1481 86.8821,75.2401 87.1251,75.2401 C87.3681,75.2401 87.6111,75.1481 87.7971,74.9621 L90.2461,72.5131 C90.6171,72.1421 90.6171,71.5401 90.2461,71.1691 C89.8751,70.7981 89.2731,70.7981 88.9021,71.1691 L88.0521,72.0201 L88.0521,66.5291 C88.0521,66.0051 87.6261,65.5791 87.1011,65.5791 C86.5771,65.5791 86.1511,66.0051 86.1511,66.5291 L86.1511,71.9731 L85.3251,71.1471 C84.9541,70.7751 84.3521,70.7751 83.9811,71.1471 C83.6101,71.5181 83.6101,72.1191 83.9811,72.4901 L86.4531,74.9621 Z M94.2161,75.7331 L94.2161,77.5941 C94.2161,78.8911 93.1611,79.9451 91.8641,79.9451 L82.6541,79.9451 C81.3571,79.9451 80.3031,78.8911 80.3031,77.5941 L80.3031,75.7331 C80.3031,75.2091 80.7281,74.7831 81.2531,74.7831 C81.7771,74.7831 82.2031,75.2091 82.2031,75.7331 L82.2031,77.5941 C82.2031,77.8391 82.4091,78.0451 82.6541,78.0451 L91.8641,78.0451 C92.1091,78.0451 92.3151,77.8391 92.3151,77.5941 L92.3151,75.7331 C92.3151,75.2091 92.7411,74.7831 93.2651,74.7831 C93.7901,74.7831 94.2161,75.2091 94.2161,75.7331 L94.2161,75.7331 Z" id="Fill-15" fill="#FFFFFF"></path>
    </g>
</svg>