<?xml version="1.0" encoding="UTF-8"?>
<svg width="120px" height="120px" viewBox="0 0 120 120" version="1.1" xmlns="http://www.w3.org/2000/svg" xmlns:xlink="http://www.w3.org/1999/xlink">
    <title>02.Icons/Illustrative/Voir nouvelles demandes</title>
    <g id="02.Icons/Illustrative/Voir-nouvelles-demandes" stroke="none" stroke-width="1" fill="none" fill-rule="evenodd">
        <path d="M77.8227848,46.4050633 C77.8227848,28.5079494 63.3148354,14 45.4177215,14 C27.5206076,14 13.0126582,28.5079494 13.0126582,46.4050633 C13.0126582,64.3021772 27.5206076,78.8101266 45.4177215,78.8101266 C63.3148354,78.8101266 77.8227848,64.3021772 77.8227848,46.4050633" id="Fill-1" fill="#F2F3F7"></path>
        <path d="M106.987342,20.4810127 L106.987342,46.4050633 C106.987342,48.1875443 105.529316,49.6455696 103.746835,49.6455696 L100.506329,49.6455696 L89.164557,60.9873418 L89.164557,49.6455696 L68.1012658,49.6455696 C66.3187848,49.6455696 64.8607595,48.1875443 64.8607595,46.4050633 L64.8607595,20.4810127 C64.8607595,18.6985316 66.3187848,17.2405063 68.1012658,17.2405063 L103.746835,17.2405063 C105.529316,17.2405063 106.987342,18.6985316 106.987342,20.4810127" id="Fill-3" fill="#FFFFFF"></path>
        <path d="M59.5949367,89.3417722 L67.2105316,74.1115949 C67.7444051,73.0260253 68.8789873,72.3291139 70.0941772,72.3291139 L102.43443,72.3291139 C102.709671,72.3291139 102.969114,72.4747342 103.114734,72.7183797 C103.276962,72.9612152 103.276962,73.2524557 103.163747,73.5118987 L91.6755443,96.4548861 C91.1250633,97.5562532 90.0070886,98.2531646 88.7752911,98.2531646 L55.1392405,98.2531646 L58.3797468,91.7721519 L59.5949367,89.3417722 Z" id="Fill-5" fill="#DEE0EA"></path>
        <path d="M51.8987342,82.0506329 L51.8987342,86.9113924 L51.8987342,91.7721519 L40.556962,91.7721519 C40.556962,89.0499241 38.3536203,86.9113924 35.6313924,86.9113924 L22.7341772,86.9113924 L22.7341772,82.0506329 L14.6329114,82.0506329 L13.0126582,82.0506329 L13.0126582,75.5696203 C13.0126582,68.4083038 18.8133671,62.6075949 25.9746835,62.6075949 L27.5949367,62.6075949 C28.9723544,66.4802025 32.8931646,69.0886076 37.3164557,69.0886076 C41.7397468,69.0886076 45.660557,66.4802025 47.0379747,62.6075949 C54.1992911,62.6075949 60,68.4083038 60,75.5696203 L60,82.0506329 L59.5949367,82.0506329 L56.9541266,82.0506329 L51.8987342,82.0506329 Z" id="Fill-7" fill="#1D71B8"></path>
        <polygon id="Fill-9" fill="#FFFFFF" points="59.5949367 82.0506329 59.5949367 89.3417722 58.3797468 91.7721519 58.3639494 91.7721519 52.4010127 91.7721519 51.8987342 91.7721519 51.8987342 86.9113924 51.8987342 82.0506329 56.9541266 82.0506329"></polygon>
        <path d="M58.3797468,91.7721519 L55.1392405,98.2531646 L34.0759494,98.2531646 C32.2934684,98.2531646 30.835443,96.7951392 30.835443,95.0126582 L30.835443,91.7721519 L40.556962,91.7721519 L51.8987342,91.7721519 L52.4010127,91.7721519 L58.3639494,91.7721519 L58.3797468,91.7721519 Z" id="Fill-11" fill="#DEE0EA"></path>
        <path d="M47.0379747,30.2025316 C47.0379747,30.2025316 50.278481,32.5030886 50.278481,36.6835443 C50.278481,40.864 46.9081519,43.3267848 46.9081519,43.3267848 C46.9081519,43.3267848 46.9081519,43.3101772 46.8923544,43.2777722 C46.6487089,42.7594937 44.6724051,38.7088608 40.556962,38.7088608 C36.1660759,38.7088608 34.0759494,43.164557 34.0759494,43.164557 C28.5022785,42.2572152 28.3244557,48.6408101 30.835443,49.6455696 C30.835443,49.6455696 27.5949367,49.6455696 27.5949367,41.5443038 C27.5949367,31.92 38.8068861,31.8227848 40.556962,31.8227848 C45.6123544,31.8227848 47.0379747,30.2025316 47.0379747,30.2025316" id="Fill-13" fill="#C5C8DA"></path>
        <path d="M47.0379747,44.7848101 L47.0379747,49.6455696 C47.0379747,54.1170633 43.4082025,57.7468354 38.9367089,57.7468354 C34.4652152,57.7468354 30.835443,54.1170633 30.835443,49.6455696 C28.3244557,48.6408101 28.5022785,42.2572152 34.0759494,43.164557 C34.0759494,43.164557 36.1660759,38.7088608 40.556962,38.7088608 C44.6724051,38.7088608 46.6487089,42.7594937 46.8923544,43.2777722 C46.9081519,43.3101772 46.9081519,43.3267848 46.9081519,43.3267848 C46.9897722,43.7966582 47.0379747,44.2825316 47.0379747,44.7848101" id="Fill-15" fill="#FFFFFF"></path>
        <path d="M40.556962,91.7721519 L30.835443,91.7721519 L30.835443,95.0126582 L24.3386329,95.0126582 L21.1139241,95.0126582 C17.5331646,95.0126582 14.6329114,92.1124051 14.6329114,88.5316456 L14.6329114,82.0506329 L22.7341772,82.0506329 L22.7341772,86.9113924 L35.6313924,86.9113924 C38.3536203,86.9113924 40.556962,89.0499241 40.556962,91.7721519" id="Fill-17" fill="#FFFFFF"></path>
        <path d="M56.7777823,97.2405063 L88.7753519,97.2405063 C89.6235544,97.2405063 90.3879089,96.7659747 90.7698835,96.0020253 L102.116314,73.3417722 L70.094238,73.3417722 C69.2579848,73.3417722 68.4826937,73.8193418 68.1191494,74.5585823 L56.7777823,97.2405063 Z M88.7753519,99.2658228 L55.1393013,99.2658228 C54.7883139,99.2658228 54.462238,99.0841519 54.2777316,98.7856203 C54.0934278,98.4870886 54.0766177,98.1142278 54.2333772,97.8003038 L66.3046684,73.6585316 C67.0036051,72.2381772 68.4922127,71.3164557 70.094238,71.3164557 L102.434289,71.3164557 C103.056668,71.3164557 103.6432,71.6457722 103.971099,72.1776203 C104.300213,72.6865823 104.345782,73.3346835 104.09201,73.916557 C104.084922,73.932962 104.077225,73.9493671 104.069124,73.9653671 L92.5811241,96.9083544 C91.8540354,98.3623291 90.3958076,99.2658228 88.7753519,99.2658228 L88.7753519,99.2658228 Z" id="Fill-19" fill="#343852"></path>
        <path d="M38.9367089,58.7594937 C33.9112911,58.7594937 29.8227848,54.6709873 29.8227848,49.6455696 C29.8227848,49.0863797 30.2762532,48.6329114 30.835443,48.6329114 C31.3946329,48.6329114 31.8481013,49.0863797 31.8481013,49.6455696 C31.8481013,53.5542278 35.0280506,56.7341772 38.9367089,56.7341772 C42.8453671,56.7341772 46.0253165,53.5542278 46.0253165,49.6455696 L46.0253165,44.7848101 C46.0253165,44.3657722 45.9876456,43.945519 45.910481,43.4997468 C45.8148861,42.9486582 46.1841013,42.4245063 46.7351899,42.3291139 C47.286481,42.2327089 47.8104304,42.6027342 47.9060253,43.1536203 C48.003443,43.715038 48.0506329,44.2485063 48.0506329,44.7848101 L48.0506329,49.6455696 C48.0506329,54.6709873 43.9621266,58.7594937 38.9367089,58.7594937" id="Fill-21" fill="#343852"></path>
        <path d="M30.835443,96.0253165 L21.1139241,96.0253165 C16.9818734,96.0253165 13.6202532,92.6636962 13.6202532,88.5316456 L13.6202532,82.0506329 C13.6202532,81.491443 14.0737215,81.0379747 14.6329114,81.0379747 C15.1921013,81.0379747 15.6455696,81.491443 15.6455696,82.0506329 L15.6455696,88.5316456 C15.6455696,91.5469367 18.0986329,94 21.1139241,94 L30.835443,94 C31.3946329,94 31.8481013,94.4534684 31.8481013,95.0126582 C31.8481013,95.5718481 31.3946329,96.0253165 30.835443,96.0253165" id="Fill-23" fill="#343852"></path>
        <path d="M40.556962,92.7848101 C39.9977722,92.7848101 39.5443038,92.3313418 39.5443038,91.7721519 C39.5443038,89.6143797 37.8256203,87.9240506 35.6313924,87.9240506 L22.7341772,87.9240506 C22.1749873,87.9240506 21.721519,87.4705823 21.721519,86.9113924 L21.721519,82.0506329 C21.721519,81.491443 22.1749873,81.0379747 22.7341772,81.0379747 C23.2933671,81.0379747 23.7468354,81.491443 23.7468354,82.0506329 L23.7468354,85.8987342 L35.6313924,85.8987342 C38.9057215,85.8987342 41.5696203,88.5334684 41.5696203,91.7721519 C41.5696203,92.3313418 41.1161519,92.7848101 40.556962,92.7848101" id="Fill-25" fill="#343852"></path>
        <path d="M56.9541063,83.0632911 L50.2784608,83.0632911 C49.7192709,83.0632911 49.2658025,82.6098228 49.2658025,82.0506329 L49.2658025,75.5696203 C49.2658025,75.0104304 49.7192709,74.556962 50.2784608,74.556962 C50.8376506,74.556962 51.291119,75.0104304 51.291119,75.5696203 L51.291119,81.0379747 L56.9541063,81.0379747 C57.5132962,81.0379747 57.9667646,81.491443 57.9667646,82.0506329 C57.9667646,82.6098228 57.5132962,83.0632911 56.9541063,83.0632911" id="Fill-27" fill="#343852"></path>
        <path d="M59.9541063,83.0632911 L53.2784608,83.0632911 C52.7192709,83.0632911 52.2658025,82.6098228 52.2658025,82.0506329 L52.2658025,75.5696203 C52.2658025,75.0104304 52.7192709,74.556962 53.2784608,74.556962 C53.8376506,74.556962 54.291119,75.0104304 54.291119,75.5696203 L54.291119,81.0379747 L59.9541063,81.0379747 C60.5132962,81.0379747 60.9667646,81.491443 60.9667646,82.0506329 C60.9667646,82.6098228 60.5132962,83.0632911 59.9541063,83.0632911" id="Fill-27-Copy-2" fill="#343852" transform="translate(56.616284, 78.810127) scale(-1, 1) translate(-56.616284, -78.810127) "></path>
        <path d="M24.3544304,83.0632911 L13.0126582,83.0632911 C12.4534684,83.0632911 12,82.6098228 12,82.0506329 L12,75.5696203 C12,67.8638987 18.268962,61.5949367 25.9746835,61.5949367 L27.5949367,61.5949367 C28.0232911,61.5949367 28.4054684,61.8647089 28.5490633,62.2681519 C29.7845063,65.7419747 33.3079494,68.0759494 37.3164557,68.0759494 C41.324962,68.0759494 44.8484051,65.7419747 46.0838481,62.2681519 C46.227443,61.8647089 46.6096203,61.5949367 47.0379747,61.5949367 C54.7436962,61.5949367 61.0126582,67.8638987 61.0126582,75.5696203 C61.0126582,76.1288101 60.5591899,76.5822785 60,76.5822785 C59.4408101,76.5822785 58.9873418,76.1288101 58.9873418,75.5696203 C58.9873418,69.2083038 53.9910886,63.9921013 47.7166582,63.6392911 C45.996962,67.5333671 41.9127089,70.1012658 37.3164557,70.1012658 C32.7127089,70.1012658 28.6225823,67.5250633 26.9079494,63.6202532 L25.9746835,63.6202532 C19.3857215,63.6202532 14.0253165,68.9806582 14.0253165,75.5696203 L14.0253165,81.0379747 L23.3417722,81.0379747 L23.3417722,75.5696203 C23.3417722,75.0104304 23.7952405,74.556962 24.3544304,74.556962 C24.9136203,74.556962 25.3670886,75.0104304 25.3670886,75.5696203 L25.3670886,82.0506329 C25.3670886,82.6098228 24.9136203,83.0632911 24.3544304,83.0632911" id="Fill-29" fill="#343852"></path>
        <path d="M46.9926886,31.4944405 C46.0237772,32.0734785 44.0796759,32.8354025 40.557043,32.8354025 C36.9641316,32.8354025 28.6076759,33.6840101 28.6076759,41.5442633 C28.6076759,42.7021367 28.6777519,43.6811747 28.7946127,44.5064911 C29.5146127,43.0780354 31.0297519,41.9059848 33.5186633,42.0803646 C34.3488405,40.7122633 36.6252962,37.696162 40.557043,37.696162 C44.0227646,37.696162 46.1546127,40.1348456 47.1674734,41.7036557 C48.0407899,40.7539848 49.2659038,39.0073519 49.2659038,36.6835038 C49.2659038,34.0580861 47.8133468,32.2859342 46.9926886,31.4944405 L46.9926886,31.4944405 Z M30.8355241,50.6581873 C30.400081,50.6581873 26.5823595,50.4025924 26.5823595,41.5442633 C26.5823595,37.1051747 28.8148658,33.8519089 33.0386633,32.1362633 C35.174562,31.2686177 37.7742582,30.8100861 40.557043,30.8100861 C44.7354734,30.8100861 46.1497519,29.6445165 46.2878785,29.5207696 C46.6216506,29.1033519 47.1859038,29.065681 47.6241823,29.3767696 C47.7738532,29.4830987 51.2912203,32.0335797 51.2912203,36.6835038 C51.2912203,41.324719 47.6602329,44.0313519 47.5057013,44.1443646 C47.1978532,44.3693772 46.7897519,44.4025924 46.4497013,44.2296304 C46.2107139,44.1083139 46.0337013,43.8997063 45.9498532,43.6538329 C45.5579544,42.8473519 43.8295494,39.7214785 40.557043,39.7214785 C36.8798785,39.7214785 35.0099038,43.558643 34.9914734,43.5973266 C34.7980557,44.0038076 34.3575494,44.2357063 33.9131949,44.1640101 C31.4042329,43.7553013 30.6421063,45.0861367 30.4114228,45.9157063 C30.0940557,47.0579848 30.4829165,48.4137316 31.2116253,48.7053772 C31.6622582,48.8856304 31.9217013,49.3605671 31.8297519,49.8371241 C31.7380051,50.3138835 31.3209924,50.6581873 30.8355241,50.6581873 L30.8355241,50.6581873 Z" id="Fill-31" fill="#343852"></path>
        <path d="M55.1392405,99.2658228 L34.0759494,99.2658228 C31.7306329,99.2658228 29.8227848,97.3579747 29.8227848,95.0126582 L29.8227848,91.7721519 C29.8227848,91.212962 30.2762532,90.7594937 30.835443,90.7594937 L51.8987342,90.7594937 C52.4579241,90.7594937 52.9113924,91.212962 52.9113924,91.7721519 C52.9113924,92.3313418 52.4579241,92.7848101 51.8987342,92.7848101 L31.8481013,92.7848101 L31.8481013,95.0126582 C31.8481013,96.2410127 32.8475949,97.2405063 34.0759494,97.2405063 L55.1392405,97.2405063 C55.6984304,97.2405063 56.1518987,97.6939747 56.1518987,98.2531646 C56.1518987,98.8123544 55.6984304,99.2658228 55.1392405,99.2658228" id="Fill-33" fill="#343852"></path>
        <path d="M50.8860759,90.9113924 L50.8860759,82.0506329 C50.8860759,81.491443 51.3395443,81.0379747 51.8987342,81.0379747 C52.4579241,81.0379747 52.9113924,81.491443 52.9113924,82.0506329 L52.9113924,91.9113924 C52.9113924,92.4705823 52.4579241,91.9240506 51.8987342,91.9240506 C51.3395443,91.9240506 50.8860759,91.4705823 50.8860759,90.9113924 Z" id="Fill-35" fill="#343852"></path>
        <path d="M68.1012658,18.2531646 C66.8729114,18.2531646 65.8734177,19.2526582 65.8734177,20.4810127 L65.8734177,46.4050633 C65.8734177,47.6334177 66.8729114,48.6329114 68.1012658,48.6329114 L89.164557,48.6329114 C89.7237468,48.6329114 90.1772152,49.0863797 90.1772152,49.6455696 L90.1772152,58.5425823 L99.7901772,48.9294177 C99.9801519,48.7396456 100.237772,48.6329114 100.506329,48.6329114 L103.746835,48.6329114 C104.97519,48.6329114 105.974684,47.6334177 105.974684,46.4050633 L105.974684,20.4810127 C105.974684,19.2526582 104.97519,18.2531646 103.746835,18.2531646 L68.1012658,18.2531646 Z M89.1643544,62 C89.0339241,62 88.9022785,61.9746835 88.7769114,61.9228354 C88.3985823,61.7662785 88.1518987,61.3968608 88.1518987,60.9873418 L88.1518987,50.6582278 L68.1012658,50.6582278 C65.7559494,50.6582278 63.8481013,48.7503797 63.8481013,46.4050633 L63.8481013,20.4810127 C63.8481013,18.1356962 65.7559494,16.2278481 68.1012658,16.2278481 L103.746835,16.2278481 C106.092152,16.2278481 108,18.1356962 108,20.4810127 L108,46.4050633 C108,48.7503797 106.092152,50.6582278 103.746835,50.6582278 L100.925772,50.6582278 L89.8807089,61.7034937 C89.6868861,61.8971139 89.4278481,62 89.1643544,62 L89.1643544,62 Z" id="Fill-37" fill="#343852"></path>
        <path d="M93.8227848,34.4556962 L79.2405063,34.4556962 C78.6813165,34.4556962 78.2278481,34.0022278 78.2278481,33.443038 C78.2278481,32.8838481 78.6813165,32.4303797 79.2405063,32.4303797 L93.8227848,32.4303797 C94.3819747,32.4303797 94.835443,32.8838481 94.835443,33.443038 C94.835443,34.0022278 94.3819747,34.4556962 93.8227848,34.4556962" id="Fill-39" fill="#D20050"></path>
        <path d="M86.5316456,41.7468354 C85.9724557,41.7468354 85.5189873,41.2933671 85.5189873,40.7341772 L85.5189873,26.1518987 C85.5189873,25.5927089 85.9724557,25.1392405 86.5316456,25.1392405 C87.0908354,25.1392405 87.5443038,25.5927089 87.5443038,26.1518987 L87.5443038,40.7341772 C87.5443038,41.2933671 87.0908354,41.7468354 86.5316456,41.7468354" id="Fill-41" fill="#D20050"></path>
    </g>
</svg>