<?xml version="1.0" encoding="UTF-8"?>
<svg width="120px" height="120px" viewBox="0 0 120 120" version="1.1" xmlns="http://www.w3.org/2000/svg" xmlns:xlink="http://www.w3.org/1999/xlink">
    <title>02.Icons/Illustrative/Voir toutes les demandes</title>
    <g id="02.Icons/Illustrative/Voir-toutes-les-demandes" stroke="none" stroke-width="1" fill="none" fill-rule="evenodd">
        <path d="M35.5009396,99 L35.4990604,99 C18.6546269,99 5,85.5660997 5,68.993956 L5,35.1295828 L5,34 C7.38460354,36.6122757 12.1726018,38.836315 21.8923511,38.9869877 L35.5009396,38.9869877 C52.3453731,38.9869877 66,52.420888 66,68.993956 C66,85.5660997 52.3453731,99 35.5009396,99" id="Fill-12" fill="#F2F3F7" transform="translate(35.500000, 66.500000) rotate(-360.000000) translate(-35.500000, -66.500000) "></path>
        <polygon id="Fill-1" fill="#FFFFFF" points="25.8287237 83.6595253 104.596296 83.6595253 104.596296 28.4124514 25.8287237 28.4124514"></polygon>
        <path d="M105.2607,28.4124693 L32.233463,28.4124693 L25.07393,28.4124693 L25.07393,25.548656 C25.07393,23.1715121 26.9925058,21.2529362 29.3696498,21.2529362 L100.964981,21.2529362 C103.342125,21.2529362 105.2607,23.1715121 105.2607,25.548656 L105.2607,28.4124693 Z" id="Fill-2" fill="#1D71B8"></path>
        <path d="M74.1167315,85.3307572 L29.3696498,85.3307572 C26.4088249,85.3307572 24,82.9219323 24,79.9611074 L24,25.548656 C24,22.5878311 26.4088249,20.1790062 29.3696498,20.1790062 L100.964981,20.1790062 C103.925805,20.1790062 106.33463,22.5878311 106.33463,25.548656 L106.33463,52.7548817 C106.33463,53.34787 105.853689,53.8288117 105.2607,53.8288117 C104.667712,53.8288117 104.18677,53.34787 104.18677,52.7548817 L104.18677,25.548656 C104.18677,23.7721969 102.74144,22.3268661 100.964981,22.3268661 L29.3696498,22.3268661 C27.5931907,22.3268661 26.1478599,23.7721969 26.1478599,25.548656 L26.1478599,79.9611074 C26.1478599,81.7375665 27.5931907,83.1828973 29.3696498,83.1828973 L74.1167315,83.1828973 C74.7097198,83.1828973 75.1906615,83.6638389 75.1906615,84.2568272 C75.1906615,84.8498156 74.7097198,85.3307572 74.1167315,85.3307572" id="Fill-4" fill="#343852"></path>
        <path d="M105.2607,29.4863992 L25.07393,29.4863992 C24.4809416,29.4863992 24,29.0054576 24,28.4124693 C24,27.8194809 24.4809416,27.3385393 25.07393,27.3385393 L105.2607,27.3385393 C105.853689,27.3385393 106.33463,27.8194809 106.33463,28.4124693 C106.33463,29.0054576 105.853689,29.4863992 105.2607,29.4863992" id="Fill-6" fill="#343852"></path>
        <path d="M38.107144,50.2490272 L48.8464436,50.2490272 L48.8464436,40.9416342 L38.107144,40.9416342 L38.107144,50.2490272 Z M49.9203735,52.3968872 L37.033214,52.3968872 C36.4402257,52.3968872 35.959284,51.9161245 35.959284,51.3229572 L35.959284,39.8677043 C35.959284,39.274716 36.4402257,38.7937743 37.033214,38.7937743 L49.9203735,38.7937743 C50.5135409,38.7937743 50.9943035,39.274716 50.9943035,39.8677043 L50.9943035,51.3229572 C50.9943035,51.9161245 50.5135409,52.3968872 49.9203735,52.3968872 L49.9203735,52.3968872 Z" id="Fill-10" fill="#343852"></path>
        <path d="M89.5097276,42.3735588 L58.5118132,42.3735588 C57.9188249,42.3735588 57.4378833,41.8926171 57.4378833,41.2996288 C57.4378833,40.7066405 57.9188249,40.2256988 58.5118132,40.2256988 L89.5097276,40.2256988 C90.102716,40.2256988 90.5836576,40.7066405 90.5836576,41.2996288 C90.5836576,41.8926171 90.102716,42.3735588 89.5097276,42.3735588" id="Fill-12" fill="#C5C8DA"></path>
        <path d="M78.3390304,50.9649984 L58.5119564,50.9649984 C57.9187891,50.9649984 57.4380265,50.4840568 57.4380265,49.8910685 C57.4380265,49.2980802 57.9187891,48.8171385 58.5119564,48.8171385 L78.3390304,48.8171385 C78.9320187,48.8171385 79.4129603,49.2980802 79.4129603,49.8910685 C79.4129603,50.4840568 78.9320187,50.9649984 78.3390304,50.9649984" id="Fill-13" fill="#C5C8DA"></path>
        <path d="M49.9204451,73.8755043 L37.0332856,73.8755043 C36.4402973,73.8755043 35.9593556,73.3945626 35.9593556,72.8015743 L35.9593556,61.3463214 C35.9593556,60.7533331 36.4402973,60.2723914 37.0332856,60.2723914 L44.2500949,60.2723914 C44.8432623,60.2723914 45.3240249,60.7533331 45.3240249,61.3463214 C45.3240249,61.9393097 44.8432623,62.4202514 44.2500949,62.4202514 L38.1072156,62.4202514 L38.1072156,71.7276444 L48.8465152,71.7276444 L48.8465152,69.9377611 C48.8465152,69.3447728 49.3274568,68.8638311 49.9204451,68.8638311 C50.5134335,68.8638311 50.9943751,69.3447728 50.9943751,69.9377611 L50.9943751,72.8015743 C50.9943751,73.3945626 50.5134335,73.8755043 49.9204451,73.8755043" id="Fill-14" fill="#343852"></path>
        <path d="M81.6342412,63.852158 L58.5118132,63.852158 C57.9188249,63.852158 57.4378833,63.3712163 57.4378833,62.778228 C57.4378833,62.1852397 57.9188249,61.7042981 58.5118132,61.7042981 L81.6342412,61.7042981 C82.2272296,61.7042981 82.7081712,62.1852397 82.7081712,62.778228 C82.7081712,63.3712163 82.2272296,63.852158 81.6342412,63.852158" id="Fill-15" fill="#C5C8DA"></path>
        <path d="M78.3390304,72.4435977 L58.5119564,72.4435977 C57.9187891,72.4435977 57.4380265,71.962656 57.4380265,71.3696677 C57.4380265,70.7766794 57.9187891,70.2957377 58.5119564,70.2957377 L78.3390304,70.2957377 C78.9320187,70.2957377 79.4129603,70.7766794 79.4129603,71.3696677 C79.4129603,71.962656 78.9320187,72.4435977 78.3390304,72.4435977" id="Fill-16" fill="#C5C8DA"></path>
        <path d="M44.1928187,69.5797844 C43.9178926,69.5797844 43.6431455,69.4748973 43.4333712,69.2653019 L40.569558,66.4014887 C40.1501883,65.9819401 40.1501883,65.3021424 40.569558,64.8825938 C40.9889276,64.4634031 41.6690833,64.4634031 42.0884529,64.8825938 L44.1928187,66.9871385 L50.5929043,60.5868739 C51.0122739,60.1676833 51.6924296,60.1676833 52.1117992,60.5868739 C52.5311689,61.0064226 52.5311689,61.6862202 52.1117992,62.1057689 L44.9522661,69.2653019 C44.7424918,69.4748973 44.4677447,69.5797844 44.1928187,69.5797844" id="Fill-17" fill="#D20050"></path>
        <path d="M101.450379,69.0365191 C101.450379,63.0244802 96.574916,58.1488381 90.562877,58.1488381 C84.5506591,58.1488381 79.6751961,63.0244802 79.6751961,69.0365191 C79.6751961,75.048558 84.5506591,79.9242 90.562877,79.9242 C96.574916,79.9242 101.450379,75.048558 101.450379,69.0365191 L101.450379,69.0365191 Z M113.693002,88.2471572 C114.346488,88.9004646 114.757624,89.8075774 114.757624,90.8118809 C114.757624,92.82013 113.136706,94.4410482 111.128278,94.4410482 C110.124153,94.4410482 109.216861,94.0299121 108.563554,93.3766047 L98.0515696,82.8633673 C97.2164101,83.3230093 96.3325658,83.6987058 95.4018265,84.0011961 C93.8777409,84.4973518 92.2570016,84.7631494 90.562877,84.7631494 C81.8772895,84.7631494 74.8362467,77.7221066 74.8362467,69.0365191 C74.8362467,60.3509315 81.8772895,53.3098887 90.562877,53.3098887 C92.2437564,53.3098887 93.8777409,53.5756864 95.4018265,54.072021 C101.716177,56.1038965 106.289328,62.0321689 106.289328,69.0365191 C106.289328,72.3751883 105.24869,75.4727603 103.47062,78.0245969 L113.693002,88.2471572 Z" id="Fill-18" fill="#C5C8DA"></path>
        <path d="M90.5628591,59.2228397 C85.151684,59.2228397 80.7491082,63.6252366 80.7491082,69.0365907 C80.7491082,74.4479447 85.151684,78.8503416 90.5628591,78.8503416 C95.9740342,78.8503416 100.376431,74.4479447 100.376431,69.0365907 C100.376431,63.6252366 95.9740342,59.2228397 90.5628591,59.2228397 M90.5628591,80.9982016 C83.9671393,80.9982016 78.6012482,75.6321315 78.6012482,69.0365907 C78.6012482,62.4408708 83.9671393,57.0749798 90.5628591,57.0749798 C97.158579,57.0749798 102.524291,62.4408708 102.524291,69.0365907 C102.524291,75.6321315 97.158579,80.9982016 90.5628591,80.9982016" id="Fill-19" fill="#343852"></path>
        <path d="M98.0511759,81.7895268 C98.3295027,81.7895268 98.6042498,81.8974568 98.8109813,82.1041883 L109.323145,92.6174257 C109.806592,93.1008732 110.447728,93.3672078 111.128421,93.3672078 C112.537417,93.3672078 113.683658,92.2207875 113.683658,90.8117914 C113.683658,90.1310988 113.417324,89.4899626 112.933697,89.0065152 L102.711316,78.7839549 C102.343316,78.4161339 102.292125,77.8374646 102.589425,77.4105774 C104.307355,74.9450132 105.215363,72.0493401 105.215363,69.0366086 C105.215363,62.6494101 101.13944,57.0465385 95.0728101,55.0941339 C93.6240786,54.6224996 92.1078685,54.3839082 90.5628412,54.3839082 C82.4833082,54.3839082 75.9101409,60.9570755 75.9101409,69.0366086 C75.9101409,77.1159626 82.4833082,83.68913 90.5628412,83.68913 C92.1076895,83.68913 93.6240786,83.4505385 95.0694093,82.9799782 C95.0695883,82.9799782 95.0697673,82.9797992 95.0699463,82.9797992 C95.949316,82.6939549 96.7783899,82.3383051 97.5337206,81.9226942 C97.696421,81.833021 97.8745144,81.7895268 98.0511759,81.7895268 M111.128421,95.5150677 C109.873892,95.5150677 108.693285,95.0251767 107.804071,94.1359626 L97.8462342,84.1770521 C97.1778918,84.4999471 96.47053,84.7831066 95.734351,85.022414 C94.0736973,85.5629588 92.3339307,85.8369899 90.5628412,85.8369899 C81.2989424,85.8369899 73.7622809,78.3003284 73.7622809,69.0366086 C73.7622809,59.7727097 81.2989424,52.2360482 90.5628412,52.2360482 C92.3341097,52.2360482 94.0738763,52.5100794 95.734351,53.0508031 C102.688584,55.2886942 107.363223,61.7133012 107.363223,69.0366086 C107.363223,72.187877 106.49674,75.2276358 104.848616,77.8836436 L114.452413,87.4876202 C115.341806,88.3768342 115.831518,89.5574412 115.831518,90.8117914 C115.831518,93.4051533 113.721783,95.5150677 111.128421,95.5150677" id="Fill-20" fill="#343852"></path>
    </g>
</svg>