<?xml version="1.0" encoding="UTF-8"?>
<svg width="120px" height="120px" viewBox="0 0 120 120" version="1.1" xmlns="http://www.w3.org/2000/svg" xmlns:xlink="http://www.w3.org/1999/xlink">
    <title>02.Icons/Illustrative/Voir le dossier professionnel</title>
    <g id="02.Icons/Illustrative/Voir-le-dossier-professionnel" stroke="none" stroke-width="1" fill="none" fill-rule="evenodd">
        <path d="M33.0413877,101.288522 L33.0396934,101.288522 C17.8520894,101.288522 5.54054054,89.0946737 5.54054054,74.0522664 L5.54054054,43.3138352 L5.54054054,42.2885217 C7.69059291,44.6596642 12.0076405,46.6784076 20.7713489,46.815172 L33.0413877,46.815172 C48.2289917,46.815172 60.5405405,59.00902 60.5405405,74.0522664 C60.5405405,89.0946737 48.2289917,101.288522 33.0413877,101.288522" id="Fill-12" fill="#F2F3F7" transform="translate(33.040541, 71.788522) rotate(-360.000000) translate(-33.040541, -71.788522) "></path>
        <path d="M82.6666667,71.075 L100,71.075 C100,66.0000844 92.6666667,63.125 90.6666667,63.125 C90.0403333,63.125 87.4935,62.2503344 86.5598333,59.15 L92,59.15 C94.5598333,59.15 95.8931667,57.825 95.8931667,57.825 C95.8931667,57.825 93.3333333,55.50625 93.3333333,51.2 C93.3333333,46.89375 94.733,35.3 82.6666667,35.3 C78.6666667,35.3 77.2265,38.0561656 77.2265,38.0561656 C77.2265,38.0561656 72,39.3811656 72,47.1188344 C72,54.84375 69.3333333,57.825 69.3333333,57.825 C69.3333333,57.825 70.1068333,59.15 73.3333333,59.15 L78.7735,59.15 C77.8398333,62.2503344 75.293,63.125 74.6666667,63.125 C72.6666667,63.125 65.3333333,66.0000844 65.3333333,71.075 L82.6666667,71.075 Z M108,30 L108,79.025 C108,81.2246656 106.2135,83 104,83 L96,83 L87.0795,83 L77.3333333,77.7 L77.3333333,83 L72,83 L32,83 C29.7865,83 28,81.2246656 28,79.025 L28,30 L33.3333333,30 L108,30 Z" id="Fill-3" fill="#FFFFFF"></path>
        <path d="M37.3333333,26 C37.3333333,25.267 36.733,24.6666667 36,24.6666667 C35.267,24.6666667 34.6666667,25.267 34.6666667,26 C34.6666667,26.733 35.267,27.3333333 36,27.3333333 C36.733,27.3333333 37.3333333,26.733 37.3333333,26 M42.6666667,26 C42.6666667,25.267 42.0663333,24.6666667 41.3333333,24.6666667 C40.6003333,24.6666667 40,25.267 40,26 C40,26.733 40.6003333,27.3333333 41.3333333,27.3333333 C42.0663333,27.3333333 42.6666667,26.733 42.6666667,26 M48,26 C48,25.267 47.3996667,24.6666667 46.6666667,24.6666667 C45.9336667,24.6666667 45.3333333,25.267 45.3333333,26 C45.3333333,26.733 45.9336667,27.3333333 46.6666667,27.3333333 C47.3996667,27.3333333 48,26.733 48,26 M108,26 L108,30 L33.3333333,30 L28,30 L28,26 C28,23.7865 29.7865,22 32,22 L104,22 C106.2135,22 108,23.7865 108,26" id="Fill-5" fill="#1D71B8"></path>
        <path d="M100,72 L83,72 L83,70.9063333 C86.9358269,70.9063333 90.2702788,67.961 90.8461538,64 C92.8076923,64 100,66.8931667 100,72" id="Fill-7" fill="#D20050"></path>
        <path d="M75.8181527,50.0227639 C75.7903664,50.2964861 75.777151,50.5996389 75.777151,50.8888889 C75.777151,53.9809028 77.0371928,56.6948333 78.9486882,58.2125833 C78.9486882,59.2818333 78.8136534,60.2057361 78.5964458,61 L73.0662906,61 C69.7861495,61 69,59.5555556 69,59.5555556 C69,59.5555556 71.7108604,56.3055556 71.7108604,47.8842639 C71.7108604,39.4488889 77.0239773,38.0044444 77.0239773,38.0044444 C77.0239773,38.0044444 78.4880113,35 82.5543019,35 C94.8206063,35 93.3977435,47.6388889 93.3977435,52.3333333 C93.3977435,57.0277778 96,59.5555556 96,59.5555556 C96,59.5555556 94.6445698,61 92.0423133,61 L86.5119887,61 C86.2949504,60.2057361 86.1599157,59.2818333 86.1599157,58.2125833 C88.0712417,56.6948333 89.3314529,53.9809028 89.3314529,50.8888889 C89.3314529,49.5022222 89.0732434,48.203125 88.6273069,47.0464861 C85.1565585,47.0324028 82.5543019,44.5327917 79.8434415,42.2222222 C79.599803,44.79225 77.6752615,48.3751944 75.8181527,50.0227639" id="Fill-9" fill="#C5C8DA"></path>
        <polygon id="Fill-11" fill="#FFFFFF" points="86.5587404 83.3333333 94 87.4791667 88.4552212 90.6406667 93.3590673 98.8398333 86.8206058 102 81.9038462 93.7995 77 96.9466667 77 83.3333333 77 78"></polygon>
        <path d="M89.2727,46.4531667 C89.733475,47.5208333 90,48.7201667 90,50 C90,52.8541667 88.698525,55.3595 86.724175,56.7605 C85.645475,57.547 84.3727,58 83,58 C81.6273,58 80.354525,57.547 79.275825,56.7605 C77.30165,55.3595 76,52.8541667 76,50 C76,49.7331667 76.01365,49.4531667 76.04235,49.2005 C77.960525,47.6796667 79.948525,44.3725 80.2,42 C83,44.1328333 85.688,46.4401667 89.2727,46.4531667" id="Fill-13" fill="#FFFFFF"></path>
        <path d="M85.8931667,59 C86.8268333,62.1466273 89.3736667,63.0343531 90,63.0343531 C89.4126667,67.0293713 86.013,70 82,70 C77.9868333,70 74.5871667,67.0293713 74,63.0343531 C74.6261667,63.0343531 77.1731667,62.1466273 78.1066667,59 L85.8931667,59 Z" id="Fill-15" fill="#FFFFFF"></path>
        <path d="M87,60 L79,60 C79.219354,59.1453556 79.3558295,58.1507967 79.3558295,57 C80.4113316,57.9170229 81.6569062,58.4453945 83.0000856,58.4453945 C84.3430938,58.4453945 85.5886684,57.9170229 86.6441705,57 C86.6441705,58.1507967 86.780646,59.1453556 87,60" id="Fill-17" fill="#FFFFFF"></path>
        <path d="M82,72 L65,72 C65,66.8933333 72.1923077,64 74.1538462,64 C74.7297212,67.961 78.0641731,70.9063333 82,70.9063333 L82,72 Z" id="Fill-19" fill="#D20050"></path>
        <path d="M82.896544,92.7993833 C82.9713974,92.7993833 83.0465783,92.8080499 83.1207765,92.8257165 C83.3767848,92.8867162 83.5979052,93.0495487 83.7349998,93.2778809 L88.2008129,100.711011 L92.9673498,98.4118558 L88.6219244,91.1612246 C88.4828643,90.9292258 88.4425712,90.6495605 88.5103815,90.3867284 C88.5781917,90.1238964 88.7483726,89.9003975 88.981286,89.7677315 L92.9858584,87.4892426 L87.089642,84.2107587 L87.0891506,84.210592 L78.9655147,79.6871141 L78.9655147,95.1355385 L82.3730619,92.9530492 C82.5311221,92.851883 82.7127684,92.7993833 82.896544,92.7993833 M87.8237617,103 C87.4909345,103 87.1685901,102.827501 86.9846507,102.521502 L82.5774755,95.1853716 L78.5062394,97.7926922 C78.2035501,97.9868579 77.82093,97.9980245 77.507758,97.8218587 C77.1944222,97.6458595 77,97.3105279 77,96.9465296 L77,77.9999557 C77,77.6467908 77.1831204,77.3197924 77.4815511,77.1397933 C77.7804731,76.9596275 78.1499899,76.9532942 78.4544809,77.1226267 L88.0321063,82.4557672 L95.4884499,86.6015803 C95.8022771,86.7760794 95.9981734,87.1102445 95.9999877,87.4742427 C96.0017769,87.8380742 95.8089926,88.1742393 95.4969672,88.351905 L90.8313267,91.0065587 L95.2139331,98.3190229 C95.3588898,98.5610217 95.3960708,98.8543536 95.3164674,99.1258523 C95.2368641,99.3975176 95.0475195,99.6220165 94.7957698,99.7433493 L88.2440542,102.9035 C88.1085975,102.968833 87.965115,103 87.8237617,103" id="Fill-27" fill="#343852"></path>
        <path d="M104,84 L96,84 C95.4478333,84 95,83.5545237 95,83.0052632 C95,82.4560026 95.4478333,82.0105263 96,82.0105263 L104,82.0105263 C105.654167,82.0105263 107,80.6717763 107,79.0263158 L107,25.9736842 C107,24.3282237 105.654167,22.9894737 104,22.9894737 L32,22.9894737 C30.3458333,22.9894737 29,24.3282237 29,25.9736842 L29,79.0263158 C29,80.6717763 30.3458333,82.0105263 32,82.0105263 L72,82.0105263 C72.5521667,82.0105263 73,82.4560026 73,83.0052632 C73,83.5545237 72.5521667,84 72,84 L32,84 C29.243,84 27,81.7688053 27,79.0263158 L27,25.9736842 C27,23.2311947 29.243,21 32,21 L104,21 C106.757,21 109,23.2311947 109,25.9736842 L109,79.0263158 C109,81.7688053 106.757,84 104,84" id="Fill-29" fill="#343852"></path>
        <path d="M107.943478,31 L29.0565217,31 C28.4731457,31 28,30.5521667 28,30 C28,29.4478333 28.4731457,29 29.0565217,29 L107.943478,29 C108.526854,29 109,29.4478333 109,30 C109,30.5521667 108.526854,31 107.943478,31" id="Fill-31" fill="#303E58"></path>
        <path d="M56.9904466,45 L41.0095534,45 C40.4521116,45 40,44.5521667 40,44 C40,43.4478333 40.4521116,43 41.0095534,43 L56.9904466,43 C57.5478884,43 58,43.4478333 58,44 C58,44.5521667 57.5478884,45 56.9904466,45" id="Fill-33" fill="#C5C8DA"></path>
        <path d="M56.9904466,51 L41.0095534,51 C40.4521116,51 40,50.5521667 40,50 C40,49.4478333 40.4521116,49 41.0095534,49 L56.9904466,49 C57.5478884,49 58,49.4478333 58,50 C58,50.5521667 57.5478884,51 56.9904466,51" id="Fill-35" fill="#C5C8DA"></path>
        <path d="M41.0095534,57 C40.4521116,57 40,56.5521667 40,56 C40,55.4478333 40.4521116,55 41.0095534,55 L49.9904466,55 C50.5478884,55 51,55.4478333 51,56 C51,56.5521667 50.5478884,57 49.9904466,57 L41.0095534,57 Z" id="Fill-35-Copy" fill="#C5C8DA"></path>
        <path d="M82.5,59 C81.0495652,59 79.6439674,58.4834597 78.4354891,57.5061841 C76.2880435,55.8158452 75,52.8943525 75,49.6991745 C75,49.3743345 75.0156522,49.0501835 75.045163,48.7618579 C75.1035326,48.1941631 75.5872826,47.7845823 76.1230435,47.8455544 C76.6602717,47.9070432 77.0483152,48.416694 76.9902717,48.9842166 C76.9684239,49.1969299 76.9565217,49.450808 76.9565217,49.6991745 C76.9565217,52.2446726 77.9502717,54.5466269 79.6147826,55.8568377 C80.4890217,56.5637004 81.4832609,56.9331499 82.5,56.9331499 C83.5167391,56.9331499 84.5109783,56.5637004 85.3751087,55.8649328 C87.0497283,54.5466269 88.0434783,52.2446726 88.0434783,49.6991745 C88.0434783,48.558101 87.840163,47.4571588 87.4392391,46.4266618 C87.2338043,45.8987538 87.4725,45.2948891 87.9722283,45.0778698 C88.4717935,44.8608506 89.043587,45.1130063 89.2490217,45.6409142 C89.7472826,46.9220168 90,48.2873436 90,49.6991745 C90,52.8943525 88.7119565,55.8158452 86.5542391,57.5142792 C85.3560326,58.4834597 83.9504348,59 82.5,59" id="Fill-37" fill="#343852"></path>
        <path d="M75.9582718,50 C75.697712,50 75.4381101,49.8922233 75.2492362,49.6802517 C74.8932016,49.2810547 74.9220995,48.6633739 75.3135778,48.3004824 L75.3273083,48.2876208 C75.3375263,48.2781781 75.3480637,48.2687355 75.3587607,48.2597812 C76.9706553,46.8914082 78.6163971,43.849892 78.8116574,41.8786534 C78.8469415,41.5225997 79.0701416,41.2148989 79.3937659,41.0761893 C79.7170708,40.9378054 80.0890711,40.9903913 80.3632017,41.2139221 C80.5696379,41.3822621 80.7752758,41.5517417 80.9809137,41.7210585 C83.2402165,43.5819155 85.374508,45.3395544 88.0455655,45.3499739 C88.574668,45.3519276 89.0019095,45.7908489 89,46.3303834 C88.997918,46.8686156 88.5693993,47.3036296 88.0422127,47.3036296 L88.0383809,47.3036296 C84.9648287,47.291582 82.6046229,45.5516889 80.3660755,43.7245324 C79.6849798,45.922395 78.1765428,48.4014213 76.6010499,49.7470016 C76.417764,49.9164812 76.1876986,50 75.9582718,50" id="Fill-39" fill="#343852"></path>
        <path d="M92.0329709,61 C91.4722574,61 91.0174921,60.5521667 91.0174921,60 C91.0174921,59.4478333 91.4722574,59 92.0329709,59 C93.1176714,59 93.9334394,58.7333333 94.475705,58.4688333 C93.6078092,57.3186667 92.3714638,55.1305 92.3714638,52 C92.3714638,51.62 92.3821263,51.1851667 92.3932966,50.725 C92.4692883,47.6056667 92.5963923,42.385 89.6591201,39.4221667 C88.0656647,37.815 85.6755662,37 82.5551692,37 C79.2037509,37 77.9782373,39.1508333 77.9278018,39.2423333 C77.7944356,39.4951667 77.5622295,39.672 77.2819573,39.7425 C77.1039101,39.7903333 72.7388747,41.0405 72.7388747,47.8931667 C72.7388747,53.75 71.2379971,57.0631667 70.370609,58.4888333 C70.8338365,58.7295 71.6678831,59 73.0773676,59 C73.6380811,59 74.0928463,59.4478333 74.0928463,60 C74.0928463,60.5521667 73.6380811,61 73.0773676,61 C71.5431484,61 70.2797236,60.733 69.3224657,60.2063333 C68.5344541,59.7728333 68.2159323,59.3023333 68.1370635,59.1685 C67.9172123,58.7951667 67.9652783,58.3248333 68.2565515,58.0023333 C68.2751686,57.9806667 70.7079172,55.1041667 70.7079172,47.8931667 C70.7079172,40.6368333 74.9864676,38.4536667 76.3653185,37.9386667 C76.9766367,37.0686667 78.8227771,35 82.5551692,35 C86.2432188,35 89.1222703,36.0178333 91.1124394,38.025 C94.6473209,41.5906667 94.5071849,47.3386667 94.4235771,50.7728333 C94.4127453,51.2208333 94.4024213,51.644 94.4024213,52 C94.4024213,55.8031667 96.5818079,57.8461667 96.674555,57.9311667 C96.8761275,58.1161667 96.9947693,58.3756667 97,58.647 C97.0045856,58.9183333 96.8993143,59.1818333 96.7045116,59.3738333 C96.6371515,59.4401667 95.0188169,61 92.0329709,61" id="Fill-41" fill="#343852"></path>
        <path d="M65.0135242,73 C64.4538899,73 64,72.5406283 64,71.9742352 C64,70.1509383 64.7684203,67.4694181 68.428763,65.0481003 C70.6928071,63.5504837 73.2326988,62.742352 74.4730835,62.742352 C74.4837255,62.7411553 76.7979392,62.3016151 77.6645024,59.371005 C77.8685586,58.6620306 77.9729516,57.8706531 77.9729516,57.0257648 C77.9729516,56.4593717 78.4266726,56 78.9864758,56 C79.5461101,56 80,56.4593717 80,57.0257648 C80,58.0648645 79.8682419,59.0494278 79.6084418,59.9519298 C78.5156938,63.6481023 75.4619453,64.7938816 74.4730835,64.7938816 C73.7914885,64.7938816 71.6438307,65.372242 69.5375585,66.7654016 C67.9361902,67.8248456 66.0270484,69.5884772 66.0270484,71.9742352 C66.0270484,72.5406283 65.5731585,73 65.0135242,73" id="Fill-43" fill="#343852"></path>
        <path d="M99.9864758,73 C99.4268415,73 98.9729516,72.5406283 98.9729516,71.9742352 C98.9729516,69.5884772 97.0638098,67.8248456 95.4624415,66.7654016 C93.3561693,65.372242 91.2085115,64.7938816 90.5269165,64.7938816 C89.5380547,64.7938816 86.4843062,63.6481023 85.3935852,59.9591102 C85.1317581,59.0494278 85,58.0648645 85,57.0257648 C85,56.4593717 85.4538899,56 86.0135242,56 C86.5733274,56 87.0270484,56.4593717 87.0270484,57.0257648 C87.0270484,57.8706531 87.1314414,58.6620306 87.3376936,59.3781854 C88.2020608,62.3016151 90.5162745,62.7411553 90.5387409,62.742523 L90.5394166,62.742523 C91.7681458,62.742523 94.3075307,63.5506547 96.571237,65.0481003 C100.23158,67.4694181 101,70.1509383 101,71.9742352 C101,72.5406283 100.54611,73 99.9864758,73" id="Fill-45" fill="#343852"></path>
        <path d="M83,72 C78.5314527,72 74.6668893,68.6289864 74.0109068,64.1588903 C73.9300756,63.6069912 74.3072322,63.0929857 74.853551,63.0111356 C75.399203,62.9292854 75.9083561,63.3104107 75.9895206,63.8626466 C76.5010069,67.3495304 79.5149264,69.9790086 83,69.9790086 C86.4850736,69.9790086 89.4989931,67.3495304 90.0104794,63.8626466 C90.0916439,63.3105791 90.6011303,62.9289486 91.146449,63.0111356 C91.6927678,63.0929857 92.0699244,63.6069912 91.9890932,64.1588903 C91.3331107,68.6289864 87.4685473,72 83,72" id="Fill-47" fill="#343852"></path>
    </g>
</svg>