<?xml version="1.0" encoding="UTF-8"?>
<svg width="120px" height="120px" viewBox="0 0 120 120" version="1.1" xmlns="http://www.w3.org/2000/svg" xmlns:xlink="http://www.w3.org/1999/xlink">
    <title>02.Icons/Illustrative/Voir mes activités professionnelles</title>
    <g id="02.Icons/Illustrative/Voir-mes-activités-professionnelles" stroke="none" stroke-width="1" fill="none" fill-rule="evenodd">
        <path d="M112.9036,48.031 C112.9036,28.684 97.2196,13 77.8726,13 C58.5256,13 42.8416,28.684 42.8416,48.031 C42.8416,67.378 58.5256,83.062 77.8726,83.062 C97.2196,83.062 112.9036,67.378 112.9036,48.031" id="Fill-1" fill="#F2F3F7"></path>
        <path d="M99.973,76.6298 L99.973,80.6308 C99.973,82.8448 98.186,84.6318 95.972,84.6318 L65.296,84.6318 L54.627,84.6318 L23.951,84.6318 C21.737,84.6318 19.95,82.8448 19.95,80.6308 L19.95,76.6298 L25.285,76.6298 L99.973,76.6298 Z" id="Fill-4" fill="#1D71B8"></path>
        <path d="M95.9718,71.2949 L95.9718,31.2829 C95.9718,30.5499 95.3718,29.9499 94.6378,29.9499 L25.2848,29.9499 C24.5508,29.9499 23.9508,30.5499 23.9508,31.2829 L23.9508,71.2949 C23.9508,72.0289 24.5508,72.6289 25.2848,72.6289 L94.6378,72.6289 C95.3718,72.6289 95.9718,72.0289 95.9718,71.2949 M99.9728,29.9499 L99.9728,76.6299 L25.2848,76.6299 L19.9498,76.6299 L19.9498,29.9499 C19.9498,27.7359 21.7368,25.9489 23.9508,25.9489 L95.9718,25.9489 C98.1858,25.9489 99.9728,27.7359 99.9728,29.9499" id="Fill-6" fill="#FFFFFF"></path>
        <path d="M95.9718,31.2833 L95.9718,71.2953 C95.9718,72.0283 95.3718,72.6283 94.6378,72.6283 L25.2848,72.6283 C24.5508,72.6283 23.9508,72.0283 23.9508,71.2953 L23.9508,31.2833 C23.9508,30.5493 24.5508,29.9493 25.2848,29.9493 L94.6378,29.9493 C95.3718,29.9493 95.9718,30.5493 95.9718,31.2833" id="Fill-8" fill="#EDEEF3"></path>
        <polygon id="Fill-10" fill="#969CBB" points="65.2963 84.6321 69.2973 97.9691 50.6253 97.9691 54.6263 84.6321"></polygon>
        <path d="M74.5163,41.1787 L45.4063,41.1787 C43.9173,41.1787 42.6983,42.3977 42.6983,43.8867 L42.6983,49.7207 C42.6983,50.5747 43.1003,51.3377 43.7223,51.8357 C43.8253,51.9427 43.9453,52.0467 44.0623,52.1507 L44.0623,62.2117 C44.0623,63.6027 45.2003,64.7407 46.5913,64.7407 L73.3273,64.7407 C74.7173,64.7407 75.8553,63.6027 75.8553,62.2117 L75.8553,52.1557 C75.9743,52.0497 76.0963,51.9437 76.2003,51.8357 C76.8233,51.3377 77.2243,50.5747 77.2243,49.7207 L77.2243,43.8867 C77.2243,42.3977 76.0063,41.1787 74.5163,41.1787" id="Fill-12" fill="#C5C8DA"></path>
        <path d="M61.6813,51.9573 L58.1393,51.9573 C57.3733,51.9573 56.7473,52.5373 56.7473,53.2463 L56.7473,54.8433 C56.7473,54.8483 56.7483,54.8523 56.7483,54.8573 C56.7483,54.8673 56.7473,54.8763 56.7473,54.8863 L56.7473,56.7903 C56.7473,58.4003 58.1703,59.7183 59.9103,59.7183 C61.6503,59.7183 63.0743,58.4003 63.0743,56.7903 L63.0743,54.8863 C63.0743,54.8763 63.0723,54.8673 63.0723,54.8583 C63.0723,54.8533 63.0743,54.8483 63.0743,54.8433 L63.0743,53.2463 C63.0743,52.5373 62.4473,51.9573 61.6813,51.9573" id="Fill-14" fill="#1D71B8"></path>
        <path d="M98.4874,75.1464 C98.4874,70.0334 94.3414,65.8884 89.2294,65.8884 C84.1164,65.8884 79.9704,70.0334 79.9704,75.1464 C79.9704,80.2594 84.1164,84.4044 89.2294,84.4044 C94.3414,84.4044 98.4874,80.2594 98.4874,75.1464 L98.4874,75.1464 Z M106.8404,89.4244 C107.3964,89.9804 107.7454,90.7514 107.7454,91.6054 C107.7454,93.3134 106.3674,94.6924 104.6594,94.6924 C103.8054,94.6924 103.0344,94.3424 102.4784,93.7864 L95.5974,86.9044 C93.7034,87.9334 91.5334,88.5194 89.2294,88.5194 C88.8794,88.5194 88.5394,88.5094 88.2004,88.4784 C85.3514,88.2624 82.7584,87.1614 80.6914,85.4334 C77.7384,82.9854 75.8554,79.2814 75.8554,75.1464 C75.8554,68.1104 81.2974,62.3384 88.2004,61.8144 C88.5394,61.7834 88.8794,61.7734 89.2294,61.7734 C96.6144,61.7734 102.6024,67.7604 102.6024,75.1464 C102.6024,77.9854 101.7174,80.6194 100.2054,82.7894 L106.8404,89.4244 Z" id="Fill-16" fill="#D20050"></path>
        <path d="M89.2291,65.888 C94.3411,65.888 98.4871,70.033 98.4871,75.146 C98.4871,80.26 94.3411,84.405 89.2291,84.405 C84.1171,84.405 79.9711,80.26 79.9711,75.146 C79.9711,70.033 84.1171,65.888 89.2291,65.888" id="Fill-18" fill="#FFFFFF"></path>
        <path d="M89.229,83.455 C84.648,83.455 80.92,79.728 80.92,75.146 C80.92,70.565 84.648,66.838 89.229,66.838 C93.81,66.838 97.538,70.565 97.538,75.146 C97.538,79.728 93.81,83.455 89.229,83.455 L89.229,83.455 Z M89.229,64.938 C83.6,64.938 79.02,69.517 79.02,75.146 C79.02,80.775 83.6,85.355 89.229,85.355 C94.858,85.355 99.438,80.775 99.438,75.146 C99.438,69.517 94.858,64.938 89.229,64.938 L89.229,64.938 Z M104.66,93.742 C104.091,93.742 103.555,93.519 103.151,93.115 L96.269,86.232 C96.086,86.05 95.843,85.954 95.597,85.954 C95.442,85.954 95.287,85.992 95.144,86.069 C93.056,87.203 90.596,87.751 88.288,87.532 C88.283,87.532 88.278,87.531 88.272,87.531 C85.69,87.336 83.279,86.358 81.297,84.702 C78.443,82.335 76.806,78.852 76.806,75.146 C76.806,68.69 81.842,63.25 88.288,62.76 C88.598,62.732 88.909,62.724 89.229,62.724 C96.079,62.724 101.652,68.296 101.652,75.146 C101.652,77.701 100.882,80.156 99.426,82.247 C99.163,82.624 99.208,83.136 99.534,83.461 L106.168,90.097 C106.573,90.501 106.795,91.037 106.795,91.605 C106.795,92.784 105.837,93.742 104.66,93.742 L104.66,93.742 Z M23.951,83.682 C22.268,83.682 20.9,82.313 20.9,80.631 L20.9,77.58 L75.134,77.58 C75.516,79.799 76.402,81.885 77.741,83.682 L23.951,83.682 Z M68.02,97.019 L51.903,97.019 L55.334,85.582 L64.589,85.582 L68.02,97.019 Z M20.9,29.95 C20.9,28.267 22.268,26.899 23.951,26.899 L95.972,26.899 C97.655,26.899 99.023,28.267 99.023,29.95 L99.023,64.724 C96.458,62.313 93.018,60.823 89.229,60.823 C88.85,60.823 88.481,60.834 88.128,60.867 C80.714,61.431 74.906,67.703 74.906,75.146 C74.906,75.326 74.928,75.501 74.935,75.68 L20.9,75.68 L20.9,29.95 Z M107.512,88.753 L101.423,82.664 C102.819,80.406 103.552,77.823 103.552,75.146 C103.552,72.077 102.573,69.238 100.923,66.904 L100.923,29.95 C100.923,27.22 98.703,24.998 95.972,24.998 L23.951,24.998 C21.22,24.998 19,27.22 19,29.95 L19,80.631 C19,83.36 21.22,85.582 23.951,85.582 L53.349,85.582 L49.918,97.019 L43.957,97.019 C43.432,97.019 43.006,97.445 43.006,97.97 C43.006,98.494 43.432,98.92 43.957,98.92 L75.966,98.92 C76.491,98.92 76.916,98.494 76.916,97.97 C76.916,97.445 76.491,97.019 75.966,97.019 L70.005,97.019 L66.574,85.582 L79.392,85.582 C79.411,85.582 79.426,85.572 79.444,85.571 C79.656,85.769 79.857,85.976 80.082,86.162 C82.365,88.07 85.144,89.198 88.122,89.425 C90.554,89.652 93.153,89.147 95.414,88.064 L101.807,94.459 C102.571,95.222 103.583,95.643 104.66,95.643 C106.885,95.643 108.696,93.831 108.696,91.605 C108.696,90.529 108.275,89.517 107.512,88.753 L107.512,88.753 Z M75.325,49.721 C75.325,49.964 75.212,50.193 75.015,50.351 L74.916,50.429 L74.829,50.52 C73.356,52.056 69.162,53.69 63.074,54.118 L63.074,53.247 C63.074,52.538 62.447,51.957 61.681,51.957 L58.14,51.957 C57.374,51.957 56.747,52.538 56.747,53.247 L56.747,54.11 C50.715,53.671 46.559,52.048 45.094,50.52 L45.007,50.429 L44.908,50.351 C44.711,50.193 44.598,49.964 44.598,49.721 L44.598,43.887 C44.598,43.449 44.969,43.079 45.406,43.079 L74.516,43.079 C74.954,43.079 75.325,43.449 75.325,43.887 L75.325,49.721 Z M58.648,54.707 L58.647,54.703 L58.647,53.857 L61.174,53.857 L61.174,54.706 L61.171,54.728 L61.173,54.883 L61.174,54.945 L61.174,56.79 C61.174,57.348 60.595,57.819 59.91,57.819 C59.225,57.819 58.647,57.348 58.647,56.79 L58.647,54.955 L58.648,54.935 L58.648,54.857 L58.648,54.707 Z M74.906,62.572 C74.906,63.244 74.359,63.79 73.687,63.79 L46.231,63.79 C45.559,63.79 45.013,63.244 45.013,62.572 L45.013,52.871 C47.482,54.481 51.734,55.647 56.747,56.004 L56.747,56.79 C56.747,58.401 58.171,59.719 59.91,59.719 C61.65,59.719 63.074,58.401 63.074,56.79 L63.074,56.012 C68.129,55.663 72.419,54.494 74.906,52.874 L74.906,62.572 Z M55.151,39.83 C55.151,39.131 55.72,38.561 56.42,38.561 L63.401,38.561 C64.101,38.561 64.67,39.131 64.67,39.83 L64.67,41.179 L55.151,41.179 L55.151,39.83 Z M76.806,62.572 L76.806,51.874 C76.806,51.688 76.739,51.525 76.646,51.379 C77.006,50.919 77.225,50.345 77.225,49.721 L77.225,43.887 C77.225,42.398 76.006,41.179 74.516,41.179 L66.571,41.179 L66.571,39.83 C66.571,38.083 65.149,36.661 63.401,36.661 L56.42,36.661 C54.672,36.661 53.25,38.083 53.25,39.83 L53.25,41.179 L45.406,41.179 C43.917,41.179 42.698,42.398 42.698,43.887 L42.698,49.721 C42.698,50.325 42.907,50.879 43.246,51.33 C43.168,51.468 43.113,51.618 43.113,51.787 L43.113,62.572 C43.113,64.292 44.511,65.691 46.231,65.691 L73.687,65.691 C75.407,65.691 76.806,64.292 76.806,62.572 L76.806,62.572 Z" id="Fill-20" fill="#343852"></path>
    </g>
</svg>