<svg xmlns="http://www.w3.org/2000/svg" width="32" height="32" viewBox="0 0 32 32"><path d="M7.057 7.057c.521-.521 1.365-.521 1.885 0L22.666 20.78V12c0-.684.515-1.247 1.177-1.324l.156-.009c.736 0 1.333.597 1.333 1.333v12.045c-.001.023-.003.045-.005.068-.001.029-.005.057-.009.085-.004.023-.008.045-.012.069-.007.029-.013.059-.021.087-.005.021-.012.041-.019.061a.7412.7412 0 0 1-.028.079.7218.7218 0 0 1-.031.069c-.012.028-.027.055-.041.081-.008.017-.019.033-.028.049-.021.033-.043.067-.067.099-.039.052-.081.103-.129.149l.107-.12a1.318 1.318 0 0 1-.227.227c-.009.008-.019.015-.029.023-.032.024-.065.045-.099.067-.016.009-.033.02-.049.028a.8788.8788 0 0 1-.081.041 1.443 1.443 0 0 1-.069.031c-.025.011-.052.02-.079.029-.02.005-.04.012-.061.017-.028.008-.057.015-.087.021-.024.004-.047.008-.069.012-.065.009-.131.015-.199.015l.113-.005a.7721.7721 0 0 1-.069.005H12c-.736 0-1.333-.597-1.333-1.333s.597-1.333 1.333-1.333h8.78L7.057 8.942c-.48-.48-.517-1.237-.111-1.76l.111-.125z"/></svg>