<svg xmlns="http://www.w3.org/2000/svg" width="32" height="32" viewBox="0 0 32 32">
    <path d="M24.889 5.925c-0.655 0-1.186 0.531-1.186 1.186v14.814c0 4.248-3.455 7.705-7.703 7.705s-7.705-3.457-7.705-7.705v-14.814c0-2.614 2.127-4.741 4.741-4.741s4.741 2.127 4.741 4.741v14.814c0 0.981-0.797 1.778-1.778 1.778s-1.778-0.797-1.778-1.778v-14.814c0-0.655-0.531-1.186-1.186-1.186s-1.186 0.531-1.186 1.186v14.814c0 2.288 1.862 4.149 4.149 4.149s4.148-1.861 4.148-4.149v-14.814c0-3.922-3.189-7.111-7.111-7.111-3.921 0-7.111 3.189-7.111 7.111v14.814c0 5.556 4.519 10.075 10.075 10.075 5.554 0 10.075-4.519 10.075-10.075v-14.814c0-0.655-0.531-1.186-1.186-1.186z"/>
</svg>