<svg xmlns="http://www.w3.org/2000/svg" width="32" height="32">
<path d="M27.636 0c2.41 0 4.364 1.954 4.364 4.364v0 13.091c0 2.41-1.954 4.364-4.364 4.364v0h-1.455c-0.803 0-1.455-0.651-1.455-1.455s0.651-1.455 1.455-1.455v0h1.455c0.803 0 1.455-0.651 1.455-1.455v0-13.091c0-0.803-0.651-1.455-1.455-1.455v0h-13.091c-0.803 0-1.455 0.651-1.455 1.455v0 1.455c0 0.803-0.651 1.455-1.455 1.455s-1.455-0.651-1.455-1.455v0-1.455c0-2.41 1.954-4.364 4.364-4.364v0h13.091zM17.455 10.182c2.41 0 4.364 1.954 4.364 4.364v0 13.091c0 2.41-1.954 4.364-4.364 4.364v0h-13.091c-2.41 0-4.364-1.954-4.364-4.364v0-13.091c0-2.41 1.954-4.364 4.364-4.364v0h13.091zM4.364 13.091c-0.803 0-1.455 0.651-1.455 1.455v0 13.091c0 0.803 0.651 1.455 1.455 1.455v0h13.091c0.803 0 1.455-0.651 1.455-1.455v0-13.091c0-0.803-0.651-1.455-1.455-1.455v0h-13.091z"></path>
</svg>
