<svg xmlns="http://www.w3.org/2000/svg" width="32" height="32" viewBox="0 0 32 32">
    <path d="M6.77 23.819c0.48-0.831 0.756-1.795 0.756-2.825v-7.062c0-4.681 3.794-8.475 8.475-8.475s8.475 3.794 8.475 8.475v7.062c0 1.030 0.275 1.994 0.756 2.825h-18.46zM16 29.175c-1.459 0-2.651-1.112-2.806-2.531h5.614c-0.157 1.419-1.347 2.531-2.808 2.531v0zM30.124 23.819c-1.559 0-2.825-1.264-2.825-2.825v-7.062c0-5.266-3.607-9.678-8.482-10.931 0.004-0.058 0.018-0.104 0.018-0.167 0-1.565-1.27-2.835-2.836-2.835s-2.835 1.27-2.835 2.835c0 0.062 0.014 0.109 0.017 0.167-4.874 1.253-8.482 5.665-8.482 10.931v7.062c0 1.561-1.264 2.825-2.825 2.825-1.883 0-1.883 2.825 0 2.825h8.493c0.164 2.977 2.613 5.356 5.631 5.356 3.017 0 5.469-2.379 5.633-5.356h8.492c1.883 0 1.883-2.825 0-2.825v0z"/>
</svg>