<svg xmlns="http://www.w3.org/2000/svg" width="32" height="32">
<path d="M7.856 3.079c-0.848 0-1.539 0.691-1.539 1.539v22.762c0 0.308 0.091 0.607 0.262 0.861 0.231 0.342 0.579 0.573 0.984 0.653s0.813-0.005 1.155-0.236l16.289-10.975c0.149-0.102 0.28-0.228 0.386-0.374 0.497-0.688 0.343-1.653-0.343-2.151l-16.292-11.789c-0.262-0.191-0.574-0.291-0.901-0.291zM7.866 32c-0.297 0-0.594-0.028-0.893-0.086-1.21-0.236-2.257-0.928-2.946-1.952-0.516-0.764-0.788-1.656-0.788-2.582v-22.762c0-2.546 2.072-4.618 4.618-4.618 0.979 0 1.917 0.303 2.708 0.877l16.289 11.787c2.063 1.493 2.526 4.386 1.035 6.449-0.319 0.44-0.708 0.817-1.161 1.124l-16.29 10.973c-0.771 0.52-1.659 0.79-2.571 0.79z"></path>
</svg>
