<svg xmlns="http://www.w3.org/2000/svg" width="32" height="32">
<path d="M1.455 14.532l-0.076-0.002c-0.022-0.001-0.044-0.003-0.066-0.005-0.039-0.004-0.077-0.009-0.115-0.016-0.020-0.004-0.040-0.008-0.060-0.012-0.028-0.006-0.056-0.013-0.084-0.021s-0.056-0.017-0.084-0.027c-0.161-0.056-0.309-0.141-0.438-0.247-0.048-0.039-0.094-0.082-0.138-0.129l0.114 0.109c-0.038-0.033-0.075-0.068-0.11-0.105-0.008-0.008-0.011-0.012-0.015-0.016-0.034-0.037-0.066-0.075-0.096-0.116-0.010-0.013-0.019-0.025-0.027-0.038-0.019-0.028-0.038-0.057-0.056-0.087-0.016-0.026-0.030-0.052-0.044-0.078-0.011-0.021-0.022-0.044-0.032-0.066-0.013-0.029-0.025-0.058-0.036-0.087-0.009-0.024-0.018-0.049-0.026-0.074-0.009-0.027-0.016-0.055-0.023-0.083-0.008-0.030-0.014-0.059-0.020-0.089-0.004-0.024-0.008-0.049-0.012-0.073-0.009-0.064-0.013-0.129-0.013-0.195l0.004 0.103c-0.002-0.029-0.003-0.058-0.004-0.087l-0-0.016v-8.728c0-0.803 0.651-1.455 1.455-1.455s1.455 0.651 1.455 1.455v0 5.365l4.267-4.009c4.481-4.473 11.325-5.523 16.925-2.643l0.389 0.207c5.67 3.134 8.583 9.641 7.146 15.958s-6.88 10.922-13.347 11.294c-6.468 0.372-12.402-3.578-14.555-9.688-0.267-0.758 0.131-1.588 0.889-1.855s1.588 0.131 1.855 0.889c1.722 4.888 6.47 8.048 11.644 7.751s9.528-3.982 10.678-9.035c1.15-5.054-1.181-10.259-5.717-12.766s-10.183-1.713-13.883 1.979v0l-4.074 3.826 5.056 0.001c0.746 0 1.361 0.562 1.445 1.285l0.010 0.17c0 0.803-0.651 1.455-1.455 1.455v0h-8.728z"></path>
</svg>
