<svg xmlns="http://www.w3.org/2000/svg" width="32" height="32">
  <path d="M16 0a4 4 0 0 1 4 4v.115a.873.873 0 0 0 .538.799.862.862 0 0 0 .945-.163l.079-.079a4 4 0 0 1 5.659-.001 4 4 0 0 1 0 5.659l-.07.07a.866.866 0 0 0-.173.956 1.3 1.3 0 0 1 .085.265.862.862 0 0 0 .708.38h.227a4 4 0 0 1 0 8h-.115a.867.867 0 0 0-.793.525.869.869 0 0 0 .157.959l.079.079a4 4 0 0 1 .001 5.659 4 4 0 0 1-5.659 0l-.07-.07a.873.873 0 0 0-.969-.168.865.865 0 0 0-.525.788V28a4 4 0 0 1-8 0c-.008-.445-.233-.759-.645-.914a.864.864 0 0 0-.946.163l-.079.079a4 4 0 0 1-5.659.001 4 4 0 0 1 0-5.659l.07-.07a.873.873 0 0 0 .168-.969.865.865 0 0 0-.788-.525h-.227a4 4 0 0 1 0-8c.445-.008.759-.233.914-.645a.864.864 0 0 0-.163-.946l-.079-.079a4 4 0 0 1-.001-5.659 4 4 0 0 1 5.659 0l.07.07a.866.866 0 0 0 .956.173 1.3 1.3 0 0 1 .265-.085.862.862 0 0 0 .38-.708V4a4 4 0 0 1 4-4zm0 2.667c-.736 0-1.333.597-1.333 1.333v.232a3.535 3.535 0 0 1-2.141 3.234 1.354 1.354 0 0 1-.352.097 3.54 3.54 0 0 1-3.649-.819l-.081-.081a1.334 1.334 0 1 0-1.886 1.888l.09.09c1.01 1.033 1.29 2.576.738 3.819a3.542 3.542 0 0 1-3.265 2.313h-.12a1.333 1.333 0 0 0 0 2.666h.232a3.53 3.53 0 0 1 3.228 2.128 3.54 3.54 0 0 1-.717 3.908l-.081.081a1.334 1.334 0 1 0 1.888 1.886l.09-.09c1.033-1.01 2.576-1.29 3.819-.738a3.542 3.542 0 0 1 2.313 3.265v.12a1.333 1.333 0 0 0 2.666 0v-.232a3.53 3.53 0 0 1 2.128-3.228 3.54 3.54 0 0 1 3.908.717l.081.081a1.334 1.334 0 1 0 1.886-1.888l-.09-.09a3.534 3.534 0 0 1-.707-3.897 3.53 3.53 0 0 1 3.233-2.128h.12a1.333 1.333 0 0 0 0-2.666h-.232a3.535 3.535 0 0 1-3.234-2.141 1.354 1.354 0 0 1-.097-.352 3.54 3.54 0 0 1 .819-3.649l.081-.081a1.334 1.334 0 1 0-1.888-1.886l-.09.09a3.527 3.527 0 0 1-3.884.712 3.534 3.534 0 0 1-2.141-3.239v-.12c0-.736-.597-1.333-1.333-1.333zm0 8a5.333 5.333 0 1 1 0 10.666 5.333 5.333 0 0 1 0-10.666zm0 8a2.667 2.667 0 1 0 0-5.334 2.667 2.667 0 0 0 0 5.334z"/>
</svg>