<svg xmlns="http://www.w3.org/2000/svg" width="32" height="32" viewBox="0 0 32 32"><path d="M25.333 2.667c2.209 0 4 1.791 4 4v18.667c0 2.209-1.791 4-4 4H6.666c-2.209 0-4-1.791-4-4V6.667c0-2.209 1.791-4 4-4h18.667zm0 2.666H6.666c-.736 0-1.333.597-1.333 1.333v18.667c0 .736.597 1.333 1.333 1.333h18.667c.736 0 1.333-.597 1.333-1.333V6.666c0-.736-.597-1.333-1.333-1.333zm-4 9.334c.736 0 1.333.597 1.333 1.333s-.597 1.333-1.333 1.333H10.666c-.736 0-1.333-.597-1.333-1.333s.597-1.333 1.333-1.333h10.667z"/></svg>