<?xml version="1.0" encoding="UTF-8" standalone="no"?>
<!-- Generator: Adobe Illustrator 29.1.0, SVG Export Plug-In . SVG Version: 9.03 Build 55587)  -->

<svg
   version="1.1"
   x="0px"
   y="0px"
   viewBox="0 0 490 210.64301"
   xml:space="preserve"
   id="svg77"
   sodipodi:docname="Ministere-11-2025.svg"
   width="490"
   height="210.64301"
   inkscape:version="1.4.2 (ebf0e94, 2025-05-08)"
   xmlns:inkscape="http://www.inkscape.org/namespaces/inkscape"
   xmlns:sodipodi="http://sodipodi.sourceforge.net/DTD/sodipodi-0.dtd"
   xmlns="http://www.w3.org/2000/svg"
   xmlns:svg="http://www.w3.org/2000/svg"><defs
   id="defs77" /><sodipodi:namedview
   id="namedview77"
   pagecolor="#ffffff"
   bordercolor="#666666"
   borderopacity="1.0"
   inkscape:showpageshadow="2"
   inkscape:pageopacity="0.0"
   inkscape:pagecheckerboard="0"
   inkscape:deskcolor="#d1d1d1"
   inkscape:zoom="0.94023105"
   inkscape:cx="171.23451"
   inkscape:cy="71.790865"
   inkscape:window-width="1920"
   inkscape:window-height="1111"
   inkscape:window-x="-9"
   inkscape:window-y="-9"
   inkscape:window-maximized="1"
   inkscape:current-layer="svg77" />
<g
   id="Capa_1"
   transform="translate(-73,-56.678997)">
	<g
   id="g77">
		<g
   id="g9">
			<path
   style="fill:#222221"
   d="m 78.009,99.481 h 4.9 l 4.734,8.14 4.734,-8.14 h 4.9 v 19.38 h -3.931 v -13.899 l -4.319,7.254 H 86.26 l -4.319,-7.254 v 13.899 H 78.01 v -19.38 z"
   id="path1" />
			<path
   style="fill:#222221"
   d="m 102.697,99.481 h 3.931 v 19.38 h -3.931 z"
   id="path2" />
			<path
   style="fill:#222221"
   d="m 112.079,99.481 h 5.039 l 8.666,14.009 V 99.481 h 3.931 v 19.38 h -5.039 l -8.666,-14.009 v 14.009 h -3.931 z"
   id="path3" />
			<path
   style="fill:#222221"
   d="m 135.158,99.481 h 3.931 v 19.38 h -3.931 z"
   id="path4" />
			<path
   style="fill:#222221"
   d="m 145.651,113.545 c 1.163,1.495 2.713,2.381 4.291,2.381 1.55,0 2.492,-0.831 2.492,-2.215 0,-3.572 -8.804,-2.603 -8.804,-9.164 0,-3.073 2.547,-5.62 6.257,-5.62 2.907,0 5.122,1.301 6.783,3.267 l -2.879,2.603 c -1.135,-1.467 -2.409,-2.436 -3.876,-2.436 -1.384,0 -2.298,0.886 -2.298,2.049 0,3.516 8.804,2.519 8.804,9.164 -0.055,3.655 -2.879,5.842 -6.451,5.842 -3.267,0 -5.454,-1.191 -7.171,-3.239 z"
   id="path5" />
			<path
   style="fill:#222221"
   d="m 158.434,99.481 h 15.892 v 3.572 h -5.98 v 15.809 h -3.931 v -15.809 h -5.98 v -3.572 z"
   id="path6" />
			<path
   style="fill:#222221"
   d="m 177.779,99.481 h 11.296 v 3.267 h -7.365 v 4.596 h 6.257 v 3.267 h -6.257 v 4.984 h 7.365 v 3.267 h -11.296 z m 0.332,-5.399 h 4.042 l 3.133,3.738 h -3.599 z"
   id="path7" />
			<path
   style="fill:#222221"
   d="m 193.667,99.481 h 5.925 c 4.264,0 6.894,2.187 6.894,5.786 0,2.353 -1.135,4.098 -3.129,5.011 l 6.063,8.583 h -4.624 l -5.177,-7.835 h -2.021 v 7.835 h -3.931 z m 3.931,3.267 v 5.011 h 2.215 c 1.661,0 2.63,-0.969 2.63,-2.547 0,-1.467 -0.969,-2.464 -2.63,-2.464 z"
   id="path8" />
			<path
   style="fill:#222221"
   d="m 211.932,99.481 h 11.296 v 3.267 h -7.365 v 4.596 h 6.257 v 3.267 h -6.257 v 4.984 h 7.365 v 3.267 h -11.296 z"
   id="path9" />
		</g>
		<g
   id="g31">
			<path
   style="fill:#222221"
   d="m 78.009,127.487 h 7.614 c 6.146,0 10.299,4.458 10.299,9.69 0,5.233 -4.153,9.69 -10.299,9.69 h -7.614 z m 3.931,3.572 v 12.237 h 3.738 c 3.599,0 6.202,-2.686 6.202,-6.119 0,-3.461 -2.603,-6.119 -6.202,-6.119 H 81.94 Z"
   id="path10" />
			<path
   style="fill:#222221"
   d="m 99.735,127.487 h 11.296 v 3.267 h -7.365 v 4.596 h 6.257 v 3.267 h -6.257 v 4.984 h 7.365 v 3.267 H 99.735 Z"
   id="path11" />
			<path
   style="fill:#222221"
   d="m 122.845,127.487 h 3.931 v 15.809 h 7.365 v 3.572 h -11.296 z"
   id="path12" />
			<path
   style="fill:#222221"
   d="m 142.522,127.487 h 5.15 l 7.337,19.38 h -4.181 l -1.855,-5.039 h -7.752 l -1.855,5.039 h -4.181 z m 5.233,10.992 -2.658,-7.282 -2.658,7.282 z"
   id="path13" />
			<path
   style="fill:#222221"
   d="m 166.352,141.552 c 1.163,1.495 2.713,2.381 4.291,2.381 1.55,0 2.492,-0.831 2.492,-2.215 0,-3.572 -8.804,-2.603 -8.804,-9.164 0,-3.073 2.547,-5.62 6.257,-5.62 2.907,0 5.122,1.301 6.783,3.267 l -2.879,2.603 c -1.135,-1.467 -2.409,-2.436 -3.876,-2.436 -1.384,0 -2.298,0.886 -2.298,2.049 0,3.516 8.804,2.519 8.804,9.164 -0.055,3.655 -2.879,5.842 -6.451,5.842 -3.267,0 -5.454,-1.191 -7.171,-3.239 z"
   id="path14" />
			<path
   style="fill:#222221"
   d="m 186.168,127.487 h 5.15 l 7.337,19.38 h -4.181 l -1.855,-5.039 h -7.752 l -1.855,5.039 h -4.181 z m 5.233,10.992 -2.658,-7.282 -2.658,7.282 z"
   id="path15" />
			<path
   style="fill:#222221"
   d="m 201.664,127.487 h 5.039 l 8.666,14.009 v -14.009 h 3.931 v 19.38 h -5.039 l -8.666,-14.009 v 14.009 h -3.931 z"
   id="path16" />
			<path
   style="fill:#222221"
   d="m 222.754,127.487 h 15.892 v 3.572 h -5.98 v 15.809 h -3.931 v -15.809 h -5.98 v -3.572 z"
   id="path17" />
			<path
   style="fill:#222221"
   d="m 242.13,127.487 h 11.296 v 3.267 h -7.365 v 4.596 h 6.257 v 3.267 h -6.257 v 4.984 h 7.365 v 3.267 H 242.13 Z m 3.821,-1.661 3.125,-3.738 h 4.042 l -3.599,3.738 z"
   id="path18" />
			<path
   style="fill:#222221"
   d="m 255.661,151.298 2.519,-8.278 h 3.959 l -3.212,8.278 z"
   id="path19" />
			<path
   style="fill:#222221"
   d="m 272.458,127.487 h 7.618 c 6.146,0 10.299,4.458 10.299,9.69 0,5.233 -4.153,9.69 -10.299,9.69 h -7.618 z m 3.932,3.572 v 12.237 h 3.742 c 3.599,0 6.202,-2.686 6.202,-6.119 0,-3.461 -2.603,-6.119 -6.202,-6.119 h -3.742 z"
   id="path20" />
			<path
   style="fill:#222221"
   d="m 294.188,127.487 h 11.296 v 3.267 h -7.365 v 4.596 h 6.257 v 3.267 h -6.257 v 4.984 h 7.365 v 3.267 h -11.296 z"
   id="path21" />
			<path
   style="fill:#222221"
   d="m 311.18,141.552 c 1.163,1.495 2.713,2.381 4.291,2.381 1.55,0 2.492,-0.831 2.492,-2.215 0,-3.572 -8.804,-2.603 -8.804,-9.164 0,-3.073 2.547,-5.62 6.257,-5.62 2.907,0 5.122,1.301 6.783,3.267 l -2.879,2.603 c -1.135,-1.467 -2.409,-2.436 -3.876,-2.436 -1.384,0 -2.298,0.886 -2.298,2.049 0,3.516 8.804,2.519 8.804,9.164 -0.055,3.655 -2.879,5.842 -6.451,5.842 -3.267,0 -5.454,-1.191 -7.171,-3.239 z"
   id="path22" />
			<path
   style="fill:#222221"
   d="m 333.321,127.487 h 11.296 v 3.267 h -7.365 v 4.596 h 6.257 v 3.267 h -6.257 v 8.251 h -3.931 z"
   id="path23" />
			<path
   style="fill:#222221"
   d="m 353.002,127.487 h 5.15 l 7.333,19.38 h -4.177 l -1.859,-5.039 h -7.752 l -1.851,5.039 h -4.185 z m 5.229,10.992 -2.658,-7.282 -2.658,7.282 z"
   id="path24" />
			<path
   style="fill:#222221"
   d="m 368.499,127.487 h 4.897 l 4.738,8.14 4.73,-8.14 h 4.904 v 19.38 h -3.931 v -13.899 l -4.319,7.254 h -2.769 l -4.319,-7.254 v 13.899 h -3.931 z"
   id="path25" />
			<path
   style="fill:#222221"
   d="m 393.183,127.487 h 3.931 v 19.38 h -3.931 z"
   id="path26" />
			<path
   style="fill:#222221"
   d="m 402.565,127.487 h 3.931 v 15.809 h 7.365 v 3.572 h -11.296 z"
   id="path27" />
			<path
   style="fill:#222221"
   d="m 417.345,127.487 h 3.931 v 15.809 h 7.365 v 3.572 h -11.296 z"
   id="path28" />
			<path
   style="fill:#222221"
   d="m 432.122,127.487 h 11.296 v 3.267 h -7.365 v 4.596 h 6.257 v 3.267 h -6.257 v 4.984 h 7.365 v 3.267 h -11.296 z"
   id="path29" />
			<path
   style="fill:#222221"
   d="m 449.117,141.552 c 1.163,1.495 2.713,2.381 4.291,2.381 1.55,0 2.492,-0.831 2.492,-2.215 0,-3.572 -8.804,-2.603 -8.804,-9.164 0,-3.073 2.547,-5.62 6.257,-5.62 2.907,0 5.122,1.301 6.783,3.267 l -2.879,2.603 c -1.135,-1.467 -2.409,-2.436 -3.876,-2.436 -1.384,0 -2.298,0.886 -2.298,2.049 0,3.516 8.804,2.519 8.804,9.164 -0.055,3.655 -2.879,5.842 -6.451,5.842 -3.267,0 -5.454,-1.191 -7.171,-3.239 z"
   id="path30" />
			<path
   style="fill:#222221"
   d="m 461.683,151.298 2.516,-8.278 h 3.963 l -3.212,8.278 z"
   id="path31" />
		</g>
		<g
   id="g44">
			<path
   style="fill:#222221"
   d="m 78.009,155.494 h 7.614 c 6.146,0 10.299,4.458 10.299,9.69 0,5.232 -4.153,9.69 -10.299,9.69 h -7.614 z m 3.931,3.572 v 12.237 h 3.738 c 3.599,0 6.202,-2.686 6.202,-6.119 0,-3.461 -2.603,-6.119 -6.202,-6.119 H 81.94 Z"
   id="path32" />
			<path
   style="fill:#222221"
   d="m 100.095,155.494 h 11.296 v 3.267 h -7.365 v 4.596 h 6.257 v 3.267 h -6.257 v 4.984 h 7.365 v 3.267 h -11.296 z"
   id="path33" />
			<path
   style="fill:#222221"
   d="m 123.925,155.494 h 3.931 v 15.809 h 7.365 v 3.572 h -11.296 z"
   id="path34" />
			<path
   style="fill:#222221"
   d="m 136.708,163.468 2.492,-7.974 h 3.987 l -3.212,7.974 z"
   id="path35" />
			<path
   style="fill:#222221"
   d="m 151.548,155.494 h 5.15 l 7.333,19.38 h -4.177 l -1.859,-5.039 h -7.752 l -1.851,5.039 h -4.185 z m 5.229,10.992 -2.658,-7.282 -2.658,7.282 z"
   id="path36" />
			<path
   style="fill:#222221"
   d="m 178.617,155.494 h 3.931 v 11.794 c 0,5.094 -2.99,8.14 -7.863,8.14 -4.849,0 -7.839,-3.046 -7.839,-8.14 v -11.794 h 3.931 v 12.127 c 0,2.603 1.471,4.125 3.931,4.125 2.413,0 3.908,-1.523 3.908,-4.125 v -12.127 z"
   id="path37" />
			<path
   style="fill:#222221"
   d="M 185.808,155.494 H 201.7 v 3.572 h -5.98 v 15.809 h -3.931 v -15.809 h -5.98 v -3.572 z"
   id="path38" />
			<path
   style="fill:#222221"
   d="m 224.45,165.184 c 0,5.537 -4.181,10.244 -10.272,10.244 -6.119,0 -10.299,-4.707 -10.299,-10.244 0,-5.537 4.181,-10.244 10.299,-10.244 6.092,0 10.272,4.707 10.272,10.244 z m -4.042,0 c 0,-3.71 -2.603,-6.562 -6.229,-6.562 -3.655,0 -6.257,2.852 -6.257,6.562 0,3.71 2.603,6.562 6.257,6.562 3.627,0 6.229,-2.852 6.229,-6.562 z"
   id="path39" />
			<path
   style="fill:#222221"
   d="m 228.595,155.494 h 5.039 l 8.666,14.009 v -14.009 h 3.931 v 19.38 h -5.039 l -8.666,-14.009 v 14.009 h -3.931 z"
   id="path40" />
			<path
   style="fill:#222221"
   d="m 270.948,165.184 c 0,5.537 -4.185,10.244 -10.276,10.244 -6.115,0 -10.299,-4.707 -10.299,-10.244 0,-5.537 4.185,-10.244 10.299,-10.244 6.091,0 10.276,4.707 10.276,10.244 z m -4.043,0 c 0,-3.71 -2.603,-6.562 -6.233,-6.562 -3.655,0 -6.257,2.852 -6.257,6.562 0,3.71 2.603,6.562 6.257,6.562 3.631,0 6.233,-2.852 6.233,-6.562 z"
   id="path41" />
			<path
   style="fill:#222221"
   d="m 275.093,155.494 h 4.897 l 4.738,8.14 4.73,-8.14 h 4.904 v 19.38 h -3.931 v -13.899 l -4.319,7.254 h -2.769 l -4.319,-7.254 v 13.899 h -3.931 z"
   id="path42" />
			<path
   style="fill:#222221"
   d="m 300.137,155.494 h 3.931 v 19.38 h -3.931 z"
   id="path43" />
			<path
   style="fill:#222221"
   d="m 309.879,155.494 h 11.296 v 3.267 h -7.365 v 4.596 h 6.257 v 3.267 h -6.257 v 4.984 h 7.365 v 3.267 h -11.296 z"
   id="path44" />
		</g>
		<g
   id="g69">
			<path
   style="fill:#222221"
   d="m 78.009,183.505 h 11.296 v 3.267 H 81.94 v 4.596 h 6.257 v 3.267 H 81.94 v 4.984 h 7.365 v 3.267 H 78.009 Z"
   id="path45" />
			<path
   style="fill:#222221"
   d="m 92.093,183.505 h 15.892 v 3.572 h -5.98 v 15.809 h -3.931 v -15.809 h -5.98 v -3.572 z"
   id="path46" />
			<path
   style="fill:#222221"
   d="m 119.08,183.505 h 7.614 c 6.146,0 10.299,4.458 10.299,9.69 0,5.232 -4.153,9.69 -10.299,9.69 h -7.614 z m 3.931,3.571 v 12.237 h 3.738 c 3.599,0 6.202,-2.686 6.202,-6.119 0,-3.461 -2.603,-6.119 -6.202,-6.119 h -3.738 z"
   id="path47" />
			<path
   style="fill:#222221"
   d="m 141,183.505 h 11.296 v 3.267 h -7.365 v 4.596 h 6.257 v 3.267 h -6.257 v 4.984 h 7.365 v 3.267 H 141 Z"
   id="path48" />
			<path
   style="fill:#222221"
   d="m 158.185,197.569 c 1.163,1.495 2.713,2.381 4.295,2.381 1.55,0 2.492,-0.831 2.492,-2.215 0,-3.572 -8.804,-2.603 -8.804,-9.164 0,-3.073 2.547,-5.62 6.257,-5.62 2.903,0 5.118,1.301 6.779,3.267 l -2.879,2.603 c -1.131,-1.467 -2.405,-2.436 -3.876,-2.436 -1.384,0 -2.294,0.886 -2.294,2.049 0,3.516 8.804,2.519 8.804,9.164 -0.055,3.655 -2.879,5.842 -6.455,5.842 -3.267,0 -5.45,-1.191 -7.167,-3.239 z"
   id="path49" />
			<path
   style="fill:#222221"
   d="m 180.714,183.505 h 6.396 c 4.264,0 6.866,2.187 6.866,5.786 0,3.572 -2.603,5.759 -6.866,5.759 h -2.464 v 7.835 h -3.931 v -19.38 z m 3.931,3.267 v 5.011 h 2.63 c 1.661,0 2.658,-0.969 2.658,-2.547 0,-1.467 -0.997,-2.464 -2.658,-2.464 z"
   id="path50" />
			<path
   style="fill:#222221"
   d="m 197.432,183.505 h 11.296 v 3.267 h -7.365 v 4.596 h 6.257 v 3.267 h -6.257 v 4.984 h 7.365 v 3.267 h -11.296 z"
   id="path51" />
			<path
   style="fill:#222221"
   d="m 213.51,183.505 h 5.925 c 4.264,0 6.894,2.187 6.894,5.786 0,2.353 -1.135,4.098 -3.129,5.011 l 6.063,8.583 h -4.624 l -5.177,-7.835 h -2.021 v 7.835 h -3.931 z m 3.932,3.267 v 5.011 h 2.215 c 1.661,0 2.63,-0.969 2.63,-2.547 0,-1.467 -0.969,-2.464 -2.63,-2.464 z"
   id="path52" />
			<path
   style="fill:#222221"
   d="m 233.081,197.569 c 1.163,1.495 2.713,2.381 4.287,2.381 1.55,0 2.492,-0.831 2.492,-2.215 0,-3.572 -8.804,-2.603 -8.804,-9.164 0,-3.073 2.547,-5.62 6.257,-5.62 2.911,0 5.126,1.301 6.787,3.267 l -2.879,2.603 c -1.139,-1.467 -2.413,-2.436 -3.876,-2.436 -1.384,0 -2.302,0.886 -2.302,2.049 0,3.516 8.804,2.519 8.804,9.164 -0.055,3.655 -2.879,5.842 -6.447,5.842 -3.267,0 -5.458,-1.191 -7.175,-3.239 z"
   id="path53" />
			<path
   style="fill:#222221"
   d="m 267.099,193.195 c 0,5.537 -4.181,10.244 -10.272,10.244 -6.119,0 -10.299,-4.707 -10.299,-10.244 0,-5.537 4.181,-10.244 10.299,-10.244 6.092,0 10.272,4.707 10.272,10.244 z m -4.042,0 c 0,-3.71 -2.603,-6.562 -6.229,-6.562 -3.655,0 -6.257,2.852 -6.257,6.562 0,3.71 2.603,6.562 6.257,6.562 3.626,0 6.229,-2.852 6.229,-6.562 z"
   id="path54" />
			<path
   style="fill:#222221"
   d="m 271.078,183.505 h 5.039 l 8.666,14.009 v -14.009 h 3.931 v 19.38 h -5.039 l -8.666,-14.009 v 14.009 h -3.931 z"
   id="path55" />
			<path
   style="fill:#222221"
   d="m 294.354,183.505 h 5.039 l 8.662,14.009 v -14.009 h 3.931 v 19.38 h -5.039 l -8.662,-14.009 v 14.009 h -3.931 z"
   id="path56" />
			<path
   style="fill:#222221"
   d="m 317.627,183.505 h 11.296 v 3.267 h -7.365 v 4.596 h 6.257 v 3.267 h -6.257 v 4.984 h 7.365 v 3.267 h -11.296 z"
   id="path57" />
			<path
   style="fill:#222221"
   d="m 334.816,197.569 c 1.163,1.495 2.713,2.381 4.291,2.381 1.55,0 2.492,-0.831 2.492,-2.215 0,-3.572 -8.804,-2.603 -8.804,-9.164 0,-3.073 2.547,-5.62 6.257,-5.62 2.907,0 5.122,1.301 6.783,3.267 l -2.879,2.603 c -1.135,-1.467 -2.409,-2.436 -3.876,-2.436 -1.384,0 -2.298,0.886 -2.298,2.049 0,3.516 8.804,2.519 8.804,9.164 -0.055,3.655 -2.879,5.842 -6.451,5.842 -3.267,0 -5.454,-1.191 -7.171,-3.239 z"
   id="path58" />
			<path
   style="fill:#222221"
   d="m 357.345,183.505 h 3.931 v 7.725 h 9.769 v -7.725 h 3.931 v 19.38 h -3.931 v -8.084 h -9.769 v 8.084 h -3.931 z"
   id="path59" />
			<path
   style="fill:#222221"
   d="m 385.522,183.505 h 5.15 l 7.333,19.38 h -4.177 l -1.859,-5.039 h -7.752 l -1.851,5.039 h -4.185 z m 5.229,10.991 -2.658,-7.282 -2.658,7.282 z"
   id="path60" />
			<path
   style="fill:#222221"
   d="m 401.208,183.505 h 5.039 l 8.67,14.009 v -14.009 h 3.931 v 19.38 h -5.039 l -8.67,-14.009 v 14.009 h -3.931 z"
   id="path61" />
			<path
   style="fill:#222221"
   d="m 424.488,183.505 h 7.61 c 6.146,0 10.299,4.458 10.299,9.69 0,5.232 -4.153,9.69 -10.299,9.69 h -7.61 z m 3.932,3.571 v 12.237 h 3.734 c 3.599,0 6.202,-2.686 6.202,-6.119 0,-3.461 -2.603,-6.119 -6.202,-6.119 h -3.734 z"
   id="path62" />
			<path
   style="fill:#222221"
   d="m 446.404,183.505 h 3.931 v 19.38 h -3.931 z"
   id="path63" />
			<path
   style="fill:#222221"
   d="m 469.689,197.099 3.101,2.381 c -1.772,2.409 -4.651,3.959 -8.171,3.959 -6.115,0 -10.299,-4.707 -10.299,-10.244 0,-5.537 4.185,-10.244 10.299,-10.244 3.52,0 6.4,1.578 8.171,3.931 l -3.101,2.409 c -1.107,-1.578 -2.856,-2.658 -5.071,-2.658 -3.655,0 -6.257,2.852 -6.257,6.562 0,3.71 2.603,6.562 6.257,6.562 2.215,0 3.963,-1.08 5.071,-2.658 z"
   id="path64" />
			<path
   style="fill:#222221"
   d="m 481.309,183.505 h 5.15 l 7.333,19.38 h -4.177 l -1.859,-5.039 h -7.752 l -1.851,5.039 h -4.185 z m 5.229,10.991 -2.658,-7.282 -2.658,7.282 z"
   id="path65" />
			<path
   style="fill:#222221"
   d="m 496.995,183.505 h 6.4 c 4.264,0 6.866,2.187 6.866,5.786 0,3.572 -2.603,5.759 -6.866,5.759 h -2.468 v 7.835 h -3.931 v -19.38 z m 3.932,3.267 v 5.011 h 2.634 c 1.661,0 2.658,-0.969 2.658,-2.547 0,-1.467 -0.997,-2.464 -2.658,-2.464 z"
   id="path66" />
			<path
   style="fill:#222221"
   d="m 513.714,183.505 h 11.296 v 3.267 h -7.365 v 4.596 h 6.257 v 3.267 h -6.257 v 4.984 h 7.365 v 3.267 h -11.296 z m 3.821,-1.661 3.129,-3.738 h 4.042 l -3.599,3.738 z"
   id="path67" />
			<path
   style="fill:#222221"
   d="m 529.792,183.505 h 11.296 v 3.267 h -7.365 v 4.596 h 6.257 v 3.267 h -6.257 v 4.984 h 7.365 v 3.267 h -11.296 z"
   id="path68" />
			<path
   style="fill:#222221"
   d="m 546.981,197.569 c 1.163,1.495 2.713,2.381 4.291,2.381 1.55,0 2.492,-0.831 2.492,-2.215 0,-3.572 -8.804,-2.603 -8.804,-9.164 0,-3.073 2.547,-5.62 6.257,-5.62 2.907,0 5.122,1.301 6.783,3.267 l -2.879,2.603 c -1.135,-1.467 -2.409,-2.436 -3.876,-2.436 -1.384,0 -2.298,0.886 -2.298,2.049 0,3.516 8.804,2.519 8.804,9.164 -0.055,3.655 -2.879,5.842 -6.451,5.842 -3.267,0 -5.454,-1.191 -7.171,-3.239 z"
   id="path69" />
		</g>
		<path
   style="fill:#2f3772"
   d="m 101.226,83.343 c 0.008,-0.004 0.012,-0.008 0.02,-0.012 0.069,-0.032 0.134,-0.073 0.19,-0.126 -0.008,0 -0.016,-0.004 -0.02,-0.008 -0.069,0.048 -0.125,0.093 -0.19,0.146"
   id="path70" />
		<path
   style="fill:#2f3772"
   d="m 110.699,80.183 c -0.02,0.016 -0.044,0.032 -0.065,0.049 0.036,-0.005 0.065,-0.013 0.065,-0.049"
   id="path71" />
		<path
   style="fill:#2f3772"
   d="m 107.707,83.487 c 0.28,-0.275 0.559,-0.575 0.834,-0.875 h -0.004 c 0.518,-0.587 1.029,-1.146 1.632,-1.661 0.182,-0.166 0.36,-0.312 0.53,-0.425 0.048,-0.053 0.048,-0.146 0.097,-0.198 -0.243,0.101 -0.393,0.296 -0.636,0.393 -0.049,0 -0.097,-0.049 -0.049,-0.097 0.174,-0.13 0.348,-0.263 0.523,-0.393 h -0.037 c -0.044,0 -0.044,-0.049 -0.044,-0.097 -0.64,-0.097 -1.126,0.34 -1.563,0.733 -0.101,0.049 -0.199,-0.049 -0.247,-0.049 -0.729,0.243 -1.268,0.879 -2.005,1.17 v -0.093 c -0.291,0.093 -0.575,0.271 -0.879,0.34 -0.437,0.097 -0.83,0.049 -1.219,0.049 -0.591,0.057 -1.183,0.19 -1.778,0.316 -0.016,0.004 -0.037,0.008 -0.053,0.012 -0.316,0.089 -0.616,0.207 -0.907,0.369 -0.012,0.008 -0.024,0.012 -0.037,0.02 -0.024,0.028 -0.048,0.057 -0.069,0.085 -0.105,0.113 -0.195,0.219 -0.336,0.292 -0.3,0.15 -0.543,0.417 -0.81,0.636 -0.02,0.012 -0.048,0.02 -0.077,0.02 -0.263,0.255 -0.518,0.506 -0.79,0.753 -0.02,0.02 -0.093,0.028 -0.146,0.02 0,-0.004 0,-0.004 0.004,-0.004 0.008,-0.016 0.016,-0.032 0.028,-0.049 0.041,-0.065 0.085,-0.138 0.122,-0.207 0.048,-0.073 0.101,-0.15 0.146,-0.223 0.069,-0.101 0.138,-0.203 0.211,-0.3 0.016,-0.024 0.012,-0.049 -0.004,-0.065 -0.016,-0.016 -0.041,-0.024 -0.065,-0.024 0.243,-0.239 0.53,-0.437 0.818,-0.612 v -0.008 c -0.032,0.012 -0.081,-0.016 -0.057,-0.053 0.032,-0.041 0.057,-0.089 0.089,-0.13 0.004,-0.016 0.008,-0.032 0.012,-0.045 -0.008,-0.012 -0.024,-0.024 -0.037,-0.04 -0.081,0.053 -0.162,0.101 -0.231,0.162 -0.113,0.105 -0.206,0.32 -0.385,0.32 -0.012,0 -0.044,-0.004 -0.073,-0.012 -0.02,-0.004 -0.041,-0.008 -0.053,-0.016 0.004,-0.004 0.004,-0.008 0.008,-0.012 0,-0.004 0.004,-0.008 0.004,-0.012 0.004,-0.004 0.008,-0.008 0.008,-0.012 0.008,-0.016 0.016,-0.032 0.024,-0.045 l 0.024,-0.04 c 0.008,-0.012 0.012,-0.024 0.02,-0.036 0.012,-0.016 0.02,-0.04 0.032,-0.061 0.008,-0.016 0.016,-0.028 0.024,-0.045 0.02,-0.036 0.044,-0.069 0.065,-0.105 0.008,-0.02 0.02,-0.036 0.032,-0.053 0.016,-0.028 0.028,-0.061 0.049,-0.089 0.024,-0.041 -0.004,-0.073 -0.037,-0.089 0.089,-0.117 0.199,-0.215 0.336,-0.292 h -0.016 c 0.19,-0.093 0.373,-0.207 0.559,-0.312 0.028,-0.024 0.057,-0.049 0.085,-0.069 -0.28,0.093 -0.531,0.219 -0.782,0.381 0,0 -0.061,0.028 -0.081,0.049 0,0 -0.057,0.016 -0.122,-0.049 -0.004,-0.008 -0.012,-0.02 -0.012,-0.032 0.049,-0.097 0.199,-0.15 0.296,-0.247 0.049,0 0.093,0 0.093,0.049 1.567,-1.223 3.714,-0.927 5.524,-1.563 0.146,-0.097 0.291,-0.194 0.437,-0.292 0.247,-0.097 0.446,-0.344 0.737,-0.49 0.389,-0.292 0.684,-0.636 0.83,-1.122 0,-0.049 -0.053,-0.101 -0.053,-0.101 -0.632,0.684 -1.365,1.223 -2.147,1.616 -1.029,0.539 -2.151,0.437 -3.228,0.583 0.053,-0.097 0.15,-0.097 0.247,-0.097 0,-0.146 0.097,-0.194 0.194,-0.292 h 0.15 c 0.045,0 0.045,-0.097 0.093,-0.097 0.097,0 0.247,-0.053 0.199,-0.053 -0.146,-0.19 -0.441,0.15 -0.684,0 0.097,-0.093 0.049,-0.243 0.146,-0.292 h 0.194 c 0,-0.097 0.097,-0.194 0.097,-0.194 0.733,-0.441 1.417,-0.782 2.102,-1.175 -0.146,0 -0.243,0.146 -0.393,0.053 0.101,0 0,-0.15 0.101,-0.15 0.535,-0.146 0.976,-0.437 1.515,-0.632 -0.195,0 -0.34,0.146 -0.539,0 0.097,-0.053 0.146,-0.146 0.291,-0.146 v -0.15 c 0,-0.049 0.053,-0.049 0.097,-0.049 -0.045,0 -0.097,-0.049 -0.097,-0.049 0.053,-0.097 0.199,-0.049 0.296,-0.146 -0.049,0 -0.15,0 -0.15,-0.049 0.15,-0.198 0.393,-0.243 0.636,-0.296 -0.045,-0.097 -0.19,0 -0.19,-0.097 0,-0.049 0.044,-0.049 0.093,-0.049 h -0.093 c -0.101,-0.049 -0.053,-0.146 -0.053,-0.194 0.291,-0.344 0.291,-0.782 0.437,-1.175 -0.044,0 -0.093,0 -0.093,-0.049 -0.49,0.539 -1.272,0.733 -2.005,0.932 h -0.247 c -0.239,0.097 -0.583,0.097 -0.83,-0.053 -0.194,-0.093 -0.292,-0.243 -0.486,-0.389 -0.393,-0.243 -0.782,-0.441 -1.223,-0.587 -1.223,-0.389 -2.491,-0.583 -3.763,-0.539 0.539,-0.292 1.134,-0.316 1.709,-0.486 0.83,-0.247 1.616,-0.539 2.495,-0.49 -0.15,-0.049 -0.34,0 -0.49,0 -0.684,-0.049 -1.365,0.146 -2.102,0.292 -0.486,0.101 -0.927,0.296 -1.417,0.393 -0.292,0.097 -0.438,0.389 -0.778,0.344 V 74.9 c 0.486,-0.587 1.073,-1.17 1.855,-1.219 0.879,-0.146 1.709,0 2.592,0.097 0.632,0.049 1.219,0.194 1.855,0.34 0.243,0 0.292,0.393 0.49,0.441 0.292,0.097 0.583,0 0.875,0.194 0,-0.097 -0.044,-0.194 0,-0.292 0.199,-0.198 0.441,0.049 0.64,-0.049 0.389,-0.247 -0.344,-0.684 -0.539,-1.029 0,-0.049 0.049,-0.097 0.049,-0.097 0.389,0.344 0.685,0.733 1.174,0.976 0.239,0.101 0.83,0.247 0.729,-0.045 -0.243,-0.539 -0.729,-0.98 -1.122,-1.466 V 72.56 c -0.097,0 -0.097,-0.049 -0.146,-0.097 v -0.194 c -0.199,-0.097 -0.146,-0.296 -0.247,-0.441 -0.146,-0.243 -0.044,-0.583 -0.146,-0.879 -0.097,-0.292 -0.146,-0.535 -0.194,-0.83 -0.146,-0.83 -0.344,-1.563 -0.441,-2.345 -0.097,-0.927 0.539,-1.661 0.976,-2.491 0.344,-0.587 0.737,-1.175 1.369,-1.563 0.146,-0.587 0.539,-1.077 0.931,-1.563 0.389,-0.478 1.037,-0.77 1.507,-0.98 0.684,-0.304 1.3,-0.494 1.3,-0.494 H 78.092 v 25.856 h 23.969 c 0.927,-0.668 1.859,-0.988 3.155,-1.628 0.616,-0.306 2.017,-0.946 2.491,-1.424 m -7.513,-3.499 c -0.097,0 -0.292,0.049 -0.247,-0.049 0.053,-0.243 0.393,-0.243 0.587,-0.34 0.097,-0.053 0.243,-0.146 0.344,-0.101 0.097,0.146 0.243,0.101 0.34,0.198 -0.291,0.292 -0.684,0.146 -1.024,0.292 m -7.477,-1.074 c 0,0 -0.044,-0.049 -0.044,-0.101 0.632,-0.83 1.122,-1.612 1.559,-2.491 0.636,-0.34 1.162,-0.838 1.66,-1.365 0.83,-0.883 1.709,-1.665 2.738,-2.155 0.393,-0.146 0.879,-0.093 1.272,0.053 -0.146,0.194 -0.393,0.146 -0.587,0.292 -0.053,0 -0.097,0 -0.146,-0.049 0.048,-0.049 0.048,-0.097 0.048,-0.146 -0.49,0.535 -1.17,0.782 -1.563,1.418 -0.296,0.486 -0.49,1.122 -1.122,1.268 -0.199,0.049 0.045,-0.146 -0.053,-0.097 -1.514,0.927 -2.591,2.053 -3.762,3.373 m 4.055,-3.228 c -0.048,0.097 -0.101,0.109 -0.146,0.198 -0.048,0.097 -0.093,0.146 -0.194,0.194 -0.049,0 -0.097,0 -0.097,-0.049 0.048,-0.198 0.199,-0.393 0.389,-0.441 0.048,0.001 0.048,0.05 0.048,0.098 m 2.272,7.323 c -0.024,0.053 -0.073,0.097 -0.122,0.142 0.061,0.012 0.105,0.04 0.065,0.077 -0.113,0.105 -0.223,0.207 -0.373,0.259 -0.008,0.004 -0.036,0.008 -0.073,0.008 -0.061,0.057 -0.121,0.117 -0.182,0.17 -0.061,0.053 -0.324,0.016 -0.247,-0.057 0.13,-0.109 0.243,-0.231 0.365,-0.344 0.069,-0.061 0.142,-0.122 0.202,-0.19 0.037,-0.04 0.065,-0.077 0.105,-0.109 0.041,-0.029 0.3,-0.053 0.26,0.044 m -0.875,-0.405 c -0.004,0.004 -0.008,0.008 -0.012,0.008 -0.186,0.13 -0.369,0.263 -0.563,0.373 -0.202,0.121 -0.425,0.215 -0.64,0.316 -0.004,-0.004 -0.004,-0.008 -0.008,-0.012 -0.016,-0.02 -0.053,-0.036 -0.081,-0.02 -0.186,0.101 -0.34,0.235 -0.49,0.377 -0.024,0.024 -0.049,0.045 -0.069,0.065 l -0.004,0.004 c -0.004,0 -0.004,0.004 -0.004,0.004 -0.024,0.024 -0.048,0.044 -0.073,0.069 -0.004,0.004 -0.004,0.004 -0.008,0.008 V 83.8 c -0.037,0.036 -0.069,0.069 -0.11,0.117 -0.024,0.024 -0.032,0.045 -0.061,0.065 -0.033,0.024 -0.118,0.02 -0.11,-0.036 v -0.008 c -0.028,0.016 -0.057,0.032 -0.085,0.044 -0.028,0.012 -0.053,0.028 -0.077,0.041 -0.012,-0.004 -0.024,-0.004 -0.037,-0.004 -0.012,0 -0.024,0.004 -0.032,0.012 -0.061,0.049 -0.121,0.097 -0.174,0.15 -0.105,0.089 -0.199,0.19 -0.287,0.3 0,0.004 -0.004,0.004 -0.004,0.004 -0.004,0.004 -0.008,0.012 -0.008,0.016 -0.008,0.004 -0.012,0.012 -0.016,0.016 -0.004,0.008 -0.012,0.012 -0.012,0.02 C 95.2,84.54 95.2,84.54 95.2,84.544 l -0.036,0.049 v 0.004 c -0.008,0.008 -0.024,0.012 -0.041,0.016 -0.008,-0.008 -0.016,-0.016 -0.02,-0.028 -0.004,-0.008 -0.012,-0.016 -0.016,-0.024 -0.012,-0.024 -0.028,-0.049 -0.041,-0.077 0,0 0,-0.004 -0.004,-0.004 l -0.008,-0.024 c 0.053,-0.057 0.105,-0.113 0.154,-0.174 L 95.2,84.27 c 0.012,-0.02 0.028,-0.04 0.049,-0.065 0.028,-0.032 0.053,-0.069 0.081,-0.105 0.012,-0.008 0.02,-0.024 0.032,-0.036 0.048,-0.069 0.101,-0.138 0.15,-0.207 l 0.004,-0.004 c 0.008,-0.012 0.016,-0.02 0.024,-0.032 0.02,-0.036 0.04,-0.069 0.065,-0.105 0.016,-0.032 0.036,-0.065 0.053,-0.097 0,-0.004 0.004,-0.004 0.004,-0.008 0.004,-0.004 0.004,-0.008 0.004,-0.008 0.004,-0.008 0.008,-0.012 0.008,-0.016 0.02,-0.04 0.037,-0.077 0.044,-0.117 0.004,-0.004 0.004,-0.008 0.004,-0.012 0.004,-0.012 0.008,-0.02 0.012,-0.032 0.004,-0.016 0.012,-0.036 0.016,-0.053 0,-0.004 0,-0.008 0.004,-0.012 0.004,-0.024 0.012,-0.049 0.016,-0.073 0.004,-0.012 0,-0.024 -0.008,-0.032 0.057,-0.089 0.117,-0.178 0.194,-0.263 -0.004,0.004 -0.016,0.008 -0.02,0.012 -0.069,0.045 -0.117,0.109 -0.182,0.158 -0.053,0.036 -0.15,-0.028 -0.085,-0.073 0.041,-0.032 0.073,-0.069 0.109,-0.101 0,-0.004 0,-0.004 0.004,-0.008 0.081,-0.081 0.158,-0.182 0.251,-0.247 0.053,-0.045 0.105,-0.077 0.15,-0.117 0.008,-0.004 0.016,-0.012 0.02,-0.02 0.032,-0.041 0.069,-0.085 0.109,-0.122 l 0.004,-0.004 c 0.47,-0.454 1.256,-0.433 1.871,-0.721 0.243,-0.097 0.539,0.049 0.782,0 0.146,0 0.291,0 0.442,0.097 -0.44,0.234 -0.841,0.506 -1.242,0.757 m 1,-3.398 c -0.053,-0.049 0.146,0 0.194,-0.097 H 98.97 c -0.049,0 -0.049,-0.049 -0.049,-0.097 -0.243,0.049 -0.535,0.146 -0.782,0.194 -0.34,0.097 -0.632,0.34 -1.025,0.437 -0.539,0.199 -0.976,0.64 -1.567,0.83 -0.045,0 -0.045,-0.045 -0.045,-0.093 0.045,-0.15 0.243,-0.198 0.34,-0.344 0,-0.049 0,-0.097 -0.048,-0.097 0.393,-0.539 0.927,-0.83 1.422,-1.272 v -0.146 c 0.142,-0.194 0.385,-0.292 0.486,-0.539 0.044,-0.146 0.243,-0.34 0.486,-0.437 -0.049,-0.049 -0.142,-0.049 -0.142,-0.146 -0.199,0 -0.393,0.097 -0.591,-0.049 0.093,-0.093 0.199,-0.142 0.308,-0.174 -0.04,-0.008 -0.081,-0.028 -0.109,-0.073 -0.053,-0.097 0.089,-0.207 0.243,-0.243 0.194,-0.049 0.441,-0.049 0.587,-0.194 -0.344,-0.053 -0.737,0.097 -1.077,-0.097 0.247,-0.636 0.64,-1.175 1.223,-1.47 0.048,0 0.146,0 0.146,0.053 0,0.243 -0.146,0.437 -0.389,0.486 0.389,0.101 0.782,0.101 1.17,0.296 -0.048,0.097 -0.146,0.049 -0.194,0.049 0.243,0.146 0.539,0.049 0.782,0.243 -0.146,0.146 -0.291,0 -0.442,0 1.515,0.441 3.127,0.782 4.398,1.758 -1.073,0.539 -2.199,0.786 -3.37,1.029 -0.146,0 -0.247,0 -0.393,-0.053 0,0.053 0,0.15 -0.049,0.15 -0.194,0 -0.344,0 -0.49,0.097 -0.192,0.096 -0.484,0.145 -0.63,-10e-4"
   id="path72" />
		<path
   style="fill:#c20e1a"
   d="m 149.42,60.679 h -27.816 c 0,0 0.053,0.008 0.263,0.122 0.227,0.121 0.518,0.279 0.701,0.377 0.36,0.186 0.709,0.421 0.936,0.778 0.097,0.15 0.243,0.441 0.146,0.636 -0.101,0.247 -0.146,0.636 -0.393,0.733 -0.292,0.146 -0.684,0.146 -1.025,0.097 -0.198,0 -0.393,-0.045 -0.587,-0.097 0.733,0.296 1.417,0.636 1.903,1.32 0.053,0.097 0.247,0.146 0.441,0.146 0.049,0 0.049,0.101 0.049,0.146 -0.097,0.101 -0.195,0.15 -0.146,0.296 h 0.146 c 0.247,-0.097 0.194,-0.587 0.539,-0.441 0.243,0.146 0.34,0.49 0.194,0.733 -0.194,0.198 -0.393,0.344 -0.583,0.49 -0.053,0.097 -0.053,0.243 0,0.34 0.146,0.198 0.19,0.393 0.243,0.587 0.146,0.34 0.194,0.733 0.34,1.077 0.195,0.733 0.393,1.462 0.34,2.195 0,0.393 -0.194,0.733 -0.048,1.126 0.101,0.393 0.344,0.684 0.539,1.025 0.194,0.296 0.393,0.49 0.539,0.782 0.292,0.49 0.83,0.976 0.583,1.563 -0.146,0.344 -0.68,0.296 -1.021,0.49 -0.296,0.247 -0.053,0.636 0.093,0.879 0.247,0.441 -0.291,0.733 -0.632,0.879 0.093,0.15 0.292,0.097 0.34,0.194 0.048,0.247 0.291,0.393 0.146,0.64 -0.194,0.292 -0.782,0.437 -0.486,0.875 0.195,0.344 0.065,0.725 -0.053,1.077 -0.146,0.437 -0.534,0.636 -0.879,0.733 -0.292,0.097 -0.632,0.097 -0.927,0.049 -0.097,-0.049 -0.194,-0.097 -0.296,-0.097 -0.83,-0.097 -1.66,-0.34 -2.491,-0.34 -0.243,0.049 -0.486,0.093 -0.685,0.194 -0.219,0.162 -0.413,0.336 -0.587,0.523 -0.004,0 -0.004,0.004 -0.008,0.004 l -0.11,0.121 c -0.016,0.024 -0.036,0.049 -0.061,0.073 -0.012,0.016 -0.028,0.032 -0.04,0.053 -0.142,0.178 -0.271,0.365 -0.385,0.559 -0.008,0.016 -0.016,0.028 -0.02,0.04 -0.012,0.024 -0.024,0.045 -0.036,0.069 -0.162,0.296 -0.287,0.599 -0.373,0.895 -0.332,1.118 -0.186,2.078 0.049,2.313 0.061,0.065 1.608,0.543 2.689,1.021 0.506,0.227 0.859,0.401 1.154,0.583 h 27.314 V 60.679 Z"
   id="path73" />
		<path
   style="fill:#9c9b9b"
   d="m 123.257,70.113 c 0.199,0.049 0.49,0.049 0.49,0.146 -0.097,0.393 -0.685,0.49 -0.976,0.879 h -0.146 c -0.146,0.097 -0.101,0.344 -0.247,0.344 -0.146,-0.049 -0.292,0 -0.438,0.049 0.195,0.194 0.438,0.344 0.729,0.292 0.049,0 0.15,0.097 0.15,0.198 0,0 0.044,0 0.097,-0.053 0.049,0 0.097,0 0.097,0.053 v 0.194 c -0.15,0.194 -0.389,0.097 -0.587,0.146 0.393,0.097 0.782,0.097 1.122,0 0.3,-0.097 0,-0.587 0.199,-0.83 -0.097,0 0,-0.146 -0.097,-0.146 0.097,-0.097 0.199,-0.247 0.292,-0.296 0.097,0 0.243,-0.049 0.292,-0.146 0,-0.097 -0.195,-0.146 -0.146,-0.243 0.292,-0.194 0.539,-0.49 0.441,-0.782 -0.049,-0.146 -0.441,-0.146 -0.681,-0.243 -0.247,-0.101 -0.539,0 -0.834,0.049 -0.243,0 -0.49,0.146 -0.733,0.194 -0.34,0.097 -0.632,0.292 -0.932,0.486 0.344,-0.146 0.684,-0.194 1.077,-0.292 0.292,0.001 0.543,-0.072 0.831,0.001"
   id="path74" />
		<path
   style="fill:#222221"
   d="m 141.223,256.626 c 0.527,0 0.984,0.401 0.737,1.414 l -2.446,0.567 c 0.425,-1.139 1.138,-1.981 1.709,-1.981 m 1.352,3.949 h -0.486 c -0.612,0.725 -1.268,1.292 -1.92,1.292 -0.672,0 -1.013,-0.397 -1.013,-1.292 0,-0.373 0.044,-0.745 0.113,-1.085 l 3.945,-1.296 c 0.77,-1.823 -0.154,-2.62 -1.239,-2.62 -1.867,0 -3.985,3.119 -3.985,5.856 0,1.223 0.579,1.891 1.494,1.891 1.07,0 2.18,-1.041 3.091,-2.746 m -0.785,-5.727 2.778,-2.592 v -0.3 h -1.495 l -1.709,2.892 z m -8.514,1.823 h 1.308 l -2.078,5.682 c -0.186,0.486 0.073,0.968 0.571,0.968 1.178,0 3.09,-1.166 3.758,-2.762 h -0.369 c -0.53,0.555 -1.539,1.296 -2.41,1.454 l 1.912,-5.342 h 1.948 l 0.243,-0.81 h -1.896 l 0.729,-2.053 h -0.757 l -1.353,2.053 -1.608,0.227 v 0.583 z m -1.766,-0.272 c 0.154,-0.527 -0.202,-0.826 -0.47,-0.826 -1.138,0 -2.491,1.025 -3.034,2.467 h 0.369 c 0.373,-0.531 0.996,-1.114 1.58,-1.211 l -2.179,5.666 c -0.199,0.526 0.199,0.826 0.474,0.826 1.081,0 2.349,-1.041 2.888,-2.462 h -0.369 c -0.369,0.527 -1,1.11 -1.58,1.211 z m 0.397,-2.847 c 0.514,0 0.94,-0.413 0.94,-0.94 0,-0.514 -0.425,-0.94 -0.94,-0.94 -0.527,0 -0.94,0.425 -0.94,0.94 10e-4,0.527 0.414,0.94 0.94,0.94 m -12.547,8.716 c -0.284,0.64 0.016,1.053 0.64,1.053 0.385,0 0.559,-0.101 0.713,-0.514 l 1.511,-3.997 c 0.697,-0.855 2.138,-1.766 2.705,-1.766 0.413,0 0.356,0.34 0.089,0.851 l -2.325,4.459 c -0.227,0.441 0.073,0.968 0.571,0.968 1.138,0 2.491,-1.025 3.034,-2.462 h -0.373 c -0.373,0.527 -0.996,1.11 -1.58,1.211 l 1.993,-4.03 c 0.255,-0.514 0.389,-0.996 0.389,-1.385 0,-0.652 -0.373,-1.081 -1.057,-1.081 -0.98,0 -1.976,1.114 -3.159,2.479 v -1.053 c 0,-0.757 -0.243,-1.426 -0.927,-1.426 -0.425,0 -0.842,0.373 -1.227,0.899 v 0.142 c 0.741,-0.045 1.069,1.069 0.543,2.236 z m -0.028,-4.957 c 0.271,-0.923 0.13,-1.738 -0.583,-1.738 -0.838,0 -1.053,0.64 -1.908,2.479 v -1.053 c 0,-0.757 -0.239,-1.426 -0.923,-1.426 -0.802,0 -1.527,1.239 -2.082,2.467 h 0.373 c 0.381,-0.559 0.737,-0.887 1.025,-0.887 0.34,0 0.527,0.531 0,1.697 l -1.539,3.418 c -0.287,0.64 0.016,1.053 0.64,1.053 0.385,0 0.555,-0.101 0.713,-0.514 l 1.511,-3.997 c 0.425,-0.531 0.81,-0.984 1.292,-1.499 z m -8.745,-0.685 c 0.527,0 0.98,0.401 0.741,1.414 l -2.451,0.567 c 0.431,-1.139 1.143,-1.981 1.71,-1.981 m 1.353,3.949 h -0.482 c -0.612,0.725 -1.268,1.292 -1.924,1.292 -0.672,0 -1.013,-0.397 -1.013,-1.292 0,-0.373 0.044,-0.745 0.117,-1.085 l 3.941,-1.296 c 0.774,-1.823 -0.154,-2.62 -1.235,-2.62 -1.867,0 -3.989,3.119 -3.989,5.856 0,1.223 0.583,1.891 1.495,1.891 1.069,0 2.183,-1.041 3.09,-2.746 m -9.299,-3.904 h 1.308 l -2.078,5.682 c -0.182,0.486 0.069,0.968 0.567,0.968 1.183,0 3.094,-1.166 3.763,-2.762 h -0.373 c -0.527,0.555 -1.539,1.296 -2.402,1.454 l 1.904,-5.342 h 1.956 l 0.239,-0.81 h -1.891 l 0.725,-2.053 h -0.753 l -1.353,2.053 -1.612,0.227 z m -7.193,4.426 c 0,-1.75 1.952,-4.127 3.05,-4.127 0.239,0 0.47,0.028 0.668,0.085 l -1.138,3.034 c -0.66,0.798 -1.669,1.766 -2.139,1.766 -0.267,0 -0.441,-0.227 -0.441,-0.758 m 5.994,-5.852 -0.595,-0.04 -0.668,0.656 h -0.142 c -3.248,0 -6.055,3.645 -6.055,6.294 0,0.741 0.458,1.166 1.17,1.166 0.838,0 1.665,-1.195 2.588,-2.479 L 97.7,261.3 c -0.113,1.312 0.284,2.021 0.968,2.021 0.798,0 1.523,-1.239 2.078,-2.462 h -0.369 c -0.385,0.555 -0.741,0.883 -1.025,0.883 -0.3,0 -0.514,-0.543 0,-1.697 z m -6.921,2.066 c 0.275,-0.923 0.134,-1.738 -0.579,-1.738 -0.842,0 -1.057,0.64 -1.912,2.479 v -1.053 c 0,-0.757 -0.239,-1.426 -0.924,-1.426 -0.802,0 -1.523,1.239 -2.082,2.467 h 0.373 c 0.381,-0.559 0.737,-0.887 1.025,-0.887 0.344,0 0.531,0.531 0,1.697 l -1.539,3.418 c -0.288,0.64 0.016,1.053 0.64,1.053 0.389,0 0.559,-0.101 0.717,-0.514 l 1.507,-3.997 c 0.425,-0.531 0.81,-0.984 1.296,-1.499 z m -10.907,5.726 0.142,-0.441 c -1.895,-0.356 -2.134,-0.356 -1.381,-2.422 l 0.77,-2.122 h 2.094 c 0.94,0 0.956,0.385 0.814,1.409 h 0.539 l 1.256,-3.43 h -0.543 c -0.47,0.81 -0.842,1.409 -1.867,1.409 h -2.066 l 1.098,-3.005 c 0.344,-0.956 0.543,-1.154 1.823,-1.154 h 0.915 c 1.32,0 1.478,0.356 1.478,1.693 h 0.527 l 0.441,-2.333 h -7.861 l -0.142,0.441 c 1.523,0.312 1.669,0.454 0.956,2.422 l -1.713,4.67 c -0.713,1.952 -1.009,2.106 -2.762,2.422 L 78,263.037 Z"
   id="path75" />
		<path
   style="fill:#222221"
   d="m 122.152,238.827 c 0.527,0 0.984,0.397 0.741,1.409 l -2.45,0.571 c 0.429,-1.142 1.142,-1.98 1.709,-1.98 m 1.353,3.944 h -0.486 c -0.608,0.725 -1.264,1.296 -1.92,1.296 -0.668,0 -1.009,-0.401 -1.009,-1.296 0,-0.373 0.037,-0.741 0.113,-1.085 l 3.945,-1.296 c 0.766,-1.823 -0.162,-2.62 -1.239,-2.62 -1.867,0 -3.989,3.123 -3.989,5.856 0,1.223 0.583,1.895 1.495,1.895 1.068,0 2.182,-1.04 3.09,-2.75 m -0.782,-5.726 2.778,-2.592 v -0.3 h -1.499 l -1.709,2.892 z m -8.518,1.822 h 1.312 l -2.082,5.682 c -0.186,0.486 0.073,0.972 0.571,0.972 1.183,0 3.09,-1.17 3.759,-2.766 h -0.369 c -0.527,0.555 -1.539,1.296 -2.406,1.454 l 1.903,-5.342 h 1.956 l 0.239,-0.81 h -1.891 l 0.721,-2.053 h -0.749 l -1.353,2.053 -1.612,0.227 v 0.583 z M 112.44,238.6 c 0.158,-0.531 -0.199,-0.83 -0.47,-0.83 -1.142,0 -2.495,1.029 -3.033,2.466 h 0.369 c 0.373,-0.527 1,-1.114 1.584,-1.211 l -2.179,5.666 c -0.202,0.526 0.199,0.83 0.47,0.83 1.081,0 2.349,-1.041 2.892,-2.466 H 111.7 c -0.373,0.527 -0.996,1.114 -1.58,1.211 z m 0.401,-2.852 c 0.51,0 0.94,-0.413 0.94,-0.94 0,-0.51 -0.429,-0.94 -0.94,-0.94 -0.527,0 -0.944,0.429 -0.944,0.94 0,0.527 0.417,0.94 0.944,0.94 m -7.582,8.518 3.977,-10.409 -0.126,-0.158 -2.499,0.283 v 0.3 l 0.49,0.369 c 0.437,0.344 0.296,0.672 -0.101,1.725 l -3.102,8.173 c -0.231,0.441 0.069,0.972 0.567,0.972 1.138,0 2.349,-1.029 2.892,-2.466 h -0.373 c -0.373,0.526 -1.138,1.114 -1.725,1.211 m -7.546,-0.968 c 0,-1.754 1.952,-4.131 3.05,-4.131 0.243,0 0.466,0.028 0.668,0.085 l -1.138,3.034 c -0.656,0.798 -1.669,1.766 -2.134,1.766 -0.276,-0.001 -0.446,-0.228 -0.446,-0.754 m 5.998,-5.857 -0.599,-0.04 -0.672,0.656 h -0.142 c -3.248,0 -6.051,3.645 -6.051,6.294 0,0.741 0.454,1.17 1.166,1.17 0.842,0 1.669,-1.199 2.596,-2.479 l -0.044,0.454 c -0.113,1.312 0.284,2.025 0.968,2.025 0.794,0 1.523,-1.243 2.078,-2.466 h -0.369 c -0.385,0.555 -0.741,0.883 -1.025,0.883 -0.3,0 -0.514,-0.539 0,-1.697 z m -14.499,9.457 c 0,-0.753 0.725,-1.223 1.766,-1.636 0.34,0.17 0.855,0.356 1.539,0.583 1.081,0.356 1.495,0.498 1.495,0.826 0,0.701 -1.183,1.223 -2.791,1.223 -1.353,0.001 -2.009,-0.283 -2.009,-0.996 m 2.949,-4.596 c -0.47,0 -0.656,-0.401 -0.656,-0.855 0,-1.268 0.684,-3.135 1.754,-3.135 0.47,0 0.656,0.397 0.656,0.855 -0.001,1.267 -0.685,3.135 -1.754,3.135 m 3.09,3.9 c 0,-0.911 -0.81,-1.239 -2.139,-1.636 -1.138,-0.344 -1.652,-0.441 -1.652,-0.81 0,-0.304 0.243,-0.66 0.729,-0.915 1.867,-0.097 3.078,-1.778 3.078,-3.187 0,-0.3 -0.061,-0.555 -0.158,-0.786 h 1.579 l 0.243,-0.81 h -2.507 c -0.3,-0.186 -0.652,-0.288 -1.009,-0.288 -1.985,0 -3.264,1.742 -3.264,3.147 0,1.069 0.685,1.742 1.511,1.895 -0.927,0.413 -1.438,0.899 -1.438,1.466 0,0.328 0.113,0.559 0.381,0.77 -2.135,0.628 -2.973,1.341 -2.973,2.349 0,0.984 1.292,1.397 2.831,1.397 2.609,0 4.788,-1.41 4.788,-2.592 m -9.955,-6.096 c 0.94,0 0.952,0.385 0.81,1.409 h 0.543 l 1.252,-3.43 h -0.539 c -0.474,0.81 -0.842,1.409 -1.867,1.409 h -2.066 l 1.041,-2.863 c 0.344,-0.956 0.539,-1.138 1.823,-1.138 h 0.911 c 1.325,0 1.482,0.356 1.482,1.681 h 0.527 l 0.441,-2.337 h -7.861 l -0.146,0.442 c 1.523,0.312 1.669,0.458 0.96,2.422 l -1.713,4.67 c -0.713,1.952 -1.009,2.11 -2.762,2.422 l -0.13,0.441 h 8.744 l 1.567,-2.479 h -0.599 c -0.996,0.94 -2.248,1.839 -4.001,1.839 -2.321,0 -2.106,-0.101 -1.337,-2.224 l 0.826,-2.264 z m 1.138,-5.965 2.779,-1.912 v -0.296 h -1.681 l -1.535,2.207 h 0.437 z"
   id="path76" />
		<path
   style="fill:#222221"
   d="m 121.228,221.024 c 0.527,0 0.98,0.397 0.737,1.409 l -2.446,0.571 c 0.425,-1.142 1.138,-1.98 1.709,-1.98 m 1.353,3.945 h -0.486 c -0.612,0.725 -1.268,1.296 -1.924,1.296 -0.668,0 -1.008,-0.401 -1.008,-1.296 0,-0.373 0.04,-0.741 0.109,-1.085 l 3.949,-1.292 c 0.77,-1.827 -0.158,-2.62 -1.239,-2.62 -1.867,0 -3.989,3.119 -3.989,5.852 0,1.223 0.587,1.895 1.494,1.895 1.073,0 2.178,-1.041 3.094,-2.75 m -0.786,-5.727 2.779,-2.592 v -0.296 h -1.495 l -1.709,2.888 z m -8.157,1.822 h 1.037 l -2.078,5.682 c -0.186,0.486 0.073,0.972 0.571,0.972 1.183,0 3.086,-1.171 3.754,-2.766 h -0.364 c -0.531,0.555 -1.539,1.296 -2.41,1.454 l 1.908,-5.342 h 1.952 l 0.243,-0.81 h -1.896 l 0.725,-2.049 h -0.753 l -1.353,2.049 -1.337,0.227 v 0.583 z m -1.029,0.644 c 0.271,-0.927 0.13,-1.738 -0.583,-1.738 -0.842,0 -1.053,0.64 -1.908,2.475 v -1.053 c 0,-0.753 -0.243,-1.422 -0.927,-1.422 -0.798,0 -1.523,1.235 -2.078,2.462 h 0.369 c 0.385,-0.555 0.741,-0.883 1.025,-0.883 0.344,0 0.531,0.527 0,1.693 l -1.539,3.418 c -0.284,0.644 0.016,1.057 0.644,1.057 0.385,0 0.555,-0.101 0.709,-0.514 l 1.511,-4.001 c 0.429,-0.527 0.814,-0.984 1.3,-1.495 h 1.477 z m -8.744,-0.684 c 0.531,0 0.984,0.397 0.741,1.409 l -2.45,0.571 c 0.425,-1.142 1.138,-1.98 1.709,-1.98 m 1.353,3.945 h -0.482 c -0.616,0.725 -1.268,1.296 -1.924,1.296 -0.668,0 -1.013,-0.401 -1.013,-1.296 0,-0.373 0.045,-0.741 0.113,-1.085 l 3.949,-1.292 c 0.765,-1.827 -0.158,-2.62 -1.243,-2.62 -1.863,0 -3.985,3.119 -3.985,5.852 0,1.223 0.583,1.895 1.494,1.895 1.07,0 2.179,-1.041 3.091,-2.75 m -9.668,1.595 c -0.389,0 -0.94,-0.356 -0.94,-0.668 0,-0.101 0.17,-0.543 0.381,-1.098 l 0.644,-1.697 c 0.68,-0.81 1.721,-1.681 2.309,-1.681 0.356,0 0.624,0.231 0.624,0.757 -0.001,1.552 -1.451,4.387 -3.018,4.387 m 4.484,-5.014 c 0,-1.154 -0.425,-1.58 -1.223,-1.58 -0.996,0 -1.94,1.053 -2.876,2.333 l 2.378,-6.253 -0.13,-0.154 -2.491,0.283 v 0.3 l 0.482,0.373 c 0.445,0.34 0.304,0.697 -0.097,1.721 l -2.564,6.61 c -0.186,0.482 -0.413,1.053 -0.413,1.211 0,0.68 0.923,1.324 1.766,1.324 1.936,0.001 5.168,-3.491 5.168,-6.168 m -7.748,-0.753 c 0.158,-0.531 -0.194,-0.826 -0.47,-0.826 -1.138,0 -2.491,1.025 -3.034,2.462 h 0.373 c 0.368,-0.527 0.996,-1.11 1.584,-1.211 l -2.183,5.67 c -0.199,0.522 0.199,0.826 0.47,0.826 1.082,0 2.353,-1.041 2.892,-2.467 h -0.369 c -0.373,0.527 -0.996,1.11 -1.584,1.211 z m 0.401,-2.851 c 0.514,0 0.94,-0.413 0.94,-0.94 0,-0.51 -0.425,-0.94 -0.94,-0.94 -0.527,0 -0.94,0.429 -0.94,0.94 0,0.527 0.413,0.94 0.94,0.94 m -5.739,-0.912 h -5.184 l -0.142,0.441 c 1.523,0.316 1.665,0.458 0.952,2.422 l -1.681,4.67 c -0.713,1.952 -1.008,2.11 -2.762,2.422 l -0.13,0.441 h 7.89 l 1.709,-3.05 h -0.595 c -0.972,1.073 -2.11,2.41 -3.86,2.41 -1.328,0 -1.482,-0.227 -0.77,-2.224 l 1.681,-4.67 c 0.697,-1.952 1.009,-2.106 2.762,-2.422 z"
   id="path77" />
	</g>
</g>
<g
   id="svg13"
   transform="translate(-78,-60.679)">
</g>
</svg>
