<?xml version="1.0" encoding="UTF-8"?>
<svg width="120px" height="120px" viewBox="0 0 120 120" version="1.1" xmlns="http://www.w3.org/2000/svg" xmlns:xlink="http://www.w3.org/1999/xlink">
    <title>02.Icons/Illustrative/05. Autres/Orienteur</title>
    <g id="02.Icons/Illustrative/05.-Autres/Orienteur" stroke="none" stroke-width="1" fill="none" fill-rule="evenodd">
        <g id="Group-17" transform="translate(18.999800, 15.999400)">
            <path d="M97.7021,32.241 C97.7021,50.047 83.2671,64.482 65.4611,64.482 C47.6561,64.482 33.2211,50.047 33.2211,32.241 C33.2211,14.435 47.6561,0 65.4611,0 C83.2671,0 97.7021,14.435 97.7021,32.241" id="Fill-1" fill="#F2F3F7"></path>
            <path d="M41.876,3.549 C18.749,3.549 0,22.297 0,45.425 C0,68.552 18.749,87.301 41.876,87.301 C65.003,87.301 83.752,68.552 83.752,45.425 C83.752,22.297 65.003,3.549 41.876,3.549" id="Fill-4" fill="#FFFFFF"></path>
            <path d="M41.8759,5.3832 C19.7619,5.3832 1.8339,23.3102 1.8339,45.4252 C1.8339,67.5392 19.7619,85.4662 41.8759,85.4662 C63.9909,85.4662 81.9179,67.5392 81.9179,45.4252 C81.9179,23.3102 63.9909,5.3832 41.8759,5.3832 M41.8759,9.3832 C61.7499,9.3832 77.9179,25.5512 77.9179,45.4252 C77.9179,65.2982 61.7499,81.4662 41.8759,81.4662 C22.0029,81.4662 5.8339,65.2982 5.8339,45.4252 C5.8339,25.5512 22.0029,9.3832 41.8759,9.3832" id="Fill-7" fill="#EDEEF3"></path>
            <path d="M14.1374,62.7591 L16.0734,61.6421 C16.5994,61.3381 16.7804,60.6651 16.4764,60.1391 C16.1724,59.6131 15.4994,59.4351 14.9734,59.7361 L13.0374,60.8531 C12.5114,61.1561 12.3304,61.8291 12.6344,62.3561 C12.8384,62.7091 13.2084,62.9061 13.5884,62.9061 C13.7754,62.9061 13.9644,62.8591 14.1374,62.7591 M69.0054,31.0801 L70.9424,29.9621 C71.4684,29.6581 71.6494,28.9861 71.3444,28.4601 C71.0414,27.9341 70.3684,27.7531 69.8424,28.0581 L67.9064,29.1761 C67.3794,29.4801 67.1994,30.1531 67.5034,30.6781 C67.7064,31.0311 68.0764,31.2291 68.4564,31.2291 C68.6434,31.2291 68.8324,31.1811 69.0054,31.0801 M26.5434,74.3611 L27.6614,72.4241 C27.9664,71.8991 27.7854,71.2261 27.2594,70.9221 C26.7354,70.6161 26.0604,70.7971 25.7574,71.3241 L24.6394,73.2611 C24.3344,73.7861 24.5154,74.4591 25.0414,74.7631 C25.2144,74.8631 25.4044,74.9111 25.5904,74.9111 C25.9704,74.9111 26.3404,74.7141 26.5434,74.3611 M58.2234,19.4911 L59.3404,17.5561 C59.6444,17.0301 59.4634,16.3571 58.9374,16.0531 C58.4114,15.7501 57.7394,15.9311 57.4344,16.4561 L56.3174,18.3921 C56.0134,18.9181 56.1944,19.5911 56.7204,19.8951 C56.8934,19.9941 57.0824,20.0421 57.2694,20.0421 C57.6494,20.0421 58.0194,19.8441 58.2234,19.4911 M71.3454,62.3561 C71.6494,61.8291 71.4684,61.1561 70.9424,60.8531 L69.0054,59.7361 C68.4814,59.4341 67.8074,59.6131 67.5024,60.1391 C67.1994,60.6651 67.3794,61.3381 67.9064,61.6421 L69.8424,62.7591 C70.0154,62.8591 70.2044,62.9061 70.3914,62.9061 C70.7714,62.9061 71.1414,62.7081 71.3454,62.3561 M16.4754,30.6781 C16.7804,30.1531 16.5994,29.4801 16.0734,29.1761 L14.1374,28.0581 C13.6134,27.7521 12.9384,27.9341 12.6354,28.4601 C12.3304,28.9861 12.5114,29.6581 13.0374,29.9621 L14.9734,31.0801 C15.1464,31.1811 15.3354,31.2291 15.5224,31.2291 C15.9024,31.2291 16.2724,31.0311 16.4754,30.6781 M58.9374,74.7641 C59.4634,74.4601 59.6444,73.7871 59.3404,73.2611 L58.2234,71.3241 C57.9194,70.7991 57.2454,70.6201 56.7204,70.9211 C56.1944,71.2251 56.0134,71.8981 56.3174,72.4241 L57.4344,74.3611 C57.6384,74.7131 58.0084,74.9111 58.3884,74.9111 C58.5754,74.9111 58.7644,74.8631 58.9374,74.7641 M26.7104,20.0421 C26.3304,20.0421 25.9604,19.8451 25.7574,19.4911 L24.6394,17.5561 C24.3344,17.0301 24.5154,16.3581 25.0414,16.0541 C25.5674,15.7501 26.2414,15.9301 26.5434,16.4561 L27.6614,18.3921 C27.9664,18.9171 27.7854,19.5901 27.2594,19.8941 C27.0864,19.9941 26.8974,20.0421 26.7104,20.0421" id="Fill-9" fill="#697097"></path>
            <path d="M45.1557,48.7488 C44.2927,49.7798 43.0127,50.4488 41.5637,50.4488 C38.9657,50.4488 36.8597,48.3428 36.8597,45.7458 C36.8597,44.2868 37.5387,42.9988 38.5807,42.1368 L33.9367,37.4668 L22.0687,64.7328 L49.5997,53.2168 L45.1557,48.7488 Z" id="Fill-11" fill="#1D71B8"></path>
            <path d="M34.069,37.7754 L38.512,42.1934 C39.335,41.4854 40.393,41.0414 41.564,41.0414 C44.161,41.0414 46.267,43.1474 46.267,45.7454 C46.267,46.9064 45.83,47.9554 45.133,48.7764 L49.599,53.2174 L61.335,25.7304 L34.069,37.7754 Z" id="Fill-13" fill="#D20050"></path>
            <path d="M10.9344,43.8785 C10.5634,44.2385 10.3884,44.7435 10.3884,45.2275 C10.3884,45.8355 10.6774,46.2575 10.9344,46.5045 C11.2644,46.8245 11.7264,47.0505 12.3244,47.0505 C12.9324,47.0505 13.3854,46.8345 13.7044,46.5155 C14.0234,46.1955 14.2614,45.7215 14.2614,45.1965 C14.2614,44.6605 14.0234,44.1875 13.7044,43.8785 C13.3234,43.5175 12.7984,43.3325 12.3244,43.3325 C11.8304,43.3325 11.3054,43.5075 10.9344,43.8785 L10.9344,43.8785 Z M15.0334,47.7615 C14.3334,48.4305 13.3444,48.7805 12.3244,48.7805 C11.3054,48.7805 10.3164,48.4305 9.6164,47.7615 C8.8844,47.0615 8.5344,46.1025 8.5344,45.1965 C8.5344,44.2805 8.8844,43.3125 9.6164,42.6215 C10.3164,41.9525 11.3054,41.6025 12.3244,41.6025 C13.3444,41.6025 14.3334,41.9525 15.0334,42.6215 C15.7644,43.3125 16.1144,44.2805 16.1144,45.1965 C16.1144,46.1025 15.7644,47.0615 15.0334,47.7615 L15.0334,47.7615 Z M40.4544,75.7805 C40.8344,76.1415 41.4114,76.4815 42.0294,76.4815 C42.3904,76.4815 42.6064,76.3685 42.7194,76.2445 C42.8234,76.1415 42.8954,75.9875 42.8954,75.8115 C42.8954,75.6775 42.8434,75.5235 42.6994,75.3995 C42.5244,75.2455 42.2564,75.1735 41.8134,75.0395 L41.3504,74.8955 C41.0624,74.8025 40.6394,74.6485 40.3614,74.3395 C40.0114,73.9575 39.9704,73.4735 39.9704,73.1235 C39.9704,72.2795 40.2994,71.7645 40.5984,71.4655 C40.9484,71.1155 41.5244,70.8165 42.3594,70.8165 C43.0394,70.8165 43.8314,71.0325 44.4814,71.3725 L43.7704,72.7635 C43.2344,72.3415 42.8334,72.2995 42.5964,72.2995 C42.4214,72.2995 42.1844,72.3415 42.0094,72.5055 C41.9064,72.6085 41.8344,72.7215 41.8344,72.8765 C41.8344,73.0005 41.8544,73.0925 41.9264,73.1855 C41.9784,73.2475 42.1014,73.3705 42.5244,73.4945 L43.0694,73.6595 C43.5024,73.7935 43.9564,73.9475 44.3164,74.3395 C44.6664,74.7095 44.7594,75.0905 44.7594,75.5645 C44.7594,76.1925 44.6044,76.8005 44.1104,77.2945 C43.5234,77.8815 42.8124,77.9955 42.0814,77.9955 C41.6494,77.9955 41.2364,77.9535 40.7324,77.7685 C40.6194,77.7275 40.1864,77.5625 39.6914,77.2225 L40.4544,75.7805 Z M74.3094,43.8915 L72.1884,43.8915 L72.1884,45.0345 L74.1964,45.0345 L74.1964,46.5485 L72.1884,46.5485 L72.1884,47.7325 L74.3094,47.7325 L74.3094,49.2465 L70.4064,49.2465 L70.4064,42.3775 L74.3094,42.3775 L74.3094,43.8915 Z M38.7434,19.8175 L38.7434,12.9475 L40.5244,12.9475 L43.8094,17.1495 L43.8094,12.9475 L45.5924,12.9475 L45.5924,19.8175 L43.8094,19.8175 L40.5244,15.6155 L40.5244,19.8175 L38.7434,19.8175 Z M49.5264,51.4985 L45.7894,47.7765 C46.0864,47.1595 46.2674,46.4765 46.2674,45.7455 C46.2674,43.1475 44.1614,41.0415 41.5634,41.0415 C40.8254,41.0415 40.1364,41.2265 39.5144,41.5295 L35.8924,37.9235 L59.8124,27.3385 L49.5264,51.4985 Z M41.5634,48.2485 C40.1834,48.2485 39.0604,47.1255 39.0604,45.7455 C39.0604,44.3645 40.1834,43.2415 41.5634,43.2415 C42.9444,43.2415 44.0674,44.3645 44.0674,45.7455 C44.0674,47.1255 42.9444,48.2485 41.5634,48.2485 L41.5634,48.2485 Z M23.9014,63.3605 L34.3404,39.4825 L37.8104,42.9375 C37.2214,43.7225 36.8604,44.6885 36.8604,45.7455 C36.8604,48.3435 38.9664,50.4485 41.5634,50.4485 C42.6284,50.4485 43.5994,50.0815 44.3874,49.4855 L47.9714,53.0545 L23.9014,63.3605 Z M62.6894,24.4215 C62.3674,24.1048557 61.8864,24.0165 61.4714,24.1985 L33.5314,36.5615 C33.4094,36.6155 33.3014,36.6925 33.2084,36.7835 C33.2054,36.7865 33.2004,36.7875 33.1974,36.7915 C33.1974,36.7915 33.1964,36.7915 33.1964,36.7915 C33.1014,36.8875 33.0234,37.0015 32.9684,37.1275 L20.7724,65.0245 C20.5914,65.4375 20.6814,65.9205 20.9994,66.2395 C21.2094,66.4525 21.4924,66.5645 21.7804,66.5645 C21.9264,66.5645 22.0734,66.5365 22.2124,66.4755 L50.3144,54.4435 C50.3164,54.4425 50.3174,54.4425 50.3194,54.4415 L50.3344,54.4345 C50.4604,54.3815 50.5734,54.3025 50.6694,54.2085 C50.6734,54.2055 50.6774,54.2045 50.6814,54.2005 C50.6924,54.1895 50.6964,54.1735 50.7064,54.1625 C50.7904,54.0705 50.8644,53.9705 50.9134,53.8545 L50.9204,53.8385 C50.9214,53.8365 50.9224,53.8355 50.9224,53.8335 L62.9284,25.6355 C63.1064,25.2205 63.0104,24.7385 62.6894,24.4215 L62.6894,24.4215 Z M41.8754,3.5495 C18.7484,3.5495 0.0004,22.2975 0.0004,45.4245 C0.0004,68.5525 18.7484,87.3005 41.8754,87.3005 C65.0034,87.3005 83.7514,68.5525 83.7514,45.4245 C83.7514,22.2975 65.0034,3.5495 41.8754,3.5495 L41.8754,3.5495 Z M41.8754,5.7495 C63.7534,5.7495 81.5524,23.5475 81.5524,45.4245 C81.5524,67.3025 63.7534,85.1005 41.8754,85.1005 C19.9984,85.1005 2.2004,67.3025 2.2004,45.4245 C2.2004,23.5475 19.9984,5.7495 41.8754,5.7495 L41.8754,5.7495 Z" id="Fill-15" fill="#343852"></path>
        </g>
    </g>
</svg>