<?xml version="1.0" encoding="UTF-8"?>
<svg width="120px" height="120px" viewBox="0 0 120 120" version="1.1" xmlns="http://www.w3.org/2000/svg" xmlns:xlink="http://www.w3.org/1999/xlink">
    <title>02.Icons/Illustrative/Autres Besoin d'aide</title>
    <g id="02.Icons/Illustrative/Autres-Besoin-d'aide" stroke="none" stroke-width="1" fill="none" fill-rule="evenodd">
        <path d="M31.4705,53.8892 C31.4705,36.3922 45.6535,22.2092 63.1505,22.2092 C80.6475,22.2092 94.8305,36.3922 94.8305,53.8892 C94.8305,71.3862 80.6475,85.5692 63.1505,85.5692 C45.6535,85.5692 31.4705,71.3862 31.4705,53.8892" id="Fill-1" fill="#F2F3F7"></path>
        <path d="M50.7505,21.7168 L50.7505,49.3368 C50.7505,51.4218 52.4325,53.1038 54.5165,53.1038 L65.8165,53.1038 L78.3705,53.1038 L93.4365,68.1688 L93.4365,53.1038 L97.2025,53.1038 C99.2875,53.1038 100.9695,51.4218 100.9695,49.3368 L100.9695,21.7168 C100.9695,19.6328 99.2875,17.9508 97.2025,17.9508 L54.5165,17.9508 C52.4325,17.9508 50.7505,19.6328 50.7505,21.7168" id="Fill-3" fill="#FFFFFF"></path>
        <path d="M77.1758,72.9673 C77.1888,72.9113 77.2068,72.8553 77.2188,72.7993 C77.2768,72.5303 77.3228,72.2593 77.3658,71.9883 C77.3768,71.9213 77.3928,71.8563 77.4018,71.7903 C77.4268,71.6153 77.4398,71.4373 77.4588,71.2613 C77.5138,70.7553 77.5508,70.2453 77.5508,69.7293 C77.5508,69.3003 77.5248,68.8753 77.4868,68.4533 C77.4768,68.3323 77.4618,68.2113 77.4478,68.0903 C77.4108,67.7673 77.3628,67.4463 77.3038,67.1263 C77.2838,67.0193 77.2678,66.9113 77.2448,66.8043 C77.1608,66.3983 77.0608,65.9963 76.9428,65.5983 C76.9168,65.5103 76.8838,65.4233 76.8558,65.3353 C76.7568,65.0213 76.6468,64.7093 76.5258,64.4013 C76.4748,64.2693 76.4218,64.1383 76.3668,64.0073 C76.2438,63.7153 76.1098,63.4263 75.9688,63.1403 C75.9188,63.0393 75.8738,62.9363 75.8218,62.8363 C75.6358,62.4783 75.4338,62.1263 75.2208,61.7793 C75.1358,61.6403 75.0438,61.5043 74.9548,61.3683 C74.8078,61.1423 74.6558,60.9183 74.4978,60.6973 C74.3908,60.5483 74.2838,60.3993 74.1708,60.2523 C73.9888,60.0123 73.7978,59.7773 73.6018,59.5443 C73.5238,59.4513 73.4538,59.3533 73.3738,59.2613 C73.3738,59.2613 72.5718,58.0913 70.5838,56.5903 C65.3028,52.2933 57.4838,49.5693 48.7508,49.5693 C47.6928,49.5693 46.6498,49.6123 45.6208,49.6893 C44.4668,49.7583 43.7898,49.8343 43.4218,49.8853 C43.1818,49.9293 43.0748,49.9573 43.0368,49.9673 C42.2688,50.0753 41.5148,50.2093 40.7708,50.3593 C40.6878,50.3763 40.6048,50.3913 40.5218,50.4083 C40.2168,50.4723 39.9138,50.5413 39.6118,50.6113 C39.4958,50.6383 39.3798,50.6653 39.2638,50.6943 C38.9808,50.7633 38.6998,50.8353 38.4208,50.9103 C38.2908,50.9453 38.1628,50.9813 38.0348,51.0173 C37.7658,51.0923 37.4988,51.1693 37.2348,51.2503 C37.1008,51.2913 36.9688,51.3343 36.8358,51.3763 C36.5768,51.4583 36.3188,51.5413 36.0648,51.6293 C35.9358,51.6733 35.8098,51.7203 35.6818,51.7663 C34.8598,52.0603 34.0608,52.3803 33.2858,52.7263 C33.1148,52.8023 32.9418,52.8773 32.7738,52.9563 C32.5928,53.0403 32.4168,53.1283 32.2388,53.2153 C32.0578,53.3043 31.8758,53.3933 31.6978,53.4853 C31.5308,53.5713 31.3678,53.6593 31.2038,53.7473 C31.0188,53.8473 30.8338,53.9483 30.6518,54.0513 C30.4988,54.1383 30.3468,54.2263 30.1968,54.3153 C30.0088,54.4253 29.8228,54.5383 29.6398,54.6523 C29.4998,54.7393 29.3608,54.8263 29.2228,54.9153 C29.0288,55.0403 28.8378,55.1693 28.6478,55.2983 C28.5278,55.3803 28.4068,55.4613 28.2888,55.5453 C28.0698,55.6993 27.8568,55.8583 27.6448,56.0173 C27.5618,56.0803 27.4768,56.1413 27.3948,56.2043 C27.0998,56.4323 26.8108,56.6653 26.5298,56.9033 C26.5198,56.9123 26.5098,56.9213 26.4988,56.9303 C26.2318,57.1573 25.9728,57.3893 25.7198,57.6243 C25.6478,57.6923 25.5788,57.7613 25.5078,57.8293 C25.3198,58.0093 25.1338,58.1903 24.9538,58.3743 C24.8718,58.4573 24.7938,58.5423 24.7138,58.6273 C24.5498,58.8003 24.3888,58.9753 24.2328,59.1523 C24.1528,59.2423 24.0748,59.3333 23.9978,59.4253 C23.8468,59.6013 23.7008,59.7803 23.5578,59.9603 C23.4848,60.0523 23.4118,60.1443 23.3408,60.2373 C23.1968,60.4253 23.0598,60.6143 22.9248,60.8053 C22.8628,60.8933 22.7998,60.9793 22.7398,61.0673 C22.5918,61.2853 22.4508,61.5063 22.3128,61.7273 C22.2748,61.7903 22.2328,61.8513 22.1958,61.9143 C21.8488,62.4913 21.5398,63.0823 21.2688,63.6853 C21.2318,63.7683 21.1988,63.8523 21.1638,63.9363 C21.0708,64.1513 20.9818,64.3683 20.8998,64.5863 C20.8588,64.6953 20.8218,64.8053 20.7828,64.9153 C20.7148,65.1113 20.6488,65.3083 20.5878,65.5063 C20.5518,65.6263 20.5178,65.7463 20.4838,65.8673 C20.4308,66.0603 20.3818,66.2543 20.3358,66.4493 C20.3068,66.5723 20.2788,66.6953 20.2528,66.8193 C20.2118,67.0173 20.1778,67.2173 20.1448,67.4173 C20.1248,67.5383 20.1038,67.6593 20.0868,67.7803 C20.0568,67.9983 20.0358,68.2173 20.0158,68.4363 C20.0068,68.5403 19.9928,68.6443 19.9858,68.7493 C19.9638,69.0743 19.9508,69.4003 19.9508,69.7293 C19.9508,70.0793 19.9638,70.4263 19.9888,70.7723 C19.9968,70.8893 20.0148,71.0043 20.0268,71.1213 C20.0488,71.3483 20.0688,71.5763 20.1018,71.8023 C20.1208,71.9363 20.1508,72.0683 20.1738,72.2023 C20.2098,72.4073 20.2418,72.6133 20.2868,72.8173 C20.3168,72.9513 20.3558,73.0833 20.3888,73.2173 C20.4388,73.4173 20.4858,73.6183 20.5438,73.8173 C20.5818,73.9473 20.6288,74.0743 20.6708,74.2023 C20.7358,74.4023 20.7968,74.6023 20.8698,74.7993 C20.9158,74.9233 20.9708,75.0443 21.0198,75.1673 C21.0988,75.3673 21.1768,75.5673 21.2648,75.7643 C21.3148,75.8763 21.3738,75.9873 21.4268,76.0993 C21.5238,76.3033 21.6198,76.5083 21.7258,76.7093 C21.7778,76.8073 21.8358,76.9033 21.8898,77.0003 C22.0068,77.2133 22.1248,77.4263 22.2518,77.6353 C22.3008,77.7163 22.3558,77.7943 22.4058,77.8733 C22.5478,78.0983 22.6898,78.3213 22.8428,78.5413 C22.8848,78.6013 22.9308,78.6593 22.9728,78.7193 C23.1428,78.9573 23.3148,79.1933 23.4978,79.4253 C23.5268,79.4623 23.5578,79.4973 23.5868,79.5343 C23.7898,79.7883 23.9968,80.0393 24.2138,80.2853 C24.2258,80.2993 24.2388,80.3123 24.2518,80.3263 C25.4778,81.7123 26.9368,82.9853 28.5908,84.1213 L28.5908,99.9693 L39.6928,88.8673 C39.7018,88.8683 39.7098,88.8703 39.7188,88.8723 C40.4158,89.0333 41.1228,89.1773 41.8418,89.3013 C41.8668,89.3053 41.8938,89.3093 41.9198,89.3133 C42.5988,89.4293 43.2868,89.5283 43.9838,89.6093 C44.0418,89.6163 45.5238,89.7643 46.2178,89.8073 C46.3568,89.8153 46.4968,89.8223 46.6358,89.8293 C47.3348,89.8643 48.0388,89.8893 48.7508,89.8893 C49.6158,89.8893 50.4708,89.8573 51.3178,89.8053 C51.4428,89.7973 51.5708,89.7943 51.6958,89.7853 C64.6878,88.8623 75.1158,81.8943 77.1758,72.9673" id="Fill-5" fill="#1D71B8"></path>
        <path d="M24.244,78.836 C24.071,78.618 23.908,78.395 23.744,78.163 L23.623,78 C23.478,77.791 23.344,77.578 23.209,77.365 L23.063,77.143 C22.944,76.945 22.833,76.744 22.722,76.543 L22.566,76.268 C22.471,76.086 22.385,75.903 22.282,75.686 L22.132,75.375 C22.068,75.233 22.011,75.088 21.953,74.943 L21.76,74.467 C21.706,74.321 21.659,74.173 21.611,74.024 L21.455,73.548 C21.413,73.406 21.378,73.262 21.343,73.118 L21.215,72.613 C21.183,72.473 21.16,72.33 21.136,72.189 L21.041,71.663 C21.016,71.493 21,71.321 20.983,71.149 L20.935,70.705 C20.913,70.382 20.9,70.057 20.9,69.73 C20.9,69.423 20.913,69.118 20.934,68.812 L20.962,68.524 C20.98,68.318 21.001,68.112 21.028,67.909 L21.082,67.572 C21.113,67.385 21.144,67.198 21.182,67.017 L21.261,66.667 C21.304,66.483 21.349,66.303 21.4,66.12 L21.496,65.784 C21.554,65.598 21.616,65.412 21.708,65.148 L21.788,64.921 C21.865,64.716 21.95,64.512 22.036,64.312 L22.136,64.074 C22.388,63.511 22.682,62.948 23.007,62.408 L23.12,62.229 C23.251,62.019 23.385,61.809 23.526,61.601 L23.701,61.353 C23.829,61.172 23.959,60.992 24.098,60.812 L24.302,60.551 C24.437,60.379 24.577,60.209 24.721,60.04 L24.947,59.779 C25.096,59.61 25.248,59.444 25.401,59.282 L25.635,59.037 C25.806,58.86 25.983,58.689 26.165,58.515 L26.367,58.32 C26.609,58.095 26.858,57.872 27.145,57.627 C27.415,57.399 27.692,57.176 27.981,56.952 L28.216,56.777 C28.421,56.624 28.626,56.47 28.835,56.322 L29.185,56.082 C29.368,55.957 29.551,55.835 29.741,55.712 L30.141,55.459 C30.318,55.349 30.497,55.24 30.683,55.131 C30.828,55.045 30.973,54.961 31.119,54.878 C31.295,54.779 31.473,54.682 31.658,54.582 C31.815,54.497 31.973,54.412 32.131,54.33 C32.305,54.241 32.48,54.155 32.731,54.032 C32.878,53.96 33.024,53.887 33.176,53.816 L33.674,53.593 C34.425,53.258 35.208,52.944 35.996,52.662 L36.374,52.527 C36.599,52.449 36.828,52.376 37.122,52.282 L37.513,52.158 C37.77,52.079 38.031,52.005 38.291,51.932 L38.668,51.827 C38.94,51.754 39.213,51.684 39.484,51.618 L39.827,51.536 C40.122,51.468 40.419,51.4 40.711,51.339 L40.96,51.291 C41.749,51.131 42.472,51.006 43.168,50.908 L43.288,50.884 C43.319,50.875 43.404,50.855 43.552,50.827 C43.911,50.777 44.572,50.704 45.693,50.637 C46.719,50.559 47.747,50.52 48.751,50.52 C56.927,50.52 64.666,53.001 70.012,57.349 C71.826,58.719 72.586,59.791 72.591,59.798 L72.874,60.155 C73.06,60.377 73.242,60.6 73.415,60.827 C73.521,60.967 73.623,61.107 73.725,61.251 C73.876,61.461 74.019,61.672 74.158,61.886 L74.411,62.275 C74.613,62.605 74.804,62.938 74.977,63.271 L75.117,63.56 C75.25,63.83 75.375,64.102 75.493,64.382 C75.545,64.503 75.594,64.626 75.64,64.746 C75.754,65.035 75.857,65.328 75.952,65.627 L76.033,65.869 C76.143,66.241 76.236,66.617 76.315,67.001 L76.369,67.299 C76.424,67.597 76.469,67.898 76.513,68.271 L76.541,68.538 C76.577,68.933 76.6,69.328 76.6,69.73 C76.6,70.16 76.573,70.614 76.515,71.161 L76.497,71.339 C76.487,71.444 76.477,71.549 76.45,71.716 L76.428,71.839 C76.388,72.094 76.346,72.346 76.279,72.637 L76.25,72.755 C74.269,81.334 64.144,87.947 51.629,88.838 L51.259,88.857 C49.598,88.961 48.153,88.955 46.682,88.88 L46.275,88.858 C45.598,88.817 44.927,88.761 44.264,88.687 L44.093,88.666 C43.414,88.587 42.742,88.49 42.003,88.364 C41.302,88.243 40.612,88.104 39.924,87.945 L39.402,87.815 L29.541,97.676 L29.541,83.621 L29.129,83.338 C27.533,82.242 26.132,81.018 24.927,79.657 C24.721,79.423 24.522,79.185 24.33,78.942 L24.244,78.836 Z M39.996,89.908 C40.554,90.029 41.129,90.142 41.76,90.25 C42.455,90.369 43.16,90.47 43.952,90.563 L44.053,90.575 C44.747,90.653 45.449,90.712 46.157,90.755 L46.588,90.778 C48.128,90.854 49.646,90.86 51.376,90.753 L51.763,90.732 C65.105,89.784 75.936,82.566 78.101,73.181 L77.176,72.967 L78.113,73.134 L78.146,73.001 C78.209,72.715 78.259,72.426 78.314,72.084 L78.343,71.927 C78.362,71.791 78.375,71.654 78.389,71.517 L78.403,71.363 C78.47,70.749 78.501,70.23 78.501,69.73 C78.501,69.272 78.473,68.819 78.433,68.369 L78.391,67.979 C78.351,67.635 78.301,67.293 78.238,66.957 L78.176,66.612 C78.086,66.18 77.979,65.751 77.854,65.328 L77.762,65.049 C77.656,64.715 77.539,64.385 77.411,64.055 C77.355,63.913 77.299,63.773 77.241,63.639 C77.111,63.33 76.971,63.023 76.82,62.718 L76.664,62.397 C76.468,62.02 76.256,61.649 76.029,61.279 C75.966,61.176 75.898,61.073 75.831,60.971 L75.752,60.851 C75.598,60.613 75.436,60.377 75.27,60.147 C75.158,59.988 75.045,59.832 74.928,59.678 C74.736,59.426 74.535,59.178 74.328,58.932 L74.246,58.829 C74.206,58.777 74.166,58.727 74.124,58.677 C73.944,58.428 73.049,57.261 71.183,55.854 C64.842,50.694 55.276,48.007 45.564,48.741 C44.628,48.798 43.863,48.866 43.25,48.951 C43.047,48.988 42.923,49.017 42.85,49.034 C42.133,49.136 41.39,49.265 40.585,49.428 L40.326,49.479 C40.015,49.545 39.704,49.614 39.391,49.687 L39.039,49.771 C38.748,49.842 38.46,49.916 38.173,49.993 L37.775,50.103 C37.5,50.181 37.227,50.259 36.956,50.342 L36.476,50.493 C36.234,50.571 35.993,50.649 35.758,50.73 L35.362,50.871 C34.522,51.171 33.694,51.503 32.899,51.857 L32.373,52.095 C32.209,52.171 32.049,52.25 31.821,52.362 C31.635,52.454 31.447,52.546 31.261,52.642 C31.089,52.731 30.919,52.821 30.755,52.911 C30.563,53.014 30.373,53.117 30.183,53.225 C30.024,53.315 29.865,53.406 29.715,53.497 C29.52,53.611 29.328,53.728 29.138,53.846 C28.993,53.936 28.848,54.026 28.709,54.116 C28.506,54.247 28.307,54.381 28.112,54.515 L27.741,54.769 C27.515,54.929 27.294,55.093 27.074,55.259 L26.814,55.452 C26.507,55.69 26.206,55.932 25.884,56.207 C25.606,56.442 25.336,56.685 25.077,56.926 L24.852,57.142 C24.655,57.329 24.461,57.519 24.274,57.71 L24.023,57.975 C23.851,58.157 23.683,58.339 23.524,58.521 L23.273,58.81 C23.116,58.994 22.963,59.182 22.815,59.367 L22.587,59.66 C22.435,59.857 22.29,60.057 22.097,60.331 L21.955,60.532 C21.799,60.762 21.651,60.993 21.464,61.293 L21.381,61.425 C21.015,62.035 20.684,62.665 20.401,63.298 L20.289,63.564 C20.192,63.791 20.098,64.021 20.01,64.252 L19.886,64.603 C19.813,64.811 19.743,65.02 19.679,65.232 L19.569,65.613 C19.512,65.818 19.46,66.024 19.41,66.236 L19.322,66.627 C19.279,66.837 19.242,67.049 19.207,67.266 L19.145,67.653 C19.114,67.884 19.092,68.115 19.069,68.357 L19.039,68.685 C19.015,69.03 19,69.378 19,69.73 C19,70.102 19.015,70.472 19.041,70.844 C19.047,70.924 19.057,71.004 19.066,71.083 L19.093,71.331 C19.112,71.535 19.132,71.738 19.161,71.939 C19.176,72.037 19.194,72.134 19.213,72.232 L19.263,72.51 C19.292,72.681 19.322,72.852 19.359,73.021 C19.38,73.117 19.405,73.213 19.431,73.309 L19.497,73.57 C19.54,73.743 19.582,73.916 19.633,74.085 C19.661,74.183 19.694,74.28 19.727,74.377 L19.802,74.602 C19.858,74.779 19.915,74.957 19.979,75.129 C20.012,75.216 20.047,75.302 20.083,75.388 L20.187,75.647 C20.255,75.816 20.323,75.985 20.397,76.152 C20.435,76.237 20.477,76.321 20.518,76.405 L20.58,76.529 C20.678,76.738 20.776,76.946 20.886,77.155 L21.057,77.459 C21.181,77.684 21.306,77.908 21.44,78.13 L21.603,78.382 C21.752,78.617 21.902,78.852 22.066,79.088 L22.198,79.269 C22.377,79.52 22.559,79.769 22.743,80.001 L22.844,80.126 C23.056,80.392 23.273,80.655 23.54,80.955 C24.709,82.276 26.087,83.506 27.64,84.615 L27.64,102.262 L39.996,89.908 Z M93.436,69.119 C93.189,69.119 92.946,69.023 92.765,68.841 L77.977,54.054 L73.461,54.054 C72.936,54.054 72.511,53.628 72.511,53.104 C72.511,52.579 72.936,52.153 73.461,52.153 L78.371,52.153 C78.623,52.153 78.864,52.254 79.043,52.432 L92.486,65.875 L92.486,53.104 C92.486,52.579 92.912,52.153 93.436,52.153 L97.203,52.153 C98.756,52.153 100.019,50.89 100.019,49.337 L100.019,21.717 C100.019,20.164 98.756,18.9 97.203,18.9 L54.516,18.9 C52.964,18.9 51.701,20.164 51.701,21.717 L51.701,44.315 C51.701,44.84 51.275,45.266 50.751,45.266 C50.226,45.266 49.801,44.84 49.801,44.315 L49.801,21.717 C49.801,19.116 51.916,17 54.516,17 L97.203,17 C99.804,17 101.92,19.116 101.92,21.717 L101.92,49.337 C101.92,51.938 99.804,54.054 97.203,54.054 L94.387,54.054 L94.387,68.169 C94.387,68.553 94.155,68.899 93.8,69.047 C93.682,69.096 93.559,69.119 93.436,69.119 L93.436,69.119 Z" id="Fill-7" fill="#343852"></path>
        <path d="M48.5175,79.3595 C46.8435,79.3595 45.5815,78.1775 45.5815,76.6105 C45.5815,75.7135 46.0055,74.9285 46.6765,74.4215 C46.1195,74.1575 45.8585,73.6295 45.8585,73.1295 L45.8585,71.4215 C45.8905,69.9415 46.0715,68.8075 48.1135,67.5025 C50.1865,66.2065 50.5495,65.6095 50.5495,64.8325 C50.5495,63.8695 49.7245,63.6675 49.0325,63.6675 C48.7015,63.6675 47.6225,63.7395 47.6225,64.6695 L47.6225,64.9405 C47.6635,65.4795 47.4335,65.8615 47.2345,66.0755 C47.0365,66.2885 46.6745,66.5415 46.0775,66.5415 L43.6635,66.5415 C42.7715,66.5415 42.1385,66.0425 41.9725,65.2075 C41.8995,64.8455 41.8995,64.5105 41.8995,64.2895 C41.8995,61.3835 44.4275,58.2965 49.1135,58.2965 C53.5035,58.2965 56.5715,60.8495 56.5715,64.5055 C56.5715,67.9685 53.7995,69.8525 51.5735,71.3665 C51.3585,71.5195 51.2455,71.6525 51.2035,71.7155 L51.2035,73.2645 C51.2035,73.7225 50.9805,74.2395 50.3995,74.4695 C51.0425,74.9825 51.4535,75.7525 51.4535,76.6105 C51.4535,78.1515 50.1635,79.3595 48.5175,79.3595" id="Fill-10" fill="#FFFFFF"></path>
        <path d="M48.5731,64.6941 C48.6461,64.6611 48.7971,64.6161 49.0321,64.6161 C49.3691,64.6161 49.5451,64.6891 49.5951,64.7231 C49.5921,64.7301 49.6001,64.7671 49.6001,64.8321 C49.6001,65.0491 49.6001,65.3641 48.2551,66.2781 C48.4831,65.8731 48.5941,65.3971 48.5731,64.8921 L48.5731,64.6941 Z M49.1141,57.3461 C43.8111,57.3461 40.9501,60.9231 40.9501,64.2891 C40.9501,64.5331 40.9501,64.9401 41.0411,65.3961 C41.2951,66.6671 42.3251,67.4911 43.6641,67.4911 L46.0771,67.4911 C46.2561,67.4911 46.4311,67.4741 46.6001,67.4421 C45.2551,68.6101 44.9421,69.8171 44.9091,71.3801 L44.9091,73.1291 C44.9091,73.6291 45.0571,74.0851 45.3161,74.4621 C44.8831,75.0661 44.6321,75.8051 44.6321,76.6101 C44.6321,78.6841 46.3381,80.3091 48.5171,80.3091 C50.6961,80.3091 52.4031,78.6841 52.4031,76.6101 C52.4031,75.8521 52.1671,75.1451 51.7621,74.5551 C52.0261,74.1671 52.1531,73.7091 52.1531,73.2641 L52.1531,72.1201 C54.4011,70.5921 57.5211,68.4661 57.5211,64.5061 C57.5211,60.2901 54.0641,57.3461 49.1141,57.3461 L49.1141,57.3461 Z M48.5171,74.7691 C49.6131,74.7691 50.5031,75.5761 50.5031,76.6101 C50.5031,77.6441 49.6131,78.4091 48.5171,78.4091 C47.3791,78.4091 46.5321,77.6441 46.5321,76.6101 C46.5321,75.5761 47.3791,74.7691 48.5171,74.7691 L48.5171,74.7691 Z M49.1141,59.2461 C52.9101,59.2461 55.6211,61.3341 55.6211,64.5061 C55.6211,67.4621 53.1541,69.1431 51.0391,70.5801 C50.8491,70.7161 50.2791,71.1491 50.2531,71.6101 L50.2531,73.2641 C50.2531,73.5081 50.1171,73.6441 49.6831,73.6441 L47.5141,73.6441 C47.0801,73.6441 46.8091,73.4541 46.8091,73.1291 L46.8091,71.4211 C46.8361,70.1191 46.9711,69.3601 48.6251,68.3031 C50.5781,67.0821 51.5001,66.2151 51.5001,64.8321 C51.5001,63.4761 50.4961,62.7161 49.0321,62.7161 C47.7041,62.7161 46.6731,63.4221 46.6731,64.6691 L46.6731,64.9401 C46.7011,65.3471 46.5101,65.5911 46.0771,65.5911 L43.6641,65.5911 C43.2571,65.5911 42.9851,65.4281 42.9041,65.0211 C42.8501,64.7511 42.8501,64.4791 42.8501,64.2891 C42.8501,62.0931 44.8021,59.2461 49.1141,59.2461 L49.1141,59.2461 Z" id="Fill-12" fill="#343852"></path>
        <path d="M89.5175,32.756 C87.8195,32.756 86.4435,34.132 86.4435,35.83 C86.4435,37.528 87.8195,38.905 89.5175,38.905 C91.2155,38.905 92.5915,37.528 92.5915,35.83 C92.5915,34.132 91.2155,32.756 89.5175,32.756 M76.6585,32.756 C74.9605,32.756 73.5835,34.132 73.5835,35.83 C73.5835,37.528 74.9605,38.905 76.6585,38.905 C78.3565,38.905 79.7325,37.528 79.7325,35.83 C79.7325,34.132 78.3565,32.756 76.6585,32.756 M67.0695,35.83 C67.0695,37.528 65.6935,38.905 63.9955,38.905 C62.2975,38.905 60.9205,37.528 60.9205,35.83 C60.9205,34.132 62.2975,32.756 63.9955,32.756 C65.6935,32.756 67.0695,34.132 67.0695,35.83" id="Fill-14" fill="#D20050"></path>
        <path d="M89.5175,31.4204 C87.0815,31.4204 85.1075,33.3944 85.1075,35.8304 C85.1075,38.2664 87.0815,40.2404 89.5175,40.2404 C91.9535,40.2404 93.9275,38.2664 93.9275,35.8304 C93.9275,33.3944 91.9535,31.4204 89.5175,31.4204 M89.5175,33.3204 C90.9015,33.3204 92.0275,34.4464 92.0275,35.8304 C92.0275,37.2144 90.9015,38.3404 89.5175,38.3404 C88.1335,38.3404 87.0075,37.2144 87.0075,35.8304 C87.0075,34.4464 88.1335,33.3204 89.5175,33.3204 M76.6585,31.4204 C74.2225,31.4204 72.2485,33.3944 72.2485,35.8304 C72.2485,38.2664 74.2225,40.2404 76.6585,40.2404 C79.0935,40.2404 81.0685,38.2664 81.0685,35.8304 C81.0685,33.3944 79.0935,31.4204 76.6585,31.4204 M76.6585,33.3204 C78.0425,33.3204 79.1685,34.4464 79.1685,35.8304 C79.1685,37.2144 78.0425,38.3404 76.6585,38.3404 C75.2745,38.3404 74.1485,37.2144 74.1485,35.8304 C74.1485,34.4464 75.2745,33.3204 76.6585,33.3204 M63.9955,31.4204 C61.5595,31.4204 59.5855,33.3944 59.5855,35.8304 C59.5855,38.2664 61.5595,40.2404 63.9955,40.2404 C66.4305,40.2404 68.4055,38.2664 68.4055,35.8304 C68.4055,33.3944 66.4305,31.4204 63.9955,31.4204 M63.9955,33.3204 C65.3795,33.3204 66.5055,34.4464 66.5055,35.8304 C66.5055,37.2144 65.3795,38.3404 63.9955,38.3404 C62.6115,38.3404 61.4855,37.2144 61.4855,35.8304 C61.4855,34.4464 62.6115,33.3204 63.9955,33.3204" id="Fill-16" fill="#343852"></path>
    </g>
</svg>