<?xml version="1.0" encoding="UTF-8"?>
<svg width="120px" height="120px" viewBox="0 0 120 120" version="1.1" xmlns="http://www.w3.org/2000/svg" xmlns:xlink="http://www.w3.org/1999/xlink">
    <title>02.Icons/Illustrative/Charts - Polaire</title>
    <g id="02.Icons/Illustrative/Charts---Polaire" stroke="none" stroke-width="1" fill="none" fill-rule="evenodd">
        <g id="Charts---Polaire" transform="translate(9.691400, 14.108200)">
            <path d="M37.708,80.359 L37.706,80.359 C16.881,80.359 0,63.75 0,43.262 L0,1.396 L0,0 C2.948,3.229 8.867,5.978 20.884,6.165 L37.708,6.165 C58.532,6.165 75.414,22.773 75.414,43.262 C75.414,63.75 58.532,80.359 37.708,80.359" id="Fill-1" fill="#F2F3F7"></path>
            <path d="M88.8394,45.9651 C88.8394,67.2451 71.5884,84.4961 50.3084,84.4961 C29.0294,84.4961 11.7774,67.2451 11.7774,45.9651 C11.7774,24.6851 29.0294,7.4341 50.3084,7.4341 C71.5884,7.4341 88.8394,24.6851 88.8394,45.9651" id="Fill-3" fill="#FFFFFF"></path>
            <path d="M38.5855,64.5857 L50.0165,46.1057 L28.4055,46.1057 C28.4055,53.8847 32.4725,60.6997 38.5855,64.5857" id="Fill-5" fill="#C5C8DA"></path>
            <path d="M50.3087,73.3507 C55.1817,73.3507 59.7527,72.0647 63.7097,69.8237 L50.0157,46.1047 L36.4677,69.5707 C40.5247,71.9697 45.2547,73.3507 50.3087,73.3507" id="Fill-7" fill="#DEE0EA"></path>
            <path d="M50.0163,46.1055 L58.9673,30.6015 C56.4043,29.1665 53.4543,28.3415 50.3093,28.3415 C46.9813,28.3415 43.8793,29.2735 41.2173,30.8645 L50.0163,46.1055 Z" id="Fill-9" fill="#697097"></path>
            <path d="M34.1227,18.577 C24.6997,24.13 18.3717,34.376 18.3717,46.105 L50.0167,46.105 L34.1227,18.577 Z" id="Fill-11" fill="#969CBB"></path>
            <path d="M65.9804,73.6898 C75.5674,68.2308 82.0374,57.9268 82.0374,46.1058 L50.3084,46.1058 L65.9804,73.6898 Z" id="Fill-13" fill="#D20050"></path>
            <path d="M61.3714,26.4735 L50.3084,46.1055 L72.8534,46.1055 C72.8534,37.6775 68.2214,30.3415 61.3714,26.4735" id="Fill-15" fill="#1D71B8"></path>
            <path d="M93.1717,44.9591 L89.9577,44.9591 C89.5617,31.0991 82.0347,18.9931 70.9117,12.2081 L72.5887,9.3051 C72.9047,8.7571 72.7167,8.0551 72.1677,7.7381 C71.6187,7.4201 70.9177,7.6091 70.6007,8.1581 L68.9167,11.0751 C63.3627,8.1131 57.0287,6.4271 50.3087,6.4271 C43.4067,6.4271 36.9127,8.2021 31.2537,11.3141 L29.4327,8.1581 C29.1147,7.6091 28.4117,7.4201 27.8647,7.7381 C27.3157,8.0551 27.1277,8.7571 27.4447,9.3051 L29.2787,12.4811 C18.3937,19.3151 11.0517,31.2781 10.6587,44.9591 L6.8607,44.9591 C6.2267,44.9591 5.7137,45.4721 5.7137,46.1061 C5.7137,46.7391 6.2267,47.2531 6.8607,47.2531 L10.6587,47.2531 C11.0517,60.9331 18.3937,72.8961 29.2787,79.7301 L27.4447,82.9061 C27.1277,83.4541 27.3157,84.1561 27.8647,84.4731 C28.0457,84.5771 28.2417,84.6271 28.4367,84.6271 C28.8337,84.6271 29.2187,84.4211 29.4327,84.0531 L31.2537,80.8971 C36.9127,84.0091 43.4067,85.7841 50.3087,85.7841 C57.0287,85.7841 63.3637,84.0981 68.9167,81.1361 L70.6007,84.0531 C70.8137,84.4211 71.1987,84.6271 71.5947,84.6271 C71.7897,84.6271 71.9877,84.5771 72.1677,84.4731 C72.7167,84.1561 72.9047,83.4541 72.5887,82.9061 L70.9117,80.0031 C82.0347,73.2181 89.5617,61.1121 89.9577,47.2531 L93.1717,47.2531 C93.8057,47.2531 94.3187,46.7391 94.3187,46.1061 C94.3187,45.4721 93.8057,44.9591 93.1717,44.9591 L93.1717,44.9591 Z M87.6637,44.9591 L73.9617,44.9591 C73.5867,37.2571 69.4507,30.1901 62.9087,26.0691 L69.7637,14.1961 C80.2017,20.5831 87.2687,31.9461 87.6637,44.9591 L87.6637,44.9591 Z M52.0037,47.2531 L80.8517,47.2531 C80.4677,57.4071 75.0167,66.7561 66.3557,72.1121 L52.0037,47.2531 Z M48.0287,44.9591 L19.5567,44.9591 C19.9367,34.9281 25.2627,25.6171 33.7267,20.1861 L48.0287,44.9591 Z M61.7617,28.0551 C67.5977,31.7651 71.2957,38.0761 71.6667,44.9591 L52.0037,44.9591 L61.7617,28.0551 Z M50.0157,43.8111 L42.7957,31.3051 C47.3247,29.0181 52.8087,28.9441 57.3697,31.0731 L50.0157,43.8111 Z M48.0287,47.2531 L38.7557,63.3151 C33.3077,59.6541 29.9457,53.7501 29.5897,47.2531 L48.0287,47.2531 Z M50.0157,48.4001 L62.1197,69.3631 C58.4727,71.2171 54.4177,72.2041 50.3087,72.2041 C46.0227,72.2041 41.8117,71.1361 38.0487,69.1281 L50.0157,48.4001 Z M50.3087,8.7211 C56.6117,8.7211 62.5537,10.2961 67.7687,13.0641 L58.5217,29.0791 C55.9657,27.8441 53.1497,27.1941 50.3087,27.1941 C47.2997,27.1941 44.3297,27.9271 41.6477,29.3161 L32.3997,13.2991 C37.7217,10.3831 43.8237,8.7211 50.3087,8.7211 L50.3087,8.7211 Z M30.4267,14.4701 L32.5787,18.1991 C23.4107,24.0411 17.6457,34.1131 17.2627,44.9591 L12.9537,44.9591 C13.3437,32.1251 20.2257,20.9031 30.4267,14.4701 L30.4267,14.4701 Z M12.9537,47.2531 L27.2957,47.2531 C27.6557,54.5721 31.4437,61.2251 37.6067,65.3061 L30.4267,77.7411 C20.2257,71.3081 13.3437,60.0861 12.9537,47.2531 L12.9537,47.2531 Z M50.3087,83.4901 C43.8237,83.4901 37.7217,81.8281 32.3997,78.9111 L36.9027,71.1151 C41.0137,73.3221 45.6187,74.4981 50.3087,74.4981 C54.8187,74.4981 59.2707,73.4051 63.2667,71.3511 L67.7687,79.1471 C62.5537,81.9151 56.6117,83.4901 50.3087,83.4901 L50.3087,83.4901 Z M69.7637,78.0151 L67.5037,74.1001 C76.8717,68.3321 82.7597,58.2251 83.1457,47.2531 L87.6637,47.2531 C87.2687,60.2661 80.2017,71.6281 69.7637,78.0151 L69.7637,78.0151 Z" id="Fill-17" fill="#343852"></path>
        </g>
    </g>
</svg>