<?xml version="1.0" encoding="UTF-8"?>
<svg width="120px" height="120px" viewBox="0 0 120 120" version="1.1" xmlns="http://www.w3.org/2000/svg" xmlns:xlink="http://www.w3.org/1999/xlink">
    <title>02.Icons/Illustrative/01. Profils/Institutionnel</title>
    <g id="02.Icons/Illustrative/01.-Profils/Institutionnel" stroke="none" stroke-width="1" fill="none" fill-rule="evenodd">
        <g id="Institutionnel" transform="translate(14.000000, 17.000100)">
            <path d="M92.0144,44.0955 C92.0144,25.1585 76.6634,9.8075 57.7264,9.8075 C38.7894,9.8075 23.4384,25.1585 23.4384,44.0955 C23.4384,63.0325 38.7894,78.3835 57.7264,78.3835 C76.6634,78.3835 92.0144,63.0325 92.0144,44.0955" id="Fill-1" fill="#F2F3F7"></path>
            <path d="M54.3737,36.4025 L54.3737,25.4495 C54.3737,24.5565 53.6497,23.8325 52.7567,23.8325 L48.7367,23.8325 C47.8437,23.8325 47.1197,23.1085 47.1197,22.2155 L47.1197,16.2675 C47.1197,15.3745 46.3967,14.6505 45.5037,14.6505 L31.8247,14.6505 C30.9317,14.6505 30.2077,15.3745 30.2077,16.2675 L30.2077,22.2155 C30.2077,23.1085 29.4837,23.8325 28.5907,23.8325 L24.4777,23.8325 C23.5847,23.8325 22.8607,24.5565 22.8607,25.4495 L22.8607,31.7415 C22.8607,32.7195 21.9987,33.4745 21.0287,33.3435 L17.4137,32.8595 C16.4437,32.7285 15.5817,33.4835 15.5817,34.4615 L15.5817,83.0445 C15.5817,83.9375 16.3057,84.6615 17.1987,84.6615 L60.3507,84.6615 C61.2437,84.6615 61.9677,83.9375 61.9677,83.0445 L61.9677,40.2505 C61.9677,39.4405 61.3687,38.7555 60.5657,38.6475 L55.7757,38.0045 C54.9727,37.8975 54.3737,37.2125 54.3737,36.4025" id="Fill-4" fill="#EDEEF3"></path>
            <polygon id="Fill-6" fill="#1D71B8" points="34.0708 73.1599 42.9038 73.1599 43.3208 84.6619 33.6538 84.6619"></polygon>
            <polygon id="Fill-8" fill="#C5C8DA" points="61.968 55.7715 83.988 56.2345 83.988 84.2935 61.968 84.6615"></polygon>
            <path d="M81.184,84.2939 L79.37,79.5169 L75.556,78.7209 L73.478,77.9989 L71.52,76.9619 L69.483,75.1479 L66.566,73.2969 L63.151,74.4949 L61.411,78.5179 L60.152,78.5179 L56.783,80.6649 L57.56,84.1459 L81.184,84.2939 Z M7.355,84.1459 L6.577,80.6649 L9.947,78.5179 L11.206,78.5179 L12.946,74.4949 L16.36,73.2969 L19.278,75.1479 L21.314,76.9619 L23.272,77.9989 L25.35,78.7209 L29.164,79.5169 L30.979,84.2939 L7.355,84.1459 Z" id="Fill-10" fill="#969CBB"></path>
            <polygon id="Fill-12" fill="#D20050" points="39.251 5.9329 47.949 5.9329 47.949 1.3879 39.251 1.3879"></polygon>
            <path d="M49.421,67.263 C49.421,66.708 49.872,66.257 50.426,66.257 L57.247,66.257 C57.801,66.257 58.252,66.708 58.252,67.263 C58.252,67.818 57.801,68.269 57.247,68.269 L50.426,68.269 C49.872,68.269 49.421,67.818 49.421,67.263 L49.421,67.263 Z M31.798,67.263 C31.798,66.708 32.249,66.257 32.803,66.257 L44.306,66.257 C44.86,66.257 45.311,66.708 45.311,67.263 C45.311,67.818 44.86,68.269 44.306,68.269 L32.803,68.269 C32.249,68.269 31.798,67.818 31.798,67.263 L31.798,67.263 Z M18.857,67.263 C18.857,66.708 19.308,66.257 19.862,66.257 L26.683,66.257 C27.237,66.257 27.688,66.708 27.688,67.263 C27.688,67.818 27.237,68.269 26.683,68.269 L19.862,68.269 C19.308,68.269 18.857,67.818 18.857,67.263 L18.857,67.263 Z M49.421,59.541 C49.421,58.986 49.872,58.535 50.426,58.535 L57.247,58.535 C57.801,58.535 58.252,58.986 58.252,59.541 C58.252,60.096 57.801,60.547 57.247,60.547 L50.426,60.547 C49.872,60.547 49.421,60.096 49.421,59.541 L49.421,59.541 Z M31.798,59.541 C31.798,58.986 32.249,58.535 32.803,58.535 L44.306,58.535 C44.86,58.535 45.311,58.986 45.311,59.541 C45.311,60.096 44.86,60.547 44.306,60.547 L32.803,60.547 C32.249,60.547 31.798,60.096 31.798,59.541 L31.798,59.541 Z M18.857,59.541 C18.857,58.986 19.308,58.535 19.862,58.535 L26.683,58.535 C27.237,58.535 27.688,58.986 27.688,59.541 C27.688,60.096 27.237,60.547 26.683,60.547 L19.862,60.547 C19.308,60.547 18.857,60.096 18.857,59.541 L18.857,59.541 Z M49.421,51.818 C49.421,51.263 49.872,50.811 50.426,50.811 L57.247,50.811 C57.801,50.811 58.252,51.263 58.252,51.818 C58.252,52.372 57.801,52.824 57.247,52.824 L50.426,52.824 C49.872,52.824 49.421,52.372 49.421,51.818 L49.421,51.818 Z M31.798,51.818 C31.798,51.263 32.249,50.811 32.803,50.811 L44.306,50.811 C44.86,50.811 45.311,51.263 45.311,51.818 C45.311,52.372 44.86,52.824 44.306,52.824 L32.803,52.824 C32.249,52.824 31.798,52.372 31.798,51.818 L31.798,51.818 Z M18.857,51.818 C18.857,51.263 19.308,50.811 19.862,50.811 L26.683,50.811 C27.237,50.811 27.688,51.263 27.688,51.818 C27.688,52.372 27.237,52.824 26.683,52.824 L19.862,52.824 C19.308,52.824 18.857,52.372 18.857,51.818 L18.857,51.818 Z M49.421,44.096 C49.421,43.541 49.872,43.089 50.426,43.089 L57.247,43.089 C57.801,43.089 58.252,43.541 58.252,44.096 C58.252,44.65 57.801,45.102 57.247,45.102 L50.426,45.102 C49.872,45.102 49.421,44.65 49.421,44.096 L49.421,44.096 Z M31.798,44.096 C31.798,43.541 32.249,43.089 32.803,43.089 L44.306,43.089 C44.86,43.089 45.311,43.541 45.311,44.096 C45.311,44.65 44.86,45.102 44.306,45.102 L32.803,45.102 C32.249,45.102 31.798,44.65 31.798,44.096 L31.798,44.096 Z M18.857,44.096 C18.857,43.541 19.308,43.089 19.862,43.089 L26.683,43.089 C27.237,43.089 27.688,43.541 27.688,44.096 C27.688,44.65 27.237,45.102 26.683,45.102 L19.862,45.102 C19.308,45.102 18.857,44.65 18.857,44.096 L18.857,44.096 Z M80.024,83.59 L58.413,83.59 L58.316,83.59 L58.256,83.513 C57.568,82.642 57.548,81.413 58.209,80.523 C58.669,79.904 59.409,79.535 60.186,79.535 C60.647,79.535 61.096,79.664 61.485,79.908 C61.644,80.007 61.829,80.06 62.018,80.06 C62.248,80.06 62.472,79.981 62.651,79.838 C62.984,79.57 63.11,79.118 62.965,78.715 C62.723,78.045 62.711,77.339 62.893,76.684 C62.894,76.682 62.894,76.681 62.894,76.679 C63.038,76.166 63.298,75.683 63.681,75.278 C64.32,74.602 65.181,74.229 66.106,74.229 C66.431,74.229 66.755,74.277 67.07,74.37 C68.288,74.733 69.183,75.736 69.407,76.988 C69.463,77.302 69.668,77.573 69.955,77.714 C70.092,77.781 70.244,77.817 70.396,77.817 C70.559,77.817 70.72,77.777 70.864,77.702 C71.027,77.615 71.212,77.569 71.399,77.569 C71.656,77.569 71.91,77.656 72.113,77.814 C72.472,78.098 72.631,78.566 72.521,79.006 C72.417,79.419 72.584,79.854 72.936,80.089 C73.103,80.2 73.296,80.258 73.496,80.258 C73.713,80.258 73.921,80.19 74.096,80.06 C74.765,79.562 75.557,79.3 76.387,79.3 C77.188,79.3 77.959,79.546 78.615,80.012 C79.716,80.793 80.317,82.061 80.224,83.403 L80.211,83.59 L80.024,83.59 Z M41.945,83.59 L35.164,83.59 L34.963,83.59 L34.963,83.389 L34.963,74.022 L34.963,73.821 L35.164,73.821 L41.945,73.821 L42.146,73.821 L42.146,74.022 L42.146,83.389 L42.146,83.59 L41.945,83.59 Z M29.71,83.59 L8.099,83.59 L8.002,83.59 L7.942,83.513 C7.253,82.643 7.234,81.413 7.894,80.523 C8.353,79.904 9.092,79.534 9.871,79.534 C10.333,79.534 10.783,79.663 11.171,79.908 C11.331,80.008 11.516,80.061 11.705,80.061 C11.934,80.061 12.158,79.982 12.336,79.838 C12.669,79.57 12.796,79.118 12.65,78.715 C12.219,77.518 12.494,76.201 13.367,75.277 C14.005,74.601 14.865,74.228 15.789,74.228 C16.115,74.228 16.441,74.276 16.757,74.37 C17.974,74.733 18.869,75.736 19.093,76.988 C19.149,77.302 19.354,77.573 19.641,77.714 C19.778,77.781 19.93,77.817 20.083,77.817 C20.245,77.817 20.407,77.777 20.55,77.702 C20.714,77.616 20.9,77.57 21.086,77.57 C21.345,77.57 21.598,77.657 21.8,77.814 C22.158,78.098 22.317,78.566 22.207,79.008 C22.103,79.419 22.271,79.854 22.623,80.089 C22.789,80.2 22.983,80.258 23.182,80.258 C23.4,80.258 23.607,80.19 23.781,80.06 C24.451,79.562 25.243,79.3 26.072,79.3 C26.873,79.3 27.644,79.546 28.3,80.012 C29.401,80.793 30.003,82.06 29.91,83.402 L29.897,83.59 L29.71,83.59 Z M17.704,33.831 L59.234,39.114 C59.276,39.119 59.318,39.122 59.361,39.122 C60.244,39.122 60.962,39.84 60.962,40.723 L60.962,76.151 C60.853,76.541 60.772,76.94 60.756,77.349 L60.747,77.559 L60.538,77.541 C60.412,77.531 60.286,77.525 60.16,77.525 C58.764,77.525 57.431,78.197 56.594,79.323 C55.659,80.583 55.505,82.2 56.035,83.59 L44.157,83.59 L44.157,72.815 C44.157,72.26 43.706,71.809 43.152,71.809 L33.957,71.809 C33.403,71.809 32.952,72.26 32.952,72.815 L32.952,83.59 L31.896,83.59 C32.053,81.572 31.171,79.584 29.465,78.371 C28.466,77.663 27.293,77.288 26.073,77.288 C25.449,77.288 24.833,77.387 24.241,77.582 L24.066,77.639 L23.993,77.471 C23.785,76.988 23.457,76.561 23.046,76.237 C22.484,75.793 21.802,75.559 21.074,75.559 C21.019,75.559 20.964,75.56 20.909,75.563 L20.77,75.57 L20.715,75.442 C20.09,73.991 18.857,72.898 17.332,72.444 C16.948,72.328 16.555,72.27 16.159,72.242 L16.159,35.432 C16.159,34.568 16.847,33.861 17.704,33.831 L17.704,33.831 Z M23.469,26.136 C23.469,25.253 24.187,24.535 25.07,24.535 L52.046,24.535 C52.929,24.535 53.647,25.253 53.647,26.136 L53.647,36.377 L23.469,32.538 L23.469,26.136 Z M30.899,17.114 C30.899,16.17 31.426,15.512 31.898,15.512 L45.211,15.512 C45.684,15.512 46.211,16.17 46.211,17.114 L46.211,22.524 L30.899,22.524 L30.899,17.114 Z M81.349,56.777 C82.25,56.777 82.982,57.509 82.982,58.41 L82.982,83.59 L82.21,83.59 C82.367,81.572 81.485,79.584 79.779,78.371 C78.781,77.662 77.608,77.288 76.389,77.288 C75.764,77.288 75.147,77.387 74.555,77.582 L74.38,77.639 L74.307,77.47 C74.1,76.989 73.772,76.562 73.36,76.237 C72.797,75.793 72.118,75.558 71.397,75.558 C71.34,75.558 71.282,75.56 71.224,75.563 L71.084,75.571 L71.029,75.442 C70.404,73.991 69.171,72.899 67.646,72.444 C67.141,72.292 66.621,72.214 66.099,72.214 C64.975,72.214 63.881,72.588 62.973,73.248 L62.973,56.777 L81.349,56.777 Z M39.675,5.209 L39.675,2.329 L39.675,2.128 L39.876,2.128 L47.016,2.128 L47.217,2.128 L47.217,2.329 L47.217,5.209 L47.217,5.41 L47.016,5.41 L39.876,5.41 L39.675,5.41 L39.675,5.209 Z M89.422,83.59 L84.993,83.59 L84.993,58.41 C84.993,56.4 83.358,54.766 81.349,54.766 L62.973,54.766 L62.973,40.723 C62.973,38.755 61.39,37.149 59.429,37.112 L55.658,36.632 L55.658,26.136 C55.658,24.144 54.038,22.524 52.046,22.524 L48.222,22.524 L48.222,17.114 C48.222,15.122 46.871,13.502 45.211,13.502 L39.559,13.502 L39.559,7.537 L48.28,7.537 C48.866,7.537 49.343,7.06 49.343,6.474 L49.343,1.064 C49.343,0.477 48.866,0 48.28,0 L38.612,0 C38.601,0 38.593,0.005 38.583,0.006 C38.573,0.005 38.564,0 38.554,0 C38,0 37.549,0.451 37.549,1.006 L37.549,1.064 L37.549,6.474 L37.549,13.502 L31.898,13.502 C30.238,13.502 28.888,15.122 28.888,17.114 L28.888,22.524 L25.07,22.524 C23.079,22.524 21.458,24.144 21.458,26.136 L21.458,32.283 L17.887,31.828 C17.845,31.823 17.803,31.82 17.761,31.82 C15.769,31.82 14.149,33.44 14.149,35.432 L14.149,72.444 C14.149,72.462 14.158,72.477 14.159,72.495 C13.316,72.767 12.539,73.225 11.905,73.896 C11.014,74.839 10.494,76.066 10.441,77.349 L10.433,77.559 L10.223,77.541 C10.098,77.531 9.972,77.525 9.847,77.525 C8.45,77.525 7.117,78.197 6.28,79.323 C5.345,80.583 5.191,82.201 5.722,83.59 L1.005,83.59 C0.451,83.59 0,84.041 0,84.596 C0,85.151 0.451,85.602 1.005,85.602 L7.589,85.602 L30.701,85.602 L33.957,85.602 L43.152,85.602 L57.903,85.602 L81.015,85.602 L89.422,85.602 C89.977,85.602 90.428,85.151 90.428,84.596 C90.428,84.041 89.977,83.59 89.422,83.59 L89.422,83.59 Z" id="Fill-14" fill="#343852"></path>
        </g>
    </g>
</svg>