<?xml version="1.0" encoding="UTF-8"?>
<svg width="120px" height="120px" viewBox="0 0 120 120" version="1.1" xmlns="http://www.w3.org/2000/svg" xmlns:xlink="http://www.w3.org/1999/xlink">
    <title>02.Icons/Illustrative/01. Profils/Masseur-kinesitherapeute</title>
    <g id="02.Icons/Illustrative/01.-Profils/Masseur-kinesitherapeute" stroke="none" stroke-width="1" fill="none" fill-rule="evenodd">
        <path d="M61.7179,104.2263 L61.7209,104.2263 C84.7049,104.2263 103.3369,85.8953 103.3369,63.2823 L103.3369,17.0743 L103.3369,15.5333 C100.0829,19.0973 93.5499,22.1323 80.2869,22.3383 L61.7179,22.3383 C38.7339,22.3383 20.1019,40.6683 20.1019,63.2823 C20.1019,85.8953 38.7339,104.2263 61.7179,104.2263" id="Fill-1" fill="#F2F3F7"></path>
        <path d="M60.6004,34.159 C56.2434,34.159 52.6984,30.613 52.6984,26.255 L52.6984,22.902 C52.6984,18.544 56.2434,15 60.6004,15 C64.9584,15 68.5034,18.544 68.5034,22.902 L68.5034,26.255 C68.5034,30.613 64.9584,34.159 60.6004,34.159" id="Fill-3" fill="#FFFFFF"></path>
        <polygon id="Fill-5" fill="#FFFFFF" points="94.1412 56.4423 56.8542 56.5173 51.8562 59.5653 40.4762 78.2433 22.7232 78.2763 22.7232 93.1473 50.3932 93.3913 57.2462 89.9823 101.8332 89.9773 101.8332 79.9823 55.0502 78.2433 62.2782 64.8273 90.1922 64.5023 93.7882 62.0643"></polygon>
        <path d="M71.7892,78.6077 L72.4902,67.6547 L76.6962,71.2477 L89.3132,71.1597 L90.7872,68.2347 L89.1102,64.8277 L62.2782,64.8277 L55.7542,77.5567 L71.7892,78.6077 Z M48.4012,69.1217 L33.9452,56.2827 L33.7552,52.5737 L44.2162,40.8757 L51.8252,39.6387 L74.3652,39.9247 L79.7862,43.3487 L80.7252,56.4427 L61.2402,56.3777 L55.3442,56.6627 L51.2542,60.7527 L53.4422,65.0327 L52.8002,67.8017 L48.4012,69.1217 Z" id="Fill-7" fill="#1D71B8"></path>
        <path d="M35.5382,51.9624 L40.5912,45.4654 C42.9612,42.4194 46.5322,40.6724 50.3922,40.6724 L72.3402,40.6724 C76.4122,40.6724 79.7252,43.9844 79.7252,48.0574 L79.7252,55.4414 L73.3402,55.4414 L73.3402,51.6484 L74.9112,48.5044 C75.1582,48.0104 74.9582,47.4094 74.4642,47.1624 C73.9702,46.9174 73.3682,47.1154 73.1222,47.6094 L71.4452,50.9644 C71.3762,51.1034 71.3402,51.2564 71.3402,51.4114 L71.3402,55.4414 L58.8062,55.4414 C55.4522,55.4414 52.2672,57.2184 50.4792,60.0814 L44.4232,54.6894 L47.9592,50.3664 C48.3092,49.9404 48.2452,49.3094 47.8172,48.9594 C47.3912,48.6114 46.7612,48.6724 46.4102,49.1014 L42.2672,54.1654 C41.9292,54.5804 41.9762,55.1894 42.3772,55.5454 L51.4022,63.5814 C52.4572,64.5204 52.6862,66.0754 51.9482,67.2784 C51.5732,67.8884 50.9542,68.2974 50.2482,68.4014 C49.5442,68.5044 48.8312,68.2954 48.2972,67.8194 L35.9912,56.8944 C34.5692,55.6304 34.3712,53.4634 35.5382,51.9624 L35.5382,51.9624 Z M87.4862,70.5354 L79.0482,70.5354 C76.2422,70.5354 73.9082,68.4994 73.4332,65.8274 L82.4022,65.8274 L87.3802,65.8274 C88.7072,65.8274 89.7872,66.9074 89.7872,68.2344 C89.7872,69.5034 88.7552,70.5354 87.4862,70.5354 L87.4862,70.5354 Z M56.7022,77.2844 L62.8742,65.8274 L71.3402,65.8274 L71.3402,77.8064 L56.7022,77.2844 Z M102.5262,88.9834 L57.2462,88.9834 C57.0492,88.9834 56.8552,89.0414 56.6912,89.1504 L54.6182,90.5334 C52.8492,91.7134 50.7882,92.3364 48.6612,92.3364 L33.0912,92.3364 L33.0912,79.2434 L40.4762,79.2434 C40.8242,79.2434 41.1462,79.0634 41.3282,78.7684 L47.0892,69.4044 C47.8842,70.0644 48.8702,70.4284 49.8922,70.4284 C50.1072,70.4284 50.3242,70.4124 50.5412,70.3804 C51.8332,70.1894 52.9672,69.4414 53.6522,68.3254 C54.8982,66.2944 54.5122,63.6714 52.7322,62.0874 L51.9952,61.4304 L52.1602,61.1614 C53.5812,58.8674 56.1282,57.4414 58.8062,57.4414 L93.1412,57.4414 L93.1412,59.7964 C93.1412,62.0194 91.3332,63.8274 89.1102,63.8274 L87.3802,63.8274 L82.4022,63.8274 L62.2772,63.8274 C61.9092,63.8274 61.5712,64.0294 61.3962,64.3534 L54.4532,77.2434 L47.1842,77.2434 C46.6322,77.2434 46.1842,77.6914 46.1842,78.2434 C46.1842,78.7964 46.6322,79.2434 47.1842,79.2434 L55.0412,79.2424 C55.0442,79.2424 55.0462,79.2434 55.0492,79.2434 C55.0512,79.2434 55.0532,79.2424 55.0562,79.2424 L55.5332,79.2424 L72.3142,79.8414 C72.3232,79.8424 72.3302,79.8474 72.3402,79.8474 C72.3462,79.8474 72.3522,79.8434 72.3582,79.8434 L102.4902,80.9194 C102.5032,80.9204 102.5152,80.9204 102.5272,80.9204 C103.0622,80.9204 103.5072,80.4954 103.5252,79.9564 C103.5462,79.4034 103.1142,78.9414 102.5622,78.9214 L73.3402,77.8784 L73.3402,69.9894 C74.7512,71.5484 76.7842,72.5354 79.0482,72.5354 L87.4862,72.5354 C89.8572,72.5354 91.7872,70.6064 91.7872,68.2344 C91.7872,67.2274 91.4342,66.3094 90.8632,65.5664 C93.3352,64.8134 95.1412,62.5124 95.1412,59.7964 L95.1412,56.4414 C95.1412,55.8894 94.6932,55.4414 94.1412,55.4414 L81.7252,55.4414 L81.7252,48.0574 C81.7252,42.8824 77.5152,38.6724 72.3402,38.6724 L50.3922,38.6724 C45.9112,38.6724 41.7642,40.7004 39.0132,44.2364 L33.9602,50.7334 C32.1472,53.0654 32.4562,56.4264 34.6622,58.3894 L45.5632,68.0674 L39.9182,77.2434 L22.0292,77.2434 C21.4762,77.2434 21.0292,77.6914 21.0292,78.2434 C21.0292,78.7964 21.4762,79.2434 22.0292,79.2434 L31.0912,79.2434 L31.0912,92.3364 L22.0292,92.3364 C21.4762,92.3364 21.0292,92.7834 21.0292,93.3364 C21.0292,93.8894 21.4762,94.3364 22.0292,94.3364 L48.6612,94.3364 C51.1842,94.3364 53.6282,93.5974 55.7272,92.1974 L57.5492,90.9834 L102.5262,90.9834 C103.0792,90.9834 103.5262,90.5354 103.5262,89.9834 C103.5262,89.4304 103.0792,88.9834 102.5262,88.9834 L102.5262,88.9834 Z M54.8922,22.9014 C54.8922,19.7544 57.4532,17.1934 60.6002,17.1934 C63.7482,17.1934 66.3092,19.7544 66.3092,22.9014 L66.3092,26.2554 C66.3092,29.4024 63.7482,31.9644 60.6002,31.9644 C57.4532,31.9644 54.8922,29.4024 54.8922,26.2554 L54.8922,22.9014 Z M60.6002,33.9644 C64.8502,33.9644 68.3092,30.5064 68.3092,26.2554 L68.3092,22.9014 C68.3092,18.6514 64.8502,15.1934 60.6002,15.1934 C56.3502,15.1934 52.8922,18.6514 52.8922,22.9014 L52.8922,26.2554 C52.8922,30.5064 56.3502,33.9644 60.6002,33.9644 L60.6002,33.9644 Z" id="Fill-9" fill="#343852"></path>
        <polygon id="Fill-11" fill="#D20050" points="18.3175 31.6807 23.2315 31.6807 23.6415 26.3567 30.2975 26.3567 30.2975 31.2447 35.6215 31.6807 35.6215 37.9137 30.2975 38.3367 30.2975 43.6607 23.5915 43.2327 23.6415 38.3367 18.1015 38.3247"></polygon>
        <path d="M22.325,44.6252 L30.864,44.6252 L30.864,39.3012 L36.189,39.3012 L36.189,30.7602 L30.864,30.7602 L30.864,25.4362 L22.325,25.4362 L22.325,30.7602 L17,30.7602 L17,39.3012 L22.325,39.3012 L22.325,44.6252 Z M18.885,37.4162 L18.885,32.6442 L24.21,32.6442 L24.21,27.3202 L28.981,27.3202 L28.981,32.6442 L34.304,32.6442 L34.304,37.4162 L28.981,37.4162 L28.981,42.7402 L24.21,42.7402 L24.21,37.4162 L18.885,37.4162 Z" id="Fill-13" fill="#343852"></path>
    </g>
</svg>