<?xml version="1.0" encoding="UTF-8"?>
<svg width="120px" height="120px" viewBox="0 0 120 120" version="1.1" xmlns="http://www.w3.org/2000/svg" xmlns:xlink="http://www.w3.org/1999/xlink">
    <title>02.Icons/Illustrative/04. Donnees et graphiques/Tree Map</title>
    <g id="02.Icons/Illustrative/04.-Donnees-et-graphiques/Tree-Map" stroke="none" stroke-width="1" fill="none" fill-rule="evenodd">
        <g id="Charts---Tree-Map" transform="translate(6.000000, 9.000100)">
            <path d="M66.575,33.287 C66.575,14.902 51.67,0 33.287,0 C14.904,0 0,14.902 0,33.287 C0,51.672 14.904,66.575 33.287,66.575 C51.67,66.575 66.575,51.672 66.575,33.287" id="Fill-1" fill="#F2F3F7"></path>
            <path d="M54.3512,87.7872 L20.7962,87.7872 C19.2232,87.7872 17.9482,86.5122 17.9482,84.9392 L17.9482,18.2512 C17.9482,16.6782 19.2232,15.4032 20.7962,15.4032 L54.3512,15.4032 L54.3512,87.7872 Z" id="Fill-3" fill="#C5C8DA"></path>
            <polygon id="Fill-5" fill="#1D71B8" points="54.352 87.7869 72.852 87.7869 72.852 51.7869 54.352 51.7869"></polygon>
            <polygon id="Fill-7" fill="#697097" points="54.351 51.7879 90.735 51.7879 90.735 33.2879 54.351 33.2879"></polygon>
            <polygon id="Fill-8" fill="#F2F3F7" points="72.851 70.0959 90.735 70.0959 90.735 51.5959 72.851 51.5959"></polygon>
            <path d="M87.8874,88.2878 L72.8514,88.2878 L72.8514,70.0958 L90.7354,70.0958 L90.7354,85.4398 C90.7354,87.0128 89.4604,88.2878 87.8874,88.2878" id="Fill-9" fill="#C5C8DA"></path>
            <path d="M90.7354,33.287 L54.3514,33.287 L54.3514,15.403 L87.8874,15.403 C89.4604,15.403 90.7354,16.678 90.7354,18.251 L90.7354,33.287 Z" id="Fill-10" fill="#D20050"></path>
            <path d="M87.7612,87.0339 L73.8772,87.0339 L73.8772,71.3129 L89.9192,71.3129 L89.9192,84.8759 C89.9192,86.0659 88.9512,87.0339 87.7612,87.0339 L87.7612,87.0339 Z M18.8882,84.8759 L18.8882,18.3779 C18.8882,17.1879 19.8562,16.2199 21.0462,16.2199 L53.3262,16.2199 L53.3262,87.0339 L21.0462,87.0339 C19.8562,87.0339 18.8882,86.0659 18.8882,84.8759 L18.8882,84.8759 Z M55.3762,50.7619 L89.9192,50.7619 L89.9192,34.3119 L55.3762,34.3119 L55.3762,50.7619 Z M73.8772,69.2619 L89.9192,69.2619 L89.9192,52.8129 L73.8772,52.8129 L73.8772,69.2619 Z M55.3762,87.0339 L71.8272,87.0339 L71.8272,52.8129 L55.3762,52.8129 L55.3762,87.0339 Z M89.9192,18.3779 L89.9192,32.2609 L55.3762,32.2609 L55.3762,16.2199 L87.7612,16.2199 C88.9512,16.2199 89.9192,17.1879 89.9192,18.3779 L89.9192,18.3779 Z M87.7612,14.1699 L21.0462,14.1699 C18.7322,14.1699 16.8382,16.0629 16.8382,18.3779 L16.8382,84.8759 C16.8382,87.1909 18.7322,89.0839 21.0462,89.0839 L87.7612,89.0839 C90.0752,89.0839 91.9692,87.1909 91.9692,84.8759 L91.9692,18.3779 C91.9692,16.0629 90.0752,14.1699 87.7612,14.1699 L87.7612,14.1699 Z" id="Fill-11" fill="#343852"></path>
            <path d="M85.9378,81.5426 C85.9378,80.9766 85.4788,80.5176 84.9128,80.5176 L78.6968,80.5176 C78.1308,80.5176 77.6718,80.9766 77.6718,81.5426 C77.6718,82.1086 78.1308,82.5676 78.6968,82.5676 L84.9128,82.5676 C85.4788,82.5676 85.9378,82.1086 85.9378,81.5426 M86.1908,78.5596 L77.4188,78.5596 C76.8528,78.5596 76.3938,78.1006 76.3938,77.5336 C76.3938,76.9676 76.8528,76.5086 77.4188,76.5086 L86.1908,76.5086 C86.7568,76.5086 87.2158,76.9676 87.2158,77.5336 C87.2158,78.1006 86.7568,78.5596 86.1908,78.5596 M85.9378,63.0416 C85.9378,62.4756 85.4788,62.0166 84.9128,62.0166 L78.6968,62.0166 C78.1308,62.0166 77.6718,62.4756 77.6718,63.0416 C77.6718,63.6076 78.1308,64.0666 78.6968,64.0666 L84.9128,64.0666 C85.4788,64.0666 85.9378,63.6076 85.9378,63.0416 M86.1908,60.0596 L77.4188,60.0596 C76.8528,60.0596 76.3938,59.6006 76.3938,59.0336 C76.3938,58.4676 76.8528,58.0086 77.4188,58.0086 L86.1908,58.0086 C86.7568,58.0086 87.2158,58.4676 87.2158,59.0336 C87.2158,59.6006 86.7568,60.0596 86.1908,60.0596 M67.7018,72.2926 C67.7018,71.7266 67.2428,71.2676 66.6768,71.2676 L60.4608,71.2676 C59.8948,71.2676 59.4358,71.7266 59.4358,72.2926 C59.4358,72.8586 59.8948,73.3176 60.4608,73.3176 L66.6768,73.3176 C67.2428,73.3176 67.7018,72.8586 67.7018,72.2926 M67.9548,69.3096 L59.1838,69.3096 C58.6178,69.3096 58.1588,68.8506 58.1588,68.2836 C58.1588,67.7176 58.6178,67.2586 59.1838,67.2586 L67.9548,67.2586 C68.5208,67.2586 68.9798,67.7176 68.9798,68.2836 C68.9798,68.8506 68.5208,69.3096 67.9548,69.3096 M77.8238,44.5416 C77.8238,43.9756 77.3648,43.5166 76.7988,43.5166 L68.9048,43.5166 C68.3388,43.5166 67.8798,43.9756 67.8798,44.5416 C67.8798,45.1076 68.3388,45.5666 68.9048,45.5666 L76.7988,45.5666 C77.3648,45.5666 77.8238,45.1076 77.8238,44.5416 M78.4208,41.5586 L67.2828,41.5586 C66.7168,41.5586 66.2578,41.0996 66.2578,40.5326 C66.2578,39.9666 66.7168,39.5076 67.2828,39.5076 L78.4208,39.5076 C78.9868,39.5076 79.4458,39.9666 79.4458,40.5326 C79.4458,41.0996 78.9868,41.5586 78.4208,41.5586 M77.8238,25.5786 C77.8238,25.0126 77.3648,24.5536 76.7988,24.5536 L68.9048,24.5536 C68.3388,24.5536 67.8798,25.0126 67.8798,25.5786 C67.8798,26.1456 68.3388,26.6046 68.9048,26.6046 L76.7988,26.6046 C77.3648,26.6046 77.8238,26.1456 77.8238,25.5786 M78.4208,22.5956 L67.2828,22.5956 C66.7168,22.5956 66.2578,22.1366 66.2578,21.5696 C66.2578,21.0036 66.7168,20.5446 67.2828,20.5446 L78.4208,20.5446 C78.9868,20.5446 79.4458,21.0036 79.4458,21.5696 C79.4458,22.1366 78.9868,22.5956 78.4208,22.5956 M40.8118,53.7916 C40.8118,53.2256 40.3528,52.7666 39.7868,52.7666 L31.8928,52.7666 C31.3268,52.7666 30.8678,53.2256 30.8678,53.7916 C30.8678,54.3576 31.3268,54.8166 31.8928,54.8166 L39.7868,54.8166 C40.3528,54.8166 40.8118,54.3576 40.8118,53.7916 M41.4088,50.8086 L30.2708,50.8086 C29.7048,50.8086 29.2458,50.3496 29.2458,49.7826 C29.2458,49.2166 29.7048,48.7576 30.2708,48.7576 L41.4088,48.7576 C41.9748,48.7576 42.4338,49.2166 42.4338,49.7826 C42.4338,50.3496 41.9748,50.8086 41.4088,50.8086" id="Fill-12" fill="#343852"></path>
        </g>
    </g>
</svg>