<svg xmlns="http://www.w3.org/2000/svg" width="166" height="50" viewBox="0 0 166 50">
  <g fill="none" fill-rule="evenodd">
    <path fill="#6F6F6E" d="M17.729 6.193C15.694 1.188 10.149-1.285 5.343.669l10.573 26.004c2.035 5.005 7.581 7.478 12.387 5.525L17.729 6.193ZM5.188 18.623A4.937 4.937 0 0 0 .25 23.561v9.308h.603a9.273 9.273 0 0 0 9.272-9.273v-.035a4.937 4.937 0 0 0-4.937-4.938"/>
    <path fill="#D60B51" d="M30.404 11.424V27.93a4.937 4.937 0 1 0 9.875 0V23.69c0-.647-.236-1.273-.663-1.76l-9.212-10.505Z"/>
    <path fill="#1D70B7" d="M61.728 32.869c-4.427 0-8.014-3.34-8.014-7.458V14.486c2.044 2.078 4.887 3.323 7.91 3.463h.104c4.426 0 8.014 3.342 8.014 7.462 0 4.118-3.588 7.458-8.014 7.458"/>
    <path fill="#D60B51" d="M49.59 22.035V4.938a4.937 4.937 0 1 0-9.875 0v4.746c0 .68.247 1.336.695 1.848l9.18 10.503Z"/>
    <path fill="#1D70B7" d="M69.195 12.931c-1.214-1.244-3.286-2.03-5.2-2.061l-.602-.01c-3.204 0-5.802-2.432-5.802-5.43 0-2.998 2.598-5.429 5.802-5.429 3.204 0 5.802 2.43 5.802 5.43v7.5Z"/>
    <path fill="#6F6F6E" d="m81.151 7.255-.998-2.201h-.03l-1.013 2.2h2.041ZM79.964.695h.377l4.256 8.978H82.31l-.434-.898h-3.432l-.42.898h-2.287L79.964.696ZM88.883.696c1.608 0 2.722.594 3.634 1.52L91.04 3.577c-.593-.535-1.332-.868-2.157-.868-1.55 0-2.548 1.157-2.548 2.62 0 1.607 1.144 2.62 2.591 2.62 1.52 0 2.259-.84 2.317-1.679h-2.476V4.432h4.778v.824c0 2.563-1.505 4.706-4.662 4.706-2.751 0-4.705-2.041-4.705-4.633S86.132.696 88.883.696M94.138.985h5.748v1.883h-3.62V4.43h3.345v1.854h-3.344v1.564h3.779v1.824h-5.908zM101.073.985h2.244l3.374 5.155V.985h2.114v8.688h-2.215l-3.388-5.17v5.17h-2.13zM114.176.696c1.651 0 2.794.623 3.722 1.592l-1.463 1.39c-.608-.593-1.39-.97-2.259-.97-1.55 0-2.548 1.158-2.548 2.621 0 1.462.999 2.62 2.548 2.62.869 0 1.651-.376 2.259-.97l1.42 1.39c-.87.913-2.071 1.593-3.679 1.593-2.75 0-4.705-2.041-4.705-4.633s1.954-4.633 4.705-4.633M118.303.985h5.748v1.883h-3.62V4.43h3.345v1.854h-3.345v1.564h3.779v1.824h-5.907z"/>
    <path fill="#D60B51" d="M79.182 19.186c1.361 0 2.404-.956 2.404-2.418 0-1.347-.912-2.404-2.404-2.404h-.854v4.822h.854ZM76.2 12.439h3.026c2.562 0 4.546 1.882 4.546 4.329 0 2.316-1.766 4.358-4.546 4.358H76.2v-8.687ZM84.496 12.439h2.114v5.444c0 1.158.55 1.564 1.288 1.564.811 0 1.318-.406 1.318-1.564v-5.444h2.128V18.2c0 2.056-1.535 3.215-3.446 3.215-1.983 0-3.402-1.217-3.402-3.215V12.44ZM96.194 12.439h2.244l3.374 5.154v-5.154h2.113v8.687h-2.214l-3.39-5.17v5.17h-2.127zM104.953 12.439h2.115v5.444c0 1.158.55 1.564 1.288 1.564.81 0 1.318-.406 1.318-1.564v-5.444h2.128V18.2c0 2.056-1.535 3.215-3.446 3.215-1.984 0-3.403-1.217-3.403-3.215V12.44ZM113.192 12.439h1.983l2.215 4.69 2.23-4.69h1.954v8.687h-2.113V17.26l-1.897 4.156h-.348l-1.896-4.185v3.895h-2.128zM125.469 11.121h1.795l-.81 1.144h-1.449l.464-1.144Zm-2.505 1.318h5.748v1.882h-3.62v1.563h3.345v1.854h-3.345v1.564h3.78v1.824h-5.908V12.44ZM133.736 16.203c.478 0 .797-.492.797-.999s-.377-.955-.855-.955h-1.65v1.954h1.708ZM129.9 12.44h3.634c1.868 0 3.083 1.13 3.083 2.765 0 1.52-.767 2.375-2.056 2.693l2.346 3.229h-2.664l-2.215-3.243v3.243H129.9v-8.687ZM137.66 21.126h2.128v-8.687h-2.128zM145.217 19.418c.101 0 .203 0 .305-.015l-1.825-1.752h2.592l.912.855a2.754 2.754 0 0 0 .564-1.71c0-1.462-1.013-2.65-2.548-2.65-1.534 0-2.548 1.188-2.548 2.65 0 1.449 1.014 2.622 2.548 2.622m0-7.269c2.737 0 4.677 2.085 4.677 4.648a4.642 4.642 0 0 1-1.173 3.127l1.462 1.347h-2.707l-.275-.261c-.594.261-1.26.406-1.984.406-2.736 0-4.676-2.056-4.676-4.62 0-2.562 1.94-4.647 4.676-4.647M151.37 12.439h2.115v5.444c0 1.158.55 1.564 1.288 1.564.811 0 1.318-.406 1.318-1.564v-5.444h2.128V18.2c0 2.056-1.535 3.215-3.446 3.215-1.984 0-3.402-1.217-3.402-3.215V12.44ZM159.609 12.439h5.748v1.882h-3.62v1.564h3.344v1.853h-3.344v1.564h3.779v1.824h-5.907z"/>
    <path fill="#1D70B7" d="M76.2 23.892h5.748v1.882h-3.62v1.564h3.345v1.853h-3.345v1.564h3.779v1.824H76.2zM83.135 23.892h2.244l3.374 5.155v-5.155h2.113v8.687H88.65l-3.388-5.168v5.168h-2.128zM97.975 30.031c0 .507.406.912.898.912.535 0 .868-.304.868-.753 0-.651-.854-.84-1.564-1.085-1.462-.522-2.273-1.202-2.273-2.694 0-1.535 1.318-2.808 2.955-2.808 1.924 0 2.837 1.23 2.953 2.837h-1.998c0-.492-.304-.897-.898-.897-.463 0-.912.275-.912.84 0 .651.796.767 1.534.984 1.55.463 2.274 1.332 2.274 2.693 0 1.535-1.303 2.809-2.94 2.809-1.896 0-2.968-1.274-2.968-2.838h2.07ZM107.183 30.161l-.998-2.2h-.03l-1.013 2.2h2.041Zm-1.187-6.559h.377l4.256 8.977h-2.287l-.434-.897h-3.432l-.42.897h-2.287l4.227-8.977ZM111.194 23.892h2.244l3.374 5.155v-5.155h2.114v8.687h-2.216l-3.387-5.168v5.168h-2.13zM121.85 25.774h-1.94v-1.882h6.052v1.882h-1.97v6.805h-2.142zM129.45 22.575h1.797l-.811 1.144h-1.449l.464-1.144Zm-2.504 1.317h5.748v1.882h-3.62v1.564h3.345v1.853h-3.344v1.564h3.779v1.824h-5.908v-8.687Z"/>
    <path fill="#D60B51" d="M161.974 37.881a4.026 4.026 0 0 0-4.026 4.026v7.59h.49a7.56 7.56 0 0 0 7.562-7.56v-.03a4.026 4.026 0 0 0-4.026-4.026"/>
    <path fill="#FFF" d="M164.523 41.866a2.549 2.549 0 1 0-5.098 0 2.549 2.549 0 0 0 5.098 0"/>
    <path fill="#6F6F6E" d="M1.054 40.095V48.6h2.62v.997H0v-9.502zM4.957 46.634c0 1.267.713 2.222 1.938 2.222 1.254 0 1.966-1.04 1.966-2.208 0-1.525-1.055-2.194-1.966-2.194-1.012 0-1.938.74-1.938 2.18Zm3.847-2.95h1.025v5.913H8.804v-.826c-.342.442-.983.997-2.023.997-1.496 0-2.878-1.054-2.878-3.134 0-2.037 1.368-3.092 2.878-3.092 1.14 0 1.752.627 2.023.983v-.84ZM15 44.625v4.972h-1.026v-4.972h-.627v-.94h.627v-2.137H15v2.137h1.025v.94zM16.423 43.685h1.026v.64c.1-.156.541-.783 1.34-.783.313 0 .654.114.91.243l-.483.926a1.055 1.055 0 0 0-.599-.2c-.413 0-.67.171-.826.37-.171.229-.342.627-.342 1.596v3.12h-1.026v-5.912ZM20.455 46.634c0 1.267.712 2.222 1.938 2.222 1.253 0 1.965-1.04 1.965-2.208 0-1.525-1.054-2.194-1.965-2.194-1.012 0-1.938.74-1.938 2.18Zm3.846-2.95h1.026v5.913H24.3v-.826c-.342.442-.983.997-2.023.997-1.495 0-2.878-1.054-2.878-3.134 0-2.037 1.368-3.092 2.878-3.092 1.14 0 1.752.627 2.023.983v-.84ZM26.693 43.685h1.026v.683a2.087 2.087 0 0 1 1.695-.826c.698 0 1.34.285 1.696.813.3.44.342.925.342 1.58v3.662h-1.026v-3.632c0-.357-.029-.77-.27-1.084-.2-.256-.514-.427-.97-.427-.355 0-.74.1-1.04.456-.398.47-.427 1.168-.427 1.596v3.09h-1.026v-5.911ZM35.254 45.053c-.142-.343-.44-.6-.826-.6-.37 0-.712.215-.712.67 0 .428.285.556.955.842.854.355 1.253.626 1.48.91.258.314.315.628.315.956 0 1.239-.898 1.937-2.038 1.937-.241 0-1.566-.029-2.065-1.51l.883-.37c.114.313.456.968 1.196.968.67 0 .97-.498.97-.94 0-.556-.4-.74-.955-.983-.713-.314-1.169-.542-1.439-.87-.228-.284-.27-.57-.27-.868 0-1.04.726-1.653 1.723-1.653.314 0 1.154.057 1.624 1.069l-.84.442ZM38.317 44.625v4.972H37.29v-4.972h-.57v-.94h.57v-2.58c0-.54.042-1.224.57-1.666.285-.242.712-.384 1.182-.384.37 0 .613.085.727.128v.997a1.863 1.863 0 0 0-.67-.128c-.228 0-.498.057-.655.314-.128.213-.128.54-.128.854v2.465h1.453v.94h-1.453ZM40.795 46.662c0 1.453 1.026 2.194 2.08 2.194 1.069 0 2.08-.755 2.08-2.194 0-1.453-.997-2.208-2.08-2.208-1.083 0-2.08.77-2.08 2.208m-1.054 0c0-1.795 1.325-3.12 3.134-3.12 1.81 0 3.134 1.325 3.134 3.12 0 1.795-1.339 3.106-3.134 3.106s-3.134-1.311-3.134-3.106M47.005 43.685h1.026v.64c.1-.156.54-.783 1.34-.783.312 0 .654.114.91.243l-.483.926a1.055 1.055 0 0 0-.6-.2c-.412 0-.669.171-.825.37-.172.229-.342.627-.342 1.596v3.12h-1.026v-5.912ZM50.651 43.685h1.026v.626c.328-.484.84-.769 1.468-.769 1.068 0 1.495.755 1.61.955.569-.898 1.381-.955 1.78-.955 1.752 0 1.923 1.468 1.923 2.308v3.747h-1.026v-3.59c0-.67-.085-1.553-1.054-1.553-1.182 0-1.31 1.14-1.31 1.852v3.29h-1.026v-3.504c0-.413.015-1.638-1.069-1.638-1.167 0-1.296 1.21-1.296 1.924v3.219h-1.026v-5.912ZM60.523 46.634c0 1.267.712 2.222 1.938 2.222 1.253 0 1.965-1.04 1.965-2.208 0-1.525-1.054-2.194-1.965-2.194-1.012 0-1.938.74-1.938 2.18Zm3.846-2.95h1.026v5.913h-1.026v-.826c-.342.442-.983.997-2.023.997-1.495 0-2.878-1.054-2.878-3.134 0-2.037 1.368-3.092 2.878-3.092 1.14 0 1.752.627 2.023.983v-.84ZM67.816 44.625v4.972H66.79v-4.972h-.627v-.94h.627v-2.137h1.025v2.137h1.026v.94zM69.24 49.597h1.026v-5.912H69.24v5.912Zm.513-8.875a.73.73 0 0 1 .726.726.73.73 0 0 1-.726.727.73.73 0 0 1-.727-.727.73.73 0 0 1 .727-.726ZM72.317 46.662c0 1.453 1.026 2.194 2.08 2.194 1.068 0 2.08-.755 2.08-2.194 0-1.453-.997-2.208-2.08-2.208-1.083 0-2.08.77-2.08 2.208m-1.055 0c0-1.795 1.326-3.12 3.135-3.12 1.809 0 3.134 1.325 3.134 3.12 0 1.795-1.34 3.106-3.134 3.106-1.795 0-3.135-1.311-3.135-3.106M78.527 43.685h1.025v.683a2.087 2.087 0 0 1 1.696-.826c.698 0 1.339.285 1.695.813.3.44.342.925.342 1.58v3.662h-1.026v-3.632c0-.357-.028-.77-.27-1.084-.2-.256-.514-.427-.97-.427-.355 0-.74.1-1.04.456-.398.47-.427 1.168-.427 1.596v3.09h-1.025v-5.911ZM92.03 45.337c-.54-.683-1.324-.883-1.851-.883-1.097 0-2.094.77-2.094 2.208 0 1.439 1.025 2.194 2.08 2.194a2.52 2.52 0 0 0 1.908-.926v1.225c-.64.47-1.325.613-1.88.613-1.838 0-3.163-1.311-3.163-3.091 0-1.81 1.34-3.135 3.163-3.135.94 0 1.552.37 1.837.57v1.225ZM93.754 46.662c0 1.453 1.026 2.194 2.08 2.194 1.068 0 2.08-.755 2.08-2.194 0-1.453-.997-2.208-2.08-2.208-1.083 0-2.08.77-2.08 2.208m-1.054 0c0-1.795 1.325-3.12 3.134-3.12 1.81 0 3.134 1.325 3.134 3.12 0 1.795-1.34 3.106-3.134 3.106-1.795 0-3.134-1.311-3.134-3.106M99.964 43.685h1.025v.626c.328-.484.84-.769 1.468-.769 1.068 0 1.496.755 1.61.955.57-.898 1.381-.955 1.78-.955 1.752 0 1.924 1.468 1.924 2.308v3.747h-1.026v-3.59c0-.67-.085-1.553-1.054-1.553-1.182 0-1.31 1.14-1.31 1.852v3.29h-1.027v-3.504c0-.413.015-1.638-1.068-1.638-1.168 0-1.297 1.21-1.297 1.924v3.219h-1.025v-5.912ZM109.152 43.685h1.025v.626c.328-.484.84-.769 1.468-.769 1.068 0 1.496.755 1.61.955.57-.898 1.381-.955 1.78-.955 1.752 0 1.924 1.468 1.924 2.308v3.747h-1.026v-3.59c0-.67-.085-1.553-1.054-1.553-1.182 0-1.31 1.14-1.31 1.852v3.29h-1.027v-3.504c0-.413.015-1.638-1.068-1.638-1.168 0-1.297 1.21-1.297 1.924v3.219h-1.025v-5.912ZM122.57 45.993c-.17-.927-.868-1.54-1.738-1.54-.869 0-1.58.657-1.738 1.54h3.476Zm1.012 2.094a3.54 3.54 0 0 1-.727.954c-.541.484-1.21.727-1.966.727-1.424 0-2.92-.897-2.92-3.092 0-1.766 1.082-3.134 2.863-3.134 1.154 0 1.88.57 2.237 1.083.37.527.584 1.439.556 2.222h-4.602c.014 1.225.855 2.01 1.88 2.01.485 0 .87-.143 1.211-.428.27-.228.485-.527.613-.812l.855.47ZM124.621 43.685h1.026v.683a2.087 2.087 0 0 1 1.695-.826c.698 0 1.34.285 1.695.813.3.44.343.925.343 1.58v3.662h-1.026v-3.632c0-.357-.029-.77-.27-1.084-.2-.256-.514-.427-.97-.427-.356 0-.74.1-1.04.456-.398.47-.427 1.168-.427 1.596v3.09h-1.026v-5.911ZM135.375 45.337c-.54-.683-1.324-.883-1.851-.883-1.097 0-2.094.77-2.094 2.208 0 1.439 1.026 2.194 2.08 2.194a2.52 2.52 0 0 0 1.908-.926v1.225c-.64.47-1.325.613-1.88.613-1.838 0-3.163-1.311-3.163-3.091 0-1.81 1.34-3.135 3.163-3.135.94 0 1.553.37 1.837.57v1.225ZM140.646 45.993c-.17-.927-.868-1.54-1.738-1.54-.869 0-1.58.657-1.738 1.54h3.476Zm1.012 2.094a3.54 3.54 0 0 1-.727.954c-.541.484-1.21.727-1.966.727-1.424 0-2.92-.897-2.92-3.092 0-1.766 1.082-3.134 2.863-3.134 1.154 0 1.88.57 2.237 1.083.37.527.584 1.439.556 2.222h-4.602c.014 1.225.855 2.01 1.88 2.01.485 0 .87-.143 1.211-.428.271-.228.485-.527.613-.812l.855.47ZM145.446 49.597h1.026v-5.912h-1.026v5.912Zm.513-8.875a.73.73 0 0 1 .726.726.73.73 0 0 1-.726.727.73.73 0 0 1-.727-.727.73.73 0 0 1 .727-.726ZM152.468 45.337c-.54-.683-1.324-.883-1.852-.883-1.097 0-2.093.77-2.093 2.208 0 1.439 1.025 2.194 2.08 2.194a2.52 2.52 0 0 0 1.908-.926v1.225c-.641.47-1.325.613-1.88.613-1.838 0-3.163-1.311-3.163-3.091 0-1.81 1.339-3.135 3.162-3.135.941 0 1.553.37 1.838.57v1.225ZM153.508 49.597h1.026v-5.912h-1.026v5.912Zm.513-8.875a.73.73 0 0 1 .726.726.73.73 0 0 1-.726.727.73.73 0 0 1-.727-.727.73.73 0 0 1 .727-.726Z"/>
  </g>
</svg>
