<?xml version="1.0" encoding="UTF-8"?>
<svg id="CREA" xmlns="http://www.w3.org/2000/svg" viewBox="0 0 995.79 661.85">
  <defs>
    <style>
      .cls-1 {
        fill: #000091;
      }

      .cls-2 {
        font-family: Marianne-Bold, Marianne;
        font-size: 90px;
        font-weight: 700;
      }

      .cls-3 {
        fill: #e1000f;
      }

      .cls-4 {
        letter-spacing: -.09em;
      }

      .cls-5 {
        letter-spacing: -.08em;
      }

      .cls-6 {
        fill: #9d9d9c;
      }

      .cls-7 {
        letter-spacing: -.02em;
      }

      .cls-8 {
        letter-spacing: -.02em;
      }

      .cls-9 {
        letter-spacing: -.02em;
      }

      .cls-10 {
        letter-spacing: -.01em;
      }

      .cls-11 {
        letter-spacing: -.01em;
      }

      .cls-12 {
        letter-spacing: -.01em;
      }

      .cls-13 {
        letter-spacing: -.03em;
      }

      .cls-14 {
        letter-spacing: 0em;
      }

      .cls-15 {
        letter-spacing: 0em;
      }

      .cls-16 {
        letter-spacing: .02em;
      }

      .cls-17 {
        letter-spacing: 0em;
      }
    </style>
  </defs>
  <g>
    <path d="M214.25,640.08c1.71,0,3.2,1.3,2.41,4.58l-7.96,1.85c1.39-3.7,3.7-6.44,5.56-6.44M218.65,652.91h-1.57c-1.99,2.36-4.12,4.21-6.25,4.21s-3.29-1.3-3.29-4.21c0-1.2.14-2.41.37-3.52l12.83-4.21c2.5-5.93-.51-8.52-4.03-8.52-6.07,0-12.97,10.14-12.97,19.03,0,3.98,1.9,6.16,4.86,6.16,3.47,0,7.08-3.38,10.05-8.94M216.1,634.29l9.03-8.43v-.97h-4.86l-5.56,9.4h1.39ZM188.41,640.22h4.26l-6.76,18.48c-.6,1.57.23,3.15,1.85,3.15,3.84,0,10.05-3.8,12.23-8.98h-1.2c-1.71,1.81-5,4.21-7.83,4.72l6.21-17.37h6.34l.79-2.64h-6.16l2.36-6.67h-2.45l-4.4,6.67-5.23.74v1.9ZM182.67,639.34c.51-1.71-.65-2.69-1.53-2.69-3.7,0-8.1,3.33-9.86,8.01h1.2c1.2-1.71,3.24-3.61,5.14-3.94l-7.08,18.43c-.65,1.71.65,2.69,1.53,2.69,3.52,0,7.64-3.38,9.4-8.01h-1.2c-1.2,1.71-3.24,3.61-5.14,3.94l7.55-18.43ZM183.97,630.08c1.67,0,3.06-1.34,3.06-3.06s-1.39-3.06-3.06-3.06-3.06,1.39-3.06,3.06,1.34,3.06,3.06,3.06M143.17,658.42c-.93,2.08.05,3.43,2.08,3.43,1.25,0,1.81-.32,2.32-1.67l4.91-13.01c2.27-2.78,6.95-5.74,8.8-5.74,1.34,0,1.16,1.11.28,2.78l-7.55,14.49c-.74,1.44.23,3.15,1.85,3.15,3.7,0,8.1-3.33,9.86-8.01h-1.2c-1.2,1.71-3.24,3.61-5.14,3.94l6.48-13.1c.83-1.67,1.25-3.24,1.25-4.49,0-2.13-1.2-3.52-3.43-3.52-3.2,0-6.44,3.61-10.28,8.06v-3.43c0-2.45-.79-4.63-3.01-4.63-1.39,0-2.73,1.2-3.98,2.92v.46c2.41-.14,3.47,3.47,1.76,7.27l-5,11.11ZM143.08,642.3c.88-3.01.42-5.65-1.9-5.65-2.73,0-3.43,2.08-6.21,8.06v-3.43c0-2.45-.79-4.63-3.01-4.63-2.59,0-4.95,4.03-6.76,8.01h1.2c1.25-1.81,2.41-2.87,3.33-2.87,1.11,0,1.71,1.71,0,5.51l-5,11.11c-.93,2.08.05,3.43,2.08,3.43,1.25,0,1.81-.32,2.32-1.67l4.91-13.01c1.39-1.71,2.64-3.2,4.21-4.86h4.82ZM114.64,640.08c1.71,0,3.2,1.3,2.41,4.58l-7.96,1.85c1.39-3.7,3.7-6.44,5.56-6.44M119.04,652.91h-1.57c-1.99,2.36-4.12,4.21-6.25,4.21s-3.29-1.3-3.29-4.21c0-1.2.14-2.41.37-3.52l12.83-4.21c2.5-5.93-.51-8.52-4.03-8.52-6.07,0-12.97,10.14-12.97,19.03,0,3.98,1.9,6.16,4.86,6.16,3.47,0,7.08-3.38,10.05-8.94M88.81,640.22h4.26l-6.76,18.48c-.6,1.57.23,3.15,1.85,3.15,3.84,0,10.05-3.8,12.23-8.98h-1.2c-1.71,1.81-5,4.21-7.83,4.72l6.21-17.37h6.34l.79-2.64h-6.16l2.36-6.67h-2.45l-4.4,6.67-5.23.74v1.9ZM65.42,654.62c0-5.7,6.34-13.43,9.91-13.43.79,0,1.53.09,2.18.28l-3.7,9.86c-2.13,2.59-5.42,5.74-6.95,5.74-.88,0-1.44-.74-1.44-2.45M84.92,635.59l-1.94-.14-2.18,2.13h-.46c-10.56,0-19.68,11.85-19.68,20.47,0,2.41,1.48,3.8,3.8,3.8,2.73,0,5.42-3.89,8.43-8.06l-.14,1.48c-.37,4.26.93,6.58,3.15,6.58,2.59,0,4.95-4.03,6.76-8.01h-1.2c-1.25,1.81-2.41,2.87-3.33,2.87-.97,0-1.67-1.76,0-5.51l6.81-15.61ZM62.41,642.3c.88-3.01.42-5.65-1.9-5.65-2.73,0-3.43,2.08-6.21,8.06v-3.43c0-2.45-.79-4.63-3.01-4.63-2.59,0-4.95,4.03-6.76,8.01h1.2c1.25-1.81,2.41-2.87,3.33-2.87,1.11,0,1.71,1.71,0,5.51l-5,11.11c-.93,2.08.05,3.43,2.08,3.43,1.25,0,1.81-.32,2.32-1.67l4.91-13.01c1.39-1.71,2.64-3.2,4.21-4.86h4.82ZM26.94,660.92l.46-1.44c-6.16-1.16-6.95-1.16-4.49-7.87l2.5-6.9h6.81c3.06,0,3.1,1.25,2.64,4.58h1.76l4.08-11.16h-1.76c-1.53,2.64-2.73,4.58-6.07,4.58h-6.71l3.57-9.77c1.11-3.1,1.76-3.75,5.93-3.75h2.96c4.31,0,4.82,1.16,4.82,5.51h1.71l1.44-7.59h-25.56l-.46,1.44c4.95,1.02,5.42,1.48,3.1,7.87l-5.56,15.19c-2.32,6.34-3.29,6.85-8.98,7.87l-.42,1.44h18.24Z"/>
    <path d="M152.25,582.2c1.71,0,3.2,1.3,2.41,4.58l-7.96,1.85c1.39-3.7,3.7-6.44,5.56-6.44M156.64,595.02h-1.57c-1.99,2.36-4.12,4.21-6.25,4.21s-3.29-1.3-3.29-4.21c0-1.2.14-2.41.37-3.52l12.83-4.21c2.5-5.93-.51-8.52-4.03-8.52-6.07,0-12.97,10.14-12.97,19.03,0,3.98,1.9,6.16,4.86,6.16,3.47,0,7.08-3.38,10.05-8.94M154.1,576.41l9.03-8.43v-.97h-4.86l-5.56,9.4h1.39ZM126.41,582.34h4.26l-6.76,18.48c-.6,1.57.23,3.15,1.85,3.15,3.84,0,10.05-3.8,12.23-8.98h-1.2c-1.71,1.81-5,4.21-7.83,4.72l6.21-17.37h6.34l.79-2.64h-6.16l2.36-6.67h-2.45l-4.4,6.67-5.23.74v1.9ZM120.67,581.46c.51-1.71-.65-2.69-1.53-2.69-3.7,0-8.1,3.33-9.86,8.01h1.2c1.2-1.71,3.24-3.61,5.14-3.94l-7.08,18.43c-.65,1.71.65,2.69,1.53,2.69,3.52,0,7.64-3.38,9.4-8.01h-1.2c-1.2,1.71-3.24,3.61-5.14,3.94l7.55-18.43ZM121.96,572.2c1.67,0,3.06-1.34,3.06-3.06s-1.39-3.06-3.06-3.06-3.06,1.39-3.06,3.06,1.34,3.06,3.06,3.06M97.33,599.89l12.92-33.85-.42-.51-8.1.93v.97l1.57,1.2c1.44,1.11.97,2.18-.32,5.6l-10.09,26.58c-.74,1.44.23,3.15,1.85,3.15,3.7,0,7.64-3.33,9.4-8.01h-1.2c-1.2,1.71-3.7,3.61-5.6,3.94M72.78,596.74c0-5.7,6.34-13.43,9.91-13.43.79,0,1.53.09,2.18.28l-3.7,9.86c-2.13,2.59-5.42,5.74-6.95,5.74-.88,0-1.44-.74-1.44-2.45M92.28,577.71l-1.94-.14-2.18,2.13h-.46c-10.56,0-19.68,11.85-19.68,20.47,0,2.41,1.48,3.8,3.8,3.8,2.73,0,5.42-3.89,8.43-8.06l-.14,1.48c-.37,4.26.93,6.58,3.15,6.58,2.59,0,4.95-4.03,6.76-8.01h-1.2c-1.25,1.81-2.41,2.87-3.33,2.87-.97,0-1.67-1.76,0-5.51l6.81-15.61ZM45.14,608.45c0-2.45,2.36-3.98,5.74-5.33,1.11.56,2.78,1.16,5,1.9,3.52,1.16,4.86,1.62,4.86,2.69,0,2.27-3.84,3.98-9.08,3.98-4.4,0-6.53-.93-6.53-3.24M54.73,593.5c-1.53,0-2.13-1.3-2.13-2.78,0-4.12,2.22-10.19,5.7-10.19,1.53,0,2.13,1.3,2.13,2.78,0,4.12-2.22,10.19-5.7,10.19M64.77,606.18c0-2.96-2.64-4.03-6.95-5.33-3.7-1.11-5.37-1.44-5.37-2.64,0-.97.79-2.13,2.36-2.96,6.07-.32,10-5.79,10-10.37,0-.97-.19-1.81-.51-2.55h5.14l.79-2.64h-8.15c-.97-.6-2.13-.93-3.29-.93-6.44,0-10.6,5.65-10.6,10.23,0,3.47,2.22,5.65,4.91,6.16-3.01,1.34-4.68,2.92-4.68,4.77,0,1.07.37,1.81,1.25,2.5-6.95,2.04-9.68,4.35-9.68,7.64s4.21,4.54,9.22,4.54c8.47,0,15.56-4.58,15.56-8.43M32.41,586.37c3.06,0,3.1,1.25,2.64,4.58h1.76l4.08-11.16h-1.76c-1.53,2.64-2.73,4.58-6.07,4.58h-6.71l3.38-9.31c1.11-3.1,1.76-3.7,5.93-3.7h2.96c4.31,0,4.82,1.16,4.82,5.46h1.71l1.44-7.59h-25.56l-.46,1.44c4.95,1.02,5.42,1.48,3.1,7.87l-5.56,15.19c-2.32,6.34-3.29,6.85-8.98,7.87l-.42,1.44h28.43l5.09-8.06h-1.94c-3.24,3.06-7.32,5.97-13.01,5.97-7.55,0-6.85-.32-4.35-7.22l2.69-7.36h6.81ZM36.11,566.96l9.03-6.21v-.97h-5.46l-5,7.18h1.44Z"/>
    <path d="M149.23,524.31c1.71,0,3.2,1.3,2.41,4.58l-7.96,1.85c1.39-3.7,3.7-6.44,5.56-6.44M153.63,537.14h-1.57c-1.99,2.36-4.12,4.21-6.25,4.21s-3.29-1.3-3.29-4.21c0-1.2.14-2.41.37-3.52l12.83-4.21c2.5-5.93-.51-8.52-4.03-8.52-6.07,0-12.97,10.14-12.97,19.03,0,3.98,1.9,6.16,4.86,6.16,3.47,0,7.08-3.38,10.05-8.94M151.09,518.53l9.03-8.43v-.97h-4.86l-5.56,9.4h1.39ZM124.55,524.45h3.38l-6.76,18.48c-.6,1.57.23,3.15,1.85,3.15,3.84,0,10.05-3.8,12.23-8.98h-1.2c-1.71,1.81-5,4.21-7.83,4.72l6.21-17.37h6.34l.79-2.64h-6.16l2.36-6.67h-2.45l-4.4,6.67-4.35.74v1.9ZM121.22,526.54c.88-3.01.42-5.65-1.9-5.65-2.73,0-3.43,2.08-6.21,8.06v-3.43c0-2.45-.79-4.63-3.01-4.63-2.59,0-4.95,4.03-6.76,8.01h1.2c1.25-1.81,2.41-2.87,3.33-2.87,1.11,0,1.71,1.71,0,5.51l-5,11.11c-.93,2.08.05,3.43,2.08,3.43,1.25,0,1.81-.32,2.32-1.67l4.91-13.01c1.39-1.71,2.64-3.2,4.21-4.86h4.82ZM92.79,524.31c1.71,0,3.2,1.3,2.41,4.58l-7.96,1.85c1.39-3.7,3.7-6.44,5.56-6.44M97.19,537.14h-1.57c-1.99,2.36-4.12,4.21-6.25,4.21s-3.29-1.3-3.29-4.21c0-1.2.14-2.41.37-3.52l12.83-4.21c2.5-5.93-.51-8.52-4.03-8.52-6.07,0-12.97,10.14-12.97,19.03,0,3.98,1.9,6.16,4.86,6.16,3.47,0,7.08-3.38,10.05-8.94M65.75,542.33c-1.25,0-3.06-1.16-3.06-2.18,0-.32.56-1.76,1.25-3.57l2.08-5.51c2.22-2.64,5.6-5.46,7.5-5.46,1.16,0,2.04.74,2.04,2.45,0,5.05-4.72,14.26-9.82,14.26M80.33,526.03c0-3.75-1.39-5.14-3.98-5.14-3.24,0-6.3,3.43-9.35,7.59l7.73-20.33-.42-.51-8.1.93v.97l1.57,1.2c1.44,1.11.97,2.27-.32,5.6l-8.34,21.49c-.6,1.57-1.34,3.43-1.34,3.94,0,2.22,3.01,4.31,5.74,4.31,6.3,0,16.81-11.35,16.81-20.05M55.14,523.57c.51-1.71-.65-2.69-1.53-2.69-3.7,0-8.1,3.33-9.86,8.01h1.2c1.2-1.71,3.24-3.61,5.14-3.94l-7.08,18.43c-.65,1.71.65,2.69,1.53,2.69,3.52,0,7.64-3.38,9.4-8.01h-1.2c-1.2,1.71-3.24,3.61-5.14,3.94l7.55-18.43ZM56.44,514.31c1.67,0,3.06-1.34,3.06-3.06s-1.39-3.06-3.06-3.06-3.06,1.39-3.06,3.06,1.34,3.06,3.06,3.06M37.78,511.35h-16.86l-.46,1.44c4.95,1.02,5.42,1.48,3.1,7.87l-5.46,15.19c-2.32,6.34-3.29,6.85-8.98,7.87l-.42,1.44h25.65l5.56-9.91h-1.94c-3.15,3.47-6.85,7.83-12.55,7.83-4.31,0-4.82-.74-2.5-7.22l5.46-15.19c2.27-6.34,3.29-6.85,8.98-7.87l.42-1.44Z"/>
  </g>
  <g>
    <path class="cls-1" d="M102.86,73.97c.9-.9,1.81-1.87,2.71-2.84h-.02c1.68-1.91,3.33-3.72,5.29-5.39.59-.53,1.17-1,1.72-1.38.16-.16.16-.48.32-.63-.79.32-1.27.95-2.06,1.27-.16,0-.32-.16-.16-.32.56-.42,1.13-.85,1.69-1.27-.03,0-.07,0-.11,0-.16,0-.16-.16-.16-.32-2.06-.32-3.65,1.11-5.07,2.38-.32.16-.63-.16-.79-.16-2.38.79-4.12,2.85-6.5,3.8v-.32c-.95.32-1.87.89-2.85,1.11-1.43.32-2.69.16-3.96.16-1.92.19-3.84.62-5.76,1.03-.06.01-.11.03-.17.04-1.03.28-2,.67-2.95,1.19-.04.02-.07.04-.11.06-.08.1-.16.19-.23.27-.34.37-.63.72-1.09.95-.97.5-1.77,1.36-2.63,2.06-.06.05-.16.07-.25.08-.85.82-1.69,1.64-2.55,2.44-.06.06-.31.09-.48.06,0,0,.01,0,.01-.01.03-.05.06-.1.09-.15.13-.22.27-.45.41-.67.15-.25.31-.49.47-.74.22-.33.44-.65.67-.96.06-.08.04-.15,0-.21-.05-.05-.13-.08-.22-.08.79-.77,1.73-1.42,2.66-1.99,0,0,0-.02,0-.03-.11.04-.26-.05-.18-.16.1-.14.18-.29.27-.43.02-.05.03-.09.05-.14-.04-.04-.08-.08-.12-.13-.26.17-.53.32-.74.52-.38.34-.68,1.04-1.25,1.03-.04,0-.15,0-.24-.03-.07-.01-.13-.03-.17-.06,0-.01.01-.02.02-.04,0-.01.02-.03.02-.04,0-.01.02-.03.02-.04.02-.05.05-.09.08-.14.03-.05.05-.09.08-.14.02-.04.04-.07.06-.11.04-.07.07-.13.11-.2.03-.05.06-.1.08-.14.07-.12.14-.23.2-.35.03-.06.07-.11.1-.17.06-.1.11-.19.17-.29.08-.13,0-.24-.12-.28.29-.38.65-.7,1.09-.95h-.05c.61-.31,1.21-.68,1.82-1.02.09-.08.17-.15.26-.23-.9.3-1.72.71-2.52,1.24,0,0-.21.09-.27.14,0,0-.18.07-.4-.14-.02-.03-.04-.06-.04-.12.16-.32.63-.48.95-.79.16,0,.32,0,.32.16,5.07-3.96,12.04-3.01,17.91-5.07.48-.32.95-.63,1.43-.95.79-.32,1.43-1.11,2.38-1.58,1.27-.95,2.22-2.06,2.69-3.64,0-.16-.16-.32-.16-.32-2.06,2.22-4.44,3.96-6.97,5.23-3.33,1.74-6.97,1.43-10.46,1.9.16-.32.48-.32.79-.32,0-.48.32-.63.63-.95h.48c.16,0,.16-.32.32-.32.32,0,.79-.16.63-.16-.48-.63-1.43.48-2.22,0,.32-.32.16-.79.48-.95h.63c0-.32.32-.63.32-.63,2.38-1.43,4.6-2.54,6.81-3.8-.48,0-.79.48-1.27.16.32,0,0-.48.32-.48,1.74-.48,3.17-1.43,4.91-2.06-.63,0-1.11.48-1.74,0,.32-.16.48-.48.95-.48v-.48c0-.16.16-.16.32-.16-.16,0-.32-.16-.32-.16.16-.32.63-.16.95-.48-.16,0-.48,0-.48-.16.48-.63,1.27-.79,2.06-.95-.16-.32-.63,0-.63-.32,0-.16.16-.16.32-.16h-.32c-.32-.16-.16-.48-.16-.63.95-1.11.95-2.54,1.43-3.8-.16,0-.32,0-.32-.16-1.58,1.74-4.12,2.38-6.5,3.01h-.79c-.79.32-1.9.32-2.69-.16-.63-.32-.95-.79-1.58-1.27-1.27-.79-2.54-1.43-3.96-1.9-3.96-1.27-8.08-1.9-12.2-1.74,1.74-.95,3.67-1.03,5.55-1.58,2.69-.79,5.23-1.74,8.08-1.58-.48-.16-1.11,0-1.58,0-2.22-.16-4.44.48-6.81.95-1.58.32-3.01.95-4.6,1.27-.95.32-1.43,1.27-2.54,1.11v-.48c1.58-1.9,3.49-3.8,6.02-3.96,2.85-.48,5.55,0,8.4.32,2.06.16,3.96.63,6.02,1.11.79,0,.95,1.27,1.59,1.43.95.32,1.9,0,2.85.63,0-.32-.16-.63,0-.95.63-.63,1.43.16,2.06-.16,1.27-.79-1.11-2.22-1.74-3.33,0-.16.16-.32.16-.32,1.27,1.11,2.22,2.38,3.8,3.17.79.32,2.69.79,2.38-.16-.79-1.74-2.38-3.17-3.64-4.75v-.63c-.32,0-.32-.16-.48-.32v-.63c-.63-.32-.48-.95-.79-1.43-.48-.79-.16-1.9-.48-2.85-.32-.95-.48-1.74-.63-2.69-.48-2.69-1.11-5.07-1.43-7.61-.32-3.01,1.74-5.39,3.17-8.08,1.11-1.9,2.38-3.8,4.44-5.07.48-1.9,1.74-3.49,3.01-5.07,1.27-1.55,3.37-2.49,4.89-3.17,2.21-.99,4.21-1.61,4.21-1.61H7.51v83.86h77.02c3.02-2.17,6.03-3.2,10.24-5.28,1.99-.98,6.54-3.07,8.08-4.61ZM78.49,62.62c-.32,0-.95.16-.79-.16.16-.79,1.27-.79,1.9-1.11.32-.16.79-.48,1.11-.32.32.48.79.32,1.11.63-.95.95-2.22.48-3.33.95ZM54.24,59.13s-.16-.16-.16-.32c2.06-2.69,3.64-5.23,5.07-8.08,2.06-1.11,3.77-2.72,5.39-4.44,2.69-2.85,5.55-5.39,8.87-6.97,1.27-.48,2.85-.32,4.12.16-.48.63-1.27.48-1.9.95-.16,0-.32,0-.48-.16.16-.16.16-.32.16-.48-1.58,1.74-3.8,2.54-5.07,4.6-.95,1.58-1.58,3.65-3.64,4.12-.63.16.16-.48-.16-.32-4.91,3.01-8.4,6.66-12.2,10.93ZM67.39,48.68c-.16.32-.33.35-.48.63-.16.32-.32.48-.63.63-.16,0-.32,0-.32-.16.16-.63.63-1.27,1.27-1.43.16,0,.16.16.16.32ZM74.75,72.42c-.07.17-.23.32-.39.46.2.04.34.13.21.25-.37.34-.72.68-1.2.84-.03.01-.13.03-.24.03-.19.19-.39.37-.59.55-.19.17-1.06.05-.79-.19.4-.36.77-.74,1.17-1.11.22-.2.46-.4.66-.63.11-.13.2-.25.34-.35.13-.09.97-.17.84.15ZM71.91,71.11s-.03.02-.04.03c-.59.42-1.18.84-1.81,1.21-.68.39-1.39.69-2.09,1.03,0-.01-.01-.03-.02-.04-.05-.07-.16-.12-.27-.06-.6.32-1.11.75-1.6,1.21-.07.07-.15.14-.22.21,0,0,0,0-.01.01,0,0,0,0-.01.01-.08.07-.15.15-.23.22,0,0-.02.02-.03.03,0,0,0,0,0,.01-.11.11-.22.23-.34.37-.08.09-.11.15-.21.22-.1.07-.37.06-.35-.12,0-.01,0-.02,0-.03-.09.05-.19.1-.28.14-.09.04-.17.09-.25.14-.03-.01-.07-.02-.11-.02-.04,0-.08.01-.11.04-.19.15-.39.31-.57.48-.33.3-.64.63-.92.98,0,0,0,0-.01.01-.01.01-.02.03-.03.04-.02.02-.03.04-.05.06-.02.02-.03.04-.05.07,0,0-.01.01-.02.02-.04.05-.07.11-.11.16,0,0,0,0,0,0-.03.03-.07.05-.13.06-.02-.03-.04-.06-.06-.09-.02-.02-.03-.05-.04-.08-.05-.08-.09-.17-.14-.25,0,0,0,0,0,0-.01-.03-.03-.05-.04-.08.17-.18.34-.38.5-.57.01-.01.02-.03.03-.04.06-.07.11-.14.16-.2.09-.11.18-.23.27-.34.03-.04.06-.08.1-.13.17-.23.34-.45.5-.67,0,0,0-.01.01-.02.02-.03.05-.07.07-.1.08-.11.15-.23.22-.34.06-.1.12-.21.17-.32,0,0,0-.02.01-.02,0-.01.01-.02.02-.03,0-.02.02-.04.03-.06.06-.12.11-.24.15-.37,0-.01,0-.03.01-.04.01-.03.02-.07.04-.1.02-.06.03-.12.05-.17h0s0-.03,0-.04c.02-.08.04-.15.06-.23,0-.04,0-.08-.02-.11.17-.3.38-.58.63-.86-.02.01-.05.03-.07.04-.23.15-.38.35-.59.51-.17.13-.49-.08-.29-.24.14-.1.24-.22.36-.33,0,0,0-.02.02-.03.26-.26.51-.59.81-.8.18-.13.34-.24.49-.37.02-.02.05-.04.07-.06.11-.15.23-.28.35-.4,0,0,.01-.01.02-.02,1.52-1.46,4.07-1.4,6.07-2.33.79-.32,1.74.16,2.54,0,.48,0,.95,0,1.43.32-1.42.78-2.74,1.65-4.04,2.47ZM75.16,60.09c-.16-.16.48,0,.63-.32h-1.27c-.16,0-.16-.16-.16-.32-.79.16-1.74.48-2.54.63-1.11.32-2.06,1.11-3.33,1.43-1.74.63-3.17,2.06-5.07,2.69-.16,0-.16-.16-.16-.32.16-.48.79-.63,1.11-1.11,0-.16,0-.32-.16-.32,1.27-1.74,3.01-2.69,4.6-4.12v-.48c.48-.63,1.27-.95,1.58-1.74.16-.48.79-1.11,1.58-1.43-.16-.16-.48-.16-.48-.48-.63,0-1.27.32-1.9-.16.3-.3.63-.46.99-.56-.14-.03-.26-.1-.36-.23-.16-.32.31-.67.79-.79.63-.16,1.43-.16,1.9-.63-1.11-.16-2.38.32-3.49-.32.79-2.06,2.06-3.8,3.96-4.75.16,0,.48,0,.48.16,0,.79-.48,1.43-1.27,1.58,1.27.32,2.54.32,3.8.95-.16.32-.48.16-.63.16.79.48,1.74.16,2.54.79-.48.48-.95,0-1.43,0,4.91,1.43,10.14,2.54,14.26,5.7-3.49,1.74-7.13,2.54-10.93,3.33-.48,0-.79,0-1.27-.16,0,.16,0,.48-.16.48-.63,0-1.11,0-1.58.32-.63.32-1.59.48-2.06,0Z"/>
    <path class="cls-3" d="M238.14,0h-90.21s.17.03.86.4c.73.39,1.68.9,2.28,1.21,1.16.61,2.29,1.37,3.02,2.54.32.48.79,1.43.48,2.06-.32.79-.48,2.06-1.27,2.38-.95.48-2.22.48-3.33.32-.63,0-1.27-.16-1.9-.32,2.38.95,4.6,2.06,6.18,4.28.16.32.79.48,1.43.48.16,0,.16.32.16.48-.32.32-.63.48-.48.95h.48c.79-.32.63-1.9,1.74-1.43.79.48,1.11,1.58.63,2.38-.63.63-1.27,1.11-1.9,1.58-.16.32-.16.79,0,1.11.48.63.63,1.27.79,1.9.48,1.11.63,2.38,1.11,3.49.63,2.38,1.27,4.75,1.11,7.13,0,1.27-.63,2.38-.16,3.64.32,1.27,1.11,2.22,1.74,3.33.63.95,1.27,1.58,1.74,2.54.95,1.58,2.69,3.17,1.9,5.07-.48,1.11-2.22.95-3.33,1.58-.95.79-.16,2.06.32,2.85.79,1.43-.95,2.38-2.06,2.85.32.48.95.32,1.11.63.16.79.95,1.27.48,2.06-.63.95-2.54,1.43-1.58,2.85.63,1.11.22,2.34-.16,3.49-.48,1.43-1.74,2.06-2.85,2.38-.95.32-2.06.32-3.01.16-.32-.16-.63-.32-.95-.32-2.69-.32-5.39-1.11-8.08-1.11-.79.16-1.58.32-2.22.63-.72.53-1.35,1.1-1.92,1.7,0,0-.01.01-.02.02-.12.13-.23.25-.35.38-.07.08-.14.16-.2.24-.05.05-.09.11-.13.16-.46.58-.88,1.19-1.25,1.83-.02.04-.05.08-.07.12-.04.07-.08.15-.12.22-.52.96-.91,1.95-1.2,2.91-1.08,3.63-.61,6.74.15,7.5.21.21,5.23,1.76,8.73,3.32,1.64.73,2.79,1.29,3.74,1.89h88.59V0Z"/>
    <path class="cls-6" d="M153.29,30.59c.63.16,1.58.16,1.58.48-.32,1.27-2.22,1.58-3.17,2.85h-.48c-.48.32-.32,1.11-.79,1.11-.48-.16-.95,0-1.43.16.63.63,1.43,1.11,2.38.95.16,0,.48.32.48.63,0,0,.16,0,.32-.16.16,0,.32,0,.32.16v.63c-.48.63-1.27.32-1.9.48,1.27.32,2.54.32,3.64,0,.95-.32,0-1.9.63-2.69-.32,0,0-.48-.32-.48.32-.32.63-.79.95-.95.32,0,.79-.16.95-.48,0-.32-.63-.47-.48-.79.95-.63,1.74-1.58,1.43-2.54-.16-.48-1.43-.48-2.22-.79-.79-.32-1.74,0-2.69.16-.79,0-1.59.48-2.38.63-1.11.32-2.06.95-3.01,1.58,1.11-.48,2.22-.63,3.49-.95.95,0,1.76-.23,2.69,0Z"/>
  </g>
  <text class="cls-2" transform="translate(0 190.39)"><tspan class="cls-14" x="0" y="0">MINI</tspan><tspan class="cls-11" x="216.36" y="0">S</tspan><tspan class="cls-14" x="268.02" y="0">TÈRE </tspan><tspan class="cls-14" x="0" y="92">DE </tspan><tspan class="cls-16" x="145.8" y="92">L</tspan><tspan class="cls-15" x="196.56" y="92">A </tspan><tspan class="cls-10" x="286.37" y="92">S</tspan><tspan class="cls-14" x="338.12" y="92">ANTÉ </tspan><tspan class="cls-17" x="0" y="184">E</tspan><tspan class="cls-14" x="53.01" y="184">T DE </tspan><tspan class="cls-5" x="278.81" y="184">L</tspan><tspan class="cls-4" x="320.58" y="184">’</tspan><tspan class="cls-7" x="336.78" y="184">A</tspan><tspan class="cls-12" x="401.67" y="184">C</tspan><tspan class="cls-14" x="467.01" y="184">CÈS </tspan><tspan class="cls-13" x="0" y="276">A</tspan><tspan class="cls-9" x="64.53" y="276">U</tspan><tspan class="cls-14" x="128.79" y="276">X </tspan><tspan class="cls-8" x="218.16" y="276">S</tspan><tspan class="cls-14" x="269.46" y="276">OINS</tspan></text>
</svg>