<?xml version="1.0" encoding="utf-8"?><svg xmlns="http://www.w3.org/2000/svg" width="32" height="32" viewBox="0 0 32 32"><path d="M7.111 3.556v24.889h3.556V3.556H7.111zM12.444 0c.982 0 1.778.796 1.778 1.778v28.444c0 .982-.796 1.778-1.778 1.778H5.333a1.778 1.778 0 01-1.778-1.778V1.778C3.555.796 4.351 0 5.333 0h7.111zm14.223 0c.982 0 1.778.796 1.778 1.778v28.444c0 .982-.796 1.778-1.778 1.778h-7.111a1.778 1.778 0 01-1.778-1.778V1.778c0-.982.796-1.778 1.778-1.778h7.111zm-1.778 3.556h-3.556v24.889h3.556V3.556z"/></svg>