<?xml version="1.0" encoding="UTF-8"?>
<svg width="120px" height="120px" viewBox="0 0 120 120" version="1.1" xmlns="http://www.w3.org/2000/svg" xmlns:xlink="http://www.w3.org/1999/xlink">
    <title>02.Icons/Illustrative/Autres Laptop</title>
    <g id="02.Icons/Illustrative/Autres-Laptop" stroke="none" stroke-width="1" fill="none" fill-rule="evenodd">
        <path d="M73.5248,88.3982 L73.5268,88.3982 C93.3248,88.3982 109.3738,72.6082 109.3738,53.1302 L109.3738,13.3282 L109.3738,12.0002 C106.5718,15.0702 100.9438,17.6842 89.5198,17.8612 L73.5248,17.8612 C53.7268,17.8612 37.6778,33.6512 37.6778,53.1302 C37.6778,72.6082 53.7268,88.3982 73.5248,88.3982" id="Fill-1" fill="#F2F3F7"></path>
        <path d="M26.3154,33.0413 L94.0554,33.0413 C96.6114,33.0413 98.6744,35.1043 98.6744,37.6603 L98.6744,77.6883 L98.6744,83.8463 L74.3804,83.8463 L71.3014,85.3863 L49.0704,85.3863 L45.9904,83.8463 L21.6964,83.8463 L21.6964,77.6883 L21.6964,37.6603 C21.6964,35.1043 23.7594,33.0413 26.3154,33.0413 M27.8554,79.2283 L92.5164,79.2283 C93.3624,79.2283 94.0554,78.5353 94.0554,77.6883 L94.0554,39.1993 C94.0554,38.3523 93.3624,37.6603 92.5164,37.6603 L27.8554,37.6603 C27.0084,37.6603 26.3154,38.3523 26.3154,39.1993 L26.3154,77.6883 C26.3154,78.5353 27.0084,79.2283 27.8554,79.2283" id="Fill-3" fill="#FFFFFF"></path>
        <path d="M94.0556,39.1995 L94.0556,77.6885 C94.0556,78.5355 93.3626,79.2275 92.5156,79.2275 L27.8546,79.2275 C27.0086,79.2275 26.3156,78.5355 26.3156,77.6885 L26.3156,39.1995 C26.3156,38.3525 27.0086,37.6595 27.8546,37.6595 L92.5156,37.6595 C93.3626,37.6595 94.0556,38.3525 94.0556,39.1995" id="Fill-5" fill="#EDEEF3"></path>
        <path d="M106.0179,84.4162 C106.3109,84.7702 106.4339,85.2322 106.3409,85.6942 L105.9099,87.8342 C105.4789,89.9892 103.5859,91.5442 101.3839,91.5442 L18.9869,91.5442 C16.7859,91.5442 14.8919,89.9892 14.4609,87.8342 L14.0299,85.6942 C13.9369,85.2322 14.0609,84.7702 14.3529,84.4162 C14.6459,84.0472 15.0769,83.8462 15.5389,83.8462 L21.6969,83.8462 L45.9909,83.8462 L49.0699,85.3862 L71.3009,85.3862 L74.3799,83.8462 L98.6739,83.8462 L104.8329,83.8462 C105.2939,83.8462 105.7249,84.0472 106.0179,84.4162" id="Fill-7" fill="#1D71B8"></path>
        <path d="M99.6747,77.6885 L99.6747,37.6605 C99.6747,34.5615 97.1537,32.0415 94.0557,32.0415 L26.3157,32.0415 C23.2167,32.0415 20.6957,34.5615 20.6957,37.6605 L20.6957,77.6885 C20.6957,78.2415 21.1437,78.6885 21.6957,78.6885 C22.2487,78.6885 22.6957,78.2415 22.6957,77.6885 L22.6957,37.6605 C22.6957,35.6655 24.3207,34.0415 26.3157,34.0415 L94.0557,34.0415 C96.0507,34.0415 97.6747,35.6655 97.6747,37.6605 L97.6747,77.6885 C97.6747,78.2415 98.1217,78.6885 98.6747,78.6885 C99.2277,78.6885 99.6747,78.2415 99.6747,77.6885 L99.6747,77.6885 Z M15.5377,84.8465 C15.4237,84.8465 15.2617,84.8795 15.1377,85.0365 C15.0197,85.1805 14.9787,85.3375 15.0107,85.4975 L15.4417,87.6365 C15.7787,89.3225 17.2697,90.5435 18.9867,90.5435 L101.3837,90.5435 C103.1017,90.5435 104.5927,89.3225 104.9297,87.6375 L105.3607,85.4975 C105.3927,85.3375 105.3517,85.1805 105.2467,85.0525 C105.1097,84.8795 104.9467,84.8465 104.8327,84.8465 L74.6157,84.8465 L71.7477,86.2805 C71.6097,86.3495 71.4557,86.3855 71.3007,86.3855 L49.0707,86.3855 C48.9147,86.3855 48.7617,86.3495 48.6227,86.2805 L45.7547,84.8465 L15.5377,84.8465 Z M101.3837,92.5435 L18.9867,92.5435 C16.3197,92.5435 14.0027,90.6455 13.4807,88.0305 L13.0497,85.8915 C12.8997,85.1405 13.0937,84.3715 13.5827,83.7795 C14.0457,83.1925 14.7637,82.8465 15.5377,82.8465 L45.9907,82.8465 C46.1467,82.8465 46.2997,82.8825 46.4387,82.9525 L49.3067,84.3855 L71.0647,84.3855 L73.9327,82.9525 C74.0707,82.8825 74.2247,82.8465 74.3797,82.8465 L104.8327,82.8465 C105.6077,82.8465 106.3247,83.1925 106.8017,83.7955 C107.2777,84.3715 107.4717,85.1405 107.3207,85.8915 L106.8907,88.0315 C106.3677,90.6455 104.0517,92.5435 101.3837,92.5435 L101.3837,92.5435 Z" id="Fill-9" fill="#343852"></path>
        <polygon id="Fill-11" fill="#FFFFFF" points="31.155 58.846 57.555 58.846 57.555 43.081 31.155 43.081"></polygon>
        <polygon id="Fill-13" fill="#D20050" points="39.5574 58.8115 58.4724 58.8115 58.4724 53.3565 53.5514 49.0215 47.6424 55.1305 45.4064 52.6975"></polygon>
        <path d="M39.9426,50.2086 C39.9426,51.2116 39.1296,52.0246 38.1266,52.0246 C37.1236,52.0246 36.3106,51.2116 36.3106,50.2086 C36.3106,49.2056 37.1236,48.3926 38.1266,48.3926 C39.1296,48.3926 39.9426,49.2056 39.9426,50.2086" id="Fill-14" fill="#C5C8DA"></path>
        <path d="M41.6541,57.8965 L45.3851,54.0785 L46.9421,55.7735 C47.1191,55.9655 47.3671,56.0775 47.6291,56.0815 L47.6411,56.0815 C47.8981,56.0815 48.1451,55.9765 48.3241,55.7915 L53.5881,50.3495 L57.5351,54.0045 L57.5351,57.8965 L41.6541,57.8965 Z M32.1051,44.0315 L57.5351,44.0315 L57.5351,51.4145 L54.1971,48.3245 C53.8181,47.9745 53.2261,47.9885 52.8691,48.3615 L47.6591,53.7465 L46.1051,52.0545 C45.9301,51.8625 45.6821,51.7505 45.4211,51.7475 C45.1561,51.7575 44.9081,51.8475 44.7261,52.0335 L39.2891,57.5975 C39.2031,57.6865 39.1411,57.7885 39.0961,57.8965 L32.1051,57.8965 L32.1051,44.0315 Z M58.4851,42.1305 L31.1551,42.1305 C30.6311,42.1305 30.2051,42.5565 30.2051,43.0815 L30.2051,58.8465 C30.2051,59.3715 30.6311,59.7965 31.1551,59.7965 L58.4851,59.7965 C59.0101,59.7965 59.4351,59.3715 59.4351,58.8465 L59.4351,43.0815 C59.4351,42.5565 59.0101,42.1305 58.4851,42.1305 L58.4851,42.1305 Z M36.8871,50.1995 C36.8871,49.5175 37.4631,48.9415 38.1451,48.9415 C38.8261,48.9415 39.4021,49.5175 39.4021,50.1995 C39.4021,50.8805 38.8261,51.4565 38.1451,51.4565 C37.4631,51.4565 36.8871,50.8805 36.8871,50.1995 L36.8871,50.1995 Z M41.3021,50.1995 C41.3021,48.4625 39.8811,47.0415 38.1451,47.0415 C36.4081,47.0415 34.9871,48.4625 34.9871,50.1995 C34.9871,51.9355 36.4081,53.3565 38.1451,53.3565 C39.8811,53.3565 41.3021,51.9355 41.3021,50.1995 L41.3021,50.1995 Z" id="Fill-15" fill="#343852"></path>
        <path d="M89.9527,74.1679 L74.1587,74.1679 C73.6777,74.1679 73.2877,73.7779 73.2877,73.2969 L73.2877,65.4139 C73.2877,64.9329 73.6777,64.5429 74.1587,64.5429 L89.9527,64.5429 C90.4337,64.5429 90.8237,64.9329 90.8237,65.4139 L90.8237,73.2969 C90.8237,73.7779 90.4337,74.1679 89.9527,74.1679 M68.4507,74.1679 L52.6577,74.1679 C52.1767,74.1679 51.7867,73.7779 51.7867,73.2969 L51.7867,65.4139 C51.7867,64.9329 52.1767,64.5429 52.6577,64.5429 L68.4507,64.5429 C68.9317,64.5429 69.3217,64.9329 69.3217,65.4139 L69.3217,73.2969 C69.3217,73.7779 68.9317,74.1679 68.4507,74.1679 M46.9487,74.1679 L31.1547,74.1679 C30.6747,74.1679 30.2837,73.7779 30.2837,73.2969 L30.2837,65.4139 C30.2837,64.9329 30.6747,64.5429 31.1547,64.5429 L46.9487,64.5429 C47.4297,64.5429 47.8197,64.9329 47.8197,65.4139 L47.8197,73.2969 C47.8197,73.7779 47.4297,74.1679 46.9487,74.1679" id="Fill-16" fill="#C5C8DA"></path>
        <path d="M90.9023,58.2618 C90.9023,57.7378 90.4763,57.3118 89.9523,57.3118 L63.9973,57.3118 C63.4723,57.3118 63.0473,57.7378 63.0473,58.2618 C63.0473,58.7858 63.4723,59.2118 63.9973,59.2118 L89.9523,59.2118 C90.4763,59.2118 90.9023,58.7858 90.9023,58.2618 M90.9023,53.6418 C90.9023,53.1168 90.4763,52.6918 89.9523,52.6918 L63.9973,52.6918 C63.4723,52.6918 63.0473,53.1168 63.0473,53.6418 C63.0473,54.1658 63.4723,54.5918 63.9973,54.5918 L89.9523,54.5918 C90.4763,54.5918 90.9023,54.1658 90.9023,53.6418 M89.9523,49.1778 L63.9963,49.1778 C63.5163,49.1778 63.1253,48.7878 63.1253,48.3068 L63.1253,43.9688 C63.1253,43.4878 63.5163,43.0978 63.9963,43.0978 L89.9523,43.0978 C90.4333,43.0978 90.8233,43.4878 90.8233,43.9688 L90.8233,48.3068 C90.8233,48.7878 90.4333,49.1778 89.9523,49.1778" id="Fill-17" fill="#969CBB"></path>
    </g>
</svg>