<?xml version="1.0" encoding="UTF-8"?>
<svg width="120px" height="120px" viewBox="0 0 120 120" version="1.1" xmlns="http://www.w3.org/2000/svg" xmlns:xlink="http://www.w3.org/1999/xlink">
    <title>02.Icons/Illustrative/Autres Mail</title>
    <g id="02.Icons/Illustrative/Autres-Mail" stroke="none" stroke-width="1" fill="none" fill-rule="evenodd">
        <path d="M66.8367,97.466 L66.8387,97.466 C86.3957,97.466 102.2487,81.869 102.2487,62.629 L102.2487,23.312 L102.2487,22 C99.4797,25.033 93.9207,27.615 82.6367,27.79 L66.8367,27.79 C47.2797,27.79 31.4267,43.387 31.4267,62.629 C31.4267,81.869 47.2797,97.466 66.8367,97.466" id="Fill-1" fill="#F2F3F7"></path>
        <path d="M57.6699,75.9049 L36.9379,56.4549 L36.9379,29.6099 C36.9379,27.6009 38.5819,25.9569 40.5909,25.9569 L75.8339,25.9569 C77.8429,25.9569 79.4869,27.6009 79.4869,29.6099 L79.4869,55.4529 L57.6699,75.9049 Z" id="Fill-3" fill="#1D71B8"></path>
        <polygon id="Fill-5" fill="#EDEEF3" points="26.322 46.2312 57.67 75.9052 88.942 46.2752 89.39 83.8122 87.012 86.3862 28.164 86.4052 26.02 83.8752"></polygon>
        <path d="M87.9767,45.7516 L78.7647,37.8036 L79.4787,54.9516 L87.9767,45.7516 Z M27.2687,45.7516 L36.4807,37.8036 L35.7667,54.9516 L27.2687,45.7516 Z" id="Fill-7" fill="#969CBB"></path>
        <path d="M83.7178,79.3704 C84.0888,79.7414 84.0888,80.3434 83.7178,80.7144 C83.5318,80.8994 83.2888,80.9924 83.0458,80.9924 C82.8028,80.9924 82.5598,80.8994 82.3738,80.7144 L71.8658,70.2054 C71.4948,69.8344 71.4948,69.2324 71.8658,68.8614 C72.2378,68.4904 72.8388,68.4904 73.2098,68.8614 L83.7178,79.3704 Z M43.4738,68.8614 C43.8448,69.2324 43.8448,69.8344 43.4738,70.2054 L32.9658,80.7144 C32.7798,80.8994 32.5368,80.9924 32.2938,80.9924 C32.0508,80.9924 31.8078,80.8994 31.6218,80.7144 C31.2508,80.3434 31.2508,79.7414 31.6218,79.3704 L42.1298,68.8614 C42.5008,68.4904 43.1028,68.4904 43.4738,68.8614 L43.4738,68.8614 Z M88.4398,83.2144 C88.4398,84.4394 87.4438,85.4354 86.2178,85.4354 L29.1218,85.4354 C27.8968,85.4354 26.9008,84.4394 26.9008,83.2144 L26.9008,48.3214 C26.9008,48.0624 26.9608,47.8134 27.0488,47.5734 C27.0628,47.5914 27.0688,47.6124 27.0848,47.6294 L54.7618,75.3064 C55.5638,76.1064 56.6168,76.5084 57.6698,76.5084 C58.7228,76.5084 59.7768,76.1064 60.5778,75.3064 L79.6378,56.2464 C79.7608,56.1684 79.8628,56.0684 79.9398,55.9434 L88.2988,47.5844 C88.3828,47.8194 88.4398,48.0654 88.4398,48.3214 L88.4398,83.2144 Z M37.1968,54.9344 L37.5388,29.8084 C37.5388,28.2094 38.8408,26.9074 40.4408,26.9074 L75.6348,26.9074 C77.2348,26.9074 78.5358,28.2094 78.5358,29.7964 L78.1998,54.9954 L59.2348,73.9624 C58.3728,74.8234 56.9668,74.8234 56.1058,73.9624 L37.1758,55.0324 C37.1808,54.9994 37.1968,54.9694 37.1968,54.9344 L37.1968,54.9344 Z M89.2088,45.5264 C89.1618,45.4534 89.1178,45.3774 89.0488,45.3174 L82.6218,39.7234 C82.2268,39.3814 81.6278,39.4194 81.2808,39.8154 C80.9378,40.2114 80.9788,40.8114 81.3738,41.1564 L87.0758,46.1204 L80.1268,53.0694 L80.4368,29.8084 C80.4368,27.1614 78.2818,25.0074 75.6348,25.0074 L40.4408,25.0074 C37.7928,25.0074 35.6388,27.1614 35.6388,29.7964 L35.3208,53.1774 L28.4288,46.2854 C28.3698,46.2264 28.2978,46.1934 28.2288,46.1524 L33.9678,41.1564 C34.3638,40.8114 34.4048,40.2114 34.0608,39.8154 C33.7138,39.4184 33.1158,39.3804 32.7198,39.7234 L26.2928,45.3174 C26.2688,45.3394 26.2578,45.3684 26.2358,45.3914 C25.4558,46.1624 24.9998,47.2174 24.9998,48.3214 L24.9998,83.2144 C24.9998,85.4864 26.8498,87.3364 29.1218,87.3364 L86.2178,87.3364 C88.4898,87.3364 90.3398,85.4864 90.3398,83.2144 L90.3398,48.3214 C90.3398,47.2694 89.9208,46.2864 89.2088,45.5264 L89.2088,45.5264 Z" id="Fill-9" fill="#343852"></path>
        <path d="M62.0049,54.1116 C62.0049,53.5876 61.5789,53.1616 61.0549,53.1616 L44.6689,53.1616 C44.1449,53.1616 43.7189,53.5876 43.7189,54.1116 C43.7189,54.6356 44.1449,55.0616 44.6689,55.0616 L61.0549,55.0616 C61.5789,55.0616 62.0049,54.6356 62.0049,54.1116 M71.8889,45.4486 C71.8889,44.9236 71.4629,44.4986 70.9389,44.4986 L44.6689,44.4986 C44.1449,44.4986 43.7189,44.9236 43.7189,45.4486 C43.7189,45.9726 44.1449,46.3986 44.6689,46.3986 L70.9389,46.3986 C71.4629,46.3986 71.8889,45.9726 71.8889,45.4486 M70.9389,37.7356 L44.6689,37.7356 C44.1449,37.7356 43.7189,37.3096 43.7189,36.7856 C43.7189,36.2606 44.1449,35.8356 44.6689,35.8356 L70.9389,35.8356 C71.4629,35.8356 71.8889,36.2606 71.8889,36.7856 C71.8889,37.3096 71.4629,37.7356 70.9389,37.7356" id="Fill-12" fill="#FFFFFF"></path>
        <path d="M105.6181,80.0899 C105.6181,87.6129 99.5191,93.7119 91.9961,93.7119 C84.4721,93.7119 78.3731,87.6129 78.3731,80.0899 C78.3731,72.5669 84.4721,66.4679 91.9961,66.4679 C99.5191,66.4679 105.6181,72.5669 105.6181,80.0899" id="Fill-14" fill="#D20050"></path>
        <path d="M104.5448,80.0419 C104.5448,86.8949 98.9708,92.4689 92.1188,92.4689 C85.2668,92.4689 79.6918,86.8949 79.6918,80.0419 C79.6918,73.1889 85.2668,67.6149 92.1188,67.6149 C98.9708,67.6149 104.5448,73.1889 104.5448,80.0419 M106.4448,80.0419 C106.4448,72.1419 100.0188,65.7149 92.1188,65.7149 C84.2188,65.7149 77.7918,72.1419 77.7918,80.0419 C77.7918,87.9419 84.2188,94.3689 92.1188,94.3689 C100.0188,94.3689 106.4448,87.9419 106.4448,80.0419" id="Fill-16" fill="#343852"></path>
        <path d="M93.4448,79.8232 C93.2158,81.1112 92.1008,82.5852 91.0048,82.5552 C90.3708,82.5382 89.8548,81.9752 89.8298,81.2742 C89.7918,80.2092 90.1768,79.1772 90.8848,78.4442 C91.4748,77.8332 92.2318,77.4962 93.0148,77.4962 C93.3108,77.4962 93.5938,77.5292 93.8588,77.5932 L93.4448,79.8232 Z M94.9018,87.0112 C95.2318,86.8632 95.3938,86.4872 95.2698,86.1542 C95.2058,85.9812 95.0718,85.8402 94.9028,85.7682 C94.7338,85.6962 94.5468,85.6962 94.3778,85.7692 C93.6128,86.0992 92.6868,86.2732 91.6988,86.2732 C88.5458,86.2732 86.4278,84.0452 86.4278,80.7272 C86.4278,76.7502 89.0288,73.8642 92.6118,73.8642 C95.6658,73.8642 97.5628,75.8182 97.5628,78.9642 C97.5628,80.3412 97.1718,81.5152 96.4888,82.1852 C96.1678,82.4992 95.8038,82.6692 95.4638,82.6622 C95.2928,82.6572 95.1638,82.5982 95.0718,82.4832 C94.9058,82.2742 94.7598,81.7622 95.0078,80.5072 L95.5708,77.5112 C95.6888,76.8812 95.2868,76.2782 94.6558,76.1392 C94.2118,76.0412 93.7458,75.9912 93.2698,75.9912 C90.3898,75.9912 88.0458,78.3352 88.0458,81.2162 C88.0458,83.0972 89.2958,84.0822 90.5298,84.0822 C91.7338,84.0822 92.6888,83.5662 93.4378,82.5072 C93.4918,82.9352 93.6518,83.2972 93.9098,83.5672 C94.2258,83.8992 94.6778,84.0822 95.1828,84.0822 C97.1558,84.0822 99.1538,82.2802 99.1538,78.8362 C99.1538,75.1102 96.5338,72.5072 92.7818,72.5072 C88.2528,72.5072 84.8378,76.0962 84.8378,80.8552 C84.8378,84.8052 87.6248,87.6722 91.4648,87.6722 C92.8018,87.6722 93.8938,87.4622 94.9018,87.0112 L94.9018,87.0112 Z" id="Fill-18" fill="#FFFFFF"></path>
    </g>
</svg>