<?xml version="1.0" encoding="UTF-8"?>
<svg width="120px" height="120px" viewBox="0 0 120 120" version="1.1" xmlns="http://www.w3.org/2000/svg" xmlns:xlink="http://www.w3.org/1999/xlink">
    <title>02.Icons/Illustrative/Autres Formation</title>
    <g id="02.Icons/Illustrative/Autres-Formation" stroke="none" stroke-width="1" fill="none" fill-rule="evenodd">
        <path d="M96.1504,60 C96.1504,40.118 80.0324,24 60.1504,24 C40.2684,24 24.1504,40.118 24.1504,60 C24.1504,79.882 40.2684,96 60.1504,96 C80.0324,96 96.1504,79.882 96.1504,60" id="Fill-1" fill="#F2F3F7"></path>
        <polygon id="Fill-3" fill="#1D71B8" points="91.8304 51.6483 84.8174 54.4563 80.4674 56.1973 60.1504 64.3203 39.8334 56.1973 16.9504 47.0403 60.1504 29.7603 103.3504 47.0403 96.1504 49.9203"></polygon>
        <path d="M93.9904,81.6 L96.1504,100.32 C94.8674,101.285 93.3424,101.76 91.8304,101.76 C90.3184,101.76 88.7924,101.285 87.5104,100.32 L89.6704,81.6 C90.3764,81.802 91.1104,81.888 91.8304,81.888 C92.5504,81.888 93.2844,81.802 93.9904,81.6" id="Fill-5" fill="#D20050"></path>
        <path d="M94.7104,77.6681 C94.7104,80.2321 93.9904,81.6001 93.9904,81.6001 C93.2844,81.8021 92.5504,81.8881 91.8304,81.8881 C91.1104,81.8881 90.3764,81.8021 89.6704,81.6001 C89.6704,81.6001 88.9504,80.2321 88.9504,77.6681 C88.9504,76.0421 90.1174,74.4001 91.8304,74.4001 C93.5434,74.4001 94.7104,76.0421 94.7104,77.6681" id="Fill-7" fill="#D20050"></path>
        <path d="M81.7504,61.44 L84.6304,77.28 C77.4584,82.982 68.8044,85.92 60.1504,85.92 C51.4964,85.92 42.8424,82.968 35.6704,77.28 L38.5504,61.44 L39.8334,56.198 L60.1504,64.32 L80.4674,56.198 L81.7504,61.44 Z" id="Fill-9" fill="#C5C8DA"></path>
        <path d="M93.1656,82.7387 C92.7336,82.8017 92.2886,82.8387 91.8296,82.8387 C91.3716,82.8387 90.9266,82.8017 90.4946,82.7387 L88.5196,99.8607 C90.4926,101.0927 93.1726,101.0917 95.1416,99.8607 L93.1656,82.7387 Z M89.9006,77.6687 C89.9006,79.2047 90.1796,80.2517 90.3616,80.7747 C91.3016,80.9707 92.3586,80.9707 93.2986,80.7747 C93.4806,80.2517 93.7596,79.2047 93.7596,77.6687 C93.7596,76.5487 92.9846,75.3497 91.8296,75.3497 C90.6756,75.3497 89.9006,76.5487 89.9006,77.6687 L89.9006,77.6687 Z M94.9636,81.7487 L97.0936,100.2107 C97.1326,100.5457 96.9916,100.8767 96.7216,101.0787 C95.3236,102.1317 93.5856,102.7107 91.8296,102.7107 C90.0746,102.7107 88.3376,102.1317 86.9396,101.0787 C86.6696,100.8767 86.5286,100.5457 86.5676,100.2117 L88.6966,81.7487 C88.4616,81.1737 87.9996,79.7757 87.9996,77.6687 C87.9996,75.9287 89.0826,74.0817 90.8796,73.5867 L90.8796,52.4337 L59.9726,46.5337 C59.4566,46.4347 59.1186,45.9367 59.2166,45.4227 C59.3156,44.9067 59.8156,44.5727 60.3276,44.6667 L92.0076,50.7147 C92.4556,50.8007 92.7806,51.1917 92.7806,51.6477 L92.7806,73.5867 C94.5776,74.0817 95.6606,75.9287 95.6606,77.6687 C95.6606,79.7757 95.1986,81.1737 94.9636,81.7487 L94.9636,81.7487 Z M82.6846,61.2697 C82.5906,60.7537 82.0926,60.4077 81.5796,60.5057 C81.0636,60.5987 80.7216,61.0927 80.8156,61.6097 L83.5936,76.8847 C76.8316,82.1027 68.5296,84.9697 60.1506,84.9697 C51.7866,84.9697 43.4856,82.1027 36.7066,76.8847 L39.4856,61.6097 C39.5786,61.0927 39.2376,60.5987 38.7206,60.5057 C38.2046,60.4087 37.7096,60.7537 37.6166,61.2697 L34.7356,77.1097 C34.6726,77.4547 34.8046,77.8057 35.0786,78.0237 C42.2716,83.7287 51.1756,86.8707 60.1506,86.8707 C69.1426,86.8707 78.0466,83.7277 85.2216,78.0227 C85.4956,77.8047 85.6276,77.4547 85.5656,77.1097 L82.6846,61.2697 Z M104.3006,47.0407 C104.3006,47.4287 104.0646,47.7787 103.7026,47.9227 L96.5026,50.8017 C96.0206,50.9997 95.4626,50.7607 95.2686,50.2727 C95.0736,49.7857 95.3106,49.2327 95.7976,49.0387 L100.7926,47.0407 L60.1506,30.7837 L19.5076,47.0407 L60.1506,63.2967 L84.4636,53.5747 C84.9516,53.3797 85.5046,53.6157 85.6996,54.1027 C85.8946,54.5907 85.6576,55.1427 85.1706,55.3387 L60.5026,65.2017 C60.3896,65.2477 60.2706,65.2697 60.1506,65.2697 C60.0306,65.2697 59.9106,65.2477 59.7976,65.2017 L16.5976,47.9227 C16.2366,47.7777 15.9996,47.4287 15.9996,47.0407 C15.9996,46.6517 16.2366,46.3027 16.5976,46.1587 L59.7976,28.8787 C60.0246,28.7867 60.2766,28.7867 60.5026,28.8787 L103.7026,46.1587 C104.0646,46.3027 104.3006,46.6517 104.3006,47.0407 L104.3006,47.0407 Z" id="Fill-11" fill="#343852"></path>
    </g>
</svg>