<?xml version="1.0" encoding="UTF-8"?>
<svg width="120px" height="120px" viewBox="0 0 120 120" version="1.1" xmlns="http://www.w3.org/2000/svg" xmlns:xlink="http://www.w3.org/1999/xlink">
    <title>02.Icons/Illustrative/Cesser une activité</title>
    <g id="02.Icons/Illustrative/Cesser-une-activité" stroke="none" stroke-width="1" fill="none" fill-rule="evenodd">
        <path d="M42.3198,88.2697 L42.3178,88.2697 C22.8118,88.2697 6.9998,72.7137 6.9998,53.5227 L6.9998,14.3087 L6.9998,13.0007 C9.7618,16.0257 15.3058,18.6007 26.5608,18.7747 L42.3198,18.7747 C61.8258,18.7747 77.6378,34.3317 77.6378,53.5227 C77.6378,72.7137 61.8258,88.2697 42.3198,88.2697" id="Fill-1" fill="#F2F3F7"></path>
        <path d="M100.5392,36.5141 L27.2102,36.5141 L21.9732,36.5141 L21.9732,32.5861 C21.9732,30.4121 23.7272,28.6571 25.9012,28.6571 L96.6112,28.6571 C98.7842,28.6571 100.5392,30.4121 100.5392,32.5861 L100.5392,36.5141 Z M36.3772,32.5861 C36.3772,31.8651 35.7872,31.2761 35.0672,31.2761 C34.3472,31.2761 33.7582,31.8651 33.7582,32.5861 C33.7582,33.3061 34.3472,33.8951 35.0672,33.8951 C35.7872,33.8951 36.3772,33.3061 36.3772,32.5861 L36.3772,32.5861 Z M29.8292,33.8951 C30.5502,33.8951 31.1392,33.3061 31.1392,32.5861 C31.1392,31.8651 30.5502,31.2761 29.8292,31.2761 C29.1092,31.2761 28.5202,31.8651 28.5202,32.5861 C28.5202,33.3061 29.1092,33.8951 29.8292,33.8951 L29.8292,33.8951 Z M40.3052,31.2761 C39.5852,31.2761 38.9952,31.8651 38.9952,32.5861 C38.9952,33.3061 39.5852,33.8951 40.3052,33.8951 C41.0252,33.8951 41.6142,33.3061 41.6142,32.5861 C41.6142,31.8651 41.0252,31.2761 40.3052,31.2761 L40.3052,31.2761 Z" id="Fill-4" fill="#1D71B8"></path>
        <path d="M27.2105,36.5141 L21.9725,36.5141 L21.9725,84.9631 C21.9725,87.1371 23.7275,88.8921 25.9015,88.8921 L96.6105,88.8921 C98.7845,88.8921 100.5395,87.1371 100.5395,84.9631 L100.5395,36.5141 L27.2105,36.5141 Z" id="Fill-6" fill="#FFFFFF"></path>
        <polygon id="Fill-8" fill="#EDEEF3" points="25.901 84.963 96.61 84.963 96.61 40.442 25.901 40.442"></polygon>
        <path d="M28.5201,32.5858 C28.5201,33.3058 29.1091,33.8948 29.8291,33.8948 C30.5501,33.8948 31.1391,33.3058 31.1391,32.5858 C31.1391,31.8658 30.5501,31.2768 29.8291,31.2768 C29.1091,31.2768 28.5201,31.8658 28.5201,32.5858 M33.7581,32.5858 C33.7581,33.3058 34.3471,33.8948 35.0671,33.8948 C35.7871,33.8948 36.3771,33.3058 36.3771,32.5858 C36.3771,31.8658 35.7871,31.2768 35.0671,31.2768 C34.3471,31.2768 33.7581,31.8658 33.7581,32.5858 M40.3051,31.2768 C41.0251,31.2768 41.6141,31.8658 41.6141,32.5858 C41.6141,33.3058 41.0251,33.8948 40.3051,33.8948 C39.5851,33.8948 38.9961,33.3058 38.9961,32.5858 C38.9961,31.8658 39.5851,31.2768 40.3051,31.2768" id="Fill-10" fill="#FFFFFF"></path>
        <polygon id="Fill-11" fill="#FFFFFF" points="105.1222 82.4884 97.6712 78.4164 90.4952 74.4874 88.0992 74.4874 88.0992 78.4164 88.0992 91.7854 93.0092 88.6954 97.9332 96.7484 104.4802 93.6444 99.5702 85.5914"></polygon>
        <path d="M74.1031,52.6561 L44.9941,52.6561 C43.5041,52.6561 42.2851,53.8751 42.2851,55.3641 L42.2851,61.1981 C42.2851,62.0521 42.6871,62.8151 43.3101,63.3121 C43.4131,63.4201 43.5321,63.5241 43.6501,63.6281 L43.6501,73.8531 C43.6501,75.1531 44.7141,76.2181 46.0151,76.2181 L73.0781,76.2181 C74.3781,76.2181 75.4431,75.1531 75.4431,73.8531 L75.4431,63.6331 C75.5611,63.5271 75.6831,63.4211 75.7871,63.3121 C76.4101,62.8151 76.8111,62.0521 76.8111,61.1981 L76.8111,55.3641 C76.8111,53.8751 75.5931,52.6561 74.1031,52.6561" id="Fill-12" fill="#969CBB"></path>
        <path d="M61.2682,63.4346 L57.7262,63.4346 C56.9602,63.4346 56.3342,64.0146 56.3342,64.7236 L56.3342,66.3206 C56.3342,66.3256 56.3352,66.3296 56.3352,66.3346 C56.3352,66.3446 56.3342,66.3536 56.3342,66.3636 L56.3342,68.2666 C56.3342,69.8776 57.7572,71.1956 59.4972,71.1956 C61.2372,71.1956 62.6612,69.8776 62.6612,68.2666 L62.6612,66.3636 C62.6612,66.3536 62.6592,66.3446 62.6592,66.3356 C62.6592,66.3306 62.6612,66.3256 62.6612,66.3206 L62.6612,64.7236 C62.6612,64.0146 62.0342,63.4346 61.2682,63.4346" id="Fill-13" fill="#EDEEF3"></path>
        <path d="M88.2836,54.8462 C88.2836,60.6532 83.5766,65.3602 77.7696,65.3602 C71.9626,65.3602 67.2556,60.6532 67.2556,54.8462 C67.2556,49.0392 71.9626,44.3322 77.7696,44.3322 C83.5766,44.3322 88.2836,49.0392 88.2836,54.8462" id="Fill-14" fill="#D20050"></path>
        <polygon id="Fill-15" fill="#FFFFFF" points="83.1824 51.5954 80.8784 49.2914 77.9994 52.1714 75.6954 49.8674 75.1194 49.2914 72.8154 51.5954 73.3914 52.1714 75.6954 54.4754 72.8154 57.3544 75.1194 59.6584 77.9994 56.7784 80.8784 59.6584 83.1824 57.3544 80.3024 54.4754"></polygon>
        <path d="M77.9986,55.8284 C78.2506,55.8284 78.4916,55.9284 78.6706,56.1064 L80.8786,58.3144 L81.8386,57.3544 L79.6306,55.1464 C79.4526,54.9684 79.3526,54.7264 79.3526,54.4744 C79.3526,54.2234 79.4526,53.9814 79.6306,53.8034 L81.8386,51.5954 L80.8786,50.6354 L78.6706,52.8434 C78.4916,53.0214 78.2506,53.1214 77.9986,53.1214 C77.7466,53.1214 77.5046,53.0204 77.3266,52.8424 L75.1196,50.6354 L74.1596,51.5954 L76.3676,53.8034 C76.7386,54.1744 76.7386,54.7754 76.3676,55.1464 L74.1596,57.3544 L75.1196,58.3144 L77.3266,56.1064 C77.5046,55.9284 77.7466,55.8284 77.9986,55.8284 L77.9986,55.8284 Z M80.8786,60.6084 C80.6356,60.6084 80.3926,60.5154 80.2066,60.3294 L77.9986,58.1214 L75.7916,60.3294 C75.4206,60.7014 74.8186,60.7014 74.4476,60.3294 L72.1446,58.0264 C71.9666,57.8484 71.8656,57.6064 71.8656,57.3544 C71.8656,57.1024 71.9666,56.8614 72.1446,56.6824 L74.3526,54.4744 L72.1446,52.2674 C71.9666,52.0894 71.8656,51.8484 71.8656,51.5954 C71.8656,51.3434 71.9666,51.1014 72.1446,50.9234 L74.4476,48.6204 C74.8186,48.2484 75.4206,48.2484 75.7916,48.6204 L76.3676,49.1954 L76.3676,49.1964 L77.9986,50.8274 L80.2066,48.6204 C80.5776,48.2484 81.1796,48.2484 81.5506,48.6204 L83.8536,50.9234 C84.0316,51.1014 84.1326,51.3434 84.1326,51.5954 C84.1326,51.8474 84.0316,52.0894 83.8536,52.2674 L81.6456,54.4744 L83.8536,56.6824 C84.0316,56.8614 84.1326,57.1024 84.1326,57.3544 C84.1326,57.6064 84.0316,57.8484 83.8536,58.0264 L81.5506,60.3294 C81.3646,60.5154 81.1216,60.6084 80.8786,60.6084 L80.8786,60.6084 Z M77.7696,64.4104 C72.4956,64.4104 68.2056,60.1204 68.2056,54.8464 C68.2056,49.5724 72.4956,45.2824 77.7696,45.2824 C83.0436,45.2824 87.3336,49.5724 87.3336,54.8464 C87.3336,60.1204 83.0436,64.4104 77.7696,64.4104 L77.7696,64.4104 Z M74.4926,74.0494 C74.4926,74.7214 73.9456,75.2674 73.2736,75.2674 L45.8176,75.2674 C45.1456,75.2674 44.6006,74.7214 44.6006,74.0494 L44.6006,64.3484 C47.0686,65.9584 51.3206,67.1234 56.3336,67.4814 L56.3336,68.2674 C56.3336,69.8774 57.7576,71.1954 59.4976,71.1954 C61.2376,71.1954 62.6606,69.8774 62.6606,68.2674 L62.6606,67.4894 C66.7676,67.2054 70.3606,66.3774 72.9006,65.2094 C73.4126,65.4514 73.9426,65.6624 74.4926,65.8274 L74.4926,74.0494 Z M60.7606,65.3344 L60.7606,68.2674 C60.7606,68.8244 60.1826,69.2954 59.4976,69.2954 C58.8126,69.2954 58.2336,68.8244 58.2336,68.2674 L58.2336,65.3344 L60.7606,65.3344 Z M44.4956,61.8274 C44.2986,61.6704 44.1856,61.4404 44.1856,61.1974 L44.1856,55.3644 C44.1856,54.9264 44.5556,54.5564 44.9936,54.5564 L66.3196,54.5564 C66.3176,54.6534 66.3056,54.7484 66.3056,54.8464 C66.3056,58.5824 68.1096,61.8974 70.8846,63.9914 C68.8146,64.7474 66.0356,65.3574 62.6606,65.5954 L62.6606,64.7244 C62.6606,64.0144 62.0346,63.4344 61.2686,63.4344 L57.7266,63.4344 C56.9606,63.4344 56.3336,64.0144 56.3336,64.7244 L56.3336,65.5884 C50.3006,65.1504 46.1466,63.5254 44.6806,61.9974 L44.5936,61.9064 L44.4956,61.8274 Z M54.7376,51.3074 C54.7376,50.6084 55.3076,50.0384 56.0076,50.0384 L62.9876,50.0384 C63.6866,50.0384 64.2566,50.6084 64.2566,51.3074 L64.2566,52.6564 L54.7376,52.6564 L54.7376,51.3074 Z M77.7696,43.3824 C72.1976,43.3824 67.5466,47.3794 66.5206,52.6564 L66.1566,52.6564 L66.1566,51.3074 C66.1566,49.5604 64.7346,48.1384 62.9876,48.1384 L56.0076,48.1384 C54.2596,48.1384 52.8376,49.5604 52.8376,51.3074 L52.8376,52.6564 L44.9936,52.6564 C43.5046,52.6564 42.2856,53.8744 42.2856,55.3644 L42.2856,61.1974 C42.2856,61.8024 42.4946,62.3564 42.8326,62.8074 C42.7556,62.9444 42.6996,63.0954 42.6996,63.2634 L42.6996,74.0494 C42.6996,75.7694 44.0986,77.1674 45.8176,77.1674 L73.2736,77.1674 C74.9936,77.1674 76.3936,75.7694 76.3936,74.0494 L76.3936,66.2194 C76.8456,66.2744 77.3026,66.3104 77.7696,66.3104 C84.0906,66.3104 89.2336,61.1674 89.2336,54.8464 C89.2336,48.5254 84.0906,43.3824 77.7696,43.3824 L77.7696,43.3824 Z M92.5036,87.8914 L89.0496,90.0654 L89.0496,74.7804 L97.2156,79.2484 L97.2156,79.2494 L103.1576,82.4974 L99.1056,84.7624 C98.8816,84.8884 98.7166,85.1004 98.6506,85.3504 C98.5856,85.6004 98.6246,85.8664 98.7586,86.0854 L103.1196,93.2394 L98.2986,95.5234 L93.8196,88.2004 C93.6866,87.9834 93.4736,87.8284 93.2266,87.7704 C93.1546,87.7534 93.0816,87.7454 93.0096,87.7454 C92.8316,87.7454 92.6556,87.7944 92.5036,87.8914 L92.5036,87.8914 Z M98.3406,97.6064 L104.8876,94.5034 C105.1306,94.3884 105.3126,94.1754 105.3906,93.9174 C105.4676,93.6594 105.4316,93.3804 105.2916,93.1514 L100.8946,85.9394 L105.5856,83.3174 C105.8876,83.1484 106.0726,82.8284 106.071604,82.4834 C106.0696,82.1374 105.8806,81.8204 105.5776,81.6544 L88.5546,72.3444 C88.2606,72.1844 87.9026,72.1914 87.6146,72.3614 C87.3256,72.5334 87.1486,72.8434 87.1486,73.1784 L87.1486,91.7864 C87.1486,92.1314 87.3376,92.4504 87.6406,92.6184 C87.9406,92.7854 88.3116,92.7764 88.6046,92.5894 L92.7006,90.0114 L97.1226,97.2434 C97.3006,97.5344 97.6116,97.6984 97.9346,97.6984 C98.0706,97.6984 98.2096,97.6684 98.3406,97.6064 L98.3406,97.6064 Z M101.4896,32.5854 L101.4896,73.1784 C101.4896,73.7034 101.0636,74.1284 100.5396,74.1284 C100.0156,74.1284 99.5896,73.7034 99.5896,73.1784 L99.5896,37.4644 L27.2106,37.4644 C26.6856,37.4644 26.2606,37.0384 26.2606,36.5144 C26.2606,35.9894 26.6856,35.5634 27.2106,35.5634 L99.5896,35.5634 L99.5896,32.5854 C99.5896,30.9434 98.2536,29.6074 96.6106,29.6074 L25.9006,29.6074 C24.2596,29.6074 22.9236,30.9434 22.9236,32.5854 L22.9236,84.9634 C22.9236,86.6054 24.2596,87.9414 25.9006,87.9414 L82.6586,87.9414 C83.1836,87.9414 83.6086,88.3674 83.6086,88.8914 C83.6086,89.4154 83.1836,89.8414 82.6586,89.8414 L25.9006,89.8414 C23.2116,89.8414 21.0226,87.6534 21.0226,84.9634 L21.0226,32.5854 C21.0226,29.8954 23.2116,27.7074 25.9006,27.7074 L96.6106,27.7074 C99.3016,27.7074 101.4896,29.8954 101.4896,32.5854 L101.4896,32.5854 Z" id="Fill-16" fill="#343852"></path>
    </g>
</svg>