<?xml version="1.0" encoding="UTF-8"?>
<svg width="120px" height="120px" viewBox="0 0 120 120" version="1.1" xmlns="http://www.w3.org/2000/svg" xmlns:xlink="http://www.w3.org/1999/xlink">
    <title>02.Icons/Illustrative/Cible Etablissement medico-social</title>
    <g id="02.Icons/Illustrative/Cible-Etablissement-medico-social" stroke="none" stroke-width="1" fill="none" fill-rule="evenodd">
        <path d="M107.809855,64.4520656 C107.809855,45.7109645 92.6175938,30.5187036 73.8764927,30.5187036 C55.1353916,30.5187036 39.9431307,45.7109645 39.9431307,64.4520656 C39.9431307,83.1931666 55.1353916,98.3854276 73.8764927,98.3854276 C92.6175938,98.3854276 107.809855,83.1931666 107.809855,64.4520656" id="Fill-1" fill="#F2F3F7"></path>
        <polygon id="Fill-4" fill="#1D71B8" points="20.3000022 75.95569 28.3537435 68.1637397 47.4089939 87.3258009 39.5290819 94.6528101"></polygon>
        <polygon id="Fill-6" fill="#DEE0EA" points="53.7106198 29.4593921 50.2466 34.8491472 49.4319061 46.1543339 52.711625 49.4330056 55.9913438 61.213605 57.2688844 62.8744077 60.9109221 64.1906933 60.9109221 42.874615 64.190641 44.5134273 70.2244022 44.5134273 70.2244022 39.199068 64.190641 37.5560671 58.0458803 33.1506465"></polygon>
        <path d="M69.5591386,25.724785 C69.5591386,28.8568537 67.019765,31.3951802 63.8887435,31.3951802 C60.7566748,31.3951802 58.2173012,28.8568537 58.2173012,25.724785 C58.2173012,22.5927163 60.7566748,20.0543898 63.8887435,20.0543898 C67.019765,20.0543898 69.5591386,22.5927163 69.5591386,25.724785" id="Fill-8" fill="#FFFFFF"></path>
        <polygon id="Fill-10" fill="#FFFFFF" points="31.710429 70.4340969 41.0710315 61.9573011 46.9299162 60.6724304 53.2055724 60.9635421 57.2413439 63.4432274 61.6970284 64.466307 69.0512639 64.5249482 72.1833326 66.0632327 78.6715632 62.6945049 83.2288226 56.9581383 88.4426541 55.8345309 92.0658429 58.045095 84.3786091 70.1105231 71.9267773 81.7015857 69.4010168 82.2283094 47.0461515 82.2283094 44.5130608 83.8671216"></polygon>
        <polygon id="Fill-12" fill="#D20050" points="27.4166361 39.9574245 31.7236233 39.9574245 32.0828006 35.29126 37.9165535 35.29126 37.9165535 39.5752095 42.582718 39.9574245 42.582718 45.4204811 37.9165535 45.7911773 37.9165535 50.4573418 32.0388197 50.082457 32.0828006 45.7911773 27.2281465 45.7807057"></polygon>
        <path d="M92.80179,57.0854735 C91.6289659,55.5042553 88.6759623,54.3136294 85.2999043,55.0990027 C82.0180911,55.8602912 80.1541385,58.2520147 78.2681954,61.8710148 L72.0564163,65.0941868 C71.9349452,64.9611969 71.8050968,64.8323957 71.665824,64.7098774 L71.665824,39.5936396 C71.665824,39.1726795 71.3799481,38.8072191 70.9705068,38.704597 L64.5922285,37.1097657 L58.1814881,32.3022339 L57.0809184,33.7693113 L63.6403561,38.6888895 C63.7377424,38.7621911 63.8487418,38.8155964 63.9681185,38.844917 L69.831192,40.3099 L69.831192,63.6522414 C69.1421578,63.4134879 68.3567845,63.2742151 67.4687891,63.2742151 L61.8287617,63.2742151 L61.8287617,44.1655593 L63.7178463,45.3006855 C63.8613078,45.386553 64.0236183,45.4305339 64.1901174,45.4305339 L69.1086485,45.4305339 L69.1086485,43.5959019 L64.4445783,43.5959019 L56.4630914,38.8082663 L55.5185491,40.3811072 L59.9941297,43.0649895 L59.9941297,63.2742151 L58.8076924,63.2742151 C58.4935431,63.2595548 57.5856516,62.5642376 56.9835321,62.1034853 C56.8149386,61.9736369 56.6421565,61.8416942 56.46728,61.7107986 L53.6064269,49.227552 C53.5676818,49.0600057 53.4828615,48.9071197 53.3603433,48.7846014 L50.3497457,45.775051 L50.3497457,39.5936396 C50.3497457,33.6865853 53.7729261,31.1723436 54.8232319,30.5429978 L53.8797368,28.9691097 C52.6210452,29.7241152 48.5151137,32.7221469 48.5151137,39.5936396 L48.5151137,46.1541245 C48.5151137,46.3981138 48.6114528,46.6316314 48.7842349,46.8044136 L51.8775585,49.8956428 L54.2745178,60.3547207 C53.7635016,60.1358634 53.2409665,59.993449 52.7121485,59.993449 L44.5128514,59.993449 C42.0027983,59.993449 39.0738795,61.8930052 37.3052189,63.5422891 L31.3950231,69.452485 L28.7645461,66.822008 C28.4053687,66.4628306 27.8252397,66.4628306 27.4671095,66.822008 L19.2678123,75.020258 C18.9107292,75.3783882 18.9107292,75.9595645 19.2678123,76.3176947 L38.9450783,95.9949607 C39.1241434,96.1740258 39.3597554,96.2630348 39.5932731,96.2630348 C39.8278379,96.2630348 40.0624027,96.1740258 40.2414678,95.9949607 L48.440765,87.7956635 C48.7999424,87.4375333 48.7999424,86.8574043 48.440765,86.4982269 L45.7998164,83.8572783 C46.2260123,83.4583087 46.7558775,83.1462537 47.7925702,83.1462537 L70.748508,83.1462537 C73.3255795,83.1462537 84.4464653,71.478748 84.5511818,71.3604185 C85.8213922,69.9383692 91.3326183,61.681478 92.9096479,57.9923179 C93.037402,57.6928289 92.9965626,57.3472646 92.80179,57.0854735 L92.80179,57.0854735 Z M39.5932731,94.0482821 L21.2134437,75.6684528 L28.1153042,68.7676394 L46.4951336,87.1474688 L39.5932731,94.0482821 Z M83.1825379,70.1394248 C81.3897925,72.1478861 72.3391507,80.9943308 70.748508,81.3116217 L47.7925702,81.3116217 C46.0668433,81.3116217 45.128584,81.9598164 44.5023797,82.5608888 L32.6924598,70.7499216 L38.5796179,64.8617163 C40.147223,63.3998748 42.6729835,61.828081 44.5128514,61.828081 L52.7121485,61.828081 C53.6085212,61.828081 54.8609299,62.7883308 55.868302,63.5600909 C56.9531643,64.3904923 57.8903764,65.1088471 58.8055981,65.1088471 L67.4687891,65.1088471 C70.2186428,65.1088471 71.4700042,66.7570838 71.4700042,68.2901325 C71.4700042,69.822134 70.2186428,71.4714179 67.4687891,71.4714179 L54.3509608,71.4714179 L54.3509608,73.3060499 L67.4687891,73.3060499 C71.3003636,73.3060499 73.3046362,70.7834309 73.3046362,68.2901325 C73.3046362,67.7414183 73.2020141,67.1927042 73.0093359,66.6680748 L79.3708595,63.3653184 C79.539453,63.2784037 79.6776787,63.140178 79.7635462,62.9705374 C81.7898093,59.0279635 83.3479899,57.4352264 85.7145814,56.8854651 C88.0885031,56.3357038 90.0529835,57.0195022 90.9776296,57.8111584 C89.2246764,61.5139317 84.3113811,68.8744502 83.1825379,70.1394248 L83.1825379,70.1394248 Z" id="Fill-14" fill="#343852"></path>
        <polygon id="Fill-16" fill="#343852" points="30.7465142 79.5970994 32.0439508 78.2996627 28.764232 75.020991 27.4667953 76.3173805"></polygon>
        <path d="M63.3696641,32.3130197 C67.0399753,32.3130197 70.0264881,29.3275541 70.0264881,25.6572429 C70.0264881,21.9869317 67.0399753,18.9993717 63.3696641,18.9993717 C59.6993529,18.9993717 56.7138872,21.9869317 56.7138872,25.6572429 C56.7138872,29.3275541 59.6993529,32.3130197 63.3696641,32.3130197 M63.3696641,20.8340037 C66.0284145,20.8340037 68.1918561,22.9974453 68.1918561,25.6572429 C68.1918561,28.3149461 66.0284145,30.4783877 63.3696641,30.4783877 C60.7109137,30.4783877 58.5485193,28.3149461 58.5485193,25.6572429 C58.5485193,22.9974453 60.7109137,20.8340037 63.3696641,20.8340037" id="Fill-18" fill="#343852"></path>
        <path d="M30.9291396,51.3027176 L38.4132235,51.3027176 L38.4132235,46.6365531 L43.0804352,46.6365531 L43.0804352,39.1503749 L38.4132235,39.1503749 L38.4132235,34.4842104 L30.9291396,34.4842104 L30.9291396,39.1503749 L26.261928,39.1503749 L26.261928,46.6365531 L30.9291396,46.6365531 L30.9291396,51.3027176 Z M27.9143534,44.9841277 L27.9143534,40.8017531 L32.581565,40.8017531 L32.581565,36.1355886 L36.7628924,36.1355886 L36.7628924,40.8017531 L41.4280098,40.8017531 L41.4280098,44.9841277 L36.7628924,44.9841277 L36.7628924,49.6502922 L32.581565,49.6502922 L32.581565,44.9841277 L27.9143534,44.9841277 Z" id="Fill-21" fill="#343852"></path>
    </g>
</svg>