<?xml version="1.0" encoding="UTF-8"?>
<svg width="120px" height="120px" viewBox="0 0 120 120" version="1.1" xmlns="http://www.w3.org/2000/svg" xmlns:xlink="http://www.w3.org/1999/xlink">
    <title>02.Icons/Illustrative/Habilitations gestionnaires</title>
    <g id="02.Icons/Illustrative/Habilitations-gestionnaires" stroke="none" stroke-width="1" fill="none" fill-rule="evenodd">
        <path d="M59.5009396,90 L59.4990604,90 C42.6546269,90 29,76.5660997 29,59.993956 L29,26.1295828 L29,25 C31.3846035,27.6122757 36.1726018,29.836315 45.8923511,29.9869877 L59.5009396,29.9869877 C76.3453731,29.9869877 90,43.420888 90,59.993956 C90,76.5660997 76.3453731,90 59.5009396,90" id="Fill-12" fill="#F2F3F7" transform="translate(59.500000, 57.500000) rotate(-360.000000) translate(-59.500000, -57.500000) "></path>
        <path d="M57.5,82.1658764 C54.1931982,81.0475041 50.6732845,76.5326321 49,74 C49.1590691,76.0888008 49.3711612,78.3658936 49.6372961,80.7371325 C50.1950576,85.9658591 51.025072,92.6905768 52.193618,98 L62.8196377,98 C63.6955374,94.0510389 64.353227,88.8636951 64.884477,84.8340374 C65.3759597,80.9937064 65.7481406,77.2744202 66,74 C64.3267155,76.5326321 60.8068018,81.0475041 57.5,82.1658764" id="Fill-1" fill="#1D71B8"></path>
        <path d="M82.291368,82.8587521 L88.3062587,89.0428037 L91,86.3756131 C90.3695061,82.5531153 89.6999278,78.7978576 89.2576565,77.0995357 C88.7485301,75.1882868 88.1591778,73.7691132 87.5163415,73.025397 C87.4895995,72.9856642 87.4628575,72.9591757 87.4093735,72.9194429 C85.9622204,71.4065406 79.6922522,68.8320598 72.8730446,65.1827563 L72.6457377,64.4533031 L66.7367864,62.7274738 C66.7367864,62.7274738 64.1921831,61.9185551 64.1921831,59.848375 L64.1921831,55.8669461 L62.798514,55.8272133 C63.1605594,55.5888166 63.5082053,55.3361568 63.9237347,55.0977601 C67.5544741,53.0540686 69.3626441,49.2855667 70.1535899,45.4365804 C70.1535899,45.4365804 73.5693649,45.1452066 73.5693649,40.4343245 C73.5693649,38.8552009 73.1147511,37.9922863 72.8061897,37.5939397 C72.6323667,37.3820315 72.4976282,37.2893216 72.4976282,37.2893216 C69.2155632,37.2893216 69.2155632,29.8175203 63.4279793,29.3529523 C63.4012373,29.3529523 63.3744953,29.339708 63.3477533,29.3529523 C62.838627,29.3529523 62.3295006,29.3794408 61.8203743,29.4324179 C60.6817826,29.6188563 59.1009195,29.9907145 57.3729755,30.1496456 C54.7471178,30.4012866 51.7725856,30.1496456 49.4552893,28 C47.3118159,33.0684772 45.5293594,35.9221063 42.4879722,37.2893216 C42.4879722,37.2893216 42.3542623,37.3820315 42.1938103,37.5939397 C41.8718779,37.9922863 41.4162356,38.8552009 41.4162356,40.4343245 C41.4162356,40.5667671 41.4162356,40.6859654 41.4296065,40.8051638 C41.604458,45.1584509 44.8330391,45.4365804 44.8330391,45.4365804 C45.6229564,49.2855667 47.4321549,53.0540686 51.0628943,55.0977601 C51.1698623,55.1507372 51.2634593,55.2169585 51.3570562,55.2831798 L50.7944459,55.8669461 L50.7944459,59.848375 C50.7944459,61.9185551 48.2488141,62.7274738 48.2488141,62.7274738 L42.3408913,64.4533031 L42.1135844,65.1827563 C40.6931733,65.9397168 39.2995042,66.6559257 37.9737185,67.3191576 C32.748745,69.9333712 28.4751692,71.8313758 27.4702875,73.025397 C25.5541211,75.2809967 24,83.734911 24,93.0242326 L24,98 L45.4357624,98 L52.134631,98 C50.9548978,92.7715729 50.1248676,86.1494418 49.5622573,81.0004803 C49.2938088,78.665415 49.0798729,76.4230596 48.9194209,74.3661238 C50.607252,76.8601202 54.1577655,81.3061171 57.4933145,82.4074284 C60.8288635,81.3061171 64.379377,76.8601202 66.0672081,74.3661238 C65.8131591,77.5905922 65.4377427,81.2531401 64.9419874,85.0348863 C64.406119,89.0030709 63.7365407,94.1122997 62.851998,98 L69.5508666,98 L88.3062587,98 L78.2718411,86.8401811 L81.4603092,83.681934 L82.291368,82.8587521 Z" id="Fill-3" fill="#FFFFFF"></path>
        <path d="M36.9998976,89.0004095 L33.9995905,89.0004095 L33.9995905,86.0001024 C33.9995905,85.448357 33.5522571,85 32.9994882,85 C32.4477429,85 31.9993858,85.448357 31.9993858,86.0001024 L31.9993858,89.0004095 L29.0001024,89.0004095 C28.4473334,89.0004095 28,89.4477429 28,90.0005118 C28,90.5522571 28.4473334,91.0006142 29.0001024,91.0006142 L31.9993858,91.0006142 L31.9993858,94.0009213 C31.9993858,94.5526666 32.4477429,95 32.9994882,95 C33.5522571,95 33.9995905,94.5526666 33.9995905,94.0009213 L33.9995905,91.0006142 L36.9998976,91.0006142 C37.551643,91.0006142 38,90.5522571 38,90.0005118 C38,89.4477429 37.551643,89.0004095 36.9998976,89.0004095" id="Fill-5" fill="#343852"></path>
        <path d="M72.9866927,30.3813893 C72.9467707,28.0565581 72.2936886,25.0239944 70.8667349,23.2244178 C72.4400691,21.4127432 71.9333675,19.0748059 71.9333675,19.0748059 C71.9333675,19.0748059 68.3997633,19.4689989 64.4270177,18.4053836 L64.4004031,18.4053836 C62.1596558,17.4597238 59.6261476,17 56.9994882,17 C50.5331563,17 47.9996481,18.7461438 46.3331627,21.1496119 C43.6665814,22.1870148 41,25.3516484 41,29.4357294 C41,34.5047888 41,35.0169372 41.772848,37 C41.9335594,36.7892933 42.0666325,36.6975502 42.0666325,36.6975502 C45.0935351,35.3455994 46.866479,32.521726 48.9997441,27.5050912 C51.3070279,29.63333 54.2663702,29.882347 56.8797223,29.63333 C58.3199834,29.2784555 59.786859,29.0415364 61.3069639,28.923581 C61.7061834,28.8580502 62.0531973,28.8187317 62.3336745,28.8187317 C62.5066697,28.8187317 62.6663574,28.8187317 62.8270689,28.844944 C62.8536835,28.8318379 62.8802981,28.844944 62.9069128,28.844944 C68.6669332,29.3046678 68.6669332,36.6975502 71.9333675,36.6975502 C71.9333675,36.6975502 72.0664406,36.7892933 72.2404594,37 C73,35.0169372 73,32.6789999 73,30.6697248 C73,30.5779817 73,30.4862385 72.9866927,30.3813893" id="Fill-7" fill="#C5C8DA"></path>
        <path d="M57.3608769,81.2656822 C55.5742465,80.5286679 52.756001,78.2500655 49.7974067,73.9006579 C49.3814824,68.7630544 49.2226936,64.7391614 49.1735203,63.2088332 C50.1262532,62.7277267 51.6895548,61.6385834 51.6895548,59.6660467 L51.6895548,56.5716105 C52.8010766,57.3076011 54.1226093,57.9995756 57.3608769,57.9995756 C60.5356289,57.9995756 61.8551128,57.357759 63.032199,56.5695632 L63.032199,59.6660467 C63.032199,61.6385834 64.5955006,62.7277267 65.5482335,63.2088332 C65.4990602,64.7381377 65.3402714,68.7589599 64.9243471,73.9006579 C61.9657528,78.2500655 59.1475073,80.5286679 57.3608769,81.2656822 M45.7313884,44.9871796 C45.6432862,44.5531601 45.2796086,44.2286692 44.8380732,44.1897712 C44.832951,44.1897712 44.2828245,44.118117 43.7204048,43.6984284 C42.8783118,43.069919 42.4214097,41.991012 42.361992,40.49344 C42.3609675,40.4698965 42.3589187,40.446353 42.3558453,40.4228095 C42.3486742,40.3572971 42.3486742,40.266194 42.3486742,40.1597364 C42.3486742,38.7737401 42.7369385,38.139089 42.9039229,37.9312919 C42.9100695,37.9231028 42.9162162,37.9149138 42.9223629,37.9067248 C42.9674384,37.8463305 42.9879273,37.8299524 43.0012451,37.8176689 C46.0356482,36.3671839 47.8673542,33.5573171 49.7564289,29.26728 C51.7356548,30.6133546 54.230176,31.1231228 57.3332169,30.8221753 C58.5902097,30.7054814 59.7806137,30.4772117 60.7364199,30.2939818 C61.1339042,30.2182331 61.5088507,30.146579 61.8356484,30.0923265 C62.2064971,30.0309087 62.4964148,30.0001997 62.6982302,30.0001997 C62.8334569,30.0001997 62.949219,30.0001997 63.0281012,30.0124833 C63.0936656,30.0237432 63.1582056,30.0278378 63.22377,30.0257905 C65.9262534,30.2612256 67.1217795,32.3770707 68.2783768,34.4233088 C69.190132,36.0375747 70.1397916,37.6835732 71.8413931,37.9466464 C72.0175975,38.1882233 72.3730796,38.8402761 72.3730796,40.1597364 C72.3730796,43.8028387 70.1285227,44.1621331 69.884705,44.1897712 C69.4431697,44.2276455 69.0784676,44.5521365 68.9903654,44.9871796 C68.1052458,49.3304455 66.1813399,52.3706293 63.2637233,54.0278877 C62.9318035,54.2203303 62.6500814,54.4127729 62.3765548,54.6000974 C62.2812815,54.6656097 62.1860082,54.7300985 62.0784416,54.8017527 C61.2609353,55.363726 60.3348379,55.9994008 57.3608769,55.9994008 C54.3992092,55.9994008 53.5478962,55.4200257 52.4701811,54.6860824 C52.2601701,54.542774 52.042988,54.3953712 51.8042925,54.2469447 C51.703897,54.1752905 51.5819882,54.0903292 51.4313949,54.0125332 C48.5311939,52.3573221 46.6144591,49.3212329 45.7313884,44.9871796 M47.0539456,22.142809 C47.23937,22.0701312 47.3991832,21.9421773 47.5118721,21.7773728 C48.8528693,19.8150723 50.9744929,18.0001748 57.3608769,18.0001748 C59.9281336,18.0001748 62.2874282,18.4526196 64.3721718,19.3452258 C64.4520784,19.3800292 64.5360828,19.4035727 64.6221361,19.4158563 C67.4342349,20.1661777 70.004565,20.2142884 71.3793689,20.1672014 C71.3578555,20.8581522 71.1837001,21.845956 70.4778581,22.6699789 C70.168476,23.0313206 70.1572072,23.5605378 70.4501981,23.9351867 C71.7184598,25.5586653 72.3228818,28.4534935 72.3597618,30.6031183 C72.3597618,30.6389454 72.3628351,30.6747725 72.3669329,30.7105996 C72.3730796,30.7556393 72.3730796,30.8078445 72.3730796,30.8794987 C72.3730796,32.5111663 72.3659085,34.3188985 71.9786686,35.9352117 C71.3445378,35.7028474 70.791338,34.8040995 70.0209561,33.4406232 C68.8059655,31.288951 67.1432928,28.3449886 63.3702655,28.0307339 C63.3180189,28.0245921 63.2678211,28.0204976 63.2176234,28.0204976 C63.0291257,28.000025 62.8549702,28.000025 62.6982302,28.000025 C62.3775793,28.000025 61.9995594,28.0378993 61.5078263,28.1197898 C61.1574664,28.1771131 60.7702266,28.2518382 60.360449,28.3296341 C59.3984961,28.5138877 58.3084876,28.7227084 57.1436948,28.8312133 C54.045776,29.1311371 51.7213126,28.5118404 50.0391755,26.9364725 C49.7994556,26.7122973 49.4654868,26.6191469 49.1448358,26.6887538 C48.8241849,26.7573371 48.5578294,26.9784413 48.4318228,27.2804124 C46.3808859,32.1723445 44.8001688,34.5174829 42.6508852,35.7519817 C42.3496987,34.6177987 42.3486742,33.4406232 42.3486742,29.6265745 C42.3486742,25.9322906 44.7161643,23.0661241 47.0539456,22.142809 M89.9668812,76.7443045 C89.403437,74.6110577 88.7775017,73.1523837 88.0542442,72.2904865 C87.9784353,72.189147 87.8995531,72.1133983 87.829891,72.0550514 C86.7767625,70.996617 84.1060369,69.6771568 80.435454,67.8622592 C78.3363682,66.8242975 75.9658048,65.6501929 73.5143102,64.3368744 L73.4087925,63.9980526 C73.3104459,63.6776561 73.0574082,63.4278902 72.7357328,63.3337162 L66.8697663,61.6058272 C66.8277641,61.5914964 65.0339626,60.9711761 65.0339626,59.6660467 L65.0339626,55.6667208 C65.0339626,55.5387669 65.0042537,55.4190021 64.9612271,55.3064027 C67.8163526,53.3983547 69.831434,50.2271462 70.8108024,46.0292359 C72.3392729,45.5532475 74.3738187,43.9533124 74.3738187,40.1597364 C74.3738187,38.749173 74.05829,37.795149 73.7110035,37.1676633 C74.3656232,35.113236 74.3738187,32.8745553 74.3738187,30.8794987 C74.3738187,30.7822537 74.3738187,30.6635126 74.3594765,30.5212279 C74.3174743,28.438139 73.7909101,25.4481131 72.4683529,23.335339 C73.7714457,21.2798881 73.3073725,19.003333 73.2848347,18.8978991 C73.1772681,18.3952963 72.7060239,18.0564745 72.1948263,18.1127742 C72.1610197,18.1168687 68.7844522,18.4741159 65.0565004,17.4617449 C65.053427,17.4607213 65.0503537,17.4596977 65.0472804,17.4596977 C62.7402324,16.4913428 60.1545357,16 57.3608769,16 C51.5973548,16 48.2863518,17.2795386 46.0315505,20.4036601 C43.1610583,21.685246 40.3469106,25.1870873 40.3469106,29.6265745 C40.3469106,34.408978 40.3489595,35.3496948 41.0087014,37.1819941 C40.659366,37.8053853 40.3469106,38.7542911 40.3469106,40.1597364 C40.3469106,40.2999738 40.3469106,40.4453294 40.3633017,40.6050158 C40.4759905,43.2367708 41.5987812,44.6104835 42.5218053,45.3004107 C43.0227584,45.674036 43.5185893,45.8910457 43.907878,46.0159287 C44.8862221,50.2210044 46.9023279,53.3952838 49.7605267,55.3064027 C49.7175001,55.4190021 49.6877912,55.5387669 49.6877912,55.6667208 L49.6877912,59.6660467 C49.6877912,60.9742469 47.8888675,61.5935436 47.8519875,61.6058272 L41.986021,63.3337162 C41.6643456,63.4278902 41.4113079,63.6776561 41.3129613,63.9980526 L41.208468,64.3358508 C39.9883552,64.9879037 38.7344357,65.6409802 37.4671985,66.2807495 C36.3362123,66.8519355 35.2646438,67.3811527 34.2279065,67.8929682 C29.8770927,70.0436167 27.565947,71.2146504 26.6910718,72.2628484 C24.5530571,74.8024767 23,83.5238119 23,92.9995631 L23,96.998889 C23,97.5516497 23.4487065,97.9989764 24.0008818,97.9989764 C24.5540816,97.9989764 25.0017636,97.5516497 25.0017636,96.998889 L25.0017636,92.9995631 C25.0017636,88.5979502 25.3562212,84.150274 25.9995721,80.4754391 C26.5927252,77.0882445 27.4235493,74.4994819 28.2256889,73.5464816 C28.8731376,72.7705694 31.9054919,71.2719737 35.115075,69.6853458 C36.1559101,69.1714831 37.2305519,68.6402187 38.3697336,68.0649381 C39.0345978,67.7302108 39.6953642,67.3903654 40.3510084,67.0505199 L39.0591845,71.1266181 L37.7243339,75.3664973 C37.6126695,75.7216972 37.7079428,76.1096533 37.9722494,76.3727265 L41.2668613,79.6657471 L39.3060755,81.6260002 C39.0345978,81.8972624 38.9423978,82.300573 39.0694289,82.663962 C39.2405111,83.1522339 43.2829672,94.6568215 44.4282956,97.3858215 C44.5891333,97.7686594 44.9610065,98 45.3523441,98 C45.4803996,98 45.6125529,97.9744092 45.7385595,97.9211804 C46.2487326,97.7082652 46.4884525,97.1217247 46.2743437,96.6119565 C45.2970241,94.2852435 42.0280232,85.037762 41.1664658,82.5943551 L44.7243599,79.039285 C45.1156975,78.6492816 45.1156975,78.0166777 44.7243599,77.6256507 C44.3340467,77.2346237 43.6999159,77.2346237 43.3096027,77.6256507 L42.682643,78.2521128 L39.8162486,75.3879936 L40.9677237,71.7285131 L42.9551451,65.4567266 C43.0094406,65.3533399 43.0411984,65.2458587 43.056565,65.1322356 L43.0668095,65.1005031 L47.1942944,63.8844296 C47.2629322,65.7822413 47.4350388,69.6034554 47.8233031,74.3295592 C47.9902874,76.4945386 48.2074696,78.7495974 48.4666539,81.0271762 C49.1141025,87.0102987 49.9828311,92.4580623 51.046204,97.2169224 C51.1506972,97.6826744 51.5635482,97.9989764 52.0224991,97.9989764 C52.0942102,97.9989764 52.1679702,97.991811 52.2417301,97.9754329 C52.7805877,97.8546444 53.1207031,97.3203091 52.9998187,96.7808556 C51.9518125,92.0946734 51.0964017,86.7216348 50.4561242,80.8060719 C50.3362642,79.7537793 50.2276732,78.7096758 50.1272777,77.6758086 C51.9087858,79.8428352 54.4514559,82.4182905 57.0443237,83.2812114 C57.1467681,83.3160148 57.2543347,83.3323929 57.3608769,83.3323929 C57.4674191,83.3323929 57.5749857,83.3160148 57.6774301,83.2812114 C60.2692735,82.4182905 62.8119435,79.8438588 64.5934517,77.6768322 C64.3650007,80.0496086 64.0955719,82.4735666 63.7882387,84.8402012 C63.1725478,89.4383512 62.4964148,93.3435031 61.7219351,96.779832 C61.6000263,97.3182618 61.9391172,97.8536208 62.4789992,97.9744092 C62.5527592,97.991811 62.6265192,97.9989764 62.6992547,97.9989764 C63.1571812,97.9989764 63.5700321,97.6836981 63.6745254,97.2189696 C64.4623228,93.7253174 65.1487003,89.7628422 65.7725867,85.1012271 C66.2387088,81.5164717 66.6279975,77.7925025 66.8984507,74.3346774 C67.286715,69.604479 67.4588216,65.7832649 67.5274594,63.8844296 L71.6549443,65.1005031 L71.6651888,65.131212 C71.6805554,65.2458587 71.7133376,65.3543635 71.7686576,65.4597975 L74.9055052,75.3879936 L72.0391108,78.2521128 L71.4121511,77.6256507 C71.0218379,77.2346237 70.3877071,77.2346237 69.9973939,77.6256507 C69.6060563,78.0166777 69.6060563,78.6492816 69.9973939,79.039285 L73.5573369,82.5974259 C73.5501658,82.6158513 73.5440191,82.6342767 73.536848,82.6537256 C72.3126374,86.124858 69.3642875,94.4326463 68.4474101,96.6119565 C68.2333013,97.1207011 68.4730212,97.7072416 68.9821699,97.9211804 C69.1092009,97.9744092 69.2403298,98 69.3694097,98 C69.7607473,98 70.1315961,97.769683 70.2924338,97.3868451 C71.1970178,95.2382438 73.8964278,87.650068 75.4238739,83.321133 C75.5754916,82.8953025 75.6574471,82.6486075 75.6574471,82.6486075 C75.7773071,82.289313 75.6830582,81.8931679 75.4156783,81.6260002 L73.453868,79.6657471 L76.7495044,76.3727265 C77.013811,76.1096533 77.1090843,75.7206736 76.9963954,75.36445 L74.3686965,67.0484727 C76.1983535,67.9973785 77.9511773,68.8654175 79.5482855,69.6546369 C82.8295797,71.2770919 85.6642163,72.677419 86.4315249,73.487111 C86.4520137,73.5096309 86.4776248,73.5331744 86.5042604,73.5556943 C86.5042604,73.5567179 86.5042604,73.5567179 86.5042604,73.5567179 C86.8013492,73.9027051 87.3945022,74.8434219 88.0317064,77.2550963 C88.1495175,77.7034466 88.5551973,77.999276 88.9987816,77.999276 C89.082786,77.999276 89.1688393,77.9890397 89.2548926,77.9665198 C89.7886279,77.8252587 90.10723,77.2786398 89.9668812,76.7443045" id="Fill-9" fill="#343852"></path>
        <polygon id="Fill-12" fill="#D20050" points="99.9976366 77 90.6727853 86.3202989 87.9915705 89.0002047 82.0023634 82.7866721 81.1748533 83.6137783 78 86.7870816 87.9915705 97 91.7532595 93.2401474 104 81.0004095"></polygon>
        <path d="M79.4071172,86.7945097 L87.9996116,95.5771083 L102.584321,80.9998372 L99.9973555,78.414191 L88.6990959,89.7066884 C88.5096309,89.8970804 88.2484765,90.0096778 87.9822013,89.9994417 C87.7138779,89.9973944 87.4578441,89.8868442 87.2714515,89.6933814 L81.9889621,84.2139816 L79.4071172,86.7945097 Z M87.9914185,98 L87.9862978,98 C87.7189986,97.9979528 87.4629648,97.8894498 87.2765721,97.6990578 L77.2851091,87.4854484 C76.9020825,87.0944283 76.9051549,86.4669536 77.2933021,86.0800279 L81.2945984,82.0797487 C81.4840634,81.8903804 81.7513627,81.7869955 82.011493,81.7869955 C82.2798165,81.7890427 82.5358503,81.8995929 82.7222429,82.0930557 L88.0047323,87.5724555 L99.2896781,76.2932651 C99.6808978,75.902245 100.314837,75.902245 100.705033,76.2932651 L104.707353,80.2925206 C105.097549,80.6835408 105.097549,81.3161335 104.707353,81.7071537 L88.6990959,97.7072467 C88.5116792,97.8945679 88.2566695,98 87.9914185,98 L87.9914185,98 Z" id="Fill-14" fill="#343852"></path>
    </g>
</svg>