<?xml version="1.0" encoding="UTF-8"?>
<svg width="120px" height="120px" viewBox="0 0 120 120" version="1.1" xmlns="http://www.w3.org/2000/svg" xmlns:xlink="http://www.w3.org/1999/xlink">
    <title>02.Icons/Illustrative/Offres Repertoire</title>
    <g id="02.Icons/Illustrative/Offres-Repertoire" stroke="none" stroke-width="1" fill="none" fill-rule="evenodd">
        <path d="M78.894,49.447 C78.894,67.367 64.367,81.894 46.447,81.894 C28.527,81.894 14,67.367 14,49.447 C14,31.527 28.527,17 46.447,17 C64.367,17 78.894,31.527 78.894,49.447" id="Fill-1" fill="#F2F3F7"></path>
        <path d="M65.3454,24.8887 C49.6394,24.8887 36.9064,29.9397 36.9064,36.1697 C36.9064,42.3997 49.6394,47.4497 65.3454,47.4497 C81.0514,47.4497 93.7844,42.3997 93.7844,36.1697 C93.7844,29.9397 81.0514,24.8887 65.3454,24.8887" id="Fill-3" fill="#EDEEF3"></path>
        <path d="M65.3454,47.45 C51.9194,47.45 40.6744,43.758 37.6894,38.796 L36.9064,38.796 L36.9064,83.007 L37.2884,83.007 C39.5004,88.362 51.2174,92.45 65.3454,92.45 C79.4734,92.45 91.1894,88.362 93.4024,83.007 L93.7844,83.007 L93.7844,38.796 L93.0014,38.796 C90.0164,43.758 78.7714,47.45 65.3454,47.45" id="Fill-5" fill="#1D71B8"></path>
        <path d="M92.8336,51.622 C92.8336,56.611 81.7886,61.953 65.3456,61.953 C48.9016,61.953 37.8566,56.611 37.8566,51.622 L37.8566,40.571 C42.0206,45.192 52.6146,48.4 65.3456,48.4 C78.0756,48.4 88.6696,45.192 92.8336,40.571 L92.8336,51.622 Z M92.8336,66.264 C92.8336,71.253 81.7886,76.594 65.3456,76.594 C48.9016,76.594 37.8566,71.253 37.8566,66.264 L37.8566,56.025 C42.0206,60.645 52.6146,63.853 65.3456,63.853 C78.0756,63.853 88.6696,60.645 92.8336,56.025 L92.8336,66.264 Z M92.8336,81.561 C92.8336,86.551 81.7886,91.892 65.3456,91.892 C48.9016,91.892 37.8566,86.551 37.8566,81.561 L37.8566,70.666 C42.0206,75.287 52.6146,78.494 65.3456,78.494 C78.0756,78.494 88.6696,75.287 92.8336,70.666 L92.8336,81.561 Z M65.3456,25.839 C81.7886,25.839 92.8336,31.18 92.8336,36.169 C92.8336,41.158 81.7886,46.5 65.3456,46.5 C48.9016,46.5 37.8566,41.158 37.8566,36.169 C37.8566,31.18 48.9016,25.839 65.3456,25.839 L65.3456,25.839 Z M65.3456,23.938 C48.8656,23.938 35.9566,29.31 35.9566,36.169 L35.9566,81.561 C35.9566,88.42 48.8656,93.792 65.3456,93.792 C81.8246,93.792 94.7336,88.42 94.7336,81.561 L94.7336,36.169 C94.7336,29.31 81.8246,23.938 65.3456,23.938 L65.3456,23.938 Z" id="Fill-7" fill="#343852"></path>
        <path d="M82.7382,53.0934 C82.7382,54.2684 81.7852,55.2214 80.6102,55.2214 C79.4352,55.2214 78.4822,54.2684 78.4822,53.0934 C78.4822,51.9184 79.4352,50.9654 80.6102,50.9654 C81.7852,50.9654 82.7382,51.9184 82.7382,53.0934" id="Fill-9" fill="#FFFFFF"></path>
        <path d="M82.7382,68.3915 C82.7382,69.5665 81.7852,70.5195 80.6102,70.5195 C79.4352,70.5195 78.4822,69.5665 78.4822,68.3915 C78.4822,67.2165 79.4352,66.2635 80.6102,66.2635 C81.7852,66.2635 82.7382,67.2165 82.7382,68.3915" id="Fill-11" fill="#FFFFFF"></path>
        <path d="M82.7382,83.6896 C82.7382,84.8646 81.7852,85.8176 80.6102,85.8176 C79.4352,85.8176 78.4822,84.8646 78.4822,83.6896 C78.4822,82.5146 79.4352,81.5616 80.6102,81.5616 C81.7852,81.5616 82.7382,82.5146 82.7382,83.6896" id="Fill-13" fill="#FFFFFF"></path>
        <path d="M28.8241,68.2561 C31.9921,64.6701 36.6291,62.4101 41.7841,62.4101 C51.3311,62.4101 59.0641,70.1421 59.0641,79.6901 C59.0641,89.2371 51.3311,96.9701 41.7841,96.9701 C36.6291,96.9701 31.9921,94.7091 28.8241,91.1231 C26.1311,88.0851 24.5041,84.0811 24.5041,79.6901 C24.5041,75.2981 26.1311,71.2941 28.8241,68.2561" id="Fill-15" fill="#FFFFFF"></path>
        <path d="M41.7838,63.3594 C37.1028,63.3594 32.6388,65.3734 29.5358,68.8844 C26.9038,71.8554 25.4548,75.6914 25.4548,79.6894 C25.4548,83.6874 26.9038,87.5234 29.5348,90.4934 C29.5348,90.4934 29.5358,90.4934 29.5358,90.4944 C32.6388,94.0054 37.1028,96.0194 41.7838,96.0194 C50.7888,96.0194 58.1138,88.6944 58.1138,79.6894 C58.1138,70.6844 50.7888,63.3594 41.7838,63.3594 M41.7838,97.9204 C36.5588,97.9204 31.5758,95.6724 28.1118,91.7524 C25.1738,88.4354 23.5548,84.1514 23.5548,79.6894 C23.5548,75.2264 25.1738,70.9424 28.1128,67.6264 C31.5758,63.7074 36.5588,61.4594 41.7838,61.4594 C51.8358,61.4594 60.0138,69.6374 60.0138,79.6894 C60.0138,89.7414 51.8358,97.9204 41.7838,97.9204" id="Fill-17" fill="#343852"></path>
        <polygon id="Fill-20" fill="#D20050" points="44.0991 77.3745 44.0991 71.5865 39.4691 71.5865 39.4691 77.3745 34.8391 77.3745 33.6811 77.3745 33.6811 82.0045 34.8391 82.0045 39.4691 82.0045 39.4691 87.7925 44.0991 87.7925 44.0991 82.0045 49.8871 82.0045 49.8871 77.3745"></polygon>
        <path d="M40.4195,86.8418 L43.1485,86.8418 L43.1485,82.0048 C43.1485,81.4808 43.5745,81.0548 44.0995,81.0548 L48.9365,81.0548 L48.9365,78.3248 L44.0995,78.3248 C43.5745,78.3248 43.1485,77.8998 43.1485,77.3748 L43.1485,72.5368 L40.4195,72.5368 L40.4195,77.3748 C40.4195,77.8998 39.9935,78.3248 39.4695,78.3248 L34.6315,78.3248 L34.6315,81.0548 L39.4695,81.0548 C39.9935,81.0548 40.4195,81.4808 40.4195,82.0048 L40.4195,86.8418 Z M44.0995,88.7418 L39.4695,88.7418 C38.9445,88.7418 38.5195,88.3168 38.5195,87.7918 L38.5195,82.9548 L33.6815,82.9548 C33.1565,82.9548 32.7315,82.5298 32.7315,82.0048 L32.7315,77.3748 C32.7315,76.8508 33.1565,76.4248 33.6815,76.4248 L38.5195,76.4248 L38.5195,71.5868 C38.5195,71.0628 38.9445,70.6368 39.4695,70.6368 L44.0995,70.6368 C44.6235,70.6368 45.0495,71.0628 45.0495,71.5868 L45.0495,76.4248 L49.8865,76.4248 C50.4105,76.4248 50.8365,76.8508 50.8365,77.3748 L50.8365,82.0048 C50.8365,82.5298 50.4105,82.9548 49.8865,82.9548 L45.0495,82.9548 L45.0495,87.7918 C45.0495,88.3168 44.6235,88.7418 44.0995,88.7418 L44.0995,88.7418 Z" id="Fill-22" fill="#343852"></path>
    </g>
</svg>