<?xml version="1.0" encoding="UTF-8"?>
<svg width="120px" height="120px" viewBox="0 0 120 120" version="1.1" xmlns="http://www.w3.org/2000/svg" xmlns:xlink="http://www.w3.org/1999/xlink">
    <title>02.Icons/Illustrative/Offres Authentification</title>
    <g id="02.Icons/Illustrative/Offres-Authentification" stroke="none" stroke-width="1" fill="none" fill-rule="evenodd">
        <path d="M91.6981,58.085 C91.6981,40.074 77.0961,25.472 59.0851,25.472 C41.0741,25.472 26.4731,40.074 26.4731,58.085 C26.4731,76.096 41.0741,90.698 59.0851,90.698 C77.0961,90.698 91.6981,76.096 91.6981,58.085" id="Fill-1" fill="#F2F3F7"></path>
        <path d="M69.5214,69.2905 L69.5214,67.8945 L69.5214,63.9295 C72.2474,61.2815 73.7484,57.6165 74.4924,53.8835 C74.4924,53.8835 78.6534,53.5195 78.6534,47.6485 C78.6534,45.6795 78.0924,44.6095 77.7124,44.1135 C77.5054,43.8395 77.3484,43.7355 77.3484,43.7355 C74.6224,42.5485 74.0084,38.1125 71.0874,35.9605 C69.6384,35.2565 68.1254,34.2645 66.0904,34.2645 C63.5724,34.2645 60.0514,34.6035 56.4764,34.6035 C54.3894,34.6035 53.4364,34.0565 51.2584,31.9945 C51.0234,35.2435 43.7574,43.7355 40.8224,43.7355 C40.8224,43.7355 40.6654,43.8395 40.4584,44.1135 C40.0784,44.6095 39.5174,45.6795 39.5174,47.6485 C39.5174,53.5195 43.6784,53.8835 43.6784,53.8835 C44.4224,57.6165 45.9234,61.2815 48.6494,63.9295 L48.6494,67.8945 L48.6494,69.2905 C48.6494,72.9565 44.8004,75.6955 40.2874,77.6395 L40.4584,78.0305 C45.1264,83.4435 51.8974,86.7845 59.0854,86.7845 C66.2724,86.7845 73.0294,83.4435 77.7124,78.0305 L77.8834,77.6395 C73.3704,75.6955 69.5214,72.9565 69.5214,69.2905" id="Fill-3" fill="#FFFFFF"></path>
        <path d="M40.458,44.1138 C39.518,41.6218 39.518,40.9698 39.518,34.6038 C39.518,29.4648 42.779,25.4728 46.04,24.1678 C48.076,21.1538 51.179,18.9498 59.085,18.9498 C62.294,18.9498 65.399,19.5228 68.138,20.7108 L68.165,20.7108 C73.03,22.0688 77.349,21.5588 77.349,21.5588 C77.349,21.5588 77.963,24.4938 76.044,26.7768 C77.844,29.1388 78.653,33.1818 78.653,36.1558 C78.653,38.6738 78.653,41.6218 77.713,44.1138 C77.505,43.8398 77.349,43.7358 77.349,43.7358 C74.622,42.5478 74.008,38.1128 71.087,35.9608 C69.639,35.2558 68.125,34.2648 66.091,34.2648 C63.572,34.2648 60.051,34.6038 56.476,34.6038 C54.39,34.6038 53.437,34.0558 51.258,31.9948 C51.024,35.2438 43.757,43.7358 40.822,43.7358 C40.822,43.7358 40.666,43.8398 40.458,44.1138" id="Fill-5" fill="#C5C8DA"></path>
        <path d="M19.9501983,97.2202 C19.9501983,90.0712 19.9122,83.3012 31.1562,80.5882 C33.8562,79.9352 37.2222,78.9702 40.2872,77.6402 L40.4582,78.0312 C45.1272,83.4442 51.8982,86.7842 59.0852,86.7842 C66.2732,86.7842 73.0302,83.4442 77.7132,78.0312 L77.8832,77.6402 C80.9482,78.9702 84.3142,79.9352 87.0152,80.5882 C98.2592,83.3012 98.2202009,90.0712 98.2202009,97.2202 L19.9501983,97.2202 Z" id="Fill-7" fill="#1D71B8"></path>
        <path d="M99.1709,97.148 C99.1709,97.672 98.7449,98.134 98.2209,98.134 C97.6959,98.134 97.2709,97.745 97.2709,97.22 C97.2709,90.115 97.2709,84.041 86.7919,81.511 C83.5709,80.733 80.7249,79.826 78.2769,78.822 C73.2929,84.486 66.3139,87.734 59.0849,87.734 C51.8429,87.734 44.8629,84.486 39.8939,78.822 C37.4459,79.826 34.5999,80.733 31.3779,81.511 C20.8999,84.041 20.8999,90.115 20.8999,97.148 C20.8999,97.148 20.9289,98.01 19.9499,98.01 C18.9999,98.01 18.9999,97.148 18.9999,97.148 C18.9999,89.968 18.9999,82.544 30.9329,79.664 C34.3819,78.831 37.4019,77.857 39.9089,76.769 C43.4639,75.237 47.6989,72.698 47.6989,69.291 L47.6989,67.894 C47.6989,67.37 48.1249,66.944 48.6499,66.944 C49.1739,66.944 49.5999,67.37 49.5999,67.894 L49.5999,69.291 C49.5999,72.634 46.9559,75.57 41.7389,78.028 C46.3159,82.995 52.5889,85.834 59.0849,85.834 C65.5679,85.834 71.8419,82.995 76.4309,78.027 C71.2149,75.57 68.5709,72.634 68.5709,69.291 L68.5709,67.894 C68.5709,67.37 68.9969,66.944 69.5219,66.944 C70.0459,66.944 70.4719,67.37 70.4719,67.894 L70.4719,69.291 C70.4719,72.698 74.7069,75.237 78.2599,76.768 C80.7689,77.856 83.7879,78.831 87.2369,79.664 C99.1709,82.544 99.1709,89.968 99.1709,97.148 M46.3929,25.049 C46.5689,24.979 46.7209,24.857 46.8269,24.7 C48.5119,22.207 51.1619,19.9 59.0849,19.9 C62.2229,19.9 65.2219,20.481 67.7599,21.582 C67.8239,21.61 67.8999,21.63 67.9759,21.644 C71.6089,22.647 74.9089,22.653 76.4889,22.576 C76.5029,23.475 76.3389,24.949 75.3169,26.166 C75.0299,26.506 75.0189,27 75.2879,27.353 C76.9469,29.53 77.7029,33.442 77.7029,36.156 C77.7029,38.213 77.6949,40.494 77.1939,42.544 C76.3479,41.918 75.7129,40.801 74.9999,39.532 C74.1599,38.038 73.2079,36.343 71.6499,35.196 C71.6039,35.162 71.5549,35.131 71.5019,35.106 C71.2669,34.992 71.0279,34.869 70.7869,34.744 C69.4869,34.075 68.0149,33.315 66.0909,33.315 C64.9169,33.315 63.5269,33.387 62.0579,33.463 C60.3409,33.553 58.3949,33.654 56.4769,33.654 C54.7249,33.654 53.9989,33.281 51.9119,31.305 C51.6449,31.051 51.2539,30.978 50.9149,31.109 C50.5719,31.242 50.3379,31.56 50.3119,31.926 C50.1109,34.708 43.4069,42.426 40.9859,42.754 C40.4699,41.128 40.4679,39.901 40.4679,34.604 C40.4679,29.888 43.4479,26.228 46.3929,25.049 M74.4089,52.937 C73.9889,52.974 73.6429,53.284 73.5609,53.698 C72.7429,57.798 71.1609,61.012 68.8559,63.252 C68.1139,63.98 67.3239,64.581 66.4359,65.089 C65.9869,65.35 65.5989,65.62 65.2179,65.885 C63.9209,66.79 62.7999,67.571 59.0849,67.571 C55.3709,67.571 54.2499,66.79 52.9529,65.885 C52.5719,65.62 52.1839,65.35 51.7319,65.087 C50.8469,64.581 50.0569,63.98 49.3119,63.249 C47.0099,61.012 45.4279,57.798 44.6099,53.698 C44.5289,53.291 44.1839,52.983 43.7709,52.938 C43.4329,52.901 40.4679,52.441 40.4679,47.649 C40.4679,45.92 40.9339,45.054 41.2149,44.688 C41.2379,44.657 41.2449,44.651 41.2619,44.63 C44.4929,44.074 50.1289,37.722 51.7609,33.729 C53.3509,35.077 54.4929,35.554 56.4769,35.554 C58.4439,35.554 60.4159,35.452 62.1549,35.361 C63.6009,35.286 64.9659,35.215 66.0909,35.215 C67.5539,35.215 68.7549,35.835 69.9159,36.433 C70.1439,36.55 70.3669,36.666 70.5889,36.775 C71.7809,37.682 72.5749,39.095 73.3429,40.462 C74.2499,42.076 75.1929,43.735 76.8079,44.52 C76.8289,44.539 76.8779,44.585 76.9589,44.692 C77.2369,45.054 77.7029,45.92 77.7029,47.649 C77.7029,52.441 74.7379,52.901 74.4089,52.937 M42.8729,54.669 C43.8019,58.872 45.5209,62.214 47.9829,64.608 C48.8299,65.44 49.7739,66.156 50.7819,66.734 C51.1819,66.965 51.5269,67.208 51.8659,67.444 C53.2959,68.441 54.7739,69.471 59.0849,69.471 C63.3979,69.471 64.8749,68.44 66.3049,67.444 C66.6439,67.207 66.9889,66.965 67.3849,66.736 C68.3979,66.156 69.3409,65.44 70.1839,64.612 C72.6499,62.214 74.3689,58.872 75.2979,54.669 C76.6899,54.245 79.6039,52.747 79.6039,47.649 C79.6039,45.869 79.1899,44.709 78.7569,43.975 C79.5929,41.441 79.6039,38.644 79.6039,36.156 C79.6039,33.264 78.8599,29.375 77.2149,26.796 C78.8679,24.311 78.3059,21.493 78.2779,21.365 C78.1779,20.883 77.7339,20.555 77.2369,20.616 C77.1949,20.621 73.0509,21.088 68.4199,19.795 C68.4149,19.794 68.4099,19.793 68.4049,19.792 C65.6189,18.602 62.4829,18 59.0849,18 C52.1069,18 48.1179,19.569 45.4159,23.4 C41.9689,24.924 38.5669,29.186 38.5669,34.604 C38.5669,40.599 38.5679,41.679 39.4019,43.996 C38.9729,44.733 38.5669,45.888 38.5669,47.649 C38.5669,52.747 41.4819,54.245 42.8729,54.669" id="Fill-9" fill="#343852"></path>
        <path d="M103.1831,87.3956 C103.1831,90.7436 99.6771,93.4686 96.3291,93.4686 L95.6161,93.4686 C92.2671,93.4686 88.8701,90.7436 88.8701,87.3956 L88.8701,69.6296 C88.8701,66.2816 92.2671,63.1216 95.6161,63.1216 L96.3291,63.1216 C99.6771,63.1216 103.1831,66.2816 103.1831,69.6296 L103.1831,87.3956 Z M95.6661,59.4486 C90.1321,59.4486 85.5231,64.2566 85.5231,69.7916 L85.5231,85.8326 C85.5231,91.3676 90.4381,95.8706 95.9721,95.8706 C101.5071,95.8706 106.6241,91.3676 106.6241,85.8326 L106.6241,69.7916 C106.6241,64.2566 101.2011,59.4486 95.6661,59.4486 L95.6661,59.4486 Z" id="Fill-12" fill="#FFFFFF"></path>
        <path d="M111.3981,80.1946 L111.3981,98.6056 C111.3981,100.2936 110.0171,101.6746 108.3291,101.6746 L83.7811,101.6746 C82.0941,101.6746 80.7131,100.2936 80.7131,98.6056 L80.7131,95.5376 L80.7131,80.1946 C80.7131,78.5066 82.0941,77.1256 83.7811,77.1256 L88.3841,77.1256 L96.0551,77.1256 L103.7271,77.1256 L108.3291,77.1256 C110.0171,77.1256 111.3981,78.5066 111.3981,80.1946" id="Fill-14" fill="#D20050"></path>
        <path d="M96.9449,95.4432 L95.1659,95.4432 C94.0719,95.4432 93.1819,94.5532 93.1819,93.4592 L93.1869,93.3522 L93.6129,89.8592 C92.5909,89.0922 91.9929,87.9142 91.9929,86.6292 C91.9929,84.3892 93.8149,82.5672 96.0549,82.5672 C98.2949,82.5672 100.1179,84.3892 100.1179,86.6292 C100.1179,87.9152 99.5189,89.0942 98.4949,89.8612 L98.9289,93.4592 C98.9289,94.5532 98.0389,95.4432 96.9449,95.4432" id="Fill-16" fill="#FFFFFF"></path>
        <path d="M110.4482,98.606 C110.4482,99.774 109.4982,100.724 108.3292,100.724 L83.7812,100.724 C82.6132,100.724 81.6632,99.774 81.6632,98.606 L81.6632,80.195 C81.6632,79.027 82.6132,78.077 83.7812,78.077 L108.3292,78.077 C109.4982,78.077 110.4482,79.027 110.4482,80.195 L110.4482,98.606 Z M102.0052,76.176 L89.9402,76.176 L89.9402,69.986 C89.9402,66.66 92.6462,63.954 95.9722,63.954 C99.2992,63.954 102.0052,66.66 102.0052,69.986 L102.0052,76.176 Z M86.3312,69.792 C86.3312,64.476 90.6562,60.151 95.9722,60.151 C101.2882,60.151 105.6132,64.476 105.6132,69.792 L105.6132,76.176 L103.9052,76.176 L103.9052,69.986 C103.9052,65.624 100.3352,62.054 95.9722,62.054 C91.6092,62.054 88.0402,65.624 88.0402,69.986 L88.0402,76.176 L86.3312,76.176 L86.3312,69.792 Z M108.3292,76.176 L107.5132,76.176 L107.5132,69.792 C107.5132,63.444 102.3202,58.251 95.9722,58.251 C89.6252,58.251 84.4312,63.444 84.4312,69.792 L84.4312,76.176 L83.7812,76.176 C81.5652,76.176 79.7622,77.979 79.7622,80.195 L79.7622,98.606 C79.7622,100.822 81.5652,102.625 83.7812,102.625 L108.3292,102.625 C110.5452,102.625 112.3482,100.822 112.3482,98.606 L112.3482,80.195 C112.3482,77.979 110.5452,76.176 108.3292,76.176 L108.3292,76.176 Z M96.0542,84.185 C94.7072,84.185 93.6112,85.282 93.6112,86.629 C93.6112,87.488 94.0602,88.269 94.8142,88.719 L95.3662,89.049 L95.2502,89.798 L94.7972,93.51 C94.8012,93.661 94.9652,93.825 95.1662,93.825 L96.9442,93.825 C97.1332,93.825 97.2892,93.682 97.3082,93.5 L96.8602,89.797 L97.7912,89.576 L96.8442,89.667 L96.7572,89.043 L97.2972,88.719 C98.0512,88.269 98.5002,87.488 98.5002,86.629 C98.5002,85.282 97.4032,84.185 96.0542,84.185 L96.0542,84.185 Z M96.9442,95.725 L95.1662,95.725 C93.9172,95.725 92.9002,94.709 92.9002,93.46 L92.9042,93.352 L93.3132,89.983 C92.3002,89.163 91.7112,87.949 91.7112,86.629 C91.7112,84.234 93.6592,82.285 96.0542,82.285 C98.4512,82.285 100.4002,84.234 100.4002,86.629 C100.4002,87.951 99.8092,89.167 98.7932,89.987 L99.2112,93.46 C99.2112,94.709 98.1942,95.725 96.9442,95.725 L96.9442,95.725 Z" id="Fill-18" fill="#343852"></path>
    </g>
</svg>