<svg xmlns="http://www.w3.org/2000/svg" width="32" height="32"><path d="m22.913 15.151.101.088.055.046.09.06.142.076.055.024.088.031.153.039.06.009.085.009.068.005.107-.005h.008l.032.002.033-.006.129-.017.09-.024.143-.049.055-.024.09-.046c.071-.044.106-.066.139-.091.069-.054.11-.09.148-.128l4.153-4.153.107-.121a1.329 1.329 0 0 0-.107-1.748l-.121-.107a1.327 1.327 0 0 0-.814-.28 1.31 1.31 0 0 0-.934.387l-1.896 1.895V4.27l-.008-.151a1.33 1.33 0 0 0-1.313-1.172h-.009l-.14.008a1.329 1.329 0 0 0-1.173 1.315v6.753l-1.91-1.91-.121-.107a1.327 1.327 0 0 0-1.749.107 1.319 1.319 0 0 0 0 1.869l4.169 4.169zm8.918 1.31-3.243 10.167a3.473 3.473 0 0 1-3.317 2.422H3.815c-.039 0-.074-.013-.113-.013v.014c-.117-.008-.225-.038-.339-.054a3.445 3.445 0 0 1-1.225-.387 3.934 3.934 0 0 1-2.139-3.49V6.885a3.943 3.943 0 0 1 3.939-3.939h6.512c.447 0 .861.222 1.11.594l2.208 3.315h4.433a3.52 3.52 0 0 0-1.017.698 3.492 3.492 0 0 0-.981 1.969h-3.148c-.449 0-.863-.222-1.11-.595L9.737 5.615H3.938c-.701 0-1.271.57-1.271 1.271v10.832l1.076-3.373a3.473 3.473 0 0 1 3.318-2.424h9.638c.139.222.296.432.487.622l2.055 2.055H7.061a.8.8 0 0 0-.765.561L3.05 25.325a.794.794 0 0 0 .118.72.84.84 0 0 0 .22.208c.008.003.017.005.025.009a.771.771 0 0 0 .402.112h21.456c.35 0 .657-.225.767-.561l3.241-10.166a.794.794 0 0 0-.115-.72.787.787 0 0 0-.647-.329h-.065l2.038-2.038c.312.217.603.469.836.789.663.907.846 2.041.504 3.112z"/></svg>