<svg xmlns="http://www.w3.org/2000/svg" width="32" height="32"><path d="M26.145 25.326V11.781H5.962v13.545c0 .711.576 1.287 1.287 1.287h17.609c.709 0 1.287-.576 1.287-1.287zM3.844 8.637c0 .344.289.635.633.635h23.057a.643.643 0 0 0 .633-.635V5.809a.642.642 0 0 0-.633-.633H4.477a.642.642 0 0 0-.633.633v2.828zm26.833-2.828v2.828a3.143 3.143 0 0 1-1.96 2.909v13.78a3.864 3.864 0 0 1-3.859 3.859H7.249a3.863 3.863 0 0 1-3.859-3.859V11.575a3.14 3.14 0 0 1-2.057-2.939V5.808a3.147 3.147 0 0 1 3.144-3.143h23.057a3.146 3.146 0 0 1 3.143 3.143zM19.394 15.53c0 .693-.561 1.255-1.255 1.255h-4.103a1.255 1.255 0 1 1 0-2.511h4.103c.693 0 1.255.563 1.255 1.256z"/></svg>