<svg xmlns="http://www.w3.org/2000/svg" width="32" height="32">
  <path d="M16 0c.982 0 1.778.796 1.778 1.778v24.151l7.632-7.63a1.779 1.779 0 0 1 2.347-.148l.167.148c.694.694.694 1.82 0 2.514L17.257 31.48a1.668 1.668 0 0 1-.332.26 1.382 1.382 0 0 1-.173.093l-.092.04a1.914 1.914 0 0 1-.303.091c-.031.006-.062.012-.093.016-.086.013-.174.02-.264.02l.151-.006c-.031.003-.062.004-.092.005L16 32l-.059-.001a1.583 1.583 0 0 1-.094-.006c-.039-.003-.075-.008-.112-.013l-.092-.016a2.175 2.175 0 0 1-.198-.052 1.474 1.474 0 0 1-.198-.078c-.037-.017-.073-.036-.109-.055a2.03 2.03 0 0 1-.197-.127 1.79 1.79 0 0 1-.199-.172l.161.142a1.97 1.97 0 0 1-.161-.142L4.075 20.813a1.778 1.778 0 0 1 2.514-2.514l7.632 7.63V1.778c0-.912.686-1.663 1.57-1.766z"/>
</svg>