<svg xmlns="http://www.w3.org/2000/svg" width="32" height="32" viewBox="0 0 32 32"><path d="M24 6.667h.025c.032.001.063.003.093.005.028.003.053.005.08.009.023.004.045.008.069.012.029.007.057.013.087.021.02.005.041.012.061.019.027.008.053.017.079.028.024.009.047.02.069.031.028.012.055.027.081.041.016.009.033.019.049.028.033.021.067.043.099.067.052.039.103.081.149.129l-.12-.107c.084.067.16.143.227.227.008.009.015.019.023.029.024.032.045.065.067.099.009.016.019.033.028.049.015.027.029.053.041.081.011.023.021.045.031.069.011.025.02.052.028.079.007.02.013.041.019.061.008.029.015.057.021.087l.012.071c.009.064.015.129.015.197l-.005-.115c.003.024.004.048.004.072l.001.043v12c0 .736-.597 1.333-1.333 1.333s-1.333-.597-1.333-1.333v-8.781L8.943 24.942c-.48.481-1.237.517-1.76.111l-.125-.111c-.521-.52-.521-1.365 0-1.885L20.779 9.333H12c-.684 0-1.248-.515-1.324-1.177L10.667 8c0-.736.597-1.333 1.333-1.333h12z"/></svg>