<svg xmlns="http://www.w3.org/2000/svg" width="32" height="32" viewBox="0 0 32 32">
    <path d="M5.064 3.131c-0.878 0-1.594 0.714-1.594 1.594v15.573c0 0.877 0.716 1.591 1.594 1.591h4.428c0.864 0 1.566 0.701 1.566 1.566v3.396l4.904-4.544c0.291-0.269 0.67-0.418 1.065-0.418h9.911c0.878 0 1.592-0.714 1.592-1.591v-15.573c0-0.88-0.714-1.594-1.592-1.594h-21.873zM9.492 32c-0.213 0-0.426-0.042-0.628-0.132-0.57-0.249-0.938-0.811-0.938-1.434v-5.414h-2.862c-2.605 0-4.725-2.118-4.725-4.722v-15.573c0-2.605 2.12-4.725 4.725-4.725h21.873c2.604 0 4.724 2.12 4.724 4.725v15.573c0 2.604-2.12 4.722-4.724 4.722h-9.297l-7.085 6.563c-0.294 0.274-0.676 0.416-1.063 0.416v0z"/>
</svg>