<svg xmlns="http://www.w3.org/2000/svg" width="32" height="32">
  <path d="M14.4 4.8a1.6 1.6 0 1 1 0 3.2H4.8a1.6 1.6 0 0 0-1.6 1.6v17.6a1.6 1.6 0 0 0 1.6 1.6h17.6a1.6 1.6 0 0 0 1.6-1.6v-9.6a1.6 1.6 0 1 1 3.2 0v9.6a4.8 4.8 0 0 1-4.8 4.8H4.8A4.8 4.8 0 0 1 0 27.2V9.6a4.8 4.8 0 0 1 4.8-4.8zm16-4.8h.031a2.1 2.1 0 0 1 .112.006l.096.011a1.325 1.325 0 0 1 .187.04 1.598 1.598 0 0 1 .349.142l.058.034a1.529 1.529 0 0 1 .298.236l-.145-.128a1.603 1.603 0 0 1 .379.426l.034.059a2.242 2.242 0 0 1 .086.181 1.82 1.82 0 0 1 .057.168c.01.034.018.069.025.104l.015.084c.012.077.018.157.018.238l-.006-.138.005.086.001.052v9.6a1.6 1.6 0 1 1-3.2 0V5.463L13.931 20.332a1.6 1.6 0 0 1-2.112.133l-.151-.133a1.6 1.6 0 0 1 0-2.263L26.534 3.2H20.8a1.6 1.6 0 0 1-1.589-1.413L19.2 1.6A1.6 1.6 0 0 1 20.8 0z"/>
</svg>