<svg xmlns="http://www.w3.org/2000/svg" width="32" height="32">
  <path d="M8 1.6v4.8A1.6 1.6 0 0 1 6.4 8H1.6a1.6 1.6 0 1 0 0 3.2h4.8a4.8 4.8 0 0 0 4.8-4.8V1.6a1.6 1.6 0 1 0-3.2 0zM30.4 8h-4.8A1.6 1.6 0 0 1 24 6.4V1.6a1.6 1.6 0 1 0-3.2 0v4.8a4.8 4.8 0 0 0 4.8 4.8h4.8a1.6 1.6 0 1 0 0-3.2zM24 30.4v-4.8a1.6 1.6 0 0 1 1.6-1.6h4.8a1.6 1.6 0 1 0 0-3.2h-4.8a4.8 4.8 0 0 0-4.8 4.8v4.8a1.6 1.6 0 1 0 3.2 0zM1.6 24h4.8A1.6 1.6 0 0 1 8 25.6v4.8a1.6 1.6 0 1 0 3.2 0v-4.8a4.8 4.8 0 0 0-4.8-4.8H1.6a1.6 1.6 0 1 0 0 3.2z"/>
</svg>