<svg xmlns="http://www.w3.org/2000/svg" width="32" height="32">
<path d="M22.4 0c0.424 0 0.831 0.169 1.131 0.469l8 8c0.3 0.3 0.469 0.707 0.469 1.131v17.6c0 2.651-2.149 4.8-4.8 4.8h-22.4c-2.651 0-4.8-2.149-4.8-4.8v-22.4c0-2.651 2.149-4.8 4.8-4.8h17.6zM21.737 3.2h-12.137v4.8h11.2c0.884 0 1.6 0.716 1.6 1.6s-0.716 1.6-1.6 1.6v0h-12.8c-0.884 0-1.6-0.716-1.6-1.6v0-6.4h-1.6c-0.884 0-1.6 0.716-1.6 1.6v22.4c0 0.884 0.716 1.6 1.6 1.6h1.6v-11.2c0-0.821 0.618-1.497 1.413-1.589l0.187-0.011h16c0.884 0 1.6 0.716 1.6 1.6v0 11.2h1.6c0.884 0 1.6-0.716 1.6-1.6v-16.937l-7.063-7.063zM22.4 19.2h-12.8v9.6h12.8v-9.6z"></path>
</svg>
