<?xml version="1.0" encoding="utf-8"?><svg xmlns="http://www.w3.org/2000/svg" width="32" height="32" viewBox="0 0 32 32"><path d="M11.187 4.076a1.778 1.778 0 012.514 2.514l-7.632 7.632h24.153c.912 0 1.663.686 1.766 1.57l.012.207c0 .982-.796 1.778-1.778 1.778H6.069l7.632 7.632c.641.641.69 1.649.148 2.347l-.148.167a1.778 1.778 0 01-2.514 0L.52 17.256l-.13-.145-.012-.015a1.467 1.467 0 01-.156-.236 1.82 1.82 0 01-.055-.108l-.04-.092a1.914 1.914 0 01-.091-.303c-.006-.031-.012-.062-.016-.093A1.764 1.764 0 010 16l.007.159A1.717 1.717 0 010 16.035v-.068a1.778 1.778 0 01.02-.231l.016-.092a1.507 1.507 0 01.053-.198 1.474 1.474 0 01.078-.198c.017-.037.036-.073.055-.109l.038-.065a1.79 1.79 0 01.261-.331l-.142.161a1.97 1.97 0 01.142-.161z"/></svg>