<?xml version="1.0" encoding="utf-8"?><svg xmlns="http://www.w3.org/2000/svg" width="32" height="32" viewBox="0 0 32 32"><path d="M24 6.667h.025l.093.005.08.009.069.012.087.021c.02.005.041.012.061.019a.741.741 0 01.148.059c.028.012.055.027.081.041l.049.028a1.208 1.208 0 01.248.196l-.12-.107c.084.067.16.143.227.227l.023.029c.024.032.045.065.067.099l.028.049a1.443 1.443 0 01.1.229l.019.061c.008.029.015.057.021.087l.012.071c.009.064.015.129.015.197l-.005-.115a.58.58 0 01.004.072l.001.043v12a1.333 1.333 0 01-2.666 0v-8.781L8.943 24.942a1.334 1.334 0 01-1.76.111l-.125-.111a1.332 1.332 0 010-1.885L20.779 9.333H12a1.332 1.332 0 01-1.324-1.177L10.667 8c0-.736.597-1.333 1.333-1.333h12z"/></svg>