<?xml version="1.0" encoding="utf-8"?><svg xmlns="http://www.w3.org/2000/svg" width="32" height="32" viewBox="0 0 32 32"><path d="M24.889 5.925c-.655 0-1.186.531-1.186 1.186v14.814c0 4.248-3.455 7.705-7.703 7.705s-7.705-3.457-7.705-7.705V7.111c0-2.614 2.127-4.741 4.741-4.741s4.741 2.127 4.741 4.741v14.814a1.78 1.78 0 01-3.556 0V7.111a1.186 1.186 0 00-2.372 0v14.814c0 2.288 1.862 4.149 4.149 4.149s4.148-1.861 4.148-4.149V7.111A7.118 7.118 0 0013.035 0a7.118 7.118 0 00-7.111 7.111v14.814C5.924 27.481 10.443 32 15.999 32c5.554 0 10.075-4.519 10.075-10.075V7.111c0-.655-.531-1.186-1.186-1.186z"/></svg>