<?xml version="1.0" encoding="utf-8"?><svg xmlns="http://www.w3.org/2000/svg" width="32" height="32" viewBox="0 0 32 32"><path d="M16 0c8.837 0 16 7.163 16 16s-7.163 16-16 16S0 24.837 0 16 7.163 0 16 0zm0 2.909C8.77 2.909 2.909 8.77 2.909 16S8.77 29.091 16 29.091c7.23 0 13.091-5.861 13.091-13.091S23.23 2.909 16 2.909zm0 5.818c.803 0 1.455.651 1.455 1.455v4.364h4.364c.746 0 1.361.562 1.445 1.285l.01.17c0 .803-.651 1.455-1.455 1.455h-4.364v4.364c0 .746-.561 1.361-1.285 1.445l-.17.01a1.455 1.455 0 01-1.455-1.455v-4.364h-4.364a1.455 1.455 0 01-1.445-1.285l-.01-.17c0-.803.651-1.455 1.455-1.455h4.364v-4.364c0-.746.562-1.361 1.285-1.445z"/></svg>