<?xml version="1.0" encoding="utf-8"?><svg xmlns="http://www.w3.org/2000/svg" width="32" height="32" viewBox="0 0 32 32"><path d="M23.6 10.63a1.442 1.442 0 00-2.032 0l-7.695 7.693-3.44-3.441a1.439 1.439 0 00-2.032 0 1.439 1.439 0 000 2.032l4.457 4.458a1.438 1.438 0 002.032 0l8.71-8.71c.56-.561.56-1.472 0-2.032zM16 2.909C8.771 2.909 2.909 8.771 2.909 16c0 7.231 5.862 13.091 13.091 13.091 7.231 0 13.091-5.86 13.091-13.091 0-7.229-5.86-13.091-13.091-13.091zM16 0c8.838 0 16 7.164 16 16 0 8.838-7.162 16-16 16-8.836 0-16-7.162-16-16C0 7.164 7.164 0 16 0z"/></svg>