<?xml version="1.0" encoding="utf-8"?><svg xmlns="http://www.w3.org/2000/svg" width="32" height="32" viewBox="0 0 32 32"><path d="M16 0c8.837 0 16 7.163 16 16s-7.163 16-16 16S0 24.837 0 16 7.163 0 16 0zm0 2.909C8.77 2.909 2.909 8.77 2.909 16S8.77 29.091 16 29.091c7.23 0 13.091-5.861 13.091-13.091S23.23 2.909 16 2.909zm-5.392 7.699a1.455 1.455 0 012.057 0L16 13.942l3.335-3.334a1.455 1.455 0 011.92-.121l.137.121a1.455 1.455 0 010 2.057L18.058 16l3.334 3.335c.524.524.565 1.349.121 1.92l-.121.137a1.455 1.455 0 01-2.057 0L16 18.058l-3.335 3.334a1.455 1.455 0 01-1.92.121l-.137-.121a1.455 1.455 0 010-2.057L13.942 16l-3.334-3.335a1.455 1.455 0 01-.121-1.92z"/></svg>