<?xml version="1.0" encoding="utf-8"?><svg xmlns="http://www.w3.org/2000/svg" width="32" height="32" viewBox="0 0 32 32"><path d="M20.812 15.998L31.001 5.806c.611-.609.99-1.451.99-2.381v-.013.001A3.481 3.481 0 0030.917.919l-.001-.001-.38-.313a3.375 3.375 0 00-1.938-.606c-.94 0-1.79.381-2.406.996L16.003 11.187 5.809.995A3.407 3.407 0 003.408.01 3.41 3.41 0 00.963 1.039l-.001.001-.354.427a3.393 3.393 0 00.393 4.339l10.192 10.192L1.004 26.19a3.341 3.341 0 00-.99 2.377v.042-.002c.008.912.375 1.774 1.081 2.477l.375.305A3.364 3.364 0 003.411 32a3.38 3.38 0 002.403-.999l10.189-10.192 10.189 10.192c.643.638 1.492.99 2.391.99.925 0 1.797-.365 2.506-1.081l.305-.378c.38-.541.607-1.213.607-1.937 0-.939-.381-1.789-.997-2.404L20.812 15.999z"/></svg>