<?xml version="1.0" encoding="utf-8"?><svg xmlns="http://www.w3.org/2000/svg" width="32" height="32" viewBox="0 0 32 32"><path d="M16.292 15.56l3.213-3.253c.198-.197.467-.308.747-.307a1.053 1.053 0 01.747 1.8l-2.453 2.507 2.467 2.467c.2.197.311.466.307.747a1.057 1.057 0 01-1.053 1.054 1.052 1.052 0 01-.747-.307l-3.213-3.213a1.065 1.065 0 010-1.493h-.013zm-5.334 0l3.213-3.253c.198-.197.467-.308.747-.307a1.053 1.053 0 01.747 1.8l-2.453 2.507 2.467 2.467c.2.197.311.466.307.747a1.054 1.054 0 01-1.054 1.054 1.052 1.052 0 01-.747-.307l-3.213-3.213a1.065 1.065 0 010-1.493h-.013z"/></svg>