<?xml version="1.0" encoding="utf-8"?><svg xmlns="http://www.w3.org/2000/svg" width="32" height="32" viewBox="0 0 32 32"><path d="M29.091 21.818c.803 0 1.455.651 1.455 1.455v4.364a4.364 4.364 0 01-4.364 4.364H5.818a4.364 4.364 0 01-4.364-4.364v-4.364a1.455 1.455 0 012.91 0v4.364c0 .803.651 1.455 1.455 1.455h20.364c.803 0 1.455-.651 1.455-1.455v-4.364c0-.803.651-1.455 1.455-1.455zM16 0c.803 0 1.455.651 1.455 1.455v16.851l3.335-3.334a1.455 1.455 0 011.92-.121l.137.121a1.455 1.455 0 010 2.057l-5.818 5.818a1.63 1.63 0 01-.131.117l-.031.024a1.38 1.38 0 01-.251.149l-.075.033c-.029.012-.058.022-.087.032l-.067.02c-.031.009-.063.016-.095.023l-.076.013a1.39 1.39 0 01-.216.016l.124-.005a.942.942 0 01-.076.004l-.048.001-.048-.001c-.025-.001-.051-.002-.077-.005-.031-.003-.062-.006-.091-.011l-.075-.013a1.011 1.011 0 01-.095-.023l-.067-.02c-.029-.009-.057-.02-.086-.031a1.483 1.483 0 01-.326-.182 1.528 1.528 0 01-.163-.14l.131.117a1.319 1.319 0 01-.131-.117L9.154 17.03a1.455 1.455 0 012.057-2.057l3.335 3.334V1.456c0-.746.562-1.361 1.285-1.445z"/></svg>