<?xml version="1.0" encoding="utf-8"?><svg xmlns="http://www.w3.org/2000/svg" width="32" height="32" viewBox="0 0 32 32"><path d="M27.636 0A4.364 4.364 0 0132 4.364v13.091a4.364 4.364 0 01-4.364 4.364h-1.455a1.455 1.455 0 010-2.91h1.455c.803 0 1.455-.651 1.455-1.455V4.363c0-.803-.651-1.455-1.455-1.455H14.545c-.803 0-1.455.651-1.455 1.455v1.455a1.455 1.455 0 01-2.91 0V4.363a4.364 4.364 0 014.364-4.364h13.091zM17.455 10.182a4.364 4.364 0 014.364 4.364v13.091a4.364 4.364 0 01-4.364 4.364H4.364A4.364 4.364 0 010 27.637V14.546a4.364 4.364 0 014.364-4.364h13.091zM4.364 13.091c-.803 0-1.455.651-1.455 1.455v13.091c0 .803.651 1.455 1.455 1.455h13.091c.803 0 1.455-.651 1.455-1.455V14.546c0-.803-.651-1.455-1.455-1.455H4.364z"/></svg>