<?xml version="1.0" encoding="utf-8"?><svg xmlns="http://www.w3.org/2000/svg" width="32" height="32" viewBox="0 0 32 32"><path d="M12.131 2.909a1.455 1.455 0 010 2.91H4.364c-.803 0-1.455.651-1.455 1.455v20.364c0 .803.651 1.455 1.455 1.455h20.364c.803 0 1.455-.651 1.455-1.455v-7.767a1.455 1.455 0 012.91 0v7.767a4.364 4.364 0 01-4.364 4.364H4.365a4.364 4.364 0 01-4.364-4.364V7.274A4.364 4.364 0 014.365 2.91zM25.756.426l5.818 5.818a1.455 1.455 0 010 2.057L17.029 22.846a1.455 1.455 0 01-1.029.426h-5.818a1.455 1.455 0 01-1.455-1.455v-5.818c0-.386.153-.756.426-1.029L23.698.425a1.455 1.455 0 012.057 0zm-1.029 3.086L11.636 16.603v3.761h3.761L28.488 7.273l-3.761-3.761z"/></svg>