<?xml version="1.0" encoding="utf-8"?><svg xmlns="http://www.w3.org/2000/svg" width="32" height="32" viewBox="0 0 32 32"><path d="M14.4 4.8a1.6 1.6 0 110 3.2H4.8a1.6 1.6 0 00-1.6 1.6v17.6a1.6 1.6 0 001.6 1.6h17.6a1.6 1.6 0 001.6-1.6v-9.6a1.6 1.6 0 113.2 0v9.6a4.8 4.8 0 01-4.8 4.8H4.8A4.8 4.8 0 010 27.2V9.6a4.8 4.8 0 014.8-4.8zm16-4.8h.031a2.1 2.1 0 01.112.006l.096.011a1.325 1.325 0 01.187.04 1.598 1.598 0 01.349.142l.058.034a1.529 1.529 0 01.298.236l-.145-.128a1.603 1.603 0 01.379.426l.034.059a2.242 2.242 0 01.086.181 1.82 1.82 0 01.057.168c.01.034.018.069.025.104l.015.084c.012.077.018.157.018.238l-.006-.138.005.086.001.052v9.6a1.6 1.6 0 11-3.2 0V5.463L13.931 20.332a1.6 1.6 0 01-2.112.133l-.151-.133a1.6 1.6 0 010-2.263L26.534 3.2H20.8a1.6 1.6 0 01-1.589-1.413L19.2 1.6A1.6 1.6 0 0120.8 0z"/></svg>