<?xml version="1.0" encoding="utf-8"?><svg xmlns="http://www.w3.org/2000/svg" width="32" height="32" viewBox="0 0 32 32"><path d="M16 4c4.506 0 8.452 2.177 11.806 5.755a27.422 27.422 0 013.002 3.855c.512.794.864 1.419 1.052 1.794s.188.817 0 1.193c-.187.375-.539 1-1.052 1.794a27.274 27.274 0 01-3.002 3.855c-3.354 3.578-7.3 5.755-11.806 5.755s-8.452-2.177-11.806-5.755a27.422 27.422 0 01-3.002-3.855C.68 17.597.328 16.972.14 16.597s-.188-.817 0-1.193c.187-.375.539-1 1.052-1.794a27.274 27.274 0 013.002-3.855C7.548 6.177 11.494 4 16 4zm0 2.667c-3.66 0-6.965 1.823-9.861 4.912A24.71 24.71 0 002.854 16a24.637 24.637 0 003.285 4.421c2.896 3.089 6.2 4.912 9.861 4.912s6.965-1.823 9.861-4.912A24.71 24.71 0 0029.146 16a24.637 24.637 0 00-3.285-4.421C22.965 8.49 19.661 6.667 16 6.667zm0 4a5.333 5.333 0 110 10.667 5.333 5.333 0 010-10.667zm0 2.666a2.667 2.667 0 100 5.334 2.667 2.667 0 000-5.334z"/></svg>