<?xml version="1.0" encoding="utf-8"?><svg xmlns="http://www.w3.org/2000/svg" width="32" height="32" viewBox="0 0 32 32"><path d="M17.455 0c.062 0 .123.004.183.011L17.455 0a1.44 1.44 0 01.363.046l.044.012a1.6 1.6 0 01.133.045l.039.017c.041.017.081.037.12.058l.046.026c.041.024.08.05.118.079l.029.022.018.014.119.106 10.182 10.182c.043.043.083.088.12.136l-.12-.136a1.493 1.493 0 01.306.448l.016.04c.018.043.033.087.046.132l.012.044c.012.044.021.089.028.135l.006.046c.008.06.012.121.012.183v16a4.364 4.364 0 01-4.364 4.364H7.273a4.364 4.364 0 01-4.364-4.364V4.362A4.364 4.364 0 017.273-.002zM16 2.909H7.273c-.803 0-1.455.651-1.455 1.455v23.273c0 .803.651 1.455 1.455 1.455h17.455c.803 0 1.455-.651 1.455-1.455V13.092h-8.727a1.455 1.455 0 01-1.445-1.285l-.01-.17V2.91zm8.125 7.273l-5.216-5.215v5.215h5.216z"/></svg>