<?xml version="1.0" encoding="utf-8"?><svg xmlns="http://www.w3.org/2000/svg" width="32" height="32" viewBox="0 0 32 32"><path d="M18.909 0c.062 0 .123.004.183.011L18.909 0a1.44 1.44 0 01.363.046l.044.012a1.6 1.6 0 01.133.045l.039.017c.041.017.081.037.12.058l.046.026c.041.024.08.05.118.079l.029.022.018.014.119.106 8.727 8.727c.043.043.083.088.12.136l-.12-.136a1.493 1.493 0 01.306.448l.016.04c.018.043.033.087.046.132l.012.044c.012.044.021.089.028.135l.006.046c.008.06.012.121.012.183v17.455a4.364 4.364 0 01-4.364 4.364H7.272a4.364 4.364 0 01-4.364-4.364V4.362A4.364 4.364 0 017.272-.002zm-1.454 2.909H7.273c-.803 0-1.455.651-1.455 1.455v23.273c0 .803.651 1.455 1.455 1.455h17.455c.803 0 1.455-.651 1.455-1.455v-16H18.91a1.455 1.455 0 01-1.445-1.285l-.01-.17V2.909zm4.363 18.909a1.455 1.455 0 010 2.91H10.182a1.455 1.455 0 010-2.91zm0-5.818a1.455 1.455 0 010 2.91H10.182a1.455 1.455 0 010-2.91zm-8.727-5.818a1.455 1.455 0 010 2.91h-2.909a1.455 1.455 0 010-2.91zm7.273-5.215v3.76h3.761l-3.761-3.76z"/></svg>