<?xml version="1.0" encoding="utf-8"?><svg xmlns="http://www.w3.org/2000/svg" width="32" height="32" viewBox="0 0 32 32"><path d="M10.858 4.364H4.364c-.803 0-1.455.651-1.455 1.455v20.364c0 .803.651 1.455 1.455 1.455h23.273c.803 0 1.455-.651 1.455-1.455v-16c0-.803-.651-1.455-1.455-1.455H14.546c-.486 0-.941-.243-1.21-.648l-2.477-3.716zm4.466 1.454h12.312A4.364 4.364 0 0132 10.182v16a4.364 4.364 0 01-4.364 4.364H4.363a4.364 4.364 0 01-4.364-4.364V5.818a4.364 4.364 0 014.364-4.364h7.273c.486 0 .941.243 1.21.648l2.477 3.716z"/></svg>