<?xml version="1.0" encoding="utf-8"?><svg xmlns="http://www.w3.org/2000/svg" width="32" height="32" viewBox="0 0 32 32"><path d="M15.911 2.872h6.453c4.326.213 6.347 2.252 6.542 6.542 0 1.773.089 2.198.089 6.453s0 4.769-.089 6.453c-.195 4.29-2.216 6.347-6.542 6.542-1.773 0-2.198.089-6.453.089s-4.769 0-6.453-.089c-4.326-.195-6.329-2.269-6.542-6.542V9.414c.213-4.29 2.216-6.329 6.542-6.542 1.684.018 2.198 0 6.453 0zm0-2.872H9.334C3.501.355.31 3.546.044 9.378v13.154c.266 5.833 3.457 9.024 9.29 9.378 1.773 0 2.252.089 6.577.089s4.875 0 6.577-.089c5.833-.355 9.024-3.546 9.378-9.378 0-1.773.089-2.252.089-6.577s-.089-4.875-.089-6.577C31.511 3.545 28.32.354 22.488.088c-1.702-.089-2.252-.089-6.577-.089zm0 7.765c-4.524 0-8.191 3.667-8.191 8.191s3.667 8.191 8.191 8.191a8.19 8.19 0 100-16.382zm0 13.509a5.32 5.32 0 110-10.638 5.32 5.32 0 010 10.638zm8.51-15.743a1.915 1.915 0 100 3.83 1.915 1.915 0 000-3.83z"/></svg>