<?xml version="1.0" encoding="utf-8"?><svg xmlns="http://www.w3.org/2000/svg" width="24" height="24" viewBox="0 0 24 24"><path d="M5.695 9.687a6 6 0 019.048.648 1 1 0 01-1.602 1.198A4 4 0 007.11 11.1l-2.988 2.987a4 4 0 00.049 5.608c1.543 1.542 4.038 1.564 5.595.06l1.71-1.71a1 1 0 011.414 1.415l-1.722 1.722a6 6 0 01-8.472-8.497zm7.022-7.003a6 6 0 018.472 8.497l-3 3a6 6 0 01-9.048-.648 1 1 0 111.602-1.198 4 4 0 006.032.431l2.988-2.987a4 4 0 00-.049-5.607 3.997 3.997 0 00-5.597-.06l-1.72 1.71a1 1 0 01-1.41-1.418z"/></svg>