<?xml version="1.0" encoding="utf-8"?><svg xmlns="http://www.w3.org/2000/svg" width="32" height="32" viewBox="0 0 32 32"><path d="M29.867 27.429c1.178 0 2.133 1.023 2.133 2.286s-.955 2.286-2.133 2.286H2.134c-1.178 0-2.133-1.023-2.133-2.286s.955-2.286 2.133-2.286zm0-13.715C31.045 13.714 32 14.737 32 16s-.955 2.286-2.133 2.286H2.134C.956 18.286.001 17.263.001 16s.955-2.286 2.133-2.286zm0-13.714C31.045 0 32 1.023 32 2.286s-.955 2.286-2.133 2.286H2.134C.956 4.572.001 3.549.001 2.286S.956 0 2.134 0z"/></svg>