<?xml version="1.0" encoding="utf-8"?><svg xmlns="http://www.w3.org/2000/svg" width="32" height="32" viewBox="0 0 32 32"><path d="M6.77 23.819c.48-.831.756-1.795.756-2.825v-7.062c0-4.681 3.794-8.475 8.475-8.475s8.475 3.794 8.475 8.475v7.062c0 1.03.275 1.994.756 2.825H6.772zM16 29.175a2.831 2.831 0 01-2.806-2.531h5.614A2.833 2.833 0 0116 29.175zm14.124-5.356a2.825 2.825 0 01-2.825-2.825v-7.062c0-5.266-3.607-9.678-8.482-10.931.004-.058.018-.104.018-.167a2.836 2.836 0 00-5.671 0c0 .062.014.109.017.167-4.874 1.253-8.482 5.665-8.482 10.931v7.062a2.824 2.824 0 01-2.825 2.825c-1.883 0-1.883 2.825 0 2.825h8.493C10.531 29.621 12.98 32 15.998 32c3.017 0 5.469-2.379 5.633-5.356h8.492c1.883 0 1.883-2.825 0-2.825z"/></svg>