<?xml version="1.0" encoding="utf-8"?><svg xmlns="http://www.w3.org/2000/svg" width="32" height="32" viewBox="0 0 32 32"><path d="M7.856 3.079c-.848 0-1.539.691-1.539 1.539V27.38a1.54 1.54 0 002.401 1.278l16.289-10.975a1.545 1.545 0 00.043-2.525L8.758 3.369a1.52 1.52 0 00-.901-.291zM7.866 32c-.297 0-.594-.028-.893-.086a4.584 4.584 0 01-2.946-1.952 4.593 4.593 0 01-.788-2.582V4.618A4.624 4.624 0 017.857 0c.979 0 1.917.303 2.708.877l16.289 11.787a4.626 4.626 0 01-.126 7.573L10.438 31.21c-.771.52-1.659.79-2.571.79z"/></svg>