<?xml version="1.0" encoding="utf-8"?><svg xmlns="http://www.w3.org/2000/svg" width="32" height="32" viewBox="0 0 32 32"><path d="M24.727 0c.803 0 1.455.651 1.455 1.455v8.727h1.455a4.363 4.363 0 014.356 4.107l.007.256v7.273a4.364 4.364 0 01-4.364 4.364h-1.455v4.364c0 .803-.651 1.455-1.455 1.455H7.271a1.455 1.455 0 01-1.455-1.455v-4.364H4.361a4.363 4.363 0 01-4.356-4.107l-.007-.256v-7.273a4.364 4.364 0 014.364-4.364h1.455V1.455c0-.746.561-1.361 1.285-1.445l.17-.01zm-1.454 20.364H8.728v8.727h14.545v-8.727zm4.363-7.273H4.363c-.803 0-1.455.651-1.455 1.455v7.273c0 .803.651 1.455 1.455 1.455h1.455V18.91c0-.803.651-1.455 1.455-1.455h17.455c.803 0 1.455.651 1.455 1.455v4.364h1.455c.746 0 1.361-.561 1.445-1.285l.01-.17v-7.273c0-.803-.651-1.455-1.455-1.455zM23.273 2.909H8.728v7.273h14.545V2.909z"/></svg>