<?xml version="1.0" encoding="utf-8"?><svg xmlns="http://www.w3.org/2000/svg" width="32" height="32" viewBox="0 0 32 32"><path d="M19.657 8.515a5.76 5.76 0 00-1.771-.779l-.04-.009a8.311 8.311 0 00-2.056-.252h-.02.001-.02a5.82 5.82 0 00-3.596 1.237l.013-.01a4.561 4.561 0 00-1.138 1.286l-.012.021a3.027 3.027 0 00-.434 1.561v.001c0 .446.145.78.434 1.008.266.215.608.345.981.345h.029-.001c.355 0 .632-.074.832-.223.198-.147.365-.33.498-.543.132-.213.25-.446.355-.698.101-.252.239-.485.407-.698.175-.213.392-.396.667-.543.273-.147.646-.221 1.119-.221.665 0 1.187.165 1.563.498s.566.803.566 1.408c0 .368-.097.696-.285.975-.212.305-.448.57-.713.805l-.005.004c-.279.25-.582.497-.897.73l-.034.024a8.949 8.949 0 00-.933.789l.002-.002a4.294 4.294 0 00-.711.899l-.011.02a2.26 2.26 0 00-.287 1.166v-.003c0 .355.116.692.355 1.008.235.318.59.477 1.065.477.368 0 .646-.058.832-.176.18-.115.325-.268.427-.449l.003-.006c.103-.184.188-.388.254-.609.074-.236.175-.442.304-.628l-.005.008c.118-.178.301-.355.543-.531l.813-.588c.365-.266.665-.498.958-.739l-.037.029a6.28 6.28 0 00.857-.844l.008-.01c.258-.31.469-.659.632-1.043.161-.384.244-.818.244-1.307 0-.783-.159-1.454-.479-2.017a4.062 4.062 0 00-1.265-1.364l-.015-.009zm-3.996 12.369h-.028c-.494 0-.94.204-1.259.533-.328.32-.532.766-.532 1.26v.029-.001c0 .504.176.933.531 1.288.32.33.767.535 1.262.535h.029-.001c.504 0 .933-.178 1.29-.535a1.75 1.75 0 00.532-1.258v-.057c0-.494-.203-.94-.531-1.26a1.748 1.748 0 00-1.259-.534h-.032.002zM16 2.909c-7.231 0-13.092 5.861-13.092 13.092S8.769 29.093 16 29.093c7.231 0 13.092-5.861 13.092-13.092S23.231 2.909 16 2.909zM16 0c8.836 0 15.999 7.163 15.999 15.999v.002C31.999 24.837 24.836 32 16 32S.001 24.837.001 16.001 7.164.002 16 .002z"/></svg>