<?xml version="1.0" encoding="utf-8"?><svg xmlns="http://www.w3.org/2000/svg" width="32" height="32" viewBox="0 0 32 32"><path d="M1.391 18.784c-.584 0-1.084.36-1.29.87l-.007.017a1.406 1.406 0 00-.094.507v8.345a1.391 1.391 0 002.782 0v-5.132l4.08 3.833a13.916 13.916 0 0022.957-5.195 1.392 1.392 0 00-2.623-.929c-1.275 3.603-4.309 6.3-8.037 7.143s-7.627-.285-10.36-3.018l-3.896-3.661h4.835a1.391 1.391 0 000-2.782H1.39zM12.226 1.04A13.914 13.914 0 002.18 9.969a1.392 1.392 0 002.623.929c1.275-3.603 4.309-6.3 8.037-7.143s7.627.285 10.36 3.018l3.896 3.661h-4.835a1.391 1.391 0 000 2.782h8.348c.584 0 1.084-.36 1.29-.87l.007-.018c.063-.163.094-.335.094-.507V3.476a1.391 1.391 0 00-2.782 0v5.132l-4.08-3.833a13.91 13.91 0 00-12.911-3.734z"/></svg>