<?xml version="1.0" encoding="utf-8"?><svg xmlns="http://www.w3.org/2000/svg" width="32" height="32" viewBox="0 0 32 32"><path d="M1.455 14.532l-.076-.002-.066-.005a1.446 1.446 0 01-.115-.016l-.06-.012a1.288 1.288 0 01-.168-.048 1.433 1.433 0 01-.576-.376l.114.109a1.553 1.553 0 01-.11-.105l-.015-.016a1.343 1.343 0 01-.179-.241c-.016-.026-.03-.052-.044-.078a1.342 1.342 0 01-.117-.31 1.422 1.422 0 01-.02-.089l-.012-.073a1.399 1.399 0 01-.013-.195l.004.103-.004-.087V4.347a1.455 1.455 0 012.91 0v5.365l4.267-4.009A14.546 14.546 0 0124.1 3.06l.389.207A14.547 14.547 0 113.733 20.831a1.454 1.454 0 112.744-.966 11.638 11.638 0 0022.322-1.284c1.15-5.054-1.181-10.259-5.717-12.766S12.899 4.102 9.199 7.794L5.125 11.62l5.056.001c.746 0 1.361.562 1.445 1.285l.01.17c0 .803-.651 1.455-1.455 1.455H1.453z"/></svg>