<?xml version="1.0" encoding="utf-8"?><svg xmlns="http://www.w3.org/2000/svg" width="32" height="32" viewBox="0 0 32 32"><path d="M19.68 9.76c.298 0 .583-.101.814-.28l.121-.107 1.91-1.91v6.755c0 .671.51 1.236 1.173 1.313l.14.008h.009c.671 0 1.236-.51 1.313-1.172l.008-.15V7.462l1.896 1.895a1.325 1.325 0 001.748.108l.121-.109a1.329 1.329 0 00.107-1.748l-.107-.121-4.153-4.153a1.536 1.536 0 00-.148-.128 2.171 2.171 0 00-.139-.091l-.09-.046-.055-.024-.143-.049-.09-.022-.129-.019-.033-.006-.032.002h-.008l-.107-.003-.068.003-.085.009-.06.009-.153.039-.088.033-.055.022-.142.076a2.333 2.333 0 00-.09.06l-.055.046-.101.088-4.169 4.169a1.314 1.314 0 00-.387.935 1.317 1.317 0 001.322 1.321zm12.151 6.701l-3.243 10.167a3.475 3.475 0 01-3.317 2.424H3.815c-.039 0-.074-.013-.113-.014v.014c-.117-.006-.225-.036-.339-.054a3.423 3.423 0 01-1.225-.386 3.936 3.936 0 01-2.139-3.491V6.887a3.943 3.943 0 013.939-3.939h6.512c.447 0 .863.22 1.11.592l2.208 3.315h2.773a3.5 3.5 0 00-.391 1.583c0 .375.074.737.187 1.084h-3.284c-.449 0-.863-.222-1.11-.594L9.735 5.616H3.936c-.701 0-1.271.57-1.271 1.271v10.832l1.076-3.373a3.472 3.472 0 013.318-2.424h12.182c.145.017.288.043.436.043.154 0 .307-.022.46-.043h.181v2.295c0 .131.022.255.036.383H7.059a.801.801 0 00-.765.559L3.05 25.326a.785.785 0 00.117.72c.044.06.118.14.22.206.008.005.017.006.025.009a.753.753 0 00.402.113H25.27c.35 0 .657-.225.767-.562l3.241-10.166a.79.79 0 00-.115-.718.787.787 0 00-.647-.329h-1.164l.005-.043.003-.065.009-.15.003-.063V11.92h.317c.104.009.205.027.31.027.109 0 .216-.017.323-.027h.194c1.123 0 2.147.52 2.81 1.427.663.909.846 2.043.504 3.112z"/></svg>