<?xml version="1.0" encoding="utf-8"?><svg xmlns="http://www.w3.org/2000/svg" width="32" height="32" viewBox="0 0 32 32"><path d="M16 0a4 4 0 014 4v.115a.873.873 0 00.538.799.862.862 0 00.945-.163l.079-.079a4 4 0 015.659-.001 4 4 0 010 5.659l-.07.07a.866.866 0 00-.173.956 1.3 1.3 0 01.085.265.862.862 0 00.708.38h.227a4 4 0 010 8h-.115a.867.867 0 00-.793.525.869.869 0 00.157.959l.079.079a4 4 0 01.001 5.659 4 4 0 01-5.659 0l-.07-.07a.873.873 0 00-.969-.168.865.865 0 00-.525.788V28a4 4 0 01-8 0c-.008-.445-.233-.759-.645-.914a.864.864 0 00-.946.163l-.079.079a4 4 0 01-5.659.001 4 4 0 010-5.659l.07-.07a.873.873 0 00.168-.969.865.865 0 00-.788-.525h-.227a4 4 0 010-8c.445-.008.759-.233.914-.645a.864.864 0 00-.163-.946l-.079-.079a4 4 0 01-.001-5.659 4 4 0 015.659 0l.07.07a.866.866 0 00.956.173 1.3 1.3 0 01.265-.085.862.862 0 00.38-.708V4a4 4 0 014-4zm0 2.667c-.736 0-1.333.597-1.333 1.333v.232a3.535 3.535 0 01-2.141 3.234 1.354 1.354 0 01-.352.097 3.54 3.54 0 01-3.649-.819l-.081-.081a1.334 1.334 0 10-1.886 1.888l.09.09c1.01 1.033 1.29 2.576.738 3.819a3.542 3.542 0 01-3.265 2.313h-.12a1.333 1.333 0 000 2.666h.232a3.53 3.53 0 013.228 2.128 3.54 3.54 0 01-.717 3.908l-.081.081a1.334 1.334 0 101.888 1.886l.09-.09c1.033-1.01 2.576-1.29 3.819-.738a3.542 3.542 0 012.313 3.265v.12a1.333 1.333 0 002.666 0v-.232a3.53 3.53 0 012.128-3.228 3.54 3.54 0 013.908.717l.081.081a1.334 1.334 0 101.886-1.888l-.09-.09a3.534 3.534 0 01-.707-3.897 3.53 3.53 0 013.233-2.128h.12a1.333 1.333 0 000-2.666h-.232a3.535 3.535 0 01-3.234-2.141 1.354 1.354 0 01-.097-.352 3.54 3.54 0 01.819-3.649l.081-.081a1.334 1.334 0 10-1.888-1.886l-.09.09a3.527 3.527 0 01-3.884.712 3.534 3.534 0 01-2.141-3.239v-.12c0-.736-.597-1.333-1.333-1.333zm0 8a5.333 5.333 0 110 10.666 5.333 5.333 0 010-10.666zm0 8a2.667 2.667 0 100-5.334 2.667 2.667 0 000 5.334z"/></svg>