<?xml version="1.0" encoding="utf-8"?><svg xmlns="http://www.w3.org/2000/svg" viewBox="0 0 32 32" width="32" height="32"><path d="M7.309 2.657a1.355 1.355 0 00-2.03-.126l-2.068 2.07c-.966.968-1.322 2.338-.9 3.54 1.853 5.173 4.699 9.59 8.335 13.215l.001.001a35.16 35.16 0 0012.971 8.259l.245.077c1.202.422 2.572.066 3.54-.9l2.068-2.068a1.353 1.353 0 00-.123-2.027l-.003-.002-4.614-3.588a1.351 1.351 0 00-1.169-.242l.009-.002-4.38 1.094a3.482 3.482 0 01-3.314-.918l-4.912-4.914a3.482 3.482 0 01-.915-3.338l-.005.024 1.096-4.38a1.35 1.35 0 00-.247-1.163l.002.003-3.588-4.614zm-3.54-1.634A3.479 3.479 0 016.237 0c1.117 0 2.111.525 2.75 1.341l.006.008 3.588 4.612c.658.846.89 1.948.63 2.988l-1.094 4.38a1.35 1.35 0 00.356 1.286l4.914 4.914a1.351 1.351 0 001.297.354l-.009.002 4.378-1.094c.254-.066.546-.104.846-.104a3.47 3.47 0 012.149.74l-.008-.006 4.612 3.588a3.49 3.49 0 01.326 5.222l-2.068 2.068c-1.48 1.48-3.692 2.13-5.754 1.404-5.488-1.964-10.173-4.983-14.019-8.839l-.001-.001A37.288 37.288 0 01.378 9.105l-.082-.26c-.724-2.06-.074-4.274 1.406-5.754L3.77 1.023z"/></svg>