<?xml version="1.0" encoding="utf-8"?><svg xmlns="http://www.w3.org/2000/svg" width="32" height="32" viewBox="0 0 32 32"><path d="M18.909 0a4.363 4.363 0 014.356 4.107l.007.256v1.455h5.818c.746 0 1.361.561 1.445 1.285l.01.17c0 .746-.561 1.361-1.285 1.445l-.17.01h-1.455v18.909a4.363 4.363 0 01-4.107 4.356l-.256.007H8.727a4.363 4.363 0 01-4.356-4.107l-.007-.256V8.728H2.909a1.455 1.455 0 01-1.445-1.285l-.01-.17c0-.746.561-1.361 1.285-1.445l.17-.01h5.818V4.363A4.363 4.363 0 0112.834.007L13.09 0h5.818zm5.818 8.727H7.272v18.909c0 .746.561 1.361 1.285 1.445l.17.01h14.545c.746 0 1.361-.561 1.445-1.285l.01-.17V8.727zm-11.636 4.364c.803 0 1.455.651 1.455 1.455v8.727a1.455 1.455 0 01-2.91 0v-8.727c0-.803.651-1.455 1.455-1.455zm5.818 0c.803 0 1.455.651 1.455 1.455v8.727a1.455 1.455 0 01-2.91 0v-8.727c0-.803.651-1.455 1.455-1.455zm0-10.182h-5.818c-.746 0-1.361.562-1.445 1.285l-.01.17v1.455h8.727V4.364c0-.746-.561-1.361-1.285-1.445l-.17-.01z"/></svg>