<?xml version="1.0" encoding="utf-8"?><svg xmlns="http://www.w3.org/2000/svg" width="32" height="32" viewBox="0 0 32 32"><path d="M22.018 14.215h-2.395l-2.485 5.807a1.197 1.197 0 01-1.102.727c-.025 0-.051 0-.078-.003a1.196 1.196 0 01-1.076-.869l-2.402-8.508-1.379 3.657a1.199 1.199 0 01-1.123.776H7.193a1.199 1.199 0 010-2.398h1.954l2.372-6.292c.183-.484.614-.82 1.173-.775a1.2 1.2 0 011.103.871l2.471 8.752 1.463-3.415a1.198 1.198 0 011.102-.728h3.185a1.2 1.2 0 010 2.398zm-18.483.045c0-6.211 5.054-11.263 11.263-11.263 6.211 0 11.264 5.052 11.264 11.263s-5.054 11.263-11.264 11.263c-6.209 0-11.263-5.052-11.263-11.263zm27.489 15.182l-5.646-5.644c2.279-2.528 3.681-5.866 3.681-9.538C29.059 6.384 22.673 0 14.797 0S.537 6.384.537 14.26c0 7.876 6.384 14.26 14.26 14.26a14.18 14.18 0 008.349-2.716l5.758 5.756c.292.294.676.439 1.06.439s.766-.145 1.06-.439a1.5 1.5 0 000-2.119z"/></svg>