<?xml version="1.0" encoding="utf-8"?><svg xmlns="http://www.w3.org/2000/svg" width="32" height="32" viewBox="0 0 32 32"><path d="M2.778 10.839v-4.03c0-.754.613-1.367 1.367-1.367h2.662v1.317a1.375 1.375 0 102.75 0V5.442h10.861v1.317a1.375 1.375 0 102.749 0V5.442h2.699c.754 0 1.367.613 1.367 1.367v4.03H2.778zm23.089-8.148h-2.699V1.375a1.375 1.375 0 10-2.749 0v1.316H9.558V1.375a1.375 1.375 0 10-2.75 0v1.316H4.146A4.122 4.122 0 00.029 6.808v18.984a4.122 4.122 0 004.117 4.116H14.29c.758 0 1.375-.616 1.375-1.375 0-.758-.617-1.374-1.375-1.374H4.146a1.369 1.369 0 01-1.367-1.367V13.588h24.455v.862a1.375 1.375 0 002.749 0V6.807a4.121 4.121 0 00-4.116-4.117zm-.204 23.061a4.353 4.353 0 01-3.06 1.249c-2.41 0-4.37-1.96-4.37-4.37 0-2.409 1.96-4.37 4.37-4.37s4.372 1.961 4.372 4.37c0 1.166-.454 2.245-1.312 3.121zm6.309 4.893c0-.363-.141-.702-.396-.958l-3.1-3.1.04-.061a7.04 7.04 0 001.166-3.896c0-3.903-3.176-7.08-7.08-7.08s-7.078 3.176-7.078 7.08c0 3.903 3.175 7.08 7.078 7.08a7.019 7.019 0 003.896-1.167l.061-.04 3.1 3.1c.254.256.595.397.958.397s.702-.14.959-.397a1.35 1.35 0 00.396-.958z"/></svg>