<?xml version="1.0" encoding="utf-8"?><svg xmlns="http://www.w3.org/2000/svg" width="32" height="32" viewBox="0 0 32 32"><path d="M15.999 1.951c1.466 0 2.825.765 3.589 2.025l11.85 19.783c.745 1.29.749 2.879.012 4.173s-2.107 2.1-3.612 2.116H4.146c-1.49-.016-2.859-.822-3.597-2.116s-.733-2.883.023-4.192L12.41 3.977a4.195 4.195 0 013.589-2.025zm0 2.796c-.487 0-.94.254-1.193.67L2.981 25.157a1.398 1.398 0 001.18 2.096h23.661a1.397 1.397 0 001.206-2.077L17.194 5.419a1.396 1.396 0 00-1.195-.673zm-.988 15.927a1.398 1.398 0 111.977 1.977 1.398 1.398 0 01-1.977-1.977zm.988-10.193c.772 0 1.398.626 1.398 1.398v5.591a1.398 1.398 0 01-2.796 0v-5.591c0-.772.626-1.398 1.398-1.398z"/></svg>