<?xml version="1.0" encoding="utf-8"?><svg xmlns="http://www.w3.org/2000/svg" xmlns:xlink="http://www.w3.org/1999/xlink"><symbol viewBox="0 0 32 32" id="access" xmlns="http://www.w3.org/2000/svg"><path d="M1.691.391a1.15 1.15 0 011.728 0l5.229 5.704c2.253-1.344 4.705-2.094 7.351-2.094 4.506 0 8.452 2.177 11.806 5.755a27.422 27.422 0 013.002 3.855c.512.794.864 1.419 1.052 1.794s.188.817 0 1.193c-.187.375-.539 1-1.052 1.794a27.274 27.274 0 01-3.002 3.855 22.931 22.931 0 01-2.348 2.189l4.85 5.29c.477.521.477 1.365 0 1.886s-1.251.521-1.728 0l-5.229-5.704c-2.253 1.344-4.705 2.094-7.351 2.094-4.506 0-8.452-2.177-11.806-5.755a27.422 27.422 0 01-3.002-3.855c-.512-.794-.864-1.419-1.052-1.794s-.188-.817 0-1.193c.187-.375.539-1 1.052-1.794a28.238 28.238 0 011.645-2.288 1.272 1.272 0 01.319-.39c.33-.399.676-.792 1.037-1.178A22.931 22.931 0 016.54 7.566l-4.85-5.29a1.422 1.422 0 010-1.886zm1.742 14.666c-.218.337-.41.653-.578.943a24.637 24.637 0 003.285 4.421c2.486 2.651 5.273 4.37 8.327 4.804L4.09 14.088c-.229.322-.448.645-.657.968zM16 21.333a5.327 5.327 0 01-2.056-.41l3.747 4.02c.065.071.121.148.168.229 1.259-.215 2.474-.653 3.64-1.285L18.56 20.68a5.308 5.308 0 01-2.561.654zm0-14.666c-1.935 0-3.771.51-5.5 1.447l2.939 3.207a5.333 5.333 0 017 7.636l3.212 3.505a19.912 19.912 0 002.209-2.04 24.71 24.71 0 003.285-4.421 24.637 24.637 0 00-3.285-4.421c-2.896-3.089-6.2-4.912-9.861-4.912zM13.333 16a2.667 2.667 0 003.311 2.589l-3.167-3.454a2.666 2.666 0 00-.144.866zm-7.194-4.421l-.445.488 5.25 5.637A5.334 5.334 0 0110.666 16c0-1.094.329-2.111.894-2.957L8.348 9.538a19.912 19.912 0 00-2.209 2.04zM16 13.333c-.222 0-.438.027-.644.078l3.167 3.454A2.667 2.667 0 0016 13.332z"/></symbol><symbol viewBox="0 0 32 32" id="angle-down" xmlns="http://www.w3.org/2000/svg"><path d="M18.712 24.837l12.143-11.994A3.937 3.937 0 0032 10.056a3.93 3.93 0 00-6.718-2.787l-9.356 9.157-9.207-9.207a3.834 3.834 0 00-2.787-1.145A3.932 3.932 0 000 10.006a3.928 3.928 0 001.145 2.787l11.994 11.994a3.982 3.982 0 005.574 0v.05z"/></symbol><symbol viewBox="0 0 32 32" id="angle-left" xmlns="http://www.w3.org/2000/svg"><path d="M7.163 13.288L19.157 1.145A3.937 3.937 0 0121.944 0a3.93 3.93 0 012.787 6.718l-9.157 9.356 9.207 9.207a3.834 3.834 0 011.145 2.787A3.931 3.931 0 0121.995 32a3.928 3.928 0 01-2.787-1.145L7.214 18.861a3.98 3.98 0 010-5.574h-.05z"/></symbol><symbol viewBox="0 0 32 32" id="angle-right" xmlns="http://www.w3.org/2000/svg"><path d="M24.837 13.288L12.843 1.145A3.937 3.937 0 0010.056 0a3.93 3.93 0 00-2.787 6.718l9.157 9.356-9.207 9.207a3.834 3.834 0 00-1.145 2.787A3.931 3.931 0 0010.005 32a3.928 3.928 0 002.787-1.145l11.994-11.994a3.98 3.98 0 000-5.574h.05z"/></symbol><symbol viewBox="0 0 32 32" id="angle-up" xmlns="http://www.w3.org/2000/svg"><path d="M13.288 7.163L1.145 19.157A3.937 3.937 0 000 21.944a3.93 3.93 0 006.718 2.787l9.356-9.157 9.207 9.207a3.834 3.834 0 002.787 1.145A3.931 3.931 0 0032 21.995a3.928 3.928 0 00-1.145-2.787L18.861 7.214a3.98 3.98 0 00-5.574 0v-.05z"/></symbol><symbol viewBox="0 0 32 32" id="archive" xmlns="http://www.w3.org/2000/svg"><path d="M22.913 15.151l.101.088.055.046.09.06.142.076.055.024.088.031.153.039.06.009.085.009.068.005.107-.005h.008l.032.002.033-.006.129-.017.09-.024.143-.049.055-.024.09-.046c.071-.044.106-.066.139-.091.069-.054.11-.09.148-.128l4.153-4.153.107-.121a1.329 1.329 0 00-.107-1.748l-.121-.107a1.327 1.327 0 00-.814-.28 1.31 1.31 0 00-.934.387l-1.896 1.895V4.27l-.008-.151a1.33 1.33 0 00-1.313-1.172h-.009l-.14.008a1.329 1.329 0 00-1.173 1.315v6.753l-1.91-1.91-.121-.107a1.327 1.327 0 00-1.749.107 1.319 1.319 0 000 1.869l4.169 4.169zm8.918 1.31l-3.243 10.167a3.473 3.473 0 01-3.317 2.422H3.815c-.039 0-.074-.013-.113-.013v.014c-.117-.008-.225-.038-.339-.054a3.445 3.445 0 01-1.225-.387 3.934 3.934 0 01-2.139-3.49V6.885a3.943 3.943 0 013.939-3.939h6.512c.447 0 .861.222 1.11.594l2.208 3.315h4.433a3.52 3.52 0 00-1.017.698 3.492 3.492 0 00-.981 1.969h-3.148c-.449 0-.863-.222-1.11-.595L9.737 5.615H3.938c-.701 0-1.271.57-1.271 1.271v10.832l1.076-3.373a3.473 3.473 0 013.318-2.424h9.638c.139.222.296.432.487.622l2.055 2.055H7.061a.8.8 0 00-.765.561L3.05 25.325a.794.794 0 00.118.72.84.84 0 00.22.208c.008.003.017.005.025.009a.771.771 0 00.402.112h21.456c.35 0 .657-.225.767-.561l3.241-10.166a.794.794 0 00-.115-.72.787.787 0 00-.647-.329h-.065l2.038-2.038c.312.217.603.469.836.789.663.907.846 2.041.504 3.112z"/></symbol><symbol viewBox="0 0 32 32" id="arrow-down" xmlns="http://www.w3.org/2000/svg"><path d="M16 0c.982 0 1.778.796 1.778 1.778v24.151l7.632-7.63a1.779 1.779 0 012.347-.148l.167.148c.694.694.694 1.82 0 2.514L17.257 31.48a1.668 1.668 0 01-.332.26 1.382 1.382 0 01-.173.093l-.092.04a1.914 1.914 0 01-.303.091c-.031.006-.062.012-.093.016-.086.013-.174.02-.264.02l.151-.006c-.031.003-.062.004-.092.005L16 32l-.059-.001a1.583 1.583 0 01-.094-.006c-.039-.003-.075-.008-.112-.013l-.092-.016a2.175 2.175 0 01-.198-.052 1.474 1.474 0 01-.198-.078c-.037-.017-.073-.036-.109-.055a2.03 2.03 0 01-.197-.127 1.79 1.79 0 01-.199-.172l.161.142a1.97 1.97 0 01-.161-.142L4.075 20.813a1.778 1.778 0 012.514-2.514l7.632 7.63V1.778c0-.912.686-1.663 1.57-1.766z"/></symbol><symbol viewBox="0 0 32 32" id="arrow-left" xmlns="http://www.w3.org/2000/svg"><path d="M11.187 4.076a1.778 1.778 0 012.514 2.514l-7.632 7.632h24.153c.912 0 1.663.686 1.766 1.57l.012.207c0 .982-.796 1.778-1.778 1.778H6.069l7.632 7.632c.641.641.69 1.649.148 2.347l-.148.167a1.778 1.778 0 01-2.514 0L.52 17.256l-.13-.145-.012-.015a1.467 1.467 0 01-.156-.236 1.82 1.82 0 01-.055-.108l-.04-.092a1.914 1.914 0 01-.091-.303c-.006-.031-.012-.062-.016-.093A1.764 1.764 0 010 16l.007.159A1.717 1.717 0 010 16.035v-.068a1.778 1.778 0 01.02-.231l.016-.092a1.507 1.507 0 01.053-.198 1.474 1.474 0 01.078-.198c.017-.037.036-.073.055-.109l.038-.065a1.79 1.79 0 01.261-.331l-.142.161a1.97 1.97 0 01.142-.161z"/></symbol><symbol viewBox="0 0 32 32" id="arrow-right" xmlns="http://www.w3.org/2000/svg"><path d="M18.299 4.076a1.778 1.778 0 012.514 0L31.48 14.743a1.668 1.668 0 01.26.332 1.382 1.382 0 01.093.173l.04.092a1.914 1.914 0 01.091.303A1.764 1.764 0 0132 16l-.006-.152c.003.031.004.062.005.092l.001.059-.001.059a1.583 1.583 0 01-.019.205l-.016.092a1.507 1.507 0 01-.053.198 1.474 1.474 0 01-.078.198c-.017.037-.036.073-.055.109a2.03 2.03 0 01-.127.197 1.79 1.79 0 01-.172.199l.142-.161-.012.015-.13.145-10.667 10.667a1.778 1.778 0 01-2.514-2.514l7.63-7.634-24.151.002a1.778 1.778 0 01-1.766-1.57l-.012-.207c0-.982.796-1.778 1.778-1.778l24.151-.002-7.63-7.63a1.779 1.779 0 01-.148-2.347z"/></symbol><symbol viewBox="0 0 32 32" id="arrow-up" xmlns="http://www.w3.org/2000/svg"><path d="M16 0h.034a1.717 1.717 0 01.23.02l.092.016a2.175 2.175 0 01.198.052 1.474 1.474 0 01.198.078c.037.017.073.036.109.055l.065.038a1.79 1.79 0 01.331.261l-.161-.142.015.012.145.13 10.667 10.667a1.778 1.778 0 01-2.514 2.514l-7.632-7.632v24.153c0 .912-.686 1.663-1.57 1.766L16 32a1.778 1.778 0 01-1.778-1.778V6.069L6.59 13.701a1.779 1.779 0 01-2.347.148l-.167-.148a1.778 1.778 0 010-2.514L14.743.52l.145-.13.015-.012a1.467 1.467 0 01.236-.156 1.82 1.82 0 01.108-.055l.092-.04a1.914 1.914 0 01.303-.091c.031-.006.062-.012.093-.016.086-.013.174-.02.264-.02l-.159.007c.042-.004.084-.006.126-.007z"/></symbol><symbol viewBox="0 0 32 32" id="calendar" xmlns="http://www.w3.org/2000/svg"><path d="M21.818 0c.803 0 1.455.651 1.455 1.455V2.91h2.909a4.364 4.364 0 014.364 4.364v20.364a4.364 4.364 0 01-4.364 4.364H5.818a4.364 4.364 0 01-4.364-4.364V7.274A4.364 4.364 0 015.818 2.91h2.909V1.455c0-.746.562-1.361 1.285-1.445l.17-.01c.803 0 1.455.651 1.455 1.455V2.91h8.727V1.455c0-.746.561-1.361 1.285-1.445zm5.818 14.546H4.363v13.091c0 .803.651 1.455 1.455 1.455h20.364c.803 0 1.455-.651 1.455-1.455V14.546zM8.727 5.818H5.818c-.803 0-1.455.651-1.455 1.455v4.364h23.273V7.273c0-.803-.651-1.455-1.455-1.455h-2.909v1.455c0 .746-.561 1.361-1.285 1.445l-.17.01a1.455 1.455 0 01-1.455-1.455V5.818h-8.727v1.455c0 .746-.562 1.361-1.285 1.445l-.17.01a1.455 1.455 0 01-1.455-1.455V5.818z"/></symbol><symbol viewBox="0 0 32 32" id="check" xmlns="http://www.w3.org/2000/svg"><path d="M3.035 15.632a1.778 1.778 0 00-2.514 2.514l8.889 8.889c.694.694 1.82.694 2.514 0L31.48 7.479a1.778 1.778 0 00-2.514-2.514L10.667 23.264l-7.632-7.632z"/></symbol><symbol viewBox="0 0 32 32" id="circle-alert" xmlns="http://www.w3.org/2000/svg"><path d="M16 1.333c8.1 0 14.667 6.566 14.667 14.667S24.101 30.667 16 30.667C7.9 30.667 1.333 24.101 1.333 16S7.899 1.333 16 1.333zM16 4C9.373 4 4 9.373 4 16s5.373 12 12 12 12-5.373 12-12S22.627 4 16 4zm-.943 15.057a1.333 1.333 0 111.886 1.885 1.333 1.333 0 01-1.886-1.885zM16 9.333c.736 0 1.333.597 1.333 1.333v5.333a1.333 1.333 0 01-2.666 0v-5.333c0-.736.597-1.333 1.333-1.333z"/></symbol><symbol viewBox="0 0 32 32" id="circle-check" xmlns="http://www.w3.org/2000/svg"><path d="M23.6 10.63a1.442 1.442 0 00-2.032 0l-7.695 7.693-3.44-3.441a1.439 1.439 0 00-2.032 0 1.439 1.439 0 000 2.032l4.457 4.458a1.438 1.438 0 002.032 0l8.71-8.71c.56-.561.56-1.472 0-2.032zM16 2.909C8.771 2.909 2.909 8.771 2.909 16c0 7.231 5.862 13.091 13.091 13.091 7.231 0 13.091-5.86 13.091-13.091 0-7.229-5.86-13.091-13.091-13.091zM16 0c8.838 0 16 7.164 16 16 0 8.838-7.162 16-16 16-8.836 0-16-7.162-16-16C0 7.164 7.164 0 16 0z"/></symbol><symbol viewBox="0 0 32 32" id="circle-cross" xmlns="http://www.w3.org/2000/svg"><path d="M16 0c8.837 0 16 7.163 16 16s-7.163 16-16 16S0 24.837 0 16 7.163 0 16 0zm0 2.909C8.77 2.909 2.909 8.77 2.909 16S8.77 29.091 16 29.091c7.23 0 13.091-5.861 13.091-13.091S23.23 2.909 16 2.909zm-5.392 7.699a1.455 1.455 0 012.057 0L16 13.942l3.335-3.334a1.455 1.455 0 011.92-.121l.137.121a1.455 1.455 0 010 2.057L18.058 16l3.334 3.335c.524.524.565 1.349.121 1.92l-.121.137a1.455 1.455 0 01-2.057 0L16 18.058l-3.335 3.334a1.455 1.455 0 01-1.92.121l-.137-.121a1.455 1.455 0 010-2.057L13.942 16l-3.334-3.335a1.455 1.455 0 01-.121-1.92z"/></symbol><symbol viewBox="0 0 32 32" id="circle-info" xmlns="http://www.w3.org/2000/svg"><path d="M16 0c8.837 0 16 7.163 16 16s-7.163 16-16 16S0 24.837 0 16 7.163 0 16 0zm0 2.909C8.77 2.909 2.909 8.77 2.909 16S8.77 29.091 16 29.091c7.23 0 13.091-5.861 13.091-13.091S23.23 2.909 16 2.909zm0 11.636c.803 0 1.455.651 1.455 1.455v5.818a1.455 1.455 0 01-2.91 0V16c0-.803.651-1.455 1.455-1.455zm-1.029-3.937a1.455 1.455 0 112.057 2.057 1.455 1.455 0 01-2.057-2.057z"/></symbol><symbol viewBox="0 0 32 32" id="circle-less" xmlns="http://www.w3.org/2000/svg"><path d="M16 0c8.837 0 16 7.163 16 16s-7.163 16-16 16S0 24.837 0 16 7.163 0 16 0zm0 2.909C8.77 2.909 2.909 8.77 2.909 16S8.77 29.091 16 29.091c7.23 0 13.091-5.861 13.091-13.091S23.23 2.909 16 2.909zm5.818 11.636a1.455 1.455 0 010 2.91H10.182a1.455 1.455 0 010-2.91z"/></symbol><symbol viewBox="0 0 32 32" id="circle-plus" xmlns="http://www.w3.org/2000/svg"><path d="M16 0c8.837 0 16 7.163 16 16s-7.163 16-16 16S0 24.837 0 16 7.163 0 16 0zm0 2.909C8.77 2.909 2.909 8.77 2.909 16S8.77 29.091 16 29.091c7.23 0 13.091-5.861 13.091-13.091S23.23 2.909 16 2.909zm0 5.818c.803 0 1.455.651 1.455 1.455v4.364h4.364c.746 0 1.361.562 1.445 1.285l.01.17c0 .803-.651 1.455-1.455 1.455h-4.364v4.364c0 .746-.561 1.361-1.285 1.445l-.17.01a1.455 1.455 0 01-1.455-1.455v-4.364h-4.364a1.455 1.455 0 01-1.445-1.285l-.01-.17c0-.803.651-1.455 1.455-1.455h4.364v-4.364c0-.746.562-1.361 1.285-1.445z"/></symbol><symbol viewBox="0 0 32 32" id="close" xmlns="http://www.w3.org/2000/svg"><path d="M20.812 15.998L31.001 5.806c.611-.609.99-1.451.99-2.381v-.013.001A3.481 3.481 0 0030.917.919l-.001-.001-.38-.313a3.375 3.375 0 00-1.938-.606c-.94 0-1.79.381-2.406.996L16.003 11.187 5.809.995A3.407 3.407 0 003.408.01 3.41 3.41 0 00.963 1.039l-.001.001-.354.427a3.393 3.393 0 00.393 4.339l10.192 10.192L1.004 26.19a3.341 3.341 0 00-.99 2.377v.042-.002c.008.912.375 1.774 1.081 2.477l.375.305A3.364 3.364 0 003.411 32a3.38 3.38 0 002.403-.999l10.189-10.192 10.189 10.192c.643.638 1.492.99 2.391.99.925 0 1.797-.365 2.506-1.081l.305-.378c.38-.541.607-1.213.607-1.937 0-.939-.381-1.789-.997-2.404L20.812 15.999z"/></symbol><symbol viewBox="0 0 32 32" id="double-angle-left" xmlns="http://www.w3.org/2000/svg"><path d="M16.292 15.56l3.213-3.253c.198-.197.467-.308.747-.307a1.053 1.053 0 01.747 1.8l-2.453 2.507 2.467 2.467c.2.197.311.466.307.747a1.057 1.057 0 01-1.053 1.054 1.052 1.052 0 01-.747-.307l-3.213-3.213a1.065 1.065 0 010-1.493h-.013zm-5.334 0l3.213-3.253c.198-.197.467-.308.747-.307a1.053 1.053 0 01.747 1.8l-2.453 2.507 2.467 2.467c.2.197.311.466.307.747a1.054 1.054 0 01-1.054 1.054 1.052 1.052 0 01-.747-.307l-3.213-3.213a1.065 1.065 0 010-1.493h-.013z"/></symbol><symbol viewBox="0 0 32 32" id="double-angle-right" xmlns="http://www.w3.org/2000/svg"><path d="M15.693 15.56l-3.213-3.253a1.055 1.055 0 00-.747-.307 1.053 1.053 0 00-.747 1.8l2.453 2.507-2.467 2.467c-.2.197-.311.466-.307.747a1.054 1.054 0 001.054 1.054c.28.001.548-.109.747-.307l3.213-3.213a1.065 1.065 0 000-1.493h.013zm5.334 0l-3.213-3.253a1.055 1.055 0 00-.747-.307 1.053 1.053 0 00-.747 1.8l2.453 2.507-2.467 2.467c-.2.197-.311.466-.307.747a1.057 1.057 0 001.053 1.054c.28.001.548-.109.747-.307l3.213-3.213a1.065 1.065 0 000-1.493h.013z"/></symbol><symbol viewBox="0 0 32 32" id="download" xmlns="http://www.w3.org/2000/svg"><path d="M29.091 21.818c.803 0 1.455.651 1.455 1.455v4.364a4.364 4.364 0 01-4.364 4.364H5.818a4.364 4.364 0 01-4.364-4.364v-4.364a1.455 1.455 0 012.91 0v4.364c0 .803.651 1.455 1.455 1.455h20.364c.803 0 1.455-.651 1.455-1.455v-4.364c0-.803.651-1.455 1.455-1.455zM16 0c.803 0 1.455.651 1.455 1.455v16.851l3.335-3.334a1.455 1.455 0 011.92-.121l.137.121a1.455 1.455 0 010 2.057l-5.818 5.818a1.63 1.63 0 01-.131.117l-.031.024a1.38 1.38 0 01-.251.149l-.075.033c-.029.012-.058.022-.087.032l-.067.02c-.031.009-.063.016-.095.023l-.076.013a1.39 1.39 0 01-.216.016l.124-.005a.942.942 0 01-.076.004l-.048.001-.048-.001c-.025-.001-.051-.002-.077-.005-.031-.003-.062-.006-.091-.011l-.075-.013a1.011 1.011 0 01-.095-.023l-.067-.02c-.029-.009-.057-.02-.086-.031a1.483 1.483 0 01-.326-.182 1.528 1.528 0 01-.163-.14l.131.117a1.319 1.319 0 01-.131-.117L9.154 17.03a1.455 1.455 0 012.057-2.057l3.335 3.334V1.456c0-.746.562-1.361 1.285-1.445z"/></symbol><symbol viewBox="0 0 32 32" id="duplicate" xmlns="http://www.w3.org/2000/svg"><path d="M27.636 0A4.364 4.364 0 0132 4.364v13.091a4.364 4.364 0 01-4.364 4.364h-1.455a1.455 1.455 0 010-2.91h1.455c.803 0 1.455-.651 1.455-1.455V4.363c0-.803-.651-1.455-1.455-1.455H14.545c-.803 0-1.455.651-1.455 1.455v1.455a1.455 1.455 0 01-2.91 0V4.363a4.364 4.364 0 014.364-4.364h13.091zM17.455 10.182a4.364 4.364 0 014.364 4.364v13.091a4.364 4.364 0 01-4.364 4.364H4.364A4.364 4.364 0 010 27.637V14.546a4.364 4.364 0 014.364-4.364h13.091zM4.364 13.091c-.803 0-1.455.651-1.455 1.455v13.091c0 .803.651 1.455 1.455 1.455h13.091c.803 0 1.455-.651 1.455-1.455V14.546c0-.803-.651-1.455-1.455-1.455H4.364z"/></symbol><symbol viewBox="0 0 32 32" id="edit" xmlns="http://www.w3.org/2000/svg"><path d="M12.131 2.909a1.455 1.455 0 010 2.91H4.364c-.803 0-1.455.651-1.455 1.455v20.364c0 .803.651 1.455 1.455 1.455h20.364c.803 0 1.455-.651 1.455-1.455v-7.767a1.455 1.455 0 012.91 0v7.767a4.364 4.364 0 01-4.364 4.364H4.365a4.364 4.364 0 01-4.364-4.364V7.274A4.364 4.364 0 014.365 2.91zM25.756.426l5.818 5.818a1.455 1.455 0 010 2.057L17.029 22.846a1.455 1.455 0 01-1.029.426h-5.818a1.455 1.455 0 01-1.455-1.455v-5.818c0-.386.153-.756.426-1.029L23.698.425a1.455 1.455 0 012.057 0zm-1.029 3.086L11.636 16.603v3.761h3.761L28.488 7.273l-3.761-3.761z"/></symbol><symbol viewBox="0 0 32 32" id="external-link" xmlns="http://www.w3.org/2000/svg"><path d="M14.4 4.8a1.6 1.6 0 110 3.2H4.8a1.6 1.6 0 00-1.6 1.6v17.6a1.6 1.6 0 001.6 1.6h17.6a1.6 1.6 0 001.6-1.6v-9.6a1.6 1.6 0 113.2 0v9.6a4.8 4.8 0 01-4.8 4.8H4.8A4.8 4.8 0 010 27.2V9.6a4.8 4.8 0 014.8-4.8zm16-4.8h.031a2.1 2.1 0 01.112.006l.096.011a1.325 1.325 0 01.187.04 1.598 1.598 0 01.349.142l.058.034a1.529 1.529 0 01.298.236l-.145-.128a1.603 1.603 0 01.379.426l.034.059a2.242 2.242 0 01.086.181 1.82 1.82 0 01.057.168c.01.034.018.069.025.104l.015.084c.012.077.018.157.018.238l-.006-.138.005.086.001.052v9.6a1.6 1.6 0 11-3.2 0V5.463L13.931 20.332a1.6 1.6 0 01-2.112.133l-.151-.133a1.6 1.6 0 010-2.263L26.534 3.2H20.8a1.6 1.6 0 01-1.589-1.413L19.2 1.6A1.6 1.6 0 0120.8 0z"/></symbol><symbol viewBox="0 0 32 32" id="eye" xmlns="http://www.w3.org/2000/svg"><path d="M16 4c4.506 0 8.452 2.177 11.806 5.755a27.422 27.422 0 013.002 3.855c.512.794.864 1.419 1.052 1.794s.188.817 0 1.193c-.187.375-.539 1-1.052 1.794a27.274 27.274 0 01-3.002 3.855c-3.354 3.578-7.3 5.755-11.806 5.755s-8.452-2.177-11.806-5.755a27.422 27.422 0 01-3.002-3.855C.68 17.597.328 16.972.14 16.597s-.188-.817 0-1.193c.187-.375.539-1 1.052-1.794a27.274 27.274 0 013.002-3.855C7.548 6.177 11.494 4 16 4zm0 2.667c-3.66 0-6.965 1.823-9.861 4.912A24.71 24.71 0 002.854 16a24.637 24.637 0 003.285 4.421c2.896 3.089 6.2 4.912 9.861 4.912s6.965-1.823 9.861-4.912A24.71 24.71 0 0029.146 16a24.637 24.637 0 00-3.285-4.421C22.965 8.49 19.661 6.667 16 6.667zm0 4a5.333 5.333 0 110 10.667 5.333 5.333 0 010-10.667zm0 2.666a2.667 2.667 0 100 5.334 2.667 2.667 0 000-5.334z"/></symbol><symbol viewBox="0 0 32 32" id="facebook" xmlns="http://www.w3.org/2000/svg"><path d="M19 6h5V0h-5c-3.86 0-7 3.14-7 7v3H8v6h4v16h6V16h5l1-6h-6V7c0-.542.458-1 1-1z"/></symbol><symbol viewBox="0 0 32 32" id="file" xmlns="http://www.w3.org/2000/svg"><path d="M17.455 0c.062 0 .123.004.183.011L17.455 0a1.44 1.44 0 01.363.046l.044.012a1.6 1.6 0 01.133.045l.039.017c.041.017.081.037.12.058l.046.026c.041.024.08.05.118.079l.029.022.018.014.119.106 10.182 10.182c.043.043.083.088.12.136l-.12-.136a1.493 1.493 0 01.306.448l.016.04c.018.043.033.087.046.132l.012.044c.012.044.021.089.028.135l.006.046c.008.06.012.121.012.183v16a4.364 4.364 0 01-4.364 4.364H7.273a4.364 4.364 0 01-4.364-4.364V4.362A4.364 4.364 0 017.273-.002zM16 2.909H7.273c-.803 0-1.455.651-1.455 1.455v23.273c0 .803.651 1.455 1.455 1.455h17.455c.803 0 1.455-.651 1.455-1.455V13.092h-8.727a1.455 1.455 0 01-1.445-1.285l-.01-.17V2.91zm8.125 7.273l-5.216-5.215v5.215h5.216z"/></symbol><symbol viewBox="0 0 32 32" id="file-text" xmlns="http://www.w3.org/2000/svg"><path d="M18.909 0c.062 0 .123.004.183.011L18.909 0a1.44 1.44 0 01.363.046l.044.012a1.6 1.6 0 01.133.045l.039.017c.041.017.081.037.12.058l.046.026c.041.024.08.05.118.079l.029.022.018.014.119.106 8.727 8.727c.043.043.083.088.12.136l-.12-.136a1.493 1.493 0 01.306.448l.016.04c.018.043.033.087.046.132l.012.044c.012.044.021.089.028.135l.006.046c.008.06.012.121.012.183v17.455a4.364 4.364 0 01-4.364 4.364H7.272a4.364 4.364 0 01-4.364-4.364V4.362A4.364 4.364 0 017.272-.002zm-1.454 2.909H7.273c-.803 0-1.455.651-1.455 1.455v23.273c0 .803.651 1.455 1.455 1.455h17.455c.803 0 1.455-.651 1.455-1.455v-16H18.91a1.455 1.455 0 01-1.445-1.285l-.01-.17V2.909zm4.363 18.909a1.455 1.455 0 010 2.91H10.182a1.455 1.455 0 010-2.91zm0-5.818a1.455 1.455 0 010 2.91H10.182a1.455 1.455 0 010-2.91zm-8.727-5.818a1.455 1.455 0 010 2.91h-2.909a1.455 1.455 0 010-2.91zm7.273-5.215v3.76h3.761l-3.761-3.76z"/></symbol><symbol viewBox="0 0 32 32" id="filter" xmlns="http://www.w3.org/2000/svg"><path d="M9.224 28.856c-1.023 0-1.858-.833-1.858-1.858s.835-1.858 1.858-1.858c1.025 0 1.859.833 1.859 1.858s-.835 1.858-1.859 1.858zm21.043-3.429H13.949c-.663-1.985-2.52-3.43-4.725-3.43s-4.06 1.444-4.723 3.43H1.733a1.572 1.572 0 000 3.144h2.768c.663 1.985 2.518 3.43 4.723 3.43s4.061-1.444 4.725-3.43h16.318a1.572 1.572 0 100-3.144zm-8.36-7.568A1.859 1.859 0 1123.766 16a1.86 1.86 0 01-1.859 1.859zm8.36-3.432h-3.636c-.663-1.984-2.518-3.428-4.725-3.428-2.204 0-4.058 1.444-4.723 3.428H1.732a1.572 1.572 0 000 3.144h15.451c.663 1.987 2.52 3.431 4.723 3.431 2.207 0 4.061-1.444 4.725-3.431h3.636a1.572 1.572 0 100-3.144zM13.339 6.859A1.859 1.859 0 1115.198 5a1.86 1.86 0 01-1.859 1.859zm16.928-3.431H18.064C17.401 1.444 15.544 0 13.339 0c-2.204 0-4.06 1.444-4.723 3.428H1.733a1.572 1.572 0 000 3.144h6.883c.663 1.987 2.518 3.431 4.723 3.431 2.207 0 4.061-1.444 4.725-3.431h12.203a1.572 1.572 0 100-3.144z"/></symbol><symbol viewBox="0 0 32 32" id="folder" xmlns="http://www.w3.org/2000/svg"><path d="M10.858 4.364H4.364c-.803 0-1.455.651-1.455 1.455v20.364c0 .803.651 1.455 1.455 1.455h23.273c.803 0 1.455-.651 1.455-1.455v-16c0-.803-.651-1.455-1.455-1.455H14.546c-.486 0-.941-.243-1.21-.648l-2.477-3.716zm4.466 1.454h12.312A4.364 4.364 0 0132 10.182v16a4.364 4.364 0 01-4.364 4.364H4.363a4.364 4.364 0 01-4.364-4.364V5.818a4.364 4.364 0 014.364-4.364h7.273c.486 0 .941.243 1.21.648l2.477 3.716z"/></symbol><symbol viewBox="0 0 32 32" id="instagram" xmlns="http://www.w3.org/2000/svg"><path d="M15.911 2.872h6.453c4.326.213 6.347 2.252 6.542 6.542 0 1.773.089 2.198.089 6.453s0 4.769-.089 6.453c-.195 4.29-2.216 6.347-6.542 6.542-1.773 0-2.198.089-6.453.089s-4.769 0-6.453-.089c-4.326-.195-6.329-2.269-6.542-6.542V9.414c.213-4.29 2.216-6.329 6.542-6.542 1.684.018 2.198 0 6.453 0zm0-2.872H9.334C3.501.355.31 3.546.044 9.378v13.154c.266 5.833 3.457 9.024 9.29 9.378 1.773 0 2.252.089 6.577.089s4.875 0 6.577-.089c5.833-.355 9.024-3.546 9.378-9.378 0-1.773.089-2.252.089-6.577s-.089-4.875-.089-6.577C31.511 3.545 28.32.354 22.488.088c-1.702-.089-2.252-.089-6.577-.089zm0 7.765c-4.524 0-8.191 3.667-8.191 8.191s3.667 8.191 8.191 8.191a8.19 8.19 0 100-16.382zm0 13.509a5.32 5.32 0 110-10.638 5.32 5.32 0 010 10.638zm8.51-15.743a1.915 1.915 0 100 3.83 1.915 1.915 0 000-3.83z"/></symbol><symbol viewBox="0 0 24 24" id="link" xmlns="http://www.w3.org/2000/svg"><path d="M5.695 9.687a6 6 0 019.048.648 1 1 0 01-1.602 1.198A4 4 0 007.11 11.1l-2.988 2.987a4 4 0 00.049 5.608c1.543 1.542 4.038 1.564 5.595.06l1.71-1.71a1 1 0 011.414 1.415l-1.722 1.722a6 6 0 01-8.472-8.497zm7.022-7.003a6 6 0 018.472 8.497l-3 3a6 6 0 01-9.048-.648 1 1 0 111.602-1.198 4 4 0 006.032.431l2.988-2.987a4 4 0 00-.049-5.607 3.997 3.997 0 00-5.597-.06l-1.72 1.71a1 1 0 01-1.41-1.418z"/></symbol><symbol viewBox="0 0 32 32" id="linkedin" xmlns="http://www.w3.org/2000/svg"><path d="M12 12h5.535v2.837h.079c.77-1.381 2.655-2.837 5.464-2.837C28.92 12 30 15.637 30 20.367V30h-5.769v-8.54c0-2.037-.042-4.657-3.001-4.657-3.005 0-3.463 2.218-3.463 4.509V30H12V12zM2 12h6v18H2V12zm6-5a3 3 0 11-6 0 3 3 0 016 0z"/></symbol><symbol viewBox="0 0 32 32" id="mail" xmlns="http://www.w3.org/2000/svg"><path d="M27.636 2.909A4.373 4.373 0 0132 7.273v17.455a4.373 4.373 0 01-4.364 4.364H4.363a4.373 4.373 0 01-4.364-4.364V7.273a4.373 4.373 0 014.364-4.364h23.273zm1.455 7.157l-12.257 8.581a1.453 1.453 0 01-1.668 0L2.909 10.068v14.66c0 .797.658 1.455 1.455 1.455h23.273c.797 0 1.455-.658 1.455-1.455V10.066zm-1.455-4.248H4.363c-.564 0-1.059.33-1.3.806l12.936 9.055 12.936-9.055a1.463 1.463 0 00-1.3-.806z"/></symbol><symbol viewBox="0 0 32 32" id="mapmarker" xmlns="http://www.w3.org/2000/svg"><path d="M16 15.293a2.623 2.623 0 110-5.246 2.623 2.623 0 010 5.246zM16 0C9.874 0 4.909 4.966 4.909 11.091V32h1.353c11.503 0 20.828-9.326 20.828-20.829v-.08C27.09 4.966 22.125 0 15.999 0zm0 17.954a5.29 5.29 0 005.284-5.284c0-2.913-2.371-5.283-5.284-5.283s-5.284 2.37-5.284 5.283A5.29 5.29 0 0016 17.954zm0-15.293c4.648 0 8.429 3.782 8.429 8.429v.08c0 9.578-7.45 17.448-16.859 18.122V11.091c0-4.648 3.782-8.429 8.429-8.429z"/></symbol><symbol viewBox="0 0 32 32" id="maximize" xmlns="http://www.w3.org/2000/svg"><path d="M9.6 0H4.8A4.8 4.8 0 000 4.8v4.8a1.6 1.6 0 103.2 0V4.8a1.6 1.6 0 011.6-1.6h4.8a1.6 1.6 0 100-3.2zM32 9.6V4.8A4.8 4.8 0 0027.2 0h-4.8a1.6 1.6 0 100 3.2h4.8a1.6 1.6 0 011.6 1.6v4.8a1.6 1.6 0 103.2 0zM22.4 32h4.8a4.8 4.8 0 004.8-4.8v-4.8a1.6 1.6 0 10-3.2 0v4.8a1.6 1.6 0 01-1.6 1.6h-4.8a1.6 1.6 0 100 3.2zM0 22.4v4.8A4.8 4.8 0 004.8 32h4.8a1.6 1.6 0 100-3.2H4.8a1.6 1.6 0 01-1.6-1.6v-4.8a1.6 1.6 0 10-3.2 0z"/></symbol><symbol viewBox="0 0 32 32" id="menu" xmlns="http://www.w3.org/2000/svg"><path d="M29.867 27.429c1.178 0 2.133 1.023 2.133 2.286s-.955 2.286-2.133 2.286H2.134c-1.178 0-2.133-1.023-2.133-2.286s.955-2.286 2.133-2.286zm0-13.715C31.045 13.714 32 14.737 32 16s-.955 2.286-2.133 2.286H2.134C.956 18.286.001 17.263.001 16s.955-2.286 2.133-2.286zm0-13.714C31.045 0 32 1.023 32 2.286s-.955 2.286-2.133 2.286H2.134C.956 4.572.001 3.549.001 2.286S.956 0 2.134 0z"/></symbol><symbol viewBox="0 0 32 32" id="minimize" xmlns="http://www.w3.org/2000/svg"><path d="M8 1.6v4.8A1.6 1.6 0 016.4 8H1.6a1.6 1.6 0 100 3.2h4.8a4.8 4.8 0 004.8-4.8V1.6a1.6 1.6 0 10-3.2 0zM30.4 8h-4.8A1.6 1.6 0 0124 6.4V1.6a1.6 1.6 0 10-3.2 0v4.8a4.8 4.8 0 004.8 4.8h4.8a1.6 1.6 0 100-3.2zM24 30.4v-4.8a1.6 1.6 0 011.6-1.6h4.8a1.6 1.6 0 100-3.2h-4.8a4.8 4.8 0 00-4.8 4.8v4.8a1.6 1.6 0 103.2 0zM1.6 24h4.8A1.6 1.6 0 018 25.6v4.8a1.6 1.6 0 103.2 0v-4.8a4.8 4.8 0 00-4.8-4.8H1.6a1.6 1.6 0 100 3.2z"/></symbol><symbol viewBox="0 0 32 32" id="photo" xmlns="http://www.w3.org/2000/svg"><path d="M20 2.667c.446 0 .862.223 1.109.594l2.271 3.406H28a4 4 0 014 4v14.667a4 4 0 01-4 4H4a4 4 0 01-4-4V10.667a4 4 0 014-4h4.62l2.271-3.406A1.333 1.333 0 0112 2.667h8zm-.714 2.666h-6.573l-2.271 3.406a1.333 1.333 0 01-1.109.594H4c-.736 0-1.333.597-1.333 1.333v14.667c0 .736.597 1.333 1.333 1.333h24c.736 0 1.333-.597 1.333-1.333V10.666c0-.736-.597-1.333-1.333-1.333h-5.333c-.446 0-.862-.223-1.109-.594l-2.271-3.406zM16 10.667a6.667 6.667 0 110 13.334 6.667 6.667 0 010-13.334zm0 2.666a4 4 0 100 8 4 4 0 000-8z"/></symbol><symbol viewBox="0 0 32 32" id="play" xmlns="http://www.w3.org/2000/svg"><path d="M7.856 3.079c-.848 0-1.539.691-1.539 1.539V27.38a1.54 1.54 0 002.401 1.278l16.289-10.975a1.545 1.545 0 00.043-2.525L8.758 3.369a1.52 1.52 0 00-.901-.291zM7.866 32c-.297 0-.594-.028-.893-.086a4.584 4.584 0 01-2.946-1.952 4.593 4.593 0 01-.788-2.582V4.618A4.624 4.624 0 017.857 0c.979 0 1.917.303 2.708.877l16.289 11.787a4.626 4.626 0 01-.126 7.573L10.438 31.21c-.771.52-1.659.79-2.571.79z"/></symbol><symbol viewBox="0 0 32 32" id="print" xmlns="http://www.w3.org/2000/svg"><path d="M24.727 0c.803 0 1.455.651 1.455 1.455v8.727h1.455a4.363 4.363 0 014.356 4.107l.007.256v7.273a4.364 4.364 0 01-4.364 4.364h-1.455v4.364c0 .803-.651 1.455-1.455 1.455H7.271a1.455 1.455 0 01-1.455-1.455v-4.364H4.361a4.363 4.363 0 01-4.356-4.107l-.007-.256v-7.273a4.364 4.364 0 014.364-4.364h1.455V1.455c0-.746.561-1.361 1.285-1.445l.17-.01zm-1.454 20.364H8.728v8.727h14.545v-8.727zm4.363-7.273H4.363c-.803 0-1.455.651-1.455 1.455v7.273c0 .803.651 1.455 1.455 1.455h1.455V18.91c0-.803.651-1.455 1.455-1.455h17.455c.803 0 1.455.651 1.455 1.455v4.364h1.455c.746 0 1.361-.561 1.445-1.285l.01-.17v-7.273c0-.803-.651-1.455-1.455-1.455zM23.273 2.909H8.728v7.273h14.545V2.909z"/></symbol><symbol viewBox="0 0 32 32" id="question-circle" xmlns="http://www.w3.org/2000/svg"><path d="M19.657 8.515a5.76 5.76 0 00-1.771-.779l-.04-.009a8.311 8.311 0 00-2.056-.252h-.02.001-.02a5.82 5.82 0 00-3.596 1.237l.013-.01a4.561 4.561 0 00-1.138 1.286l-.012.021a3.027 3.027 0 00-.434 1.561v.001c0 .446.145.78.434 1.008.266.215.608.345.981.345h.029-.001c.355 0 .632-.074.832-.223.198-.147.365-.33.498-.543.132-.213.25-.446.355-.698.101-.252.239-.485.407-.698.175-.213.392-.396.667-.543.273-.147.646-.221 1.119-.221.665 0 1.187.165 1.563.498s.566.803.566 1.408c0 .368-.097.696-.285.975-.212.305-.448.57-.713.805l-.005.004c-.279.25-.582.497-.897.73l-.034.024a8.949 8.949 0 00-.933.789l.002-.002a4.294 4.294 0 00-.711.899l-.011.02a2.26 2.26 0 00-.287 1.166v-.003c0 .355.116.692.355 1.008.235.318.59.477 1.065.477.368 0 .646-.058.832-.176.18-.115.325-.268.427-.449l.003-.006c.103-.184.188-.388.254-.609.074-.236.175-.442.304-.628l-.005.008c.118-.178.301-.355.543-.531l.813-.588c.365-.266.665-.498.958-.739l-.037.029a6.28 6.28 0 00.857-.844l.008-.01c.258-.31.469-.659.632-1.043.161-.384.244-.818.244-1.307 0-.783-.159-1.454-.479-2.017a4.062 4.062 0 00-1.265-1.364l-.015-.009zm-3.996 12.369h-.028c-.494 0-.94.204-1.259.533-.328.32-.532.766-.532 1.26v.029-.001c0 .504.176.933.531 1.288.32.33.767.535 1.262.535h.029-.001c.504 0 .933-.178 1.29-.535a1.75 1.75 0 00.532-1.258v-.057c0-.494-.203-.94-.531-1.26a1.748 1.748 0 00-1.259-.534h-.032.002zM16 2.909c-7.231 0-13.092 5.861-13.092 13.092S8.769 29.093 16 29.093c7.231 0 13.092-5.861 13.092-13.092S23.231 2.909 16 2.909zM16 0c8.836 0 15.999 7.163 15.999 15.999v.002C31.999 24.837 24.836 32 16 32S.001 24.837.001 16.001 7.164.002 16 .002z"/></symbol><symbol viewBox="0 0 32 32" id="refresh" xmlns="http://www.w3.org/2000/svg"><path d="M1.391 18.784c-.584 0-1.084.36-1.29.87l-.007.017a1.406 1.406 0 00-.094.507v8.345a1.391 1.391 0 002.782 0v-5.132l4.08 3.833a13.916 13.916 0 0022.957-5.195 1.392 1.392 0 00-2.623-.929c-1.275 3.603-4.309 6.3-8.037 7.143s-7.627-.285-10.36-3.018l-3.896-3.661h4.835a1.391 1.391 0 000-2.782H1.39zM12.226 1.04A13.914 13.914 0 002.18 9.969a1.392 1.392 0 002.623.929c1.275-3.603 4.309-6.3 8.037-7.143s7.627.285 10.36 3.018l3.896 3.661h-4.835a1.391 1.391 0 000 2.782h8.348c.584 0 1.084-.36 1.29-.87l.007-.018c.063-.163.094-.335.094-.507V3.476a1.391 1.391 0 00-2.782 0v5.132l-4.08-3.833a13.91 13.91 0 00-12.911-3.734z"/></symbol><symbol viewBox="0 0 32 32" id="reset" xmlns="http://www.w3.org/2000/svg"><path d="M1.455 14.532l-.076-.002-.066-.005a1.446 1.446 0 01-.115-.016l-.06-.012a1.288 1.288 0 01-.168-.048 1.433 1.433 0 01-.576-.376l.114.109a1.553 1.553 0 01-.11-.105l-.015-.016a1.343 1.343 0 01-.179-.241c-.016-.026-.03-.052-.044-.078a1.342 1.342 0 01-.117-.31 1.422 1.422 0 01-.02-.089l-.012-.073a1.399 1.399 0 01-.013-.195l.004.103-.004-.087V4.347a1.455 1.455 0 012.91 0v5.365l4.267-4.009A14.546 14.546 0 0124.1 3.06l.389.207A14.547 14.547 0 113.733 20.831a1.454 1.454 0 112.744-.966 11.638 11.638 0 0022.322-1.284c1.15-5.054-1.181-10.259-5.717-12.766S12.899 4.102 9.199 7.794L5.125 11.62l5.056.001c.746 0 1.361.562 1.445 1.285l.01.17c0 .803-.651 1.455-1.455 1.455H1.453z"/></symbol><symbol viewBox="0 0 32 32" id="restore" xmlns="http://www.w3.org/2000/svg"><path d="M19.68 9.76c.298 0 .583-.101.814-.28l.121-.107 1.91-1.91v6.755c0 .671.51 1.236 1.173 1.313l.14.008h.009c.671 0 1.236-.51 1.313-1.172l.008-.15V7.462l1.896 1.895a1.325 1.325 0 001.748.108l.121-.109a1.329 1.329 0 00.107-1.748l-.107-.121-4.153-4.153a1.536 1.536 0 00-.148-.128 2.171 2.171 0 00-.139-.091l-.09-.046-.055-.024-.143-.049-.09-.022-.129-.019-.033-.006-.032.002h-.008l-.107-.003-.068.003-.085.009-.06.009-.153.039-.088.033-.055.022-.142.076a2.333 2.333 0 00-.09.06l-.055.046-.101.088-4.169 4.169a1.314 1.314 0 00-.387.935 1.317 1.317 0 001.322 1.321zm12.151 6.701l-3.243 10.167a3.475 3.475 0 01-3.317 2.424H3.815c-.039 0-.074-.013-.113-.014v.014c-.117-.006-.225-.036-.339-.054a3.423 3.423 0 01-1.225-.386 3.936 3.936 0 01-2.139-3.491V6.887a3.943 3.943 0 013.939-3.939h6.512c.447 0 .863.22 1.11.592l2.208 3.315h2.773a3.5 3.5 0 00-.391 1.583c0 .375.074.737.187 1.084h-3.284c-.449 0-.863-.222-1.11-.594L9.735 5.616H3.936c-.701 0-1.271.57-1.271 1.271v10.832l1.076-3.373a3.472 3.472 0 013.318-2.424h12.182c.145.017.288.043.436.043.154 0 .307-.022.46-.043h.181v2.295c0 .131.022.255.036.383H7.059a.801.801 0 00-.765.559L3.05 25.326a.785.785 0 00.117.72c.044.06.118.14.22.206.008.005.017.006.025.009a.753.753 0 00.402.113H25.27c.35 0 .657-.225.767-.562l3.241-10.166a.79.79 0 00-.115-.718.787.787 0 00-.647-.329h-1.164l.005-.043.003-.065.009-.15.003-.063V11.92h.317c.104.009.205.027.31.027.109 0 .216-.017.323-.027h.194c1.123 0 2.147.52 2.81 1.427.663.909.846 2.043.504 3.112z"/></symbol><symbol viewBox="0 0 32 32" id="rss" xmlns="http://www.w3.org/2000/svg"><path d="M4.259 23.467A4.265 4.265 0 000 27.719a4.25 4.25 0 004.259 4.244 4.25 4.25 0 004.265-4.244 4.265 4.265 0 00-4.265-4.252zM.005 10.873v6.133c3.993 0 7.749 1.562 10.577 4.391A14.897 14.897 0 0114.966 32h6.16c0-11.651-9.478-21.127-21.121-21.127zM.012 0v6.136C14.255 6.136 25.848 17.74 25.848 32H32C32 14.36 17.648 0 .012 0z"/></symbol><symbol viewBox="0 0 32 32" id="save" xmlns="http://www.w3.org/2000/svg"><path d="M22.4 0a1.6 1.6 0 011.131.469l8 8c.3.3.469.707.469 1.131v17.6a4.8 4.8 0 01-4.8 4.8H4.8A4.8 4.8 0 010 27.2V4.8A4.8 4.8 0 014.8 0h17.6zm-.663 3.2H9.6V8h11.2a1.6 1.6 0 110 3.2H8a1.6 1.6 0 01-1.6-1.6V3.2H4.8a1.6 1.6 0 00-1.6 1.6v22.4a1.6 1.6 0 001.6 1.6h1.6V17.6a1.6 1.6 0 011.413-1.589L8 16h16a1.6 1.6 0 011.6 1.6v11.2h1.6a1.6 1.6 0 001.6-1.6V10.263L21.737 3.2zm.663 16H9.6v9.6h12.8v-9.6z"/></symbol><symbol viewBox="0 0 32 32" id="search" xmlns="http://www.w3.org/2000/svg"><path d="M14.4 0c7.953 0 14.4 6.447 14.4 14.4 0 3.4-1.178 6.524-3.148 8.987l5.88 5.881a1.6 1.6 0 11-2.263 2.263l-5.881-5.88a14.34 14.34 0 01-8.987 3.148c-7.953 0-14.4-6.447-14.4-14.4s6.447-14.4 14.4-14.4zm0 3.2C8.214 3.2 3.2 8.214 3.2 14.4s5.014 11.2 11.2 11.2c3.025 0 5.769-1.199 7.785-3.148l.124-.144c.046-.046.093-.088.142-.127a11.145 11.145 0 003.149-7.782c0-6.186-5.014-11.2-11.2-11.2z"/></symbol><symbol viewBox="0 0 32 32" id="setting" xmlns="http://www.w3.org/2000/svg"><path d="M16 0a4 4 0 014 4v.115a.873.873 0 00.538.799.862.862 0 00.945-.163l.079-.079a4 4 0 015.659-.001 4 4 0 010 5.659l-.07.07a.866.866 0 00-.173.956 1.3 1.3 0 01.085.265.862.862 0 00.708.38h.227a4 4 0 010 8h-.115a.867.867 0 00-.793.525.869.869 0 00.157.959l.079.079a4 4 0 01.001 5.659 4 4 0 01-5.659 0l-.07-.07a.873.873 0 00-.969-.168.865.865 0 00-.525.788V28a4 4 0 01-8 0c-.008-.445-.233-.759-.645-.914a.864.864 0 00-.946.163l-.079.079a4 4 0 01-5.659.001 4 4 0 010-5.659l.07-.07a.873.873 0 00.168-.969.865.865 0 00-.788-.525h-.227a4 4 0 010-8c.445-.008.759-.233.914-.645a.864.864 0 00-.163-.946l-.079-.079a4 4 0 01-.001-5.659 4 4 0 015.659 0l.07.07a.866.866 0 00.956.173 1.3 1.3 0 01.265-.085.862.862 0 00.38-.708V4a4 4 0 014-4zm0 2.667c-.736 0-1.333.597-1.333 1.333v.232a3.535 3.535 0 01-2.141 3.234 1.354 1.354 0 01-.352.097 3.54 3.54 0 01-3.649-.819l-.081-.081a1.334 1.334 0 10-1.886 1.888l.09.09c1.01 1.033 1.29 2.576.738 3.819a3.542 3.542 0 01-3.265 2.313h-.12a1.333 1.333 0 000 2.666h.232a3.53 3.53 0 013.228 2.128 3.54 3.54 0 01-.717 3.908l-.081.081a1.334 1.334 0 101.888 1.886l.09-.09c1.033-1.01 2.576-1.29 3.819-.738a3.542 3.542 0 012.313 3.265v.12a1.333 1.333 0 002.666 0v-.232a3.53 3.53 0 012.128-3.228 3.54 3.54 0 013.908.717l.081.081a1.334 1.334 0 101.886-1.888l-.09-.09a3.534 3.534 0 01-.707-3.897 3.53 3.53 0 013.233-2.128h.12a1.333 1.333 0 000-2.666h-.232a3.535 3.535 0 01-3.234-2.141 1.354 1.354 0 01-.097-.352 3.54 3.54 0 01.819-3.649l.081-.081a1.334 1.334 0 10-1.888-1.886l-.09.09a3.527 3.527 0 01-3.884.712 3.534 3.534 0 01-2.141-3.239v-.12c0-.736-.597-1.333-1.333-1.333zm0 8a5.333 5.333 0 110 10.666 5.333 5.333 0 010-10.666zm0 8a2.667 2.667 0 100-5.334 2.667 2.667 0 000 5.334z"/></symbol><symbol viewBox="0 0 32 32" id="share" xmlns="http://www.w3.org/2000/svg"><path d="M24.727 0a5.818 5.818 0 11-4.133 9.913l-7.721 4.504a5.848 5.848 0 01.001 3.163l7.725 4.502a5.818 5.818 0 11-1.47 2.511l-7.723-4.499a5.818 5.818 0 110-8.19L19.127 7.4a5.818 5.818 0 015.6-7.4zm0 23.273a2.906 2.906 0 00-2.424 1.3l-.072.145c-.029.05-.06.097-.094.142l-.049.096a2.908 2.908 0 102.639-1.683zM7.273 13.091a2.908 2.908 0 102.497 4.403l.014-.03.035-.055A2.89 2.89 0 0010.182 16c0-.515-.134-1-.369-1.419l-.029-.044-.014-.024a2.898 2.898 0 00-2.497-1.422zM24.727 2.909a2.908 2.908 0 00-2.546 4.318l.035.054.014.024a2.908 2.908 0 102.497-4.396z"/></symbol><symbol viewBox="0 0 32 32" id="star" xmlns="http://www.w3.org/2000/svg"><path d="M12.81 11.915a1.454 1.454 0 01-1.094.795L4.58 13.753l5.162 5.028c.343.334.5.816.419 1.288L8.943 27.17l6.38-3.355c.424-.223.93-.223 1.354 0l6.38 3.355-1.218-7.101a1.455 1.455 0 01.419-1.288l5.162-5.028-7.136-1.043a1.457 1.457 0 01-1.094-.795L16 5.453l-3.19 6.462zm-2.27-1.972l4.156-8.42c.534-1.081 2.075-1.081 2.608 0l4.156 8.42 9.294 1.358c1.192.174 1.668 1.64.804 2.481l-6.724 6.549 1.587 9.252c.204 1.188-1.043 2.094-2.11 1.533L16 26.745l-8.311 4.371c-1.067.561-2.314-.345-2.11-1.533l1.587-9.252-6.724-6.549c-.863-.841-.388-2.307.804-2.481l9.294-1.358z"/></symbol><symbol viewBox="0 0 32 32" id="table-sort" xmlns="http://www.w3.org/2000/svg"><path d="M17.013 22.36l3.253-3.213c.197-.198.308-.467.307-.747a1.053 1.053 0 00-1.8-.747l-2.507 2.453-2.467-2.467a1.027 1.027 0 00-.747-.307c-.582 0-1.053.472-1.053 1.053-.001.28.109.548.307.747l3.213 3.213a1.065 1.065 0 001.493 0v.013zM15.56 9.625l-3.253 3.213a1.055 1.055 0 00-.307.747 1.053 1.053 0 001.8.747l2.507-2.453 2.467 2.467c.197.2.466.311.747.307a1.054 1.054 0 001.054-1.054 1.052 1.052 0 00-.307-.747l-3.213-3.213a1.065 1.065 0 00-1.493 0v-.013z"/></symbol><symbol viewBox="0 0 32 32" id="telephone" xmlns="http://www.w3.org/2000/svg"><path d="M7.309 2.657a1.355 1.355 0 00-2.03-.126l-2.068 2.07c-.966.968-1.322 2.338-.9 3.54 1.853 5.173 4.699 9.59 8.335 13.215l.001.001a35.16 35.16 0 0012.971 8.259l.245.077c1.202.422 2.572.066 3.54-.9l2.068-2.068a1.353 1.353 0 00-.123-2.027l-.003-.002-4.614-3.588a1.351 1.351 0 00-1.169-.242l.009-.002-4.38 1.094a3.482 3.482 0 01-3.314-.918l-4.912-4.914a3.482 3.482 0 01-.915-3.338l-.005.024 1.096-4.38a1.35 1.35 0 00-.247-1.163l.002.003-3.588-4.614zm-3.54-1.634A3.479 3.479 0 016.237 0c1.117 0 2.111.525 2.75 1.341l.006.008 3.588 4.612c.658.846.89 1.948.63 2.988l-1.094 4.38a1.35 1.35 0 00.356 1.286l4.914 4.914a1.351 1.351 0 001.297.354l-.009.002 4.378-1.094c.254-.066.546-.104.846-.104a3.47 3.47 0 012.149.74l-.008-.006 4.612 3.588a3.49 3.49 0 01.326 5.222l-2.068 2.068c-1.48 1.48-3.692 2.13-5.754 1.404-5.488-1.964-10.173-4.983-14.019-8.839l-.001-.001A37.288 37.288 0 01.378 9.105l-.082-.26c-.724-2.06-.074-4.274 1.406-5.754L3.77 1.023z"/></symbol><symbol viewBox="0 0 32 32" id="time" xmlns="http://www.w3.org/2000/svg"><path d="M16 0c8.844 0 16 7.156 16 16s-7.156 16-16 16S0 24.844 0 16 7.156 0 16 0zm0 2.909c-7.23 0-13.091 5.862-13.091 13.092S8.77 29.093 16.001 29.093h.001c7.23 0 13.091-5.862 13.091-13.092S23.232 2.909 16.001 2.909H16zm0 2.909c.8 0 1.454.654 1.454 1.455v8.131l3.942 3.927c.567.567.567 1.498 0 2.066s-1.498.567-2.066 0l-4.364-4.364A1.501 1.501 0 0114.544 16V7.273c0-.8.655-1.455 1.455-1.455z"/></symbol><symbol viewBox="0 0 32 32" id="trash" xmlns="http://www.w3.org/2000/svg"><path d="M18.909 0a4.363 4.363 0 014.356 4.107l.007.256v1.455h5.818c.746 0 1.361.561 1.445 1.285l.01.17c0 .746-.561 1.361-1.285 1.445l-.17.01h-1.455v18.909a4.363 4.363 0 01-4.107 4.356l-.256.007H8.727a4.363 4.363 0 01-4.356-4.107l-.007-.256V8.728H2.909a1.455 1.455 0 01-1.445-1.285l-.01-.17c0-.746.561-1.361 1.285-1.445l.17-.01h5.818V4.363A4.363 4.363 0 0112.834.007L13.09 0h5.818zm5.818 8.727H7.272v18.909c0 .746.561 1.361 1.285 1.445l.17.01h14.545c.746 0 1.361-.561 1.445-1.285l.01-.17V8.727zm-11.636 4.364c.803 0 1.455.651 1.455 1.455v8.727a1.455 1.455 0 01-2.91 0v-8.727c0-.803.651-1.455 1.455-1.455zm5.818 0c.803 0 1.455.651 1.455 1.455v8.727a1.455 1.455 0 01-2.91 0v-8.727c0-.803.651-1.455 1.455-1.455zm0-10.182h-5.818c-.746 0-1.361.562-1.445 1.285l-.01.17v1.455h8.727V4.364c0-.746-.561-1.361-1.285-1.445l-.17-.01z"/></symbol><symbol viewBox="0 0 32 32" id="twitter" xmlns="http://www.w3.org/2000/svg"><path d="M32 7.075a12.941 12.941 0 01-3.769 1.031 6.601 6.601 0 002.887-3.631 13.21 13.21 0 01-4.169 1.594A6.565 6.565 0 0022.155 4a6.563 6.563 0 00-6.563 6.563c0 .512.056 1.012.169 1.494A18.635 18.635 0 012.23 5.195a6.56 6.56 0 00-.887 3.3 6.557 6.557 0 002.919 5.463 6.565 6.565 0 01-2.975-.819v.081a6.565 6.565 0 005.269 6.437 6.574 6.574 0 01-2.968.112 6.588 6.588 0 006.131 4.563 13.17 13.17 0 01-9.725 2.719 18.568 18.568 0 0010.069 2.95c12.075 0 18.681-10.006 18.681-18.681 0-.287-.006-.569-.019-.85A13.216 13.216 0 0032 7.076z"/></symbol><symbol viewBox="0 0 32 32" id="upload" xmlns="http://www.w3.org/2000/svg"><path d="M29.091 21.818c.803 0 1.455.651 1.455 1.455v4.364a4.364 4.364 0 01-4.364 4.364H5.818a4.364 4.364 0 01-4.364-4.364v-4.364a1.455 1.455 0 012.91 0v4.364c0 .803.651 1.455 1.455 1.455h20.364c.803 0 1.455-.651 1.455-1.455v-4.364c0-.803.651-1.455 1.455-1.455zM16 0h.028l.102.005a2.308 2.308 0 01.162.023 1.011 1.011 0 01.162.043c.029.009.057.02.086.031a1.483 1.483 0 01.326.182c.057.042.111.089.163.14l-.131-.117.013.01.119.106 5.818 5.818a1.455 1.455 0 01-2.057 2.057l-3.335-3.335v16.852c0 .746-.561 1.361-1.285 1.445l-.17.01a1.455 1.455 0 01-1.455-1.455V4.963l-3.335 3.335a1.455 1.455 0 01-1.92.121l-.137-.121a1.455 1.455 0 010-2.057L14.972.423l.119-.106.013-.01.031-.024a1.38 1.38 0 01.251-.149l.075-.033.087-.032.067-.02c.031-.009.063-.016.095-.023a1.39 1.39 0 01.292-.029l-.13.006c.034-.003.069-.005.103-.006z"/></symbol><symbol viewBox="0 0 32 32" id="user" xmlns="http://www.w3.org/2000/svg"><path d="M22.4 19.2a8 8 0 018 8v3.2a1.6 1.6 0 11-3.2 0v-3.2a4.8 4.8 0 00-4.8-4.8H9.6a4.8 4.8 0 00-4.8 4.8v3.2a1.6 1.6 0 11-3.2 0v-3.2a8 8 0 018-8zM16 0a8 8 0 110 16 8 8 0 010-16zm0 3.2a4.8 4.8 0 100 9.6 4.8 4.8 0 000-9.6z"/></symbol><symbol viewBox="0 0 32 32" id="valid" xmlns="http://www.w3.org/2000/svg"><path d="M20.364 1.455a1.455 1.455 0 010 2.91h-16c-.803 0-1.455.651-1.455 1.455v20.364c0 .803.651 1.455 1.455 1.455h20.364c.803 0 1.455-.651 1.455-1.455V16.002a1.455 1.455 0 012.91 0v10.182a4.364 4.364 0 01-4.364 4.364H4.365a4.364 4.364 0 01-4.364-4.364V5.82a4.364 4.364 0 014.364-4.364zm9.153.426a1.455 1.455 0 012.057 2.057l-16 16a1.455 1.455 0 01-2.057 0l-4.364-4.364a1.455 1.455 0 012.057-2.057l3.335 3.335z"/></symbol><symbol viewBox="0 0 32 32" id="view-projection" xmlns="http://www.w3.org/2000/svg"><path d="M2.778 10.839v-4.03c0-.754.613-1.367 1.367-1.367h2.662v1.317a1.375 1.375 0 102.75 0V5.442h10.861v1.317a1.375 1.375 0 102.749 0V5.442h2.699c.754 0 1.367.613 1.367 1.367v4.03H2.778zm23.089-8.148h-2.699V1.375a1.375 1.375 0 10-2.749 0v1.316H9.558V1.375a1.375 1.375 0 10-2.75 0v1.316H4.146A4.122 4.122 0 00.029 6.808v18.984a4.122 4.122 0 004.117 4.116H14.29c.758 0 1.375-.616 1.375-1.375 0-.758-.617-1.374-1.375-1.374H4.146a1.369 1.369 0 01-1.367-1.367V13.588h24.455v.862a1.375 1.375 0 002.749 0V6.807a4.121 4.121 0 00-4.116-4.117zm-.204 23.061a4.353 4.353 0 01-3.06 1.249c-2.41 0-4.37-1.96-4.37-4.37 0-2.409 1.96-4.37 4.37-4.37s4.372 1.961 4.372 4.37c0 1.166-.454 2.245-1.312 3.121zm6.309 4.893c0-.363-.141-.702-.396-.958l-3.1-3.1.04-.061a7.04 7.04 0 001.166-3.896c0-3.903-3.176-7.08-7.08-7.08s-7.078 3.176-7.078 7.08c0 3.903 3.175 7.08 7.078 7.08a7.019 7.019 0 003.896-1.167l.061-.04 3.1 3.1c.254.256.595.397.958.397s.702-.14.959-.397a1.35 1.35 0 00.396-.958z"/></symbol><symbol viewBox="0 0 32 32" id="view-results" xmlns="http://www.w3.org/2000/svg"><path d="M22.018 14.215h-2.395l-2.485 5.807a1.197 1.197 0 01-1.102.727c-.025 0-.051 0-.078-.003a1.196 1.196 0 01-1.076-.869l-2.402-8.508-1.379 3.657a1.199 1.199 0 01-1.123.776H7.193a1.199 1.199 0 010-2.398h1.954l2.372-6.292c.183-.484.614-.82 1.173-.775a1.2 1.2 0 011.103.871l2.471 8.752 1.463-3.415a1.198 1.198 0 011.102-.728h3.185a1.2 1.2 0 010 2.398zm-18.483.045c0-6.211 5.054-11.263 11.263-11.263 6.211 0 11.264 5.052 11.264 11.263s-5.054 11.263-11.264 11.263c-6.209 0-11.263-5.052-11.263-11.263zm27.489 15.182l-5.646-5.644c2.279-2.528 3.681-5.866 3.681-9.538C29.059 6.384 22.673 0 14.797 0S.537 6.384.537 14.26c0 7.876 6.384 14.26 14.26 14.26a14.18 14.18 0 008.349-2.716l5.758 5.756c.292.294.676.439 1.06.439s.766-.145 1.06-.439a1.5 1.5 0 000-2.119z"/></symbol><symbol viewBox="0 0 32 32" id="warning" xmlns="http://www.w3.org/2000/svg"><path d="M15.999 1.951c1.466 0 2.825.765 3.589 2.025l11.85 19.783c.745 1.29.749 2.879.012 4.173s-2.107 2.1-3.612 2.116H4.146c-1.49-.016-2.859-.822-3.597-2.116s-.733-2.883.023-4.192L12.41 3.977a4.195 4.195 0 013.589-2.025zm0 2.796c-.487 0-.94.254-1.193.67L2.981 25.157a1.398 1.398 0 001.18 2.096h23.661a1.397 1.397 0 001.206-2.077L17.194 5.419a1.396 1.396 0 00-1.195-.673zm-.988 15.927a1.398 1.398 0 111.977 1.977 1.398 1.398 0 01-1.977-1.977zm.988-10.193c.772 0 1.398.626 1.398 1.398v5.591a1.398 1.398 0 01-2.796 0v-5.591c0-.772.626-1.398 1.398-1.398z"/></symbol><symbol viewBox="0 0 32 32" id="youtube" xmlns="http://www.w3.org/2000/svg"><path d="M31.681 9.6s-.313-2.206-1.275-3.175C29.187 5.15 27.825 5.144 27.2 5.069c-4.475-.325-11.194-.325-11.194-.325h-.012s-6.719 0-11.194.325c-.625.075-1.987.081-3.206 1.356C.631 7.394.325 9.6.325 9.6s-.319 2.588-.319 5.181v2.425c0 2.587.319 5.181.319 5.181s.313 2.206 1.269 3.175c1.219 1.275 2.819 1.231 3.531 1.369 2.563.244 10.881.319 10.881.319s6.725-.012 11.2-.331c.625-.075 1.988-.081 3.206-1.356.962-.969 1.275-3.175 1.275-3.175s.319-2.587.319-5.181v-2.425c-.006-2.588-.325-5.181-.325-5.181zM12.694 20.15v-8.994l8.644 4.513-8.644 4.481z"/></symbol></svg>