<svg height="90" viewBox="0 0 108 90" width="108" xmlns="http://www.w3.org/2000/svg"><g fill="none" fill-rule="evenodd" transform="translate(-3 -10)"><path d="m77 47c0-20.4348688-16.5651313-37-37-37-20.4348688 0-37 16.5651312-37 37 0 20.4348687 16.5651312 37 37 37 20.4348687 0 37-16.5651313 37-37" fill="#f2f3f7"/><path d="m21.1252477 34.6895297v48.5506537c0 2.5185651 2.0330586 4.5516237 4.5516238 4.5516237h80.4120205v-53.1022774z" fill="#fff"/><path d="m102.21252 30.1379059h-77.2109009c-2.14097 0-3.8764662 1.7354963-3.8764662 3.8762766v15.4882275s5.343227-2.7634046 16.308468-2.7634046c15.5528984.2344086 27.668752 6.6394916 45.5562541 6.6394916 17.887502 0 23.098922-5.3932949 23.098922-5.3932949v-13.9710196c0-2.1407803-1.735496-3.8762766-3.876277-3.8762766" fill="#1d71b8"/><g fill="#343852"><path d="m101.537268 29h-75.8603965c-3.1372067 0-5.6895297 2.552323-5.6895297 5.6895297v48.5506537c0 3.1372067 2.552323 5.6895297 5.6895297 5.6895297h39.802812c.6285034 0 1.137906-.5095922 1.137906-1.137906 0-.6283137-.5094026-1.1379059-1.137906-1.1379059h-39.802812c-1.8822861 0-3.4137178-1.5314318-3.4137178-3.4137178v-48.5506537c0-1.8822861 1.5314317-3.4137178 3.4137178-3.4137178h75.8603965c1.882286 0 3.413718 1.5314317 3.413718 3.4137178v24.8471246c0 .6285034.509592 1.1379059 1.137906 1.1379059.628313 0 1.137906-.5094025 1.137906-1.1379059v-24.8471246c0-3.1372067-2.552324-5.6895297-5.68953-5.6895297"/><path d="m106.801752 46.2424043c-.491576-.39125-1.203146-.3155792-1.594396.1765651-.01119.0132755-1.165595 1.3607458-4.498901 2.6972164-5.6250483 2.2553295-12.9673864 2.7286984-18.1363242 2.7286984-9.863748 0-17.4433395-1.8001672-24.77354-3.5411633-6.5310111-1.5511554-12.6995993-3.016399-19.8170113-3.016399-10.9692237 0-17.0710546 2.7040438-17.3253766 2.819162-.5719874.2586839-.8253611.931376-.5676254 1.5037427.2579253.5723667.931376.827068 1.504122.5704702 2.0186451-.9053939 8.0417709-2.617563 16.38888-2.617563 6.8507627 0 12.8934226 1.4352787 19.2911091 2.9547624 7.4576459 1.7711506 15.1692345 3.6027999 25.2994422 3.6027999 19.1957142 0 24.2034492-6.0176259 24.4073242-6.2738444.39125-.491765.314251-1.2131974-.177703-1.6044474"/><path d="m60.7717494 61.6351615h-11.578193c-.6283137 0-1.1379059.5095922-1.1379059 1.1379059s.5095922 1.1379059 1.1379059 1.1379059h11.578193c.6283137 0 1.137906-.5095922 1.137906-1.1379059s-.5095923-1.1379059-1.137906-1.1379059"/><path d="m49.1811912 71.2367929h-17.7600567c-.6285034 0-1.137906.5095922-1.137906 1.1379059s.5094026 1.1379059 1.137906 1.1379059h17.7600567c.6283137 0 1.1379059-.5095922 1.1379059-1.1379059s-.5095922-1.1379059-1.1379059-1.1379059"/><path d="m40.6373571 75.7980509h-9.2162795c-.6285034 0-1.1379059.5095922-1.1379059 1.1379059 0 .6283138.5094025 1.137906 1.1379059 1.137906h9.2162795c.6283138 0 1.137906-.5095922 1.137906-1.137906 0-.6283137-.5095922-1.1379059-1.137906-1.1379059"/><path d="m43.5124851 80.3594986h-12.0913885c-.6285034 0-1.137906.5095922-1.137906 1.1379059 0 .6283138.5094026 1.137906 1.137906 1.137906h12.0913885c.6283138 0 1.137906-.5095922 1.137906-1.137906 0-.6283137-.5095922-1.1379059-1.137906-1.1379059"/></g><path d="m30.5305714 36.0339466c-.6372274.6478478-1.072666 1.6036888-1.072666 2.6124424 0 .9239797.3823364 1.8904411 1.072666 2.5809604.584125.5733149 1.5081047 1.0618559 2.7400775 1.0618559.4566796 0 .8602569-.0849637 1.5930683-.3502854v-2.177383c-.6478478.7115705-1.3275569.7434318-1.6036888.7434318-.5204023 0-1.0089432-.201599-1.3169364-.4883513-.371716-.3506646-.5735046-.8921182-.5735046-1.3806592 0-.4991614.1805477-1.0514251.6159864-1.4550024.3398545-.3079932.7434319-.4673 1.2744546-.4673.3079932 0 1.0089433.0424818 1.6036888.7752932v-2.1984343c-.7646728-.3079932-1.3169365-.3610954-1.656791-.3610954-1.1045274 0-2.049748.4673-2.6763548 1.1045273" fill="#fff"/><path d="m39.2604341 38.0730741c-.2230296.201599-.5841251.2230295-.7752933.2230295h-.6159864v-1.7629956h.6266069c.23365 0 .5735046.0318614.7859137.254891.1911682.1909785.2124091.4460591.2124091.6372273 0 .1697376-.0106205.4564899-.23365.6478478m-.2973728-3.0268298h-2.9312457v7.0838438h1.8373388v-2.3471207h1.1576296c.5522637 0 1.210732-.0743432 1.7629956-.6159864.5522637-.5416432.6266069-1.2003011.6266069-1.7629956 0-.5947455-.1062045-1.189491-.6584682-1.7207035-.5416432-.5204023-1.1788706-.6370376-1.794857-.6370376" fill="#fff"/><path d="m46.8434203 38.5190384c-.3717159-.4035773-.839016-.5628842-1.2850751-.7009501l-.5628841-.1699273c-.4354387-.1274454-.5628842-.2548909-.6159865-.318424-.0743432-.0955841-.0955841-.1913578-.0955841-.3188033 0-.1593068.0743432-.2761318.1805478-.3823364.1805477-.1699273.4248182-.2124091.6053659-.2124091.2442705 0 .6584683.0424818 1.210732.4781102l.7328114-1.4339512c-.6690887-.350475-1.4868638-.5733149-2.1878138-.5733149-.8602569 0-1.4550024.3079932-1.8160979.668899-.3079932.3079932-.6478478.839016-.6478478 1.710083 0 .3609058.0424818.8600672.4035773 1.2530241.2867523.3186137.722191.4781101 1.0195637.5735046l.4779205.1486864c.4566796.1380659.7328115.2124091.9133592.3719056.1486864.1272558.2017887.2865626.2017887.4246285 0 .1805478-.0743432.3398546-.1805478.4460592-.116825.1274454-.3398546.2442704-.7115705.2442704-.6372273 0-1.2319728-.350475-1.6249297-.7221909l-.7859137 1.4868637c.5097819.3504751.955841.5204023 1.072666.5628842.5204023.1911682.9452205.23365 1.3912797.23365.7540523 0 1.4868637-.116825 2.0922297-.722191.5097819-.5097819.6690887-1.1363887.6690887-1.7842365 0-.488541-.0955841-.8813082-.4566796-1.2638342" fill="#fff"/><path d="m31.5560522 64.5413543h10.6204555v-8.4212626h-10.6204555z" fill="#dee0ea"/><path d="m32.6939582 63.4034483h8.3446435v-6.1454507h-8.3446435zm9.4825495-8.4212626h-10.6204555c-.6283137 0-1.1379059.5095922-1.1379059 1.137906v8.4212626c0 .6283137.5095922 1.1377163 1.1379059 1.1377163h10.6204555c.6283137 0 1.1379059-.5094026 1.1379059-1.1377163v-8.4212626c0-.6283138-.5095922-1.137906-1.1379059-1.137906z" fill="#343852"/><path d="m89.2473715 58.6007456c-10.9768097 0-19.8754238 8.8984245-19.8754238 19.8752342s8.8986141 19.8752342 19.8754238 19.8752342c10.9768095 0 19.8752345-8.8984245 19.8752345-19.8752342s-8.898425-19.8752342-19.8752345-19.8752342" fill="#fff"/><path d="m97.7381412 69.890176-10.8487952 10.8487953-5.8418195-5.8416298-4.1727011 4.1727011 10.0145206 10.0143309 15.021496-15.0214964z" fill="#d20050"/><path d="m86.889327 87.4751089-8.4051423-8.4051422 2.5633228-2.5633228 5.03732 5.0371303c.4441626.443973 1.1648364.4441626 1.608999-.0001896l10.0442958-10.0441062 2.5635127 2.5633228zm15.825996-14.2168072-4.1727012-4.1727011c-.4441627-.4445419-1.1648364-.4445419-1.608999 0l-10.0442958 10.0441062-5.03732-5.0369407c-.4437833-.443973-1.1646467-.4443523-1.608999 0l-4.1727011 4.1723218c-.213547.213547-.3334064.5029544-.3334064.8048788 0 .3015451.1198594.5911421.3334064.8044995l10.0145206 10.0145206c.2220813.2220813.5133852.3332168.8044995.3332168s.5824182-.1111355.8044995-.3332168l15.0214965-15.0216861c.444542-.4441626.444542-1.1646467 0-1.608999z" fill="#343852"/><path d="m89.392758 97.3536308c-5.4152944 0-10.5796805-2.3296728-14.1688255-6.3918073-.0003793-.000569-.0007586-.0009483-.0011379-.0013276-3.0442777-3.4345794-4.7206028-7.8729816-4.7206028-12.4974313 0-4.6246395 1.6763251-9.0630416 4.7217407-12.4989486 3.589145-4.0621346 8.7533415-6.391997 14.1688255-6.391997 10.416391 0 18.890756 8.4745545 18.890756 18.8909456 0 10.4162013-8.474365 18.8905662-18.890756 18.8905662m0-40.0573237c-6.0675042 0-11.8533766 2.609977-15.8730293 7.1597042-3.4135282 3.8512427-5.2933488 8.8255985-5.2933488 14.0070533 0 5.1806961 1.8794413 10.1546726 5.2922109 14.005536 4.0207906 4.5508651 9.8068527 7.1608421 15.8741672 7.1608421 11.671312 0 21.166568-9.4950665 21.166568-21.1663781 0-11.6713117-9.495256-21.1667575-21.166568-21.1667575" fill="#343852"/></g></svg>