<svg height="77" viewBox="0 0 84 77" width="84" xmlns="http://www.w3.org/2000/svg"><g fill="none" fill-rule="evenodd" transform="translate(0 -.00014)"><path d="m37.0413877 70.2886616h-.0016943c-15.187604 0-27.49915286-12.193848-27.49915286-27.2362553v-30.7384311-1.0253136c2.15005236 2.3711425 6.46709996 4.3898859 15.23080836 4.5266503h12.2700388c15.187604 0 27.4991528 12.193848 27.4991528 27.2370944 0 15.0424073-12.3115488 27.2362553-27.4991528 27.2362553" fill="#f2f3f7" transform="matrix(-1 0 0 -1 74.081082 81.577324)"/><path d="m73.0672269 75.554684h-12.4369748c2.0646933 0 3.7310924-1.6663991 3.7310924-3.7310924 0-2.0525672-1.642147-3.7068403-3.6934706-3.7310924.0365337-4.97479-.1493991-11.990021-2.4132394-16.0320379 5.5224831 2.7861933 10.0114537 4.8023824 11.0815 6.082458 2.0646932 2.4510168 3.7310924 14.9243698 3.7310924 17.4117647" fill="#fff"/><path d="m60.6302521 75.554684h-9.9495798c1.2436974-2.9598445 3.7310924-11.1932773 3.7310924-11.1932773l-2.2007227-1.6542731 3.4444202-4.5642143-2.1388488-8.5564832c1.6287774.8830252 3.2210211 1.704021 4.7380211 2.4618992v.012126c2.2638403 4.0420169 2.4497731 11.0572479 2.4132394 16.0320379h-.0376218c-2.0646933 0-3.7310924 1.6663991-3.7310924 3.7310924s1.6663991 3.7310924 3.7310924 3.7310924" fill="#fff"/><path d="m53.3174508 48.8151882c2.2761219 0 3.8428698 1.2679496 4.9371681 3.2331471-1.517-.7578782-3.1092437-1.578874-4.738021-2.4618992z" fill="#fff"/><path d="m44.4621849 43.2185496c0 2.2517143 2.4873949 3.7310924 2.4873949 3.7310924s0 3.7432185-.6715966 9.9993277l-3.0594958-.0497479c-1.0942983 1.9152942-3.5574412 5.3853656-6.2184874 6.2184874-2.6610462-.8331218-5.1241891-4.3031932-6.2184874-6.2184874l-3.0594958.0497479c-.6715966-6.2561092-.6715966-9.9993277-.6715966-9.9993277s2.4873949-1.4793781 2.4873949-3.7310924v-2.9100967c.3109244.2478068.6461009.4724496.9946471.6838782 1.6918949 1.0067731 2.2882479 2.2262185 6.4675378 2.2262185s4.7756429-1.2194454 6.4675378-2.2262185c.3485462-.2114286.6837227-.4360714.9946471-.6838782z" fill="#fff"/><path d="m12.2256395 75.554684h-2.58704622v-9.9495798c0-4.1172605 3.33279832-7.4621849 7.46218492-7.4621849 4.1161722 0 7.4621848 3.3449244 7.4621848 7.4621849v9.9495798h-2.5868907z" fill="#fff"/><path d="m27.0504202 46.949642-6.5670336 2.6367941c-.2733026.1493992-.5466051.2975547-.8209958.4360715 1.5423403-1.8412942 3.9059874-3.0728656 7.3880294-3.0728656" fill="#fff"/><path d="m9.63865546 75.554684h-8.70588235c0-2.4873949 1.66639916-14.9607479 3.73109244-17.4117647 1.31785294-1.5667479 7.78523525-4.2532899 14.99852525-8.1204117-1.8778278 2.2007227-2.5615505 5.2857142-2.5615505 8.1204117-4.129542 0-7.46218484 3.3449244-7.46218484 7.4621849z" fill="#fff"/><path d="m20.4833555 49.5864361 6.5670336-2.6367941s0 3.7432185.6717521 9.9993277c.5100714 4.8631681 1.4307185 11.2553068 3.0593403 18.6057143h-6.2184874v-9.9495798c0-4.1172605-3.3460126-7.4621849-7.4621849-7.4621849 0-2.8346975.6838782-5.919689 2.5615505-8.1204117.2743907-.1385168.5476932-.2866723.8209958-.4360715" fill="#fff"/><path d="m52.2109954 62.7071958 2.2007227 1.6542731s-2.487395 8.2334328-3.7310925 11.1932773h-7.4621848c1.6287773-7.350563 2.5494243-13.7427017 3.0594958-18.6057143.6715966-6.2561092.6715966-9.9993277.6715966-9.9993277l6.3678865 1.8655462.1991471.7712479 2.1388487 8.5564832z" fill="#fff"/><path d="m60.667905 68.0924992c2.0513236.0242521 3.6934706 1.6785252 3.6934706 3.7310924 0 2.0646933-1.6663991 3.7310924-3.7310924 3.7310924s-3.7310924-1.6663991-3.7310924-3.7310924 1.6663991-3.7310924 3.7310924-3.7310924z" fill="#d20050"/><path d="m30.7815126 75.554684c-1.6287773-7.3504075-2.5492689-13.7425462-3.0594958-18.6057143l3.0594958-.0497479c1.0942983 1.9152942 3.5574412 5.3853656 6.2184874 6.2184874 2.6610462-.8331218 5.1241891-4.3031932 6.2184874-6.2184874l3.0594958.0497479c-.5102269 4.8631681-1.4307185 11.2553068-3.0594958 18.6057143z" fill="#1d71b8"/><path d="m21.9140895 22.0756924c3.0594958-1.4549706 5.3853655-4.6396134 7.5363403-10.0114537 4.4281849 4.3151638 11.0572479 1.9274201 13.3453404 1.9274201 6.3921386 0 5.8820672 8.0840336 9.2901092 8.0840336 0 0 .1372731.0996513.2987983.3351765.3230505.4227017.783374 1.3312227.783374 2.9974664 0 5.0125672-3.4322941 5.3234916-3.4322941 5.3234916-.7215 3.6934706-2.2761219 7.3249118-5.2735883 9.576626-.3109243.2478068-.6461008.4724496-.994647.6838782-1.691895 1.0067731-2.2882479 2.2262185-6.4675378 2.2262185-4.17929 0-4.7756429-1.2194454-6.4673824-2.2262185-.3487017-.2114286-.6838782-.4360714-.9948025-.6838782-2.9974664-2.2517142-4.5520883-5.8831554-5.2735883-9.576626 0 0-3.4322941-.3109244-3.4322941-5.3234916 0-1.6662437.4603236-2.5747647.783374-2.9974664.1615252-.2355252.2987983-.3351765.2987983-.3351765" fill="#fff"/><path d="m53.1680672 15.6082324c0 2.1509747 0 4.6638655-.7712479 6.7905882l-.012126.012126c-.1615252-.2356806-.2987983-.3351764-.2987983-.3351764-3.4080421 0-2.8979706-8.0840336-9.2901093-8.0840336-2.2882479 0-8.9171554 2.3877437-13.3453403-1.9275757-2.1509748 5.3719958-4.4768446 8.5564832-7.5363404 10.0116093 0 0-.1372731.0994958-.2987983.3351764l-.012126-.012126c-.7712479-2.1267227-.7712479-2.6866975-.7712479-8.1084412 0-4.39056301 2.698668-7.79736133 5.3853655-8.9050294 1.6917395-2.57476471 4.2532899-4.45243697 10.7827017-4.45243697 2.6489202 0 5.2238403.48581932 7.486437 1.50471848h.0133697c4.016521 1.15757143 7.5860883.7215 7.5860883.7215s.5100714 2.51289076-1.0700463 4.45243698c1.4806219 2.01494538 2.1522185 5.45952101 2.1522185 7.99666391" fill="#c5c8da"/><g fill="#343852"><path d="m43.2194046 76.4876903c-.0670042 0-.1346302-.0073067-.2027227-.0223865-.5029201-.1113109-.8203739-.6094118-.7087521-1.112332 1.3881219-6.2655924 2.4116849-12.4901428 3.042395-18.5012436.5215756-4.859437.635063-8.2167984.659626-9.4160337-.8309453-.6195168-2.4805546-2.1145966-2.4805546-4.2170672v-2.9100966c0-.5152017.4177269-.9327731.9327731-.9327731.5152017 0 .9327731.4175714.9327731.9327731v2.9100966c0 1.6841219 2.0135463 2.9184916 2.0339118 2.9307731.2798319.1689874.4534832.4733824.4534832.8003193 0 .1548404-.0077731 3.86479-.6768824 10.0988236-.6377058 6.0788823-1.6727731 12.3738571-3.0762857 18.7078529-.0963865.4351387-.4819327.7312941-.9097647.7312941"/><path d="m30.7805954 76.4876903c-.427832 0-.8133782-.2961554-.9097647-.7312941-1.4035126-6.3339958-2.4385799-12.6289706-3.0764412-18.7100294-.6689538-6.2318571-.6767269-9.9418067-.6767269-10.0966471 0-.3289579.1731849-.6336638.4558151-.8017184.0180336-.0108824 2.0315799-1.2452521 2.0315799-2.929374v-2.9100966c0-.5152017.4175714-.9327731.9327731-.9327731.5150462 0 .9327731.4175714.9327731.9327731v2.9100966c0 2.1024706-1.6496093 3.5975504-2.4805546 4.2170672.024563 1.1990799.1380504 4.5561303.6594705 9.4137017.6308656 6.0134328 1.6544286 12.2379832 3.0425505 18.5035756.1116218.5029202-.205832 1.0010211-.7087521 1.112332-.067937.0150798-.135874.0223865-.2027227.0223865"/><path d="m37 64.0504824c-.0938992 0-.1879538-.0141471-.2787437-.0425967-1.3375966-.4188151-2.721521-1.418437-4.1127521-2.9711933-1.3382185-1.4935252-2.289958-3.0674243-2.6369496-3.6746596-.2555798-.4474202-.1001176-1.0171891.3471471-1.2726135.4472647-.2558907 1.0171891-.1002731 1.2727689.3469916 1.231416 2.1554832 3.3547185 4.8742059 5.4085294 5.691937 2.0538109-.8177311 4.1771134-3.5364538 5.4085294-5.691937.2555798-.4471092.8251933-.6027269 1.2727689-.3469916.4472647.2554244.6027269.8251933.3471471 1.2726135-.3469916.6072353-1.2987311 2.1811344-2.6369496 3.6746596-1.3912311 1.5527563-2.7751555 2.5523782-4.1127521 2.9711933-.0907899.0284496-.1848445.0425967-.2787437.0425967"/><path d="m52.2102492 63.6400466c-.1957269 0-.392853-.0614075-.5610631-.1882647-.4113529-.310458-.4929706-.8953067-.182668-1.3065042l3.1760924-4.2085168-2.0957857-8.3753697-5.8593698-1.7166135c-.4945252-.1448907-.7777773-.6630462-.633042-1.1574159.1448908-.4943698.6636681-.7776219 1.157416-.6328866l6.3678865 1.8655462c.3152774.0923446.5587311.3438824.6409706.661958l.1991471.7712479 2.1405588 8.563479c.0684034.273458.0094832.563084-.160437.7880378l-3.4444201 4.5643698c-.1834454.2429874-.4626555.3709327-.7452857.3709327"/><path d="m50.6802214 76.4876903c-.1203277 0-.2428319-.0234748-.3608277-.0730672-.474937-.199458-.6981807-.7463739-.4985672-1.2213109 1.013458-2.4121513 2.9048109-8.5101555 3.5081596-10.4789286l-4.4510378-3.3373067c-.4124412-.3089034-.4963907-.8934412-.1876428-1.3058824.3085924-.4122857.8934411-.4962353 1.3057269-.1876428l4.976189 3.7321807c.3129454.2352142.4457101.6408151.3323782 1.0154789-.1019832.3381303-2.5158446 8.3141177-3.7640504 11.2848446-.150021.3569412-.4959244.5716344-.8603278.5716344"/><path d="m58.2538416 52.9813261c-.1400714 0-.2821639-.0317143-.4161723-.0985631-1.697647-.8480462-3.2564664-1.6581596-4.7655378-2.4762017-.4528613-.2456302-.6210714-.8118235-.3754412-1.2646848.2453194-.4530168.8118236-.620916 1.2645294-.3754412 1.4907269.8080924 3.0315127 1.6087227 4.7103488 2.4474412.4606344.2302395.6478109.7905252.417416 1.2513151-.1633908.326937-.4928152.5161345-.8351429.5161345"/><path d="m73.0672269 76.4874571c-.5150462 0-.9327731-.4177268-.9327731-.9327731 0-2.7495042-1.7427311-14.7109201-3.5117353-16.8107479-.7179244-.859084-3.8197059-2.3928739-7.4113488-4.1688739-1.0792184-.5338572-2.1954369-1.0857479-3.3767941-1.6817899-.4600126-.2321051-.6448571-.7930126-.4127521-1.2530252.2319496-.4597017.7933236-.6443908 1.2528698-.4125967 1.1749832.5927773 2.287626 1.142958 3.3637353 1.6751051 4.6296638 2.2894916 7.0886092 3.5356764 8.0134538 4.6419453 2.3610042 2.8026723 3.9481176 15.7167605 3.9481176 18.0099832 0 .5150463-.4177269.9327731-.9327731.9327731"/><path d="m.93277311 76.4874571c-.51504622 0-.93277311-.4177268-.93277311-.9327731 0-2.2932227 1.58711345-15.2073109 3.95044958-18.0127815.96604202-1.1485546 3.75347899-2.5295252 7.97272272-4.6198697 2.2044538-1.0922773 4.7028865-2.3302227 7.2984832-3.7216093.0068403-.0037311.0135252-.0073067.020521-.0107269.267084-.1347857.538521-.2823193.7937899-.4217689.0323361-.0175672.0657605-.0334243.0998067-.047105l6.5671891-2.6367941c.4778907-.1919958 1.0212311.0399538 1.2130714.518.1919958.4780462-.0399538 1.0212311-.5181554 1.2132269l-6.5157311 2.6161176c-.2515379.1374286-.518.281542-.789437.4186597-2.6182941 1.4035126-5.1271429 2.6464327-7.3413908 3.7435294-3.57236552 1.769937-6.6578235 3.2985966-7.3735714 4.1497521-1.76947059 2.1004496-3.51220168 14.0618655-3.51220168 16.8113697 0 .5150463-.41772689.9327731-.93277311.9327731"/><path d="m37 44.1513227c-3.6079664 0-4.8511975-.8931303-6.053542-1.7567227-.2946009-.211584-.5725672-.4113529-.8909538-.6007059-.4205252-.254958-.7745126-.4982563-1.0883908-.7474622-2.705042-2.0368655-4.5513109-5.2417185-5.4931008-9.5316974-1.5199538-.477269-3.5748529-2.1324748-3.5748529-6.1063992 0-1.8708319.5189327-2.9582899.9607563-3.5448487.2291512-.3288026.4447773-.4981009.5063403-.5427185l1.0956975 1.5098487s.0119706-.0071513.0317143-.024563c-.000311.0004664-.0469496.0418193-.1091345.1322983-.0088613.0132143-.0183445.0262731-.0281386.039021-.1778488.2327269-.5916891.9355714-.5916891 2.4309622 0 4.1129076 2.5578193 4.3921176 2.583626 4.3944496.4130631.0374664.7518152.343105.8314118.750105.8073151 4.1334286 2.4622101 7.1646303 4.9183571 9.0098109.0069958.0054412.0139916.0107269.0209874.0163236.2535589.2021008.5470715.4034243.8970168.6156302.3808824.2265084.7050211.4595462 1.0187437.6848109 1.050458.7546135 1.9577353 1.406311 4.9651513 1.406311s3.9146933-.6516975 4.9651513-1.406311c.3137226-.2252647.6378613-.4583025 1.0252731-.6888529.3434159-.2081639.6369285-.4094874.8904874-.6115882.0069958-.0055967.0139916-.0108824.0209874-.0163236 2.456147-1.8451806 4.111042-4.8763823 4.9183571-9.0098109.0795966-.407.4183487-.7126386.8314118-.750105.2537143-.0301597 2.583626-.4199034 2.583626-4.3944496 0-1.4953908-.4138403-2.1982353-.5916891-2.4309622-.0097941-.0127479-.0192773-.0258067-.0281386-.039021-.0621849-.090479-.1088235-.1318319-.1091345-.1322983.0197437.0174117.0317143.024563.0317143.024563l1.0956975-1.5098487c.061563.0446176.2771891.2139159.5063403.5427185.4418236.5865588.9607563 1.6740168.9607563 3.5448487 0 3.9739244-2.0548991 5.6291302-3.5748529 6.1063992-.9417899 4.2899789-2.7880588 7.4948319-5.4931008 9.5316974-.3138782.2492059-.6677101.4925042-1.0818614.7435757-.324916.1932395-.6028823.3930084-.8974832.6045924-1.2023445.8635924-2.4455756 1.7567227-6.053542 1.7567227"/><path d="m21.9146958 23.0086987c-.3487017 0-.6832563-.1965042-.842916-.5323025-.2213781-.4652983-.0234748-1.0218529.4416681-1.2430756 2.7855714-1.3246933 4.9662395-4.2595084 7.0708866-9.5158403.1158193-.2890042.3682899-.5012101.6726848-.5658824.304395-.0645168.6213824.0272059.8443152.244542 3.1574369 3.0769076 7.6227773 2.3737521 10.577647 1.9084538.8716765-.1372731 1.560063-.2456303 2.1167731-.2456303 4.2637059 0 5.8943488 3.1708068 7.0850336 5.4861051.828458 1.6105882 1.3780168 2.5979286 2.2050757 2.5979286.5152016 0 .9327731.4175714.9327731.9327731 0 .5150462-.4175715.9327731-.9327731.9327731-2.0074832 0-2.9512942-1.835542-3.8640126-3.6104538-1.1311429-2.1993235-2.3006849-4.4735798-5.4260967-4.4735798-.4107311 0-1.0667815.1032269-1.8265252.2229327-2.8502437.4486639-7.4553445 1.1737395-11.1475714-1.5463823-2.1545504 4.9898697-4.4970546 7.8855084-7.506958 9.3170042-.1293445.061563-.2656849.0906344-.4000042.0906344"/><path d="m52.3968349 23.3317647c-.1057143 0-.2129832-.0180336-.3180757-.0561218-.4842647-.1756723-.7345588-.7106177-.5588865-1.1948824.715437-1.9725042.715437-4.3632017.715437-6.4725126 0-2.2933782-.616874-5.6011471-1.9711051-7.44430672-.2516933-.3424832-.2400336-.811979.0286051-1.14140336.7760672-.95267227.9332395-2.10744538.9369706-2.86672269-1.3700883.05829832-4.0270925.02285294-6.9362564-.80700421-.0662268-.01368067-.1310546-.03404621-.1901302-.06063025-2.0665588-.9307521-4.5227059-1.42263445-7.1033782-1.42263445-6.4630294 0-8.6272184 1.9379916-10.0032142 4.03206723-.102916.15670588-.2507605.27858823-.4239454.35010084-2.3892983.98516386-4.8081345 4.06409241-4.8081345 8.04268071 0 5.3783697 0 5.8178613.715437 7.7903655.1755168.4842647-.0746218 1.0192101-.5588866 1.1948824-.4841092.1752058-1.0193655-.0744664-1.1950378-.5588866-.8270588-2.2807857-.8270588-2.9803655-.8270588-8.4263613 0-4.65438239 2.8221051-8.31971433 5.6956681-9.65047063 2.271147-3.29160084 5.6022353-4.63992437 11.4051722-4.63992437 2.8074916 0 5.4958992.5352563 7.7829034 1.54855882 3.7612521 1.07781933 7.1571681.68885294 7.1909034.6845.483021-.05736554.9296638.26444118 1.0262059.74046639.0223865.11037815.489084 2.51802101-.8520883 4.65655882.5822059.95966807 1.062895 2.17553782 1.4049118 3.56055047.3533655 1.4318067.5480042 3.000731.5480042 4.4176134 0 2.2629076 0 4.8277227-.8270588 7.1085084-.1375841.3793277-.4956135.6150084-.8769622.6150084"/><path d="m24.5630252 76.4874571h-2.4873949c-.5150463 0-.9327732-.4177268-.9327732-.9327731 0-.5150462.4177269-.9327731.9327732-.9327731h1.5546218v-9.0168067c0-3.6003487-2.929063-6.5294118-6.5294118-6.5294118-3.6003487 0-6.5294117 2.9290631-6.5294117 6.5294118v9.0168067h1.5546218c.5150462 0 .9327731.4177269.9327731.9327731 0 .5150463-.4177269.9327731-.9327731.9327731h-2.48739494c-.51504622 0-.93277311-.4177268-.93277311-.9327731v-9.9495798c0-4.629042 3.76607145-8.394958 8.39495795-8.394958 4.6288866 0 8.394958 3.765916 8.394958 8.394958v9.9495798c0 .5150463-.4177269.9327731-.9327731.9327731"/><path d="m17.1008403 59.0756924c-.5150462 0-.9327731-.4177269-.9327731-.9327731 0-3.5223067.988895-6.6211344 2.7846387-8.7259369 1.8882437-2.2538908 4.614584-3.4001135 8.0977143-3.4001135.5150462 0 .9327731.4177269.9327731.9327731s-.4177269.9327731-.9327731.9327731c-2.9052773 0-5.1504622.9215799-6.6730589 2.7390883-2.0399747 2.3910084-2.3437479 5.7382647-2.3437479 7.5214159 0 .5150462-.4177268.9327731-.9327731.9327731"/><path d="m60.6568206 69.0251945h-.026584c-1.5429622 0-2.7983194 1.2553572-2.7983194 2.7983194 0 1.5431176 1.2553572 2.7983193 2.7983194 2.7983193 1.5429621 0 2.7983193-1.2552017 2.7983193-2.7983193 0-1.5507353-1.2174244-2.7798194-2.7717353-2.7983194m-.026584 7.4621849c-2.5716555 0-4.6638656-2.0922101-4.6638656-4.6638655 0-2.5716555 2.0922101-4.6638656 4.6638656-4.6638656h.0376218c2.5559538.0303151 4.6262437 2.1223698 4.6262437 4.6638656 0 2.5716554-2.0922101 4.6638655-4.6638655 4.6638655"/><path d="m60.6680605 69.0252723h-.0069958c-.5150462-.0037311-.9296639-.4244118-.9259328-.9396135.0744664-10.1509033-1.2737016-13.7473655-2.2943109-15.5693823-.0169454-.0301597-.0320252-.0610967-.0453949-.0926555-1.0262059-1.8002521-2.3608488-2.6756597-4.0779286-2.6756597-.5152017 0-.9327731-.4177268-.9327731-.9327731 0-.5150462.4175714-.9327731.9327731-.9327731 2.4451092 0 4.380458 1.2489832 5.7521008 3.7121261.0172563.0312479.032958.0632731.0464832.0960756 2.2768992 4.1525504 2.5245504 10.943916 2.4845967 16.4087227-.0037311.5128697-.4206807.9259328-.9326177.9259328"/><path d="m73 26.0001399c6.0751322 0 11 4.9248678 11 11 0 6.0751323-4.9248678 11-11 11s-11-4.9248677-11-11c0-6.0751322 4.9248678-11 11-11zm0 2c-4.9705627 0-9 4.0294373-9 9 0 4.9705628 4.0294373 9 9 9s9-4.0294372 9-9c0-4.9705627-4.0294373-9-9-9zm0 4c.5522847 0 1 .4477153 1 1v3h3c.5128358 0 .9355072.3860402.9932723.8833789l.0067277.1166211c0 .5522848-.4477153 1-1 1h-3v3c0 .5128359-.3860402.9355072-.8833789.9932723l-.1166211.0067277c-.5522847 0-1-.4477152-1-1v-3h-3c-.5128358 0-.9355072-.3860402-.9932723-.8833789l-.0067277-.1166211c0-.5522847.4477153-1 1-1h3v-3c0-.5128358.3860402-.9355071.8833789-.9932723z"/></g></g></svg>