<svg height="76" viewBox="0 0 110 76" width="110" xmlns="http://www.w3.org/2000/svg"><g fill="none" fill-rule="evenodd" transform="translate(-3 -18)"><path d="m97.9893409 55.7433656c0-20.8449427-16.8984229-37.7433656-37.7433656-37.7433656-20.8460652 0-37.7444881 16.8984229-37.7444881 37.7433656s16.8984229 37.7433657 37.7444881 37.7433657c20.8449427 0 37.7433656-16.898423 37.7433656-37.7433657" fill="#f2f3f7"/><path d="m93.0139872 47.1650729h-7.0343684v13.7252684h18.2722972z" fill="#fff"/><path d="m85.9800678 60.8903413v-13.7252684h7.0343684l11.2368058 13.7252684zm25.7343172 6.8626342v-7.0512051c0-.9787729-.342346-1.9395865-.977651-2.7107069l-13.1763919-16.1104659c-.8059162-.994487-2.02377-1.5781589-3.3112154-1.5781589h-15.1316931v41.1758052h1.7162198 5.1464144l.1717342.0168366c.7890795-3.929683 4.25407-6.8794708 8.4071198-6.8794708 4.1508049 0 7.6169182 2.9497878 8.4059972 6.8794708l.171734-.0168366h5.147537c1.885709 0 3.430195-1.5444856 3.430195-3.4313171v-3.4313171h-6.862634v-6.8626342z" fill="#1d71b8"/><path d="m94.5584728 86.6248828c-1.887954 0-3.4313171-1.5444856-3.4313171-3.4313171 0-1.8868316 1.5433631-3.4313171 3.4313171-3.4313171 1.8868315 0 3.4313171 1.5444855 3.4313171 3.4313171 0 1.8868315-1.5444856 3.4313171-3.4313171 3.4313171m8.4059972-5.1295778c-.789079-3.929683-4.2540699-6.8805933-8.4059972-6.8805933-4.1519274 0-7.6180403 2.9509103-8.4071198 6.8805933-.1201017.5488761-.1717342 1.1145888-.1717342 1.6982607 0 4.7355992 3.8432548 8.5777315 8.578854 8.5777315 4.7344768 0 8.5777312-3.8421323 8.5777312-8.5777315 0-.5836719-.051632-1.1493846-.171734-1.6982607" fill="#fff"/><path d="m94.5584728 79.7620241c-1.887954 0-3.4313171 1.5444855-3.4313171 3.4313171 0 1.8868315 1.5433631 3.4313171 3.4313171 3.4313171 1.8868315 0 3.4313171-1.5444856 3.4313171-3.4313171 0-1.8868316-1.5444856-3.4313171-3.4313171-3.4313171" fill="#d20050"/><path d="m17.3550728 33.440029v5.1475369 6.8615117 8.578854 6.8626342 20.5879025h3.4313171 6.8626342l.1706117.0168367c.7890795-3.929683 4.2551924-6.8805933 8.4071198-6.8805933s7.6180403 2.9509103 8.4059973 6.8805933l.1717342-.0168367h6.8626342 27.4505368v-41.1758051-6.8626342z" fill="#fff"/><path d="m36.2268678 86.6248828c-1.8868315 0-3.4313171-1.5444856-3.4313171-3.4313171 0-1.8868316 1.5444856-3.4313171 3.4313171-3.4313171 1.8868316 0 3.4313171 1.5444855 3.4313171 3.4313171 0 1.8868315-1.5444855 3.4313171-3.4313171 3.4313171m8.4059973-5.1295778c-.787957-3.929683-4.2540699-6.8805933-8.4059973-6.8805933-4.1519273 0-7.6180402 2.9509103-8.4071197 6.8805933-.1201017.5488761-.1717342 1.1145888-.1717342 1.6982607 0 4.7355992 3.8432547 8.5777315 8.5788539 8.5777315 4.7355993 0 8.5777316-3.8421323 8.5777316-8.5777315 0-.5836719-.0505101-1.1493846-.1717343-1.6982607" fill="#fff"/><path d="m36.2268678 79.7620241c-1.8868315 0-3.4313171 1.5444855-3.4313171 3.4313171 0 1.8868315 1.5444856 3.4313171 3.4313171 3.4313171 1.8868316 0 3.4313171-1.5444856 3.4313171-3.4313171 0-1.8868316-1.5444855-3.4313171-3.4313171-3.4313171" fill="#d20050"/><g fill="#343852"><path d="m36.2268678 90.4849742c-4.0206012 0-7.2914085-3.2708073-7.2914085-7.2914085 0-.5219374.0460203-.98663.1414282-1.4243839.0022449-.0067346.0033673-.0134693.0044898-.0213264.6813246-3.3875417 3.6849898-5.8456983 7.1454905-5.8456983 3.4593783 0 6.4641659 2.4581566 7.1454906 5.8456983.0011224.0078571.0022449.0145918.0044898.0213264.0954079.4377539.1414282.9024465.1414282 1.4243839 0 4.0206012-3.2708074 7.2914085-7.2914086 7.2914085m9.6653816-9.2545664c-.9248954-4.5795792-4.9881495-7.9020191-9.6653816-7.9020191-4.677232 0-8.7404861 3.3224399-9.666504 7.9020191-.1335711.6162228-.1986729 1.2582619-.1986729 1.9631579 0 5.4393728 4.4258041 9.8640545 9.8651769 9.8640545s9.865177-4.4246817 9.865177-9.8640545c0-.704896-.0651019-1.3469351-.1997954-1.9631579"/><path d="m94.5584728 90.4849742c-4.0206012 0-7.2914085-3.2708073-7.2914085-7.2914085 0-.5219374.0460202-.98663.1414281-1.4243839.0022449-.0067346.0033674-.0134693.0044898-.0213264.6802022-3.3875417 3.6849899-5.8456983 7.1454906-5.8456983 3.4593782 0 6.4641662 2.4581566 7.1443682 5.8456983l.005612.0213264c.095408.4377539.141428.9024465.141428 1.4243839 0 4.0206012-3.270807 7.2914085-7.2914082 7.2914085m9.6653812-9.2545664c-.924895-4.5784568-4.9881492-7.9020191-9.6653812-7.9020191-4.6772321 0-8.7404862 3.3235623-9.6665041 7.9020191-.133571.6162228-.1986729 1.2582619-.1986729 1.9631579 0 5.4393728 4.4258042 9.8640545 9.865177 9.8640545s9.8651772-4.4246817 9.8651772-9.8640545c0-.704896-.066225-1.3469351-.199796-1.9631579"/><path d="m111.733354 57.1760556-13.1730249-16.1048537c-1.0584664-1.306527-2.6298907-2.0551985-4.3113146-2.0551985h-15.1316931c-.7105083 0-1.286323.5758148-1.286323 1.286323v41.1758052c0 .7105083.5758147 1.286323 1.286323 1.286323h1.7162197c.7105083 0 1.286323-.5758147 1.286323-1.286323 0-.7105082-.5758147-1.2874454-1.286323-1.2874454h-.4287743v-38.6009143h13.8442477c.9024465 0 1.7442809.4007132 2.3156058 1.1056092l13.1786377 16.1127108c.441121.5376516.684692 1.2099967.684692 1.8935662v17.3451564c0 1.1819355-.963059 2.1438717-2.143872 2.1438717-.711631 0-1.287446.5769372-1.287446 1.2874454 0 .7105083.575815 1.286323 1.287446 1.286323 2.600707 0 4.71764-2.1158105 4.71764-4.7176401v-17.3451564c0-1.2784659-.451223-2.5311155-1.268364-3.5256025"/><path d="m87.266952 59.6034571v-11.1515h5.1374349l9.1310971 11.1515zm17.980461.4714272-11.2379285-13.7252684c-.2435708-.2985706-.6094881-.4714272-.9956095-.4714272h-7.033246c-.7105082 0-1.2874454.5769372-1.2874454 1.286323v13.7252683c0 .7105083.5769372 1.286323 1.2874454 1.286323h18.271174c.497244 0 .94959-.2851012 1.161732-.735202.214387-.4489784.148163-.9810177-.166122-1.3660167z"/><path d="m111.714609 73.3287254h-5.576311v-4.2888657h5.576311c.710509 0 1.286323-.5758148 1.286323-1.2874455 0-.7105082-.575814-1.2863229-1.286323-1.2863229h-6.862634c-.710508 0-1.286323.5758147-1.286323 1.2863229v6.8626342c0 .7105083.575815 1.286323 1.286323 1.286323h6.862634c.710509 0 1.286323-.5758147 1.286323-1.286323 0-.7105082-.575814-1.286323-1.286323-1.286323"/><path d="m79.1176581 80.1911352h-27.4505368c-.7105082 0-1.286323.5758147-1.286323 1.2863229 0 .7105083.5758148 1.286323 1.286323 1.286323h27.4505368c.7105082 0 1.286323-.5758147 1.286323-1.286323 0-.7105082-.5758148-1.2863229-1.286323-1.2863229"/><path d="m20.7861654 80.1911352h-2.1449941v-19.3004572c0-.7116307-.5758148-1.2874454-1.286323-1.2874454-.7105083 0-1.286323.5758147-1.286323 1.2874454v20.5867801c0 .7105083.5758147 1.286323 1.286323 1.286323h3.4313171c.7105082 0 1.286323-.5758147 1.286323-1.286323 0-.7105082-.5758148-1.2863229-1.286323-1.2863229"/><path d="m79.1176581 32.1533693h-61.7625853c-.7105083 0-1.286323.5758147-1.286323 1.2863229v5.1475369c0 .7105083.5758147 1.286323 1.286323 1.286323.7105082 0 1.286323-.5758147 1.286323-1.286323v-3.8612139h59.1899393v5.5763112c0 .7105083.5758147 1.2874455 1.286323 1.2874455.7105082 0 1.286323-.5769372 1.286323-1.2874455v-6.8626342c0-.7105082-.5758148-1.2863229-1.286323-1.2863229"/><path d="m31.0936983 52.7410473h-26.80625286c-.7116307 0-1.28744544.5758148-1.28744544 1.286323 0 .7105083.57581474 1.286323 1.28744544 1.286323h26.80625286c.7105082 0 1.286323-.5758147 1.286323-1.286323 0-.7105082-.5758148-1.286323-1.286323-1.286323"/><path d="m37.9559957 44.1627546h-28.52247257c-.71050825 0-1.28632299.5758147-1.28632299 1.286323s.57581474 1.2874454 1.28632299 1.2874454h28.52247257c.7105083 0 1.286323-.5769371 1.286323-1.2874454s-.5758147-1.286323-1.286323-1.286323"/></g></g></svg>