<svg height="94" viewBox="0 0 94 94" width="94" xmlns="http://www.w3.org/2000/svg"><g fill="none" fill-rule="evenodd" transform="translate(-13 -13)"><path d="m96.684133 60.0003c0-20.26-16.424-36.684-36.684-36.684-20.259 0-36.682 16.424-36.682 36.684s16.423 36.683 36.682 36.683c20.26 0 36.684-16.423 36.684-36.683" fill="#f2f3f7"/><path d="m67.643133 52.4495v10.195l7.643-1.88v-10.44z" fill="#d20050"/><g fill="#fff"><path d="m63.058133 32.4876-9.171 2.553 21.399 15.284 9.17-2.552z"/><path d="m46.244733 37.1649-10.699 2.965 21.398 15.285 10.699-2.965z"/><path d="m75.285733 50.325v10.439l-7.643 1.88v-10.194l-10.699 2.965v30.569l27.513-7.642v-30.57z"/></g><path d="m35.545433 40.1302v30.569l21.398 15.285v-30.569z" fill="#1d71b8"/><path d="m53.887233 35.0404-7.643 2.125 21.399 15.284 7.642-2.124z" fill="#969cbb"/><path d="m93.235933 26.765c-8.876-8.877-20.68-13.765-33.235-13.765-.633 0-1.147.513-1.147 1.146s.514 1.146 1.147 1.146c11.943 0 23.171 4.65 31.614 13.094s13.094 19.671 13.094 31.614-4.651 23.171-13.094 31.614c-8.443 8.444-19.671 13.094-31.614 13.094s-23.17-4.65-31.614-13.094c-8.444-8.443-13.094-19.671-13.094-31.614 0-11.165 4.056-21.66 11.464-29.863v9.993c0 .633.513 1.146 1.146 1.146s1.146-.513 1.146-1.146v-12.992c0-.358-.167-.696-.453-.913-.285-.216-.655-.288-1-.191l-13.756 3.821c-.61.169-.967.801-.798 1.411.17.61.801.967 1.412.798l9.997-2.778c-7.403 8.521-11.450933 19.283-11.450933 30.714 0 12.556 4.888933 24.359 13.764933 33.235 8.877 8.877 20.681 13.766 33.236 13.766s24.359-4.889 33.235-13.766c8.877-8.876 13.766-20.679 13.766-33.235 0-12.555-4.889-24.359-13.766-33.235" fill="#969cbb"/><path d="m62.837433 33.7391 19.001 13.572-6.334 1.761-19-13.571zm-4.747 22.548 8.406-2.33v8.687c0 .353.162.685.44.903.204.159.453.244.707.244.091 0 .183-.011.274-.033l7.642-1.88c.512-.126.873-.586.873-1.114v-9.569l6.878-1.914v28.189l-25.22 7.006zm-21.399-13.929 19.106 13.647v27.752l-19.106-13.647zm32.098 10.963 5.35-1.489v8.034l-5.35 1.316zm-15.124-17.031 19 13.573-4.802 1.335-19.001-13.572zm-7.641 2.126 18.998 13.57-7.858 2.178-18.999-13.571zm39.579 9.356c0-.032-.016-.059-.019-.09-.004-.054-.008-.105-.019-.157-.004-.02.001-.04-.004-.06-.007-.025-.026-.042-.034-.065-.018-.052-.039-.098-.064-.146-.023-.047-.048-.09-.078-.133-.026-.037-.052-.071-.081-.105-.037-.041-.077-.074-.118-.109-.025-.021-.037-.049-.064-.067l-21.398-15.285c-.283-.202-.64-.265-.974-.172l-16.812 4.677-10.7 2.965c-.024.007-.042.026-.065.034-.052.018-.099.038-.147.063-.045.024-.088.048-.131.078-.038.026-.073.052-.106.082-.041.037-.074.077-.109.119-.021.024-.049.037-.068.063-.012.016-.013.037-.024.054-.023.036-.043.072-.062.11-.025.05-.041.102-.058.157-.016.05-.034.096-.043.147-.008.042-.009.083-.012.125-.002.026-.014.047-.014.073v30.569c0 .032.015.06.018.091.006.079.024.153.046.229.02.07.041.136.074.199.032.063.074.119.119.176.049.063.099.119.16.171.024.02.037.049.063.068l21.398 15.284c.044.032.097.048.145.072.04.021.076.044.119.061.129.048.264.081.402.081.103 0 .207-.014.307-.042l27.513-7.642c.024-.007.042-.026.065-.034.076-.027.142-.066.21-.107.062-.037.122-.07.174-.117.056-.049.097-.106.142-.165.044-.059.088-.114.121-.181.031-.062.047-.129.066-.199.022-.076.042-.15.047-.23.002-.025.015-.047.015-.072z" fill="#343852"/></g></svg>