<svg height="82" viewBox="0 0 104 82" width="104" xmlns="http://www.w3.org/2000/svg"><g fill="none" fill-rule="evenodd" transform="translate(.540541)"><path d="m27.5008471 80.2885217h-.0016942c-15.187604 0-27.4991529-12.193848-27.4991529-27.2362553v-30.7384312-1.0253135c2.15005237 2.3711425 6.46709999 4.3898859 15.2308083 4.5266503h12.2700388c15.187604 0 27.4991529 12.193848 27.4991529 27.2370944 0 15.0424073-12.3115489 27.2362553-27.4991529 27.2362553" fill="#f2f3f7"/><path d="m77.1261261 50.075h17.3333334c0-5.0749156-7.3333334-7.95-9.3333334-7.95-.6263333 0-3.1731666-.8746656-4.1068333-3.975h5.4401667c2.5598333 0 3.8931666-1.325 3.8931666-1.325s-2.5598333-2.31875-2.5598333-6.625 1.3996667-15.9-10.6666667-15.9c-4 0-5.4401666 2.7561656-5.4401666 2.7561656s-5.2265 1.325-5.2265 9.0626688c0 7.7249156-2.6666667 10.7061656-2.6666667 10.7061656s.7735 1.325 4 1.325h5.4401667c-.9336667 3.1003344-3.4805 3.975-4.1068334 3.975-2 0-9.3333333 2.8750844-9.3333333 7.95zm25.3333329-41.075v49.025c0 2.1996656-1.7865 3.975-3.9999995 3.975h-8-8.9205l-9.7461667-5.3v5.3h-5.3333333-40c-2.2135 0-4-1.7753344-4-3.975v-49.025h5.3333333z" fill="#fff"/><path d="m31.7927928 5c0-.733-.6003333-1.33333333-1.3333333-1.33333333s-1.3333334.60033333-1.3333334 1.33333333.6003334 1.33333333 1.3333334 1.33333333 1.3333333-.60033333 1.3333333-1.33333333m5.3333333 0c0-.733-.6003333-1.33333333-1.3333333-1.33333333s-1.3333333.60033333-1.3333333 1.33333333.6003333 1.33333333 1.3333333 1.33333333 1.3333333-.60033333 1.3333333-1.33333333m5.3333334 0c0-.733-.6003334-1.33333333-1.3333334-1.33333333s-1.3333333.60033333-1.3333333 1.33333333.6003333 1.33333333 1.3333333 1.33333333 1.3333334-.60033333 1.3333334-1.33333333m59.9999995 0v4h-74.6666662-5.3333333v-4c0-2.2135 1.7865-4 4-4h72c2.2134995 0 3.9999995 1.7865 3.9999995 4" fill="#1d71b8"/><path d="m94.4594595 51h-17v-1.0936667c3.9358269 0 7.2702788-2.9453333 7.8461538-6.9063333 1.9615385 0 9.1538462 2.8931667 9.1538462 8" fill="#d20050"/><path d="m70.2776122 29.0227639c-.0277863.2737222-.0410018.576875-.0410018.866125 0 3.0920139 1.2600418 5.8059444 3.1715372 7.3236944 0 1.06925-.1350347 1.9931528-.3522424 2.7874167h-5.5301552c-3.280141 0-4.0662905-1.4444444-4.0662905-1.4444444s2.7108603-3.25 2.7108603-11.6712917c0-8.435375 5.313117-9.8798195 5.313117-9.8798195s1.464034-3.0044444 5.5303246-3.0044444c12.2663044 0 10.8434415 12.6388889 10.8434415 17.3333333 0 4.6944445 2.6022566 7.2222223 2.6022566 7.2222223s-1.3554302 1.4444444-3.9576868 1.4444444h-5.5303246c-.2170382-.7942639-.352073-1.7181667-.352073-2.7874167 1.911326-1.51775 3.1715372-4.2316805 3.1715372-7.3236944 0-1.3866667-.2582094-2.6857639-.7041459-3.8424028-3.4707485-.0140833-6.073005-2.5136944-8.7838654-4.8242639-.2436386 2.5700278-2.16818 6.1529722-4.0252888 7.8005417" fill="#c5c8da"/><path d="m81.0181998 62.3333333 7.4412597 4.1458334-5.5447789 3.1615 4.9038462 8.1991666-6.5384616 3.1601667-4.9167596-8.2005-4.9038461 3.1471667v-13.6133334-5.3333333z" fill="#fff"/><path d="m83.7321595 25.4531667c.460775 1.0676666.7273 2.267.7273 3.5468333 0 2.8541667-1.301475 5.3595-3.275825 6.7605-1.0787.7865-2.351475 1.2395-3.724175 1.2395s-2.645475-.453-3.724175-1.2395c-1.974175-1.401-3.275825-3.9063333-3.275825-6.7605 0-.2668333.01365-.5468333.04235-.7995 1.918175-1.5208333 3.906175-4.828 4.15765-7.2005 2.8 2.1328333 5.488 4.4401667 9.0727 4.4531667" fill="#fff"/><path d="m80.3526261 38c.9336667 3.1466273 3.4805 4.0343531 4.1068334 4.0343531-.5873334 3.9950182-3.987 6.9656469-8 6.9656469-4.0131667 0-7.4128334-2.9706287-8-6.9656469.6261666 0 3.1731666-.8877258 4.1066666-4.0343531z" fill="#fff"/><path d="m81.4594595 39h-8c.219354-.8546444.3558295-1.8492033.3558295-3 1.055502.9170229 2.3010766 1.4453945 3.6442561 1.4453945 1.3430082 0 2.5885828-.5283716 3.6440848-1.4453945 0 1.1507967.1364755 2.1453556.3558296 3" fill="#fff"/><path d="m76.4594595 51h-17c0-5.1066667 7.1923077-8 9.1538461-8 .575875 3.961 3.9103269 6.9063333 7.8461539 6.9063333z" fill="#d20050"/><path d="m77.3560035 71.7993833c.0748533 0 .1500343.0086666.2242324.0263332.2560083.0609997.4771287.2238322.6142234.4521644l4.4658131 7.4331303 4.7665369-2.2991554-4.3454254-7.2506312c-.1390602-.2319988-.1793532-.5116641-.111543-.7744962.0678103-.262832.2379911-.4863309.4709046-.6189969l4.0045723-2.2784889-5.8962164-3.2784839-.0004914-.0001667-8.1236359-4.5234779v15.4484244l3.4075473-2.1824893c.1580601-.1011662.3397064-.1536659.5234821-.1536659m4.9272177 10.2006167c-.3328272 0-.6551716-.1724992-.839111-.4784977l-4.4071753-7.3361307-4.071236 2.6073206c-.3026893.1941657-.6853095.2053323-.9984815.0291665-.3133358-.1759992-.5077579-.5113308-.5077579-.8753291v-18.9465739c0-.3531649.1831204-.6801633.4815511-.8601624.298922-.1801658.6684387-.1864991.9729297-.0171666l9.5776254 5.3331405 7.4563437 4.1458131c.3138272.1744991.5097235.5086642.5115377.8726624.0017892.3638315-.190995.6999966-.5030205.8776623l-4.6656404 2.6546537 4.3826063 7.3124642c.1449567.2419988.1821377.5353307.1025344.8068294-.0796034.2716653-.268948.4961642-.5206976.617497l-6.5517156 3.1601512c-.1354567.065333-.2789393.0964995-.4202925.0964995" fill="#343852"/><path d="m98.4594595 63h-8c-.5521667 0-1-.4454763-1-.9947368 0-.5492606.4478333-.9947369 1-.9947369h8c1.6541665 0 2.9999995-1.33875 2.9999995-2.9842105v-53.05263159c0-1.64546053-1.345833-2.98421053-2.9999995-2.98421053h-72c-1.6541667 0-3 1.33875-3 2.98421053v53.05263159c0 1.6454605 1.3458333 2.9842105 3 2.9842105h40c.5521666 0 1 .4454763 1 .9947369 0 .5492605-.4478334.9947368-1 .9947368h-40c-2.757 0-5-2.2311947-5-4.9736842v-53.05263159c0-2.74248947 2.243-4.97368421 5-4.97368421h72c2.7569995 0 4.9999995 2.23119474 4.9999995 4.97368421v53.05263159c0 2.7424895-2.243 4.9736842-4.9999995 4.9736842" fill="#343852"/><path d="m102.402938 10h-78.8869568c-.5833761 0-1.0565217-.44783333-1.0565217-1s.4731456-1 1.0565217-1h78.8869568c.583376 0 1.056521.44783333 1.056521 1s-.473145 1-1.056521 1" fill="#303e58"/><path d="m51.4499061 24h-15.9808933c-.5574417 0-1.0095533-.4478333-1.0095533-1s.4521116-1 1.0095533-1h15.9808933c.5574417 0 1.0095534.4478333 1.0095534 1s-.4521117 1-1.0095534 1" fill="#c5c8da"/><path d="m51.4499061 30h-15.9808933c-.5574417 0-1.0095533-.4478333-1.0095533-1s.4521116-1 1.0095533-1h15.9808933c.5574417 0 1.0095534.4478333 1.0095534 1s-.4521117 1-1.0095534 1" fill="#c5c8da"/><path d="m35.4690128 36c-.5574417 0-1.0095533-.4478333-1.0095533-1s.4521116-1 1.0095533-1h8.9808933c.5574417 0 1.0095534.4478333 1.0095534 1s-.4521117 1-1.0095534 1z" fill="#c5c8da"/><g fill="#343852"><path d="m76.9594595 38c-1.4504348 0-2.8560326-.5165403-4.0645109-1.4938159-2.1474457-1.6903389-3.4354891-4.6118316-3.4354891-7.8070096 0-.32484.0156521-.648991.045163-.9373166.0583696-.5676948.5421196-.9772756 1.0778804-.9163035.5372283.0614888.9252718.5711396.8672283 1.1386622-.0218478.2127133-.03375.4665914-.03375.7149579 0 2.5454981.99375 4.8474524 2.6582609 6.1576632.8742391.7068627 1.8684782 1.0763122 2.8852174 1.0763122 1.0167391 0 2.0109782-.3694495 2.8751087-1.0682171 1.6746195-1.3183059 2.6683695-3.6202602 2.6683695-6.1657583 0-1.1410735-.2033152-2.2420157-.6042391-3.2725127-.2054348-.527908.0332609-1.1317727.5329891-1.348792.4995652-.2170192 1.0713587.0351365 1.2767935.5630444.4982609 1.2811026.7509783 2.6464294.7509783 4.0582603 0 3.195178-1.2880435 6.1166707-3.4457609 7.8151047-1.1982065.9691805-2.6038044 1.4857208-4.0542391 1.4857208"/><path d="m70.4177313 29c-.2605599 0-.5201617-.1077767-.7090357-.3197483-.3560346-.399197-.3271367-1.0168778.0643417-1.3797693l.0137305-.0128616c.010218-.0094427.0207553-.0188853.0314523-.0278396 1.6118947-1.368373 3.2576365-4.4098892 3.4528967-6.3811278.0352842-.3560537.2584843-.6637545.5821085-.8024641.323305-.1383839.6953052-.085798.9694359.1377328.2064362.16834.4120741.3378196.617712.5071364 2.2593027 1.860857 4.3935942 3.6184959 7.0646518 3.6289154.5291024.0019537.9563439.440875.9544345.9804095-.002082.5382322-.4306007.9732462-.9577873.9732462h-.0038318c-3.0735522-.0120476-5.433758-1.7519407-7.6723054-3.5790972-.6810957 2.1978626-2.1895328 4.6768889-3.7650256 6.0224692-.183286.1694796-.4133514.2529984-.6427781.2529984"/><path d="m86.4924303 40c-.5607135 0-1.0154787-.4478333-1.0154787-1s.4547652-1 1.0154787-1c1.0847006 0 1.9004685-.2666667 2.4427342-.5311667-.8678959-1.1501666-2.1042412-3.3383333-2.1042412-6.4688333 0-.38.0106625-.8148333.0218328-1.275.0759916-3.1193333.2030957-8.34-2.7341766-11.3028333-1.5934554-1.6071667-3.9835539-2.4221667-7.1039508-2.4221667-3.3514184 0-4.576932 2.1508333-4.6273674 2.2423333-.1333662.2528334-.3655724.4296667-.6458445.5001667-.1780473.0478333-4.5430827 1.298-4.5430827 8.1506667 0 5.8568333-1.5008776 9.17-2.3682657 10.5956666.4632276.2406667 1.2972741.5111667 2.7067586.5111667.5607136 0 1.0154788.4478333 1.0154788 1s-.4547652 1-1.0154788 1c-1.5342191 0-2.7976439-.267-3.7549019-.7936667-.7880115-.4335-1.1065333-.904-1.1854022-1.0378333-.2198511-.3733333-.1717851-.8436667.119488-1.1661667.0186171-.0216666 2.4513657-2.8981666 2.4513657-10.1091666 0-7.2563334 4.2785505-9.4395 5.6574014-9.9545.6113182-.87 2.4574586-2.9386667 6.1898507-2.9386667 3.6880496 0 6.5671011 1.0178333 8.5572702 3.025 3.5348815 3.5656667 3.3947454 9.3136667 3.3111377 12.7478333-.0108318.448-.0211558.8711667-.0211558 1.2271667 0 3.8031667 2.1793866 5.8461667 2.2721337 5.9311667.2015725.185.3202143.4445.325445.7158333.0045856.2713333-.1006857.5348333-.2954884.7268333-.0673601.0663334-1.6856947 1.6261667-4.6715408 1.6261667"/><path d="m59.4729837 52c-.5596343 0-1.0135242-.4593717-1.0135242-1.0257648 0-1.8232969.7684202-4.5048171 4.4287629-6.9261349 2.2640442-1.4976166 4.8039359-2.3057483 6.0443206-2.3057483.010642-.0011967 2.3248556-.4407369 3.1914188-3.371347.2040562-.7089744.3084492-1.5003519.3084492-2.3452402 0-.5663931.453721-1.0257648 1.0135242-1.0257648.5596343 0 1.0135243.4593717 1.0135243 1.0257648 0 1.0390997-.1317582 2.023663-.3915582 2.926165-1.0927481 3.6961725-4.1464965 4.8419518-5.1353583 4.8419518-.681595 0-2.8292528.5783604-4.9355251 1.97152-1.6013682 1.059444-3.51051 2.8230756-3.51051 5.2088336 0 .5663931-.4538899 1.0257648-1.0135242 1.0257648"/><path d="m94.4459352 52c-.5596342 0-1.0135242-.4593717-1.0135242-1.0257648 0-2.385758-1.9091417-4.1493896-3.51051-5.2088336-2.1062722-1.3931596-4.25393-1.97152-4.9355251-1.97152-.9888618 0-4.0426102-1.1457793-5.1333312-4.8347714-.2618271-.9096824-.3935852-1.8942457-.3935852-2.9333454 0-.5663931.4538899-1.0257648 1.0135242-1.0257648.5598032 0 1.0135242.4593717 1.0135242 1.0257648 0 .8448883.104393 1.6362658.3106452 2.3524206.8643672 2.9234297 3.1785808 3.3629699 3.2010473 3.3643376h.0006756c1.2287292 0 3.7681142.8081317 6.0318205 2.3055773 3.6603427 2.4213178 4.428763 5.102838 4.428763 6.9261349 0 .5663931-.45389 1.0257648-1.0135243 1.0257648"/><path d="m77.4594595 51c-4.4685473 0-8.3331108-3.3710136-8.9890932-7.8411097-.0808312-.5518991.2963254-1.0659046.8426441-1.1477547.5456521-.0818502 1.0548052.2992751 1.1359697.851511.5114863 3.4868838 3.5254058 6.116362 7.0104794 6.116362 3.4850735 0 6.498993-2.6294782 7.0104793-6.116362.0811645-.5520675.5906509-.933698 1.1359697-.851511.5463187.0818501.9234753.5958556.8426442 1.1477547-.6559825 4.4700961-4.5205459 7.8411097-8.9890932 7.8411097"/></g></g></svg>