<svg height="79" viewBox="0 0 111 79" width="111" xmlns="http://www.w3.org/2000/svg"><g fill="none" fill-rule="evenodd" transform="translate(0 .179006)"><path d="m30.5009396 78.8209938h-.0018792c-16.8444335 0-30.4990604-13.4339003-30.4990604-30.006044v-33.8643733-1.1295827c2.38460354 2.6122756 7.17260181 4.836315 16.8923511 4.9869877h13.6085885c16.8444335 0 30.4990604 13.4339002 30.4990604 30.0069683 0 16.5721437-13.6546269 30.006044-30.4990604 30.006044" fill="#f2f3f7"/><path d="m20.8287237 63.4805191h78.767572v-55.24707396h-78.767572z" fill="#fff"/><path d="m100.2607 8.23346304h-73.027237-7.159533v-2.86381323c0-2.37714397 1.9185758-4.29571985 4.2957198-4.29571985h71.5953307c2.377144 0 4.2957195 1.91857588 4.2957195 4.29571985z" fill="#1d71b8"/><g fill="#343852"><path d="m69.1167315 65.151751h-44.7470817c-2.9608249 0-5.3696498-2.4088249-5.3696498-5.3696498v-54.41245139c0-2.96082491 2.4088249-5.36964981 5.3696498-5.36964981h71.5953307c2.9608249 0 5.3696495 2.4088249 5.3696495 5.36964981v27.20622569c0 .5929883-.480941 1.0739299-1.07393 1.0739299-.5929879 0-1.0739296-.4809416-1.0739296-1.0739299v-27.20622569c0-1.77645915-1.4453307-3.22178989-3.2217899-3.22178989h-71.5953307c-1.7764591 0-3.2217899 1.44533074-3.2217899 3.22178989v54.41245139c0 1.7764591 1.4453308 3.2217899 3.2217899 3.2217899h44.7470817c.5929883 0 1.07393.4809416 1.07393 1.0739299s-.4809417 1.07393-1.07393 1.07393"/><path d="m100.2607 9.307393h-80.18677c-.5929884 0-1.07393-.48094164-1.07393-1.07392996 0-.59298833.4809416-1.07392997 1.07393-1.07392997h80.18677c.592989 0 1.07393.48094164 1.07393 1.07392997 0 .59298832-.480941 1.07392996-1.07393 1.07392996"/><path d="m33.107144 30.070021h10.7392996v-9.307393h-10.7392996zm11.8132295 2.1478599h-12.8871595c-.5929883 0-1.07393-.4807626-1.07393-1.0739299v-11.4552529c0-.5929884.4809417-1.07393 1.07393-1.07393h12.8871595c.5931674 0 1.07393.4809416 1.07393 1.07393v11.4552529c0 .5931673-.4807626 1.0739299-1.07393 1.0739299z"/></g><path d="m84.5097276 22.1945525h-30.9979144c-.5929883 0-1.0739299-.4809416-1.0739299-1.0739299 0-.5929884.4809416-1.07393 1.0739299-1.07393h30.9979144c.5929884 0 1.07393.4809416 1.07393 1.07393 0 .5929883-.4809416 1.0739299-1.07393 1.0739299" fill="#c5c8da"/><path d="m73.3390304 30.7859922h-19.827074c-.5931673 0-1.0739299-.4809416-1.0739299-1.0739299 0-.5929884.4807626-1.07393 1.0739299-1.07393h19.827074c.5929883 0 1.0739299.4809416 1.0739299 1.07393 0 .5929883-.4809416 1.0739299-1.0739299 1.0739299" fill="#c5c8da"/><path d="m44.9204451 53.6964981h-12.8871595c-.5929883 0-1.07393-.4809417-1.07393-1.07393v-11.4552529c0-.5929884.4809417-1.07393 1.07393-1.07393h7.2168093c.5931674 0 1.07393.4809416 1.07393 1.07393 0 .5929883-.4807626 1.0739299-1.07393 1.0739299h-6.1428793v9.307393h10.7392996v-1.7898832c0-.5929884.4809416-1.07393 1.0739299-1.07393.5929884 0 1.07393.4809416 1.07393 1.07393v2.8638132c0 .5929883-.4809416 1.07393-1.07393 1.07393" fill="#343852"/><path d="m76.6342412 43.6731518h-23.122428c-.5929883 0-1.0739299-.4809417-1.0739299-1.07393s.4809416-1.07393 1.0739299-1.07393h23.122428c.5929884 0 1.07393.4809417 1.07393 1.07393s-.4809416 1.07393-1.07393 1.07393" fill="#c5c8da"/><path d="m73.3390304 52.2645914h-19.827074c-.5931673 0-1.0739299-.4809416-1.0739299-1.0739299s.4807626-1.07393 1.0739299-1.07393h19.827074c.5929883 0 1.0739299.4809417 1.0739299 1.07393s-.4809416 1.0739299-1.0739299 1.0739299" fill="#c5c8da"/><path d="m39.1928187 49.4007782c-.2749261 0-.5496732-.1048871-.7594475-.3144825l-2.8638132-2.8638132c-.4193697-.4195486-.4193697-1.0993463 0-1.518895.4193696-.4191906 1.0995253-.4191906 1.5188949 0l2.1043658 2.1045448 6.4000856-6.4002646c.4193696-.4191907 1.0995253-.4191907 1.5188949 0 .4193697.4195486.4193697 1.0993463 0 1.5188949l-7.1595331 7.1595331c-.2097743.2095954-.4845214.3144825-.7594474.3144825" fill="#d20050"/><path d="m96.450379 48.8575128c0-6.0120389-4.875463-10.8876809-10.887502-10.8876809-6.0122179 0-10.8876809 4.875642-10.8876809 10.8876809 0 6.012039 4.875463 10.887681 10.8876809 10.887681 6.012039 0 10.887502-4.875642 10.887502-10.887681zm12.242623 19.2106382c.653486.6533074 1.064622 1.5604202 1.064622 2.5647237 0 2.008249-1.620918 3.6291673-3.629346 3.6291673-1.004125 0-1.911417-.4111362-2.564724-1.0644436l-10.5119844-10.5132373c-.8351595.459642-1.7190038.8353385-2.6497431 1.1378288-1.5240856.4961556-3.1448249.7619533-4.8389495.7619533-8.6855875 0-15.7266303-7.0410428-15.7266303-15.7266304 0-8.6855875 7.0410428-15.7266303 15.7266303-15.7266303 1.6808794 0 3.3148639.2657977 4.8389495.7621323 6.3143502 2.0318755 10.8875015 7.9601478 10.8875015 14.964498 0 3.3386693-1.040638 6.4362413-2.8187078 8.9880779z" fill="#c5c8da"/><path d="m85.5628591 39.0438335c-5.4111751 0-9.8137509 4.4023969-9.8137509 9.8137509 0 5.4113541 4.4025758 9.813751 9.8137509 9.813751s9.813572-4.4023969 9.813572-9.813751c0-5.411354-4.4023969-9.8137509-9.813572-9.8137509m0 21.7753618c-6.5957198 0-11.9616109-5.36607-11.9616109-11.9616109 0-6.5957198 5.3658911-11.9616109 11.9616109-11.9616109 6.5957199 0 11.961432 5.3658911 11.961432 11.9616109 0 6.5955409-5.3657121 11.9616109-11.961432 11.9616109" fill="#343852"/><path d="m93.0511759 61.6105206c.2783268 0 .5530739.10793.7598054.3146615l10.5121637 10.5132374c.483447.4834474 1.124583.7497821 1.805276.7497821 1.408996 0 2.555237-1.1464203 2.555237-2.5554164 0-.6806926-.266334-1.3218288-.749961-1.8052763l-10.222381-10.2225603c-.368-.367821-.4191907-.9464902-.1218911-1.3733774 1.71793-2.4655642 2.6259381-5.3612373 2.6259381-8.3739689 0-6.3871984-4.0759225-11.99007-10.1425529-13.9424747-1.4487315-.4716342-2.9649416-.7102257-4.5099689-.7102257-8.079533 0-14.6527003 6.5731674-14.6527003 14.6527004 0 8.0793541 6.5731673 14.6525214 14.6527003 14.6525214 1.5448483 0 3.0612374-.2385914 4.5065681-.7091517.000179 0 .000358-.000179.000537-.000179.8793697-.2858444 1.7084436-.6414942 2.4637743-1.0571051.1627004-.0896731.3407938-.1331673.5174553-.1331673m13.0772451 13.7255409c-1.254529 0-2.435136-.4898911-3.32435-1.3791051l-9.9578368-9.9589105c-.6683424.322895-1.3757042.6060545-2.1118832.8453619-1.6606537.5405447-3.4004203.8145759-5.1715098.8145759-9.2638988 0-16.8005603-7.5366615-16.8005603-16.8003814 0-9.2638988 7.5366615-16.8005603 16.8005603-16.8005603 1.7712685 0 3.5110351.2740312 5.1715098.8147549 6.9542334 2.237891 11.628872 8.662498 11.628872 15.9858054 0 3.1512685-.866483 6.1910273-2.5146074 8.8470351l9.6037974 9.6039766c.889393.889214 1.379105 2.069821 1.379105 3.3241712 0 2.5933619-2.109735 4.7032763-4.703097 4.7032763" fill="#343852"/></g></svg>