<svg height="86" viewBox="0 0 96 86" width="96" xmlns="http://www.w3.org/2000/svg"><g fill="none" fill-rule="evenodd"><path d="m65.8227848 32.4050633c0-17.8971139-14.5079494-32.4050633-32.4050633-32.4050633s-32.40506327 14.5079494-32.40506327 32.4050633 14.50794937 32.4050633 32.40506327 32.4050633 32.4050633-14.5079494 32.4050633-32.4050633" fill="#f2f3f7"/><path d="m94.9873418 6.48101266v25.92405064c0 1.782481-1.4580253 3.2405063-3.2405064 3.2405063h-3.2405063l-11.3417721 11.3417722v-11.3417722h-21.0632912c-1.782481 0-3.2405063-1.4580253-3.2405063-3.2405063v-25.92405064c0-1.78248101 1.4580253-3.24050633 3.2405063-3.24050633h35.6455696c1.7824811 0 3.2405064 1.45802532 3.2405064 3.24050633" fill="#fff"/><path d="m47.5949367 75.3417722 7.6155949-15.2301773c.5338735-1.0855696 1.6684557-1.782481 2.8836456-1.782481h32.3402532c.2752405 0 .5346835.1456203.6803038.3892658.1622278.2428355.1622278.534076.0490126.793519l-11.4882025 22.9429874c-.550481 1.1013671-1.6684557 1.7982785-2.9002532 1.7982785h-33.6360506l3.2405063-6.4810127z" fill="#dee0ea"/><path d="m39.8987342 68.0506329v4.8607595 4.8607595h-11.3417722c0-2.7222278-2.2033417-4.8607595-4.9255696-4.8607595h-12.8972152v-4.8607595h-8.10126581-1.62025316v-6.4810126c0-7.1613165 5.80070886-12.9620254 12.96202527-12.9620254h1.6202532c1.3774177 3.8726076 5.2982279 6.4810127 9.721519 6.4810127s8.3441013-2.6084051 9.721519-6.4810127c7.1613164 0 12.9620253 5.8007089 12.9620253 12.9620254v6.4810126h-.4050633-2.6408101z" fill="#1d71b8"/><path d="m47.5949367 68.0506329v7.2911393l-1.2151899 2.4303797h-.0157974-5.9629367-.5022785v-4.8607595-4.8607595h5.0553924z" fill="#fff"/><path d="m46.3797468 77.7721519-3.2405063 6.4810127h-21.0632911c-1.782481 0-3.2405064-1.4580254-3.2405064-3.2405064v-3.2405063h9.721519 11.3417722.5022785 5.9629367z" fill="#dee0ea"/><path d="m35.0379747 16.2025316s3.2405063 2.300557 3.2405063 6.4810127-3.3703291 6.6432405-3.3703291 6.6432405 0-.0166076-.0157975-.0490126c-.2436455-.5182785-2.2199493-4.5689114-6.3353924-4.5689114-4.3908861 0-6.4810126 4.4556962-6.4810126 4.4556962-5.5736709-.9073418-5.7514937 5.4762531-3.2405064 6.4810126 0 0-3.2405063 0-3.2405063-8.1012658 0-9.6243038 11.2119494-9.721519 12.9620253-9.721519 5.0553924 0 6.4810127-1.6202532 6.4810127-1.6202532" fill="#c5c8da"/><path d="m35.0379747 30.7848101v4.8607595c0 4.4714937-3.6297722 8.1012658-8.1012658 8.1012658-4.4714937 0-8.1012659-3.6297721-8.1012659-8.1012658-2.5109873-1.0047595-2.3331645-7.3883544 3.2405064-6.4810126 0 0 2.0901265-4.4556962 6.4810126-4.4556962 4.1154431 0 6.0917469 4.0506329 6.3353924 4.5689114.0157975.032405.0157975.0490126.0157975.0490126.0816203.4698734.1298228.9557468.1298228 1.4580253" fill="#fff"/><path d="m28.556962 77.7721519h-9.721519v3.2405063h-6.4968101-3.22470885c-3.58075949 0-6.48101266-2.9002531-6.48101266-6.4810126v-6.4810127h8.10126581v4.8607595h12.8972152c2.7222279 0 4.9255696 2.1385317 4.9255696 4.8607595" fill="#fff"/><g fill="#343852"><path d="m44.7777823 83.2405063h31.9975696c.8482025 0 1.612557-.4745316 1.9945316-1.238481l11.3464304-22.6602531h-32.0220759c-.8362532 0-1.6115443.4775696-1.9750886 1.2168101zm31.9975696 2.0253165h-33.6360506c-.3509874 0-.6770633-.1816709-.8615697-.4802025-.1843038-.2985317-.2011139-.6713925-.0443544-.9853165l12.0712912-24.1417722c.6989367-1.4203544 2.1875443-2.3420759 3.7895696-2.3420759h32.3400506c.6223798 0 1.2089114.3293165 1.5368101.8611646.329114.508962.3746836 1.1570632.1209114 1.7389367-.0070886.016405-.0147848.0328101-.022886.0488101l-11.488 22.9429873c-.7270887 1.4539747-2.1853165 2.3574684-3.8057722 2.3574684z"/><path d="m26.9367089 44.7594937c-5.0254178 0-9.1139241-4.0885064-9.1139241-9.1139241 0-.5591899.4534684-1.0126582 1.0126582-1.0126582.5591899 0 1.0126583.4534683 1.0126583 1.0126582 0 3.9086582 3.1799493 7.0886076 7.0886076 7.0886076 3.9086582 0 7.0886076-3.1799494 7.0886076-7.0886076v-4.8607595c0-.4190379-.0376709-.8392911-.1148355-1.2850633-.0955949-.5510886.2736203-1.0752405.8247089-1.1706329.5512911-.096405 1.0752405.2736203 1.1708354.8245064.0974177.5614177.1446076 1.094886.1446076 1.6311898v4.8607595c0 5.0254177-4.0885063 9.1139241-9.113924 9.1139241"/><path d="m18.835443 82.0253165h-9.72151895c-4.13205063 0-7.49367089-3.3616203-7.49367089-7.4936709v-6.4810127c0-.5591899.45346836-1.0126582 1.01265823-1.0126582.55918988 0 1.01265823.4534683 1.01265823 1.0126582v6.4810127c0 3.0152911 2.45306329 5.4683544 5.46835443 5.4683544h9.72151895c.5591899 0 1.0126583.4534684 1.0126583 1.0126582 0 .5591899-.4534684 1.0126583-1.0126583 1.0126583"/><path d="m28.556962 78.7848101c-.5591898 0-1.0126582-.4534683-1.0126582-1.0126582 0-2.1577722-1.7186835-3.8481013-3.9129114-3.8481013h-12.8972152c-.5591899 0-1.01265821-.4534683-1.01265821-1.0126582v-4.8607595c0-.5591899.45346831-1.0126582 1.01265821-1.0126582s1.0126582.4534683 1.0126582 1.0126582v3.8481013h11.884557c3.2743291 0 5.9382279 2.6347342 5.9382279 5.8734177 0 .5591899-.4534684 1.0126582-1.0126583 1.0126582"/><path d="m44.9541063 69.0632911h-6.6756455c-.5591899 0-1.0126583-.4534683-1.0126583-1.0126582v-6.4810126c0-.5591899.4534684-1.0126583 1.0126583-1.0126583.5591898 0 1.0126582.4534684 1.0126582 1.0126583v5.4683544h5.6629873c.5591899 0 1.0126583.4534683 1.0126583 1.0126582s-.4534684 1.0126582-1.0126583 1.0126582"/><path d="m47.9541063 69.0632911h-6.6756455c-.5591899 0-1.0126583-.4534683-1.0126583-1.0126582v-6.4810126c0-.5591899.4534684-1.0126583 1.0126583-1.0126583.5591898 0 1.0126582.4534684 1.0126582 1.0126583v5.4683544h5.6629873c.5591899 0 1.0126583.4534683 1.0126583 1.0126582s-.4534684 1.0126582-1.0126583 1.0126582" transform="matrix(-1 0 0 1 89.232568 0)"/><path d="m12.3544304 69.0632911h-11.34177217c-.55918988 0-1.01265823-.4534683-1.01265823-1.0126582v-6.4810126c0-7.7057216 6.26896203-13.9746836 13.9746835-13.9746836h1.6202532c.4283544 0 .8105317.2697722.9541266.6732152 1.235443 3.4738228 4.7588861 5.8077975 8.7673924 5.8077975s7.5319494-2.3339747 8.7673924-5.8077975c.1435949-.403443.5257722-.6732152.9541266-.6732152 7.7057215 0 13.9746835 6.268962 13.9746835 13.9746836 0 .5591898-.4534683 1.0126582-1.0126582 1.0126582s-1.0126582-.4534684-1.0126582-1.0126582c0-6.3613165-4.9962532-11.577519-11.2706836-11.9303292-1.7196962 3.894076-5.8039493 6.4619747-10.4002025 6.4619747-4.6037468 0-8.6938734-2.5762025-10.4085063-6.4810126h-.9332659c-6.58896198 0-11.94936704 5.360405-11.94936704 11.9493671v5.4683544h9.31645574v-5.4683544c0-.5591899.4534683-1.0126583 1.0126582-1.0126583s1.0126582.4534684 1.0126582 1.0126583v6.4810126c0 .5591899-.4534683 1.0126582-1.0126582 1.0126582"/><path d="m34.9926886 17.4944405c-.9689114.579038-2.9130127 1.340962-6.4356456 1.340962-3.5929114 0-11.9493671.8486076-11.9493671 8.7088608 0 1.1578734.070076 2.1369114.1869368 2.9622278.72-1.4284557 2.2351392-2.6005063 4.7240506-2.4261265.8301772-1.3681013 3.1066329-4.3842026 7.0383797-4.3842026 3.4657216 0 5.5975697 2.4386836 6.6104304 4.0074937.8733165-.9496709 2.0984304-2.6963038 2.0984304-5.0201519 0-2.6254177-1.452557-4.3975696-2.2732152-5.1890633zm-16.1571645 19.1637468c-.4354431 0-4.2531646-.2555949-4.2531646-9.113924 0-4.4390886 2.2325063-7.6923544 6.4563038-9.408 2.1358987-.8676456 4.7355949-1.3261772 7.5183797-1.3261772 4.1784304 0 5.5927089-1.1655696 5.7308355-1.2893165.3337721-.4174177.8980253-.4550886 1.3363038-.144.1496709.1063291 3.667038 2.6568101 3.667038 7.3067342 0 4.6412152-3.6309874 7.3478481-3.785519 7.4608608-.3078481.2250126-.7159494.2582278-1.056.0852658-.2389874-.1213165-.416-.3299241-.4998481-.5757975-.3918988-.806481-2.1203038-3.9323544-5.3928102-3.9323544-3.6771645 0-5.5471392 3.8371645-5.5655696 3.8758481-.1934177.406481-.633924.6383797-1.0782785.5666835-2.508962-.4087088-3.2710886.9221266-3.5017721 1.7516962-.3173671 1.1422785.0714937 2.4980253.8002025 2.7896709.4506329.1802532.710076.6551899.6181266 1.1317469-.0917468.4767594-.5087595.8210632-.9942278.8210632z"/><path d="m43.1392405 85.2658228h-21.0632911c-2.3453165 0-4.2531646-1.9078481-4.2531646-4.2531646v-3.2405063c0-.5591899.4534684-1.0126582 1.0126582-1.0126582h21.0632912c.5591899 0 1.0126582.4534683 1.0126582 1.0126582s-.4534683 1.0126582-1.0126582 1.0126582h-20.0506329v2.2278481c0 1.2283545.9994936 2.2278481 2.2278481 2.2278481h21.0632911c.5591899 0 1.0126582.4534684 1.0126582 1.0126583 0 .5591898-.4534683 1.0126582-1.0126582 1.0126582"/><path d="m38.8860759 76.9113924v-8.8607595c0-.5591899.4534684-1.0126582 1.0126583-1.0126582s1.0126582.4534683 1.0126582 1.0126582v9.8607595c0 .5591899-.4534683.0126582-1.0126582.0126582s-1.0126583-.4534683-1.0126583-1.0126582z"/><path d="m56.1012658 4.25316456c-1.2283544 0-2.2278481.99949367-2.2278481 2.2278481v25.92405064c0 1.2283544.9994937 2.2278481 2.2278481 2.2278481h21.0632912c.5591898 0 1.0126582.4534683 1.0126582 1.0126582v8.8970127l9.612962-9.6131646c.1899747-.1897721.447595-.2965063.7161519-.2965063h3.2405063c1.2283545 0 2.2278481-.9994937 2.2278481-2.2278481v-25.92405064c0-1.22835443-.9994936-2.2278481-2.2278481-2.2278481zm21.0630886 43.74683544c-.1304303 0-.2620759-.0253165-.387443-.0771646-.3783291-.1565569-.6250127-.5259746-.6250127-.9354936v-10.329114h-20.0506329c-2.3453164 0-4.2531645-1.9078481-4.2531645-4.2531645v-25.92405064c0-2.34531646 1.9078481-4.25316456 4.2531645-4.25316456h35.6455696c2.3453165 0 4.2531646 1.9078481 4.2531646 4.25316456v25.92405064c0 2.3453164-1.9078481 4.2531645-4.2531646 4.2531645h-2.8210632l-11.0450633 11.0452659c-.1938228.1936202-.4528608.2965063-.7163545.2965063z"/></g><path d="m81.8227848 20.4556962h-14.5822785c-.5591898 0-1.0126582-.4534684-1.0126582-1.0126582 0-.5591899.4534684-1.0126583 1.0126582-1.0126583h14.5822785c.5591899 0 1.0126582.4534684 1.0126582 1.0126583 0 .5591898-.4534683 1.0126582-1.0126582 1.0126582" fill="#d20050"/><path d="m74.5316456 27.7468354c-.5591899 0-1.0126583-.4534683-1.0126583-1.0126582v-14.5822785c0-.5591898.4534684-1.0126582 1.0126583-1.0126582.5591898 0 1.0126582.4534684 1.0126582 1.0126582v14.5822785c0 .5591899-.4534684 1.0126582-1.0126582 1.0126582" fill="#d20050"/></g></svg>