<?xml version="1.0" encoding="UTF-8"?>
<svg width="120px" height="120px" viewBox="0 0 120 120" version="1.1" xmlns="http://www.w3.org/2000/svg" xmlns:xlink="http://www.w3.org/1999/xlink">
    <title>02.Icons/Illustrative/01. Profils/Ambassadeurs</title>
    <g id="02.Icons/Illustrative/01.-Profils/Ambassadeurs" stroke="none" stroke-width="1" fill="none" fill-rule="evenodd">
        <path d="M62.3729,110.18 L62.3699,110.18 C36.4089,110.18 15.3639,89.476 15.3639,63.934 L15.3639,11.741 L15.3639,10 C19.0389,14.025 26.4179,17.454 41.3989,17.686 L62.3729,17.686 C88.3339,17.686 109.3789,38.391 109.3789,63.934 C109.3789,89.476 88.3339,110.18 62.3729,110.18" id="Fill-1" fill="#F2F3F7"></path>
        <path d="M36.2841,70.7169 L26.8881,73.8779 C29.6011,81.9429 33.8841,89.3919 39.4881,95.7869 L47.3181,93.1529 C42.6591,86.1949 38.9551,78.6569 36.2841,70.7169 L36.2841,70.7169 Z M79.5471,33.5009 L75.3331,20.9729 C74.7541,19.2509 72.8691,18.3159 71.1471,18.8949 C69.4251,19.4739 68.4901,21.3589 69.0691,23.0809 L83.8201,66.9279 C84.3991,68.6499 86.2831,69.5859 88.0051,69.0069 C89.7271,68.4269 90.6631,66.5429 90.0831,64.8209 L85.8691,52.2929 L79.5471,33.5009 Z M79.5471,33.5009 C83.6691,33.4729 87.5081,36.4379 88.9721,40.7899 C90.4361,45.1419 89.1701,49.8239 85.8691,52.2929 L79.5471,33.5009 Z" id="Fill-3" fill="#FFFFFF"></path>
        <path d="M26.8881,73.8777 L23.7561,74.9317 C20.2951,76.0957 16.5491,74.2357 15.3851,70.7747 L12.2241,61.3787 C11.0601,57.9177 12.9201,54.1717 16.3811,53.0077 L35.1731,46.6857 C48.4841,42.2077 60.2491,34.0147 69.0691,23.0807 L83.8201,66.9287 C70.1841,63.5487 55.8591,64.1317 42.5481,68.6097 L36.2841,70.7167 L26.8881,73.8777 Z" id="Fill-5" fill="#1D71B8"></path>
        <path d="M20.8136,55.8226 L17.6816,56.8766 L18.2406,58.5346 L21.3726,57.4806 L20.8136,55.8226 Z M22.9206,62.0866 L19.7896,63.1396 L20.3476,64.7986 L23.4796,63.7446 L22.9206,62.0866 Z M89.2536,65.0996 L74.5036,21.2526 C74.1636,20.2386 73.2136,19.5966 72.1996,19.5966 C71.9436,19.5966 71.6826,19.6376 71.4266,19.7236 C70.8146,19.9296 70.3186,20.3646 70.0286,20.9486 C69.7396,21.5316 69.6926,22.1896 69.8986,22.8016 L84.6486,66.6486 C84.8546,67.2606 85.2896,67.7566 85.8736,68.0466 C86.4566,68.3366 87.1156,68.3856 87.7256,68.1766 C88.3366,67.9706 88.8346,67.5366 89.1236,66.9536 C89.4136,66.3696 89.4596,65.7116 89.2536,65.0996 L89.2536,65.0996 Z M82.4916,65.7256 L68.7386,24.8396 C59.9206,35.3126 48.4486,43.1426 35.4526,47.5146 L16.6606,53.8366 C15.2076,54.3246 14.0326,55.3486 13.3516,56.7206 C12.6706,58.0926 12.5646,59.6466 13.0526,61.0986 L16.2136,70.4956 C16.7026,71.9476 17.7266,73.1226 19.0976,73.8026 C20.4706,74.4846 22.0256,74.5906 23.4766,74.1016 L41.4396,68.0596 L36.4516,53.2286 L38.1096,52.6706 L43.1036,67.5166 C55.8586,63.3906 69.4206,62.7766 82.4916,65.7256 L82.4916,65.7256 Z M35.7466,71.8206 L28.0156,74.4216 C30.6496,81.9116 34.5886,88.7556 39.7646,94.7706 L45.9606,92.6856 C41.7216,86.1866 38.2956,79.1736 35.7466,71.8206 L35.7466,71.8206 Z M80.7986,34.4776 L86.2766,50.7606 C88.5496,48.3896 89.3266,44.5876 88.1426,41.0686 C86.9586,37.5496 84.0426,34.9916 80.7986,34.4776 L80.7986,34.4776 Z M90.6906,67.7316 C90.1936,68.7336 89.3376,69.4806 88.2846,69.8356 C87.8496,69.9816 87.4016,70.0536 86.9556,70.0546 C86.3186,70.0546 85.6836,69.9066 85.0946,69.6136 C84.2516,69.1956 83.6056,68.5146 83.2056,67.6856 C69.8286,64.4496 55.8766,65.0496 42.8276,69.4386 L37.4066,71.2626 C40.0306,78.8286 43.6016,86.0286 48.0446,92.6656 C48.1976,92.8916 48.2346,93.1766 48.1466,93.4346 C48.0586,93.6926 47.8556,93.8946 47.5976,93.9816 L39.7676,96.6166 C39.6756,96.6476 39.5826,96.6626 39.4886,96.6626 C39.2406,96.6626 38.9996,96.5566 38.8306,96.3636 C33.3136,90.0686 29.1296,82.8726 26.3576,74.9786 L24.0356,75.7596 C23.2516,76.0236 22.4436,76.1546 21.6396,76.1546 C20.5016,76.1546 19.3696,75.8916 18.3206,75.3716 C16.5306,74.4826 15.1936,72.9486 14.5556,71.0536 L11.3946,61.6576 C10.7566,59.7616 10.8956,57.7316 11.7846,55.9416 C12.6726,54.1526 14.2066,52.8156 16.1016,52.1776 L34.8936,45.8566 C47.9416,41.4666 59.4196,33.5126 68.1226,22.8486 C67.9396,21.9456 68.0436,21.0126 68.4606,20.1706 C68.9596,19.1676 69.8136,18.4206 70.8686,18.0656 C71.9226,17.7096 73.0546,17.7886 74.0576,18.2876 C75.0606,18.7856 75.8076,19.6396 76.1626,20.6936 L80.1856,32.6526 C84.4106,32.9196 88.3046,36.0636 89.8006,40.5096 C91.2976,44.9576 90.0956,49.8176 86.8906,52.5856 L90.9126,64.5416 C91.2676,65.5956 91.1886,66.7286 90.6906,67.7316 L90.6906,67.7316 Z M25.0286,68.3506 L25.5866,70.0096 L22.4556,71.0626 L21.8966,69.4046 L25.0286,68.3506 Z" id="Fill-9" fill="#343852"></path>
        <path d="M109.589,50.0043 C109.685,49.5303 109.378,49.0683 108.904,48.9743 L95.944,46.3603 C95.472,46.2703 95.009,46.5713 94.914,47.0453 C94.818,47.5193 95.125,47.9813 95.599,48.0753 L108.559,50.6893 C108.617,50.7003 108.675,50.7063 108.733,50.7063 C109.141,50.7063 109.506,50.4193 109.589,50.0043 M91.16,32.1383 L99.905,22.2233 C100.225,21.8603 100.191,21.3073 99.828,20.9873 C99.465,20.6693 98.913,20.7033 98.593,21.0653 L89.848,30.9803 C89.528,31.3423 89.563,31.8963 89.925,32.2153 C90.092,32.3613 90.298,32.4343 90.504,32.4343 C90.746,32.4343 90.987,32.3333 91.16,32.1383 M95.236,39.5583 C94.871,39.5583 94.53,39.3273 94.407,38.9623 C94.253,38.5043 94.499,38.0083 94.957,37.8543 L107.485,33.6393 C107.943,33.4833 108.439,33.7313 108.593,34.1893 C108.747,34.6473 108.501,35.1433 108.043,35.2973 L95.516,39.5123 C95.423,39.5433 95.329,39.5583 95.236,39.5583" id="Fill-12" fill="#D20050"></path>
    </g>
</svg>