<?xml version="1.0" encoding="UTF-8"?>
<svg width="120px" height="120px" viewBox="0 0 120 120" version="1.1" xmlns="http://www.w3.org/2000/svg" xmlns:xlink="http://www.w3.org/1999/xlink">
    <title>02.Icons/Illustrative/Autres Cafe Thé</title>
    <g id="02.Icons/Illustrative/Autres-Cafe-Thé" stroke="none" stroke-width="1" fill="none" fill-rule="evenodd">
        <path d="M54.008,92.3509981 L54.006,92.3509981 C34.12,92.3509981 18,76.4909981 18,56.9269981 L18,16.9479981 L18,15.6149981 C20.815,18.6989981 26.468,21.3239981 37.942,21.5019981 L54.008,21.5019981 C73.894,21.5019981 90.014,37.3619981 90.014,56.9269981 C90.014,76.4909981 73.894,92.3509981 54.008,92.3509981" id="Fill-1" fill="#F2F3F7"></path>
        <path d="M95.0884,87.7390981 C95.0884,94.6780981 80.6394,100.304098 62.8154,100.304098 C44.9914,100.304098 30.5424,94.6780981 30.5424,87.7390981 C30.5424,80.8000981 44.9914,75.1740981 62.8154,75.1740981 C80.6394,75.1740981 95.0884,80.8000981 95.0884,87.7390981" id="Fill-3" fill="#1D71B8"></path>
        <path d="M86.7268,89.1301981 C86.7268,92.9551981 76.0018,96.0551981 62.7718,96.0551981 C49.5418,96.0551981 38.8168,92.9551981 38.8168,89.1301981 C38.8168,85.3051981 49.5418,82.2051981 62.7718,82.2051981 C76.0018,82.2051981 86.7268,85.3051981 86.7268,89.1301981" id="Fill-5" fill="#155891"></path>
        <path d="M34.5337,47.6929981 C35.0457,56.9219981 39.3757,82.7239981 44.2147,88.5439981 C48.6477,93.8749981 60.6107,94.0979981 62.5837,94.0979981 C62.7647,94.0979981 62.8617,94.0969981 62.8617,94.0969981 C62.8617,94.0969981 62.9577,94.0979981 63.1387,94.0979981 C65.1107,94.0979981 77.0747,93.8749981 81.5077,88.5439981 C86.3467,82.7239981 90.6767,56.9219981 91.1887,47.6929981" id="Fill-9" fill="#C5C8DA"></path>
        <path d="M39.5906,51.3475981 C43.7666,53.8235981 51.8996,55.9955981 62.8796,55.9955981 C73.7476,55.9955981 81.8286,53.8675981 86.0416,51.4235981 C81.6376,48.1815981 72.8696,45.9695981 62.7656,45.9695981 C52.7406,45.9695981 44.0276,48.1465981 39.5906,51.3475981" id="Fill-11" fill="#464C6D"></path>
        <path d="M39.5906,51.3475981 C44.0276,48.1465981 52.7406,45.9695981 62.7656,45.9695981 C72.8696,45.9695981 81.6376,48.1815981 86.0416,51.4235981 C88.1806,50.1825981 89.3266,48.8605981 89.3266,47.6925981 C89.3266,44.2265981 79.2656,39.3905981 62.8796,39.3905981 C46.4946,39.3905981 36.4336,44.2265981 36.4336,47.6925981 C36.4336,48.8365981 37.5346,50.1285981 39.5906,51.3475981" id="Fill-13" fill="#EDEEF3"></path>
        <path d="M73.1695,64.8078981 L66.7425,64.8078981 C65.2625,64.8078981 64.0515,66.0188981 64.0515,67.4988981 L64.0515,78.8928981 L75.8605,78.8928981 L75.8605,67.4988981 C75.8605,66.0188981 74.6495,64.8078981 73.1695,64.8078981" id="Fill-15" fill="#D20050"></path>
        <path d="M62.772,99.1855981 C44.105,99.1855981 31.096,93.1085981 31.096,87.6535981 C31.096,84.8645981 34.504,81.9145981 40.323,79.6955981 C41.531,83.6845981 42.852,86.9055981 44.214,88.5435981 C48.648,93.8745981 60.61,94.0985981 62.584,94.0985981 C62.765,94.0985981 62.861,94.0965981 62.861,94.0965981 C62.861,94.0965981 62.958,94.0985981 63.138,94.0985981 C65.111,94.0985981 77.074,93.8755981 81.508,88.5435981 C82.863,86.9145981 84.178,83.7165981 85.381,79.7555981 C91.105,81.9675981 94.448,84.8895981 94.448,87.6535981 C94.448,93.1085981 81.439,99.1855981 62.772,99.1855981 L62.772,99.1855981 Z M73.807,65.3105981 C74.538,65.3105981 75.132,65.9045981 75.132,66.6345981 L75.132,78.3915981 L64.78,78.3915981 L64.78,66.6345981 C64.78,65.9165981 65.387,65.3105981 66.105,65.3105981 L73.807,65.3105981 Z M36.782,51.6805981 C41.095,55.3335981 51.156,57.8955981 62.88,57.8955981 C64.984,57.8955981 67.032,57.8105981 69.006,57.6535981 L69.006,63.4095981 L66.105,63.4095981 C64.331,63.4095981 62.88,64.8615981 62.88,66.6345981 L62.88,80.2915981 L77.032,80.2915981 L77.032,66.6345981 C77.032,64.8615981 75.581,63.4095981 73.807,63.4095981 L70.906,63.4095981 L70.906,57.4775981 C79.03,56.6155981 85.636,54.4815981 88.937,51.7125981 C87.668,63.3575981 83.696,82.9405981 80.047,87.3285981 C76.85,91.1725981 67.915,92.1985981 63.138,92.1985981 L62.898,92.1965981 L62.861,92.1965981 L62.825,92.1965981 L62.584,92.1985981 C57.808,92.1985981 48.872,91.1725981 45.675,87.3285981 C42.022,82.9355981 38.047,63.3205981 36.782,51.6805981 L36.782,51.6805981 Z M62.88,39.3905981 C79.265,39.3905981 89.326,44.2265981 89.326,47.6925981 C89.326,50.6255981 82.125,54.5375981 69.986,55.6735981 C69.976,55.6725981 69.967,55.6665981 69.956,55.6665981 C69.929,55.6665981 69.906,55.6805981 69.88,55.6825981 C67.7,55.8825981 65.364,55.9955981 62.88,55.9955981 C46.495,55.9955981 36.434,51.1595981 36.434,47.6925981 C36.434,44.2265981 46.495,39.3905981 62.88,39.3905981 L62.88,39.3905981 Z M94.824,67.2635981 C93.405,69.0825981 91.769,69.6455981 90.037,70.2405981 C89.219,70.5215981 88.387,70.8125981 87.57,71.2315981 C89.361,63.1615981 90.664,54.3705981 91.088,49.1225981 C92.245,49.1875981 94.898,49.5635981 97.125,51.5635981 C99.837,53.9965981 98.042,63.1365981 94.824,67.2635981 L94.824,67.2635981 Z M85.911,77.9265981 C86.275,76.6275981 86.626,75.2645981 86.963,73.8645981 L86.996,73.9005981 C88.078,72.9225981 89.33,72.4935981 90.655,72.0375981 C92.484,71.4085981 94.556,70.6965981 96.322,68.4315981 C99.803,63.9665981 102.212,53.5755981 98.394,50.1495981 C95.726,47.7545981 92.634,47.2955981 91.193,47.2205981 C90.507,41.8055981 78.095,37.4905981 62.88,37.4905981 C47.225,37.4905981 34.534,42.0585981 34.534,47.6925981 L34.534,47.6925981 C34.534,47.6935981 34.534,47.6945981 34.534,47.6945981 C34.881,53.9415981 36.976,67.7705981 39.794,77.8665981 C33.276,80.3165981 29.196,83.7935981 29.196,87.6535981 C29.196,95.0715981 44.229,101.085598 62.772,101.085598 C81.315,101.085598 96.348,95.0715981 96.348,87.6535981 C96.348,83.8255981 92.336,80.3735981 85.911,77.9265981 L85.911,77.9265981 Z" id="Fill-17" fill="#343852"></path>
        <path d="M62.6022,34.7490981 C63.0062,34.4150981 63.0642,33.8160981 62.7312,33.4110981 C60.7962,31.0630981 61.6742,28.7460981 63.2672,25.1600981 C65.0292,21.1920981 67.2222,16.2550981 61.8732,11.1560981 C61.4942,10.7940981 60.8922,10.8090981 60.5302,11.1880981 C60.1672,11.5680981 60.1822,12.1700981 60.5622,12.5310981 C64.9422,16.7060981 63.2852,20.4380981 61.5312,24.3890981 C60.0332,27.7600981 58.4852,31.2460981 61.2642,34.6200981 C61.4532,34.8480981 61.7242,34.9660981 61.9982,34.9660981 C62.2102,34.9660981 62.4242,34.8950981 62.6022,34.7490981 M54.2432,34.7490981 C54.6472,34.4150981 54.7052,33.8160981 54.3722,33.4110981 C53.0392,31.7950981 53.6672,30.1460981 54.8022,27.5910981 C56.1322,24.5950981 57.7892,20.8660981 53.7182,16.9870981 C53.3402,16.6250981 52.7382,16.6400981 52.3752,17.0200981 C52.0132,17.3990981 52.0282,18.0010981 52.4082,18.3620981 C55.5092,21.3180981 54.3762,23.8680981 53.0662,26.8190981 C51.9842,29.2550981 50.7582,32.0150981 52.9052,34.6200981 C53.0932,34.8480981 53.3652,34.9660981 53.6392,34.9660981 C53.8512,34.9660981 54.0652,34.8950981 54.2432,34.7490981 M70.5552,34.6950981 C70.2302,34.6950981 69.9142,34.5280981 69.7372,34.2280981 C65.9562,27.8340981 68.3542,24.0610981 70.4712,20.7330981 C72.7562,17.1400981 74.7302,14.0360981 69.7972,7.52309812 C69.4802,7.10509812 69.5622,6.51009812 69.9812,6.19309812 C70.3992,5.87509812 70.9962,5.95909812 71.3112,6.37709812 C77.0422,13.9410981 74.4032,18.0920981 72.0742,21.7530981 C69.9872,25.0350981 68.1842,27.8700981 71.3722,33.2620981 C71.6392,33.7130981 71.4902,34.2960981 71.0382,34.5620981 C70.8862,34.6520981 70.7192,34.6950981 70.5552,34.6950981" id="Fill-20" fill="#969CBB"></path>
    </g>
</svg>