<?xml version="1.0" encoding="UTF-8"?>
<svg width="120px" height="120px" viewBox="0 0 120 120" version="1.1" xmlns="http://www.w3.org/2000/svg" xmlns:xlink="http://www.w3.org/1999/xlink">
    <title>02.Icons/Illustrative/Autres Telephone</title>
    <g id="02.Icons/Illustrative/Autres-Telephone" stroke="none" stroke-width="1" fill="none" fill-rule="evenodd">
        <path d="M92.090164,52.805 C92.090164,72.027 76.507164,87.61 57.285164,87.61 C38.063164,87.61 22.481164,72.027 22.481164,52.805 C22.481164,33.583 38.063164,18 57.285164,18 C76.507164,18 92.090164,33.583 92.090164,52.805" id="Fill-1" fill="#F2F3F7"></path>
        <path d="M31.930364,41.0482 C28.152364,41.0492 23.014364,46.2392 21.320364,49.6982 C16.297364,60.2202 23.766364,73.5212 34.785364,84.5532 C43.339364,93.6492 53.280364,100.2762 62.694364,100.2762 C65.037364,100.2762 66.746364,99.9322 68.873364,98.9982 C73.195364,97.0462 80.698364,88.9692 76.788364,86.1292 L66.546364,79.4482 C65.393364,78.6882 65.310364,78.6302 64.612364,78.6302 C63.243364,78.6302 62.859364,79.6642 60.143364,82.1022 C59.266364,82.8892 57.671364,84.8512 55.962364,84.8512 C55.734364,84.8512 54.275364,84.7152 54.045364,84.6382 C50.904364,83.5732 46.137364,79.3932 42.923364,76.1162 C39.748364,72.8022 35.240364,67.1442 34.274364,63.9722 C33.679364,61.9932 36.631364,59.1842 37.555364,58.2202 C41.362364,54.2342 42.378364,55.3952 40.239364,51.9142 L33.762364,41.7052 C33.252364,40.9542 32.804364,41.0482 31.930364,41.0482" id="Fill-3" fill="#1D71B8"></path>
        <path d="M32.400564,39.8048 C28.622564,39.8058 22.278564,45.8348 20.584564,49.2938 C15.561564,59.8148 23.130564,74.1248 34.149564,85.1568 C42.702564,94.2528 53.425564,101.2028 62.839564,101.2028 C65.181564,101.2028 67.444564,100.7718 69.570564,99.8378 C73.892564,97.8858 81.515564,88.1738 77.605564,85.3338 L67.364564,78.6518 C66.211564,77.8918 65.421564,77.5338 64.723564,77.5338 C63.354564,77.5338 62.335564,78.9118 59.618564,81.3488 C58.742564,82.1358 57.147564,84.0978 55.438564,84.0978 C55.210564,84.0978 54.980564,84.0628 54.749564,83.9858 C51.609564,82.9208 46.588564,78.6798 43.374564,75.4018 C40.199564,72.0878 36.117564,66.9358 35.151564,63.7638 C34.556564,61.7848 37.016564,59.9448 37.939564,58.9798 C41.747564,54.9938 43.016564,54.8038 40.877564,51.3228 L34.520564,40.8778 C34.009564,40.1268 33.274564,39.8048 32.400564,39.8048 M32.401564,41.7048 L32.401564,41.7048 C32.747564,41.7048 32.849564,41.8048 32.924564,41.9108 L39.259564,52.3178 C40.069564,53.6358 40.017564,53.9338 40.009564,53.9628 C39.906564,54.3158 39.094564,55.1228 38.233564,55.9778 C37.746564,56.4608 37.189564,57.0148 36.567564,57.6658 C36.438564,57.8008 36.273564,57.9548 36.092564,58.1268 C34.835564,59.3148 32.494564,61.5258 33.333564,64.3178 C34.515564,68.1948 39.338564,73.9358 42.018564,76.7318 C44.714564,79.4818 50.300564,84.4828 54.146564,85.7878 C54.563564,85.9268 54.998564,85.9978 55.438564,85.9978 C57.621564,85.9978 59.302564,84.3268 60.414564,83.2218 C60.591564,83.0458 60.750564,82.8858 60.887564,82.7628 C61.559564,82.1598 62.130564,81.6208 62.628564,81.1498 C63.436564,80.3848 64.442564,79.4338 64.723564,79.4338 C64.835564,79.4338 65.216564,79.5128 66.326564,80.2428 L76.520564,86.8938 C76.639564,86.9868 76.846564,87.2048 76.771564,87.9368 C76.445564,91.1278 71.662564,96.8088 68.806564,98.0988 C66.987564,98.8978 64.980564,99.3028 62.839564,99.3028 C54.837564,99.3028 44.629564,93.5278 35.533564,83.8558 L35.513564,83.8348 L35.493564,83.8148 C29.822564,78.1368 25.537564,72.0788 23.102564,66.2968 C20.449564,59.9978 20.178564,54.5528 22.290564,50.1288 C23.882564,46.8798 29.684564,41.7058 32.401564,41.7048" id="Fill-5" fill="#343852"></path>
        <path d="M90.544064,24.1255 L57.124064,24.1255 C51.824064,24.1255 48.803064,27.5685 48.803064,32.8695 L48.803064,47.9395 C48.803064,53.2405 51.824064,56.6525 57.124064,56.6525 L61.269064,56.6525 L61.269064,65.2425 C61.269064,65.2425 61.845064,65.6415 62.107064,65.6415 C62.631064,65.6415 63.703064,64.7525 63.703064,64.7525 L74.175064,56.6015 L90.544064,56.6015 C95.845064,56.6015 99.150064,53.2405 99.150064,47.9395 L99.150064,32.8695 C99.150064,27.5685 95.845064,24.1255 90.544064,24.1255" id="Fill-7" fill="#FFFFFF"></path>
        <path d="M90.544064,23.232 L57.124064,23.232 C51.824064,23.232 47.487064,27.569 47.487064,32.869 L47.487064,47.94 C47.487064,53.24 51.824064,57.577 57.124064,57.577 L60.164064,57.577 L60.164064,65.243 C60.164064,65.243 60.195064,65.997 61.157064,66.494 C61.477064,66.66 61.780064,66.715 62.042064,66.715 C62.567064,66.715 62.926064,66.494 62.926064,66.494 L74.175064,57.577 L90.544064,57.577 C95.845064,57.577 100.181064,53.24 100.181064,47.94 L100.181064,32.869 C100.181064,27.569 95.845064,23.232 90.544064,23.232 M90.544064,25.132 C94.810064,25.132 98.281064,28.603 98.281064,32.869 L98.281064,47.94 C98.281064,52.206 94.810064,55.677 90.544064,55.677 L74.175064,55.677 L73.514064,55.677 L72.995064,56.088 L62.064064,64.753 L62.064064,57.577 L62.064064,55.677 L60.164064,55.677 L57.124064,55.677 C52.858064,55.677 49.387064,52.206 49.387064,47.94 L49.387064,32.869 C49.387064,28.603 52.858064,25.132 57.124064,25.132 L90.544064,25.132" id="Fill-9" fill="#343852"></path>
        <path d="M85.709564,37.871 C84.141564,37.871 82.870564,39.142 82.870564,40.71 C82.870564,42.278 84.141564,43.55 85.709564,43.55 C87.277564,43.55 88.548564,42.278 88.548564,40.71 C88.548564,39.142 87.277564,37.871 85.709564,37.871 M73.834564,37.871 C72.266564,37.871 70.994564,39.142 70.994564,40.71 C70.994564,42.278 72.266564,43.55 73.834564,43.55 C75.402564,43.55 76.673564,42.278 76.673564,40.71 C76.673564,39.142 75.402564,37.871 73.834564,37.871 M62.093564,37.871 C60.525564,37.871 59.253564,39.142 59.253564,40.71 C59.253564,42.278 60.525564,43.55 62.093564,43.55 C63.661564,43.55 64.932564,42.278 64.932564,40.71 C64.932564,39.142 63.661564,37.871 62.093564,37.871" id="Fill-12" fill="#D20050"></path>
        <path d="M85.709564,36.6948 C83.491564,36.6948 81.693564,38.4928 81.693564,40.7108 C81.693564,42.9278 83.491564,44.7258 85.709564,44.7258 C87.927564,44.7258 89.724564,42.9278 89.724564,40.7108 C89.724564,38.4928 87.927564,36.6948 85.709564,36.6948 M85.709564,38.5948 C86.875564,38.5948 87.824564,39.5438 87.824564,40.7108 C87.824564,41.8768 86.875564,42.8258 85.709564,42.8258 C84.542564,42.8258 83.594564,41.8768 83.594564,40.7108 C83.594564,39.5438 84.542564,38.5948 85.709564,38.5948 M73.901564,36.6948 C71.683564,36.6948 69.885564,38.4928 69.885564,40.7108 C69.885564,42.9278 71.683564,44.7258 73.901564,44.7258 C76.119564,44.7258 77.916564,42.9278 77.916564,40.7108 C77.916564,38.4928 76.119564,36.6948 73.901564,36.6948 M73.901564,38.5948 C75.067564,38.5948 76.016564,39.5438 76.016564,40.7108 C76.016564,41.8768 75.067564,42.8258 73.901564,42.8258 C72.734564,42.8258 71.785564,41.8768 71.785564,40.7108 C71.785564,39.5438 72.734564,38.5948 73.901564,38.5948 M62.093564,36.6948 C59.875564,36.6948 58.077564,38.4928 58.077564,40.7108 C58.077564,42.9278 59.875564,44.7258 62.093564,44.7258 C64.310564,44.7258 66.108564,42.9278 66.108564,40.7108 C66.108564,38.4928 64.310564,36.6948 62.093564,36.6948 M62.093564,38.5948 C63.259564,38.5948 64.208564,39.5438 64.208564,40.7108 C64.208564,41.8768 63.259564,42.8258 62.093564,42.8258 C60.926564,42.8258 59.977564,41.8768 59.977564,40.7108 C59.977564,39.5438 60.926564,38.5948 62.093564,38.5948" id="Fill-14" fill="#343852"></path>
    </g>
</svg>