<?xml version="1.0" encoding="UTF-8"?>
<svg width="120px" height="120px" viewBox="0 0 120 120" version="1.1" xmlns="http://www.w3.org/2000/svg" xmlns:xlink="http://www.w3.org/1999/xlink">
    <title>02.Icons/Illustrative/Autres Replay</title>
    <g id="02.Icons/Illustrative/Autres-Replay" stroke="none" stroke-width="1" fill="none" fill-rule="evenodd">
        <path d="M64.7257,40.8625 C64.7257,56.8035 51.8037,69.7255 35.8627,69.7255 C19.9227,69.7255 6.9997,56.8035 6.9997,40.8625 C6.9997,24.9215 19.9227,11.9995 35.8627,11.9995 C51.8037,11.9995 64.7257,24.9215 64.7257,40.8625" id="Fill-1" fill="#F2F3F7"></path>
        <polygon id="Fill-4" fill="#FFFFFF" points="20.68 91.336 101.32 91.336 101.32 34.846 20.68 34.846"></polygon>
        <polygon id="Fill-6" fill="#EDEEF3" points="24.711 86.991 97.288 86.991 97.288 39.471 24.711 39.471"></polygon>
        <path d="M101.3199,35.1513 L27.8799,35.1513 L20.6799,35.1513 L20.6799,32.2713 C20.6799,29.8803 22.6089,27.9513 24.9999,27.9513 L96.9999,27.9513 C99.3909,27.9513 101.3199,29.8803 101.3199,32.2713 L101.3199,35.1513 Z" id="Fill-7" fill="#1D71B8"></path>
        <polygon id="Fill-8" fill="#FFFFFF" points="107.0799 84.2688 100.9739 87.6828 106.3739 96.5388 99.1739 99.9518 93.7599 91.0948 88.3599 94.4938 88.3599 74.0308"></polygon>
        <path d="M69.8295,61.8247 C70.1685,62.0247 70.3755,62.3927 70.3755,62.7917 C70.3755,63.1897 70.1685,63.5587 69.8295,63.7577 L57.2695,71.1257 C56.9295,71.3247 56.5165,71.3247 56.1705,71.1257 C55.8315,70.9257 55.6245,70.5567 55.6245,70.1597 L55.6245,55.4227 C55.6245,55.0257 55.8315,54.6567 56.1705,54.4567 C56.5165,54.2577 56.9295,54.2577 57.2695,54.4567 L69.8295,61.8247 Z" id="Fill-9" fill="#D20050"></path>
        <path d="M42.0142,63.2389 C42.0142,60.6689 42.5342,58.1309 43.5222,55.7789 L41.9642,56.3079 C41.4672,56.4749 40.9282,56.2119 40.7592,55.7149 C40.5902,55.2179 40.8562,54.6779 41.3532,54.5099 L45.0792,53.2429 C45.0892,53.2399 45.0992,53.2419 45.1092,53.2389 C45.1922,53.2139 45.2782,53.2109 45.3652,53.2089 C45.4062,53.2079 45.4462,53.1959 45.4862,53.1999 C45.5892,53.2109 45.6882,53.2479 45.7852,53.2939 C45.8072,53.3039 45.8322,53.3029 45.8532,53.3149 C45.8542,53.3159 45.8542,53.3169 45.8552,53.3169 C45.8562,53.3179 45.8572,53.3179 45.8582,53.3179 C45.9742,53.3849 46.0702,53.4729 46.1452,53.5749 C46.1622,53.5969 46.1682,53.6269 46.1822,53.6509 C46.2342,53.7359 46.2802,53.8229 46.3042,53.9189 C46.3062,53.9269 46.3122,53.9329 46.3142,53.9409 L47.1562,57.8179 C47.2672,58.3309 46.9412,58.8369 46.4282,58.9479 C46.3612,58.9629 46.2922,58.9689 46.2262,58.9689 C45.7882,58.9689 45.3952,58.6659 45.2982,58.2199 L45.0522,57.0839 C44.3092,59.0419 43.9142,61.1279 43.9142,63.2389 C43.9142,72.7899 51.6852,80.5599 61.2362,80.5599 C70.7862,80.5599 78.5572,72.7899 78.5572,63.2389 C78.5572,53.6879 70.7862,45.9179 61.2362,45.9179 C58.2272,45.9179 55.5222,46.5399 53.1962,47.7659 C52.7302,48.0099 52.1582,47.8319 51.9112,47.3689 C51.6672,46.9039 51.8452,46.3299 52.3092,46.0849 C54.9122,44.7139 57.9152,44.0169 61.2362,44.0169 C71.8342,44.0169 80.4572,52.6399 80.4572,63.2389 C80.4572,73.8379 71.8342,82.4609 61.2362,82.4609 C50.6372,82.4609 42.0142,73.8379 42.0142,63.2389 L42.0142,63.2389 Z M83.5502,91.3109 C83.5502,91.8359 83.1242,92.2609 82.6002,92.2609 L24.9992,92.2609 C22.0942,92.2609 19.7302,89.8969 19.7302,86.9909 L19.7302,32.2709 C19.7302,29.3649 22.0942,27.0009 24.9992,27.0009 L96.9992,27.0009 C99.9062,27.0009 102.2702,29.3649 102.2702,32.2709 L102.2702,74.0309 C102.2702,74.5549 101.8442,74.9809 101.3202,74.9809 C100.7952,74.9809 100.3692,74.5549 100.3692,74.0309 L100.3692,36.1009 L27.8802,36.1009 C27.3562,36.1009 26.9302,35.6759 26.9302,35.1509 C26.9302,34.6269 27.3562,34.2009 27.8802,34.2009 L100.3692,34.2009 L100.3692,32.2709 C100.3692,30.4129 98.8582,28.9009 96.9992,28.9009 L24.9992,28.9009 C23.1422,28.9009 21.6302,30.4129 21.6302,32.2709 L21.6302,86.9909 C21.6302,88.8489 23.1422,90.3609 24.9992,90.3609 L82.6002,90.3609 C83.1242,90.3609 83.5502,90.7869 83.5502,91.3109 L83.5502,91.3109 Z M56.5752,55.4239 C56.5752,55.3599 56.6052,55.3029 56.6442,55.2799 C56.6702,55.2649 56.6972,55.2579 56.7222,55.2579 C56.7442,55.2579 56.7672,55.2629 56.7882,55.2759 L69.3482,62.6439 C69.3952,62.6719 69.4252,62.7289 69.4252,62.7919 C69.4252,62.8539 69.3962,62.9109 69.3492,62.9379 L56.7882,70.3059 C56.7432,70.3329 56.6952,70.3319 56.6522,70.3059 C56.6052,70.2789 56.5752,70.2209 56.5752,70.1599 L56.5752,55.4239 Z M56.7222,72.2269 C57.0762,72.2269 57.4292,72.1329 57.7492,71.9449 L70.3112,64.5769 C70.9372,64.2089 71.3262,63.5249 71.3262,62.7919 C71.3262,62.0579 70.9372,61.3739 70.3102,61.0059 L57.7492,53.6369 C57.1112,53.2619 56.3432,53.2609 55.6872,53.6379 C55.0632,54.0079 54.6742,54.6919 54.6742,55.4239 L54.6742,70.1599 C54.6742,70.8929 55.0632,71.5769 55.6972,71.9489 C56.0192,72.1349 56.3712,72.2269 56.7222,72.2269 L56.7222,72.2269 Z M100.5102,86.8539 C100.2852,86.9799 100.1202,87.1919 100.0552,87.4419 C99.9902,87.6919 100.0292,87.9579 100.1622,88.1769 L105.0132,96.1329 L99.5392,98.7259 L94.5712,90.5989 C94.4382,90.3829 94.2242,90.2269 93.9772,90.1699 C93.9062,90.1529 93.8322,90.1439 93.7602,90.1439 C93.5822,90.1439 93.4072,90.1939 93.2542,90.2909 L89.3102,92.7729 L89.3102,75.6339 L105.1172,84.2779 L100.5102,86.8539 Z M107.5352,83.4359 L88.8162,73.1979 C88.5212,73.0369 88.1652,73.0439 87.8752,73.2139 C87.5862,73.3849 87.4102,73.6949 87.4102,74.0309 L87.4102,94.4939 C87.4102,94.8399 87.5982,95.1579 87.9012,95.3259 C88.2022,95.4919 88.5732,95.4829 88.8662,95.2979 L93.4522,92.4109 L98.3642,100.4459 C98.5412,100.7369 98.8532,100.9009 99.1752,100.9009 C99.3122,100.9009 99.4512,100.8719 99.5812,100.8089 L106.7812,97.3969 C107.0242,97.2819 107.2062,97.0689 107.2842,96.8099 C107.3612,96.5519 107.3252,96.2739 107.1852,96.0449 L102.2982,88.0309 L107.5432,85.0979 C107.8452,84.9289 108.0312,84.6099 108.030204,84.2639 C108.0282,83.9189 107.8382,83.6009 107.5352,83.4359 L107.5352,83.4359 Z" id="Fill-10" fill="#343852"></path>
    </g>
</svg>