<?xml version="1.0" encoding="UTF-8"?>
<svg width="120px" height="120px" viewBox="0 0 120 120" version="1.1" xmlns="http://www.w3.org/2000/svg" xmlns:xlink="http://www.w3.org/1999/xlink">
    <title>02.Icons/Illustrative/Autres Evenement Conference</title>
    <g id="02.Icons/Illustrative/Autres-Evenement-Conference" stroke="none" stroke-width="1" fill="none" fill-rule="evenodd">
        <path d="M89.4248,49.343 C89.4248,33.109 76.2648,19.95 60.0318,19.95 C43.7978,19.95 30.6388,33.109 30.6388,49.343 C30.6388,65.577 43.7978,78.736 60.0318,78.736 C76.2648,78.736 89.4248,65.577 89.4248,49.343" id="Fill-1" fill="#F2F3F7"></path>
        <path d="M60.1386,41.3267 L59.2436,39.5367 C59.2036,39.4427 59.1236,39.3887 59.0296,39.3757 C58.9356,39.3617 58.8416,39.3887 58.7766,39.4557 L58.1736,40.0977 C58.1086,40.1637 58.0806,40.2707 58.1086,40.3637 C58.1216,40.4577 58.1876,40.5257 58.2806,40.5647 L60.1386,41.3267 Z M62.7036,56.0237 L52.0156,56.0237 L52.0156,50.6787 L52.0156,45.3347 C49.5446,49.5437 45.1886,54.6877 39.9906,54.6877 C38.4276,54.6877 37.3186,53.8987 37.3186,52.6827 C37.3186,50.2377 39.9376,50.2377 43.2916,47.8997 C46.8046,45.4417 50.7326,34.6467 56.0236,34.6467 L60.0316,34.6467 L64.9606,34.6467 C66.2966,34.6467 73.5526,35.9827 74.7286,35.9827 C75.9036,35.9827 78.4026,27.9657 82.7446,27.9657 C84.3336,27.9657 85.4166,28.2197 85.4166,29.3027 C85.4166,30.3847 84.2406,30.5987 82.7446,31.9747 C81.2476,33.3497 79.4436,40.6197 77.4006,41.3267 C75.3566,42.0337 68.0476,41.3267 68.0476,41.3267 L68.0476,50.6787 L68.0476,56.0237 L62.7036,56.0237 Z" id="Fill-3" fill="#1D71B8"></path>
        <polygon id="Fill-5" fill="#D20050" points="72.0561 56.0233 72.0561 61.3673 70.7201 61.3673 49.3431 61.3673 48.0071 61.3673 48.0071 56.0233 52.0151 56.0233 62.7041 56.0233 68.0481 56.0233"></polygon>
        <path d="M31.9746,88.0885 C27.5786,88.0885 19.9506,89.7585 19.9506,93.4325 L19.9506,100.1125 L42.6626,100.1125 L42.6626,93.4325 C42.6626,89.7585 36.3706,88.0885 31.9746,88.0885 M60.0316,88.0885 C55.6356,88.0885 48.0076,89.7585 48.0076,93.4325 L48.0076,100.1125 L72.0566,100.1125 L72.0566,93.4325 C72.0566,89.7585 64.4276,88.0885 60.0316,88.0885 M100.1136,93.4325 L100.1136,100.1125 L77.4006,100.1125 L77.4006,93.4325 C77.4006,89.7585 83.6936,88.0885 88.0886,88.0885 C92.4846,88.0885 100.1136,89.7585 100.1136,93.4325" id="Fill-7" fill="#969CBB"></path>
        <path d="M29.6104,76.158 C26.6044,76.679 25.4014,79.258 25.8164,81.609 C26.4294,85.176 28.3134,88.583 31.6664,87.995 C35.0194,87.421 35.6484,83.586 35.0344,80.019 C34.6204,77.653 32.6164,75.636 29.6104,76.158 L29.6104,76.158 Z M60.0314,19.95 C56.9724,19.95 55.3554,22.035 55.3554,24.159 C55.3554,27.379 56.6254,30.638 60.0314,30.638 C63.4384,30.638 64.7074,27.379 64.7074,24.159 C64.7074,22.035 63.0914,19.95 60.0314,19.95 L60.0314,19.95 Z M60.0314,76.064 C56.9724,76.064 55.3554,78.402 55.3554,80.794 C55.3554,81.447 55.3944,82.115 55.4884,82.744 C55.8904,85.63 57.2394,88.089 60.0314,88.089 C62.8234,88.089 64.1724,85.63 64.5874,82.744 C64.6684,82.115 64.7074,81.447 64.7074,80.794 C64.7074,78.402 63.0914,76.064 60.0314,76.064 L60.0314,76.064 Z M49.3434,61.368 L49.3434,82.744 L50.6794,82.744 L55.4884,82.744 C55.3944,82.115 55.3554,81.447 55.3554,80.794 C55.3554,78.402 56.9724,76.064 60.0314,76.064 C63.0914,76.064 64.7074,78.402 64.7074,80.794 C64.7074,81.447 64.6684,82.115 64.5874,82.744 L69.3844,82.744 L70.7204,82.744 L70.7204,61.368 L49.3434,61.368 Z M90.4534,76.158 C93.4594,76.679 94.6624,79.258 94.2474,81.609 C93.6334,85.176 91.7494,88.583 88.3964,87.995 C85.0434,87.421 84.4144,83.586 85.0294,80.019 C85.4424,77.653 87.4464,75.636 90.4534,76.158 L90.4534,76.158 Z" id="Fill-9" fill="#FFFFFF"></path>
        <path d="M19,82.7446 C19,82.2206 19.426,81.7946 19.95,81.7946 L21.286,81.7946 C21.811,81.7946 22.236,82.2206 22.236,82.7446 C22.236,83.2686 21.811,83.6946 21.286,83.6946 L19.95,83.6946 C19.426,83.6946 19,83.2686 19,82.7446 L19,82.7446 Z M97.827,82.7446 C97.827,82.2206 98.253,81.7946 98.777,81.7946 L100.113,81.7946 C100.638,81.7946 101.063,82.2206 101.063,82.7446 C101.063,83.2686 100.638,83.6946 100.113,83.6946 L98.777,83.6946 C98.253,83.6946 97.827,83.2686 97.827,82.7446 L97.827,82.7446 Z M48.957,60.4176 L71.105,60.4176 L71.105,56.9736 L48.957,56.9736 L48.957,60.4176 Z M69.384,81.7946 C68.859,81.7946 68.434,82.2206 68.434,82.7446 C68.434,83.2686 68.859,83.6946 69.384,83.6946 L80.072,83.6946 C80.597,83.6946 81.022,83.2686 81.022,82.7446 C81.022,82.2206 80.597,81.7946 80.072,81.7946 L71.67,81.7946 L71.67,62.3176 L72.056,62.3176 C72.58,62.3176 73.006,61.8916 73.006,61.3676 L73.006,56.0226 C73.006,55.4986 72.58,55.0726 72.056,55.0726 L63.654,55.0726 L63.654,44.5336 C63.654,43.9526 63.431,43.3936 63.017,42.9526 L60.923,40.7706 L60.117,39.1636 C59.946,38.7656 59.587,38.4926 59.176,38.4376 C58.776,38.3806 58.378,38.5076 58.084,38.8056 L57.492,39.4346 C57.202,39.7336 57.085,40.1616 57.18,40.5646 C57.257,40.9526 57.525,41.2756 57.92,41.4436 L59.592,42.1286 L61.639,44.2616 C61.715,44.3436 61.754,44.4336 61.754,44.5336 L61.754,55.0726 L48.007,55.0726 C47.482,55.0726 47.057,55.4986 47.057,56.0226 L47.057,61.3676 C47.057,61.8916 47.482,62.3176 48.007,62.3176 L48.393,62.3176 L48.393,81.7946 L39.991,81.7946 C39.467,81.7946 39.041,82.2206 39.041,82.7446 C39.041,83.2686 39.467,83.6946 39.991,83.6946 L50.68,83.6946 C51.204,83.6946 51.63,83.2686 51.63,82.7446 C51.63,82.2206 51.204,81.7946 50.68,81.7946 L50.293,81.7946 L50.293,62.3176 L69.77,62.3176 L69.77,81.7946 L69.384,81.7946 Z M26.752,81.4436 C26.567,80.3956 26.781,79.3386 27.34,78.5426 C27.878,77.7766 28.719,77.2756 29.772,77.0946 L29.772,77.0936 C30.041,77.0476 30.298,77.0246 30.543,77.0246 C32.6,77.0246 33.817,78.5786 34.098,80.1806 C34.405,81.9636 34.349,83.6126 33.938,84.8246 C33.499,86.1226 32.704,86.8526 31.503,87.0586 C30.679,87.2036 29.959,87.0526 29.307,86.5916 C28.1,85.7416 27.169,83.8666 26.752,81.4436 L26.752,81.4436 Z M34.702,87.3236 C35.139,86.8056 35.488,86.1726 35.738,85.4326 C36.392,83.5026 36.225,81.3356 35.97,79.8546 C35.484,77.0746 33.086,74.5856 29.448,75.2226 C27.886,75.4926 26.62,76.2636 25.785,77.4506 C24.938,78.6566 24.608,80.2326 24.88,81.7696 C25.143,83.2966 25.834,85.9236 27.549,87.5806 C23.489,88.3256 19,90.0886 19,93.4326 L19,100.1126 C19,100.6376 19.426,101.0626 19.95,101.0626 C20.475,101.0626 20.9,100.6376 20.9,100.1126 L20.9,93.4326 C20.9,90.7506 27.459,89.0386 31.975,89.0386 C36.058,89.0386 41.713,90.5656 41.713,93.4326 L41.713,100.1126 C41.713,100.6376 42.139,101.0626 42.663,101.0626 C43.187,101.0626 43.613,100.6376 43.613,100.1126 L43.613,93.4326 C43.613,89.7016 38.887,87.8756 34.702,87.3236 L34.702,87.3236 Z M85.965,80.1816 C86.245,78.5786 87.462,77.0246 89.52,77.0246 C89.765,77.0246 90.022,77.0476 90.291,77.0936 L90.291,77.0946 C91.345,77.2756 92.186,77.7766 92.724,78.5426 C93.282,79.3386 93.496,80.3956 93.311,81.4476 C92.895,83.8666 91.964,85.7416 90.757,86.5916 C90.104,87.0516 89.384,87.2016 88.557,87.0576 C87.359,86.8526 86.564,86.1226 86.125,84.8246 C85.715,83.6126 85.658,81.9636 85.965,80.1816 L85.965,80.1816 Z M92.515,87.5806 C94.229,85.9236 94.92,83.2966 95.183,81.7736 C95.455,80.2326 95.125,78.6566 94.278,77.4506 C93.443,76.2636 92.178,75.4926 90.615,75.2226 C86.976,74.5886 84.579,77.0756 84.093,79.8576 C83.839,81.3356 83.672,83.5026 84.325,85.4326 C84.576,86.1726 84.924,86.8056 85.362,87.3236 C81.176,87.8756 76.45,89.7016 76.45,93.4326 L76.45,100.1126 C76.45,100.6376 76.876,101.0626 77.4,101.0626 C77.925,101.0626 78.351,100.6376 78.351,100.1126 L78.351,93.4326 C78.351,90.5656 84.006,89.0386 88.089,89.0386 C92.604,89.0386 99.163,90.7506 99.163,93.4326 L99.163,100.1126 C99.163,100.6376 99.589,101.0626 100.113,101.0626 C100.638,101.0626 101.063,100.6376 101.063,100.1126 L101.063,93.4326 C101.063,90.0886 96.574,88.3256 92.515,87.5806 L92.515,87.5806 Z M56.429,82.6136 C56.429,82.6106 56.429,82.6076 56.428,82.6046 C56.347,82.0596 56.306,81.4506 56.306,80.7936 C56.306,78.9736 57.472,77.0146 60.031,77.0146 C62.592,77.0146 63.758,78.9736 63.758,80.7936 C63.758,81.4206 63.719,82.0536 63.647,82.6096 C63.351,84.6756 62.481,87.1386 60.031,87.1386 C57.446,87.1386 56.665,84.3036 56.429,82.6136 L56.429,82.6136 Z M63.649,87.4426 C64.596,86.3896 65.246,84.8416 65.53,82.8656 C65.615,82.2076 65.658,81.5106 65.658,80.7936 C65.658,77.9716 63.726,75.1136 60.031,75.1136 C56.338,75.1136 54.405,77.9716 54.405,80.7936 C54.405,81.5416 54.453,82.2436 54.548,82.8806 C54.823,84.8486 55.466,86.3916 56.41,87.4426 C52.164,88.0936 47.057,89.8666 47.057,93.4326 L47.057,100.1126 C47.057,100.6376 47.482,101.0626 48.007,101.0626 C48.531,101.0626 48.957,100.6376 48.957,100.1126 L48.957,93.4326 C48.957,90.7506 55.516,89.0386 60.031,89.0386 C64.547,89.0386 71.105,90.7506 71.105,93.4326 L71.105,100.1126 C71.105,100.6376 71.531,101.0626 72.056,101.0626 C72.58,101.0626 73.006,100.6376 73.006,100.1126 L73.006,93.4326 C73.006,89.8656 67.895,88.0926 63.649,87.4426 L63.649,87.4426 Z M36.368,52.6826 C36.368,50.4926 37.928,49.7236 39.733,48.8326 C40.631,48.3896 41.647,47.8886 42.749,47.1206 C43.914,46.3056 45.252,44.2686 46.669,42.1126 C49.263,38.1676 52.201,33.6956 56.023,33.6956 L64.961,33.6956 C65.671,33.6956 67.519,33.9776 70.256,34.4076 C71.919,34.6696 73.779,34.9616 74.514,35.0216 C74.771,34.7256 75.228,33.9576 75.604,33.3246 C77.094,30.8126 79.347,27.0156 82.744,27.0156 C83.641,27.0156 86.367,27.0156 86.367,29.3026 C86.367,30.4946 85.534,31.0726 84.729,31.6326 C84.329,31.9106 83.874,32.2256 83.387,32.6736 C82.91,33.1116 82.201,34.7916 81.575,36.2746 C80.198,39.5376 79.186,41.7146 77.711,42.2236 C75.956,42.8346 71.179,42.5396 68.998,42.3636 L68.998,50.6796 C68.998,51.2036 68.572,51.6296 68.048,51.6296 C67.523,51.6296 67.098,51.2036 67.098,50.6796 L67.098,41.3266 C67.098,41.0586 67.211,40.8036 67.409,40.6236 C67.606,40.4436 67.868,40.3566 68.14,40.3816 C70.885,40.6456 75.744,40.8946 77.09,40.4296 C77.874,40.1576 79.096,37.2646 79.825,35.5356 C80.628,33.6346 81.32,31.9916 82.102,31.2746 C82.685,30.7386 83.218,30.3686 83.646,30.0716 C84.329,29.5976 84.467,29.4676 84.467,29.3026 C84.467,28.9666 83.388,28.9166 82.744,28.9166 C80.429,28.9166 78.509,32.1526 77.237,34.2946 C76.228,35.9956 75.672,36.9326 74.729,36.9326 C74.129,36.9326 72.527,36.6876 69.961,36.2846 C68.008,35.9776 65.576,35.5966 64.961,35.5966 L56.023,35.5966 C53.227,35.5966 50.586,39.6126 48.257,43.1566 C46.737,45.4696 45.302,47.6526 43.837,48.6786 C42.616,49.5286 41.484,50.0876 40.574,50.5356 C38.705,51.4586 38.269,51.7666 38.269,52.6826 C38.269,53.4116 39.134,53.7366 39.991,53.7366 C45.397,53.7366 49.628,47.5246 51.196,44.8526 C51.414,44.4836 51.852,44.3066 52.265,44.4176 C52.679,44.5296 52.966,44.9056 52.966,45.3346 L52.966,50.6796 C52.966,51.2036 52.54,51.6296 52.016,51.6296 C51.491,51.6296 51.065,51.2036 51.065,50.6796 L51.065,48.5006 C48.714,51.6956 44.83,55.6376 39.991,55.6376 C37.858,55.6376 36.368,54.4226 36.368,52.6826 L36.368,52.6826 Z M60.031,20.8996 C62.592,20.8996 63.758,22.5896 63.758,24.1586 C63.758,25.4556 63.489,29.6876 60.031,29.6876 C56.574,29.6876 56.306,25.4556 56.306,24.1586 C56.306,22.5896 57.472,20.8996 60.031,20.8996 L60.031,20.8996 Z M60.031,31.5886 C63.449,31.5886 65.658,28.6726 65.658,24.1586 C65.658,21.5956 63.726,18.9996 60.031,18.9996 C56.338,18.9996 54.405,21.5956 54.405,24.1586 C54.405,28.6726 56.613,31.5886 60.031,31.5886 L60.031,31.5886 Z" id="Fill-11" fill="#343852"></path>
    </g>
</svg>