<?xml version="1.0" encoding="UTF-8"?>
<svg width="120px" height="120px" viewBox="0 0 120 120" version="1.1" xmlns="http://www.w3.org/2000/svg" xmlns:xlink="http://www.w3.org/1999/xlink">
    <title>02.Icons/Illustrative/Autres Visio</title>
    <g id="02.Icons/Illustrative/Autres-Visio" stroke="none" stroke-width="1" fill="none" fill-rule="evenodd">
        <path d="M47.7609,80.3712 L47.7589,80.3712 C30.8179,80.3712 17.0859,66.8602 17.0859,50.1942 L17.0859,16.1362 L17.0859,15.0002 C19.4839,17.6272 24.2989,19.8642 34.0749,20.0152 L47.7609,20.0152 C64.7019,20.0152 78.4339,33.5262 78.4339,50.1942 C78.4339,66.8602 64.7019,80.3712 47.7609,80.3712" id="Fill-1" fill="#F2F3F7"></path>
        <path d="M79.7419,81.7982 L74.2199,81.7982 L74.2059,81.7982 C73.9639,81.6982 73.7049,81.6412 73.4339,81.6132 L59.7629,80.3712 C59.7629,80.3712 59.2779,76.4182 58.2349,73.2362 L64.0439,73.2362 L96.8669,73.2362 L92.5859,81.7982 L79.7419,81.7982 Z" id="Fill-3" fill="#FFFFFF"></path>
        <path d="M58.2353,73.2358 C59.2773,76.4188 59.7623,80.3708 59.7623,80.3708 L73.4343,81.6128 C73.7043,81.6408 73.9643,81.6978 74.2063,81.7978 L74.2203,81.7978 C75.0623,82.1268 75.7173,82.8548 75.9453,83.7678 L76.8873,87.5068 L59.7623,87.5068 L54.0543,87.5068 L54.0543,83.2248 C54.0543,81.6558 52.7693,80.3708 51.2003,80.3708 L21.2313,80.3708 L21.2313,76.0898 C21.2313,76.0898 21.1173,72.1658 22.6583,70.3818 C24.4703,68.2988 28.3943,65.4308 36.4583,64.8018 C37.5013,64.7168 38.5993,64.6728 39.7833,64.6728 C40.9403,64.6728 42.0383,64.7168 43.0813,64.8148 C51.1163,65.4438 55.4953,68.3688 56.9083,70.3818 C57.4243,71.0948 57.8643,72.1228 58.2353,73.2358" id="Fill-5" fill="#1D71B8"></path>
        <path d="M16.9503,83.2252 C16.9503,81.6562 18.2353,80.3712 19.8043,80.3712 L21.2313,80.3712 L51.2003,80.3712 C52.7693,80.3712 54.0543,81.6562 54.0543,83.2252 L54.0543,87.5062 L54.0543,93.2152 L54.0543,98.9232 L16.9503,98.9232 L16.9503,83.2252 Z" id="Fill-7" fill="#FFFFFF"></path>
        <polygon id="Fill-9" fill="#FFFFFF" points="102.5751 87.5064 102.5751 93.2144 98.2941 93.2144 59.7631 93.2144 54.0541 93.2144 54.0541 87.5064 59.7631 87.5064 76.8881 87.5064"></polygon>
        <path d="M74.0336,48.9475 C75.6026,48.4905 80.4416,47.3335 84.0236,48.9755 C84.0236,48.9755 87.0056,49.5885 89.1186,51.5865 C90.2466,52.6575 91.1166,54.1275 91.1586,56.1105 L66.8986,56.1105 C66.9256,54.6695 67.3966,53.4855 68.0966,52.5435 L68.0966,52.5295 C69.6826,50.3885 72.3636,49.4325 73.5066,49.1035 C73.5066,49.1035 73.6906,49.0325 74.0336,48.9475" id="Fill-11" fill="#D20050"></path>
        <path d="M84.0231,48.9752 C80.4411,47.3332 75.6031,48.4902 74.0331,48.9472 C73.6911,49.0332 73.5071,49.1032 73.5071,49.1032 C72.3641,49.4322 69.6831,50.3882 68.0971,52.5292 C69.9951,48.1052 69.3951,40.7832 71.8931,35.4892 C73.3781,32.3492 76.1741,33.4632 76.1741,33.4632 C76.1741,33.4632 78.1451,31.8502 79.7421,31.8502 C84.6221,31.8502 88.3041,36.0172 88.3041,43.2672 C88.3041,45.5792 88.1901,48.9752 89.1181,51.5872 C87.0051,49.5882 84.0231,48.9752 84.0231,48.9752 M74.0611,41.9822 C74.2341,44.0952 75.0761,47.5482 78.6711,47.5482 C81.8271,47.5482 83.1391,44.6372 83.6661,42.5392 C83.7941,42.0122 83.7111,41.4552 83.4241,40.9982 C83.1531,40.5412 82.6821,40.2142 82.1691,40.1002 C80.5141,39.7432 78.1721,39.0002 76.8881,37.5592 C76.3161,38.5582 75.5891,39.2722 75.0201,39.7432 C74.3481,40.2842 73.9921,41.1262 74.0611,41.9822" id="Fill-13" fill="#C5C8DA"></path>
        <path d="M46.919,56.1106 C46.919,59.4076 45.364,62.9746 43.081,64.8156 C42.038,64.7166 40.94,64.6726 39.784,64.6726 C38.599,64.6726 37.501,64.7166 36.458,64.8016 C34.19,62.9326 32.648,59.3936 32.648,56.1106 C32.648,51.3886 34.519,47.5486 39.784,47.5486 C45.052,47.5486 46.919,51.3886 46.919,56.1106" id="Fill-15" fill="#FFFFFF"></path>
        <path d="M83.4238,40.9981 C83.7108,41.4551 83.7948,42.0121 83.6668,42.5391 C83.1398,44.6371 81.8268,47.5481 78.6718,47.5481 C75.0758,47.5481 74.2338,44.0951 74.0618,41.9821 C73.9918,41.1261 74.3488,40.2841 75.0198,39.7431 C75.5888,39.2721 76.3158,38.5581 76.8878,37.5591 C78.1728,39.0001 80.5138,39.7431 82.1698,40.1001 C82.6828,40.2141 83.1538,40.5411 83.4238,40.9981" id="Fill-17" fill="#FFFFFF"></path>
        <path d="M99.721,27.569 L79.742,27.569 L56.908,27.569 C55.339,27.569 54.054,28.854 54.054,30.423 L54.054,56.111 L59.763,56.111 L66.898,56.111 C66.926,54.67 67.397,53.485 68.097,52.543 L68.097,52.529 C69.995,48.105 69.395,40.783 71.893,35.489 C73.378,32.349 76.174,33.463 76.174,33.463 C76.174,33.463 78.145,31.85 79.742,31.85 C84.622,31.85 88.304,36.017 88.304,43.267 C88.304,45.579 88.19,48.975 89.118,51.587 C90.247,52.657 91.117,54.128 91.158,56.111 L102.575,56.111 L102.575,30.423 C102.575,28.854 101.29,27.569 99.721,27.569" id="Fill-19" fill="#FFFFFF"></path>
        <polygon id="Fill-21" fill="#969CBB" points="75.461 67.527 81.169 67.527 81.169 61.819 75.461 61.819"></polygon>
        <path d="M102.5751,56.1106 L102.5751,58.9646 C102.5751,60.5336 101.2901,61.8186 99.7211,61.8186 L81.1691,61.8186 L75.4601,61.8186 L56.9081,61.8186 C55.3391,61.8186 54.0541,60.5336 54.0541,58.9646 L54.0541,56.1106 L59.7631,56.1106 L66.8981,56.1106 L91.1581,56.1106 L102.5751,56.1106 Z" id="Fill-23" fill="#969CBB"></path>
        <path d="M82.6191,41.5029 C82.4751,41.2609 82.2281,41.0859 81.9631,41.0269 C80.4621,40.7039 78.5151,40.0999 77.0621,38.9999 C76.6541,39.5269 76.1741,40.0209 75.6271,40.4749 C75.1901,40.8259 74.9641,41.3569 75.0091,41.9039 C75.1831,44.0459 75.9611,46.5979 78.6721,46.5979 C81.1481,46.5979 82.2541,44.2649 82.7441,42.3079 C82.8111,42.0329 82.7661,41.7369 82.6191,41.5029 L82.6191,41.5029 Z M84.5891,42.7649 C83.6611,46.4639 81.5601,48.4979 78.6721,48.4979 C75.4741,48.4979 73.4491,46.1509 73.1141,42.0599 C73.0181,40.8839 73.5081,39.7409 74.4251,39.0029 C75.1071,38.4369 75.6621,37.7889 76.0621,37.0869 C76.2151,36.8219 76.4841,36.6459 76.7881,36.6139 C77.0901,36.5809 77.3931,36.6969 77.5971,36.9269 C78.4631,37.8979 80.1581,38.6949 82.3701,39.1709 C83.1601,39.3469 83.8401,39.8359 84.2411,40.5149 C84.6471,41.1599 84.7781,41.9879 84.5891,42.7649 L84.5891,42.7649 Z M79.7421,80.8479 C79.2181,80.8479 78.7921,81.2739 78.7921,81.7979 C78.7921,82.3219 79.2181,82.7479 79.7421,82.7479 L92.5861,82.7479 C92.9451,82.7479 93.2741,82.5449 93.4351,82.2229 L97.7171,73.6599 C97.8641,73.3649 97.8481,73.0159 97.6761,72.7359 C97.5021,72.4559 97.1961,72.2849 96.8671,72.2849 L64.0441,72.2849 C63.5191,72.2849 63.0941,72.7109 63.0941,73.2349 C63.0941,73.7599 63.5191,74.1859 64.0441,74.1859 L95.3301,74.1859 L91.9991,80.8479 L79.7421,80.8479 Z M101.6251,58.9649 L101.6251,57.0609 L91.1791,57.0609 L91.1581,57.0609 L66.8981,57.0609 L66.8811,57.0609 L55.0051,57.0609 L55.0051,58.9649 C55.0051,60.0149 55.8581,60.8689 56.9081,60.8689 L99.7211,60.8689 C100.7701,60.8689 101.6251,60.0149 101.6251,58.9649 L101.6251,58.9649 Z M76.4111,66.5779 L80.2191,66.5779 L80.2191,62.7699 L76.4111,62.7699 L76.4111,66.5779 Z M67.9601,55.1599 L90.0941,55.1599 C89.8771,54.0729 89.3371,53.1039 88.4651,52.2759 C86.5841,50.4979 83.8571,49.9109 83.8301,49.9059 C83.3171,49.7989 82.9871,49.2959 83.0941,48.7829 C83.2011,48.2699 83.7051,47.9429 84.2151,48.0449 C84.3081,48.0639 85.8951,48.4029 87.6221,49.3539 C87.3441,47.4689 87.3451,45.5139 87.3521,43.9509 L87.3541,43.2669 C87.3541,36.9089 84.3661,32.8009 79.7421,32.8009 C78.7151,32.8009 77.2191,33.8359 76.7751,34.1979 C76.5081,34.4159 76.1411,34.4729 75.8221,34.3459 C75.4971,34.2239 73.7851,33.7119 72.7511,35.8959 C71.4701,38.6129 71.0381,41.9449 70.6201,45.1669 C70.4161,46.7349 70.2101,48.2439 69.9211,49.6539 C71.1471,48.8959 72.3881,48.4389 73.2291,48.1949 C73.2391,48.1899 73.4511,48.1129 73.8021,48.0249 C74.3081,47.9019 74.8271,48.2069 74.9551,48.7159 C75.0821,49.2259 74.7731,49.7409 74.2651,49.8689 C74.0121,49.9319 73.8661,49.9829 73.8431,49.9919 C72.7801,50.3019 70.3461,51.1599 68.9211,53.0139 C68.9021,53.0469 68.8821,53.0789 68.8591,53.1089 C68.4021,53.7249 68.1071,54.4149 67.9601,55.1599 L67.9601,55.1599 Z M55.0051,30.4239 L55.0051,55.1599 L66.0331,55.1599 C66.1911,54.0519 66.5911,53.0299 67.2381,52.1149 C68.0501,50.2009 68.3841,47.6379 68.7351,44.9229 C69.1721,41.5549 69.6241,38.0719 71.0331,35.0839 C72.3241,32.3569 74.5931,32.0999 75.9831,32.4149 C76.7211,31.8849 78.2841,30.8999 79.7421,30.8999 C85.4321,30.8999 89.2551,35.8699 89.2551,43.2669 L89.2531,43.9599 C89.2431,46.0589 89.2361,48.9079 89.9611,51.0939 C91.1131,52.2579 91.8051,53.6209 92.0261,55.1599 L101.6251,55.1599 L101.6251,30.4239 C101.6251,29.3739 100.7701,28.5199 99.7211,28.5199 L56.9081,28.5199 C55.8581,28.5199 55.0051,29.3739 55.0051,30.4239 L55.0051,30.4239 Z M103.5251,30.4239 L103.5251,58.9649 C103.5251,61.0629 101.8181,62.7699 99.7211,62.7699 L82.1191,62.7699 L82.1191,66.5769 L85.4501,66.5769 C85.9741,66.5769 86.4001,67.0029 86.4001,67.5269 C86.4001,68.0519 85.9741,68.4779 85.4501,68.4779 L71.1801,68.4779 C70.6551,68.4779 70.2291,68.0519 70.2291,67.5269 C70.2291,67.0029 70.6551,66.5769 71.1801,66.5769 L74.5111,66.5769 L74.5111,62.7699 L56.9081,62.7699 C54.8101,62.7699 53.1041,61.0629 53.1041,58.9649 L53.1041,30.4239 C53.1041,28.3259 54.8101,26.6189 56.9081,26.6189 L99.7211,26.6189 C101.8181,26.6189 103.5251,28.3259 103.5251,30.4239 L103.5251,30.4239 Z M39.7831,63.7229 C40.8521,63.7229 41.8151,63.7659 42.7361,63.8399 C44.6481,62.1269 45.9691,59.0159 45.9691,56.1099 C45.9691,51.0589 43.8881,48.4979 39.7831,48.4979 C35.6801,48.4979 33.5981,51.0589 33.5981,56.1099 C33.5981,58.9879 34.9101,62.0939 36.8111,63.8289 C37.7651,63.7619 38.7391,63.7229 39.7831,63.7229 L39.7831,63.7229 Z M103.5251,87.5069 L103.5251,93.2149 C103.5251,93.7389 103.0991,94.1649 102.5751,94.1649 L99.2441,94.1649 L99.2441,98.9229 C99.2441,99.4469 98.8181,99.8729 98.2941,99.8729 C97.7691,99.8729 97.3441,99.4469 97.3441,98.9229 L97.3441,94.1649 L59.7631,94.1649 C59.2381,94.1649 58.8121,93.7389 58.8121,93.2149 C58.8121,92.6909 59.2381,92.2649 59.7631,92.2649 L101.6251,92.2649 L101.6251,88.4569 L59.7631,88.4569 C59.2381,88.4569 58.8121,88.0309 58.8121,87.5069 C58.8121,86.9819 59.2381,86.5569 59.7631,86.5569 L75.6691,86.5569 L75.0241,83.9999 C74.8731,83.3979 74.4431,82.9049 73.8741,82.6829 C73.8741,82.6829 73.8741,82.6829 73.8741,82.6829 C73.8641,82.6789 73.8541,82.6809 73.8451,82.6769 C73.7021,82.6179 73.5351,82.5789 73.3361,82.5589 L59.6771,81.3169 C59.2311,81.2759 58.8741,80.9309 58.8191,80.4869 C58.8151,80.4479 58.3321,76.5859 57.3321,73.5309 C56.9461,72.3739 56.5441,71.4999 56.1381,70.9389 C54.9891,69.3019 50.9401,66.3839 43.0071,65.7629 C42.0071,65.6679 40.9581,65.6229 39.7831,65.6229 C38.6371,65.6229 37.5741,65.6639 36.5351,65.7489 C28.9221,66.3429 25.1771,68.9349 23.3751,71.0059 C22.3151,72.2319 22.1541,75.0719 22.1811,76.0639 C22.1951,76.5869 21.7821,77.0239 21.2581,77.0389 C20.7801,77.0429 20.2981,76.6429 20.2821,76.1169 C20.2691,75.6779 20.2071,71.7659 21.9391,69.7609 C23.8091,67.6119 27.4761,64.9779 34.4491,64.0619 C32.7651,61.9309 31.6981,58.9649 31.6981,56.1099 C31.6981,50.0659 34.6451,46.5979 39.7831,46.5979 C44.9221,46.5979 47.8691,50.0659 47.8691,56.1099 C47.8691,58.9889 46.7971,61.9599 45.1061,64.0799 C51.9991,64.9969 56.1681,67.6749 57.6851,69.8359 C58.2051,70.5549 58.6821,71.5709 59.1371,72.9349 C59.9311,75.3609 60.4041,78.1689 60.6001,79.4929 L73.5201,80.6669 C73.9001,80.7069 74.2271,80.7869 74.5291,80.9069 C74.5411,80.9109 74.5531,80.9079 74.5651,80.9129 C75.7071,81.3589 76.5671,82.3399 76.8671,83.5369 L77.6281,86.5569 L102.5751,86.5569 C103.0991,86.5569 103.5251,86.9819 103.5251,87.5069 L103.5251,87.5069 Z M55.0051,83.2259 L55.0051,98.9229 C55.0051,99.4469 54.5791,99.8729 54.0551,99.8729 C53.5301,99.8729 53.1041,99.4469 53.1041,98.9229 L53.1041,83.2259 C53.1041,82.1759 52.2501,81.3209 51.2001,81.3209 L19.8051,81.3209 C18.7551,81.3209 17.9001,82.1759 17.9001,83.2259 L17.9001,98.9229 C17.9001,99.4469 17.4741,99.8729 16.9501,99.8729 C16.4261,99.8729 16.0001,99.4469 16.0001,98.9229 L16.0001,83.2259 C16.0001,81.1279 17.7071,79.4209 19.8051,79.4209 L51.2001,79.4209 C53.2981,79.4209 55.0051,81.1279 55.0051,83.2259 L55.0051,83.2259 Z" id="Fill-24" fill="#343852"></path>
    </g>
</svg>