<?xml version="1.0" encoding="UTF-8"?>
<svg width="120px" height="120px" viewBox="0 0 120 120" version="1.1" xmlns="http://www.w3.org/2000/svg" xmlns:xlink="http://www.w3.org/1999/xlink">
    <title>02.Icons/Illustrative/Autres Localisation</title>
    <g id="02.Icons/Illustrative/Autres-Localisation" stroke="none" stroke-width="1" fill="none" fill-rule="evenodd">
        <path d="M91.0322,53.1173 C91.0322,70.5353 76.9122,84.6553 59.4942,84.6553 C42.0752,84.6553 27.9552,70.5353 27.9552,53.1173 C27.9552,35.6993 42.0752,21.5793 59.4942,21.5793 C76.9122,21.5793 91.0322,35.6993 91.0322,53.1173" id="Fill-1" fill="#F2F3F7"></path>
        <path d="M91.4836,68.5704 C91.4106,67.6124 90.6086,66.8564 89.6326,66.8564 L80.0736,66.8564 L76.2976,66.8564 L30.6836,66.8564 C29.7106,66.8564 28.9096,67.6084 28.8326,68.5624 L16.2156,102.0254 L16.2156,102.1594 C16.2156,103.1824 17.0486,104.0154 18.0716,104.0154 L101.5386,104.0154 C102.5616,104.0154 103.3946,103.1824 103.3946,102.1594 L103.3946,102.0324 L91.4836,68.5704 Z" id="Fill-3" fill="#FFFFFF"></path>
        <path d="M77.6974,97.6135 L89.4124,102.8145 L92.5134,96.6305 L81.0054,90.8595 L77.6974,97.6135 Z M89.6884,68.3685 L83.7614,83.3485 L98.3024,91.8935 L89.6884,68.3685 Z M42.8274,88.5165 L69.4274,96.0285 L78.1794,76.2505 L52.2684,65.5685 L42.8274,88.5165 Z M23.3244,84.3825 L35.5914,87.2765 L40.7594,74.9405 L28.6994,71.6335 L23.3244,84.3825 Z M69.9814,102.8145 L39.9614,94.9015 L35.9834,102.6355 L69.9814,102.8145 Z M21.6284,90.1165 L31.8904,93.4595 L26.2404,103.1455 L17.2464,103.1455 L21.6284,90.1165 Z" id="Fill-5" fill="#F2F3F7"></path>
        <path d="M70.2898,40.7755 C70.2898,42.9875 69.5748,45.0465 68.3838,46.7315 C66.5288,49.3015 63.4988,50.9865 60.0788,50.9865 C56.6588,50.9865 53.6288,49.3015 51.7738,46.7315 C50.5828,45.0465 49.8678,42.9875 49.8678,40.7755 C49.8678,35.1425 54.4468,30.5645 60.0788,30.5645 C65.7108,30.5645 70.2898,35.1425 70.2898,40.7755" id="Fill-7" fill="#FFFFFF"></path>
        <path d="M68.3835,46.7319 C69.5755,45.0469 70.2895,42.9879 70.2895,40.7759 C70.2895,35.1429 65.7115,30.5649 60.0785,30.5649 C54.4465,30.5649 49.8675,35.1429 49.8675,40.7759 C49.8675,42.9879 50.5825,45.0469 51.7745,46.7319 C53.6285,49.3009 56.6585,50.9869 60.0785,50.9869 C63.4995,50.9869 66.5285,49.3009 68.3835,46.7319 M82.9175,33.9679 C83.5635,36.1299 83.9045,38.4099 83.9045,40.7759 C83.9045,45.9489 82.2535,50.7479 79.4455,54.6629 L60.0785,81.6189 L40.7125,54.6629 C39.3165,52.7049 38.1925,50.5269 37.4285,48.1949 C36.6625,45.8469 36.2535,43.3619 36.2535,40.7759 C36.2535,38.4099 36.5945,36.1299 37.2405,33.9679 C40.1675,24.1319 49.2895,16.9499 60.0785,16.9499 C70.8685,16.9499 79.9905,24.1319 82.9175,33.9679" id="Fill-9" fill="#1D71B8"></path>
        <path d="M60.079,17.8999 C50.03,17.8999 41.014,24.6189 38.15,34.2389 C37.522,36.3399 37.204,38.5389 37.204,40.7759 C37.204,43.2119 37.583,45.6079 38.332,47.8999 C39.052,50.0949 40.113,52.1859 41.486,54.1109 L60.079,79.9909 L78.674,54.1079 C81.474,50.2049 82.954,45.5939 82.954,40.7759 C82.954,38.5409 82.636,36.3419 82.007,34.2409 L82.007,34.2389 C79.143,24.6189 70.127,17.8999 60.079,17.8999 L60.079,17.8999 Z M60.079,82.5689 C59.773,82.5689 59.486,82.4209 59.308,82.1729 L39.941,55.2169 C38.455,53.1319 37.307,50.8709 36.526,48.4909 C35.715,46.0069 35.304,43.4119 35.304,40.7759 C35.304,38.3539 35.649,35.9719 36.33,33.6959 C39.431,23.2769 49.196,15.9999 60.079,15.9999 C70.961,15.9999 80.725,23.2769 83.827,33.6959 C84.509,35.9739 84.854,38.3559 84.854,40.7759 C84.854,45.9949 83.251,50.9879 80.217,55.2159 L60.85,82.1729 C60.672,82.4209 60.385,82.5689 60.079,82.5689 L60.079,82.5689 Z M60.079,31.5149 C54.973,31.5149 50.818,35.6699 50.818,40.7759 C50.818,42.7109 51.417,44.5809 52.55,46.1829 C54.29,48.5929 57.106,50.0369 60.079,50.0369 C63.051,50.0369 65.866,48.5949 67.611,46.1789 C68.742,44.5779 69.34,42.7089 69.34,40.7759 C69.34,35.6699 65.185,31.5149 60.079,31.5149 L60.079,31.5149 Z M60.079,51.9369 C56.498,51.9369 53.105,50.1989 51.004,47.2879 C49.638,45.3549 48.918,43.1059 48.918,40.7759 C48.918,34.6219 53.925,29.6149 60.079,29.6149 C66.233,29.6149 71.24,34.6219 71.24,40.7759 C71.24,43.1059 70.52,45.3549 69.159,47.2809 C69.158,47.2829 69.156,47.2859 69.154,47.2879 C67.053,50.1989 63.66,51.9369 60.079,51.9369 L60.079,51.9369 Z M70.124,96.5499 L79.076,76.5879 C79.282,76.1279 79.092,75.5849 78.642,75.3539 L72.615,72.2659 C72.148,72.0269 71.575,72.2129 71.336,72.6779 C71.097,73.1459 71.281,73.7179 71.748,73.9579 L76.973,76.6339 L68.723,95.0309 L43.855,88.2359 L49.039,74.7039 C49.227,74.2129 48.982,73.6649 48.492,73.4769 C48.004,73.2889 47.453,73.5339 47.266,74.0239 L41.706,88.5359 C41.609,88.7869 41.624,89.0659 41.745,89.3049 C41.866,89.5449 42.084,89.7209 42.343,89.7919 L69.007,97.0779 C69.09,97.1009 69.174,97.1119 69.257,97.1119 C69.623,97.1119 69.968,96.8989 70.124,96.5499 L70.124,96.5499 Z M91.967,88.2109 C92.237,87.7609 92.091,87.1769 91.641,86.9079 L84.789,82.7959 L87.547,74.6699 C87.716,74.1719 87.449,73.6319 86.953,73.4639 C86.456,73.2969 85.916,73.5609 85.748,74.0579 L82.744,82.9119 C82.6,83.3359 82.771,83.8019 83.155,84.0319 L90.664,88.5369 C90.816,88.6289 90.985,88.6719 91.151,88.6719 C91.475,88.6719 91.789,88.5069 91.967,88.2109 L91.967,88.2109 Z M78.666,98.0279 L81.428,91.6339 L92.067,97.0089 C92.538,97.2479 93.108,97.0579 93.344,96.5899 C93.581,96.1219 93.392,95.5499 92.925,95.3139 L81.385,89.4839 C81.149,89.3649 80.878,89.3489 80.633,89.4379 C80.387,89.5279 80.187,89.7139 80.084,89.9549 L76.922,97.2739 C76.714,97.7549 76.935,98.3149 77.417,98.5229 C77.54,98.5759 77.668,98.6009 77.794,98.6009 C78.161,98.6009 78.511,98.3859 78.666,98.0279 L78.666,98.0279 Z M52.076,97.8879 C52.207,97.3799 51.901,96.8619 51.393,96.7309 L39.852,93.7529 C39.434,93.6439 38.995,93.8329 38.785,94.2109 L37.126,97.1889 C36.871,97.6469 37.035,98.2249 37.494,98.4809 C37.954,98.7359 38.531,98.5719 38.786,98.1129 L40.088,95.7759 L50.919,98.5709 C50.998,98.5909 51.078,98.6009 51.157,98.6009 C51.58,98.6009 51.966,98.3169 52.076,97.8879 L52.076,97.8879 Z M30.244,98.1869 L33.212,93.8409 C33.385,93.5879 33.425,93.2689 33.321,92.9819 C33.217,92.6949 32.981,92.4749 32.687,92.3909 L27.025,90.7799 C26.52,90.6379 25.996,90.9289 25.851,91.4339 C25.708,91.9379 26.001,92.4639 26.506,92.6079 L30.899,93.8579 L28.676,97.1149 C28.38,97.5479 28.491,98.1389 28.924,98.4349 C29.088,98.5469 29.274,98.6009 29.459,98.6009 C29.763,98.6009 30.06,98.4559 30.244,98.1869 L30.244,98.1869 Z M36.219,87.7449 L41.609,75.2619 C41.72,75.0069 41.713,74.7159 41.591,74.4669 C41.469,74.2179 41.243,74.0349 40.975,73.9649 L34.095,72.1919 C33.587,72.0619 33.068,72.3659 32.937,72.8749 C32.807,73.3819 33.112,73.9009 33.62,74.0319 L39.425,75.5279 L34.794,86.2509 L29.62,84.9569 C29.112,84.8289 28.596,85.1389 28.468,85.6479 C28.341,86.1569 28.65,86.6719 29.159,86.7999 L35.116,88.2899 C35.193,88.3079 35.27,88.3179 35.347,88.3179 C35.719,88.3179 36.065,88.0989 36.219,87.7449 L36.219,87.7449 Z M101.539,104.2309 L18.072,104.2309 C16.93,104.2309 16,103.3009 16,102.1589 L16,101.9859 L16.061,101.8239 L28.621,68.5139 C28.721,67.4649 29.607,66.6409 30.683,66.6409 L42.758,66.6409 C43.282,66.6409 43.708,67.0669 43.708,67.5909 C43.708,68.1159 43.282,68.5419 42.758,68.5419 L30.683,68.5419 C30.59,68.5419 30.512,68.6199 30.512,68.7129 L30.512,68.8849 L30.45,69.0469 L17.93,102.2539 C17.961,102.2989 18.014,102.3309 18.072,102.3309 L101.539,102.3309 C101.599,102.3309 101.652,102.2969 101.683,102.2489 L89.804,68.8769 L89.804,68.7129 C89.804,68.6199 89.725,68.5419 89.632,68.5419 L76.298,68.5419 C75.773,68.5419 75.348,68.1159 75.348,67.5909 C75.348,67.0669 75.773,66.6409 76.298,66.6409 L89.632,66.6409 C90.711,66.6409 91.6,67.4699 91.695,68.5249 L103.61,101.9949 L103.61,102.1589 C103.61,103.3009 102.681,104.2309 101.539,104.2309 L101.539,104.2309 Z" id="Fill-11" fill="#343852"></path>
    </g>
</svg>