<?xml version="1.0" encoding="UTF-8"?>
<svg width="120px" height="120px" viewBox="0 0 120 120" version="1.1" xmlns="http://www.w3.org/2000/svg" xmlns:xlink="http://www.w3.org/1999/xlink">
    <title>02.Icons/Illustrative/Autres Calendrier</title>
    <g id="02.Icons/Illustrative/Autres-Calendrier" stroke="none" stroke-width="1" fill="none" fill-rule="evenodd">
        <path d="M69.4598,91.3982 L69.4618,91.3982 C89.2598,91.3982 105.3088,75.6082 105.3088,56.1302 L105.3088,16.3282 L105.3088,15.0002 C102.5068,18.0702 96.8788,20.6842 85.4548,20.8612 L69.4598,20.8612 C49.6618,20.8612 33.6128,36.6512 33.6128,56.1302 C33.6128,75.6082 49.6618,91.3982 69.4598,91.3982" id="Fill-1" fill="#F2F3F7"></path>
        <path d="M26.6166,44.0701 L26.6166,87.8451 C26.6166,90.3331 28.6336,92.3501 31.1216,92.3501 L88.8026,92.3501 C91.2906,92.3501 93.3076,90.3331 93.3076,87.8451 L93.3076,44.0701 L26.6166,44.0701 Z" id="Fill-3" fill="#FFFFFF"></path>
        <path d="M26.6166,44.0701 L26.6166,37.8121 C26.6166,35.3241 28.6336,33.3071 31.1216,33.3071 L88.8026,33.3071 C91.2906,33.3071 93.3076,35.3241 93.3076,37.8121 L93.3076,44.0701 L26.6166,44.0701 Z" id="Fill-5" fill="#1D71B8"></path>
        <path d="M83.1303,84.9415 L36.5373,84.9415 C36.0873,84.9415 35.7213,84.5765 35.7213,84.1255 L35.7213,54.0155 C35.7213,53.5645 36.0873,53.1995 36.5373,53.1995 L83.1303,53.1995 C83.5813,53.1995 83.9463,53.5645 83.9463,54.0155 L83.9463,84.1255 C83.9463,84.5765 83.5813,84.9415 83.1303,84.9415" id="Fill-7" fill="#EDEEF3"></path>
        <polygon id="Fill-9" fill="#D20050" points="48.545 74.507 59.576 74.507 59.576 64.109 48.545 64.109"></polygon>
        <path d="M53.4684,72.1164 C53.2254,72.1164 52.9824,72.0234 52.7964,71.8384 L51.0864,70.0884 C50.7154,69.7174 50.7154,69.1154 51.0864,68.7444 C51.4574,68.3734 52.0594,68.3734 52.4304,68.7444 L53.4684,69.8224 L55.9244,66.8634 C56.2954,66.4924 56.8964,66.4924 57.2674,66.8634 C57.6384,67.2344 57.6384,67.8364 57.2674,68.2074 L54.1404,71.8384 C53.9544,72.0234 53.7114,72.1164 53.4684,72.1164" id="Fill-11" fill="#FFFFFF"></path>
        <path d="M83.0801,83.8598 L83.0801,75.6858 L73.1501,75.6858 L73.1501,84.2518 L82.6881,84.2518 C82.9001,84.2518 83.0801,84.0728 83.0801,83.8598 L83.0801,83.8598 Z M37.5871,84.2518 L47.1381,84.2518 L47.1381,75.6858 L37.1941,75.6858 L37.1941,83.8598 C37.1941,84.0728 37.3741,84.2518 37.5871,84.2518 L37.5871,84.2518 Z M37.1941,54.8418 L37.1941,62.9618 L47.1381,62.9618 L47.1381,54.4498 L37.5871,54.4498 C37.3741,54.4498 37.1941,54.6288 37.1941,54.8418 L37.1941,54.8418 Z M82.6881,54.4498 L73.1501,54.4498 L73.1501,62.9618 L83.0801,62.9618 L83.0801,54.8418 C83.0801,54.6288 82.9001,54.4498 82.6881,54.4498 L82.6881,54.4498 Z M73.1501,73.6858 L83.0801,73.6858 L83.0801,64.9618 L73.1501,64.9618 L73.1501,73.6858 Z M61.2151,73.6858 L71.1501,73.6858 L71.1501,64.9618 L61.2151,64.9618 L61.2151,73.6858 Z M61.2161,84.2518 L71.1511,84.2518 L71.1511,75.6848 L61.2161,75.6848 L61.2161,84.2518 Z M49.1381,84.2518 L59.2171,84.2518 L59.2171,75.6848 L49.1381,75.6848 L49.1381,84.2518 Z M61.2161,62.9618 L71.1511,62.9618 L71.1511,54.4498 L61.2161,54.4498 L61.2161,62.9618 Z M49.1371,62.9618 L59.2161,62.9618 L59.2161,54.4498 L49.1371,54.4498 L49.1371,62.9618 Z M49.1381,73.6858 L59.2171,73.6858 L59.2171,64.9618 L49.1381,64.9618 L49.1381,73.6858 Z M37.1941,73.6858 L47.1371,73.6858 L47.1371,64.9618 L37.1941,64.9618 L37.1941,73.6858 Z M84.9101,54.8418 L84.9101,63.7808 C84.9211,63.8418 84.9461,63.8978 84.9461,63.9618 C84.9461,64.0258 84.9211,64.0818 84.9101,64.1428 L84.9101,74.5048 C84.9211,74.5658 84.9461,74.6218 84.9461,74.6858 C84.9461,74.7498 84.9211,74.8058 84.9101,74.8658 L84.9101,83.8598 C84.9101,85.0818 83.9101,86.0818 82.6881,86.0818 L37.5871,86.0818 C36.3651,86.0818 35.3651,85.0818 35.3651,83.8598 L35.3651,54.8418 C35.3651,53.6198 36.3651,52.6198 37.5871,52.6198 L82.6881,52.6198 C83.9101,52.6198 84.9101,53.6198 84.9101,54.8418 L84.9101,54.8418 Z M89.0611,32.5368 L83.6711,32.5368 C83.1181,32.5368 82.6711,32.9848 82.6711,33.5368 C82.6711,34.0898 83.1181,34.5368 83.6711,34.5368 L89.0611,34.5368 C90.8511,34.5368 92.3071,35.9908 92.3071,37.7788 L92.3071,43.0698 L33.1801,43.0698 C32.6281,43.0698 32.1801,43.5178 32.1801,44.0698 C32.1801,44.6228 32.6281,45.0698 33.1801,45.0698 L92.3071,45.0698 L92.3071,87.8388 C92.3071,89.6268 90.8511,91.0818 89.0611,91.0818 L31.2451,91.0818 C29.4561,91.0818 28.0001,89.6268 28.0001,87.8388 L28.0001,37.7788 C28.0001,35.9908 29.4561,34.5368 31.2451,34.5368 L40.4951,34.5368 L40.4951,38.8248 C40.4951,39.3778 40.9431,39.8248 41.4951,39.8248 C42.0481,39.8248 42.4951,39.3778 42.4951,38.8248 L42.4951,27.7898 C42.4951,27.2368 42.0481,26.7898 41.4951,26.7898 C40.9431,26.7898 40.4951,27.2368 40.4951,27.7898 L40.4951,32.5368 L31.2451,32.5368 C28.3531,32.5368 26.0001,34.8888 26.0001,37.7788 L26.0001,87.8388 C26.0001,90.7298 28.3531,93.0818 31.2451,93.0818 L89.0611,93.0818 C91.9541,93.0818 94.3071,90.7298 94.3071,87.8388 L94.3071,37.7788 C94.3071,34.8888 91.9541,32.5368 89.0611,32.5368 L89.0611,32.5368 Z M45.6701,33.5368 C45.6701,32.9848 46.1181,32.5368 46.6701,32.5368 L77.4851,32.5368 L77.4851,27.6878 C77.4851,27.1348 77.9321,26.6878 78.4851,26.6878 C79.0381,26.6878 79.4851,27.1348 79.4851,27.6878 L79.4851,38.7228 C79.4851,39.2758 79.0381,39.7228 78.4851,39.7228 C77.9321,39.7228 77.4851,39.2758 77.4851,38.7228 L77.4851,34.5368 L46.6701,34.5368 C46.1181,34.5368 45.6701,34.0898 45.6701,33.5368 L45.6701,33.5368 Z" id="Fill-12" fill="#343852"></path>
    </g>
</svg>