<?xml version="1.0" encoding="UTF-8"?>
<svg width="120px" height="120px" viewBox="0 0 120 120" version="1.1" xmlns="http://www.w3.org/2000/svg" xmlns:xlink="http://www.w3.org/1999/xlink">
    <title>02.Icons/Illustrative/Charts - Composé</title>
    <g id="02.Icons/Illustrative/Charts---Composé" stroke="none" stroke-width="1" fill="none" fill-rule="evenodd">
        <g id="Charts---Composé" transform="translate(3.152300, 22.898900)">
            <path d="M66.104,53.1204 C66.104,34.8664 51.305,20.0684 33.052,20.0684 C14.799,20.0684 0,34.8664 0,53.1204 C0,71.3744 14.799,86.1724 33.052,86.1724 C51.305,86.1724 66.104,71.3744 66.104,53.1204" id="Fill-1" fill="#F2F3F7"></path>
            <path d="M76.8788,28.2046 L75.3298,30.3276 L72.5438,30.3276 C72.4348,30.3236 72.3288,30.3016 72.2188,30.3016 C72.0938,30.3016 71.9688,30.3226 71.8428,30.3276 L62.0038,30.3276 L59.5108,28.7906 C59.5188,28.5956 59.5118,28.3996 59.5068,28.2046 L76.8788,28.2046 Z M65.7078,44.4266 C65.1588,43.7876 64.7118,43.0736 64.3758,42.3036 L42.8058,42.3036 L40.8968,44.4266 L65.7078,44.4266 Z M100.8618,15.1646 C100.8618,14.8686 100.7388,14.6026 100.5438,14.4106 C100.5008,14.9976 100.3968,15.5706 100.2378,16.1256 C100.6048,15.9576 100.8618,15.5936 100.8618,15.1646 L100.8618,15.1646 Z M20.2108,28.2046 C19.6228,28.2046 19.1468,28.6806 19.1468,29.2666 C19.1468,29.8536 19.6228,30.3276 20.2108,30.3276 L42.6178,30.3276 C42.5718,30.1206 42.5078,29.9176 42.4778,29.7066 C42.4048,29.2006 42.3858,28.6996 42.4008,28.2046 L20.2108,28.2046 Z M25.3638,44.1816 C25.9148,43.4446 26.5708,42.8186 27.2998,42.3036 L20.2108,42.3036 C19.6228,42.3036 19.1468,42.7786 19.1468,43.3656 C19.1468,43.9526 19.6228,44.4266 20.2108,44.4266 L25.1988,44.4266 C25.2558,44.3466 25.3038,44.2616 25.3638,44.1816 L25.3638,44.1816 Z M99.7978,28.2046 L84.7608,28.2046 L83.2118,30.3276 L99.7978,30.3276 C100.3858,30.3276 100.8618,29.8536 100.8618,29.2666 C100.8618,28.6806 100.3858,28.2046 99.7978,28.2046 L99.7978,28.2046 Z M20.1858,16.2266 L83.8028,16.2266 C83.6848,15.8316 83.5888,15.4296 83.5298,15.0176 C83.4848,14.7126 83.4608,14.4066 83.4488,14.1036 L20.1858,14.1036 C19.5978,14.1036 19.1218,14.5776 19.1218,15.1646 C19.1218,15.7516 19.5978,16.2266 20.1858,16.2266 L20.1858,16.2266 Z M99.7978,42.3036 L80.0468,42.3036 C79.7068,43.0746 79.2578,43.7886 78.7128,44.4266 L99.7978,44.4266 C100.3858,44.4266 100.8618,43.9526 100.8618,43.3656 C100.8618,42.7786 100.3858,42.3036 99.7978,42.3036 L99.7978,42.3036 Z" id="Fill-3" fill="#DEE0EA"></path>
            <path d="M99.7998,65.225 C99.2128,65.225 98.7378,65.7 98.7378,66.287 L98.7378,70.514 L86.7578,70.514 L86.7578,66.287 C86.7578,65.7 86.2838,65.225 85.6968,65.225 C85.1098,65.225 84.6348,65.7 84.6348,66.287 L84.6348,70.514 L72.6558,70.514 L72.6558,66.287 C72.6558,65.7 72.1798,65.225 71.5938,65.225 C71.0068,65.225 70.5328,65.7 70.5328,66.287 L70.5328,70.514 L58.5528,70.514 L58.5528,66.287 C58.5528,65.7 58.0778,65.225 57.4908,65.225 C56.9048,65.225 56.4288,65.7 56.4288,66.287 L56.4288,70.514 L44.4488,70.514 L44.4488,66.287 C44.4488,65.7 43.9748,65.225 43.3878,65.225 C42.8018,65.225 42.3258,65.7 42.3258,66.287 L42.3258,70.514 L30.3468,70.514 L30.3468,66.287 C30.3468,65.7 29.8728,65.225 29.2848,65.225 C28.6978,65.225 28.2238,65.7 28.2238,66.287 L28.2238,70.514 L16.2448,70.514 L16.2448,44.431 L20.4708,44.431 C21.0578,44.431 21.5328,43.957 21.5328,43.37 C21.5328,42.783 21.0578,42.308 20.4708,42.308 L16.2448,42.308 L16.2448,30.329 L20.4708,30.329 C21.0578,30.329 21.5328,29.855 21.5328,29.268 C21.5328,28.681 21.0578,28.206 20.4708,28.206 L16.2448,28.206 L16.2448,16.226 L20.4708,16.226 C21.0578,16.226 21.5328,15.75 21.5328,15.164 C21.5328,14.577 21.0578,14.103 20.4708,14.103 L16.2448,14.103 L16.2448,2.124 L20.4708,2.124 C21.0578,2.124 21.5328,1.648 21.5328,1.062 C21.5328,0.475 21.0578,0 20.4708,0 L15.1828,0 C14.5958,0 14.1218,0.475 14.1218,1.062 L14.1218,71.575 C14.1218,72.163 14.5958,72.637 15.1828,72.637 L99.7998,72.637 C100.3868,72.637 100.8618,72.163 100.8618,71.575 L100.8618,66.287 C100.8618,65.7 100.3868,65.225 99.7998,65.225" id="Fill-5" fill="#343852"></path>
            <path d="M63.3257,31.1434 L63.3257,22.9444 C63.3257,22.4434 63.7327,22.0374 64.2347,22.0374 L75.8077,22.0374 C76.3087,22.0374 76.7157,22.4434 76.7157,22.9444 L76.7157,28.4274 L75.0067,30.7734 C74.1127,30.4614 73.1717,30.3004 72.2187,30.3004 C71.8077,30.3004 71.3927,30.3314 70.9837,30.3904 C69.1047,30.6634 67.4097,31.5364 66.1127,32.8634 L63.3257,31.1434 Z M84.4497,17.8204 C83.9847,16.9504 83.6727,16.0024 83.5287,15.0174 C83.2017,12.7544 83.7757,10.4974 85.1447,8.6654 C85.1727,8.6284 85.2037,8.5954 85.2327,8.5594 L81.9397,8.5594 C81.4387,8.5594 81.0317,8.9654 81.0317,9.4664 L81.0317,22.5084 L84.4497,17.8204 Z M30.9937,40.8324 C31.4047,40.7724 31.8227,40.7414 32.2367,40.7414 C33.2417,40.7414 34.2347,40.9204 35.1717,41.2664 L38.9197,37.0994 L28.8217,37.0994 C28.3197,37.0994 27.9127,37.5054 27.9127,38.0074 L27.9127,41.9054 C28.8507,41.3604 29.8897,40.9914 30.9937,40.8324 L30.9937,40.8324 Z M56.8877,34.6574 C55.6067,35.8934 53.9767,36.6954 52.1817,36.9544 C51.7687,37.0144 51.3507,37.0444 50.9387,37.0444 C49.9427,37.0444 48.9547,36.8634 48.0147,36.5114 L45.6197,39.1744 L45.6197,60.3684 C45.6197,60.8704 46.0257,61.2764 46.5277,61.2764 L58.1017,61.2764 C58.6037,61.2764 59.0107,60.8704 59.0107,60.3684 L59.0107,35.9664 L56.8877,34.6574 Z M39.9067,45.5294 C40.3027,46.3314 40.5727,47.1934 40.7007,48.0824 C41.3767,52.7554 38.1247,57.1084 33.4557,57.7834 C33.0487,57.8424 32.6337,57.8724 32.2217,57.8724 C30.6647,57.8724 29.1887,57.4414 27.9127,56.6914 L27.9127,60.3684 C27.9127,60.8704 28.3197,61.2764 28.8217,61.2764 L40.3947,61.2764 C40.8967,61.2764 41.3027,60.8704 41.3027,60.3684 L41.3027,43.9764 L39.9067,45.5294 Z M93.2367,22.2674 C92.8287,22.3264 92.4137,22.3564 92.0017,22.3564 C91.0957,22.3564 90.1977,22.2104 89.3387,21.9244 L81.0317,33.3194 L81.0317,60.3684 C81.0317,60.8704 81.4387,61.2764 81.9397,61.2764 L93.5137,61.2764 C94.0157,61.2764 94.4217,60.8704 94.4217,60.3684 L94.4217,21.9974 C94.0367,22.1114 93.6437,22.2084 93.2367,22.2674 L93.2367,22.2674 Z M73.4437,47.3414 C73.0307,47.4014 72.6137,47.4314 72.2007,47.4314 C70.3497,47.4314 68.5807,46.8424 67.0887,45.7274 C65.2567,44.3584 64.0667,42.3584 63.7387,40.0924 C63.6777,39.6754 63.6497,39.2534 63.6527,38.8304 L63.3257,38.6284 L63.3257,60.3684 C63.3257,60.8704 63.7327,61.2764 64.2347,61.2764 L75.8077,61.2764 C76.3087,61.2764 76.7157,60.8704 76.7157,60.3684 L76.7157,46.1484 C75.7467,46.7484 74.6437,47.1684 73.4437,47.3414 L73.4437,47.3414 Z" id="Fill-7" fill="#C5C8DA"></path>
            <path d="M63.3254,31.1436 L63.3254,22.9446 C63.3254,22.4426 63.7324,22.0366 64.2344,22.0366 L75.8074,22.0366 C76.3094,22.0366 76.7164,22.4426 76.7164,22.9446 L76.7164,28.4276 L75.0064,30.7736 C74.8714,30.7266 74.7304,30.7066 74.5934,30.6656 L74.5934,24.1596 L65.4484,24.1596 L65.4484,32.4536 L63.3254,31.1436 Z M83.1554,19.5956 L83.1554,10.6816 L84.0304,10.6816 C84.3074,9.9726 84.6764,9.2926 85.1444,8.6656 C85.1734,8.6286 85.2054,8.5956 85.2324,8.5586 L81.9404,8.5586 C81.4384,8.5586 81.0314,8.9646 81.0314,9.4666 L81.0314,22.5076 L83.1554,19.5956 Z M30.0354,41.0326 L30.0354,39.2226 L37.0104,39.2226 L38.9194,37.0996 L28.8214,37.0996 C28.3194,37.0996 27.9124,37.5056 27.9124,38.0076 L27.9124,41.9056 C28.5744,41.5216 29.2864,41.2286 30.0354,41.0326 L30.0354,41.0326 Z M74.5934,47.0846 L74.5934,59.1536 L65.4484,59.1536 L65.4484,44.1096 C64.5504,42.9536 63.9554,41.5826 63.7394,40.0926 C63.6794,39.6756 63.6504,39.2536 63.6524,38.8306 L63.3254,38.6286 L63.3254,60.3686 C63.3254,60.8706 63.7324,61.2766 64.2344,61.2766 L75.8074,61.2766 C76.3094,61.2766 76.7164,60.8706 76.7164,60.3686 L76.7164,46.1486 C76.0654,46.5506 75.3524,46.8646 74.5934,47.0846 L74.5934,47.0846 Z M39.9064,45.5296 C40.3034,46.3316 40.5734,47.1926 40.7014,48.0826 C41.0294,50.3576 40.4224,52.5516 39.1804,54.2876 L39.1804,59.1536 L30.0354,59.1536 L30.0354,57.5806 C29.2864,57.3796 28.5734,57.0796 27.9124,56.6916 L27.9124,60.3686 C27.9124,60.8706 28.3194,61.2766 28.8214,61.2766 L40.3944,61.2766 C40.8974,61.2766 41.3034,60.8706 41.3034,60.3686 L41.3034,43.9756 L39.9064,45.5296 Z M93.2364,22.2666 C92.9274,22.3126 92.6114,22.3236 92.2984,22.3356 L92.2984,59.1536 L83.1554,59.1536 L83.1554,30.4076 L81.0314,33.3196 L81.0314,60.3686 C81.0314,60.8706 81.4384,61.2766 81.9404,61.2766 L93.5144,61.2766 C94.0154,61.2766 94.4214,60.8706 94.4214,60.3686 L94.4214,21.9976 C94.0374,22.1116 93.6444,22.2086 93.2364,22.2666 L93.2364,22.2666 Z M56.8874,34.6576 L56.8864,34.6586 L56.8864,59.1536 L47.7434,59.1536 L47.7434,36.8136 L45.6204,39.1746 L45.6204,60.3686 C45.6204,60.8706 46.0264,61.2766 46.5274,61.2766 L58.1014,61.2766 C58.6034,61.2766 59.0104,60.8706 59.0104,60.3686 L59.0104,35.9666 L56.8874,34.6576 Z" id="Fill-9" fill="#343852"></path>
            <path d="M32.2212,55.7495 C29.0732,55.7495 26.3132,53.4335 25.8502,50.2315 C25.6042,48.5275 26.0352,46.8315 27.0652,45.4535 C28.0952,44.0745 29.6002,43.1795 31.3032,42.9335 C34.8232,42.4145 38.0922,44.8725 38.6002,48.3845 L38.6002,48.3855 C39.1082,51.9015 36.6622,55.1745 33.1472,55.6815 C32.8362,55.7275 32.5272,55.7495 32.2212,55.7495 M72.2012,45.3085 C70.8222,45.3085 69.4842,44.8675 68.3602,44.0265 C66.9812,42.9965 66.0872,41.4915 65.8402,39.7895 C65.3322,36.2745 67.7772,33.0005 71.2922,32.4925 C74.8032,31.9775 78.0822,34.4295 78.5912,37.9445 C79.0982,41.4595 76.6522,44.7325 73.1372,45.2405 C72.8242,45.2865 72.5112,45.3085 72.2012,45.3085" id="Fill-11" fill="#1D71B8"></path>
            <path d="M50.9392,34.9219 C49.5602,34.9219 48.2222,34.4799 47.0982,33.6399 C45.7202,32.6099 44.8252,31.1039 44.5792,29.4029 C44.0702,25.8879 46.5152,22.6139 50.0302,22.1049 C53.5412,21.5889 56.8192,24.0429 57.3282,27.5569 C57.5742,29.2609 57.1432,30.9569 56.1132,32.3349 C55.0832,33.7129 53.5782,34.6079 51.8752,34.8529 C51.5622,34.8989 51.2492,34.9219 50.9392,34.9219 M92.0022,20.2339 C88.8542,20.2339 86.0942,17.9169 85.6312,14.7139 C85.3852,13.0109 85.8162,11.3149 86.8452,9.9359 C87.8752,8.5579 89.3792,7.6629 91.0822,7.4179 C92.7862,7.1689 94.4832,7.6029 95.8612,8.6319 C97.2382,9.6609 98.1332,11.1669 98.3802,12.8689 C98.8882,16.3829 96.4432,19.6569 92.9282,20.1669 C92.6162,20.2109 92.3072,20.2339 92.0022,20.2339" id="Fill-13" fill="#D20050"></path>
            <path d="M98.3797,12.8683 C98.1337,11.1663 97.2387,9.6613 95.8607,8.6313 C94.4827,7.6023 92.7857,7.1683 91.0827,7.4183 C89.3797,7.6633 87.8747,8.5583 86.8457,9.9363 C85.8157,11.3153 85.3847,13.0103 85.6307,14.7143 C85.8047,15.9213 86.3077,17.0023 87.0327,17.8813 L75.6837,33.4483 C74.4237,32.6393 72.8837,32.2583 71.2917,32.4923 C69.2547,32.7873 67.5817,34.0143 66.6297,35.6763 L57.2367,29.8823 C57.4037,29.1283 57.4427,28.3443 57.3277,27.5563 C56.8197,24.0423 53.5417,21.5893 50.0307,22.1053 C46.5157,22.6133 44.0707,25.8873 44.5787,29.4023 C44.7447,30.5513 45.2127,31.6063 45.9187,32.4903 L35.6807,43.8763 C34.4247,43.0763 32.8907,42.6993 31.3027,42.9343 C29.5997,43.1793 28.0947,44.0743 27.0647,45.4533 C26.0347,46.8313 25.6037,48.5273 25.8507,50.2313 C26.3127,53.4333 29.0747,55.7493 32.2217,55.7493 C32.5267,55.7493 32.8367,55.7283 33.1477,55.6823 C36.6617,55.1743 39.1077,51.9013 38.5997,48.3863 L38.5997,48.3853 C38.4307,47.2133 37.9497,46.1643 37.2587,45.2993 L47.5087,33.8983 C48.5437,34.5573 49.7207,34.9223 50.9387,34.9223 C51.2487,34.9223 51.5617,34.8983 51.8757,34.8533 C53.5777,34.6073 55.0837,33.7123 56.1137,32.3353 C56.2247,32.1863 56.3257,32.0323 56.4217,31.8763 L65.8827,37.7123 C65.7607,38.3813 65.7377,39.0793 65.8407,39.7893 C66.0867,41.4913 66.9817,42.9963 68.3597,44.0263 C69.4847,44.8673 70.8217,45.3083 72.2007,45.3083 C72.5117,45.3083 72.8247,45.2863 73.1377,45.2403 C76.6527,44.7323 79.0977,41.4593 78.5907,37.9443 C78.4227,36.7833 77.9467,35.7413 77.2657,34.8813 L88.6437,19.2743 C89.6347,19.8823 90.7867,20.2333 92.0017,20.2333 C92.3077,20.2333 92.6167,20.2113 92.9287,20.1663 C96.4437,19.6573 98.8887,16.3833 98.3797,12.8683 M32.8427,53.5813 C30.4887,53.9203 28.2927,52.2833 27.9527,49.9263 C27.7867,48.7853 28.0757,47.6473 28.7667,46.7223 C29.4567,45.7993 30.4647,45.2003 31.6067,45.0333 C31.8157,45.0043 32.0227,44.9893 32.2277,44.9893 C34.3367,44.9893 36.1877,46.5423 36.4977,48.6893 C36.8387,51.0453 35.1997,53.2413 32.8427,53.5813 M54.4127,31.0643 C53.7217,31.9873 52.7127,32.5873 51.5717,32.7533 C50.4287,32.9133 49.2927,32.6293 48.3687,31.9373 C47.4457,31.2473 46.8457,30.2393 46.6797,29.0983 C46.3387,26.7423 47.9787,24.5473 50.3347,24.2053 C50.5437,24.1753 50.7507,24.1603 50.9547,24.1603 C53.0657,24.1603 54.9157,25.7133 55.2267,27.8623 C55.3927,29.0033 55.1027,30.1403 54.4127,31.0643 M75.6747,41.4503 C74.9847,42.3743 73.9757,42.9743 72.8337,43.1393 C71.6897,43.3013 70.5537,43.0153 69.6307,42.3253 C68.7067,41.6343 68.1067,40.6263 67.9417,39.4843 C67.6007,37.1293 69.2407,34.9343 71.5967,34.5913 C71.8047,34.5623 72.0117,34.5473 72.2167,34.5473 C74.3267,34.5473 76.1787,36.1003 76.4887,38.2493 C76.6537,39.3903 76.3647,40.5273 75.6747,41.4503 M92.6237,18.0663 C90.2697,18.4083 88.0727,16.7653 87.7317,14.4093 C87.5667,13.2673 87.8557,12.1303 88.5457,11.2073 C89.2357,10.2833 90.2447,9.6833 91.3867,9.5183 C91.5967,9.4883 91.8067,9.4733 92.0147,9.4733 C92.9387,9.4733 93.8357,9.7693 94.5897,10.3333 C95.5137,11.0233 96.1127,12.0313 96.2787,13.1743 C96.6197,15.5283 94.9807,17.7243 92.6237,18.0663" id="Fill-15" fill="#343852"></path>
        </g>
    </g>
</svg>