<?xml version="1.0" encoding="UTF-8"?>
<svg width="120px" height="120px" viewBox="0 0 120 120" version="1.1" xmlns="http://www.w3.org/2000/svg" xmlns:xlink="http://www.w3.org/1999/xlink">
    <title>02.Icons/Illustrative/Charts - Camembert</title>
    <g id="02.Icons/Illustrative/Charts---Camembert" stroke="none" stroke-width="1" fill="none" fill-rule="evenodd">
        <g id="Charts---Camembert" transform="translate(6.765100, 18.902900)">
            <path d="M76.856,54.1854 C76.856,32.9614 59.65,15.7584 38.429,15.7584 C17.207,15.7584 0,32.9614 0,54.1854 C0,75.4094 17.207,92.6124 38.429,92.6124 C59.65,92.6124 76.856,75.4094 76.856,54.1854" id="Fill-1" fill="#F2F3F7"></path>
            <path d="M26.3959,67.3479 C26.1079,67.3479 25.8189,67.2379 25.5999,67.0179 C18.9539,60.3719 15.2939,51.5399 15.2939,42.1489 C15.2939,41.5259 15.7969,41.0229 16.4199,41.0229 L50.4689,41.0229 C50.9239,41.0229 51.3349,41.2969 51.5089,41.7179 C51.6839,42.1389 51.5869,42.6229 51.2649,42.9449 L27.1919,67.0179 C26.9729,67.2379 26.6839,67.3479 26.3959,67.3479" id="Fill-3" fill="#D20050"></path>
            <path d="M56.3192,45.3404 L56.3192,45.5044 L32.5762,69.2474 C32.1362,69.6884 32.1362,70.4004 32.5762,70.8414 C39.2212,77.4864 48.0532,81.1464 57.4452,81.1464 C67.0172,81.1464 75.7042,77.2984 82.0532,71.0744 L56.3192,45.3404 Z" id="Fill-5" fill="#697097"></path>
            <path d="M82.0523,71.0738 C82.1233,71.0038 82.1983,70.9378 82.2693,70.8678 C82.2833,70.8558 82.3003,70.8508 82.3133,70.8388 C82.3263,70.8258 82.3293,70.8078 82.3413,70.7948 C88.6893,64.4288 92.6213,55.6508 92.6213,45.9718 C92.6213,26.5758 76.8403,10.7968 57.4443,10.7968 C56.8233,10.7968 56.3183,11.2998 56.3183,11.9228 L56.3183,45.3398 L82.0523,71.0738 Z" id="Fill-7" fill="#1D71B8"></path>
            <path d="M50.4686,36.3008 L16.4206,36.3008 C15.7976,36.3008 15.2946,35.7978 15.2946,35.1748 C15.2946,15.7788 31.0726,0.0008 50.4686,0.0008 C51.0916,0.0008 51.5946,0.5038 51.5946,1.1268 L51.5946,35.1748 C51.5946,35.7978 51.0916,36.3008 50.4686,36.3008" id="Fill-9" fill="#DEE0EA"></path>
            <path d="M26.3956,67.348 C26.1076,67.348 25.8186,67.238 25.5996,67.018 C18.9536,60.372 15.2936,51.54 15.2936,42.149 C15.2936,41.526 15.7966,41.023 16.4196,41.023 L50.4686,41.023 C50.9236,41.023 51.3356,41.297 51.5086,41.718 C51.6836,42.139 51.5866,42.623 51.2646,42.945 L27.1916,67.018 C26.9726,67.238 26.6836,67.348 26.3956,67.348 L26.3956,67.348 Z M17.5636,43.275 C17.8316,51.268 20.9406,58.77 26.4096,64.616 L47.7496,43.275 L17.5636,43.275 Z M82.3416,70.795 C88.6896,64.428 92.6206,55.651 92.6206,45.971 C92.6206,26.576 76.8406,10.796 57.4446,10.796 C56.8226,10.796 56.3186,11.299 56.3186,11.922 L56.3186,45.505 L32.5756,69.248 C32.1366,69.688 32.1366,70.401 32.5756,70.84 C39.2216,77.486 48.0536,81.146 57.4446,81.146 C67.1246,81.146 75.9026,77.215 82.2696,70.867 C82.2836,70.855 82.2996,70.851 82.3126,70.838 C82.3256,70.825 82.3296,70.809 82.3416,70.795 L82.3416,70.795 Z M90.3686,45.971 C90.3686,54.643 86.9926,62.538 81.4916,68.425 L58.5706,45.503 L58.5706,13.067 C76.2066,13.663 90.3686,28.194 90.3686,45.971 L90.3686,45.971 Z M34.9776,70.032 L57.4456,47.563 L79.8996,70.017 C74.0126,75.518 66.1176,78.894 57.4446,78.894 C49.0316,78.894 41.0966,75.756 34.9776,70.032 L34.9776,70.032 Z M50.4686,0 C44.8106,0 39.4636,1.351 34.7246,3.735 C34.6806,3.751 34.6416,3.777 34.6006,3.798 C31.2956,5.476 28.2866,7.654 25.6816,10.244 C25.6546,10.267 25.6206,10.276 25.5946,10.302 C25.5706,10.326 25.5596,10.36 25.5376,10.387 C22.9486,12.992 20.7706,16.001 19.0916,19.306 C19.0706,19.349 19.0446,19.386 19.0286,19.43 C16.6446,24.171 15.2946,29.516 15.2946,35.175 C15.2946,35.797 15.7976,36.301 16.4206,36.301 L50.4686,36.301 C51.0916,36.301 51.5946,35.797 51.5946,35.175 L51.5946,1.126 C51.5946,0.503 51.0916,0 50.4686,0 L50.4686,0 Z M35.9086,34.049 L21.4716,19.612 C22.8236,17.102 24.4906,14.787 26.4216,12.721 L47.7496,34.049 L35.9086,34.049 Z M28.0136,11.128 C30.0816,9.196 32.3966,7.529 34.9066,6.177 L49.3426,20.615 L49.3426,32.456 L28.0136,11.128 Z M49.3426,17.43 L37.0366,5.122 C40.8166,3.426 44.9716,2.419 49.3426,2.271 L49.3426,17.43 Z M20.4156,21.742 L32.7236,34.049 L17.5656,34.049 C17.7126,29.679 18.7186,25.523 20.4156,21.742 L20.4156,21.742 Z" id="Fill-11" fill="#343852"></path>
        </g>
    </g>
</svg>