<?xml version="1.0" encoding="UTF-8"?>
<svg width="120px" height="120px" viewBox="0 0 120 120" version="1.1" xmlns="http://www.w3.org/2000/svg" xmlns:xlink="http://www.w3.org/1999/xlink">
    <title>02.Icons/Illustrative/Charts - Aires</title>
    <g id="02.Icons/Illustrative/Charts---Aires" stroke="none" stroke-width="1" fill="none" fill-rule="evenodd">
        <g id="Charts---Aires" transform="translate(2.760200, 12.290900)">
            <path d="M73.952,36.976 C73.952,16.554 57.396,0 36.976,0 C16.556,0 0,16.554 0,36.976 C0,57.398 16.556,73.952 36.976,73.952 C57.396,73.952 73.952,57.398 73.952,36.976" id="Fill-1" fill="#F2F3F7"></path>
            <path d="M101.7467,54.7584 L21.9737,54.7584 C21.3847,54.7584 20.9077,54.2824 20.9077,53.6944 C20.9077,53.1054 21.3847,52.6304 21.9737,52.6304 L101.7467,52.6304 C102.3357,52.6304 102.8127,53.1054 102.8127,53.6944 C102.8127,54.2824 102.3357,54.7584 101.7467,54.7584 M102.8127,39.5624 C102.8127,38.9754 102.3357,38.4984 101.7467,38.4984 L21.9737,38.4984 C21.3847,38.4984 20.9077,38.9754 20.9077,39.5624 C20.9077,40.1504 21.3847,40.6264 21.9737,40.6264 L101.7467,40.6264 C102.3357,40.6264 102.8127,40.1504 102.8127,39.5624 M102.8127,25.4284 C102.8127,24.8394 102.3357,24.3644 101.7467,24.3644 L21.9497,24.3644 C21.3597,24.3644 20.8827,24.8394 20.8827,25.4284 C20.8827,26.0164 21.3597,26.4924 21.9497,26.4924 L101.7467,26.4924 C102.3357,26.4924 102.8127,26.0164 102.8127,25.4284" id="Fill-3" fill="#DEE0EA"></path>
            <path d="M68.9216,81.7366 L67.4176,81.7366 C61.1026,81.7366 57.7546,73.3266 54.5176,65.1926 C51.2836,57.0706 48.2296,49.3986 41.8716,49.3986 C35.5136,49.3986 32.4596,57.0706 29.2276,65.1916 C25.9896,73.3266 22.6406,81.7366 16.3256,81.7366 L67.4176,83.0346 L68.9216,83.0346 C69.4216,83.0346 69.8256,82.7446 69.8256,82.3856 C69.8256,82.0266 69.4216,81.7366 68.9216,81.7366" id="Fill-5" fill="#D20050"></path>
            <path d="M38.8407,83.0349 L33.5407,83.0349 C32.9517,83.0349 32.4767,82.5589 32.4767,81.9709 C32.4767,81.3819 32.9517,80.9069 33.5407,80.9069 L38.8407,80.9069 C46.2667,80.9069 50.2047,67.1199 54.0127,53.7869 C57.8127,40.4729 61.4037,27.8989 68.8787,27.8989 C76.3547,27.8989 79.9457,40.4739 83.7477,53.7879 C87.5537,67.1209 91.4907,80.9069 98.9177,80.9069 L100.6847,80.9069 C101.2727,80.9069 101.7487,81.3819 101.7487,81.9709 C101.7487,82.5589 101.2727,83.0349 100.6847,83.0349 L98.9177,83.0349" id="Fill-7" fill="#1D71B8"></path>
            <path d="M101.7485,75.6055 C101.1605,75.6055 100.6845,76.0815 100.6845,76.6695 L100.6845,80.9065 L98.9175,80.9065 C91.4915,80.9065 87.5535,67.1205 83.7475,53.7875 C79.9455,40.4745 76.3545,27.8985 68.8795,27.8985 C61.4035,27.8985 57.8125,40.4725 54.0115,53.7865 C53.4915,55.6065 52.9695,57.4345 52.4365,59.2355 C49.8305,53.4575 46.8575,48.9255 41.9245,48.9255 C35.5175,48.9255 32.4155,56.5715 29.1315,64.6635 C26.2225,71.8325 23.2125,79.2215 17.9985,80.5195 L17.9985,54.7635 L22.2355,54.7635 C22.8225,54.7635 23.2995,54.2865 23.2995,53.6995 C23.2995,53.1105 22.8225,52.6355 22.2355,52.6355 L17.9985,52.6355 L17.9985,40.6275 L22.2355,40.6275 C22.8225,40.6275 23.2995,40.1515 23.2995,39.5635 C23.2995,38.9755 22.8225,38.4995 22.2355,38.4995 L17.9985,38.4995 L17.9985,26.4915 L22.2355,26.4915 C22.8225,26.4915 23.2995,26.0155 23.2995,25.4265 C23.2995,24.8395 22.8225,24.3625 22.2355,24.3625 L17.9985,24.3625 L17.9985,12.3555 L22.2355,12.3555 C22.8225,12.3555 23.2995,11.8805 23.2995,11.2915 C23.2995,10.7035 22.8225,10.2275 22.2355,10.2275 L16.9345,10.2275 C16.3465,10.2275 15.8705,10.7035 15.8705,11.2915 L15.8705,81.9705 C15.8705,82.5595 16.3465,83.0345 16.9345,83.0345 L33.5405,83.0345 L38.8405,83.0345 L98.9175,83.0345 L100.6845,83.0345 L101.7485,83.0345 C102.3365,83.0345 102.8125,82.5595 102.8125,81.9705 L102.8125,76.6695 C102.8125,76.0815 102.3365,75.6055 101.7485,75.6055 L101.7485,75.6055 Z M33.5405,80.9065 L32.1335,80.9065 L32.1335,76.6695 C32.1335,76.0815 31.6575,75.6055 31.0695,75.6055 C30.4825,75.6055 30.0055,76.0815 30.0055,76.6695 L30.0055,80.9065 L21.9795,80.9065 C26.0745,77.8265 28.6255,71.5725 31.1045,65.4635 C34.1105,58.0545 36.9505,51.0545 41.9245,51.0545 C46.1995,51.0545 48.8985,56.2255 51.4805,62.3835 C49.8355,67.6445 48.0465,72.4635 45.8835,75.8665 C45.6985,75.7095 45.4675,75.6055 45.2055,75.6055 C44.6175,75.6055 44.1415,76.0815 44.1415,76.6695 L44.1415,78.1825 C42.5825,79.9015 40.8385,80.9065 38.8405,80.9065 L33.5405,80.9065 Z M88.6765,80.9065 L88.6765,76.6695 C88.6765,76.0815 88.2005,75.6055 87.6125,75.6055 C87.0235,75.6055 86.5485,76.0815 86.5485,76.6695 L86.5485,80.9065 L74.5415,80.9065 L74.5415,76.6695 C74.5415,76.0815 74.0655,75.6055 73.4775,75.6055 C72.8885,75.6055 72.4135,76.0815 72.4135,76.6695 L72.4135,80.9065 L60.4065,80.9065 L60.4065,76.6695 C60.4065,76.0815 59.9295,75.6055 59.3415,75.6055 C58.7535,75.6055 58.2775,76.0815 58.2775,76.6695 L58.2775,80.9065 L46.2695,80.9065 L46.2695,78.9205 C50.5635,73.5975 53.3425,63.8785 56.0585,54.3705 C59.4765,42.4015 63.0095,30.0265 68.8795,30.0265 C74.7485,30.0265 78.2825,42.4025 81.7005,54.3715 C84.8025,65.2285 87.9855,76.3645 93.4135,80.9065 L88.6765,80.9065 Z" id="Fill-9" fill="#343852"></path>
        </g>
    </g>
</svg>