<?xml version="1.0" encoding="UTF-8"?>
<svg width="120px" height="120px" viewBox="0 0 120 120" version="1.1" xmlns="http://www.w3.org/2000/svg" xmlns:xlink="http://www.w3.org/1999/xlink">
    <title>02.Icons/Illustrative/01. Profils/Chirurgien-Dentiste</title>
    <g id="02.Icons/Illustrative/01.-Profils/Chirurgien-Dentiste" stroke="none" stroke-width="1" fill="none" fill-rule="evenodd">
        <path d="M94.6715,61.6691 C94.6715,38.5631 75.9405,19.8321 52.8345,19.8321 C29.7295,19.8321 10.9995,38.5631 10.9995,61.6691 C10.9995,84.7751 29.7295,103.5051 52.8345,103.5051 C75.9405,103.5051 94.6715,84.7751 94.6715,61.6691" id="Fill-1" fill="#F2F3F7"></path>
        <path d="M61.0997,85.3342 C57.3287,84.0592 53.3137,78.9092 51.4057,76.0212 C51.5867,78.4032 51.8287,81.0002 52.1327,83.7052 C52.7687,89.6682 53.7157,97.3372 55.0477,103.3922 L67.1667,103.3922 C68.1657,98.8892 68.9157,92.9732 69.5217,88.3772 C70.0817,83.9972 70.5067,79.7552 70.7937,76.0212 C68.8857,78.9092 64.8707,84.0592 61.0997,85.3342" id="Fill-4" fill="#1D71B8"></path>
        <path d="M89.3735,86.1244 L96.2335,93.1774 L99.3055,90.1354 C98.5865,85.7754 97.8225,81.4934 97.3185,79.5564 C96.7375,77.3764 96.0655,75.7584 95.3325,74.9094 C95.3015,74.8644 95.2715,74.8344 95.2105,74.7894 C93.5595,73.0634 86.4095,70.1274 78.6325,65.9654 L78.3725,65.1334 L71.6335,63.1654 C71.6335,63.1654 68.7315,62.2424 68.7315,59.8814 L68.7315,55.3414 L67.1425,55.2954 C67.5555,55.0244 67.9515,54.7354 68.4255,54.4634 C72.5665,52.1334 74.6285,47.8354 75.5305,43.4454 C75.5305,43.4454 79.4265,43.1134 79.4265,37.7404 C79.4265,35.9394 78.9075,34.9554 78.5555,34.5014 C78.3575,34.2594 78.2045,34.1544 78.2045,34.1544 C74.4605,34.1544 74.4605,25.6324 67.8605,25.1024 C67.8295,25.1024 67.7995,25.0874 67.7685,25.1024 C67.1885,25.1024 66.6075,25.1334 66.0265,25.1934 C64.7285,25.4064 62.9255,25.8304 60.9545,26.0114 C57.9605,26.2984 54.5675,26.0114 51.9255,23.5594 C49.4805,29.3404 47.4475,32.5944 43.9795,34.1544 C43.9795,34.1544 43.8265,34.2594 43.6435,34.5014 C43.2765,34.9554 42.7565,35.9394 42.7565,37.7404 C42.7565,37.8914 42.7565,38.0274 42.7715,38.1634 C42.9715,43.1284 46.6535,43.4454 46.6535,43.4454 C47.5545,47.8354 49.6175,52.1334 53.7585,54.4634 C53.8805,54.5244 53.9875,54.5994 54.0935,54.6754 L53.4525,55.3414 L53.4525,59.8814 C53.4525,62.2424 50.5495,63.1654 50.5495,63.1654 L43.8115,65.1334 L43.5525,65.9654 C41.9325,66.8284 40.3425,67.6454 38.8305,68.4024 C32.8715,71.3834 27.9975,73.5484 26.8515,74.9094 C24.6665,77.4824 22.8945,87.1234 22.8945,97.7174 L22.8945,103.3924 L47.3405,103.3924 L54.9805,103.3924 C53.6355,97.4294 52.6885,89.8774 52.0475,84.0054 C51.7405,81.3424 51.4965,78.7844 51.3135,76.4384 C53.2385,79.2834 57.2885,84.3534 61.0925,85.6094 C64.8965,84.3534 68.9455,79.2834 70.8705,76.4384 C70.5805,80.1164 70.1525,84.2934 69.5875,88.6064 C68.9755,93.1314 68.2125,98.9584 67.2035,103.3924 L74.8435,103.3924 L96.2335,103.3924 L84.7895,90.6654 L88.4255,87.0634 L89.3735,86.1244 Z" id="Fill-6" fill="#FFFFFF"></path>
        <path d="M78.7618,26.2757 C78.7158,23.6247 77.9718,20.1657 76.3438,18.1137 C78.1388,16.0477 77.5608,13.3807 77.5608,13.3807 C77.5608,13.3807 73.5308,13.8307 68.9998,12.6177 L68.9698,12.6177 C66.4138,11.5387 63.5248,11.0147 60.5288,11.0147 C53.1538,11.0147 50.2648,13.0057 48.3648,15.7467 C45.3228,16.9307 42.2818,20.5397 42.2818,25.1967 C42.2818,30.9787 42.2818,31.5627 43.1638,33.8237 C43.3468,33.5837 43.4988,33.4787 43.4988,33.4787 C46.9508,31.9377 48.9728,28.7167 51.4058,22.9957 C54.0368,25.4227 57.4118,25.7067 60.3928,25.4227 C62.0348,25.0177 63.7078,24.7477 65.4418,24.6127 C65.8968,24.5387 66.2928,24.4937 66.6128,24.4937 C66.8098,24.4937 66.9918,24.4937 67.1748,24.5237 C67.2058,24.5087 67.2358,24.5237 67.2658,24.5237 C73.8348,25.0477 73.8348,33.4787 77.5608,33.4787 C77.5608,33.4787 77.7118,33.5837 77.9108,33.8237 C78.7768,31.5627 78.7768,28.8957 78.7768,26.6047 C78.7768,26.4997 78.7768,26.3957 78.7618,26.2757" id="Fill-8" fill="#C5C8DA"></path>
        <polygon id="Fill-10" fill="#FFFFFF" points="69.099 27.975 78.596 27.975 78.596 24.192 69.099 24.192"></polygon>
        <polygon id="Fill-12" fill="#FFFFFF" points="43.731 27.975 53.228 27.975 53.228 24.192 43.731 24.192"></polygon>
        <path d="M67.7958,26.0482 C67.7958,30.0582 64.5448,33.3102 60.5338,33.3102 C56.5238,33.3102 53.2728,30.0582 53.2728,26.0482 C53.2728,22.0382 56.5238,18.7862 60.5338,18.7862 C64.5448,18.7862 67.7958,22.0382 67.7958,26.0482" id="Fill-13" fill="#FFFFFF"></path>
        <path d="M60.9028,27.8219 L60.6498,27.8219 C60.6348,27.8219 60.6168,27.8209 60.5988,27.8209 C60.5848,27.8209 60.5718,27.8219 60.5648,27.8219 C59.5558,27.8219 58.7358,27.0009 58.7358,25.9919 C58.7358,24.9819 59.5558,24.1609 60.5648,24.1609 L60.9168,24.1609 C61.9248,24.1609 62.7468,24.9819 62.7468,25.9919 C62.7468,27.0009 61.9248,27.8219 60.9028,27.8219 L60.9028,27.8219 Z M60.9168,22.0489 L60.5648,22.0489 C58.3918,22.0489 56.6238,23.8169 56.6238,25.9919 C56.6238,28.1649 58.3898,29.9329 60.6018,29.9329 L60.6038,29.9329 L60.6548,29.6839 L60.6918,29.9329 L60.7798,29.9329 L60.8308,29.6839 L60.8678,29.9329 L60.9168,29.9339 C63.0908,29.9339 64.8588,28.1659 64.8588,25.9919 C64.8588,23.8169 63.0908,22.0489 60.9168,22.0489 L60.9168,22.0489 Z M70.4038,63.7179 C70.3478,65.4259 70.1678,70.0319 69.6918,75.9179 L69.6888,75.9509 L69.6708,75.9779 C66.7908,80.2129 63.5448,83.3699 60.9888,84.4229 L60.9408,84.4419 L60.8928,84.4229 C59.9348,84.0279 56.4778,82.2519 52.2118,75.9779 L52.1928,75.9509 L52.1898,75.9179 C51.7108,69.9969 51.5328,65.4139 51.4788,63.7179 L51.4758,63.6389 L51.5478,63.6029 C52.5928,63.0739 54.3478,61.8609 54.3478,59.6739 L54.3478,55.9129 L54.5428,56.0409 C55.7708,56.8539 57.2768,57.6479 60.9408,57.6479 C64.6318,57.6479 66.0738,56.8859 67.3398,56.0389 L67.5338,55.9079 L67.5338,59.6739 C67.5338,61.8619 69.2888,63.0749 70.3358,63.6029 L70.4068,63.6389 L70.4038,63.7179 Z M47.5558,42.9589 L47.5558,42.9579 C47.4658,42.5199 47.0938,42.1869 46.6488,42.1489 L46.6478,42.1489 C46.5868,42.1489 45.9368,42.0319 45.3088,41.5639 C44.3178,40.8229 43.7798,39.5609 43.7108,37.8129 C43.7098,37.7899 43.7078,37.7669 43.7048,37.7449 C43.6948,37.6639 43.6948,37.5549 43.6948,37.4269 C43.6948,35.8039 44.1578,35.0539 44.3558,34.8079 C44.4298,34.7099 44.4578,34.6839 44.4748,34.6689 L44.5098,34.6439 C46.5858,33.6529 48.2328,32.0669 49.7768,29.5849 L52.2548,29.3129 C53.5788,32.6109 56.8088,34.9479 60.6018,34.9479 L60.6038,34.9479 L60.6548,34.6989 L60.6548,34.6989 L60.6548,34.6989 L60.6548,34.6989 L60.6918,34.9479 L60.7798,34.9479 L60.8308,34.6989 L60.8678,34.9479 L60.9168,34.9489 C64.7328,34.9489 67.9898,32.5459 69.2778,29.1779 L72.7958,29.6329 C73.0328,30.0259 73.2718,30.4189 73.4938,30.8119 C74.5178,32.6239 75.5698,34.4849 77.4748,34.7809 L77.5258,34.7889 L77.5558,34.8299 C77.7918,35.1529 78.1868,35.9189 78.1868,37.4269 C78.1868,41.6839 75.5408,42.1129 75.2388,42.1479 C74.7888,42.1859 74.4158,42.5189 74.3258,42.9579 C73.3098,47.9489 71.0918,51.4459 67.7348,53.3519 C67.3738,53.5619 67.0668,53.7689 66.7318,53.9999 C66.6228,54.0749 66.5138,54.1479 66.3898,54.2299 C65.4458,54.8799 64.3748,55.6169 60.9408,55.6169 C57.5228,55.6169 56.5388,54.9469 55.2938,54.0979 C55.0538,53.9349 54.8088,53.7679 54.5388,53.5999 C54.4128,53.5099 54.2808,53.4199 54.1208,53.3379 C50.7778,51.4289 48.5698,47.9379 47.5558,42.9589 L47.5558,42.9589 Z M47.1228,29.8769 C46.2288,31.0509 45.3018,31.8919 44.2268,32.5089 L44.0858,32.5909 L44.0438,32.4329 C43.8778,31.8109 43.7918,31.1819 43.7458,30.2319 C43.7578,30.2319 43.7688,30.2379 43.7808,30.2379 C43.8178,30.2379 43.8568,30.2359 43.8948,30.2309 L47.1228,29.8769 Z M51.7078,27.2489 L43.6998,28.1279 C43.6948,27.4209 43.6948,26.5869 43.6948,25.5959 L51.7098,24.7169 C51.6508,25.1349 51.6088,25.5579 51.6088,25.9919 C51.6088,26.4199 51.6498,26.8369 51.7078,27.2489 L51.7078,27.2489 Z M67.7618,25.9919 C67.7618,29.7659 64.6908,32.8369 60.9438,32.8399 L60.8788,32.8359 L60.8308,32.8379 C60.8068,32.8359 60.7638,32.8359 60.7428,32.8379 C60.7198,32.8359 60.6778,32.8369 60.6498,32.8369 C60.6228,32.8359 60.5788,32.8359 60.5648,32.8369 C56.7918,32.8369 53.7208,29.7659 53.7208,25.9919 C53.7208,22.2179 56.7918,19.1459 60.5648,19.1459 L60.9168,19.1459 C64.6908,19.1459 67.7618,22.2179 67.7618,25.9919 L67.7618,25.9919 Z M49.1398,16.7629 C49.3288,16.6889 49.4898,16.5609 49.6058,16.3919 C51.1538,14.1269 53.5978,12.0299 60.9408,12.0299 C63.8858,12.0299 66.5918,12.5499 68.9858,13.5739 C69.0658,13.6089 69.1508,13.6339 69.2408,13.6459 C72.4768,14.5089 75.4368,14.5529 76.9238,14.5019 L77.0568,14.4969 L77.0528,14.6309 C77.0278,15.4339 76.8248,16.5939 75.9958,17.5619 C75.6828,17.9269 75.6708,18.4679 75.9668,18.8469 C76.8788,20.0149 77.4938,21.7479 77.8378,23.4869 L69.1538,22.3649 C69.1368,22.3629 69.1198,22.3699 69.1018,22.3689 C67.7078,19.2319 64.5658,17.0349 60.9168,17.0349 L60.5648,17.0349 C56.8548,17.0349 53.6648,19.3039 52.3068,22.5269 L43.8998,23.4499 C44.5768,20.1489 46.8668,17.6619 49.1398,16.7629 L49.1398,16.7629 Z M78.0738,30.3149 C78.0078,31.1039 77.9118,31.8929 77.7328,32.6389 L77.7008,32.7759 L77.5688,32.7269 C76.8188,32.4519 76.1938,31.4529 75.3488,29.9629 L78.0738,30.3149 Z M69.7508,24.5729 L78.1288,25.6559 C78.1508,25.9539 78.1668,26.2479 78.1718,26.5269 C78.1718,26.5639 78.1748,26.5999 78.1788,26.6359 C78.1858,26.6909 78.1868,26.7559 78.1868,26.8429 C78.1868,27.2729 78.1868,27.7289 78.1798,28.1989 L69.7958,27.1159 C69.8428,26.7469 69.8748,26.3729 69.8748,25.9919 C69.8748,25.5079 69.8248,25.0359 69.7508,24.5729 L69.7508,24.5729 Z M98.0068,79.1829 C97.3678,76.7649 96.6628,75.1199 95.8498,74.1519 C95.7788,74.0569 95.7018,73.9759 95.6098,73.8989 C94.4178,72.7019 91.4018,71.2109 87.2288,69.1469 C84.9528,68.0219 82.1558,66.6379 79.3048,65.1109 L79.2598,65.0869 L79.1238,64.6519 C79.0238,64.3249 78.7688,64.0729 78.4398,63.9769 L71.7508,62.0069 C71.6558,61.9729 69.5668,61.2309 69.5668,59.6739 L69.5668,55.1129 C69.5668,54.9979 69.5438,54.8809 69.4918,54.7459 L69.4568,54.6529 L69.5398,54.5979 C72.7698,52.4389 75.0588,48.8059 76.1578,44.0929 L76.1738,44.0239 L76.2428,44.0029 C77.1748,43.7119 80.2178,42.3799 80.2178,37.4269 C80.2178,36.0909 79.9688,34.9629 79.4778,34.0759 L79.4518,34.0289 L79.4678,33.9769 C80.2178,31.6259 80.2178,29.0849 80.2178,26.8429 C80.2178,26.7359 80.2178,26.6039 80.2038,26.4469 C80.1548,24.0819 79.5688,20.7079 78.0648,18.3059 L78.0228,18.2399 L78.0648,18.1729 C79.5218,15.8759 79.0028,13.3129 78.9798,13.2049 C78.8698,12.6929 78.3848,12.3489 77.8728,12.4079 C77.8388,12.4129 73.9588,12.8229 69.6898,11.6639 L69.6588,11.6539 C67.0438,10.5559 64.1098,9.9999 60.9408,9.9999 C54.3838,9.9999 50.6708,11.4389 48.1218,14.9689 L48.1018,14.9969 L48.0708,15.0099 C44.9848,16.3879 41.6628,20.2319 41.6628,25.4149 C41.6628,30.7959 41.6628,31.9149 42.4088,33.9899 L42.4278,34.0439 L42.4008,34.0929 C41.9108,34.9669 41.6628,36.0889 41.6628,37.4269 C41.6628,37.5849 41.6628,37.7469 41.6798,37.9229 C41.8068,40.8809 43.0618,42.4199 44.0918,43.1909 C44.5628,43.5409 45.0828,43.8089 45.6358,43.9869 L45.7038,44.0089 L45.7198,44.0779 C46.8188,48.7979 49.1088,52.4349 52.3418,54.5979 L52.4248,54.6529 L52.3898,54.7459 C52.3388,54.8809 52.3148,54.9979 52.3148,55.1129 L52.3148,59.6739 C52.3148,61.2029 50.3608,61.9259 50.1378,62.0049 L43.4418,63.9769 C43.1138,64.0729 42.8588,64.3249 42.7578,64.6519 L42.6248,65.0859 L42.5788,65.1099 C41.1678,65.8649 39.7308,66.6109 38.3088,67.3289 C37.0798,67.9499 35.9108,68.5279 34.7808,69.0869 L34.6148,69.1689 C29.6668,71.6139 27.0398,72.9449 26.0588,74.1199 C23.6358,76.9979 21.8788,86.9099 21.8788,97.6899 L21.8788,102.2509 C21.8788,102.8099 22.3348,103.2659 22.8948,103.2659 C23.4558,103.2659 23.9118,102.8099 23.9118,102.2509 L23.9118,97.6899 C23.9118,92.6649 24.3158,87.5839 25.0508,83.3849 C25.7318,79.4999 26.6918,76.5229 27.6178,75.4249 C28.3728,74.5189 31.8408,72.8039 35.5108,70.9899 C36.7018,70.4019 37.9268,69.7979 39.2258,69.1409 C39.9838,68.7599 40.7368,68.3719 41.4838,67.9839 L41.7518,67.8449 L38.6658,77.6169 C38.5508,77.9789 38.6478,78.3709 38.9168,78.6379 L42.7628,82.4829 L40.4378,84.8069 C40.1648,85.0809 40.0698,85.4949 40.1988,85.8609 C40.2448,85.9919 44.9648,99.4479 46.3068,102.6429 C46.4658,103.0219 46.8348,103.2669 47.2458,103.2669 C47.3798,103.2669 47.5108,103.2399 47.6368,103.1869 C47.8878,103.0829 48.0828,102.8869 48.1848,102.6369 C48.2888,102.3849 48.2878,102.1089 48.1818,101.8579 C47.0878,99.2529 43.4448,88.9579 42.3538,85.8649 L42.3278,85.7899 L42.3838,85.7339 L46.4418,81.6789 C46.6328,81.4889 46.7388,81.2339 46.7398,80.9639 C46.7398,80.6919 46.6338,80.4369 46.4408,80.2449 C46.0478,79.8489 45.3998,79.8469 45.0048,80.2449 L44.2008,81.0479 L40.7908,77.6389 L42.1268,73.3929 L44.3928,66.2399 C44.4538,66.1199 44.4868,66.0109 44.5038,65.8909 L44.5408,65.7699 L49.4648,64.3199 L49.4708,64.4799 C49.5478,66.5999 49.7428,70.9659 50.1888,76.3869 C50.3788,78.8529 50.6258,81.4219 50.9218,84.0219 C51.6588,90.8319 52.6478,97.0389 53.8618,102.4719 C53.9658,102.9399 54.3748,103.2659 54.8528,103.2659 C54.9308,103.2659 55.0058,103.2589 55.0758,103.2429 C55.6228,103.1209 55.9668,102.5759 55.8448,102.0299 C54.6498,96.6839 53.6728,90.5499 52.9418,83.7979 C52.8128,82.6589 52.6898,81.4899 52.5668,80.2249 L52.5268,79.8169 L52.7878,80.1349 C54.7218,82.4869 57.6518,85.4999 60.6188,86.4879 C60.8238,86.5559 61.0588,86.5559 61.2618,86.4879 C64.2308,85.4999 67.1598,82.4879 69.0928,80.1349 L69.3538,79.8189 L69.3138,80.2259 C69.0438,83.0419 68.7338,85.7929 68.3948,88.3999 C67.6918,93.6499 66.9208,98.1079 66.0368,102.0279 C65.9768,102.2929 66.0238,102.5639 66.1688,102.7939 C66.3138,103.0219 66.5398,103.1809 66.8048,103.2409 C66.8748,103.2579 66.9488,103.2659 67.0288,103.2659 C67.5068,103.2659 67.9148,102.9399 68.0188,102.4739 C68.9168,98.4989 69.6988,93.9819 70.4108,88.6659 C70.9428,84.5689 71.3858,80.3249 71.6928,76.3929 C72.1388,70.9659 72.3348,66.5989 72.4108,64.4799 L72.4168,64.3199 L72.5708,64.3649 L77.3398,65.7699 L77.3728,65.8679 C77.3938,66.0099 77.4288,66.1199 77.4828,66.2239 L81.0908,77.6389 L77.6808,81.0479 L76.8778,80.2449 C76.6858,80.0519 76.4308,79.9469 76.1598,79.9469 L76.1588,79.9469 C75.8868,79.9469 75.6318,80.0519 75.4418,80.2439 C75.2488,80.4369 75.1418,80.6919 75.1428,80.9639 C75.1428,81.2339 75.2488,81.4889 75.4408,81.6789 L79.5578,85.7959 L79.5068,85.9329 C78.4198,89.0139 74.7878,99.2719 73.6998,101.8579 C73.5938,102.1069 73.5928,102.3839 73.6958,102.6349 C73.7988,102.8849 73.9928,103.0819 74.2438,103.1869 C74.3698,103.2399 74.5028,103.2669 74.6358,103.2669 C75.0468,103.2669 75.4148,103.0229 75.5738,102.6439 C76.5978,100.2119 79.6788,91.5539 81.4238,86.6099 C81.5958,86.1259 81.6888,85.8449 81.6898,85.8449 C81.8098,85.4839 81.7138,85.0769 81.4428,84.8069 L79.1178,82.4829 L82.9648,78.6379 C83.2348,78.3709 83.3308,77.9789 83.2148,77.6159 L80.1288,67.8429 L80.3958,67.9819 C82.4338,69.0399 84.3518,69.9909 86.2998,70.9529 L86.3308,70.9679 C90.0688,72.8169 93.2988,74.4139 94.1858,75.3499 C94.2088,75.3759 94.2328,75.3969 94.2578,75.4189 L94.3028,75.4689 C94.6578,75.9009 95.3298,77.0079 96.0418,79.7019 C96.1578,80.1469 96.5608,80.4579 97.0228,80.4579 C97.1118,80.4579 97.1998,80.4459 97.2828,80.4239 C97.8238,80.2809 98.1488,79.7239 98.0068,79.1829 L98.0068,79.1829 Z" id="Fill-14" fill="#343852"></path>
        <path d="M86.7802,67.8245 C75.3572,67.8245 66.0972,77.0845 66.0972,88.5075 C66.0972,99.9305 75.3572,109.1905 86.7802,109.1905 C98.2032,109.1905 107.4632,99.9305 107.4632,88.5075 C107.4632,77.0845 98.2032,67.8245 86.7802,67.8245" id="Fill-15" fill="#FFFFFF"></path>
        <path d="M86.6763,68.6168 C75.7653,68.6168 66.8883,77.4928 66.8883,88.4038 C66.8883,99.3148 75.7653,108.1908 86.6763,108.1908 C97.5873,108.1908 106.4633,99.3148 106.4633,88.4038 C106.4633,77.4928 97.5873,68.6168 86.6763,68.6168 M86.6763,110.1908 C74.6623,110.1908 64.8883,100.4178 64.8883,88.4038 C64.8883,76.3898 74.6623,66.6168 86.6763,66.6168 C98.6903,66.6168 108.4633,76.3898 108.4633,88.4038 C108.4633,100.4178 98.6903,110.1908 86.6763,110.1908" id="Fill-16" fill="#343852"></path>
        <path d="M87.3022,77.6036 C87.5992,77.6036 87.8582,77.5876 88.0812,77.5546 C88.0892,77.5546 88.0972,77.5496 88.1062,77.5496 C88.2752,77.5256 88.4232,77.4926 88.5592,77.4556 C88.5672,77.4556 88.5752,77.4516 88.5842,77.4516 C89.2352,77.2656 89.5972,76.9526 90.1832,76.7096 C90.1872,76.7056 90.1912,76.7056 90.1952,76.7016 C90.5742,76.5486 91.0442,76.4206 91.7442,76.3796 C91.9012,76.3716 92.0662,76.3676 92.2472,76.3676 C92.5032,76.3676 92.7462,76.3876 92.9722,76.4246 C94.6662,76.6926 95.6722,77.9046 96.1042,79.2556 C96.1292,79.3216 96.1502,79.3876 96.1662,79.4536 C96.1872,79.5196 96.2032,79.5856 96.2202,79.6556 C96.2362,79.7216 96.2532,79.7916 96.2652,79.8616 C96.2772,79.9316 96.2902,79.9976 96.3022,80.0676 C96.3472,80.3486 96.3682,80.6286 96.3682,80.9006 C96.3682,81.7496 96.2812,82.5406 96.1412,83.2826 C96.1332,83.3196 96.1252,83.3566 96.1172,83.3936 C96.1002,83.4796 96.0842,83.5626 96.0632,83.6486 C95.9852,84.0076 95.8942,84.3576 95.7952,84.6916 C95.0992,87.0326 94.0112,88.7796 93.9042,90.1636 C93.9002,90.2346 93.8952,90.3086 93.8952,90.3786 C93.8952,91.1156 94.0602,91.8536 94.0932,93.7736 C94.0972,94.0006 94.1012,94.2396 94.1012,94.4996 C94.1012,94.5606 94.1012,94.6316 94.0972,94.7016 C94.0772,95.2076 93.9822,95.9376 93.8092,96.7166 C93.3932,98.6286 92.5232,100.8706 91.2092,101.0806 C91.1432,101.0886 91.0772,101.0926 91.0112,101.0926 C90.9452,101.0926 90.8832,101.0806 90.8292,101.0596 C90.8252,101.0596 90.8172,101.0556 90.8132,101.0516 C90.3062,100.8416 90.2812,99.7656 90.3682,98.5706 C90.4462,97.5526 90.5992,96.4526 90.5992,95.7356 C90.5992,94.0876 89.7752,90.7906 87.3022,90.7906 C84.8292,90.7906 84.0052,94.0876 84.0052,95.7356 C84.0052,96.4526 84.1582,97.5526 84.2362,98.5706 C84.3312,99.9056 84.2942,101.0926 83.5932,101.0926 C82.1672,101.0926 81.2362,98.7236 80.7952,96.7166 C80.5972,95.8266 80.5032,95.0066 80.5032,94.4996 C80.5032,92.0266 80.7092,91.2026 80.7092,90.3786 C80.7092,88.7216 79.1142,86.5376 78.4872,83.3936 C78.3312,82.6226 78.2362,81.7946 78.2362,80.9006 C78.2362,78.8396 79.4722,76.3676 82.3572,76.3676 C85.2422,76.3676 84.8292,77.6036 87.3022,77.6036" id="Fill-17" fill="#EDEEF3"></path>
        <path d="M82.3569,77.3678 C79.8879,77.3678 79.2359,79.6788 79.2359,80.8998 C79.2359,81.6798 79.3119,82.4298 79.4669,83.1928 C79.7609,84.6688 80.2879,85.9348 80.7529,87.0518 C81.2649,88.2838 81.7089,89.3478 81.7089,90.3788 C81.7089,90.7078 81.6799,91.0378 81.6419,91.4558 C81.5829,92.0978 81.5029,92.9778 81.5029,94.4998 C81.5029,94.8818 81.5729,95.6078 81.7719,96.4998 C82.1909,98.4108 82.8099,99.5248 83.2599,99.9248 C83.2799,99.6748 83.2839,99.2748 83.2389,98.6418 C83.2109,98.2818 83.1719,97.9058 83.1359,97.5408 C83.0689,96.8718 83.0049,96.2398 83.0049,95.7358 C83.0049,93.4368 84.1719,89.7908 87.3019,89.7908 C90.4319,89.7908 91.5989,93.4368 91.5989,95.7358 C91.5989,96.2398 91.5359,96.8718 91.4679,97.5408 C91.4319,97.9058 91.3939,98.2818 91.3659,98.6468 C91.3209,99.2708 91.3249,99.6678 91.3449,99.9168 C91.8449,99.4878 92.4409,98.3038 92.8319,96.5038 C92.9789,95.8418 93.0779,95.1538 93.0979,94.6608 L93.1019,94.4998 C93.1019,94.2788 93.0979,94.0728 93.0949,93.8778 C93.0749,92.6908 93.0119,92.0038 92.9619,91.4518 C92.9239,91.0358 92.8959,90.7068 92.8959,90.3788 C92.8959,90.2898 92.9009,90.1968 92.9059,90.1078 C92.9799,89.1448 93.3849,88.1718 93.8539,87.0438 C94.1799,86.2618 94.5489,85.3738 94.8369,84.4068 C94.9279,84.0968 95.0129,83.7698 95.0859,83.4358 L95.1339,83.2058 L96.1409,83.2818 L95.1589,83.0958 C95.2999,82.3498 95.3689,81.6328 95.3689,80.8998 C95.3689,80.6808 95.3509,80.4528 95.3149,80.2258 L95.2109,79.7488 C95.2039,79.7298 95.1579,79.5808 95.1519,79.5608 C94.9269,78.8608 94.3269,77.6518 92.8159,77.4128 C92.4839,77.3598 92.1059,77.3648 91.7949,77.3788 C91.2199,77.4118 90.8699,77.5138 90.6279,77.6048 C90.6079,77.6148 90.5869,77.6248 90.5659,77.6338 C90.3669,77.7168 90.1989,77.8098 90.0319,77.9008 C89.7139,78.0748 89.3539,78.2718 88.8559,78.4128 C88.8339,78.4198 88.8109,78.4248 88.7879,78.4298 C88.6279,78.4718 88.4519,78.5098 88.2539,78.5398 L88.2529,78.5398 C88.2459,78.5408 88.2369,78.5418 88.2289,78.5438 C87.9549,78.5848 87.6519,78.6038 87.3019,78.6038 C85.8579,78.6038 85.1729,78.2288 84.5689,77.8988 C84.0479,77.6138 83.5989,77.3678 82.3569,77.3678 M91.0109,102.0928 C90.8249,102.0928 90.6429,102.0588 90.4729,101.9948 L90.4729,101.9938 C90.4459,101.9828 90.4179,101.9718 90.3909,101.9588 C89.2549,101.4528 89.2689,99.9088 89.3719,98.4988 C89.4009,98.1138 89.4399,97.7218 89.4779,97.3418 C89.5409,96.7228 89.5989,96.1398 89.5989,95.7358 C89.5989,94.6818 89.0549,91.7908 87.3019,91.7908 C85.5489,91.7908 85.0049,94.6818 85.0049,95.7358 C85.0049,96.1398 85.0639,96.7228 85.1269,97.3418 C85.1649,97.7218 85.2039,98.1138 85.2329,98.4948 C85.3349,99.9138 85.2819,100.9838 84.6949,101.6148 C84.4089,101.9228 84.0169,102.0928 83.5929,102.0928 C81.2949,102.0928 80.2419,98.8578 79.8189,96.9308 C79.6209,96.0428 79.5029,95.1328 79.5029,94.4998 C79.5029,92.8868 79.5869,91.9538 79.6499,91.2728 C79.6819,90.9268 79.7089,90.6518 79.7089,90.3788 C79.7089,89.7478 79.3359,88.8538 78.9059,87.8198 C78.4299,86.6768 77.8379,85.2548 77.5069,83.5888 C77.3279,82.7088 77.2359,81.8028 77.2359,80.8998 C77.2359,78.1508 78.9949,75.3678 82.3569,75.3678 C84.1109,75.3678 84.8969,75.7988 85.5299,76.1438 C86.0169,76.4118 86.3699,76.6038 87.3019,76.6038 C87.5419,76.6038 87.7519,76.5928 87.9309,76.5658 C87.9399,76.5638 87.9489,76.5628 87.9579,76.5608 C88.0839,76.5428 88.1939,76.5188 88.2949,76.4908 C88.3109,76.4868 88.3279,76.4828 88.3429,76.4788 C88.6089,76.3998 88.8139,76.2878 89.0719,76.1458 C89.2779,76.0338 89.4879,75.9208 89.7279,75.8158 C89.7589,75.8008 89.7909,75.7858 89.8229,75.7728 C90.3849,75.5478 90.9769,75.4228 91.6859,75.3818 C92.1409,75.3568 92.6579,75.3608 93.1339,75.4378 C95.0039,75.7338 96.4359,77.0148 97.0559,78.9518 C97.0769,78.9988 97.1099,79.1038 97.1359,79.2078 C97.1489,79.2468 97.1709,79.3328 97.1939,79.4268 C97.2149,79.5178 97.2339,79.6008 97.2499,79.6838 L97.2869,79.8898 C97.3419,80.2368 97.3689,80.5698 97.3689,80.8998 C97.3689,81.7598 97.2889,82.5988 97.1239,83.4688 L97.0889,83.6238 C97.0799,83.6818 97.0599,83.7778 97.0369,83.8788 C96.9569,84.2448 96.8599,84.6188 96.7539,84.9748 C96.4359,86.0458 96.0449,86.9838 95.7009,87.8118 C95.2969,88.7808 94.9489,89.6188 94.9009,90.2408 L94.8959,90.3788 C94.8959,90.6518 94.9219,90.9248 94.9539,91.2708 C95.0039,91.8248 95.0729,92.5838 95.0929,93.7568 C95.0979,94.0488 95.1019,94.2658 95.1019,94.4998 C95.1019,94.5828 95.1009,94.6778 95.0939,94.7708 C95.0719,95.3548 94.9589,96.1538 94.7859,96.9328 C94.3999,98.7058 93.4419,101.7348 91.3669,102.0678 C91.2219,102.0868 91.1159,102.0928 91.0109,102.0928" id="Fill-18" fill="#343852"></path>
        <polygon id="Fill-19" fill="#D20050" points="21.8134 48.8607 26.5044 48.8607 26.8954 43.7787 33.2484 43.7787 33.2484 48.4437 38.3304 48.8607 38.3304 54.8097 33.2484 55.2137 33.2484 60.2957 26.8474 59.8877 26.8954 55.2137 21.6074 55.2027"></polygon>
        <path d="M25.6388,61.2169 L33.7898,61.2169 L33.7898,56.1349 L38.8728,56.1349 L38.8728,47.9819 L33.7898,47.9819 L33.7898,42.8999 L25.6388,42.8999 L25.6388,47.9819 L20.5558,47.9819 L20.5558,56.1349 L25.6388,56.1349 L25.6388,61.2169 Z M22.3548,54.3349 L22.3548,49.7809 L27.4378,49.7809 L27.4378,44.6989 L31.9918,44.6989 L31.9918,49.7809 L37.0728,49.7809 L37.0728,54.3349 L31.9918,54.3349 L31.9918,59.4179 L27.4378,59.4179 L27.4378,54.3349 L22.3548,54.3349 Z" id="Fill-20" fill="#343852"></path>
    </g>
</svg>