<?xml version="1.0" encoding="UTF-8"?>
<svg width="120px" height="120px" viewBox="0 0 120 120" version="1.1" xmlns="http://www.w3.org/2000/svg" xmlns:xlink="http://www.w3.org/1999/xlink">
    <title>02.Icons/Illustrative/Cible Officine</title>
    <g id="02.Icons/Illustrative/Cible-Officine" stroke="none" stroke-width="1" fill="none" fill-rule="evenodd">
        <path d="M91.1685,58.0502 C91.1685,75.8562 76.7335,90.2912 58.9275,90.2912 C41.1225,90.2912 26.6875,75.8562 26.6875,58.0502 C26.6875,40.2442 41.1225,25.8092 58.9275,25.8092 C76.7335,25.8092 91.1685,40.2442 91.1685,58.0502" id="Fill-1" fill="#F2F3F7"></path>
        <path d="M37.8184,69.1222 L36.9204,68.4422 L36.4244,68.0762 C35.7614,67.5802 35.3784,66.8042 35.3784,65.9852 L35.3784,64.6782 L21.4354,64.6782 L21.4354,65.9852 C21.4354,66.8042 21.0524,67.5802 20.3894,68.0762 L18.9954,69.1222 C18.3334,69.6192 17.9494,70.3942 17.9494,71.2132 L17.9494,72.5212 L21.4354,72.5212 L33.6354,72.5212 L33.6354,73.6012 L33.6354,84.7212 L21.4354,84.7212 L18.2024,84.7212 L17.9494,84.7212 L17.9494,87.3352 C17.9494,88.7812 19.1174,89.9492 20.5644,89.9492 L36.2494,89.9492 C37.6964,89.9492 38.8644,88.7812 38.8644,87.3352 L38.8644,71.2132 C38.8644,70.3942 38.4804,69.6192 37.8184,69.1222" id="Fill-3" fill="#F2F3F7"></path>
        <polygon id="Fill-5" fill="#FFFFFF" points="21.4355 72.5207 17.9495 72.5207 17.9495 76.0067 17.9495 81.2177 17.9495 84.7207 18.2025 84.7207 21.4355 84.7207 33.6355 84.7207 33.6355 73.6017 33.6355 72.5207"></polygon>
        <polygon id="Fill-7" fill="#D20050" points="36.2498 58.8773 36.2498 64.6783 35.3788 64.6783 21.4358 64.6783 20.5638 64.6783 20.5638 58.8773 25.7928 58.8773"></polygon>
        <path d="M33.6357,85.6714 L21.4357,85.6714 C20.9107,85.6714 20.4857,85.2454 20.4857,84.7214 C20.4857,84.1964 20.9107,83.7714 21.4357,83.7714 L32.6857,83.7714 L32.6857,73.4714 L21.4357,73.4714 C20.9107,73.4714 20.4857,73.0454 20.4857,72.5214 C20.4857,71.9964 20.9107,71.5704 21.4357,71.5704 L33.6357,71.5704 C34.1597,71.5704 34.5857,71.9964 34.5857,72.5214 L34.5857,84.7214 C34.5857,85.2454 34.1597,85.6714 33.6357,85.6714" id="Fill-9" fill="#969CBB"></path>
        <path d="M91.9053,73.813 L97.4343,70.631 C97.8913,70.369 98.4693,70.526 98.7313,70.981 C98.9933,71.435 98.8373,72.016 98.3823,72.278 L92.8523,75.459 C92.7033,75.545 92.5403,75.586 92.3803,75.586 C92.0513,75.586 91.7313,75.416 91.5553,75.11 C91.2943,74.656 91.4503,74.075 91.9053,73.813 L91.9053,73.813 Z M82.9433,46.656 L77.4143,49.838 C77.2643,49.924 77.1023,49.965 76.9413,49.965 C76.6123,49.965 76.2933,49.794 76.1173,49.489 C75.8553,49.035 76.0113,48.454 76.4673,48.192 L81.9963,45.009 C82.4523,44.749 83.0313,44.904 83.2933,45.359 C83.5543,45.813 83.3983,46.394 82.9433,46.656 L82.9433,46.656 Z M96.3543,37.122 L96.3543,31.645 C96.3543,31.121 96.7803,30.695 97.3043,30.695 C97.8293,30.695 98.2553,31.121 98.2553,31.645 L98.2553,37.122 C98.2553,37.646 97.8293,38.072 97.3043,38.072 C96.7803,38.072 96.3543,37.646 96.3543,37.122 L96.3543,37.122 Z M101.3373,74.009 L92.3793,79.183 L90.2713,77.966 L83.4203,73.887 L83.4203,63.666 L92.3793,58.493 L101.3373,63.666 L101.3373,74.009 Z M73.5103,46.429 L82.4693,41.255 L91.4283,46.429 L91.4283,56.773 L82.4693,61.946 L73.5103,56.773 L73.5103,46.429 Z M83.4203,29.219 L92.3793,24.046 L101.3373,29.219 L101.3373,39.563 L92.3793,44.736 L83.4203,39.563 L83.4203,29.219 Z M102.7613,40.934 C103.0553,40.765 103.2373,40.452 103.2373,40.112 L103.2373,28.67 C103.2373,28.331 103.0553,28.017 102.7613,27.848 L92.8533,22.127 C92.5603,21.958 92.1973,21.958 91.9043,22.127 L82.4613,27.579 L72.6093,22.119 C72.1483,21.865 71.5723,22.031 71.3173,22.489 C71.0633,22.948 71.2283,23.526 71.6873,23.781 L81.5193,29.23 L81.5193,39.611 L72.0863,45.058 C71.7923,45.227 71.6103,45.541 71.6103,45.88 L71.6103,56.848 L62.5853,62.059 C62.1303,62.321 61.9743,62.902 62.2373,63.356 C62.4133,63.661 62.7323,63.832 63.0603,63.832 C63.2213,63.832 63.3843,63.791 63.5343,63.704 L72.6253,58.455 L81.5193,63.59 L81.5193,73.429 L74.1753,77.669 C73.7193,77.931 73.5643,78.512 73.8273,78.966 C74.0893,79.419 74.6703,79.577 75.1243,79.314 L81.9713,75.362 C81.9803,75.367 81.9863,75.375 81.9953,75.38 L89.2343,79.56 L91.4283,80.867 L91.4283,90.231 C91.4283,90.755 91.8543,91.181 92.3793,91.181 C92.9033,91.181 93.3293,90.755 93.3293,90.231 L93.3293,80.827 L102.7613,75.38 C103.0553,75.211 103.2373,74.898 103.2373,74.558 L103.2373,63.117 C103.2373,62.777 103.0553,62.463 102.7613,62.294 L93.3293,56.848 L93.3293,46.38 L102.7613,40.934 Z" id="Fill-11" fill="#969CBB"></path>
        <path d="M72.5851,84.904 C71.9651,84.054 70.0751,81.8 67.6821,78.945 C64.2071,74.798 58.0221,67.929 57.2921,66.535 L57.2921,51.001 C59.6921,49.021 60.1181,48.381 60.1181,47.991 L60.1181,45.5 C60.1181,44.102 59.3221,43.3 57.9321,43.3 L51.1071,43.3 L50.5321,43.3 L43.7071,43.3 C42.3181,43.3 42.1451,44.102 42.1451,45.5 L42.1451,47.702 C42.1451,48.093 42.1491,48.733 44.5491,50.713 L44.6931,66.535 C43.9621,67.929 37.4331,74.798 33.9571,78.945 C31.5651,81.8 29.6751,84.054 29.0551,84.904 C27.2981,87.31 27.0341,91.111 28.4251,93.942 C29.7581,96.655 32.3391,98.149 35.6931,98.149 L50.5321,98.149 L51.1071,98.149 L65.9471,98.149 C69.3011,98.149 71.8821,96.655 73.2151,93.942 C74.6061,91.111 74.3411,87.31 72.5851,84.904" id="Fill-14" fill="#FFFFFF"></path>
        <path d="M70.6215,97.8201 L31.6315,97.8201 C31.6315,97.8201 28.5025,95.7741 27.9095,93.6351 C27.3165,91.4961 26.1575,87.9111 27.9095,85.9211 C29.6615,83.9301 33.1195,80.0001 33.1195,80.0001 C33.1195,80.0001 32.3185,79.4851 38.7305,79.4851 C45.1435,79.4851 48.5215,83.5971 54.7045,83.1151 C60.8885,82.6341 68.1025,79.4851 68.1025,79.4851 C68.1025,79.4851 72.4985,84.3441 73.2455,85.3741 C73.9915,86.4051 74.4555,89.3901 74.4555,91.6801 C74.4555,93.9701 70.6215,97.8201 70.6215,97.8201" id="Fill-16" fill="#1D71B8"></path>
        <path d="M72.9775,93.6675 C72.2455,95.1285 70.6395,96.8695 67.1565,96.8695 L51.3305,96.8695 L50.7165,96.8695 L34.8905,96.8695 C31.4075,96.8695 29.8015,95.1285 29.0695,93.6675 C27.9505,91.4385 28.1535,88.3515 29.5415,86.4885 C30.1605,85.6585 32.2545,83.2125 34.6795,80.3795 C34.6895,80.3685 34.6975,80.3585 34.7065,80.3475 C35.7355,80.1485 39.5225,79.5825 43.7075,81.0125 C45.2455,81.5375 46.4105,82.0185 47.4395,82.4415 C49.8805,83.4475 51.6445,84.1755 55.6575,84.3835 C55.8545,84.3945 56.0505,84.3985 56.2485,84.3985 C60.8455,84.3985 65.8475,81.7445 67.6395,80.6985 C69.9465,83.3925 71.9105,85.6905 72.5045,86.4875 C73.8935,88.3515 74.0965,91.4385 72.9775,93.6675 L72.9775,93.6675 Z M26.5765,88.9995 L20.5645,88.9995 C19.6465,88.9995 18.9005,88.2535 18.9005,87.3355 L18.9005,71.2135 C18.9005,70.6915 19.1485,70.1945 19.5655,69.8825 L20.9595,68.8365 C21.8525,68.1665 22.3855,67.1005 22.3855,65.9845 L22.3855,65.6285 L34.4275,65.6285 L34.4275,65.9845 C34.4275,67.1005 34.9605,68.1665 35.8605,68.8415 L37.2485,69.8835 C37.6645,70.1945 37.9145,70.6925 37.9145,71.2135 L37.9145,73.6515 C36.2835,75.5835 34.5975,77.5535 33.2365,79.1445 C30.6875,82.1205 28.6755,84.4725 28.0185,85.3535 C27.2555,86.3765 26.7825,87.6535 26.5765,88.9995 L26.5765,88.9995 Z M21.5145,63.7275 L35.2995,63.7275 L35.2995,59.8275 L21.5145,59.8275 L21.5145,63.7275 Z M45.8265,66.2165 L45.8265,51.1925 C45.8265,50.8995 45.6915,50.6235 45.4595,50.4435 C44.5015,49.6965 43.5345,48.8145 43.2665,48.4535 L43.2665,44.0455 C43.2665,43.9915 43.2685,43.9485 43.2715,43.9155 C43.3125,43.9115 43.3665,43.9085 43.4375,43.9085 L50.7165,43.9085 L51.3305,43.9085 L58.6095,43.9085 C58.6805,43.9085 58.7345,43.9115 58.7755,43.9155 C58.7785,43.9485 58.7805,43.9915 58.7805,44.0455 L58.7805,48.4535 C58.5125,48.8135 57.5445,49.6955 56.5865,50.4435 C56.3555,50.6235 56.2205,50.8995 56.2205,51.1925 L56.2205,66.2165 C56.2205,67.0695 57.6035,68.9535 66.3785,79.2225 C64.4335,80.3135 59.7265,82.6775 55.7565,82.4865 C52.0685,82.2945 50.5145,81.6545 48.1635,80.6855 C47.1095,80.2515 45.9155,79.7595 44.3235,79.2145 C41.2895,78.1775 38.4665,78.0825 36.5345,78.2085 C44.5485,68.8125 45.8265,67.0405 45.8265,66.2165 L45.8265,66.2165 Z M74.0285,85.3525 C73.3715,84.4725 71.3595,82.1205 68.8105,79.1445 C65.0385,74.7365 58.7705,67.4145 58.1215,66.0785 L58.1215,51.6525 C60.6805,49.6035 60.6805,48.9775 60.6805,48.6345 L60.6805,44.0455 C60.6805,43.2845 60.4115,42.0085 58.6095,42.0085 L51.3305,42.0085 L50.7165,42.0085 L43.4375,42.0085 C41.6355,42.0085 41.3665,43.2845 41.3665,44.0455 L41.3665,48.6345 C41.3665,48.9775 41.3665,49.6035 43.9255,51.6525 L43.9255,66.0785 C43.6045,66.7395 41.9045,68.8695 39.8145,71.3845 L39.8145,71.2135 C39.8145,70.0975 39.2815,69.0315 38.3915,68.3655 L36.9945,67.3165 C36.5775,67.0035 36.3285,66.5055 36.3285,65.9845 L36.3285,65.6125 C36.8145,65.5705 37.2005,65.1745 37.2005,64.6785 L37.2005,58.8775 C37.2005,58.3535 36.7745,57.9275 36.2495,57.9275 L20.5645,57.9275 C20.0395,57.9275 19.6145,58.3535 19.6145,58.8775 L19.6145,64.6785 C19.6145,65.1745 19.9995,65.5705 20.4855,65.6125 L20.4855,65.9845 C20.4855,66.5055 20.2365,67.0035 19.8195,67.3165 L18.4255,68.3615 C17.5335,69.0305 16.9995,70.0975 16.9995,71.2135 L16.9995,87.3355 C16.9995,89.3015 18.5985,90.8995 20.5645,90.8995 L26.4635,90.8995 C26.5205,92.1605 26.8155,93.4135 27.3715,94.5205 C28.7465,97.2605 31.4165,98.7705 34.8905,98.7705 L50.7165,98.7705 L51.3305,98.7705 L67.1565,98.7705 C70.6295,98.7705 73.3005,97.2605 74.6755,94.5205 C76.1185,91.6465 75.8455,87.7905 74.0285,85.3525 L74.0285,85.3525 Z" id="Fill-18" fill="#343852"></path>
        <path d="M51.0051,61.5101 C50.2481,61.5101 49.6341,62.1241 49.6341,62.8811 C49.6341,63.6391 50.2481,64.2531 51.0051,64.2531 C51.7621,64.2531 52.3761,63.6391 52.3761,62.8811 C52.3761,62.1241 51.7621,61.5101 51.0051,61.5101 M54.4441,68.2291 C53.9411,68.2291 53.5331,68.6371 53.5331,69.1401 C53.5331,69.6421 53.9411,70.0501 54.4441,70.0501 C54.9461,70.0501 55.3541,69.6421 55.3541,69.1401 C55.3541,68.6371 54.9461,68.2291 54.4441,68.2291 M51.7171,75.0231 C51.7171,76.2881 50.6911,77.3141 49.4261,77.3141 C48.1611,77.3141 47.1351,76.2881 47.1351,75.0231 C47.1351,73.7581 48.1611,72.7321 49.4261,72.7321 C50.6911,72.7321 51.7171,73.7581 51.7171,75.0231" id="Fill-21" fill="#969CBB"></path>
    </g>
</svg>