<?xml version="1.0" encoding="UTF-8"?>
<svg width="120px" height="120px" viewBox="0 0 120 120" version="1.1" xmlns="http://www.w3.org/2000/svg" xmlns:xlink="http://www.w3.org/1999/xlink">
    <title>02.Icons/Illustrative/Cible Entrepreneur startup</title>
    <g id="02.Icons/Illustrative/Cible-Entrepreneur-startup" stroke="none" stroke-width="1" fill="none" fill-rule="evenodd">
        <path d="M91.8304,48.6296 C91.8304,31.1326 77.6474,16.9496 60.1504,16.9496 C42.6534,16.9496 28.4704,31.1326 28.4704,48.6296 C28.4704,66.1266 42.6534,80.3096 60.1504,80.3096 C77.6474,80.3096 91.8304,66.1266 91.8304,48.6296" id="Fill-1" fill="#F2F3F7"></path>
        <path d="M75.9904,60.1496 L69.3234,54.9526 C68.1994,62.8726 66.4574,66.8316 66.4574,66.8316 L68.7904,71.6696 L73.1104,75.9896 C76.6664,68.4296 75.9904,60.1496 75.9904,60.1496 M53.8434,66.8316 L51.5104,71.6696 L47.1904,75.9896 C43.6344,68.4296 44.3104,60.1496 44.3104,60.1496 L50.9774,54.9526 C52.1014,62.8726 53.8434,66.8316 53.8434,66.8316" id="Fill-3" fill="#1D71B8"></path>
        <path d="M55.8304,37.1096 C55.8304,39.5006 57.7594,41.4296 60.1504,41.4296 C62.5414,41.4296 64.4704,39.5006 64.4704,37.1096 C64.4704,34.7186 62.5414,32.7896 60.1504,32.7896 C57.7594,32.7896 55.8304,34.7186 55.8304,37.1096 M60.1504,47.1896 C62.1374,47.1896 63.7504,48.8026 63.7504,50.7896 C63.7504,52.7766 62.1374,54.3896 60.1504,54.3896 C58.1634,54.3896 56.5504,52.7766 56.5504,50.7896 C56.5504,48.8026 58.1634,47.1896 60.1504,47.1896" id="Fill-5" fill="#FFFFFF"></path>
        <path d="M60.1504,16.9496 C60.1504,16.9496 63.4484,19.2826 66.2704,24.4956 C64.5424,26.1806 62.3544,27.0156 60.1504,27.0296 C57.9464,27.0156 55.7584,26.1806 54.0304,24.4956 C56.8524,19.2826 60.1504,16.9496 60.1504,16.9496" id="Fill-7" fill="#D20050"></path>
        <path d="M63.7504,50.7896 C63.7504,48.8026 62.1374,47.1896 60.1504,47.1896 C58.1634,47.1896 56.5504,48.8026 56.5504,50.7896 C56.5504,52.7766 58.1634,54.3896 60.1504,54.3896 C62.1374,54.3896 63.7504,52.7766 63.7504,50.7896 M64.4704,37.1096 C64.4704,34.7186 62.5414,32.7896 60.1504,32.7896 C57.7594,32.7896 55.8304,34.7186 55.8304,37.1096 C55.8304,39.5006 57.7594,41.4296 60.1504,41.4296 C62.5414,41.4296 64.4704,39.5006 64.4704,37.1096 M60.1504,68.7896 C57.9464,68.7896 55.7444,68.1276 53.8434,66.8316 C53.8434,66.8316 52.1014,62.8726 50.9774,54.9526 C50.4584,51.2366 50.0704,46.6426 50.0704,41.1706 C50.0704,33.8556 51.9144,28.3686 54.0304,24.4956 C55.7584,26.1806 57.9464,27.0156 60.1504,27.0296 C62.3544,27.0156 64.5424,26.1806 66.2704,24.4956 C68.3864,28.3686 70.2304,33.8556 70.2304,41.1706 C70.2304,46.6426 69.8424,51.2366 69.3234,54.9526 C68.1994,62.8726 66.4574,66.8316 66.4574,66.8316 C64.5564,68.1276 62.3544,68.7896 60.1504,68.7896" id="Fill-9" fill="#EDEEF3"></path>
        <path d="M65.6875,66.2023 C64.2945,67.0993 62.7125,67.5983 61.1005,67.7453 L61.1005,60.1493 C61.1005,59.6253 60.6755,59.1993 60.1505,59.1993 C59.6255,59.1993 59.2005,59.6253 59.2005,60.1493 L59.2005,67.7453 C57.5885,67.5983 56.0065,67.0983 54.6125,66.2023 C54.2305,65.2283 52.8525,61.4033 51.9185,54.8203 C51.3225,50.5553 51.0205,45.9623 51.0205,41.1713 C51.0205,35.5233 52.1455,30.4313 54.3385,25.9973 C56.0185,27.2643 58.0375,27.9663 60.1565,27.9793 C62.2655,27.9663 64.2825,27.2643 65.9625,25.9973 C68.1555,30.4303 69.2805,35.5223 69.2805,41.1713 C69.2805,45.9583 68.9785,50.5513 68.3825,54.8183 C67.4495,61.4033 66.0695,65.2283 65.6875,66.2023 M60.1505,18.1693 C61.1075,18.9943 63.1575,21.0023 65.0605,24.2993 C63.6605,25.4403 61.9425,26.0683 60.1565,26.0793 C58.3595,26.0683 56.6395,25.4403 55.2395,24.2993 C57.1425,21.0023 59.1935,18.9953 60.1505,18.1693 M76.9375,60.0723 C76.9155,59.8073 76.7845,59.5633 76.5745,59.4003 L70.3295,54.5323 C70.8895,50.3313 71.1805,45.8443 71.1805,41.1713 C71.1805,34.7543 69.8085,28.9903 67.1055,24.0433 C64.2105,18.6963 60.8415,16.2743 60.6995,16.1743 C60.3705,15.9413 59.9305,15.9413 59.6015,16.1743 C59.4595,16.2743 56.0895,18.6963 53.1965,24.0403 C50.4915,28.9903 49.1205,34.7543 49.1205,41.1713 C49.1205,45.8473 49.4115,50.3333 49.9705,54.5333 L43.7265,59.4003 C43.5175,59.5633 43.3855,59.8073 43.3635,60.0723 C43.3355,60.4213 42.7085,68.6933 46.3315,76.3933 C46.4625,76.6743 46.7225,76.8723 47.0265,76.9253 C47.0815,76.9343 47.1365,76.9393 47.1905,76.9393 C47.4405,76.9393 47.6825,76.8413 47.8625,76.6613 L52.1825,72.3413 C52.5535,71.9703 52.5535,71.3683 52.1825,70.9973 C51.8115,70.6263 51.2095,70.6263 50.8385,70.9973 L47.5025,74.3333 C45.0965,68.3953 45.1665,62.2473 45.2355,60.6333 L50.2835,56.6973 C51.4015,63.5823 52.9055,67.0593 52.9735,67.2153 C53.0455,67.3783 53.1615,67.5163 53.3085,67.6173 C55.0805,68.8243 57.1005,69.5353 59.2005,69.7003 L59.2005,75.9893 C59.2005,76.5143 59.6255,76.9393 60.1505,76.9393 C60.6755,76.9393 61.1005,76.5143 61.1005,75.9893 L61.1005,69.7003 C63.2005,69.5353 65.2205,68.8243 66.9925,67.6173 C67.1385,67.5163 67.2545,67.3783 67.3265,67.2153 C67.3945,67.0593 68.8995,63.5823 70.0175,56.6973 L75.0655,60.6333 C75.1335,62.2473 75.2055,68.3953 72.7975,74.3333 L69.4615,70.9973 C69.0905,70.6263 68.4895,70.6263 68.1185,70.9973 C67.7475,71.3683 67.7475,71.9703 68.1185,72.3413 L72.4385,76.6613 C72.6185,76.8413 72.8605,76.9393 73.1105,76.9393 C73.1655,76.9393 73.2195,76.9343 73.2735,76.9253 C73.5785,76.8723 73.8375,76.6743 73.9695,76.3933 C77.5925,68.6933 76.9655,60.4213 76.9375,60.0723 M60.1505,48.1403 C58.6885,48.1403 57.5005,49.3283 57.5005,50.7893 C57.5005,52.2513 58.6885,53.4393 60.1505,53.4393 C61.6115,53.4393 62.7995,52.2513 62.7995,50.7893 C62.7995,49.3283 61.6115,48.1403 60.1505,48.1403 M60.1505,55.3403 C57.6415,55.3403 55.6005,53.2983 55.6005,50.7893 C55.6005,48.2803 57.6415,46.2393 60.1505,46.2393 C62.6595,46.2393 64.7005,48.2803 64.7005,50.7893 C64.7005,53.2983 62.6595,55.3403 60.1505,55.3403 M60.1505,33.7393 C58.2925,33.7393 56.7805,35.2513 56.7805,37.1093 C56.7805,38.9683 58.2925,40.4793 60.1505,40.4793 C62.0085,40.4793 63.5205,38.9683 63.5205,37.1093 C63.5205,35.2513 62.0085,33.7393 60.1505,33.7393 M60.1505,42.3803 C57.2445,42.3803 54.8805,40.0153 54.8805,37.1093 C54.8805,34.2033 57.2445,31.8393 60.1505,31.8393 C63.0565,31.8393 65.4205,34.2033 65.4205,37.1093 C65.4205,40.0153 63.0565,42.3803 60.1505,42.3803" id="Fill-11" fill="#343852"></path>
        <path d="M49.5034,88.5754 C48.2294,85.6014 45.3424,83.6794 42.1504,83.6794 C41.1944,83.6794 40.2724,83.8524 39.3954,84.1814 C36.8054,81.1594 33.0224,79.3594 29.1044,79.3594 C28.3844,79.3594 27.6284,79.4254 26.7904,79.5584 C21.7904,80.3824 17.6744,83.8634 16.0504,88.6434 C15.8814,89.1404 16.1484,89.6794 16.6444,89.8484 C16.7464,89.8834 16.8494,89.8994 16.9504,89.8994 C17.3464,89.8994 17.7154,89.6504 17.8494,89.2554 C19.2484,85.1394 22.7924,82.1424 27.0954,81.4344 C27.8284,81.3164 28.4854,81.2604 29.1044,81.2604 C32.3254,81.2604 35.4484,82.6774 37.6674,85.0824 C36.4034,85.9494 35.4014,87.1554 34.7964,88.5774 C34.5904,89.0604 34.8154,89.6184 35.2984,89.8234 C35.4204,89.8754 35.5454,89.8994 35.6704,89.8994 C36.0394,89.8994 36.3914,89.6824 36.5444,89.3214 C37.1284,87.9474 38.1934,86.8304 39.5424,86.1764 C40.3564,85.7804 41.2334,85.5804 42.1504,85.5804 C44.5814,85.5804 46.7824,87.0504 47.7574,89.3234 C47.9644,89.8054 48.5244,90.0314 49.0044,89.8224 C49.4864,89.6154 49.7104,89.0574 49.5034,88.5754 M29.4054,103.5154 C30.0224,100.0494 32.4444,97.2184 35.7244,96.1294 C39.0054,95.0414 42.5944,95.8704 45.0894,98.2864 C45.3634,98.5514 45.7704,98.6204 46.1214,98.4714 C46.2954,98.3974 46.4404,98.2734 46.5404,98.1214 C47.7374,96.5784 49.5904,95.6594 51.5104,95.6594 C53.4484,95.6594 55.3184,96.5964 56.5144,98.1664 C56.8334,98.5834 57.4284,98.6634 57.8464,98.3464 C58.2634,98.0274 58.3444,97.4314 58.0264,97.0134 C56.4734,94.9754 54.0374,93.7594 51.5104,93.7594 C49.3164,93.7594 47.1924,94.6764 45.6544,96.2514 C42.7064,93.8654 38.7614,93.1224 35.1264,94.3254 C31.1834,95.6344 28.2744,99.0284 27.5344,103.1834 C27.4424,103.7004 27.7874,104.1934 28.3034,104.2854 C28.3594,104.2954 28.4164,104.3004 28.4714,104.3004 C28.9224,104.3004 29.3234,103.9764 29.4054,103.5154 M104.2814,93.0774 C103.4254,88.9424 100.4874,85.5644 96.6154,84.2634 C93.0104,83.0364 88.6624,83.8134 85.6284,86.1124 C84.2404,84.2194 82.1984,82.8974 79.8814,82.4314 C76.6154,81.7614 73.1954,82.9034 70.9614,85.4084 C70.6114,85.8004 70.6464,86.4004 71.0374,86.7504 C71.4284,87.0974 72.0294,87.0654 72.3784,86.6744 C74.1654,84.6714 76.8984,83.7574 79.5034,84.2944 C81.6464,84.7244 83.4974,86.0674 84.5984,88.0074 C84.8174,88.3644 85.0044,88.7734 85.1714,89.2584 C85.3074,89.6524 85.6754,89.8994 86.0704,89.8994 C86.1724,89.8994 86.2764,89.8834 86.3784,89.8474 C86.8754,89.6774 87.1394,89.1374 86.9684,88.6404 C86.8594,88.3224 86.7404,88.0284 86.6134,87.7544 C89.1394,85.7514 92.9564,85.0234 96.0064,86.0624 C99.2444,87.1514 101.7024,89.9864 102.4204,93.4624 C102.5124,93.9114 102.9084,94.2204 103.3494,94.2204 C103.4134,94.2204 103.4784,94.2134 103.5434,94.2004 C104.0564,94.0944 104.3864,93.5914 104.2814,93.0774 M91.8714,104.2994 C92.3954,104.2764 92.8014,103.8324 92.7794,103.3084 C92.5894,98.9444 89.4144,95.1474 85.0604,94.0764 C81.2174,93.1194 77.2654,94.3634 74.7564,97.2064 C73.8214,95.6664 72.3224,94.5204 70.5284,94.0244 C68.1704,93.3754 65.6744,93.9374 63.8454,95.5364 C63.4504,95.8814 63.4104,96.4814 63.7554,96.8764 C64.1014,97.2714 64.7024,97.3114 65.0954,96.9664 C66.4424,95.7894 68.2814,95.3744 70.0214,95.8564 C71.7154,96.3244 73.0504,97.5754 73.6114,99.2154 C73.6674,99.5784 73.9284,99.8824 74.2904,99.9854 C74.6984,100.1004 75.1334,99.9324 75.3584,99.5724 C77.2424,96.5364 81.0384,95.0324 84.6044,95.9214 C88.1464,96.7924 90.7274,99.8644 90.8804,103.3904 C90.9034,103.9014 91.3234,104.3004 91.8294,104.3004 C91.8434,104.3004 91.8574,104.3004 91.8714,104.2994 M55.3404,86.0694 L55.3404,77.4294 C55.3404,76.9054 54.9154,76.4794 54.3904,76.4794 C53.8654,76.4794 53.4404,76.9054 53.4404,77.4294 L53.4404,86.0694 C53.4404,86.5944 53.8654,87.0194 54.3904,87.0194 C54.9154,87.0194 55.3404,86.5944 55.3404,86.0694 M66.8604,87.5104 L66.8604,75.9894 C66.8604,75.4654 66.4344,75.0394 65.9104,75.0394 C65.3854,75.0394 64.9604,75.4654 64.9604,75.9894 L64.9604,87.5104 C64.9604,88.0344 65.3854,88.4604 65.9104,88.4604 C66.4344,88.4604 66.8604,88.0344 66.8604,87.5104 M60.1504,89.8994 C59.6254,89.8994 59.2004,89.4734 59.2004,88.9494 L59.2004,83.1894 C59.2004,82.6654 59.6254,82.2394 60.1504,82.2394 C60.6754,82.2394 61.1004,82.6654 61.1004,83.1894 L61.1004,88.9494 C61.1004,89.4734 60.6754,89.8994 60.1504,89.8994" id="Fill-14" fill="#969CBB"></path>
    </g>
</svg>