<?xml version="1.0" encoding="UTF-8"?>
<svg width="120px" height="120px" viewBox="0 0 120 120" version="1.1" xmlns="http://www.w3.org/2000/svg" xmlns:xlink="http://www.w3.org/1999/xlink">
    <title>02.Icons/Illustrative/Déclarer une activité</title>
    <g id="02.Icons/Illustrative/Déclarer-une-activité" stroke="none" stroke-width="1" fill="none" fill-rule="evenodd">
        <path d="M77.283,47.1414 C77.283,66.5494 61.55,82.2834 42.141,82.2834 C22.733,82.2834 7,66.5494 7,47.1414 C7,27.7334 22.733,11.9994 42.141,11.9994 C61.55,11.9994 77.283,27.7334 77.283,47.1414" id="Fill-1" fill="#F2F3F7"></path>
        <path d="M34.0522,101.269 C33.9112,101.269 33.7702,101.241 33.6362,101.184 C33.2432,101.017 32.9892,100.632 32.9892,100.206 L32.9892,86.117 L28.6572,86.117 C25.5822,86.117 23.0782,83.607 23.0782,80.523 L23.0782,28.588 C23.0782,25.504 25.5822,22.994 28.6572,22.994 L85.4222,22.994 C88.4982,22.994 91.0022,25.504 91.0022,28.588 L91.0022,80.523 C91.0022,83.607 88.4982,86.117 85.4222,86.117 L50.2282,86.117 L34.7882,100.972 C34.5872,101.166 34.3222,101.269 34.0522,101.269" id="Fill-4" fill="#FFFFFF"></path>
        <path d="M68.721,80.5628 C68.721,70.7518 76.354,62.7438 86.002,62.1018 L86.002,27.9938 L30.628,27.9938 C29.226,27.9938 28.078,29.1418 28.078,30.5438 L28.078,78.5818 C28.078,79.9818 29.213,81.1168 30.614,81.1168 L37.989,81.1168 L37.989,88.2058 C37.989,88.6318 38.244,89.0168 38.636,89.1838 C38.77,89.2408 38.911,89.2688 39.052,89.2688 C39.322,89.2688 39.588,89.1658 39.789,88.9718 L47.725,81.1168 L68.749,81.1168 C68.743,80.9308 68.721,80.7498 68.721,80.5628" id="Fill-6" fill="#F2F3F7"></path>
        <path d="M73.5976,68.4467 L43.5696,68.4467 C42.2616,68.4467 41.1916,67.3767 41.1916,66.0687 L41.1916,53.7887 C41.1916,52.4807 42.2616,51.4107 43.5696,51.4107 L74.3866,51.4107 C75.6946,51.4107 76.7656,52.4807 76.7656,53.7887 L76.7656,65.2857 C76.7656,65.9377 75.6806,66.4287 75.2516,66.8597 C74.8196,67.2927 74.2536,68.4467 73.5976,68.4467" id="Fill-8" fill="#155891"></path>
        <path d="M75.2664,42.0832 L42.6954,42.0832 C41.0284,42.0832 39.6654,43.4472 39.6654,45.1132 L39.6654,51.6402 C39.6654,52.5962 40.1144,53.4502 40.8114,54.0072 C43.4984,56.8082 50.6184,58.8102 58.9814,58.8102 C67.3434,58.8102 74.4634,56.8082 77.1504,54.0072 C77.8474,53.4502 78.2964,52.5962 78.2964,51.6402 L78.2964,45.1132 C78.2964,43.4472 76.9334,42.0832 75.2664,42.0832" id="Fill-10" fill="#1D71B8"></path>
        <path d="M60.9051,54.1434 L56.9421,54.1434 C56.0851,54.1434 55.3841,54.7924 55.3841,55.5864 L55.3841,57.3734 C55.3841,57.3784 55.3861,57.3824 55.3861,57.3884 C55.3861,57.3994 55.3841,57.4094 55.3841,57.4204 L55.3841,59.5504 C55.3841,61.3534 56.9771,62.8274 58.9241,62.8274 C60.8701,62.8274 62.4631,61.3534 62.4631,59.5504 L62.4631,57.4204 C62.4631,57.4104 62.4621,57.4004 62.4621,57.3894 C62.4621,57.3834 62.4631,57.3784 62.4631,57.3734 L62.4631,55.5864 C62.4631,54.7924 61.7621,54.1434 60.9051,54.1434" id="Fill-12" fill="#DEE0EA"></path>
        <path d="M105.7692,80.5628 C105.7692,90.7938 97.4752,99.0868 87.2452,99.0868 C77.0142,99.0868 68.7212,90.7938 68.7212,80.5628 C68.7212,70.3318 77.0142,62.0388 87.2452,62.0388 C97.4752,62.0388 105.7692,70.3318 105.7692,80.5628" id="Fill-14" fill="#D20050"></path>
        <polygon id="Fill-16" fill="#FFFFFF" points="90.2298 77.3286 90.2298 70.8776 85.0698 70.8776 85.0698 77.3286 79.9088 77.3286 78.6188 77.3286 78.6188 82.4896 79.9088 82.4896 85.0698 82.4896 85.0698 88.9396 90.2298 88.9396 90.2298 82.4896 96.6808 82.4896 96.6808 77.3286"></polygon>
        <path d="M95.7302,81.5393 L90.2302,81.5393 C89.7062,81.5393 89.2802,81.9653 89.2802,82.4893 L89.2802,87.9893 L86.0192,87.9893 L86.0192,82.4893 C86.0192,81.9653 85.5932,81.5393 85.0692,81.5393 L79.5692,81.5393 L79.5692,78.2783 L85.0692,78.2783 C85.5932,78.2783 86.0192,77.8523 86.0192,77.3283 L86.0192,71.8283 L89.2802,71.8283 L89.2802,77.3283 C89.2802,77.8523 89.7062,78.2783 90.2302,78.2783 L95.7302,78.2783 L95.7302,81.5393 Z M96.6802,76.3783 L91.1802,76.3783 L91.1802,70.8783 C91.1802,70.3533 90.7542,69.9283 90.2302,69.9283 L85.0692,69.9283 C84.5442,69.9283 84.1192,70.3533 84.1192,70.8783 L84.1192,76.3783 L78.6192,76.3783 C78.0942,76.3783 77.6682,76.8043 77.6682,77.3283 L77.6682,82.4893 C77.6682,83.0143 78.0942,83.4393 78.6192,83.4393 L84.1192,83.4393 L84.1192,88.9393 C84.1192,89.4643 84.5442,89.8903 85.0692,89.8903 L90.2302,89.8903 C90.7542,89.8903 91.1802,89.4643 91.1802,88.9393 L91.1802,83.4393 L96.6802,83.4393 C97.2052,83.4393 97.6302,83.0143 97.6302,82.4893 L97.6302,77.3283 C97.6302,76.8043 97.2052,76.3783 96.6802,76.3783 L96.6802,76.3783 Z M87.2452,98.1373 C77.5542,98.1373 69.6702,90.2533 69.6702,80.5623 C69.6702,70.8723 77.5542,62.9883 87.2452,62.9883 C96.9352,62.9883 104.8192,70.8723 104.8192,80.5623 C104.8192,90.2533 96.9352,98.1373 87.2452,98.1373 L87.2452,98.1373 Z M60.5622,57.4333 L60.5632,57.4713 L60.5632,59.5503 C60.5632,60.2973 59.8122,60.9273 58.9242,60.9273 C58.0352,60.9273 57.2842,60.2973 57.2842,59.5503 L57.2842,57.4863 L57.2852,57.4633 L57.2852,57.3883 L57.2852,57.2403 L57.2842,57.2353 L57.2842,56.0433 L60.5632,56.0433 L60.5632,57.2303 L60.5582,57.2633 L60.5622,57.4333 Z M53.4852,42.0833 L53.4852,40.5743 C53.4852,39.7293 54.1722,39.0413 55.0182,39.0413 L62.8292,39.0413 C63.6742,39.0413 64.3622,39.7293 64.3622,40.5743 L64.3622,42.0833 L53.4852,42.0833 Z M75.2662,43.9833 C75.8792,43.9833 76.3972,44.5003 76.3972,45.1133 L76.3972,51.6403 C76.3972,51.9813 76.2392,52.3033 75.9652,52.5223 L75.8662,52.6013 L75.7792,52.6913 C74.1012,54.4413 69.3452,56.3023 62.4632,56.7863 L62.4632,55.5863 C62.4632,54.7923 61.7622,54.1433 60.9052,54.1433 L56.9422,54.1433 C56.0852,54.1433 55.3842,54.7923 55.3842,55.5863 L55.3842,56.7793 C48.5632,56.2823 43.8522,54.4323 42.1822,52.6913 L42.0952,52.6013 L41.9972,52.5223 C41.7222,52.3033 41.5652,51.9813 41.5652,51.6403 L41.5652,45.1133 C41.5652,44.5003 42.0832,43.9833 42.6952,43.9833 L75.2662,43.9833 Z M72.8462,67.4963 L43.6182,67.4963 C42.8032,67.4963 42.1412,66.8343 42.1412,66.0193 L42.1412,55.0913 C44.8872,56.9323 49.6912,58.2753 55.3842,58.6803 L55.3842,59.5503 C55.3842,61.3533 56.9772,62.8273 58.9242,62.8273 C60.8702,62.8273 62.4632,61.3533 62.4632,59.5503 L62.4632,58.6883 C68.2022,58.2943 73.0502,56.9463 75.8152,55.0953 L75.8152,64.8293 C74.7352,65.6163 73.7432,66.5093 72.8462,67.4963 L72.8462,67.4963 Z M49.7992,84.1033 C49.5532,84.1033 49.3182,84.1993 49.1402,84.3693 L35.0022,97.9743 L35.0022,85.0543 C35.0022,84.5293 34.5772,84.1033 34.0522,84.1033 L28.6582,84.1033 C26.6912,84.1033 25.0912,82.4973 25.0912,80.5223 L25.0912,28.5883 C25.0912,26.6133 26.6912,25.0073 28.6582,25.0073 L85.4222,25.0073 C87.3892,25.0073 88.9892,26.6133 88.9892,28.5883 L88.9892,61.1763 C88.4132,61.1253 87.8342,61.0883 87.2452,61.0883 C83.7832,61.0883 80.5352,62.0063 77.7152,63.5963 L77.7152,54.0503 C77.7152,53.8773 77.6572,53.7243 77.5762,53.5843 C78.0222,53.0563 78.2962,52.3813 78.2962,51.6403 L78.2962,45.1133 C78.2962,43.4473 76.9332,42.0833 75.2662,42.0833 L66.2622,42.0833 L66.2622,40.5743 C66.2622,38.6813 64.7222,37.1413 62.8292,37.1413 L55.0182,37.1413 C53.1252,37.1413 51.5842,38.6813 51.5842,40.5743 L51.5842,42.0833 L42.6952,42.0833 C41.0282,42.0833 39.6652,43.4473 39.6652,45.1133 L39.6652,51.6403 C39.6652,52.3593 39.9202,53.0213 40.3432,53.5413 C40.2822,53.6673 40.2412,53.8033 40.2412,53.9523 L40.2412,66.0193 C40.2412,67.8823 41.7552,69.3963 43.6182,69.3963 L71.3142,69.3963 C69.0892,72.5623 67.7702,76.4083 67.7702,80.5623 C67.7702,81.7733 67.8962,82.9533 68.1082,84.1033 L49.7992,84.1033 Z M90.8892,61.4423 L90.8892,28.5883 C90.8892,25.5663 88.4372,23.1073 85.4222,23.1073 L28.6582,23.1073 C25.6432,23.1073 23.1912,25.5663 23.1912,28.5883 L23.1912,80.5223 C23.1912,83.5453 25.6432,86.0043 28.6582,86.0043 L33.1022,86.0043 L33.1022,100.2063 C33.1022,100.5873 33.3302,100.9313 33.6802,101.0803 C33.8002,101.1313 33.9262,101.1563 34.0522,101.1563 C34.2932,101.1563 34.5312,101.0643 34.7112,100.8913 L50.1822,86.0043 L68.5592,86.0043 C70.9202,94.1003 78.3962,100.0373 87.2452,100.0373 C97.9832,100.0373 106.7192,91.3013 106.7192,80.5623 C106.7192,71.0713 99.8902,63.1553 90.8892,61.4423 L90.8892,61.4423 Z" id="Fill-18" fill="#343852"></path>
    </g>
</svg>