<?xml version="1.0" encoding="UTF-8"?>
<svg width="120px" height="120px" viewBox="0 0 120 120" version="1.1" xmlns="http://www.w3.org/2000/svg" xmlns:xlink="http://www.w3.org/1999/xlink">
    <title>02.Icons/Illustrative/01. Profils/Grands Publics</title>
    <g id="02.Icons/Illustrative/01.-Profils/Grands-Publics" stroke="none" stroke-width="1" fill="none" fill-rule="evenodd">
        <path d="M95.9691,58.0423 C95.9691,38.1513 79.8451,22.0273 59.9541,22.0273 C40.0641,22.0273 23.9401,38.1513 23.9401,58.0423 C23.9401,77.9333 40.0641,94.0573 59.9541,94.0573 C79.8451,94.0573 95.9691,77.9333 95.9691,58.0423" id="Fill-1" fill="#F2F3F7"></path>
        <path d="M64.3252,86.5432 C58.2362,90.7992 57.8752,95.4322 57.8752,97.0852 L68.0582,97.0852 C68.0582,97.0852 70.1042,95.1052 70.1042,91.9942 C70.1042,88.7842 69.7922,86.2972 69.5142,84.0382 L66.2572,85.3312 C65.5532,85.7242 64.9142,86.1342 64.3252,86.5432 L64.3252,86.5432 Z M104.7272,97.0852 C98.0152,97.0852 94.8882,93.4512 93.5132,87.8362 C93.1372,88.9152 91.4832,90.9792 91.4832,90.9792 C90.1742,92.7472 88.4222,94.1562 86.3922,95.0542 C84.3632,94.1562 82.6102,92.7472 81.3012,90.9792 C81.3012,90.9792 79.5172,88.5572 79.2882,87.8362 L79.2712,87.8362 C77.8962,93.4512 74.7692,97.0852 68.0582,97.0852 L104.7272,97.0852 Z M102.6812,91.9942 C102.6812,88.7202 103.4832,86.2652 104.2682,84.0382 L107.4612,85.8882 C114.5002,90.3082 114.9092,95.3502 114.9092,97.0852 L104.7272,97.0852 C104.7272,97.0852 102.6812,94.9232 102.6812,91.9942 L102.6812,91.9942 Z" id="Fill-3" fill="#1D71B8"></path>
        <path d="M36.1689,80.2077 L34.3189,97.0847 L42.4709,97.0847 L40.6209,80.2077 L36.1689,80.2077 Z M42.2579,75.9347 L40.6209,80.2077 L36.1689,80.2077 L34.5319,75.9347 L38.3949,71.3017 L42.2579,75.9347 Z" id="Fill-5" fill="#D20050"></path>
        <path d="M104.2686,84.0381 C105.0056,81.8941 105.7426,79.9791 105.7426,77.7341 C105.7426,73.1531 104.7276,68.6991 104.7276,65.5241 C104.7276,64.0661 104.5476,60.6451 103.8766,56.6181 C102.4186,47.7451 98.6376,35.9901 89.4536,35.9901 C86.1306,35.9901 84.3466,37.0071 84.3466,37.0071 C80.5316,35.9901 72.1336,39.7411 69.4656,54.6371 C69.3836,55.0781 69.2696,55.6031 69.1386,56.2081 C68.3686,59.7271 66.7806,65.8661 65.6356,72.6761 C64.8816,77.1961 64.3256,82.0091 64.3256,86.5431 C64.9146,86.1341 65.5526,85.7251 66.2576,85.3311 L69.5146,84.0381 C69.7926,86.2971 70.1046,88.7841 70.1046,91.9951 C70.1046,95.1051 68.0586,97.0851 68.0586,97.0851 C74.7696,97.0851 77.8966,93.4511 79.2716,87.8361 C80.0566,84.6601 80.2866,80.8451 80.2866,76.7211 L80.5646,72.4321 C79.6976,71.7601 78.8946,70.9421 78.1746,69.9921 C76.7336,68.1581 75.6536,65.8501 75.1626,63.2471 C75.1626,63.2471 72.1336,62.9691 72.1336,58.3861 C72.1336,57.5851 72.2486,56.9611 72.3966,56.5041 C72.4616,56.3401 72.5106,56.2081 72.5596,56.0951 C72.7396,55.6861 73.0996,55.3741 73.5256,55.2591 C75.6376,54.6691 80.7776,50.4791 81.3016,46.1741 C84.5586,50.5941 93.3666,54.8831 98.8016,55.2921 C98.8496,55.3091 98.8996,55.3091 98.9486,55.3091 C99.5216,55.3401 100.0286,55.7021 100.2586,56.2261 C100.3566,56.4711 100.4546,56.7491 100.5196,57.1091 C100.5856,57.4701 100.6346,57.8791 100.6346,58.3861 C100.6346,62.9691 97.6066,63.2471 97.6066,63.2471 C97.1156,65.8501 96.0346,68.1741 94.6106,70.0101 C93.9886,70.8111 93.3006,71.5321 92.5806,72.1361 L92.4986,76.7211 C92.4986,80.8451 92.7276,84.6601 93.5136,87.8361 C94.8886,93.4511 98.0156,97.0851 104.7276,97.0851 C104.7276,97.0851 102.6806,94.9231 102.6806,91.9951 C102.6806,88.7201 103.4826,86.2651 104.2686,84.0381" id="Fill-7" fill="#969CBB"></path>
        <path d="M53.9795,40.1501 C48.6915,40.1501 51.5235,30.1311 45.0745,30.1311 C41.7345,30.1311 40.4905,31.2441 38.3945,31.2441 C36.2995,31.2441 35.0555,30.1311 31.7155,30.1311 C25.2655,30.1311 28.0985,40.1501 22.8105,40.1501 C22.8105,40.1501 22.6795,40.2481 22.4995,40.4761 C21.6965,38.3501 21.6965,36.9081 21.6965,34.5831 C21.6965,28.0851 25.5925,24.5651 28.3765,23.4521 C30.1115,20.8811 32.8295,19.0001 38.3945,19.0001 C48.8235,19.0001 55.0925,23.2711 55.0925,33.6831 C55.0925,35.8271 55.0925,38.3501 54.2905,40.4761 C54.1105,40.2481 53.9795,40.1501 53.9795,40.1501" id="Fill-9" fill="#C5C8DA"></path>
        <path d="M54.2904,40.4762 C54.1104,40.2472 53.9794,40.1502 53.9794,40.1502 C48.6924,40.1502 51.5244,30.1312 45.0744,30.1312 C41.7344,30.1312 40.4904,31.2442 38.3954,31.2442 C36.2994,31.2442 35.0554,30.1312 31.7154,30.1312 C25.2664,30.1312 28.0984,40.1502 22.8104,40.1502 C22.8104,40.1502 22.6794,40.2472 22.4994,40.4762 C22.1714,40.9012 21.6974,41.8032 21.6974,43.4882 C21.6974,48.4982 25.2494,48.7922 25.2494,48.7922 C25.7734,51.4122 26.7394,54.0152 28.3764,56.1112 C28.7034,56.5522 29.0804,56.9772 29.4894,57.3712 L29.4894,57.3872 C30.1444,58.0262 30.8814,58.5822 31.7154,59.0732 C33.4674,60.0722 34.0894,61.2842 38.3954,61.2842 C42.7004,61.2842 43.3224,60.0722 45.0744,59.0732 C45.9084,58.5822 46.6454,58.0262 47.3004,57.3872 L47.3004,57.3712 C47.7094,56.9772 48.0864,56.5522 48.4134,56.1112 C50.0504,54.0152 51.0164,51.4122 51.5404,48.7922 C51.5404,48.7922 55.0924,48.4982 55.0924,43.4882 C55.0924,41.8032 54.6184,40.9012 54.2904,40.4762 L54.2904,40.4762 Z M100.5194,57.1082 C100.4554,56.7492 100.3564,56.4712 100.2584,56.2262 C100.0284,55.7022 99.5214,55.3402 98.9484,55.3082 C98.8994,55.3082 98.8494,55.3082 98.8014,55.2922 C93.3664,54.8832 84.5584,50.5942 81.3014,46.1742 C80.7774,50.4792 75.6374,54.6692 73.5254,55.2592 C73.0994,55.3742 72.7394,55.6862 72.5604,56.0952 C72.5104,56.2082 72.4614,56.3392 72.3964,56.5042 C72.2484,56.9612 72.1334,57.5852 72.1334,58.3862 C72.1334,62.9692 75.1624,63.2472 75.1624,63.2472 C75.6534,65.8502 76.7344,68.1582 78.1744,69.9922 C78.8944,70.9422 79.6974,71.7602 80.5644,72.4322 C82.3824,73.8722 84.4114,74.6752 86.3924,74.6752 C88.4884,74.6752 90.6814,73.7412 92.5804,72.1362 C93.3014,71.5322 93.9884,70.8112 94.6104,70.0102 C96.0344,68.1742 97.1154,65.8502 97.6064,63.2472 C97.6064,63.2472 100.6344,62.9692 100.6344,58.3862 C100.6344,57.8792 100.5854,57.4702 100.5194,57.1082 L100.5194,57.1082 Z M40.6214,80.2072 L42.4704,97.0842 L57.8754,97.0842 C57.8754,95.4312 58.2354,90.7992 64.3254,86.5432 C64.3254,82.0092 64.8814,77.1962 65.6354,72.6762 L62.2134,71.5802 C59.6434,70.9592 56.3524,70.0102 53.5204,68.6672 C51.0324,72.4142 47.7754,75.6082 43.9604,77.9812 L42.2584,75.9342 L40.6214,80.2072 Z M38.3954,71.3012 L42.2584,75.9342 L43.9604,77.9812 C47.7754,75.6082 51.0324,72.4142 53.5204,68.6672 C51.4414,67.6852 49.6084,66.4892 48.4794,65.0652 C46.1214,68.4532 42.4704,70.7452 38.3954,71.3012 L38.3954,71.3012 Z M23.2684,68.6672 C20.4364,70.0102 17.1464,70.9592 14.5594,71.5802 C4.9674,73.9042 4.99939929,79.6852 4.99939929,85.7722 L4.99939929,97.0842 L34.3184,97.0842 L36.1684,80.2072 L34.5314,75.9342 L32.8294,77.9812 C29.0144,75.6082 25.7564,72.4142 23.2684,68.6672 L23.2684,68.6672 Z M28.2944,65.0812 C27.1654,66.4892 25.3474,67.6852 23.2684,68.6672 C25.7564,72.4142 29.0144,75.6082 32.8294,77.9812 L34.5314,75.9342 L38.3954,71.3012 C34.3184,70.7452 30.6844,68.4532 28.2944,65.0812 L28.2944,65.0812 Z M45.0744,59.0732 C43.3224,60.0722 42.7004,61.2842 38.3954,61.2842 C34.0894,61.2842 33.4674,60.0722 31.7154,59.0732 C30.8814,58.5822 30.1444,58.0262 29.4894,57.3872 L29.4894,60.7602 L29.4894,61.9562 C29.4894,63.1002 29.0474,64.1332 28.2944,65.0652 L28.2944,65.0812 C30.6844,68.4532 34.3184,70.7452 38.3954,71.3012 C42.4704,70.7452 46.1214,68.4532 48.4794,65.0652 C47.7424,64.1332 47.3004,63.1002 47.3004,61.9562 L47.3004,60.7602 L47.3004,57.3872 C46.6454,58.0262 45.9084,58.5822 45.0744,59.0732 L45.0744,59.0732 Z M86.3924,74.6752 C88.4884,74.6752 90.6814,73.7412 92.5804,72.1362 L92.4984,76.7212 C92.4984,80.8452 92.7274,84.6602 93.5134,87.8362 C93.1374,88.9152 91.4834,90.9792 91.4834,90.9792 C90.1744,92.7472 88.4224,94.1562 86.3924,95.0542 C84.3624,94.1562 82.6104,92.7472 81.3014,90.9792 C81.3014,90.9792 79.5174,88.5572 79.2874,87.8362 L79.2714,87.8362 C80.0564,84.6602 80.2864,80.8452 80.2864,76.7212 L80.5644,72.4322 C82.3824,73.8722 84.4114,74.6752 86.3924,74.6752 L86.3924,74.6752 Z" id="Fill-11" fill="#FFFFFF"></path>
        <path d="M92.079,90.1758 C92.522,90.5048 92.615,91.1308 92.287,91.5748 C90.87,93.4878 88.972,95.0068 86.797,95.9688 C86.668,96.0268 86.53,96.0548 86.392,96.0548 C86.255,96.0548 86.116,96.0268 85.987,95.9688 C83.811,95.0058 81.913,93.4868 80.498,91.5738 C80.169,91.1308 80.263,90.5038 80.707,90.1758 C81.151,89.8468 81.776,89.9408 82.105,90.3848 C83.226,91.8988 84.702,93.1248 86.392,93.9518 C88.082,93.1258 89.558,91.8998 90.68,90.3838 C91.009,89.9408 91.634,89.8478 92.079,90.1758 L92.079,90.1758 Z M81.286,76.7208 C81.286,81.5868 80.954,85.1958 80.242,88.0768 C78.593,94.8108 74.607,98.0848 68.058,98.0848 C67.651,98.0848 67.284,97.8378 67.132,97.4598 C66.978,97.0818 67.07,96.6498 67.363,96.3658 C67.377,96.3528 69.104,94.6178 69.104,91.9938 C69.104,88.8858 68.801,86.4198 68.532,84.2448 C68.532,84.2438 68.514,84.0878 68.514,84.0868 C68.286,82.2038 68.072,80.4258 68.072,78.5048 C68.072,76.0438 68.408,73.4638 69.131,70.3858 C69.257,69.8478 69.795,69.5168 70.333,69.6408 C70.87,69.7668 71.204,70.3048 71.078,70.8428 C70.392,73.7678 70.072,76.2018 70.072,78.5048 C70.072,80.3058 70.279,82.0268 70.499,83.8478 L69.525,84.1218 L70.517,83.9998 C70.793,86.2328 71.104,88.7628 71.104,91.9938 C71.104,93.6188 70.617,94.9688 70.086,95.9578 C74.476,95.3698 77.045,92.7248 78.3,87.5988 C78.973,84.8768 79.286,81.4208 79.286,76.7208 C79.286,76.1678 79.733,75.7208 80.286,75.7208 C80.839,75.7208 81.286,76.1678 81.286,76.7208 L81.286,76.7208 Z M105.456,96.4008 C105.727,96.6918 105.802,97.1168 105.643,97.4828 C105.484,97.8478 105.126,98.0848 104.727,98.0848 C98.178,98.0848 94.192,94.8108 92.542,88.0748 C91.83,85.1968 91.498,81.5878 91.498,76.7208 C91.498,76.1678 91.945,75.7208 92.498,75.7208 C93.051,75.7208 93.498,76.1678 93.498,76.7208 C93.498,81.4218 93.811,84.8768 94.484,87.5968 C95.744,92.7408 98.325,95.3868 102.742,95.9628 C102.197,94.9518 101.682,93.5768 101.682,91.9938 C101.682,88.6398 102.459,86.1588 103.325,83.7048 L103.51,83.1728 C104.171,81.2678 104.742,79.6218 104.742,77.7348 C104.742,75.2948 104.439,72.8308 104.173,70.6558 C103.944,68.7898 103.727,67.0278 103.727,65.5248 C103.727,64.1428 103.551,60.7468 102.89,56.7828 C101.676,49.3898 98.316,36.9898 89.454,36.9898 C86.48,36.9898 84.85,37.8698 84.835,37.8788 C84.607,38.0028 84.335,38.0398 84.088,37.9728 C82.999,37.6838 81.066,37.8618 78.902,39.2388 C76.516,40.7568 72.244,44.7988 70.45,54.8138 C70.367,55.2618 70.253,55.7848 70.122,56.3898 C69.916,57.3308 69.663,58.4128 69.378,59.6358 C68.571,63.0868 67.468,67.8138 66.622,72.8428 C65.892,77.2168 65.471,81.1928 65.359,84.7008 C65.495,84.6208 65.631,84.5348 65.768,84.4578 C66.25,84.1898 66.86,84.3628 67.13,84.8428 C67.399,85.3248 67.226,85.9348 66.745,86.2038 C66.128,86.5488 65.523,86.9278 64.895,87.3638 C59.921,90.8418 58.876,94.5708 58.876,97.0848 C58.876,97.6378 58.429,98.0848 57.876,98.0848 C57.323,98.0848 56.876,97.6378 56.876,97.0848 C56.876,92.9948 59.168,89.0868 63.332,86.0308 C63.367,82.1008 63.807,77.5608 64.649,72.5118 C65.506,67.4198 66.618,62.6578 67.431,59.1808 C67.714,57.9688 67.964,56.8968 68.161,55.9948 C68.294,55.3828 68.403,54.8788 68.482,54.4538 C70.41,43.6958 75.165,39.2458 77.829,37.5518 C79.983,36.1818 82.342,35.5978 84.225,35.9548 C84.96,35.6298 86.75,34.9898 89.454,34.9898 C99.794,34.9898 103.546,48.4398 104.862,56.4558 C105.501,60.2798 105.727,63.7318 105.727,65.5248 C105.727,66.9048 105.936,68.6098 106.158,70.4128 C106.432,72.6438 106.742,75.1728 106.742,77.7348 C106.742,79.9588 106.09,81.8388 105.399,83.8278 L105.214,84.3638 C104.405,86.6548 103.682,88.9558 103.682,91.9938 C103.682,94.4708 105.438,96.3808 105.456,96.4008 L105.456,96.4008 Z M115.909,97.0848 C115.909,97.6378 115.462,98.0848 114.909,98.0848 C114.356,98.0848 113.909,97.6378 113.909,97.0848 C113.909,94.8568 113.002,90.5478 106.929,86.7348 C106.462,86.4408 106.32,85.8228 106.614,85.3558 C106.907,84.8898 107.524,84.7478 107.993,85.0408 C114.881,89.3658 115.909,94.4438 115.909,97.0848 L115.909,97.0848 Z M73.134,58.3858 C73.134,57.6308 73.25,57.1128 73.325,56.8738 L73.476,56.4968 C73.534,56.3638 73.653,56.2598 73.794,56.2218 C75.784,55.6658 80.226,52.3018 81.789,48.2648 C85.927,52.4498 93.727,55.8838 98.648,56.2838 C98.776,56.3088 98.87,56.3108 98.892,56.3068 C99.085,56.3188 99.263,56.4438 99.33,56.5978 C99.407,56.7898 99.485,57.0068 99.535,57.2858 C99.603,57.6598 99.635,58.0098 99.635,58.3858 C99.635,61.8768 97.717,62.2248 97.516,62.2508 C97.07,62.2918 96.707,62.6228 96.624,63.0618 C96.18,65.4158 95.21,67.6068 93.82,69.3968 C93.238,70.1458 92.605,70.8098 91.935,71.3718 C90.179,72.8578 88.21,73.6748 86.392,73.6748 C84.659,73.6748 82.858,72.9738 81.177,71.6408 C80.379,71.0248 79.638,70.2658 78.961,69.3748 C77.561,67.5918 76.588,65.4088 76.145,63.0628 C76.065,62.6368 75.701,62.3088 75.271,62.2528 C75.053,62.2248 73.134,61.8768 73.134,58.3858 L73.134,58.3858 Z M77.378,70.5968 C78.15,71.6138 79.016,72.4978 79.943,73.2158 C81.974,74.8238 84.203,75.6748 86.392,75.6748 C88.683,75.6748 91.109,74.6898 93.225,72.9018 C93.999,72.2498 94.731,71.4838 95.4,70.6228 C96.856,68.7468 97.906,66.4928 98.457,64.0698 C99.842,63.5778 101.635,62.0138 101.635,58.3858 C101.635,57.8868 101.593,57.4248 101.504,56.9318 C101.422,56.4768 101.298,56.1318 101.175,55.8248 C100.804,54.9778 99.982,54.3908 99.001,54.3138 C98.96,54.3048 98.918,54.2988 98.876,54.2958 C93.914,53.9218 85.327,49.9508 82.106,45.5808 C81.863,45.2508 81.441,45.1038 81.048,45.2068 C80.651,45.3108 80.358,45.6468 80.308,46.0528 C79.852,49.8048 75.125,53.7748 73.264,54.2938 C72.55,54.4868 71.944,55.0098 71.643,55.6958 C71.605,55.7818 71.567,55.8788 71.524,55.9888 L71.445,56.1958 C71.238,56.8328 71.134,57.5708 71.134,58.3858 C71.134,62.0138 72.928,63.5778 74.312,64.0698 C74.862,66.4888 75.918,68.7388 77.378,70.5968 L77.378,70.5968 Z M44.156,76.6528 L40.244,71.9568 C43.48,71.1298 46.401,69.2498 48.553,66.6138 C49.45,67.4728 50.615,68.2838 52.037,69.0388 C49.881,72.0378 47.186,74.6408 44.156,76.6528 L44.156,76.6528 Z M39.933,79.2078 L36.856,79.2078 L35.676,76.1258 L38.395,72.8638 L41.114,76.1258 L39.933,79.2078 Z M24.752,69.0388 C26.165,68.2868 27.326,67.4778 28.225,66.6198 C30.401,69.2528 33.326,71.1308 36.547,71.9568 L32.634,76.6528 C29.603,74.6408 26.908,72.0368 24.752,69.0388 L24.752,69.0388 Z M26.229,48.5958 C26.143,48.1678 25.777,47.8438 25.344,47.7968 C25.073,47.7668 22.697,47.3948 22.697,43.4878 C22.697,42.1108 23.047,41.4198 23.266,41.1238 C26.148,40.8568 26.992,38.0688 27.673,35.8008 C28.542,32.9048 29.202,31.1308 31.716,31.1308 C33.438,31.1308 34.53,31.4438 35.585,31.7448 C36.481,32.0018 37.328,32.2438 38.395,32.2438 C39.462,32.2438 40.308,32.0018 41.204,31.7448 C42.26,31.4438 43.35,31.1308 45.074,31.1308 C47.588,31.1308 48.248,32.9048 49.117,35.8008 C49.798,38.0688 50.642,40.8568 53.525,41.1238 C53.748,41.4298 54.092,42.1198 54.092,43.4878 C54.092,47.3948 51.716,47.7668 51.458,47.7948 C51.013,47.8318 50.646,48.1588 50.559,48.5958 C50,51.3988 49.013,53.7198 47.611,55.5148 C47.317,55.9098 46.979,56.2928 46.607,56.6508 C46.595,56.6618 46.591,56.6788 46.579,56.6908 C45.987,57.2648 45.33,57.7628 44.579,58.2038 C44.186,58.4288 43.846,58.6608 43.513,58.8918 C42.427,59.6388 41.489,60.2838 38.395,60.2838 C35.3,60.2838 34.362,59.6388 33.276,58.8908 C32.943,58.6608 32.603,58.4288 32.223,58.2108 C31.46,57.7618 30.803,57.2658 30.215,56.6948 C30.207,56.6858 30.202,56.6738 30.193,56.6648 C30.189,56.6608 30.187,56.6538 30.183,56.6498 C29.811,56.2928 29.474,55.9108 29.164,55.4958 C27.777,53.7208 26.79,51.3998 26.229,48.5958 L26.229,48.5958 Z M28.747,24.3808 C28.933,24.3068 29.093,24.1778 29.205,24.0118 C30.466,22.1438 32.65,19.9998 38.395,19.9998 C48.957,19.9998 54.092,24.4758 54.092,33.6838 C54.092,35.4368 54.085,37.3838 53.658,39.1178 C52.311,38.9548 51.793,37.7568 51.033,35.2258 C50.218,32.5108 49.203,29.1308 45.074,29.1308 C43.07,29.1308 41.73,29.5148 40.653,29.8218 C39.831,30.0588 39.181,30.2438 38.395,30.2438 C37.609,30.2438 36.959,30.0578 36.136,29.8218 C35.059,29.5148 33.72,29.1308 31.716,29.1308 C27.587,29.1308 26.572,32.5108 25.757,35.2258 C24.993,37.7708 24.473,38.9678 23.109,39.1198 C22.704,37.6758 22.697,36.4758 22.697,34.5838 C22.697,28.8378 25.956,25.4958 28.747,24.3808 L28.747,24.3808 Z M38.395,70.2848 C34.933,69.7748 31.75,67.8768 29.529,65.0358 C30.156,64.0598 30.49,63.0288 30.49,61.9558 L30.49,59.4548 C30.731,59.6178 30.959,59.7878 31.221,59.9418 C31.559,60.1358 31.853,60.3388 32.142,60.5378 C33.389,61.3968 34.679,62.2838 38.395,62.2838 C42.111,62.2838 43.4,61.3968 44.646,60.5378 C44.935,60.3398 45.229,60.1358 45.58,59.9358 C45.836,59.7848 46.063,59.6158 46.301,59.4548 L46.301,61.9558 C46.301,63.0198 46.629,64.0478 47.246,65.0268 C45.058,67.8688 41.88,69.7718 38.395,70.2848 L38.395,70.2848 Z M61.978,72.5518 C62.058,72.5718 62.137,72.5798 62.215,72.5798 C62.666,72.5798 63.075,72.2728 63.185,71.8158 C63.315,71.2788 62.985,70.7378 62.449,70.6088 C59.065,69.7898 56.206,68.8328 53.947,67.7628 C51.77,66.7358 50.194,65.6178 49.264,64.4458 C48.616,63.6248 48.301,62.8118 48.301,61.9558 L48.301,57.7718 C48.629,57.4318 48.939,57.0818 49.202,56.7268 C50.672,54.8458 51.739,52.4628 52.382,49.6378 C53.967,49.1548 56.092,47.4878 56.092,43.4878 C56.092,41.9958 55.756,40.9938 55.387,40.3358 C56.082,38.1528 56.092,35.6918 56.092,33.6838 C56.092,23.2768 50.138,17.9998 38.395,17.9998 C33.378,17.9998 29.976,19.4778 27.721,22.6428 C24.416,24.0958 20.697,28.0268 20.697,34.5838 C20.697,36.7878 20.706,38.3058 21.397,40.3448 C21.031,40.9988 20.697,41.9988 20.697,43.4878 C20.697,47.4878 22.822,49.1548 24.407,49.6378 C25.051,52.4638 26.118,54.8448 27.573,56.7078 C27.848,57.0778 28.161,57.4308 28.49,57.7728 L28.49,61.9558 C28.49,62.8148 28.172,63.6258 27.516,64.4378 C27.507,64.4488 27.506,64.4638 27.497,64.4758 C26.552,65.6448 24.986,66.7498 22.84,67.7638 C20.571,68.8388 17.707,69.7958 14.324,70.6088 C4,73.1098 4,79.5148 4,85.7728 L4,97.0848 C4,97.6378 4.447,98.0848 5,98.0848 C5.553,98.0848 6,97.6378 6,97.0848 L6,85.7098 C6,79.5488 6,74.6828 14.793,72.5528 C17.95,71.7948 20.661,70.9018 22.919,69.9078 C25.429,73.4828 28.652,76.5608 32.301,78.8298 C32.343,78.8558 32.389,78.8698 32.434,78.8888 C32.464,78.9018 32.492,78.9178 32.524,78.9278 C32.624,78.9598 32.725,78.9808 32.828,78.9808 C32.96,78.9808 33.087,78.9478 33.209,78.8978 C33.227,78.8898 33.245,78.8848 33.263,78.8758 C33.379,78.8208 33.481,78.7408 33.57,78.6408 C33.578,78.6328 33.59,78.6298 33.598,78.6198 L34.209,77.8868 L35.148,80.3398 L33.324,96.9758 C33.264,97.5258 33.66,98.0188 34.209,98.0788 C34.246,98.0828 34.283,98.0848 34.319,98.0848 C34.823,98.0848 35.256,97.7058 35.312,97.1948 L37.065,81.2078 L39.725,81.2078 L41.476,97.1948 C41.533,97.7058 41.966,98.0848 42.47,98.0848 C42.506,98.0848 42.543,98.0828 42.58,98.0788 C43.129,98.0188 43.525,97.5258 43.465,96.9758 L41.641,80.3398 L42.581,77.8868 L43.192,78.6198 C43.2,78.6298 43.212,78.6328 43.22,78.6418 C43.309,78.7408 43.411,78.8208 43.527,78.8758 C43.545,78.8848 43.563,78.8898 43.581,78.8978 C43.703,78.9478 43.83,78.9808 43.962,78.9808 C44.064,78.9808 44.166,78.9598 44.266,78.9278 C44.297,78.9178 44.325,78.9018 44.355,78.8888 C44.4,78.8698 44.446,78.8568 44.489,78.8298 C48.133,76.5638 51.353,73.4898 53.861,69.9188 C56.107,70.9058 58.83,71.7908 61.978,72.5518 L61.978,72.5518 Z" id="Fill-13" fill="#343852"></path>
    </g>
</svg>