<?xml version="1.0" encoding="UTF-8"?>
<svg width="120px" height="120px" viewBox="0 0 120 120" version="1.1" xmlns="http://www.w3.org/2000/svg" xmlns:xlink="http://www.w3.org/1999/xlink">
    <title>02.Icons/Illustrative/Offres Cybersecurité</title>
    <g id="02.Icons/Illustrative/Offres-Cybersecurité" stroke="none" stroke-width="1" fill="none" fill-rule="evenodd">
        <path d="M114.2687,44.031 C114.2687,24.684 98.5847,9 79.2377,9 C59.8907,9 44.2067,24.684 44.2067,44.031 C44.2067,63.378 59.8907,79.062 79.2377,79.062 C98.5847,79.062 114.2687,63.378 114.2687,44.031" id="Fill-1" fill="#F2F3F7"></path>
        <path d="M94.0889,71.0066 L94.0889,30.4066 C94.0889,29.6626 93.4799,29.0536 92.7359,29.0536 L22.3629,29.0536 C21.6189,29.0536 21.0099,29.6626 21.0099,30.4066 L21.0099,71.0066 C21.0099,71.7506 21.6189,72.3596 22.3629,72.3596 L92.7359,72.3596 C93.4799,72.3596 94.0889,71.7506 94.0889,71.0066 M98.1489,29.0536 L98.1489,76.4196 L22.3629,76.4196 L16.9499,76.4196 L16.9499,29.0536 C16.9499,26.8076 18.7629,24.9936 21.0099,24.9936 L94.0889,24.9936 C96.3359,24.9936 98.1489,26.8076 98.1489,29.0536" id="Fill-3" fill="#FFFFFF"></path>
        <polygon id="Fill-5" fill="#969CBB" points="62.9626 84.5398 67.0226 98.0728 48.0766 98.0728 52.1356 84.5398"></polygon>
        <path d="M70.6351,68.769 C70.6051,68.672 70.5801,68.573 70.5601,68.474 C69.5641,63.523 69.0801,57.822 69.0801,51.045 C69.0801,49.383 70.4331,48.03 72.0951,48.03 C78.2891,48.03 83.4591,47.597 88.9091,42.147 C89.4791,41.577 90.2361,41.264 91.0421,41.264 C91.8471,41.264 92.6051,41.577 93.1731,42.147 C93.4861,42.459 93.7891,42.743 94.0891,43.015 L94.0891,30.407 C94.0891,29.663 93.4801,29.054 92.7361,29.054 L22.3631,29.054 C21.6191,29.054 21.0101,29.663 21.0101,30.407 L21.0101,71.007 C21.0101,71.751 21.6191,72.36 22.3631,72.36 L71.5231,72.36 C71.1971,71.225 70.8981,70.034 70.6351,68.769" id="Fill-7" fill="#EDEEF3"></path>
        <path d="M72.9116,76.4199 L22.3636,76.4199 L16.9496,76.4199 L16.9496,80.4799 C16.9496,82.7259 18.7636,84.5399 21.0096,84.5399 L52.1366,84.5399 L62.9626,84.5399 L77.6946,84.5399 C75.8806,82.3689 74.2476,79.7169 72.9116,76.4199" id="Fill-9" fill="#1D71B8"></path>
        <path d="M89.6884,78.1115 L104.5744,63.2255 L100.5154,59.1655 L89.6884,69.9915 L84.2754,64.5785 L80.2154,68.6385 L89.6884,78.1115 Z M109.9884,51.0455 C109.9884,78.0295 101.8684,85.7175 91.0414,90.2915 C82.9084,86.8535 76.3174,81.6705 73.5304,67.8795 L73.5164,67.8795 C72.5964,63.3065 72.0954,57.7725 72.0954,51.0455 C78.0224,51.0455 84.5314,50.7885 91.0414,44.2785 C91.9484,45.1855 92.8414,45.9705 93.7484,46.6335 C99.3524,50.8545 104.8864,51.0455 109.9884,51.0455 L109.9884,51.0455 Z" id="Fill-11" fill="#D20050"></path>
        <path d="M89.8847,78.3079 C89.6507,78.3079 89.4277,78.2149 89.2617,78.0499 L80.4737,69.2619 C80.1287,68.9169 80.1287,68.3589 80.4737,68.0149 L83.3927,65.1049 C83.7367,64.7609 84.2947,64.7609 84.6397,65.1049 L89.9127,69.6999 L100.1787,59.4229 C100.3437,59.2579 100.5677,59.1649 100.8017,59.1649 C101.0357,59.1649 101.2597,59.2579 101.4247,59.4229 L104.0467,62.6129 C104.3917,62.9579 104.3917,63.5159 104.0467,63.8599 L90.5077,78.0499 C90.3417,78.2149 90.1187,78.3079 89.8847,78.3079" id="Fill-13" fill="#FFFFFF"></path>
        <path d="M81.559,68.6382 L89.689,76.7682 L103.231,63.2252 L100.515,60.5082 L90.361,70.6632 C89.99,71.0342 89.388,71.0342 89.017,70.6632 L84.275,65.9222 L81.559,68.6382 Z M89.689,79.0622 C89.437,79.0622 89.196,78.9612 89.017,78.7842 L79.543,69.3102 C79.172,68.9392 79.172,68.3372 79.543,67.9662 L83.603,63.9072 C83.974,63.5352 84.576,63.5352 84.947,63.9072 L89.689,68.6482 L99.843,58.4922 C100.022,58.3152 100.263,58.2142 100.515,58.2142 C100.767,58.2142 101.009,58.3152 101.187,58.4922 L105.246,62.5532 C105.618,62.9242 105.618,63.5262 105.246,63.8972 L90.361,78.7842 C90.182,78.9612 89.941,79.0622 89.689,79.0622 L89.689,79.0622 Z M74.415,67.5342 C74.435,67.5842 74.451,67.6362 74.462,67.6912 C77.092,80.7062 82.989,85.7802 91.041,89.2582 C102.023,84.5082 108.864,76.4652 109.035,51.9922 C103.724,51.9432 98.501,51.4042 93.177,47.3922 C92.478,46.8812 91.773,46.2892 91.04,45.6012 C84.622,51.6082 78.078,51.9722 73.048,51.9932 C73.092,57.9482 73.552,63.1702 74.415,67.5342 L74.415,67.5342 Z M91.041,91.2422 C90.915,91.2422 90.789,91.2162 90.671,91.1662 C83.087,87.9602 75.656,82.9602 72.632,68.2282 C72.612,68.1772 72.596,68.1222 72.584,68.0672 C71.629,63.3192 71.145,57.5922 71.145,51.0452 C71.145,50.5212 71.571,50.0952 72.095,50.0952 C78.543,50.0952 84.37,49.6072 90.37,43.6072 C90.741,43.2362 91.342,43.2362 91.713,43.6072 C92.62,44.5122 93.469,45.2512 94.309,45.8672 C99.501,49.7782 104.481,50.0952 109.988,50.0952 C110.512,50.0952 110.938,50.5212 110.938,51.0452 C110.938,77.4972 103.131,86.2152 91.412,91.1662 C91.293,91.2162 91.167,91.2422 91.041,91.2422 L91.041,91.2422 Z M65.746,97.1222 L49.353,97.1222 L52.843,85.4902 L62.255,85.4902 L65.746,97.1222 Z M94.089,24.0432 L21.01,24.0432 C18.247,24.0432 16,26.2912 16,29.0542 L16,80.4802 C16,83.2422 18.247,85.4902 21.01,85.4902 L50.859,85.4902 L47.369,97.1222 L41.309,97.1222 C40.785,97.1222 40.359,97.5482 40.359,98.0732 C40.359,98.5972 40.785,99.0232 41.309,99.0232 L73.789,99.0232 C74.314,99.0232 74.74,98.5972 74.74,98.0732 C74.74,97.5482 74.314,97.1222 73.789,97.1222 L67.73,97.1222 L64.24,85.4902 L76.834,85.4902 C77.359,85.4902 77.785,85.0642 77.785,84.5392 C77.785,84.0152 77.359,83.5892 76.834,83.5892 L21.01,83.5892 C19.295,83.5892 17.9,82.1952 17.9,80.4802 L17.9,77.3692 L72.313,77.3692 C72.837,77.3692 73.263,76.9442 73.263,76.4192 C73.263,75.8952 72.837,75.4692 72.313,75.4692 L17.9,75.4692 L17.9,29.0542 C17.9,27.3392 19.295,25.9442 21.01,25.9442 L94.089,25.9442 C95.804,25.9442 97.199,27.3392 97.199,29.0542 L97.199,44.2792 C97.199,44.8032 97.624,45.2292 98.149,45.2292 C98.673,45.2292 99.099,44.8032 99.099,44.2792 L99.099,29.0542 C99.099,26.2912 96.852,24.0432 94.089,24.0432 L94.089,24.0432 Z" id="Fill-15" fill="#343852"></path>
        <path d="M57.7728,66.2251 C57.7728,65.7011 57.3478,65.2751 56.8228,65.2751 L41.4138,65.2751 C40.8888,65.2751 40.4628,65.7011 40.4628,66.2251 C40.4628,66.7491 40.8888,67.1751 41.4138,67.1751 L56.8228,67.1751 C57.3478,67.1751 57.7728,66.7491 57.7728,66.2251 M62.7398,58.5211 C62.7398,57.9961 62.3148,57.5711 61.7898,57.5711 L58.1068,57.5711 C57.5818,57.5711 57.1568,57.9961 57.1568,58.5211 C57.1568,59.0451 57.5818,59.4711 58.1068,59.4711 L61.7898,59.4711 C62.3148,59.4711 62.7398,59.0451 62.7398,58.5211 M52.6368,58.5211 C52.6368,57.9961 52.2108,57.5711 51.6868,57.5711 L41.4138,57.5711 C40.8888,57.5711 40.4628,57.9961 40.4628,58.5211 C40.4628,59.0451 40.8888,59.4711 41.4138,59.4711 L51.6868,59.4711 C52.2108,59.4711 52.6368,59.0451 52.6368,58.5211 M66.7608,50.8161 C66.7608,50.2911 66.3358,49.8661 65.8108,49.8661 L52.9698,49.8661 C52.4448,49.8661 52.0198,50.2911 52.0198,50.8161 C52.0198,51.3401 52.4448,51.7661 52.9698,51.7661 L65.8108,51.7661 C66.3358,51.7661 66.7608,51.3401 66.7608,50.8161 M78.8628,43.1121 C78.8628,42.5871 78.4368,42.1621 77.9128,42.1621 L60.6328,42.1621 C60.1078,42.1621 59.6828,42.5871 59.6828,43.1121 C59.6828,43.6361 60.1078,44.0621 60.6328,44.0621 L77.9128,44.0621 C78.4368,44.0621 78.8628,43.6361 78.8628,43.1121 M47.4998,50.8161 C47.4998,50.2911 47.0748,49.8661 46.5498,49.8661 L41.4138,49.8661 C40.8888,49.8661 40.4628,50.2911 40.4628,50.8161 C40.4628,51.3401 40.8888,51.7661 41.4138,51.7661 L46.5498,51.7661 C47.0748,51.7661 47.4998,51.3401 47.4998,50.8161 M55.2048,43.1121 C55.2048,42.5871 54.7788,42.1621 54.2538,42.1621 L41.4138,42.1621 C40.8888,42.1621 40.4628,42.5871 40.4628,43.1121 C40.4628,43.6361 40.8888,44.0621 41.4138,44.0621 L54.2538,44.0621 C54.7788,44.0621 55.2048,43.6361 55.2048,43.1121 M72.2318,36.3571 L41.4138,36.3571 C40.8888,36.3571 40.4628,35.9311 40.4628,35.4071 C40.4628,34.8821 40.8888,34.4561 41.4138,34.4561 L72.2318,34.4561 C72.7558,34.4561 73.1818,34.8821 73.1818,35.4071 C73.1818,35.9311 72.7558,36.3571 72.2318,36.3571" id="Fill-18" fill="#969CBB"></path>
        <path d="M33.3749,66.2251 C33.3749,65.7011 32.9499,65.2751 32.4249,65.2751 L28.5719,65.2751 C28.0469,65.2751 27.6219,65.7011 27.6219,66.2251 C27.6219,66.7491 28.0469,67.1751 28.5719,67.1751 L32.4249,67.1751 C32.9499,67.1751 33.3749,66.7491 33.3749,66.2251 M33.3749,58.5211 C33.3749,57.9961 32.9499,57.5711 32.4249,57.5711 L28.5719,57.5711 C28.0469,57.5711 27.6219,57.9961 27.6219,58.5211 C27.6219,59.0451 28.0469,59.4711 28.5719,59.4711 L32.4249,59.4711 C32.9499,59.4711 33.3749,59.0451 33.3749,58.5211 M33.3749,50.8161 C33.3749,50.2911 32.9499,49.8661 32.4249,49.8661 L28.5719,49.8661 C28.0469,49.8661 27.6219,50.2911 27.6219,50.8161 C27.6219,51.3401 28.0469,51.7661 28.5719,51.7661 L32.4249,51.7661 C32.9499,51.7661 33.3749,51.3401 33.3749,50.8161 M33.3749,43.1121 C33.3749,42.5871 32.9499,42.1621 32.4249,42.1621 L28.5719,42.1621 C28.0469,42.1621 27.6219,42.5871 27.6219,43.1121 C27.6219,43.6361 28.0469,44.0621 28.5719,44.0621 L32.4249,44.0621 C32.9499,44.0621 33.3749,43.6361 33.3749,43.1121 M32.4249,36.3571 L28.5719,36.3571 C28.0469,36.3571 27.6219,35.9311 27.6219,35.4071 C27.6219,34.8821 28.0469,34.4561 28.5719,34.4561 L32.4249,34.4561 C32.9499,34.4561 33.3749,34.8821 33.3749,35.4071 C33.3749,35.9311 32.9499,36.3571 32.4249,36.3571" id="Fill-20" fill="#343852"></path>
    </g>
</svg>