<?xml version="1.0" encoding="UTF-8"?>
<svg width="120px" height="120px" viewBox="0 0 120 120" version="1.1" xmlns="http://www.w3.org/2000/svg" xmlns:xlink="http://www.w3.org/1999/xlink">
    <title>02.Icons/Illustrative/01. Profils/Orthophoniste</title>
    <g id="02.Icons/Illustrative/01.-Profils/Orthophoniste" stroke="none" stroke-width="1" fill="none" fill-rule="evenodd">
        <path d="M104.1433,58.8955998 C104.1433,37.8635998 87.0933,20.8135998 66.0613,20.8135998 C45.0293,20.8135998 27.9793,37.8635998 27.9793,58.8955998 C27.9793,79.9275998 45.0293,96.9775998 66.0613,96.9775998 C87.0933,96.9775998 104.1433,79.9275998 104.1433,58.8955998" id="Fill-1" fill="#F2F3F7"></path>
        <path d="M58.428,99.1325998 L27.654,99.1325998 C27.654,91.8055998 26.189,81.5475998 26.189,81.5475998 C30.585,80.0825998 32.05,75.9055998 32.05,72.7545998 C32.05,69.8245998 26.189,66.8935998 26.189,59.5665998 C26.189,50.7735998 33.516,52.2395998 34.981,52.2395998 C36.447,52.2395998 37.912,43.4465998 40.843,40.5155998 C43.774,37.5845998 49.635,37.5845998 59.893,37.5845998 C70.151,37.5845998 71.617,36.1195998 71.617,36.1195998 C71.617,36.1195998 74.548,40.5155998 74.548,46.3775998 C74.548,50.7735998 73.082,53.7045998 73.082,53.7045998 C73.082,53.7045998 80.409,65.4275998 80.409,66.8935998 C80.409,68.3585998 78.944,69.8245998 74.548,69.8245998 L74.548,72.8725998 C74.548,73.6195998 73.991,74.2205998 73.243,74.2935998 C71.28,74.4695998 67.411,75.0705998 64.29,77.1515998 C64.29,77.1515998 67.851,79.5255998 71.778,79.9945998 C72.525,80.0965998 73.082,80.7415998 73.068,81.4885998 C72.98,85.1525998 72.32,91.8055998 67.221,91.8055998 C64.685,91.8055998 61.593,91.5265998 58.428,90.9845998 L58.428,99.1325998 Z" id="Fill-3" fill="#FFFFFF"></path>
        <path d="M76.0131,19.9998998 C76.0131,19.9998998 77.4781,24.3958998 77.4781,27.3268998 C77.4781,33.1888998 71.6171,36.1198998 71.6171,36.1198998 C71.6171,36.1198998 70.1511,37.5848998 59.8931,37.5848998 C49.6351,37.5848998 43.7741,37.5848998 40.8431,40.5158998 C37.9121,43.4468998 36.4471,52.2388998 34.9811,52.2388998 C33.5161,52.2388998 26.1891,50.7738998 26.1891,59.5658998 C26.1891,66.8928998 32.0501,69.8238998 32.0501,72.7548998 C32.0501,75.9058998 30.5851,80.0818998 26.1891,81.5478998 C20.3271,78.6168998 13.0001,59.5658998 13.0001,44.9118998 C13.0001,37.5848998 18.8621,31.7228998 21.7921,31.7228998 C21.7921,31.7228998 27.6541,21.4648998 39.3771,21.4648998 C49.6351,21.4648998 59.8931,22.9308998 64.2901,22.9308998 C71.6171,22.9308998 76.0131,19.9998998 76.0131,19.9998998" id="Fill-5" fill="#C5C8DA"></path>
        <path d="M40.136,39.8085998 C38.418,41.5265998 37.265,44.7655998 36.248,47.6225998 C35.779,48.9435998 35.149,50.7125998 34.759,51.2305998 C34.672,51.2255998 34.574,51.2185998 34.467,51.2105998 C32.942,51.1025998 29.763,50.8795998 27.5,52.9905998 C25.967,54.4195998 25.189,56.6325998 25.189,59.5665998 C25.189,64.3975998 27.566,67.4645998 29.303,69.7055998 C30.24,70.9155998 31.051,71.9615998 31.051,72.7545998 C31.051,75.6055998 29.787,79.0655998 26.277,80.4525998 C21.026,77.1845998 14,59.1815998 14,44.9125998 C14,37.9985998 19.532,32.7235998 21.792,32.7235998 C22.15,32.7235998 22.481,32.5315998 22.66,32.2205998 C22.716,32.1225998 28.396,22.4655998 39.378,22.4655998 C45.534,22.4655998 51.667,22.9955998 56.596,23.4205998 C59.899,23.7045998 62.508,23.9305998 64.29,23.9305998 C69.724,23.9305998 73.603,22.3875998 75.418,21.4775998 C75.837,22.9385998 76.478,25.4775998 76.478,27.3275998 C76.478,32.4655998 71.257,35.1805998 71.169,35.2255998 C71.073,35.2725998 71.057,35.2725998 70.981,35.3485998 C70.91,35.3985998 69.122,36.5845998 59.893,36.5845998 C49.232,36.5845998 43.36,36.5845998 40.136,39.8085998 M74.21,53.6235998 C74.649,52.5475998 75.548,49.9135998 75.548,46.3775998 C75.548,41.8015998 73.873,38.1085998 72.984,36.4725998 C74.761,35.3175998 78.478,32.3095998 78.478,27.3275998 C78.478,24.2695998 77.024,19.8705998 76.962,19.6835998 C76.864,19.3885998 76.633,19.1555998 76.338,19.0535998 C76.044,18.9535998 75.719,18.9945998 75.459,19.1675998 C75.418,19.1955998 71.234,21.9305998 64.29,21.9305998 C62.594,21.9305998 59.894,21.6975998 56.768,21.4275998 C51.801,20.9985998 45.62,20.4655998 39.378,20.4655998 C28.508,20.4655998 22.529,28.7085998 21.201,30.7765998 C17.488,31.4125998 12,37.7455998 12,44.9125998 C12,59.1715998 18.848,78.2125998 25.265,82.1675998 C25.549,84.2695998 26.654,92.8505998 26.654,99.1325998 C26.654,99.6855998 27.102,100.1326 27.654,100.1326 C28.206,100.1326 28.654,99.6855998 28.654,99.1325998 C28.654,92.9955998 27.626,84.7495998 27.286,82.1955998 C31.515,80.3845998 33.051,76.2035998 33.051,72.7545998 C33.051,71.2775998 32.046,69.9815998 30.883,68.4805998 C29.237,66.3565998 27.189,63.7125998 27.189,59.5665998 C27.189,57.2095998 27.752,55.4895998 28.864,54.4535998 C30.49,52.9365998 32.984,53.1115998 34.327,53.2055998 C34.598,53.2245998 34.821,53.2395998 34.981,53.2395998 C36.373,53.2395998 36.998,51.4825998 38.133,48.2935998 C39.032,45.7665998 40.151,42.6215998 41.55,41.2225998 C44.188,38.5845998 50.099,38.5845998 59.893,38.5845998 C66.655,38.5845998 69.785,37.9575998 71.222,37.4275998 C72.001,38.8755998 73.548,42.2665998 73.548,46.3775998 C73.548,50.4575998 72.2,53.2325998 72.187,53.2575998 C72.032,53.5695998 72.05,53.9395998 72.234,54.2355998 C75.636,59.6775998 79.251,65.9205998 79.409,66.8935998 C79.409,68.0835998 77.547,68.8245998 74.548,68.8245998 C73.995,68.8245998 73.548,69.2715998 73.548,69.8245998 L73.548,72.8715998 C73.548,73.1035998 73.386,73.2755998 73.154,73.2975998 C71.046,73.4865998 67.018,74.1295998 63.735,76.3195998 C63.457,76.5045998 63.29,76.8175998 63.29,77.1515998 C63.29,77.4855998 63.457,77.7975998 63.735,77.9835998 C63.888,78.0855998 67.542,80.4965998 71.642,80.9845998 C71.886,81.0185998 72.072,81.2315998 72.067,81.4645998 C71.919,87.6625998 70.288,90.8055998 67.22,90.8055998 C64.695,90.8055998 61.632,90.5195998 58.599,89.9995998 C54.199,89.2375998 50.134,87.9995998 47.151,86.5135998 C46.655,86.2655998 46.055,86.4695998 45.81,86.9635998 C45.564,87.4575998 45.765,88.0585998 46.259,88.3045998 C49.219,89.7785998 53.161,91.0105998 57.428,91.8135998 L57.428,99.1325998 C57.428,99.6855998 57.876,100.1326 58.428,100.1326 C58.98,100.1326 59.428,99.6855998 59.428,99.1325998 L59.428,92.1475998 C62.182,92.5665998 64.913,92.8055998 67.22,92.8055998 C70.22,92.8055998 73.843,90.8465998 74.067,81.5085998 C74.092,80.2515998 73.166,79.1745998 71.896,79.0005998 C69.718,78.7415998 67.628,77.8355998 66.296,77.1485998 C68.888,75.8655998 71.722,75.4335998 73.341,75.2885998 C74.598,75.1655998 75.548,74.1265998 75.548,72.8715998 L75.548,70.7985998 C80.814,70.5175998 81.409,68.0085998 81.409,66.8935998 C81.409,65.4185998 77.025,58.1425998 74.21,53.6235998" id="Fill-7" fill="#343852"></path>
        <path d="M86.6956,69.9032998 L93.6666,67.1252998 C94.3016,66.8722998 94.6106,66.1522998 94.3576,65.5182998 C94.1046,64.8832998 93.3836,64.5712998 92.7496,64.8272998 L85.7786,67.6042998 C85.1446,67.8572998 84.8346,68.5772998 85.0876,69.2122998 C85.2576,69.6382998 85.6366,69.9172998 86.0596,69.9792998 C86.2676,70.0092998 86.4866,69.9872998 86.6956,69.9032998 M90.5586,91.5482998 C90.9826,91.0122998 90.8916,90.2342998 90.3556,89.8102998 L84.4696,85.1562998 C83.9356,84.7322998 83.1556,84.8222998 82.7316,85.3582998 C82.3076,85.8942998 82.3976,86.6732998 82.9336,87.0972998 L88.8196,91.7512998 C88.9966,91.8912998 89.2006,91.9752998 89.4076,92.0052998 C89.8306,92.0672998 90.2746,91.9082998 90.5586,91.5482998 M95.5906,80.5252998 L88.1586,79.4412998 C87.4826,79.3422998 87.0146,78.7132998 87.1126,78.0372998 C87.2116,77.3612998 87.8406,76.8922998 88.5166,76.9912998 L95.9486,78.0762998 C96.6246,78.1752998 97.0926,78.8032998 96.9946,79.4792998 C96.8956,80.1552998 96.2666,80.6242998 95.5906,80.5252998" id="Fill-9" fill="#1D71B8"></path>
        <polygon id="Fill-11" fill="#D20050" points="87.9828 36.6567998 93.3408 36.6567998 93.7878 30.8517998 101.0438 30.8517998 101.0438 36.1807998 106.8488 36.6567998 106.8488 43.4517998 101.0438 43.9137998 101.0438 49.7177998 93.7328 49.2517998 93.7878 43.9137998 87.7478 43.9007998"></polygon>
        <path d="M92.3523,50.7701998 L101.6633,50.7701998 L101.6633,44.9651998 L107.4683,44.9651998 L107.4683,35.6531998 L101.6633,35.6531998 L101.6633,29.8481998 L92.3523,29.8481998 L92.3523,35.6531998 L86.5463,35.6531998 L86.5463,44.9651998 L92.3523,44.9651998 L92.3523,50.7701998 Z M88.6013,42.9101998 L88.6013,37.7071998 L94.4073,37.7071998 L94.4073,31.9021998 L99.6093,31.9021998 L99.6093,37.7071998 L105.4123,37.7071998 L105.4123,42.9101998 L99.6093,42.9101998 L99.6093,48.7151998 L94.4073,48.7151998 L94.4073,42.9101998 L88.6013,42.9101998 Z" id="Fill-13" fill="#343852"></path>
    </g>
</svg>