<?xml version="1.0" encoding="UTF-8"?>
<svg width="120px" height="120px" viewBox="0 0 120 120" version="1.1" xmlns="http://www.w3.org/2000/svg" xmlns:xlink="http://www.w3.org/1999/xlink">
    <title>02.Icons/Illustrative/01. Profils/Orthoptiste</title>
    <g id="02.Icons/Illustrative/01.-Profils/Orthoptiste" stroke="none" stroke-width="1" fill="none" fill-rule="evenodd">
        <path d="M90.517,49.2596 C90.517,26.4726 72.044,7.9996 49.257,7.9996 C26.471,7.9996 8,26.4726 8,49.2596 C8,72.0466 26.471,90.5186 49.257,90.5186 C72.044,90.5186 90.517,72.0466 90.517,49.2596" id="Fill-1" fill="#F2F3F7"></path>
        <polygon id="Fill-4" fill="#FFFFFF" points="26.142 100.99 92.841 100.99 92.841 31.152 26.142 31.152"></polygon>
        <polygon id="Fill-6" fill="#1D71B8" points="23.226 31.811 95.576 31.811 95.576 24.143 23.226 24.143"></polygon>
        <path d="M24.5054,31.3096 L24.5054,24.9826 L94.7274,24.9826 L94.7294,31.3096 L24.5054,31.3096 Z M28.6164,98.2646 L90.6144,98.2646 L90.6144,33.3936 L28.6164,33.3936 L28.6164,98.2646 Z M92.6984,33.3936 L95.7704,33.3936 C96.3444,33.3936 96.8124,32.9256 96.8124,32.3516 L96.8124,23.9416 C96.8124,23.6626 96.7034,23.4006 96.5064,23.2046 C96.3094,23.0076 96.0474,22.8996 95.7694,22.8996 L23.4624,22.8996 C22.8884,22.8996 22.4214,23.3676 22.4214,23.9416 L22.4214,32.3516 C22.4214,32.9256 22.8884,33.3936 23.4624,33.3936 L26.5324,33.3936 L26.5324,99.3056 C26.5324,99.8796 27.0004,100.3476 27.5744,100.3476 L91.6564,100.3476 C92.2314,100.3476 92.6984,99.8796 92.6984,99.3056 L92.6984,33.3936 Z" id="Fill-7" fill="#343852"></path>
        <path d="M53.7689,62.3848 L65.4639,62.3848 C66.1769,62.3848 66.7559,61.8058 66.7559,61.0928 C66.7559,60.3798 66.1769,59.8008 65.4639,59.8008 L55.0609,59.8008 L55.0609,52.6668 L59.5309,52.6668 C60.2439,52.6668 60.8219,52.0878 60.8219,51.3748 C60.8219,50.6608 60.2439,50.0828 59.5309,50.0828 L55.0609,50.0828 L55.0609,42.9478 L65.4639,42.9478 C66.1769,42.9478 66.7559,42.3698 66.7559,41.6558 C66.7559,40.9428 66.1769,40.3638 65.4639,40.3638 L53.7689,40.3638 C53.0559,40.3638 52.4769,40.9428 52.4769,41.6558 L52.4769,61.0928 C52.4769,61.8068 53.0559,62.3848 53.7689,62.3848 Z" id="Fill-8" fill="#343852"></path>
        <path d="M63.4576,71.2295 C63.3496,70.9735 63.1466,70.7745 62.8906,70.6695 L62.8886,70.6695 C62.6376,70.5675 62.3466,70.5685 62.0916,70.6745 C61.8356,70.7825 61.6366,70.9845 61.5316,71.2425 L59.6156,75.9535 L57.7006,71.2415 C57.5366,70.8375 57.1456,70.5935 56.7336,70.5935 C56.6036,70.5935 56.4716,70.6185 56.3426,70.6695 C56.0846,70.7745 55.8836,70.9735 55.7746,71.2305 C55.6676,71.4865 55.6656,71.7695 55.7706,72.0285 L58.6496,79.1105 C58.8116,79.5055 59.1896,79.7615 59.6156,79.7615 C60.0426,79.7615 60.4216,79.5065 60.5816,79.1115 L63.4626,72.0295 C63.5666,71.7705 63.5646,71.4865 63.4576,71.2295" id="Fill-9" fill="#343852"></path>
        <path d="M45.2447,77.6465 C44.7027,78.1885 43.9517,78.5005 43.1847,78.5005 C42.4087,78.5005 41.6787,78.1975 41.1267,77.6465 C40.5847,77.1055 40.2737,76.3555 40.2737,75.5875 C40.2747,74.8105 40.5777,74.0795 41.1277,73.5305 C41.6767,72.9805 42.4077,72.6775 43.1847,72.6765 L43.1847,72.6775 L43.1887,72.6775 C43.9547,72.6775 44.7037,72.9885 45.2447,73.5295 C45.7947,74.0805 46.0977,74.8115 46.0977,75.5875 C46.0977,76.3545 45.7867,77.1045 45.2447,77.6465 M46.7187,72.0555 C45.7737,71.1125 44.5187,70.5925 43.1847,70.5925 C41.8507,70.5925 40.5977,71.1125 39.6537,72.0555 C38.7097,73.0005 38.1897,74.2535 38.1897,75.5875 C38.1917,76.9205 38.7127,78.1745 39.6557,79.1185 C40.5987,80.0615 41.8527,80.5825 43.1847,80.5845 C44.5197,80.5845 45.7737,80.0645 46.7187,79.1205 C47.6617,78.1765 48.1817,76.9215 48.1817,75.5875 C48.1817,74.2545 47.6617,73.0005 46.7187,72.0555" id="Fill-10" fill="#343852"></path>
        <path d="M80.0015,80.584 C80.5755,80.584 81.0425,80.116 81.0425,79.542 C81.0425,78.968 80.5755,78.5 80.0015,78.5 L75.8545,78.5 L75.8545,71.635 C75.8545,71.061 75.3875,70.593 74.8135,70.593 C74.2385,70.593 73.7715,71.061 73.7715,71.635 L73.7715,79.541 C73.7715,80.116 74.2385,80.584 74.8135,80.584 L80.0015,80.584 Z" id="Fill-11" fill="#343852"></path>
        <path d="M55.3101,89.2461 L51.3571,89.2461 C50.7131,89.2461 50.1891,89.7691 50.1891,90.4131 C50.1891,91.0571 50.7131,91.5801 51.3571,91.5801 L55.3101,91.5801 C55.9541,91.5801 56.4771,91.0571 56.4771,90.4131 C56.4771,89.7691 55.9541,89.2461 55.3101,89.2461 M80.4341,89.2461 L76.4801,89.2461 C75.8361,89.2461 75.3131,89.7691 75.3131,90.4131 C75.3131,91.0561 75.8361,91.5791 76.4801,91.5791 L80.4341,91.5791 C81.0771,91.5791 81.6001,91.0561 81.6001,90.4131 C81.6001,89.7691 81.0771,89.2461 80.4341,89.2461 M42.7521,89.2461 L38.7981,89.2461 C38.1561,89.2461 37.6321,89.7691 37.6321,90.4131 C37.6321,91.0571 38.1561,91.5801 38.7981,91.5801 L42.7521,91.5801 C43.3961,91.5801 43.9191,91.0571 43.9191,90.4131 C43.9191,89.7691 43.3961,89.2461 42.7521,89.2461 M69.0431,90.4131 C69.0431,91.0571 68.5201,91.5801 67.8761,91.5801 L63.9231,91.5801 C63.2801,91.5801 62.7561,91.0571 62.7561,90.4131 C62.7561,89.7691 63.2801,89.2461 63.9231,89.2461 L67.8761,89.2461 C68.5201,89.2461 69.0431,89.7691 69.0431,90.4131" id="Fill-12" fill="#D20050"></path>
    </g>
</svg>