<?xml version="1.0" encoding="UTF-8"?>
<svg width="120px" height="120px" viewBox="0 0 120 120" version="1.1" xmlns="http://www.w3.org/2000/svg" xmlns:xlink="http://www.w3.org/1999/xlink">
    <title>02.Icons/Illustrative/01. Profils/Paramedical</title>
    <g id="02.Icons/Illustrative/01.-Profils/Paramedical" stroke="none" stroke-width="1" fill="none" fill-rule="evenodd">
        <path d="M52.1686,101.4709 L52.1666,101.4709 C30.5356,101.4709 12.9996,84.2189 12.9996,62.9369 L12.9996,19.4499 L12.9996,17.9999 C16.0626,21.3539 22.2106,24.2099 34.6926,24.4039 L52.1686,24.4039 C73.7996,24.4039 91.3346,41.6549 91.3346,62.9369 C91.3346,84.2189 73.7996,101.4709 52.1686,101.4709" id="Fill-1" fill="#F2F3F7"></path>
        <path d="M26.6451,53.0095 L26.6451,96.2015 C26.6451,99.6345 29.4371,102.4275 32.8701,102.4275 L52.4891,102.4275 C55.5661,102.4275 58.1211,100.1815 58.6201,97.2435 L63.1361,97.2435 C63.6341,100.1815 66.1891,102.4275 69.2661,102.4275 L88.8861,102.4275 C92.3181,102.4275 95.1111,99.6345 95.1111,96.2015 L95.1101,53.0095 C95.1101,50.4125 94.2881,47.9485 92.7961,46.0695 C90.0461,42.6095 88.4701,37.6325 88.4701,32.4185 C88.4701,30.1625 88.7551,27.9615 89.3181,25.8765 C89.7641,24.2235 89.4291,22.5055 88.4001,21.1625 C87.3941,19.8495 85.8661,19.0964712 84.2081,19.0964712 L77.6951,19.0964712 C77.5571,19.0955 77.4181,19.1205 77.2821,19.1785 C77.2801,19.1795 77.2771,19.1805 77.2741,19.1815 C77.2721,19.1825 77.2721,19.1825 77.2701,19.1835 C57.4361,27.4815 44.7711,19.3535 44.6471,19.2715 C44.6191,19.2535 44.5871,19.2505 44.5591,19.2345 C44.4991,19.2035 44.4401,19.1795 44.3751,19.1605 C44.3031,19.1375 44.2331,19.1215 44.1601,19.1155 C44.1291,19.1125 44.1021,19.0975 44.0711,19.0975 L37.5491,19.0975 C35.8901,19.0975 34.3631,19.8505 33.3571,21.1625 C32.3281,22.5065 31.9931,24.2245 32.4401,25.8775 C33.0011,27.9615 33.2871,30.1625 33.2871,32.4185 C33.2871,37.6335 31.7101,42.6095 28.9611,46.0705 C27.4681,47.9485 26.6461,50.4125 26.6461,53.0095 L26.6451,53.0095 Z" id="Fill-4" fill="#FFFFFF"></path>
        <path d="M64.024,88.385 L94.468,88.385 L94.468,74.523 L64.024,74.523 L64.024,88.385 Z M27.866,88.385 L57.603,88.385 L57.603,74.523 L27.866,74.523 L27.866,88.385 Z" id="Fill-7" fill="#1D71B8"></path>
        <path d="M35.3687,32.4184 C35.3687,29.9804 35.0587,27.5964 34.4487,25.3334 C34.1737,24.3124 34.3777,23.2534 35.0087,22.4294 C35.6167,21.6364 36.5417,21.1804 37.5467,21.1804 L42.9887,21.1804 C43.0817,27.2714 46.9997,35.5484 53.2837,38.4984 C55.3177,39.4534 56.6307,41.6014 56.6307,43.9714 L56.6307,74.3124 L28.7287,74.3124 L28.7287,53.0094 C28.7287,50.8814 29.3897,48.8764 30.5897,47.3664 C33.6257,43.5444 35.3687,38.0964 35.3687,32.4184 Z M59.7317,25.0524 C64.4867,25.0524 70.1847,24.1694 76.6567,21.6574 C76.3687,27.0824 72.8017,34.1624 67.5847,36.6124 C64.8247,37.9094 63.0407,40.7984 63.0407,43.9714 L63.0407,95.1604 L58.7137,95.1604 L58.7137,43.9714 C58.7137,40.7984 56.9297,37.9084 54.1687,36.6124 C49.0317,34.2004 45.4907,27.2944 45.1077,21.9044 C47.5257,23.1014 52.5597,25.0524 59.7317,25.0524 Z M84.2077,21.1804 C85.2127,21.1804 86.1377,21.6364 86.7467,22.4294 C87.3777,23.2544 87.5817,24.3124 87.3067,25.3334 C86.6967,27.5964 86.3867,29.9794 86.3867,32.4184 C86.3867,38.0954 88.1287,43.5434 91.1647,47.3664 C92.3657,48.8774 93.0277,50.8814 93.0277,53.0094 L93.0277,74.3124 L65.1247,74.3124 L65.1247,43.9714 C65.1247,41.6014 66.4387,39.4534 68.4707,38.4984 C74.7537,35.5484 78.6727,27.2714 78.7667,21.1804 L84.2077,21.1804 Z M88.8867,100.3444 L69.2667,100.3444 C66.9827,100.3444 65.1257,98.4854 65.1257,96.2014 L65.1257,89.8584 L93.0287,89.8584 L93.0287,96.2014 C93.0277,98.4854 91.1707,100.3444 88.8867,100.3444 Z M65.1237,87.7754 L93.0267,87.7754 L93.0267,76.3954 L65.1237,76.3954 L65.1237,87.7754 Z M52.4897,100.3444 L32.8697,100.3444 C30.5857,100.3444 28.7287,98.4854 28.7287,96.2014 L28.7287,89.8584 L56.6317,89.8584 L56.6317,96.2014 C56.6317,98.4854 54.7737,100.3444 52.4897,100.3444 Z M28.7277,87.7754 L56.6307,87.7754 L56.6307,76.3954 L28.7277,76.3954 L28.7277,87.7754 Z M26.6447,53.0094 L26.6447,96.2014 C26.6447,99.6344 29.4377,102.4274 32.8697,102.4274 L52.4897,102.4274 C55.5657,102.4274 58.1207,100.1814 58.6197,97.2434 L63.1357,97.2434 C63.6337,100.1814 66.1887,102.4274 69.2657,102.4274 L88.8857,102.4274 C92.3187,102.4274 95.1107,99.6344 95.1107,96.2014 L95.1097,53.0094 C95.1097,50.4124 94.2877,47.9484 92.7957,46.0694 C90.0467,42.6094 88.4697,37.6324 88.4697,32.4184 C88.4697,30.1624 88.7557,27.9624 89.3177,25.8764 C89.7637,24.2234 89.4287,22.5054 88.3997,21.1624 C87.3947,19.8494 85.8667,19.0972892 84.2077,19.0972892 L77.6947,19.0972892 C77.5567,19.0954 77.4177,19.1204 77.2827,19.1784 C77.2797,19.1794 77.2767,19.1804 77.2737,19.1824 C77.2727,19.1824 77.2717,19.1824 77.2697,19.1834 C57.4367,27.4814 44.7717,19.3534 44.6467,19.2714 C44.6187,19.2534 44.5877,19.2514 44.5587,19.2354 C44.4997,19.2034 44.4397,19.1794 44.3747,19.1604 C44.3027,19.1374 44.2337,19.1214 44.1597,19.1154 C44.1297,19.1134 44.1017,19.0972892 44.0717,19.0972892 L37.5487,19.0972892 C35.8897,19.0972892 34.3627,19.8504 33.3577,21.1624 C32.3287,22.5064 31.9937,24.2244 32.4397,25.8774 C33.0017,27.9614 33.2867,30.1624 33.2867,32.4184 C33.2867,37.6334 31.7097,42.6104 28.9607,46.0704 C27.4687,47.9484 26.6457,50.4124 26.6457,53.0094 L26.6447,53.0094 Z" id="Fill-9" fill="#343852"></path>
        <path d="M69.7819,57.7158 L69.7819,64.2338 C69.7819,64.8098 70.2479,65.2758 70.8239,65.2758 L74.7749,65.2758 L74.7749,69.2258 C74.7749,69.8018 75.2409,70.2678 75.8169,70.2678 L82.3349,70.2678 C82.9109,70.2678 83.3769,69.8028 83.3769,69.2258 L83.3769,65.2748 L87.3279,65.2748 C87.9039,65.2748 88.3699,64.8098 88.3699,64.2328 L88.3699,57.7148 C88.3699,57.1398 87.9039,56.6728 87.3279,56.6728 L83.3769,56.6728 L83.3759,52.7238 C83.3759,52.1478 82.9099,51.6818 82.3339,51.6818 L75.8169,51.6818 C75.2419,51.6818 74.7749,52.1478 74.7749,52.7238 L74.7749,56.6748 L70.8239,56.6748 C70.2479,56.6738 69.7819,57.1408 69.7819,57.7158 Z" id="Fill-10" fill="#D20050"></path>
        <path d="M71.8645,58.7577 L75.8155,58.7577 C76.3915,58.7577 76.8575,58.2917 76.8575,57.7157 L76.8575,53.7647 L81.2925,53.7647 L81.2925,57.7157 C81.2925,58.2917 81.7595,58.7577 82.3345,58.7577 L86.2855,58.7577 L86.2855,63.1927 L82.3345,63.1927 C81.7595,63.1927 81.2925,63.6587 81.2925,64.2347 L81.2925,68.1847 L76.8575,68.1847 L76.8575,64.2337 C76.8575,63.6587 76.3915,63.1917 75.8155,63.1917 L71.8645,63.1917 L71.8645,58.7577 Z M69.7815,57.7157 L69.7815,64.2337 C69.7815,64.8097 70.2475,65.2757 70.8235,65.2757 L74.7745,65.2757 L74.7745,69.2267 C74.7745,69.8017 75.2405,70.2677 75.8165,70.2677 L82.3345,70.2677 C82.9105,70.2677 83.3765,69.8027 83.3765,69.2267 L83.3765,65.2747 L87.3275,65.2747 C87.9035,65.2747 88.3695,64.8097 88.3695,64.2327 L88.3695,57.7147 C88.3695,57.1397 87.9035,56.6727 87.3275,56.6727 L83.3765,56.6727 L83.3755,52.7237 C83.3755,52.1477 82.9095,51.6817 82.3335,51.6817 L75.8165,51.6817 C75.2405,51.6817 74.7745,52.1477 74.7745,52.7237 L74.7745,56.6747 L70.8235,56.6747 C70.2475,56.6737 69.7815,57.1407 69.7815,57.7157 Z" id="Fill-11" fill="#343852"></path>
    </g>
</svg>