<?xml version="1.0" encoding="utf-8"?>
<!-- Generator: Adobe Illustrator 27.0.0, SVG Export Plug-In . SVG Version: 6.00 Build 0)  -->
<svg version="1.1" xmlns="http://www.w3.org/2000/svg" xmlns:xlink="http://www.w3.org/1999/xlink" x="0px" y="0px"
	 viewBox="0 0 1080 829" style="enable-background:new 0 0 1080 829;" xml:space="preserve">
<style type="text/css">
	.st0{fill:#000091;}
	.st1{fill:#E1000F;}
	.st2{fill:#9D9D9C;}
	.st3{display:none;}
	.st4{display:inline;fill:none;stroke:#000000;stroke-width:1.3506;stroke-miterlimit:10;}
	.st5{display:inline;fill:none;stroke:#000000;stroke-width:1.8466;stroke-miterlimit:10;}
</style>
<g id="CREA">
	<g>
		<path d="M290.5,723.9c1.7,0,3.2,1.3,2.4,4.6l-8,1.9C286.4,726.6,288.7,723.9,290.5,723.9 M294.9,736.7h-1.6
			c-2,2.4-4.1,4.2-6.3,4.2c-2.2,0-3.3-1.3-3.3-4.2c0-1.2,0.1-2.4,0.4-3.5L297,729c2.5-5.9-0.5-8.5-4-8.5c-6.1,0-13,10.1-13,19
			c0,4,1.9,6.2,4.9,6.2C288.3,745.6,292,742.2,294.9,736.7 M292.4,718.1l9-8.4v-1h-4.9l-5.6,9.4H292.4z M264.7,724h4.3l-6.8,18.5
			c-0.6,1.6,0.2,3.1,1.9,3.1c3.8,0,10-3.8,12.2-9h-1.2c-1.7,1.8-5,4.2-7.8,4.7l6.2-17.4h6.3l0.8-2.6h-6.2l2.4-6.7h-2.5l-4.4,6.7
			l-5.2,0.7V724z M258.9,723.1c0.5-1.7-0.6-2.7-1.5-2.7c-3.7,0-8.1,3.3-9.9,8h1.2c1.2-1.7,3.2-3.6,5.1-3.9l-7.1,18.4
			c-0.6,1.7,0.6,2.7,1.5,2.7c3.5,0,7.6-3.4,9.4-8h-1.2c-1.2,1.7-3.2,3.6-5.1,3.9L258.9,723.1z M260.2,713.9c1.7,0,3.1-1.3,3.1-3.1
			c0-1.7-1.4-3.1-3.1-3.1c-1.7,0-3.1,1.4-3.1,3.1C257.2,712.5,258.5,713.9,260.2,713.9 M219.4,742.2c-0.9,2.1,0,3.4,2.1,3.4
			c1.3,0,1.8-0.3,2.3-1.7l4.9-13c2.3-2.8,6.9-5.7,8.8-5.7c1.3,0,1.2,1.1,0.3,2.8l-7.5,14.5c-0.7,1.4,0.2,3.1,1.9,3.1
			c3.7,0,8.1-3.3,9.9-8h-1.2c-1.2,1.7-3.2,3.6-5.1,3.9l6.5-13.1c0.8-1.7,1.3-3.2,1.3-4.5c0-2.1-1.2-3.5-3.4-3.5
			c-3.2,0-6.4,3.6-10.3,8.1v-3.4c0-2.5-0.8-4.6-3-4.6c-1.4,0-2.7,1.2-4,2.9v0.5c2.4-0.1,3.5,3.5,1.8,7.3L219.4,742.2z M219.3,726.1
			c0.9-3,0.4-5.6-1.9-5.6c-2.7,0-3.4,2.1-6.2,8.1v-3.4c0-2.5-0.8-4.6-3-4.6c-2.6,0-5,4-6.8,8h1.2c1.3-1.8,2.4-2.9,3.3-2.9
			c1.1,0,1.7,1.7,0,5.5l-5,11.1c-0.9,2.1,0,3.4,2.1,3.4c1.3,0,1.8-0.3,2.3-1.7l4.9-13c1.4-1.7,2.6-3.2,4.2-4.9H219.3z M190.9,723.9
			c1.7,0,3.2,1.3,2.4,4.6l-8,1.9C186.7,726.6,189.1,723.9,190.9,723.9 M195.3,736.7h-1.6c-2,2.4-4.1,4.2-6.3,4.2
			c-2.2,0-3.3-1.3-3.3-4.2c0-1.2,0.1-2.4,0.4-3.5l12.8-4.2c2.5-5.9-0.5-8.5-4-8.5c-6.1,0-13,10.1-13,19c0,4,1.9,6.2,4.9,6.2
			C188.7,745.6,192.3,742.2,195.3,736.7 M165.1,724h4.3l-6.8,18.5c-0.6,1.6,0.2,3.1,1.9,3.1c3.8,0,10-3.8,12.2-9h-1.2
			c-1.7,1.8-5,4.2-7.8,4.7l6.2-17.4h6.3l0.8-2.6h-6.2l2.4-6.7h-2.5l-4.4,6.7l-5.2,0.7V724z M141.7,738.4c0-5.7,6.3-13.4,9.9-13.4
			c0.8,0,1.5,0.1,2.2,0.3l-3.7,9.9c-2.1,2.6-5.4,5.7-6.9,5.7C142.2,740.9,141.7,740.1,141.7,738.4 M161.2,719.4l-1.9-0.1l-2.2,2.1
			h-0.5c-10.6,0-19.7,11.9-19.7,20.5c0,2.4,1.5,3.8,3.8,3.8c2.7,0,5.4-3.9,8.4-8.1l-0.1,1.5c-0.4,4.3,0.9,6.6,3.1,6.6
			c2.6,0,5-4,6.8-8h-1.2c-1.3,1.8-2.4,2.9-3.3,2.9c-1,0-1.7-1.8,0-5.5L161.2,719.4z M138.7,726.1c0.9-3,0.4-5.6-1.9-5.6
			c-2.7,0-3.4,2.1-6.2,8.1v-3.4c0-2.5-0.8-4.6-3-4.6c-2.6,0-5,4-6.8,8h1.2c1.3-1.8,2.4-2.9,3.3-2.9c1.1,0,1.7,1.7,0,5.5l-5,11.1
			c-0.9,2.1,0,3.4,2.1,3.4c1.3,0,1.8-0.3,2.3-1.7l4.9-13c1.4-1.7,2.6-3.2,4.2-4.9H138.7z M103.2,744.7l0.5-1.4
			c-6.2-1.2-6.9-1.2-4.5-7.9l2.5-6.9h6.8c3.1,0,3.1,1.3,2.6,4.6h1.8l4.1-11.2h-1.8c-1.5,2.6-2.7,4.6-6.1,4.6h-6.7l3.6-9.8
			c1.1-3.1,1.8-3.8,5.9-3.8h3c4.3,0,4.8,1.2,4.8,5.5h1.7l1.4-7.6H97.3l-0.5,1.4c5,1,5.4,1.5,3.1,7.9l-5.6,15.2
			c-2.3,6.3-3.3,6.9-9,7.9l-0.4,1.4H103.2z"/>
		<path d="M228.5,666c1.7,0,3.2,1.3,2.4,4.6l-8,1.9C224.3,668.7,226.7,666,228.5,666 M232.9,678.8h-1.6c-2,2.4-4.1,4.2-6.3,4.2
			c-2.2,0-3.3-1.3-3.3-4.2c0-1.2,0.1-2.4,0.4-3.5l12.8-4.2c2.5-5.9-0.5-8.5-4-8.5c-6.1,0-13,10.1-13,19c0,4,1.9,6.2,4.9,6.2
			C226.3,687.7,230,684.4,232.9,678.8 M230.4,660.2l9-8.4v-1h-4.9l-5.6,9.4H230.4z M202.7,666.1h4.3l-6.8,18.5
			c-0.6,1.6,0.2,3.1,1.9,3.1c3.8,0,10-3.8,12.2-9H213c-1.7,1.8-5,4.2-7.8,4.7l6.2-17.4h6.3l0.8-2.6h-6.2l2.4-6.7h-2.5l-4.4,6.7
			l-5.2,0.7V666.1z M196.9,665.2c0.5-1.7-0.6-2.7-1.5-2.7c-3.7,0-8.1,3.3-9.9,8h1.2c1.2-1.7,3.2-3.6,5.1-3.9l-7.1,18.4
			c-0.6,1.7,0.6,2.7,1.5,2.7c3.5,0,7.6-3.4,9.4-8h-1.2c-1.2,1.7-3.2,3.6-5.1,3.9L196.9,665.2z M198.2,656c1.7,0,3.1-1.3,3.1-3.1
			c0-1.7-1.4-3.1-3.1-3.1c-1.7,0-3.1,1.4-3.1,3.1C195.2,654.6,196.5,656,198.2,656 M173.6,683.7l12.9-33.9l-0.4-0.5l-8.1,0.9v1
			l1.6,1.2c1.4,1.1,1,2.2-0.3,5.6l-10.1,26.6c-0.7,1.4,0.2,3.1,1.9,3.1c3.7,0,7.6-3.3,9.4-8h-1.2C178,681.4,175.5,683.3,173.6,683.7
			 M149.1,680.5c0-5.7,6.3-13.4,9.9-13.4c0.8,0,1.5,0.1,2.2,0.3l-3.7,9.9c-2.1,2.6-5.4,5.7-6.9,5.7
			C149.6,683,149.1,682.2,149.1,680.5 M168.5,661.5l-1.9-0.1l-2.2,2.1H164c-10.6,0-19.7,11.9-19.7,20.5c0,2.4,1.5,3.8,3.8,3.8
			c2.7,0,5.4-3.9,8.4-8.1l-0.1,1.5c-0.4,4.3,0.9,6.6,3.1,6.6c2.6,0,5-4,6.8-8h-1.2c-1.3,1.8-2.4,2.9-3.3,2.9c-1,0-1.7-1.8,0-5.5
			L168.5,661.5z M121.4,692.2c0-2.5,2.4-4,5.7-5.3c1.1,0.6,2.8,1.2,5,1.9c3.5,1.2,4.9,1.6,4.9,2.7c0,2.3-3.8,4-9.1,4
			C123.5,695.5,121.4,694.6,121.4,692.2 M131,677.3c-1.5,0-2.1-1.3-2.1-2.8c0-4.1,2.2-10.2,5.7-10.2c1.5,0,2.1,1.3,2.1,2.8
			C136.7,671.2,134.5,677.3,131,677.3 M141,690c0-3-2.6-4-6.9-5.3c-3.7-1.1-5.4-1.4-5.4-2.6c0-1,0.8-2.1,2.4-3
			c6.1-0.3,10-5.8,10-10.4c0-1-0.2-1.8-0.5-2.5h5.1l0.8-2.6h-8.2c-1-0.6-2.1-0.9-3.3-0.9c-6.4,0-10.6,5.6-10.6,10.2
			c0,3.5,2.2,5.6,4.9,6.2c-3,1.3-4.7,2.9-4.7,4.8c0,1.1,0.4,1.8,1.3,2.5c-6.9,2-9.7,4.4-9.7,7.6c0,3.2,4.2,4.5,9.2,4.5
			C134,698.4,141,693.8,141,690 M108.7,670.1c3.1,0,3.1,1.3,2.6,4.6h1.8l4.1-11.2h-1.8c-1.5,2.6-2.7,4.6-6.1,4.6h-6.7l3.4-9.3
			c1.1-3.1,1.8-3.7,5.9-3.7h3c4.3,0,4.8,1.2,4.8,5.5h1.7l1.4-7.6H97.3l-0.5,1.4c5,1,5.4,1.5,3.1,7.9l-5.6,15.2
			c-2.3,6.3-3.3,6.9-9,7.9l-0.4,1.4h28.4l5.1-8.1h-1.9c-3.2,3.1-7.3,6-13,6c-7.5,0-6.9-0.3-4.4-7.2l2.7-7.4H108.7z M112.4,650.7
			l9-6.2v-1h-5.5l-5,7.2H112.4z"/>
		<path d="M225.5,608.1c1.7,0,3.2,1.3,2.4,4.6l-8,1.9C221.3,610.8,223.7,608.1,225.5,608.1 M229.9,620.9h-1.6
			c-2,2.4-4.1,4.2-6.3,4.2c-2.2,0-3.3-1.3-3.3-4.2c0-1.2,0.1-2.4,0.4-3.5l12.8-4.2c2.5-5.9-0.5-8.5-4-8.5c-6.1,0-13,10.1-13,19
			c0,4,1.9,6.2,4.9,6.2C223.3,629.9,226.9,626.5,229.9,620.9 M227.4,602.3l9-8.4v-1h-4.9l-5.6,9.4H227.4z M200.8,608.2h3.4
			l-6.8,18.5c-0.6,1.6,0.2,3.1,1.9,3.1c3.8,0,10-3.8,12.2-9h-1.2c-1.7,1.8-5,4.2-7.8,4.7l6.2-17.4h6.3l0.8-2.6h-6.2l2.4-6.7h-2.5
			l-4.4,6.7l-4.4,0.7V608.2z M197.5,610.3c0.9-3,0.4-5.6-1.9-5.6c-2.7,0-3.4,2.1-6.2,8.1v-3.4c0-2.5-0.8-4.6-3-4.6c-2.6,0-5,4-6.8,8
			h1.2c1.3-1.8,2.4-2.9,3.3-2.9c1.1,0,1.7,1.7,0,5.5l-5,11.1c-0.9,2.1,0,3.4,2.1,3.4c1.3,0,1.8-0.3,2.3-1.7l4.9-13
			c1.4-1.7,2.6-3.2,4.2-4.9H197.5z M169.1,608.1c1.7,0,3.2,1.3,2.4,4.6l-8,1.9C164.9,610.8,167.2,608.1,169.1,608.1 M173.5,620.9
			h-1.6c-2,2.4-4.1,4.2-6.3,4.2c-2.2,0-3.3-1.3-3.3-4.2c0-1.2,0.1-2.4,0.4-3.5l12.8-4.2c2.5-5.9-0.5-8.5-4-8.5c-6.1,0-13,10.1-13,19
			c0,4,1.9,6.2,4.9,6.2C166.9,629.9,170.5,626.5,173.5,620.9 M142,626.1c-1.3,0-3.1-1.2-3.1-2.2c0-0.3,0.6-1.8,1.3-3.6l2.1-5.5
			c2.2-2.6,5.6-5.5,7.5-5.5c1.2,0,2,0.7,2,2.5C151.8,616.9,147.1,626.1,142,626.1 M156.6,609.8c0-3.8-1.4-5.1-4-5.1
			c-3.2,0-6.3,3.4-9.4,7.6l7.7-20.3l-0.4-0.5l-8.1,0.9v1l1.6,1.2c1.4,1.1,1,2.3-0.3,5.6l-8.3,21.5c-0.6,1.6-1.3,3.4-1.3,3.9
			c0,2.2,3,4.3,5.7,4.3C146.1,629.9,156.6,618.5,156.6,609.8 M131.4,607.4c0.5-1.7-0.6-2.7-1.5-2.7c-3.7,0-8.1,3.3-9.9,8h1.2
			c1.2-1.7,3.2-3.6,5.1-3.9l-7.1,18.4c-0.6,1.7,0.6,2.7,1.5,2.7c3.5,0,7.6-3.4,9.4-8H129c-1.2,1.7-3.2,3.6-5.1,3.9L131.4,607.4z
			 M132.7,598.1c1.7,0,3.1-1.3,3.1-3.1c0-1.7-1.4-3.1-3.1-3.1c-1.7,0-3.1,1.4-3.1,3.1C129.7,596.8,131,598.1,132.7,598.1 M114,595.1
			H97.2l-0.5,1.4c5,1,5.4,1.5,3.1,7.9l-5.5,15.2c-2.3,6.3-3.3,6.9-9,7.9l-0.4,1.4h25.7l5.6-9.9h-1.9c-3.1,3.5-6.9,7.8-12.5,7.8
			c-4.3,0-4.8-0.7-2.5-7.2l5.5-15.2c2.3-6.3,3.3-6.9,9-7.9L114,595.1z"/>
		<g>
			<path class="st0" d="M179.1,157.8c0.9-0.9,1.8-1.9,2.7-2.8h0c1.7-1.9,3.3-3.7,5.3-5.4c0.6-0.5,1.2-1,1.7-1.4
				c0.2-0.2,0.2-0.5,0.3-0.6c-0.8,0.3-1.3,1-2.1,1.3c-0.2,0-0.3-0.2-0.2-0.3c0.6-0.4,1.1-0.8,1.7-1.3c0,0-0.1,0-0.1,0
				c-0.2,0-0.2-0.2-0.2-0.3c-2.1-0.3-3.6,1.1-5.1,2.4c-0.3,0.2-0.6-0.2-0.8-0.2c-2.4,0.8-4.1,2.9-6.5,3.8c0-0.2,0-0.2,0-0.3
				c-1,0.3-1.9,0.9-2.9,1.1c-1.4,0.3-2.7,0.2-4,0.2c-1.9,0.2-3.8,0.6-5.8,1c-0.1,0-0.1,0-0.2,0c-1,0.3-2,0.7-3,1.2
				c0,0-0.1,0-0.1,0.1c-0.1,0.1-0.2,0.2-0.2,0.3c-0.3,0.4-0.6,0.7-1.1,0.9c-1,0.5-1.8,1.4-2.6,2.1c-0.1,0.1-0.2,0.1-0.3,0.1
				c-0.9,0.8-1.7,1.6-2.6,2.4c-0.1,0.1-0.3,0.1-0.5,0.1c0,0,0,0,0,0c0-0.1,0.1-0.1,0.1-0.2c0.1-0.2,0.3-0.4,0.4-0.7
				c0.2-0.2,0.3-0.5,0.5-0.7c0.2-0.3,0.4-0.7,0.7-1c0.1-0.1,0-0.2,0-0.2c-0.1-0.1-0.1-0.1-0.2-0.1c0.8-0.8,1.7-1.4,2.7-2
				c0,0,0,0,0,0c-0.1,0-0.3,0-0.2-0.2c0.1-0.1,0.2-0.3,0.3-0.4c0,0,0-0.1,0.1-0.1c0,0-0.1-0.1-0.1-0.1c-0.3,0.2-0.5,0.3-0.7,0.5
				c-0.4,0.3-0.7,1-1.3,1c0,0-0.1,0-0.2,0c-0.1,0-0.1,0-0.2-0.1c0,0,0,0,0,0c0,0,0,0,0,0c0,0,0,0,0,0c0,0,0-0.1,0.1-0.1
				c0,0,0.1-0.1,0.1-0.1c0,0,0-0.1,0.1-0.1c0-0.1,0.1-0.1,0.1-0.2c0,0,0.1-0.1,0.1-0.1c0.1-0.1,0.1-0.2,0.2-0.3
				c0-0.1,0.1-0.1,0.1-0.2c0.1-0.1,0.1-0.2,0.2-0.3c0.1-0.1,0-0.2-0.1-0.3c0.3-0.4,0.7-0.7,1.1-0.9h0c0.6-0.3,1.2-0.7,1.8-1
				c0.1-0.1,0.2-0.2,0.3-0.2c-0.9,0.3-1.7,0.7-2.5,1.2c0,0-0.2,0.1-0.3,0.1c0,0-0.2,0.1-0.4-0.1c0,0,0-0.1,0-0.1
				c0.2-0.3,0.6-0.5,1-0.8c0.2,0,0.3,0,0.3,0.2c5.1-4,12-3,17.9-5.1c0.5-0.3,1-0.6,1.4-1c0.8-0.3,1.4-1.1,2.4-1.6
				c1.3-1,2.2-2.1,2.7-3.6c0-0.2-0.2-0.3-0.2-0.3c-2.1,2.2-4.4,4-7,5.2c-3.3,1.7-7,1.4-10.5,1.9c0.2-0.3,0.5-0.3,0.8-0.3
				c0-0.5,0.3-0.6,0.6-1c0.2,0,0.3,0,0.5,0c0.2,0,0.2-0.3,0.3-0.3c0.3,0,0.8-0.2,0.6-0.2c-0.5-0.6-1.4,0.5-2.2,0
				c0.3-0.3,0.2-0.8,0.5-1c0.2,0,0.5,0,0.6,0c0-0.3,0.3-0.6,0.3-0.6c2.4-1.4,4.6-2.5,6.8-3.8c-0.5,0-0.8,0.5-1.3,0.2
				c0.3,0,0-0.5,0.3-0.5c1.7-0.5,3.2-1.4,4.9-2.1c-0.6,0-1.1,0.5-1.7,0c0.3-0.2,0.5-0.5,1-0.5c0-0.2,0-0.3,0-0.5
				c0-0.2,0.2-0.2,0.3-0.2c-0.2,0-0.3-0.2-0.3-0.2c0.2-0.3,0.6-0.2,1-0.5c-0.2,0-0.5,0-0.5-0.2c0.5-0.6,1.3-0.8,2.1-1
				c-0.2-0.3-0.6,0-0.6-0.3c0-0.2,0.2-0.2,0.3-0.2c-0.2,0-0.2,0-0.3,0c-0.3-0.2-0.2-0.5-0.2-0.6c1-1.1,1-2.5,1.4-3.8
				c-0.2,0-0.3,0-0.3-0.2c-1.6,1.7-4.1,2.4-6.5,3c-0.2,0-0.6,0-0.8,0c-0.8,0.3-1.9,0.3-2.7-0.2c-0.6-0.3-1-0.8-1.6-1.3
				c-1.3-0.8-2.5-1.4-4-1.9c-4-1.3-8.1-1.9-12.2-1.7c1.7-1,3.7-1,5.5-1.6c2.7-0.8,5.2-1.7,8.1-1.6c-0.5-0.2-1.1,0-1.6,0
				c-2.2-0.2-4.4,0.5-6.8,1c-1.6,0.3-3,1-4.6,1.3c-1,0.3-1.4,1.3-2.5,1.1c0,0,0-0.3,0-0.5c1.6-1.9,3.5-3.8,6-4
				c2.9-0.5,5.5,0,8.4,0.3c2.1,0.2,4,0.6,6,1.1c0.8,0,1,1.3,1.6,1.4c1,0.3,1.9,0,2.9,0.6c0-0.3-0.2-0.6,0-1c0.6-0.6,1.4,0.2,2.1-0.2
				c1.3-0.8-1.1-2.2-1.7-3.3c0-0.2,0.2-0.3,0.2-0.3c1.3,1.1,2.2,2.4,3.8,3.2c0.8,0.3,2.7,0.8,2.4-0.2c-0.8-1.7-2.4-3.2-3.6-4.8
				c0-0.2,0-0.5,0-0.6c-0.3,0-0.3-0.2-0.5-0.3c0-0.2,0-0.5,0-0.6c-0.6-0.3-0.5-1-0.8-1.4c-0.5-0.8-0.2-1.9-0.5-2.9
				c-0.3-1-0.5-1.7-0.6-2.7c-0.5-2.7-1.1-5.1-1.4-7.6c-0.3-3,1.7-5.4,3.2-8.1c1.1-1.9,2.4-3.8,4.4-5.1c0.5-1.9,1.7-3.5,3-5.1
				c1.3-1.5,3.4-2.5,4.9-3.2c2.2-1,4.2-1.6,4.2-1.6H83.8v83.9h77c3-2.2,6-3.2,10.2-5.3C173,161.4,177.6,159.3,179.1,157.8z
				 M154.8,146.4c-0.3,0-1,0.2-0.8-0.2c0.2-0.8,1.3-0.8,1.9-1.1c0.3-0.2,0.8-0.5,1.1-0.3c0.3,0.5,0.8,0.3,1.1,0.6
				C157.1,146.4,155.9,145.9,154.8,146.4z M130.5,142.9c0,0-0.2-0.2-0.2-0.3c2.1-2.7,3.6-5.2,5.1-8.1c2.1-1.1,3.8-2.7,5.4-4.4
				c2.7-2.9,5.5-5.4,8.9-7c1.3-0.5,2.9-0.3,4.1,0.2c-0.5,0.6-1.3,0.5-1.9,1c-0.2,0-0.3,0-0.5-0.2c0.2-0.2,0.2-0.3,0.2-0.5
				c-1.6,1.7-3.8,2.5-5.1,4.6c-1,1.6-1.6,3.6-3.6,4.1c-0.6,0.2,0.2-0.5-0.2-0.3C137.8,135,134.3,138.6,130.5,142.9z M143.7,132.5
				c-0.2,0.3-0.3,0.4-0.5,0.6c-0.2,0.3-0.3,0.5-0.6,0.6c-0.2,0-0.3,0-0.3-0.2c0.2-0.6,0.6-1.3,1.3-1.4
				C143.7,132.1,143.7,132.3,143.7,132.5z M151,156.2c-0.1,0.2-0.2,0.3-0.4,0.5c0.2,0,0.3,0.1,0.2,0.2c-0.4,0.3-0.7,0.7-1.2,0.8
				c0,0-0.1,0-0.2,0c-0.2,0.2-0.4,0.4-0.6,0.6c-0.2,0.2-1.1,0-0.8-0.2c0.4-0.4,0.8-0.7,1.2-1.1c0.2-0.2,0.5-0.4,0.7-0.6
				c0.1-0.1,0.2-0.3,0.3-0.4C150.3,156,151.2,155.9,151,156.2z M148.2,154.9C148.2,154.9,148.2,154.9,148.2,154.9
				c-0.6,0.4-1.2,0.9-1.8,1.2c-0.7,0.4-1.4,0.7-2.1,1c0,0,0,0,0,0c-0.1-0.1-0.2-0.1-0.3-0.1c-0.6,0.3-1.1,0.8-1.6,1.2
				c-0.1,0.1-0.1,0.1-0.2,0.2c0,0,0,0,0,0c0,0,0,0,0,0c-0.1,0.1-0.2,0.1-0.2,0.2c0,0,0,0,0,0c0,0,0,0,0,0c-0.1,0.1-0.2,0.2-0.3,0.4
				c-0.1,0.1-0.1,0.2-0.2,0.2c-0.1,0.1-0.4,0.1-0.3-0.1c0,0,0,0,0,0c-0.1,0-0.2,0.1-0.3,0.1c-0.1,0-0.2,0.1-0.2,0.1c0,0-0.1,0-0.1,0
				c0,0-0.1,0-0.1,0c-0.2,0.2-0.4,0.3-0.6,0.5c-0.3,0.3-0.6,0.6-0.9,1c0,0,0,0,0,0c0,0,0,0,0,0c0,0,0,0,0,0.1c0,0,0,0-0.1,0.1
				c0,0,0,0,0,0c0,0.1-0.1,0.1-0.1,0.2c0,0,0,0,0,0c0,0-0.1,0.1-0.1,0.1c0,0,0-0.1-0.1-0.1c0,0,0-0.1,0-0.1c0-0.1-0.1-0.2-0.1-0.3
				c0,0,0,0,0,0c0,0,0-0.1,0-0.1c0.2-0.2,0.3-0.4,0.5-0.6c0,0,0,0,0,0c0.1-0.1,0.1-0.1,0.2-0.2c0.1-0.1,0.2-0.2,0.3-0.3
				c0,0,0.1-0.1,0.1-0.1c0.2-0.2,0.3-0.4,0.5-0.7c0,0,0,0,0,0c0,0,0-0.1,0.1-0.1c0.1-0.1,0.1-0.2,0.2-0.3c0.1-0.1,0.1-0.2,0.2-0.3
				c0,0,0,0,0,0c0,0,0,0,0,0c0,0,0,0,0-0.1c0.1-0.1,0.1-0.2,0.2-0.4c0,0,0,0,0,0c0,0,0-0.1,0-0.1c0-0.1,0-0.1,0-0.2l0,0c0,0,0,0,0,0
				c0-0.1,0-0.2,0.1-0.2c0,0,0-0.1,0-0.1c0.2-0.3,0.4-0.6,0.6-0.9c0,0,0,0-0.1,0c-0.2,0.1-0.4,0.3-0.6,0.5c-0.2,0.1-0.5-0.1-0.3-0.2
				c0.1-0.1,0.2-0.2,0.4-0.3c0,0,0,0,0,0c0.3-0.3,0.5-0.6,0.8-0.8c0.2-0.1,0.3-0.2,0.5-0.4c0,0,0,0,0.1-0.1c0.1-0.1,0.2-0.3,0.4-0.4
				c0,0,0,0,0,0c1.5-1.5,4.1-1.4,6.1-2.3c0.8-0.3,1.7,0.2,2.5,0c0.5,0,1,0,1.4,0.3C150.8,153.2,149.5,154.1,148.2,154.9z
				 M151.4,143.9c-0.2-0.2,0.5,0,0.6-0.3c-0.5,0-0.8,0-1.3,0c-0.2,0-0.2-0.2-0.2-0.3c-0.8,0.2-1.7,0.5-2.5,0.6
				c-1.1,0.3-2.1,1.1-3.3,1.4c-1.7,0.6-3.2,2.1-5.1,2.7c-0.2,0-0.2-0.2-0.2-0.3c0.2-0.5,0.8-0.6,1.1-1.1c0-0.2,0-0.3-0.2-0.3
				c1.3-1.7,3-2.7,4.6-4.1c0-0.2,0-0.3,0-0.5c0.5-0.6,1.3-1,1.6-1.7c0.2-0.5,0.8-1.1,1.6-1.4c-0.2-0.2-0.5-0.2-0.5-0.5
				c-0.6,0-1.3,0.3-1.9-0.2c0.3-0.3,0.6-0.5,1-0.6c-0.1,0-0.3-0.1-0.4-0.2c-0.2-0.3,0.3-0.7,0.8-0.8c0.6-0.2,1.4-0.2,1.9-0.6
				c-1.1-0.2-2.4,0.3-3.5-0.3c0.8-2.1,2.1-3.8,4-4.8c0.2,0,0.5,0,0.5,0.2c0,0.8-0.5,1.4-1.3,1.6c1.3,0.3,2.5,0.3,3.8,1
				c-0.2,0.3-0.5,0.2-0.6,0.2c0.8,0.5,1.7,0.2,2.5,0.8c-0.5,0.5-1,0-1.4,0c4.9,1.4,10.1,2.5,14.3,5.7c-3.5,1.7-7.1,2.5-10.9,3.3
				c-0.5,0-0.8,0-1.3-0.2c0,0.2,0,0.5-0.2,0.5c-0.6,0-1.1,0-1.6,0.3C152.9,144.2,151.9,144.3,151.4,143.9z"/>
			<g>
				<path class="st1" d="M314.4,83.8h-90.2c0,0,0.2,0,0.9,0.4c0.7,0.4,1.7,0.9,2.3,1.2c1.2,0.6,2.3,1.4,3,2.5
					c0.3,0.5,0.8,1.4,0.5,2.1c-0.3,0.8-0.5,2.1-1.3,2.4c-1,0.5-2.2,0.5-3.3,0.3c-0.6,0-1.3-0.2-1.9-0.3c2.4,1,4.6,2.1,6.2,4.3
					c0.2,0.3,0.8,0.5,1.4,0.5c0.2,0,0.2,0.3,0.2,0.5c-0.3,0.3-0.6,0.5-0.5,1c0.2,0,0.3,0,0.5,0c0.8-0.3,0.6-1.9,1.7-1.4
					c0.8,0.5,1.1,1.6,0.6,2.4c-0.6,0.6-1.3,1.1-1.9,1.6c-0.2,0.3-0.2,0.8,0,1.1c0.5,0.6,0.6,1.3,0.8,1.9c0.5,1.1,0.6,2.4,1.1,3.5
					c0.6,2.4,1.3,4.8,1.1,7.1c0,1.3-0.6,2.4-0.2,3.6c0.3,1.3,1.1,2.2,1.7,3.3c0.6,1,1.3,1.6,1.7,2.5c1,1.6,2.7,3.2,1.9,5.1
					c-0.5,1.1-2.2,1-3.3,1.6c-1,0.8-0.2,2.1,0.3,2.9c0.8,1.4-1,2.4-2.1,2.9c0.3,0.5,1,0.3,1.1,0.6c0.2,0.8,1,1.3,0.5,2.1
					c-0.6,1-2.5,1.4-1.6,2.9c0.6,1.1,0.2,2.3-0.2,3.5c-0.5,1.4-1.7,2.1-2.9,2.4c-1,0.3-2.1,0.3-3,0.2c-0.3-0.2-0.6-0.3-1-0.3
					c-2.7-0.3-5.4-1.1-8.1-1.1c-0.8,0.2-1.6,0.3-2.2,0.6c-0.7,0.5-1.4,1.1-1.9,1.7c0,0,0,0,0,0c-0.1,0.1-0.2,0.3-0.3,0.4
					c-0.1,0.1-0.1,0.2-0.2,0.2c0,0.1-0.1,0.1-0.1,0.2c-0.5,0.6-0.9,1.2-1.2,1.8c0,0,0,0.1-0.1,0.1c0,0.1-0.1,0.1-0.1,0.2
					c-0.5,1-0.9,1.9-1.2,2.9c-1.1,3.6-0.6,6.7,0.1,7.5c0.2,0.2,5.2,1.8,8.7,3.3c1.6,0.7,2.8,1.3,3.7,1.9h88.6V83.8z"/>
			</g>
			<path class="st2" d="M229.6,114.4c0.6,0.2,1.6,0.2,1.6,0.5c-0.3,1.3-2.2,1.6-3.2,2.9h-0.5c-0.5,0.3-0.3,1.1-0.8,1.1
				c-0.5-0.2-1,0-1.4,0.2c0.6,0.6,1.4,1.1,2.4,1c0.2,0,0.5,0.3,0.5,0.6c0,0,0.2,0,0.3-0.2c0.2,0,0.3,0,0.3,0.2v0.6
				c-0.5,0.6-1.3,0.3-1.9,0.5c1.3,0.3,2.5,0.3,3.6,0c1-0.3,0-1.9,0.6-2.7c-0.3,0,0-0.5-0.3-0.5c0.3-0.3,0.6-0.8,1-1
				c0.3,0,0.8-0.2,1-0.5c0-0.3-0.6-0.5-0.5-0.8c1-0.6,1.7-1.6,1.4-2.5c-0.2-0.5-1.4-0.5-2.2-0.8c-0.8-0.3-1.7,0-2.7,0.2
				c-0.8,0-1.6,0.5-2.4,0.6c-1.1,0.3-2.1,1-3,1.6c1.1-0.5,2.2-0.6,3.5-1C227.8,114.4,228.6,114.1,229.6,114.4z"/>
		</g>
	</g>
	<g>
		<path d="M98.3,274.8H85.2v-64.4h16.3l15.7,27l15.7-27h16.3v64.4h-13.1v-46.2l-14.4,24.1h-9.2l-14.4-24.1V274.8z"/>
		<path d="M179.4,274.8h-13.1v-64.4h13.1V274.8z"/>
		<path d="M209.5,274.8h-13.1v-64.4h16.7l28.8,46.6v-46.6h13.1v64.4h-16.7l-28.8-46.6V274.8z"/>
		<path d="M285.3,274.8h-13.1v-64.4h13.1V274.8z"/>
		<path d="M320.4,276.6c-5,0-9.5-0.9-13.4-2.6c-3.9-1.7-7.4-4.5-10.4-8.1l9.5-8.7c2,2.5,4.2,4.5,6.7,5.8c2.5,1.4,5,2.1,7.6,2.1
			s4.6-0.7,6.1-2c1.5-1.3,2.2-3.1,2.2-5.4c0-1.8-0.7-3.4-2.1-4.8c-1.4-1.4-4.5-3.2-9.2-5.2c-3.7-1.6-6.4-2.9-8.1-4
			c-1.7-1-3.2-2.1-4.4-3.3c-1.8-1.7-3.2-3.7-4.1-5.8c-0.9-2.2-1.3-4.6-1.3-7.3c0-5.3,2-9.7,5.9-13.3s8.9-5.4,14.9-5.4
			c4.4,0,8.5,0.9,12.3,2.7c3.8,1.8,7.2,4.5,10.3,8.1l-9.6,8.6c-2.1-2.7-4.2-4.7-6.3-6.1c-2.1-1.3-4.3-2-6.5-2
			c-2.3,0-4.1,0.6-5.5,1.9c-1.4,1.3-2.1,2.9-2.1,4.9c0,1.8,0.7,3.3,2.1,4.7c1.4,1.3,4.4,3.1,9.2,5.2c3.7,1.6,6.4,2.9,8.1,4
			c1.7,1,3.2,2.1,4.5,3.3c1.8,1.8,3.2,3.8,4.1,6c0.9,2.2,1.3,4.7,1.3,7.4c-0.1,5.8-2.1,10.5-6.1,14.1
			C331.8,274.8,326.7,276.6,320.4,276.6z"/>
		<path d="M367.4,274.8v-52.5h-19.9v-11.9h52.8v11.9h-19.9v52.5H367.4z"/>
		<path d="M410.9,274.8v-64.4h37.5v10.9H424v15.3h20.8v10.9H424v16.6h24.5v10.9H410.9z M435.9,204.9h-12L412,192.4h13.4L435.9,204.9
			z"/>
		<path d="M475.8,274.8h-13.1v-64.4h19.7c7.1,0,12.7,1.7,16.8,5.2c4.1,3.4,6.1,8.1,6.1,14.1c0,3.9-0.9,7.3-2.7,10.2
			c-1.8,2.9-4.4,5-7.7,6.6l20.1,28.4h-15.4l-17.2-26h-0.1h-6.6V274.8z M491.9,229.4c0-2.5-0.8-4.5-2.3-6c-1.6-1.5-3.7-2.2-6.4-2.2
			h-7.4v16.7h7.4c2.8,0,4.9-0.8,6.4-2.3C491.1,234.1,491.9,232.1,491.9,229.4z"/>
		<path d="M522.4,274.8v-64.4H560v10.9h-24.5v15.3h20.8v10.9h-20.8v16.6H560v10.9H522.4z"/>
		<path d="M144.8,334.6c0,9.1-3.3,16.7-9.8,22.9c-6.5,6.2-14.7,9.3-24.5,9.3H85.2v-64.4h25.3c9.8,0,18,3.1,24.5,9.3
			C141.5,317.9,144.8,325.5,144.8,334.6z M110.7,314.3H98.3v40.7h12.4c5.9,0,10.8-1.9,14.7-5.8c3.9-3.9,5.9-8.7,5.9-14.5
			c0-5.8-1.9-10.7-5.8-14.5C121.6,316.2,116.7,314.3,110.7,314.3z"/>
		<path d="M181.5,356.4c4,0,7.2-1.2,9.5-3.6c2.3-2.4,3.5-5.8,3.5-10.1v-40.3h13.1v39.2c0,8.4-2.3,15-6.9,19.8
			c-4.6,4.8-11,7.2-19.2,7.2c-8.1,0-14.5-2.4-19.1-7.2c-4.6-4.8-6.9-11.4-6.9-19.8v-39.2h13.1v40.3c0,4.3,1.1,7.7,3.5,10.1
			C174.2,355.2,177.4,356.4,181.5,356.4z"/>
		<path d="M259,366.8v-52.5h-19.9v-11.9H292v11.9h-19.9v52.5H259z"/>
		<path d="M315.6,366.8h-13.1v-64.4h19.7c7.1,0,12.7,1.7,16.8,5.2c4.1,3.4,6.1,8.1,6.1,14.1c0,3.9-0.9,7.3-2.7,10.2
			c-1.8,2.9-4.4,5-7.7,6.6l20.1,28.4h-15.4l-17.2-26h-0.1h-6.6V366.8z M331.7,321.4c0-2.5-0.8-4.5-2.3-6c-1.6-1.5-3.7-2.2-6.4-2.2
			h-7.4v16.7h7.4c2.8,0,4.9-0.8,6.4-2.3C330.9,326.1,331.7,324.1,331.7,321.4z"/>
		<path d="M370.8,366.8h-13.9l24.4-64.4h17.1l24.4,64.4h-13.9l-6.2-16.7H377L370.8,366.8z M381,338.9h17.7l-8.8-24.2L381,338.9z"/>
		<path d="M442.4,366.8L418,302.4h13.9l19,50.3l19-50.3h13.9l-24.4,64.4H442.4z"/>
		<path d="M493,366.8h-13.9l24.4-64.4h17.1l24.4,64.4h-13.9l-6.2-16.7h-25.8L493,366.8z M503.2,338.9h17.7l-8.8-24.2L503.2,338.9z"
			/>
		<path d="M567,366.8H554v-64.4H567V366.8z"/>
		<path d="M621.7,354.9v11.9h-37.5v-64.4h13.1v52.5H621.7z"/>
		<path d="M144.8,426.6c0,9.1-3.3,16.7-9.8,22.9c-6.5,6.2-14.7,9.3-24.5,9.3H85.2v-64.4h25.3c9.8,0,18,3.1,24.5,9.3
			C141.5,409.9,144.8,417.5,144.8,426.6z M110.7,406.3H98.3v40.7h12.4c5.9,0,10.8-1.9,14.7-5.8c3.9-3.9,5.9-8.7,5.9-14.5
			c0-5.8-1.9-10.7-5.8-14.5C121.6,408.2,116.7,406.3,110.7,406.3z"/>
		<path d="M156.5,458.8v-64.4H194v10.9h-24.5v15.3h20.8v10.9h-20.8v16.6H194v10.9H156.5z"/>
		<path d="M268.8,446.9v11.9h-37.5v-64.4h13.1v52.5H268.8z"/>
		<path d="M287.9,458.8H274l24.4-64.4h17.1l24.4,64.4H326l-6.2-16.7h-25.8L287.9,458.8z M298.1,430.9h17.7l-8.8-24.2L298.1,430.9z"
			/>
		<path d="M389.9,460.6c-5,0-9.5-0.9-13.4-2.6c-3.9-1.7-7.4-4.5-10.4-8.1l9.5-8.7c2,2.5,4.2,4.5,6.7,5.8c2.5,1.4,5,2.1,7.6,2.1
			s4.6-0.7,6.1-2c1.5-1.3,2.2-3.1,2.2-5.4c0-1.8-0.7-3.4-2.1-4.8c-1.4-1.4-4.5-3.2-9.2-5.2c-3.7-1.6-6.4-2.9-8.1-4
			c-1.7-1-3.2-2.1-4.4-3.3c-1.8-1.7-3.2-3.7-4.1-5.8c-0.9-2.2-1.3-4.6-1.3-7.3c0-5.3,2-9.7,5.9-13.3c4-3.6,8.9-5.4,14.9-5.4
			c4.4,0,8.5,0.9,12.3,2.7c3.8,1.8,7.2,4.5,10.3,8.1l-9.6,8.6c-2.1-2.7-4.2-4.7-6.3-6.1c-2.1-1.3-4.3-2-6.5-2
			c-2.3,0-4.1,0.6-5.5,1.9c-1.4,1.3-2.1,2.9-2.1,4.9c0,1.8,0.7,3.3,2.1,4.7c1.4,1.3,4.4,3.1,9.2,5.2c3.7,1.6,6.4,2.9,8.1,4
			s3.2,2.1,4.5,3.3c1.8,1.8,3.2,3.8,4.1,6c0.9,2.2,1.3,4.7,1.3,7.4c-0.1,5.8-2.1,10.5-6.1,14.1C401.3,458.8,396.2,460.6,389.9,460.6
			z"/>
		<path d="M429.6,458.8h-13.9l24.4-64.4h17.1l24.4,64.4h-13.9l-6.2-16.7h-25.8L429.6,458.8z M439.8,430.9h17.7l-8.8-24.2
			L439.8,430.9z"/>
		<path d="M503.7,458.8h-13.1v-64.4h16.7l28.8,46.6v-46.6h13.1v64.4h-16.7l-28.8-46.6V458.8z"/>
		<path d="M579.6,458.8v-52.5h-19.9v-11.9h52.8v11.9h-19.9v52.5H579.6z"/>
		<path d="M623.1,458.8v-64.4h37.5v10.9h-24.5v15.3h20.8v10.9h-20.8v16.6h24.5v10.9H623.1z M659.6,376.4l-12,12.4h-11.9l10.4-12.4
			H659.6z"/>
		<path d="M85.2,550.8v-64.4h37.5v10.9H98.3v15.3h20.8v10.9H98.3v16.6h24.5v10.9H85.2z"/>
		<path d="M151.7,550.8v-52.5h-19.9v-11.9h52.8v11.9h-19.9v52.5H151.7z"/>
		<path d="M277.7,518.6c0,9.1-3.3,16.7-9.8,22.9c-6.5,6.2-14.7,9.3-24.5,9.3h-25.3v-64.4h25.3c9.8,0,18,3.1,24.5,9.3
			C274.5,501.9,277.7,509.5,277.7,518.6z M243.7,498.3h-12.4v40.7h12.4c5.9,0,10.8-1.9,14.7-5.8c3.9-3.9,5.9-8.7,5.9-14.5
			c0-5.8-1.9-10.7-5.8-14.5C254.5,500.2,249.6,498.3,243.7,498.3z"/>
		<path d="M289.4,550.8v-64.4h37.5v10.9h-24.5v15.3h20.8v10.9h-20.8v16.6h24.5v10.9H289.4z"/>
		<path d="M359.2,552.6c-5,0-9.5-0.9-13.4-2.6c-3.9-1.7-7.4-4.5-10.4-8.1l9.5-8.7c2,2.5,4.2,4.5,6.7,5.8c2.5,1.4,5,2.1,7.6,2.1
			s4.6-0.7,6.1-2c1.5-1.3,2.2-3.1,2.2-5.4c0-1.8-0.7-3.4-2.1-4.8c-1.4-1.4-4.5-3.2-9.2-5.2c-3.7-1.6-6.4-2.9-8.1-4
			c-1.7-1-3.2-2.1-4.4-3.3c-1.8-1.7-3.2-3.7-4.1-5.8c-0.9-2.2-1.3-4.6-1.3-7.3c0-5.3,2-9.7,5.9-13.3c4-3.6,8.9-5.4,14.9-5.4
			c4.4,0,8.5,0.9,12.3,2.7c3.8,1.8,7.2,4.5,10.3,8.1l-9.6,8.6c-2.1-2.7-4.2-4.7-6.3-6.1c-2.1-1.3-4.3-2-6.5-2
			c-2.3,0-4.1,0.6-5.5,1.9c-1.4,1.3-2.1,2.9-2.1,4.9c0,1.8,0.7,3.3,2.1,4.7c1.4,1.3,4.4,3.1,9.2,5.2c3.7,1.6,6.4,2.9,8.1,4
			s3.2,2.1,4.5,3.3c1.8,1.8,3.2,3.8,4.1,6c0.9,2.2,1.3,4.7,1.3,7.4c-0.1,5.8-2.1,10.5-6.1,14.1C370.6,550.8,365.5,552.6,359.2,552.6
			z"/>
		<path d="M434.5,552.6c-5,0-9.5-0.9-13.4-2.6c-3.9-1.7-7.4-4.5-10.4-8.1l9.5-8.7c2,2.5,4.2,4.5,6.7,5.8c2.5,1.4,5,2.1,7.6,2.1
			s4.6-0.7,6.1-2c1.5-1.3,2.2-3.1,2.2-5.4c0-1.8-0.7-3.4-2.1-4.8c-1.4-1.4-4.5-3.2-9.2-5.2c-3.7-1.6-6.4-2.9-8.1-4
			c-1.7-1-3.2-2.1-4.4-3.3c-1.8-1.7-3.2-3.7-4.1-5.8c-0.9-2.2-1.3-4.6-1.3-7.3c0-5.3,2-9.7,5.9-13.3c4-3.6,8.9-5.4,14.9-5.4
			c4.4,0,8.5,0.9,12.3,2.7c3.8,1.8,7.2,4.5,10.3,8.1l-9.6,8.6c-2.1-2.7-4.2-4.7-6.3-6.1c-2.1-1.3-4.3-2-6.5-2
			c-2.3,0-4.1,0.6-5.5,1.9c-1.4,1.3-2.1,2.9-2.1,4.9c0,1.8,0.7,3.3,2.1,4.7c1.4,1.3,4.4,3.1,9.2,5.2c3.7,1.6,6.4,2.9,8.1,4
			s3.2,2.1,4.5,3.3c1.8,1.8,3.2,3.8,4.1,6c0.9,2.2,1.3,4.7,1.3,7.4c-0.1,5.8-2.1,10.5-6.1,14.1C445.9,550.8,440.7,552.6,434.5,552.6
			z"/>
		<path d="M462.4,518.6c0-9.6,3.2-17.6,9.8-24.2c6.5-6.6,14.7-9.8,24.5-9.8c9.8,0,17.9,3.3,24.4,9.8c6.5,6.6,9.8,14.6,9.8,24.2
			c0,9.6-3.3,17.6-9.8,24.2c-6.5,6.6-14.6,9.8-24.4,9.8c-9.8,0-18-3.3-24.5-9.8C465.6,536.2,462.4,528.2,462.4,518.6z M475.8,518.6
			c0,6.3,2,11.5,5.9,15.6c3.9,4.1,8.9,6.2,14.9,6.2c5.9,0,10.9-2.1,14.8-6.2c3.9-4.1,5.9-9.3,5.9-15.6s-2-11.5-5.9-15.6
			c-3.9-4.1-8.9-6.2-14.8-6.2c-6,0-11,2.1-14.9,6.2C477.7,507.1,475.8,512.3,475.8,518.6z"/>
		<path d="M579.8,538.9v11.9h-37.5v-64.4h13.1v52.5H579.8z"/>
		<path d="M603.5,550.8h-13.1v-64.4h13.1V550.8z"/>
		<path d="M680.1,518.6c0,9.1-3.3,16.7-9.8,22.9c-6.5,6.2-14.7,9.3-24.5,9.3h-25.3v-64.4h25.3c9.8,0,18,3.1,24.5,9.3
			C676.9,501.9,680.1,509.5,680.1,518.6z M646.1,498.3h-12.4v40.7h12.4c5.9,0,10.8-1.9,14.7-5.8c3.9-3.9,5.9-8.7,5.9-14.5
			c0-5.8-1.9-10.7-5.8-14.5C656.9,500.2,652,498.3,646.1,498.3z"/>
		<path d="M696.1,550.8h-13.9l24.4-64.4h17.1l24.4,64.4h-13.9L728,534h-25.8L696.1,550.8z M706.3,522.9H724l-8.8-24.2L706.3,522.9z"
			/>
		<path d="M770.2,550.8h-13.1v-64.4h19.7c7.1,0,12.7,1.7,16.8,5.2c4.1,3.4,6.1,8.1,6.1,14.1c0,3.9-0.9,7.3-2.7,10.2
			c-1.8,2.9-4.4,5-7.7,6.6l20.1,28.4h-15.4l-17.2-26h-0.1h-6.6V550.8z M786.3,505.4c0-2.5-0.8-4.5-2.3-6c-1.6-1.5-3.7-2.2-6.4-2.2
			h-7.4v16.7h7.4c2.8,0,4.9-0.8,6.4-2.3C785.5,510.1,786.3,508.1,786.3,505.4z"/>
		<path d="M829.9,550.8h-13.1v-64.4h13.1V550.8z"/>
		<path d="M860.2,550.8v-52.5h-19.9v-11.9h52.8v11.9h-19.9v52.5H860.2z"/>
		<path d="M903.8,550.8v-64.4h37.5v10.9h-24.5v15.3h20.8v10.9h-20.8v16.6h24.5v10.9H903.8z M940.3,468.4l-12,12.4h-11.9l10.4-12.4
			H940.3z"/>
		<path d="M973.6,552.6c-5,0-9.5-0.9-13.4-2.6c-3.9-1.7-7.4-4.5-10.4-8.1l9.5-8.7c2,2.5,4.2,4.5,6.7,5.8c2.5,1.4,5,2.1,7.6,2.1
			s4.6-0.7,6.1-2c1.5-1.3,2.2-3.1,2.2-5.4c0-1.8-0.7-3.4-2.1-4.8c-1.4-1.4-4.5-3.2-9.2-5.2c-3.7-1.6-6.4-2.9-8.1-4
			c-1.7-1-3.2-2.1-4.4-3.3c-1.8-1.7-3.2-3.7-4.1-5.8c-0.9-2.2-1.3-4.6-1.3-7.3c0-5.3,2-9.7,5.9-13.3c4-3.6,8.9-5.4,14.9-5.4
			c4.4,0,8.5,0.9,12.3,2.7c3.8,1.8,7.2,4.5,10.3,8.1l-9.6,8.6c-2.1-2.7-4.2-4.7-6.3-6.1c-2.1-1.3-4.3-2-6.5-2
			c-2.3,0-4.1,0.6-5.5,1.9c-1.4,1.3-2.1,2.9-2.1,4.9c0,1.8,0.7,3.3,2.1,4.7c1.4,1.3,4.4,3.1,9.2,5.2c3.7,1.6,6.4,2.9,8.1,4
			s3.2,2.1,4.5,3.3c1.8,1.8,3.2,3.8,4.1,6c0.9,2.2,1.3,4.7,1.3,7.4c-0.1,5.8-2.1,10.5-6.1,14.1C985,550.8,979.8,552.6,973.6,552.6z"
			/>
	</g>
</g>
<g id="ZONE_x5F_DE_x5F_PROTECTION" class="st3">
	<rect x="84.5" y="84" class="st4" width="830" height="661.5"/>
	<rect y="0.5" class="st5" width="998.5" height="828.5"/>
</g>
</svg>
