<?xml version="1.0" encoding="utf-8"?>
<!-- Generator: Adobe Illustrator 27.6.1, SVG Export Plug-In . SVG Version: 6.00 Build 0)  -->
<svg version="1.1" id="CREA" xmlns="http://www.w3.org/2000/svg" xmlns:xlink="http://www.w3.org/1999/xlink" x="0px" y="0px"
	 viewBox="0 0 995.8 661.8" style="enable-background:new 0 0 995.8 661.8;" xml:space="preserve">
<style type="text/css">
	.st0{fill:#000091;}
	.st1{fill:#E1000F;}
	.st2{fill:#9D9D9C;}
	.st3{enable-background:new    ;}
</style>
<g>
	<path d="M214.2,640.1c1.7,0,3.2,1.3,2.4,4.6l-8,1.8C210.1,642.8,212.4,640.1,214.2,640.1 M218.6,652.9h-1.6c-2,2.4-4.1,4.2-6.2,4.2
		s-3.3-1.3-3.3-4.2c0-1.2,0.1-2.4,0.4-3.5l12.8-4.2c2.5-5.9-0.5-8.5-4-8.5c-6.1,0-13,10.1-13,19c0,4,1.9,6.2,4.9,6.2
		C212.1,661.8,215.7,658.5,218.6,652.9 M216.1,634.3l9-8.4v-1h-4.9l-5.6,9.4L216.1,634.3L216.1,634.3z M188.4,640.2h4.3l-6.8,18.5
		c-0.6,1.6,0.2,3.2,1.9,3.2c3.8,0,10.1-3.8,12.2-9h-1.2c-1.7,1.8-5,4.2-7.8,4.7l6.2-17.4h6.3l0.8-2.6h-6.2l2.4-6.7h-2.4l-4.4,6.7
		l-5.2,0.7L188.4,640.2L188.4,640.2z M182.7,639.3c0.5-1.7-0.6-2.7-1.5-2.7c-3.7,0-8.1,3.3-9.9,8h1.2c1.2-1.7,3.2-3.6,5.1-3.9
		l-7.1,18.4c-0.6,1.7,0.6,2.7,1.5,2.7c3.5,0,7.6-3.4,9.4-8h-1.2c-1.2,1.7-3.2,3.6-5.1,3.9L182.7,639.3L182.7,639.3z M184,630.1
		c1.7,0,3.1-1.3,3.1-3.1s-1.4-3.1-3.1-3.1s-3.1,1.4-3.1,3.1S182.2,630.1,184,630.1 M143.2,658.4c-0.9,2.1,0.1,3.4,2.1,3.4
		c1.2,0,1.8-0.3,2.3-1.7l4.9-13c2.3-2.8,6.9-5.7,8.8-5.7c1.3,0,1.2,1.1,0.3,2.8l-7.6,14.5c-0.7,1.4,0.2,3.2,1.9,3.2
		c3.7,0,8.1-3.3,9.9-8h-1.2c-1.2,1.7-3.2,3.6-5.1,3.9l6.5-13.1c0.8-1.7,1.2-3.2,1.2-4.5c0-2.1-1.2-3.5-3.4-3.5
		c-3.2,0-6.4,3.6-10.3,8.1v-3.4c0-2.5-0.8-4.6-3-4.6c-1.4,0-2.7,1.2-4,2.9v0.5c2.4-0.1,3.5,3.5,1.8,7.3L143.2,658.4L143.2,658.4z
		 M143.1,642.3c0.9-3,0.4-5.7-1.9-5.7c-2.7,0-3.4,2.1-6.2,8.1v-3.4c0-2.5-0.8-4.6-3-4.6c-2.6,0-4.9,4-6.8,8h1.2
		c1.2-1.8,2.4-2.9,3.3-2.9c1.1,0,1.7,1.7,0,5.5l-5,11.1c-0.9,2.1,0.1,3.4,2.1,3.4c1.2,0,1.8-0.3,2.3-1.7l4.9-13
		c1.4-1.7,2.6-3.2,4.2-4.9H143.1L143.1,642.3z M114.6,640.1c1.7,0,3.2,1.3,2.4,4.6l-8,1.8C110.5,642.8,112.8,640.1,114.6,640.1
		 M119,652.9h-1.6c-2,2.4-4.1,4.2-6.2,4.2s-3.3-1.3-3.3-4.2c0-1.2,0.1-2.4,0.4-3.5l12.8-4.2c2.5-5.9-0.5-8.5-4-8.5
		c-6.1,0-13,10.1-13,19c0,4,1.9,6.2,4.9,6.2C112.5,661.8,116.1,658.5,119,652.9 M88.8,640.2h4.3l-6.8,18.5c-0.6,1.6,0.2,3.2,1.8,3.2
		c3.8,0,10.1-3.8,12.2-9h-1.2c-1.7,1.8-5,4.2-7.8,4.7l6.2-17.4h6.3l0.8-2.6h-6.2l2.4-6.7h-2.4l-4.4,6.7l-5.2,0.7L88.8,640.2
		L88.8,640.2z M65.4,654.6c0-5.7,6.3-13.4,9.9-13.4c0.8,0,1.5,0.1,2.2,0.3l-3.7,9.9c-2.1,2.6-5.4,5.7-6.9,5.7
		C66,657.1,65.4,656.3,65.4,654.6 M84.9,635.6l-1.9-0.1l-2.2,2.1h-0.5c-10.6,0-19.7,11.8-19.7,20.5c0,2.4,1.5,3.8,3.8,3.8
		c2.7,0,5.4-3.9,8.4-8.1l-0.1,1.5c-0.4,4.3,0.9,6.6,3.2,6.6c2.6,0,4.9-4,6.8-8h-1.2c-1.2,1.8-2.4,2.9-3.3,2.9c-1,0-1.7-1.8,0-5.5
		L84.9,635.6L84.9,635.6z M62.4,642.3c0.9-3,0.4-5.7-1.9-5.7c-2.7,0-3.4,2.1-6.2,8.1v-3.4c0-2.5-0.8-4.6-3-4.6c-2.6,0-5,4-6.8,8h1.2
		c1.2-1.8,2.4-2.9,3.3-2.9c1.1,0,1.7,1.7,0,5.5l-5,11.1c-0.9,2.1,0,3.4,2.1,3.4c1.2,0,1.8-0.3,2.3-1.7l4.9-13
		c1.4-1.7,2.6-3.2,4.2-4.9H62.4L62.4,642.3z M26.9,660.9l0.5-1.4c-6.2-1.2-6.9-1.2-4.5-7.9l2.5-6.9h6.8c3.1,0,3.1,1.2,2.6,4.6h1.8
		l4.1-11.2h-1.8c-1.5,2.6-2.7,4.6-6.1,4.6h-6.7l3.6-9.8c1.1-3.1,1.8-3.8,5.9-3.8h3c4.3,0,4.8,1.2,4.8,5.5h1.7l1.4-7.6H21l-0.5,1.4
		c4.9,1,5.4,1.5,3.1,7.9l-5.6,15.2c-2.3,6.3-3.3,6.8-9,7.9l-0.4,1.4H26.9L26.9,660.9z"/>
	<path d="M152.2,582.2c1.7,0,3.2,1.3,2.4,4.6l-8,1.8C148.1,584.9,150.4,582.2,152.2,582.2 M156.6,595h-1.6c-2,2.4-4.1,4.2-6.2,4.2
		s-3.3-1.3-3.3-4.2c0-1.2,0.1-2.4,0.4-3.5l12.8-4.2c2.5-5.9-0.5-8.5-4-8.5c-6.1,0-13,10.1-13,19c0,4,1.9,6.2,4.9,6.2
		C150.1,604,153.7,600.6,156.6,595 M154.1,576.4l9-8.4v-1h-4.9l-5.6,9.4L154.1,576.4L154.1,576.4z M126.4,582.3h4.3l-6.8,18.5
		c-0.6,1.6,0.2,3.2,1.8,3.2c3.8,0,10.1-3.8,12.2-9h-1.2c-1.7,1.8-5,4.2-7.8,4.7l6.2-17.4h6.3l0.8-2.6h-6.2l2.4-6.7H136l-4.4,6.7
		l-5.2,0.7L126.4,582.3L126.4,582.3z M120.7,581.5c0.5-1.7-0.7-2.7-1.5-2.7c-3.7,0-8.1,3.3-9.9,8h1.2c1.2-1.7,3.2-3.6,5.1-3.9
		l-7.1,18.4c-0.7,1.7,0.7,2.7,1.5,2.7c3.5,0,7.6-3.4,9.4-8h-1.2c-1.2,1.7-3.2,3.6-5.1,3.9L120.7,581.5L120.7,581.5z M122,572.2
		c1.7,0,3.1-1.3,3.1-3.1s-1.4-3.1-3.1-3.1s-3.1,1.4-3.1,3.1S120.2,572.2,122,572.2 M97.3,599.9l12.9-33.8l-0.4-0.5l-8.1,0.9v1
		l1.6,1.2c1.4,1.1,1,2.2-0.3,5.6l-10.1,26.6c-0.7,1.4,0.2,3.2,1.8,3.2c3.7,0,7.6-3.3,9.4-8h-1.2C101.7,597.7,99.2,599.6,97.3,599.9
		 M72.8,596.7c0-5.7,6.3-13.4,9.9-13.4c0.8,0,1.5,0.1,2.2,0.3l-3.7,9.9c-2.1,2.6-5.4,5.7-6.9,5.7C73.3,599.2,72.8,598.5,72.8,596.7
		 M92.3,577.7l-1.9-0.1l-2.2,2.1h-0.5c-10.6,0-19.7,11.8-19.7,20.5c0,2.4,1.5,3.8,3.8,3.8c2.7,0,5.4-3.9,8.4-8.1l-0.1,1.5
		c-0.4,4.3,0.9,6.6,3.2,6.6c2.6,0,4.9-4,6.8-8h-1.2c-1.2,1.8-2.4,2.9-3.3,2.9c-1,0-1.7-1.8,0-5.5L92.3,577.7L92.3,577.7z
		 M45.1,608.5c0-2.5,2.4-4,5.7-5.3c1.1,0.6,2.8,1.2,5,1.9c3.5,1.2,4.9,1.6,4.9,2.7c0,2.3-3.8,4-9.1,4
		C47.3,611.7,45.1,610.8,45.1,608.5 M54.7,593.5c-1.5,0-2.1-1.3-2.1-2.8c0-4.1,2.2-10.2,5.7-10.2c1.5,0,2.1,1.3,2.1,2.8
		C60.4,587.4,58.2,593.5,54.7,593.5 M64.8,606.2c0-3-2.6-4-7-5.3c-3.7-1.1-5.4-1.4-5.4-2.6c0-1,0.8-2.1,2.4-3
		c6.1-0.3,10-5.8,10-10.4c0-1-0.2-1.8-0.5-2.5h5.1l0.8-2.6h-8.2c-1-0.6-2.1-0.9-3.3-0.9c-6.4,0-10.6,5.7-10.6,10.2
		c0,3.5,2.2,5.7,4.9,6.2c-3,1.3-4.7,2.9-4.7,4.8c0,1.1,0.4,1.8,1.2,2.5c-7,2-9.7,4.3-9.7,7.6s4.2,4.5,9.2,4.5
		C57.7,614.6,64.8,610,64.8,606.2 M32.4,586.4c3.1,0,3.1,1.2,2.6,4.6h1.8l4.1-11.2h-1.8c-1.5,2.6-2.7,4.6-6.1,4.6h-6.7l3.4-9.3
		c1.1-3.1,1.8-3.7,5.9-3.7h3c4.3,0,4.8,1.2,4.8,5.5h1.7l1.4-7.6H21l-0.5,1.4c4.9,1,5.4,1.5,3.1,7.9l-5.6,15.2
		c-2.3,6.3-3.3,6.8-9,7.9L8.7,603h28.4l5.1-8.1h-1.9c-3.2,3.1-7.3,6-13,6c-7.6,0-6.9-0.3-4.4-7.2l2.7-7.4L32.4,586.4L32.4,586.4z
		 M36.1,567l9-6.2v-1h-5.5l-5,7.2H36.1L36.1,567z"/>
	<path d="M149.2,524.3c1.7,0,3.2,1.3,2.4,4.6l-8,1.8C145.1,527,147.4,524.3,149.2,524.3 M153.6,537.1h-1.6c-2,2.4-4.1,4.2-6.2,4.2
		s-3.3-1.3-3.3-4.2c0-1.2,0.1-2.4,0.4-3.5l12.8-4.2c2.5-5.9-0.5-8.5-4-8.5c-6.1,0-13,10.1-13,19c0,4,1.9,6.2,4.9,6.2
		C147.1,546.1,150.7,542.7,153.6,537.1 M151.1,518.5l9-8.4v-1h-4.9l-5.6,9.4H151.1z M124.6,524.5h3.4l-6.8,18.5
		c-0.6,1.6,0.2,3.2,1.8,3.2c3.8,0,10-3.8,12.2-9h-1.2c-1.7,1.8-5,4.2-7.8,4.7l6.2-17.4h6.3l0.8-2.6h-6.2l2.4-6.7h-2.4l-4.4,6.7
		l-4.3,0.7L124.6,524.5L124.6,524.5z M121.2,526.5c0.9-3,0.4-5.7-1.9-5.7c-2.7,0-3.4,2.1-6.2,8.1v-3.4c0-2.5-0.8-4.6-3-4.6
		c-2.6,0-4.9,4-6.8,8h1.2c1.2-1.8,2.4-2.9,3.3-2.9c1.1,0,1.7,1.7,0,5.5l-5,11.1c-0.9,2.1,0.1,3.4,2.1,3.4c1.2,0,1.8-0.3,2.3-1.7
		l4.9-13c1.4-1.7,2.6-3.2,4.2-4.9H121.2L121.2,526.5z M92.8,524.3c1.7,0,3.2,1.3,2.4,4.6l-8,1.8C88.6,527,90.9,524.3,92.8,524.3
		 M97.2,537.1h-1.6c-2,2.4-4.1,4.2-6.2,4.2s-3.3-1.3-3.3-4.2c0-1.2,0.1-2.4,0.4-3.5l12.8-4.2c2.5-5.9-0.5-8.5-4-8.5
		c-6.1,0-13,10.1-13,19c0,4,1.9,6.2,4.9,6.2C90.6,546.1,94.2,542.7,97.2,537.1 M65.8,542.3c-1.2,0-3.1-1.2-3.1-2.2
		c0-0.3,0.6-1.8,1.2-3.6l2.1-5.5c2.2-2.6,5.6-5.5,7.5-5.5c1.2,0,2,0.7,2,2.5C75.6,533.1,70.8,542.3,65.8,542.3 M80.3,526
		c0-3.8-1.4-5.1-4-5.1c-3.2,0-6.3,3.4-9.3,7.6l7.7-20.3l-0.4-0.5l-8.1,0.9v1l1.6,1.2c1.4,1.1,1,2.3-0.3,5.6l-8.3,21.5
		c-0.6,1.6-1.3,3.4-1.3,3.9c0,2.2,3,4.3,5.7,4.3C69.8,546.1,80.3,534.7,80.3,526 M55.1,523.6c0.5-1.7-0.7-2.7-1.5-2.7
		c-3.7,0-8.1,3.3-9.9,8H45c1.2-1.7,3.2-3.6,5.1-3.9L43,543.4c-0.7,1.7,0.7,2.7,1.5,2.7c3.5,0,7.6-3.4,9.4-8h-1.2
		c-1.2,1.7-3.2,3.6-5.1,3.9L55.1,523.6L55.1,523.6z M56.4,514.3c1.7,0,3.1-1.3,3.1-3.1s-1.4-3.1-3.1-3.1s-3.1,1.4-3.1,3.1
		S54.7,514.3,56.4,514.3 M37.8,511.4H20.9l-0.5,1.4c5,1,5.4,1.5,3.1,7.9l-5.5,15.2c-2.3,6.3-3.3,6.8-9,7.9l-0.4,1.4h25.6l5.6-9.9H38
		c-3.2,3.5-6.9,7.8-12.5,7.8c-4.3,0-4.8-0.7-2.5-7.2l5.5-15.2c2.3-6.3,3.3-6.8,9-7.9L37.8,511.4L37.8,511.4z"/>
</g>
<g>
	<path class="st0" d="M102.9,74c0.9-0.9,1.8-1.9,2.7-2.8h0c1.7-1.9,3.3-3.7,5.3-5.4c0.6-0.5,1.2-1,1.7-1.4c0.2-0.2,0.2-0.5,0.3-0.6
		c-0.8,0.3-1.3,1-2.1,1.3c-0.2,0-0.3-0.2-0.2-0.3c0.6-0.4,1.1-0.8,1.7-1.3c0,0-0.1,0-0.1,0c-0.2,0-0.2-0.2-0.2-0.3
		c-2.1-0.3-3.7,1.1-5.1,2.4c-0.3,0.2-0.6-0.2-0.8-0.2c-2.4,0.8-4.1,2.8-6.5,3.8v-0.3c-0.9,0.3-1.9,0.9-2.8,1.1
		c-1.4,0.3-2.7,0.2-4,0.2c-1.9,0.2-3.8,0.6-5.8,1c-0.1,0-0.1,0-0.2,0c-1,0.3-2,0.7-2.9,1.2c0,0-0.1,0-0.1,0.1
		c-0.1,0.1-0.2,0.2-0.2,0.3c-0.3,0.4-0.6,0.7-1.1,0.9c-1,0.5-1.8,1.4-2.6,2.1c-0.1,0.1-0.2,0.1-0.2,0.1c-0.8,0.8-1.7,1.6-2.6,2.4
		c-0.1,0.1-0.3,0.1-0.5,0.1c0,0,0,0,0,0c0-0.1,0.1-0.1,0.1-0.2c0.1-0.2,0.3-0.4,0.4-0.7c0.2-0.2,0.3-0.5,0.5-0.7
		c0.2-0.3,0.4-0.7,0.7-1c0.1-0.1,0-0.2,0-0.2c-0.1-0.1-0.1-0.1-0.2-0.1c0.8-0.8,1.7-1.4,2.7-2c0,0,0,0,0,0c-0.1,0-0.3-0.1-0.2-0.2
		c0.1-0.1,0.2-0.3,0.3-0.4c0-0.1,0-0.1,0.1-0.1c0,0-0.1-0.1-0.1-0.1c-0.3,0.2-0.5,0.3-0.7,0.5c-0.4,0.3-0.7,1-1.2,1c0,0-0.2,0-0.2,0
		c-0.1,0-0.1,0-0.2-0.1c0,0,0,0,0,0c0,0,0,0,0,0s0,0,0,0c0-0.1,0.1-0.1,0.1-0.1s0.1-0.1,0.1-0.1c0,0,0-0.1,0.1-0.1
		c0-0.1,0.1-0.1,0.1-0.2c0-0.1,0.1-0.1,0.1-0.1c0.1-0.1,0.1-0.2,0.2-0.3c0-0.1,0.1-0.1,0.1-0.2c0.1-0.1,0.1-0.2,0.2-0.3
		c0.1-0.1,0-0.2-0.1-0.3c0.3-0.4,0.7-0.7,1.1-0.9h-0.1c0.6-0.3,1.2-0.7,1.8-1c0.1-0.1,0.2-0.2,0.3-0.2c-0.9,0.3-1.7,0.7-2.5,1.2
		c0,0-0.2,0.1-0.3,0.1c0,0-0.2,0.1-0.4-0.1c0,0,0-0.1,0-0.1c0.2-0.3,0.6-0.5,0.9-0.8c0.2,0,0.3,0,0.3,0.2c5.1-4,12-3,17.9-5.1
		c0.5-0.3,0.9-0.6,1.4-0.9c0.8-0.3,1.4-1.1,2.4-1.6c1.3-1,2.2-2.1,2.7-3.6c0-0.2-0.2-0.3-0.2-0.3c-2.1,2.2-4.4,4-7,5.2
		c-3.3,1.7-7,1.4-10.5,1.9c0.2-0.3,0.5-0.3,0.8-0.3c0-0.5,0.3-0.6,0.6-0.9h0.5c0.2,0,0.2-0.3,0.3-0.3c0.3,0,0.8-0.2,0.6-0.2
		c-0.5-0.6-1.4,0.5-2.2,0c0.3-0.3,0.2-0.8,0.5-1h0.6c0-0.3,0.3-0.6,0.3-0.6c2.4-1.4,4.6-2.5,6.8-3.8c-0.5,0-0.8,0.5-1.3,0.2
		c0.3,0,0-0.5,0.3-0.5c1.7-0.5,3.2-1.4,4.9-2.1c-0.6,0-1.1,0.5-1.7,0c0.3-0.2,0.5-0.5,0.9-0.5v-0.5c0-0.2,0.2-0.2,0.3-0.2
		c-0.2,0-0.3-0.2-0.3-0.2c0.2-0.3,0.6-0.2,0.9-0.5c-0.2,0-0.5,0-0.5-0.2c0.5-0.6,1.3-0.8,2.1-1c-0.2-0.3-0.6,0-0.6-0.3
		c0-0.2,0.2-0.2,0.3-0.2h-0.3c-0.3-0.2-0.2-0.5-0.2-0.6c0.9-1.1,0.9-2.5,1.4-3.8c-0.2,0-0.3,0-0.3-0.2c-1.6,1.7-4.1,2.4-6.5,3h-0.8
		c-0.8,0.3-1.9,0.3-2.7-0.2c-0.6-0.3-0.9-0.8-1.6-1.3c-1.3-0.8-2.5-1.4-4-1.9c-4-1.3-8.1-1.9-12.2-1.7c1.7-1,3.7-1,5.6-1.6
		c2.7-0.8,5.2-1.7,8.1-1.6c-0.5-0.2-1.1,0-1.6,0c-2.2-0.2-4.4,0.5-6.8,1c-1.6,0.3-3,1-4.6,1.3c-0.9,0.3-1.4,1.3-2.5,1.1v-0.5
		c1.6-1.9,3.5-3.8,6-4c2.8-0.5,5.6,0,8.4,0.3c2.1,0.2,4,0.6,6,1.1c0.8,0,0.9,1.3,1.6,1.4c0.9,0.3,1.9,0,2.8,0.6c0-0.3-0.2-0.6,0-1
		c0.6-0.6,1.4,0.2,2.1-0.2c1.3-0.8-1.1-2.2-1.7-3.3c0-0.2,0.2-0.3,0.2-0.3c1.3,1.1,2.2,2.4,3.8,3.2c0.8,0.3,2.7,0.8,2.4-0.2
		c-0.8-1.7-2.4-3.2-3.6-4.8v-0.6c-0.3,0-0.3-0.2-0.5-0.3v-0.6c-0.6-0.3-0.5-1-0.8-1.4c-0.5-0.8-0.2-1.9-0.5-2.8
		c-0.3-1-0.5-1.7-0.6-2.7c-0.5-2.7-1.1-5.1-1.4-7.6c-0.3-3,1.7-5.4,3.2-8.1c1.1-1.9,2.4-3.8,4.4-5.1c0.5-1.9,1.7-3.5,3-5.1
		c1.3-1.5,3.4-2.5,4.9-3.2c2.2-1,4.2-1.6,4.2-1.6H7.5v83.9h77c3-2.2,6-3.2,10.2-5.3C96.8,77.6,101.3,75.5,102.9,74L102.9,74z
		 M78.5,62.6c-0.3,0-0.9,0.2-0.8-0.2c0.2-0.8,1.3-0.8,1.9-1.1c0.3-0.2,0.8-0.5,1.1-0.3c0.3,0.5,0.8,0.3,1.1,0.6
		C80.9,62.6,79.6,62.1,78.5,62.6L78.5,62.6z M54.2,59.1c0,0-0.2-0.2-0.2-0.3c2.1-2.7,3.6-5.2,5.1-8.1c2.1-1.1,3.8-2.7,5.4-4.4
		c2.7-2.8,5.6-5.4,8.9-7c1.3-0.5,2.8-0.3,4.1,0.2c-0.5,0.6-1.3,0.5-1.9,1c-0.2,0-0.3,0-0.5-0.2c0.2-0.2,0.2-0.3,0.2-0.5
		c-1.6,1.7-3.8,2.5-5.1,4.6c-0.9,1.6-1.6,3.7-3.6,4.1c-0.6,0.2,0.2-0.5-0.2-0.3C61.5,51.2,58,54.9,54.2,59.1L54.2,59.1z M67.4,48.7
		c-0.2,0.3-0.3,0.3-0.5,0.6c-0.2,0.3-0.3,0.5-0.6,0.6c-0.2,0-0.3,0-0.3-0.2c0.2-0.6,0.6-1.3,1.3-1.4C67.4,48.4,67.4,48.5,67.4,48.7
		L67.4,48.7z M74.8,72.4c-0.1,0.2-0.2,0.3-0.4,0.5c0.2,0,0.3,0.1,0.2,0.2c-0.4,0.3-0.7,0.7-1.2,0.8c0,0-0.1,0-0.2,0
		c-0.2,0.2-0.4,0.4-0.6,0.6c-0.2,0.2-1.1,0.1-0.8-0.2c0.4-0.4,0.8-0.7,1.2-1.1c0.2-0.2,0.5-0.4,0.7-0.6c0.1-0.1,0.2-0.2,0.3-0.3
		C74.1,72.2,74.9,72.1,74.8,72.4L74.8,72.4z M71.9,71.1C71.9,71.1,71.9,71.1,71.9,71.1c-0.6,0.4-1.2,0.9-1.8,1.2
		c-0.7,0.4-1.4,0.7-2.1,1c0,0,0,0,0,0c-0.1-0.1-0.2-0.1-0.3-0.1c-0.6,0.3-1.1,0.8-1.6,1.2c-0.1,0.1-0.2,0.1-0.2,0.2c0,0,0,0,0,0
		c0,0,0,0,0,0c-0.1,0.1-0.2,0.2-0.2,0.2c0,0,0,0,0,0c0,0,0,0,0,0c-0.1,0.1-0.2,0.2-0.3,0.4c-0.1,0.1-0.1,0.2-0.2,0.2
		s-0.4,0.1-0.3-0.1c0,0,0,0,0,0c-0.1,0.1-0.2,0.1-0.3,0.1s-0.2,0.1-0.2,0.1c0,0-0.1,0-0.1,0s-0.1,0-0.1,0c-0.2,0.2-0.4,0.3-0.6,0.5
		c-0.3,0.3-0.6,0.6-0.9,1c0,0,0,0,0,0s0,0,0,0c0,0,0,0,0,0.1s0,0,0,0.1c0,0,0,0,0,0c0,0.1-0.1,0.1-0.1,0.2l0,0c0,0-0.1,0.1-0.1,0.1
		c0,0,0-0.1-0.1-0.1c0,0,0-0.1,0-0.1c0-0.1-0.1-0.2-0.1-0.2l0,0c0,0,0-0.1,0-0.1c0.2-0.2,0.3-0.4,0.5-0.6c0,0,0,0,0,0
		c0.1-0.1,0.1-0.1,0.2-0.2c0.1-0.1,0.2-0.2,0.3-0.3c0,0,0.1-0.1,0.1-0.1c0.2-0.2,0.3-0.4,0.5-0.7c0,0,0,0,0,0c0,0,0-0.1,0.1-0.1
		c0.1-0.1,0.2-0.2,0.2-0.3c0.1-0.1,0.1-0.2,0.2-0.3c0,0,0,0,0,0c0,0,0,0,0,0c0,0,0,0,0-0.1c0.1-0.1,0.1-0.2,0.1-0.4c0,0,0,0,0,0
		c0,0,0-0.1,0-0.1c0-0.1,0-0.1,0.1-0.2l0,0c0,0,0,0,0,0c0-0.1,0-0.2,0.1-0.2c0,0,0-0.1,0-0.1c0.2-0.3,0.4-0.6,0.6-0.9
		c0,0-0.1,0-0.1,0c-0.2,0.2-0.4,0.3-0.6,0.5c-0.2,0.1-0.5-0.1-0.3-0.2c0.1-0.1,0.2-0.2,0.4-0.3c0,0,0,0,0,0c0.3-0.3,0.5-0.6,0.8-0.8
		c0.2-0.1,0.3-0.2,0.5-0.4c0,0,0.1,0,0.1-0.1c0.1-0.2,0.2-0.3,0.3-0.4c0,0,0,0,0,0c1.5-1.5,4.1-1.4,6.1-2.3c0.8-0.3,1.7,0.2,2.5,0
		c0.5,0,0.9,0,1.4,0.3C74.6,69.4,73.2,70.3,71.9,71.1L71.9,71.1z M75.2,60.1c-0.2-0.2,0.5,0,0.6-0.3h-1.3c-0.2,0-0.2-0.2-0.2-0.3
		c-0.8,0.2-1.7,0.5-2.5,0.6c-1.1,0.3-2.1,1.1-3.3,1.4c-1.7,0.6-3.2,2.1-5.1,2.7c-0.2,0-0.2-0.2-0.2-0.3c0.2-0.5,0.8-0.6,1.1-1.1
		c0-0.2,0-0.3-0.2-0.3c1.3-1.7,3-2.7,4.6-4.1v-0.5c0.5-0.6,1.3-1,1.6-1.7c0.2-0.5,0.8-1.1,1.6-1.4c-0.2-0.2-0.5-0.2-0.5-0.5
		c-0.6,0-1.3,0.3-1.9-0.2c0.3-0.3,0.6-0.5,1-0.6c-0.1,0-0.3-0.1-0.4-0.2c-0.2-0.3,0.3-0.7,0.8-0.8c0.6-0.2,1.4-0.2,1.9-0.6
		c-1.1-0.2-2.4,0.3-3.5-0.3c0.8-2.1,2.1-3.8,4-4.8c0.2,0,0.5,0,0.5,0.2c0,0.8-0.5,1.4-1.3,1.6c1.3,0.3,2.5,0.3,3.8,1
		c-0.2,0.3-0.5,0.2-0.6,0.2c0.8,0.5,1.7,0.2,2.5,0.8c-0.5,0.5-0.9,0-1.4,0c4.9,1.4,10.1,2.5,14.3,5.7c-3.5,1.7-7.1,2.5-10.9,3.3
		c-0.5,0-0.8,0-1.3-0.2c0,0.2,0,0.5-0.2,0.5c-0.6,0-1.1,0-1.6,0.3C76.6,60.4,75.6,60.6,75.2,60.1L75.2,60.1z"/>
	<path class="st1" d="M238.1,0h-90.2c0,0,0.2,0,0.9,0.4c0.7,0.4,1.7,0.9,2.3,1.2c1.2,0.6,2.3,1.4,3,2.5c0.3,0.5,0.8,1.4,0.5,2.1
		c-0.3,0.8-0.5,2.1-1.3,2.4c-0.9,0.5-2.2,0.5-3.3,0.3c-0.6,0-1.3-0.2-1.9-0.3c2.4,0.9,4.6,2.1,6.2,4.3c0.2,0.3,0.8,0.5,1.4,0.5
		c0.2,0,0.2,0.3,0.2,0.5c-0.3,0.3-0.6,0.5-0.5,0.9h0.5c0.8-0.3,0.6-1.9,1.7-1.4c0.8,0.5,1.1,1.6,0.6,2.4c-0.6,0.6-1.3,1.1-1.9,1.6
		c-0.2,0.3-0.2,0.8,0,1.1c0.5,0.6,0.6,1.3,0.8,1.9c0.5,1.1,0.6,2.4,1.1,3.5c0.6,2.4,1.3,4.8,1.1,7.1c0,1.3-0.6,2.4-0.2,3.6
		c0.3,1.3,1.1,2.2,1.7,3.3c0.6,1,1.3,1.6,1.7,2.5c0.9,1.6,2.7,3.2,1.9,5.1c-0.5,1.1-2.2,1-3.3,1.6c-0.9,0.8-0.2,2.1,0.3,2.8
		c0.8,1.4-0.9,2.4-2.1,2.8c0.3,0.5,0.9,0.3,1.1,0.6c0.2,0.8,0.9,1.3,0.5,2.1c-0.6,1-2.5,1.4-1.6,2.8c0.6,1.1,0.2,2.3-0.2,3.5
		c-0.5,1.4-1.7,2.1-2.9,2.4c-0.9,0.3-2.1,0.3-3,0.2c-0.3-0.2-0.6-0.3-0.9-0.3c-2.7-0.3-5.4-1.1-8.1-1.1c-0.8,0.2-1.6,0.3-2.2,0.6
		c-0.7,0.5-1.4,1.1-1.9,1.7c0,0,0,0,0,0c-0.1,0.1-0.2,0.2-0.4,0.4c-0.1,0.1-0.1,0.2-0.2,0.2c-0.1,0.1-0.1,0.1-0.1,0.2
		c-0.5,0.6-0.9,1.2-1.2,1.8c0,0-0.1,0.1-0.1,0.1c0,0.1-0.1,0.2-0.1,0.2c-0.5,1-0.9,1.9-1.2,2.9c-1.1,3.6-0.6,6.7,0.1,7.5
		c0.2,0.2,5.2,1.8,8.7,3.3c1.6,0.7,2.8,1.3,3.7,1.9h88.6L238.1,0L238.1,0z"/>
	<path class="st2" d="M153.3,30.6c0.6,0.2,1.6,0.2,1.6,0.5c-0.3,1.3-2.2,1.6-3.2,2.8h-0.5c-0.5,0.3-0.3,1.1-0.8,1.1
		c-0.5-0.2-0.9,0-1.4,0.2c0.6,0.6,1.4,1.1,2.4,1c0.2,0,0.5,0.3,0.5,0.6c0,0,0.2,0,0.3-0.2c0.2,0,0.3,0,0.3,0.2v0.6
		c-0.5,0.6-1.3,0.3-1.9,0.5c1.3,0.3,2.5,0.3,3.6,0c0.9-0.3,0-1.9,0.6-2.7c-0.3,0,0-0.5-0.3-0.5c0.3-0.3,0.6-0.8,0.9-1
		c0.3,0,0.8-0.2,0.9-0.5c0-0.3-0.6-0.5-0.5-0.8c0.9-0.6,1.7-1.6,1.4-2.5c-0.2-0.5-1.4-0.5-2.2-0.8c-0.8-0.3-1.7,0-2.7,0.2
		c-0.8,0-1.6,0.5-2.4,0.6c-1.1,0.3-2.1,1-3,1.6c1.1-0.5,2.2-0.6,3.5-1C151.5,30.6,152.4,30.3,153.3,30.6L153.3,30.6z"/>
</g>
<g class="st3">
	<path d="M9.3,127.4h15.9l15.4,26.5L56,127.4h15.9v63H59.1v-45.2l-14,23.6h-9l-14-23.6v45.2H9.3V127.4z"/>
	<path d="M90.4,127.4h12.8v63H90.4V127.4z"/>
	<path d="M121.7,127.4h16.4l28.2,45.5v-45.5H179v63h-16.4l-28.2-45.5v45.5h-12.8V127.4z"/>
	<path d="M197.5,127.4h12.8v63h-12.8V127.4z"/>
</g>
<g class="st3">
	<path d="M229.2,173.1c3.8,4.9,8.8,7.7,13.9,7.7c5,0,8.1-2.7,8.1-7.2c0-11.6-28.6-8.5-28.6-29.8c0-10,8.3-18.3,20.3-18.3
		c9.4,0,16.6,4.2,22,10.6l-9.4,8.5c-3.7-4.8-7.8-7.9-12.6-7.9c-4.5,0-7.5,2.9-7.5,6.7c0,11.4,28.6,8.2,28.6,29.8
		c-0.2,11.9-9.4,19-21,19c-10.6,0-17.7-3.9-23.3-10.5L229.2,173.1z"/>
</g>
<g class="st3">
	<path d="M270.8,127.4h51.7V139H303v51.4h-12.8V139h-19.4V127.4z"/>
	<path d="M334.6,127.4h36.7V138h-23.9V153h20.3v10.6h-20.3v16.2h23.9v10.6h-36.7V127.4z M335.7,109.8h13.1L359,122h-11.7
		L335.7,109.8z"/>
	<path d="M387.1,127.4h19.3c13.9,0,22.4,7.1,22.4,18.8c0,7.7-3.7,13.3-10.2,16.3l19.7,27.9h-15l-16.8-25.5h-6.6v25.5h-12.8V127.4z
		 M399.9,138v16.3h7.2c5.4,0,8.5-3.1,8.5-8.3c0-4.8-3.1-8-8.5-8H399.9z"/>
	<path d="M447.3,127.4H484V138h-23.9V153h20.3v10.6h-20.3v16.2H484v10.6h-36.7V127.4z"/>
</g>
<g class="st3">
	<path d="M9.3,219.4H34c20,0,33.5,14.5,33.5,31.5c0,17-13.5,31.5-33.5,31.5H9.3V219.4z M22,231v39.8h12.1c11.7,0,20.2-8.7,20.2-19.9
		c0-11.2-8.5-19.9-20.2-19.9H22z"/>
	<path d="M80.7,219.4h36.7V230H93.5V245h20.3v10.6H93.5v16.2h23.9v10.6H80.7V219.4z"/>
</g>
<g class="st3">
	<path d="M155.1,219.4h12.8v51.4h23.9v11.6h-36.7V219.4z"/>
</g>
<g class="st3">
	<path d="M221.8,219.4h16.7l23.8,63h-13.6l-6-16.4h-25.2l-6,16.4h-13.6L221.8,219.4z M238.8,255.1l-8.6-23.7l-8.6,23.7H238.8z"/>
</g>
<g class="st3">
	<path d="M299.2,265.1c3.8,4.9,8.8,7.7,13.9,7.7c5,0,8.1-2.7,8.1-7.2c0-11.6-28.6-8.5-28.6-29.8c0-10,8.3-18.3,20.3-18.3
		c9.4,0,16.6,4.2,22,10.6l-9.4,8.5c-3.7-4.8-7.8-7.9-12.6-7.9c-4.5,0-7.5,2.9-7.5,6.7c0,11.4,28.6,8.2,28.6,29.8
		c-0.2,11.9-9.4,19-21,19c-10.6,0-17.7-3.9-23.3-10.5L299.2,265.1z"/>
</g>
<g class="st3">
	<path d="M363.3,219.4h16.7l23.8,63h-13.6l-6-16.4h-25.2l-6,16.4h-13.6L363.3,219.4z M380.3,255.1l-8.6-23.7l-8.6,23.7H380.3z"/>
	<path d="M414.5,219.4h16.4l28.2,45.5v-45.5h12.8v63h-16.4l-28.2-45.5v45.5h-12.8V219.4z"/>
	<path d="M483.9,219.4h51.7V231h-19.4v51.4h-12.8V231h-19.4V219.4z"/>
	<path d="M547.7,219.4h36.7V230h-23.9V245h20.3v10.6h-20.3v16.2h23.9v10.6h-36.7V219.4z M560.1,214l10.2-12.1h13.1L571.8,214H560.1z
		"/>
</g>
<g class="st3">
	<path d="M9.3,311.4H46V322H22V337h20.3v10.6H22v16.2H46v10.6H9.3V311.4z"/>
</g>
<g class="st3">
	<path d="M55.8,311.4h51.7V323H88v51.4H75.2V323H55.8V311.4z"/>
	<path d="M143.9,311.4h24.7c20,0,33.5,14.5,33.5,31.5c0,17-13.5,31.5-33.5,31.5h-24.7V311.4z M156.7,323v39.8h12.1
		c11.7,0,20.2-8.7,20.2-19.9c0-11.2-8.5-19.9-20.2-19.9H156.7z"/>
	<path d="M215.4,311.4h36.7V322h-23.9V337h20.3v10.6h-20.3v16.2h23.9v10.6h-36.7V311.4z"/>
</g>
<g class="st3">
	<path d="M288.1,311.4h12.8v51.4h23.9v11.6h-36.7V311.4z"/>
</g>
<g class="st3">
	<path d="M322.2,337.3l8.1-25.9h13l-10.4,25.9H322.2z"/>
</g>
<g class="st3">
	<path d="M362,311.4h16.7l23.8,63H389l-6-16.4h-25.2l-6,16.4h-13.6L362,311.4z M379,347.1l-8.6-23.7l-8.6,23.7H379z"/>
</g>
<g class="st3">
	<path d="M455.5,355.6l10.1,7.7c-5.8,7.8-15.1,12.9-26.5,12.9c-19.9,0-33.5-15.3-33.5-33.3c0-18,13.6-33.3,33.5-33.3
		c11.4,0,20.8,5.1,26.5,12.8l-10.1,7.8c-3.6-5.1-9.3-8.6-16.5-8.6c-11.9,0-20.3,9.3-20.3,21.3c0,12.1,8.5,21.3,20.3,21.3
		C446.2,364.2,451.9,360.7,455.5,355.6z"/>
</g>
<g class="st3">
	<path d="M520.8,355.6l10.1,7.7c-5.8,7.8-15.1,12.9-26.5,12.9c-19.9,0-33.5-15.3-33.5-33.3c0-18,13.6-33.3,33.5-33.3
		c11.4,0,20.8,5.1,26.5,12.8l-10.1,7.8c-3.6-5.1-9.3-8.6-16.5-8.6c-11.9,0-20.3,9.3-20.3,21.3c0,12.1,8.5,21.3,20.3,21.3
		C511.6,364.2,517.2,360.7,520.8,355.6z"/>
	<path d="M542.9,311.4h36.7V322h-23.9V337H576v10.6h-20.3v16.2h23.9v10.6h-36.7V311.4z M544,293.8h13.1l10.2,12.1h-11.7L544,293.8z"
		/>
	<path d="M598.9,357.1c3.8,4.9,8.8,7.7,13.9,7.7c5,0,8.1-2.7,8.1-7.2c0-11.6-28.6-8.5-28.6-29.8c0-10,8.3-18.3,20.3-18.3
		c9.5,0,16.6,4.2,22,10.6l-9.4,8.5c-3.7-4.8-7.8-7.9-12.6-7.9c-4.5,0-7.5,2.9-7.5,6.7c0,11.4,28.6,8.2,28.6,29.8
		c-0.2,11.9-9.4,19-21,19c-10.6,0-17.7-3.9-23.3-10.5L598.9,357.1z"/>
</g>
<g class="st3">
	<path d="M25.2,403.4h16.7l23.8,63H52.2l-6-16.4H21l-6,16.4H1.4L25.2,403.4z M42.2,439.1l-8.6-23.7l-8.6,23.7H42.2z"/>
</g>
<g class="st3">
	<path d="M110.2,403.4H123v38.3c0,16.6-9.7,26.5-25.6,26.5c-15.7,0-25.5-9.9-25.5-26.5v-38.3h12.8v39.4c0,8.5,4.8,13.4,12.8,13.4
		c7.8,0,12.7-4.9,12.7-13.4V403.4z"/>
</g>
<g class="st3">
	<path d="M130.7,466.4l22.5-32.6l-21-30.4h15.1l14.8,21.2l14.8-21.2h15.3L171,433.8l22.6,32.6h-15.2L162.1,443l-16.2,23.4H130.7z"/>
</g>
<g class="st3">
	<path d="M231,449.1c3.8,4.9,8.8,7.7,13.9,7.7c5,0,8.1-2.7,8.1-7.2c0-11.6-28.6-8.5-28.6-29.8c0-10,8.3-18.3,20.3-18.3
		c9.4,0,16.6,4.2,22,10.6l-9.4,8.5c-3.7-4.8-7.8-7.9-12.6-7.9c-4.5,0-7.5,2.9-7.5,6.7c0,11.4,28.6,8.2,28.6,29.8
		c-0.2,11.9-9.4,19-21,19c-10.6,0-17.7-3.9-23.3-10.5L231,449.1z"/>
</g>
<g class="st3">
	<path d="M340.2,434.9c0,18-13.6,33.3-33.4,33.3c-19.9,0-33.5-15.3-33.5-33.3c0-18,13.6-33.3,33.5-33.3
		C326.6,401.6,340.2,416.9,340.2,434.9z M327.1,434.9c0-12.1-8.5-21.3-20.2-21.3c-11.9,0-20.3,9.3-20.3,21.3s8.5,21.3,20.3,21.3
		C318.6,456.2,327.1,447,327.1,434.9z"/>
	<path d="M353.3,403.4h12.8v63h-12.8V403.4z"/>
	<path d="M384.7,403.4H401l28.2,45.5v-45.5H442v63h-16.4l-28.2-45.5v45.5h-12.8V403.4z"/>
	<path d="M464.1,449.1c3.8,4.9,8.8,7.7,13.9,7.7c5,0,8.1-2.7,8.1-7.2c0-11.6-28.6-8.5-28.6-29.8c0-10,8.3-18.3,20.3-18.3
		c9.4,0,16.6,4.2,22,10.6l-9.4,8.5c-3.7-4.8-7.8-7.9-12.6-7.9c-4.5,0-7.5,2.9-7.5,6.7c0,11.4,28.6,8.2,28.6,29.8
		c-0.2,11.9-9.4,19-21,19c-10.6,0-17.7-3.9-23.3-10.5L464.1,449.1z"/>
</g>
</svg>
