<svg viewBox="0 0 111 82" xmlns="http://www.w3.org/2000/svg"><g fill="none"><path d="m29.48 78.397c.24 0 .44.199.36.636l-1.16.279c.2-.517.56-.915.8-.915m.64 1.83h-.24c-.28.358-.6.597-.88.597s-.48-.2-.48-.597c0-.16 0-.358.04-.477l1.84-.597c.36-.836-.04-1.233-.6-1.233-.88 0-1.88 1.432-1.88 2.705 0 .597.28.875.68.875.56 0 1.08-.477 1.52-1.273m-.4-2.666 1.28-1.193v-.16h-.68l-.8 1.314h.2v.04zm-3.96.836h.6l-1 2.665c-.08.24.04.438.24.438.56 0 1.44-.557 1.72-1.273h-.16c-.24.239-.76.597-1.12.676l.88-2.466h.88l.08-.398h-.88l.36-.915h-.36l-.64.915-.76.08v.238h.16zm-.8-.08c.04-.238-.08-.397-.2-.397-.56 0-1.12.477-1.44 1.113h.16c.16-.238.44-.477.76-.557l-1.04 2.626c-.08.239.08.398.2.398.48 0 1.08-.477 1.32-1.114h-.16c-.16.239-.44.477-.76.557zm.16-1.312c.24 0 .44-.2.44-.438 0-.239-.2-.438-.44-.438s-.44.16-.44.398c0 .279.2.478.44.478m-5.84 4.018c-.16.278 0 .477.28.477.2 0 .24-.04.36-.239l.68-1.87c.36-.397 1-.835 1.28-.835.2 0 .16.16.04.398l-1.08 2.069c-.08.199.04.437.24.437.56 0 1.2-.477 1.44-1.114h-.16c-.16.239-.44.478-.76.557l.92-1.87c.08-.238.2-.437.2-.636 0-.279-.16-.477-.48-.477-.44 0-.92.477-1.48 1.113v-.517c0-.358-.08-.636-.44-.636-.2 0-.4.159-.6.398v.04c.36 0 .48.477.24 1.034l-.68 1.67zm0-2.308c.16-.437.04-.795-.28-.795-.4 0-.48.278-.88 1.113v-.477c0-.358-.08-.636-.44-.636-.4 0-.68.596-1 1.113h.16c.2-.238.36-.397.48-.397.16 0 .24.238 0 .795l-.76 1.592c-.16.278 0 .477.28.477.2 0 .24-.04.36-.239l.68-1.87c.2-.238.4-.437.6-.676zm-4.08-.318c.24 0 .44.199.36.636l-1.12.24c.16-.478.48-.876.76-.876m.64 1.83h-.24c-.28.358-.6.597-.88.597s-.48-.2-.48-.597c0-.16 0-.358.04-.477l1.84-.597c.36-.836-.04-1.233-.6-1.233-.88 0-1.88 1.432-1.88 2.705 0 .597.28.875.68.875.56 0 1.08-.477 1.52-1.273m-4.36-1.83h.6l-1 2.665c-.08.24.04.438.24.438.56 0 1.44-.557 1.72-1.273h-.16c-.24.239-.76.597-1.12.676l.88-2.466h.88l.08-.398h-.88l.36-.915h-.24l-.64.915-.76.08v.278zm-3.32 2.069c0-.836.88-1.91 1.44-1.91.08 0 .2 0 .28.04l-.56 1.432c-.28.398-.8.835-1 .835-.12-.04-.16-.119-.16-.397m2.76-2.706h-.28l-.28.279h-.08c-1.52 0-2.8 1.67-2.8 2.904 0 .358.2.557.56.557.4 0 .8-.557 1.2-1.114v.199c-.04.597.16.915.44.915.4 0 .68-.597 1-1.114h-.16c-.2.239-.36.398-.48.398-.16 0-.24-.239 0-.796zm-3.2.955c.16-.437.04-.795-.28-.795-.4 0-.48.278-.88 1.113v-.477c0-.358-.08-.636-.44-.636-.4 0-.68.596-1 1.113h.16c.2-.238.36-.397.48-.397s.24.238 0 .795l-.76 1.592c-.16.278 0 .477.28.477.2 0 .24-.04.36-.239l.68-1.87c.2-.238.4-.437.6-.676zm-5.08 2.666.04-.2c-.88-.158-1-.158-.64-1.113l.36-.995h1c.44 0 .44.2.4.637h.24l.6-1.592h-.24c-.2.398-.4.637-.88.637h-.92l.48-1.392c.16-.438.24-.557.84-.557h.44c.6 0 .68.159.68.795h.24l.2-1.074h-3.64l-.04.199c.68.16.8.199.44 1.114l-.8 2.148c-.36.875-.48.995-1.28 1.114l-.08.2h2.56v.079zm17.92-11.22c.24 0 .44.2.36.637l-1.12.24c.16-.478.52-.876.76-.876m.64 1.83h-.24c-.28.358-.6.597-.88.597s-.48-.2-.48-.597c0-.16 0-.358.04-.478l1.84-.596c.36-.836-.04-1.234-.6-1.234-.88 0-1.88 1.433-1.88 2.706 0 .596.28.875.68.875.6 0 1.08-.517 1.52-1.273m-.32-2.666 1.28-1.193v-.16h-.68l-.8 1.314h.2v.04zm-4 .836h.6l-1 2.665c-.08.239.04.438.24.438.56 0 1.44-.557 1.72-1.273h-.16c-.24.239-.76.597-1.12.676l.88-2.466h.88l.08-.398h-.72l.36-.915h-.36l-.64.915-.76.08v.277zm-.8-.12c.04-.238-.08-.397-.2-.397-.56 0-1.12.477-1.44 1.114h.16c.16-.24.44-.478.76-.557l-1.04 2.625c-.08.239.08.398.2.398.48 0 1.08-.477 1.32-1.114h-.16c-.16.239-.44.478-.76.557zm.16-1.312c.24 0 .44-.2.44-.438 0-.239-.2-.438-.44-.438s-.44.2-.44.438c.04.239.16.438.44.438m-3.52 3.938 1.84-4.814-.04-.04-1.12.16v.159l.24.159c.2.16.16.279-.04.796l-1.44 3.78c-.08.198.04.437.24.437.56 0 1.08-.478 1.32-1.114h-.16c-.2.159-.56.437-.84.477m-3.52-.437c0-.836.88-1.91 1.44-1.91.08 0 .2 0 .28.04l-.56 1.432c-.28.398-.8.835-1 .835-.12-.08-.16-.159-.16-.397m2.76-2.706h-.28l-.28.279h-.04c-1.52 0-2.8 1.67-2.8 2.904 0 .358.2.557.56.557.4 0 .8-.557 1.2-1.114v.199c-.04.597.16.915.44.915.4 0 .68-.597 1-1.114h-.16c-.2.239-.36.398-.48.398s-.24-.239 0-.796zm-6.72 4.376c0-.358.36-.596.84-.755.16.08.4.159.68.278.48.16.68.239.68.398 0 .358-.56.597-1.28.597-.6-.08-.92-.2-.92-.518m1.32-2.108c-.2 0-.28-.199-.28-.398 0-.597.28-1.472.84-1.472.2 0 .28.2.28.398 0 .557-.28 1.472-.84 1.472m1.52 1.75c0-.437-.4-.596-1-.755-.56-.16-.8-.2-.8-.398 0-.16.08-.279.36-.438.88-.04 1.44-.835 1.44-1.472 0-.159-.04-.239-.04-.358h.76l.08-.398h-1.2c-.16-.08-.28-.159-.48-.159-.92 0-1.52.796-1.52 1.472 0 .477.28.796.68.875-.44.2-.68.398-.68.677 0 .159.04.238.2.358-1 .278-1.4.636-1.4 1.074 0 .437.6.636 1.32.636 1.24.12 2.28-.517 2.28-1.114m-4.68-2.783c.44 0 .44.199.4.636h.24l.6-1.591h-.28c-.2.398-.4.636-.88.636h-.92l.48-1.313c.16-.437.24-.556.84-.556h.44c.6 0 .68.159.68.795h.24l.2-1.074h-3.64l-.04.199c.68.16.8.199.44 1.114l-.84 2.148c-.36.875-.48.995-1.28 1.114l-.04.199h4.04l.76-1.114h-.24c-.44.438-1.04.836-1.88.836-1.08 0-1-.04-.64-1.035l.4-1.034zm.56-2.785 1.28-.875v-.16h-.8l-.68 1.035zm16.2-6.087c.24 0 .44.199.36.637l-1.12.238c.12-.477.48-.875.76-.875m.6 1.83h-.24c-.28.358-.6.597-.88.597s-.48-.2-.48-.597c0-.199 0-.358.04-.477l1.84-.597c.36-.836-.04-1.233-.6-1.233-.88 0-1.88 1.432-1.88 2.705 0 .597.28.875.68.875.6 0 1.12-.477 1.52-1.273m-.32-2.665 1.28-1.194v-.16h-.68l-.8 1.314h.2zm-3.84.835h.48l-1 2.665c-.08.24.04.438.24.438.56 0 1.44-.557 1.72-1.273h-.16c-.24.239-.68.597-1.12.676l.88-2.466h.88l.08-.398h-.88l.36-.915h-.36l-.64.915-.64.08v.238h.16zm-.48.318c.16-.437.04-.795-.28-.795-.4 0-.48.278-.88 1.114v-.478c0-.358-.08-.636-.44-.636-.4 0-.68.596-1 1.114h.16c.2-.24.36-.398.48-.398.16 0 .24.238 0 .795l-.68 1.592c-.16.278 0 .477.28.477.2 0 .24-.04.36-.239l.76-1.83c.2-.238.4-.437.6-.676h.68v-.04zm-4.04-.318c.24 0 .44.199.36.637l-1.12.238c.16-.477.44-.875.76-.875m.64 1.83h-.24c-.28.358-.6.597-.88.597s-.48-.2-.48-.597c0-.199 0-.358.04-.477l1.84-.597c.36-.836-.04-1.233-.6-1.233-.88 0-1.88 1.432-1.88 2.705 0 .597.28.875.68.875.56 0 1.08-.477 1.52-1.273m-4.56.716c-.2 0-.44-.159-.44-.278 0-.04.08-.24.2-.478l.28-.795c.28-.398.8-.796 1.08-.796.16 0 .28.08.28.358.04.716-.64 1.99-1.4 1.99m2.12-2.308c0-.557-.2-.756-.6-.756-.44 0-.88.477-1.32 1.074l1.08-2.904-.04-.04-1.12.16v.158l.24.16c.2.159.16.357-.04.795l-1.2 3.063c-.08.239-.2.478-.2.557 0 .279.44.597.84.597.84 0 2.36-1.631 2.36-2.864m-3.6-.319c.04-.238-.08-.397-.2-.397-.56 0-1.12.477-1.44 1.114h.16c.16-.24.44-.478.76-.557l-1.04 2.625c-.08.239.08.398.2.398.48 0 1.08-.477 1.32-1.114h-.16c-.16.239-.44.478-.76.557zm.16-1.352c.24 0 .44-.2.44-.438 0-.239-.2-.437-.44-.437s-.44.198-.44.437c.04.239.16.438.44.438m-2.68-.438h-2.44l-.04.2c.68.158.8.198.44 1.113l-.8 2.148c-.36.876-.48.995-1.28 1.114l-.04.2h3.64l.8-1.433h-.24c-.44.477-1 1.114-1.8 1.114-.6 0-.68-.08-.36-1.034l.8-2.149c.36-.875.48-.994 1.28-1.114v-.159z" fill="#000"/><path d="m13.56 11.171c.152-.16.227-.241.378-.403.226-.281.452-.563.716-.805.076-.08.151-.161.227-.201 0 0 0-.04.037-.08-.075.04-.188.16-.264.2 0 0-.037 0 0-.04.076-.04.151-.08.227-.201v-.041c-.264-.04-.528.16-.717.362h-.075c-.34.08-.566.403-.867.564v-.04c-.151.04-.227.16-.378.16-.188.04-.377 0-.527 0-.264.04-.528.081-.792.162-.151.04-.264.08-.415.16 0 0 0 .041-.038.041l-.15.161c-.151.04-.227.201-.378.282h-.037l-.34.362h-.037c0-.04.037-.04.037-.08s.038-.04.038-.08c.038-.04.038-.081.075-.162v-.04h-.037a1.63 1.63 0 0 1 .377-.282h-.038l.038-.04c-.038 0-.076.04-.076.08-.037.04-.075.161-.188.161h-.038v-.04s0-.04.038-.04v-.241l.15-.162c.076-.04.19-.08.227-.16 0 0 .038 0 .038-.041a.603.603 0 0 0 -.34.201h-.075c0-.04.075-.04.15-.08h.038c.717-.564 1.622-.443 2.414-.765.037-.04.15-.08.188-.161.076-.04.189-.162.34-.242.188-.161.263-.282.377-.564v-.04a4.485 4.485 0 0 1 -.943.765c-.453.242-.943.201-1.395.282 0-.04.037-.04.075-.04 0-.04.038-.08.076-.161h.037s0-.04.038-.04h.075c-.037-.081-.188.04-.264 0 .038-.041 0-.081.038-.162h.076c0-.04.037-.08.037-.08.34-.202.604-.363.943-.564-.038 0-.075.04-.189 0 .038 0 0-.04.038-.04.226-.04.415-.202.641-.282-.075 0-.15.04-.226 0 .038 0 .038-.04.15-.04v-.04h.038-.037c0-.041.075 0 .15-.041h-.037c.038-.08.188-.08.264-.161 0-.04-.076 0-.076-.04h.038-.038c-.037 0 0-.04 0-.08.151-.162.151-.363.189-.565h-.038c-.226.242-.565.363-.867.443h-.075c-.076.04-.264.04-.378 0a.51.51 0 0 1 -.226-.201c-.188-.08-.34-.201-.528-.282a3.709 3.709 0 0 0 -1.621-.242c.226-.16.528-.16.754-.241.377-.08.717-.242 1.056-.242h-.226c-.264 0-.604.04-.943.161-.226.04-.415.161-.603.202-.151.04-.189.201-.34.16v-.04c.227-.281.453-.563.792-.563.377-.04.754 0 1.131.04.264 0 .528.08.792.161.076 0 .151.201.226.201.151.04.264 0 .377.08v-.16c.076-.08.189 0 .264 0 .189-.08-.15-.282-.226-.483v-.04c.189.16.264.362.528.442.075.04.377.08.34 0-.076-.241-.34-.443-.528-.684v-.202c-.038 0-.038 0-.038-.04v-.08c-.076-.04-.038-.161-.076-.202-.037-.08 0-.282-.037-.402-.038-.162-.038-.242-.076-.403-.037-.403-.15-.765-.188-1.087-.038-.443.226-.806.415-1.128.15-.282.339-.564.603-.765.038-.282.226-.483.415-.765.188-.201.452-.363.64-.443.265-.362.529-.443.529-.443h4.298l.075.04c.076.04.227.161.34.202.15.08.34.201.415.362.037.04.075.201.037.282-.037.08-.037.282-.188.362-.151.04-.264.04-.453.04-.075 0-.188 0-.264-.04.34.161.604.282.83.604 0 .04.075.04.188.04v.04c-.037.041-.075.041-.037.162h.15c.076-.04.076-.282.227-.201.075.04.15.241.075.362-.075.08-.188.161-.264.242v.16c.038.081.076.202.076.283.037.16.075.362.15.483.151.362.227.684.189 1.047 0 .201-.075.362 0 .564.038.2.15.281.226.483.076.16.189.241.226.362.151.242.378.443.264.765-.037.161-.264.161-.452.242-.15.08 0 .282.038.403.075.2-.151.362-.264.402.037.04.15.04.15.08 0 .081.151.202.038.283-.075.16-.34.201-.226.402.075.161.038.363 0 .484-.038.2-.226.281-.377.362a.727.727 0 0 1 -.415 0c-.038 0-.075-.04-.15-.04-.378-.04-.755-.161-1.056-.161-.076 0-.227.04-.264.08-.076.08-.189.161-.264.242l-.038.04-.038.04c-.037.08-.15.161-.188.242v.04c-.076.161-.151.282-.151.403-.15.564-.076 1.007 0 1.087.038.04.716.242 1.169.483.226.08.377.202.528.242h-8.899c.415-.282.792-.443 1.395-.765.264-.04.867-.363 1.056-.564m-3.243-1.61h-.075c0-.081.188-.081.264-.162.037 0 .075-.04.15-.04.038.04.076.04.151.08-.188.121-.377 0-.49.121m-3.318-.562c.264-.443.452-.806.641-1.208a3.84 3.84 0 0 0 .754-.645c.377-.402.754-.805 1.207-1.006.188-.04.377-.04.565 0-.037.08-.188.04-.264.16h-.037v-.04c-.227.242-.528.363-.717.645-.15.241-.226.563-.528.604-.075 0 0-.04 0-.04-.603.442-1.055.926-1.621 1.53m1.81-1.49c0 .04-.038.04-.038.08s-.038.04-.075.08h-.038c-.038-.08 0-.16.15-.16 0-.04 0 0 0 0m.981 3.423c0 .04-.037.04-.037.04.037 0 .037 0 .037.04-.037.04-.075.08-.15.08h-.038l-.076.081c-.037 0-.15 0-.075-.04l.15-.161.076-.08.038-.041c0 .04.075.04.075.08m-.377-.2c-.075.04-.188.16-.226.2-.075.04-.189.081-.264.162h-.038c-.075.04-.15.08-.226.2l-.038.041-.037.04-.076.081-.037.04h-.076-.038c-.037 0-.037.04-.075.04l-.15.162v-.04c0-.04.037-.04.037-.081v-.04l.038-.04c.037-.041.037-.041.037-.081 0 0 0-.04.038-.04 0 0 0-.04.038-.04v-.041-.04-.04c.037-.04.037-.081.075-.081-.038 0-.038.04-.075.04 0 0-.038 0-.038-.04l.038-.04c.037-.04.037-.08.075-.08s.038-.041.038-.041l.038-.04c.188-.202.565-.202.83-.363.075-.04.225 0 .338 0 .038 0 .151 0 .189.04-.075-.12-.264.04-.415.121m.415-1.57s.038 0 .075-.04h-.188v-.04c-.076 0-.226.04-.34.08-.15.04-.263.16-.452.201-.226.08-.415.282-.716.403v-.04c0-.04.075-.081.15-.162v-.08c.189-.242.415-.403.604-.604v-.04c.037-.081.188-.162.226-.242 0-.04.075-.161.226-.201 0 0-.037 0-.037-.04-.076 0-.189.04-.264 0 .037-.04.075-.04.15-.081 0 0-.037 0-.037-.04s.037-.081.075-.081c.076 0 .189 0 .264-.08-.15 0-.34.04-.452-.04.075-.283.264-.565.565-.685h.038c0 .08-.038.201-.189.241.189.04.34.04.528.161 0 .04-.037 0-.075 0 .075.04.226 0 .34.08-.039.041-.152 0-.19 0 .642.202 1.358.363 1.924.846-.453.242-.98.363-1.509.484h-.188v.04c-.076 0-.151 0-.226.04-.113-.04-.189 0-.302-.08" fill="#fff"/><path d="m13.115 11.1.385-.4c.23-.28.462-.56.73-.8.078-.08.155-.16.232-.2 0 0 0-.04.038-.08-.077.04-.192.16-.27.2 0 0-.038 0 0-.04a.517.517 0 0 0 .232-.2v-.04c-.27-.04-.539.16-.731.36h-.077c-.346.08-.577.4-.885.56v-.04c-.154.04-.23.16-.384.16-.193.04-.385 0-.539 0-.27.04-.538.08-.808.16-.153.04-.269.08-.423.16 0 0 0 .04-.038.04l-.154.16c-.154.04-.23.2-.385.28h-.038l-.346.36h-.039c0-.04.039-.04.039-.08s.038-.04.038-.08c.039-.04.039-.08.077-.16v-.04h-.038c.077-.08.23-.2.384-.28h-.038l.038-.04c-.038 0-.077.04-.077.08-.038.04-.076.16-.192.16h-.038v-.04s0-.04.038-.04v-.24l.154-.16c.077-.04.192-.08.23-.16 0 0 .04 0 .04-.04a.618.618 0 0 0 -.347.2h-.077c0-.04.077-.04.154-.08h.038c.731-.56 1.654-.44 2.462-.76.038-.04.154-.08.192-.16.077-.04.193-.16.346-.24.193-.16.27-.28.385-.56v-.04c-.27.28-.615.56-.961.76-.462.24-.962.2-1.424.28 0-.04.039-.04.077-.04 0-.04.039-.08.077-.16h.039s0-.04.038-.04h.077c-.038-.08-.192.04-.27 0 .04-.04 0-.08.04-.16h.076c0-.04.039-.08.039-.08.346-.2.615-.36.961-.56-.038 0-.077.04-.192 0 .038 0 0-.04.038-.04.231-.04.424-.2.654-.28-.077 0-.154.04-.23 0 .038 0 .038-.04.153-.04v-.04h.039-.039c0-.04.077 0 .154-.04h-.038c.038-.08.192-.08.269-.16 0-.04-.077 0-.077-.04h.039-.039c-.038 0 0-.04 0-.08.154-.16.154-.36.192-.56h-.038c-.23.24-.577.36-.885.44h-.077c-.077.04-.269.04-.384 0-.077-.04-.154-.08-.231-.2-.192-.08-.346-.2-.538-.28a3.876 3.876 0 0 0 -1.654-.24c.23-.16.538-.16.769-.24.385-.08.73-.24 1.077-.24h-.23c-.27 0-.616.04-.962.16-.231.04-.424.16-.616.2-.154.04-.192.2-.346.16v-.04c.23-.28.462-.56.808-.56.384-.04.769 0 1.154.04.269 0 .538.08.807.16.077 0 .154.2.231.2.154.04.27 0 .385.08v-.16c.077-.08.192 0 .269 0 .192-.08-.154-.28-.23-.48v-.04c.191.16.268.36.538.44.076.04.384.08.346 0-.077-.24-.346-.44-.539-.68v-.2c-.038 0-.038 0-.038-.04v-.08c-.077-.04-.039-.16-.077-.2-.039-.08 0-.28-.039-.4-.038-.16-.038-.24-.077-.4-.038-.4-.153-.76-.192-1.08-.038-.44.23-.8.423-1.12.154-.28.346-.56.616-.76.038-.28.23-.48.423-.76.192-.2.461-.36.654-.44.268-.36.538-.44.538-.44h-15v12h10.615c.423-.28.808-.44 1.423-.76.27-.12.885-.44 1.077-.64m-3.307-1.6h-.078c0-.08.192-.08.269-.16.038 0 .077-.04.154-.04.038.04.077.04.154.08-.193.12-.385 0-.5.12m-3.346-.56s-.039 0 0 0c.269-.44.461-.8.653-1.2.27-.16.539-.4.77-.64.384-.4.769-.8 1.23-1 .193-.04.385-.04.577 0-.038.08-.192.04-.269.16h-.038v-.04c-.231.24-.539.36-.731.64-.154.24-.23.56-.539.6-.077 0 0-.04 0-.04-.653.44-1.115.92-1.653 1.52m1.807-1.48c0 .04-.038.04-.038.08s-.039.04-.077.08h-.039c-.038-.08 0-.16.154-.16 0-.04 0 0 0 0m1 3.4c0 .04-.038.04-.038.04.038 0 .038 0 .038.04-.038.04-.077.08-.154.08h-.038l-.076.08c-.038 0-.154 0-.077-.04l.154-.16.077-.08.038-.04c0 .04.077.04.077.08m-.384-.2c-.077.04-.193.16-.231.2-.077.04-.192.08-.27.16h-.038c-.077.04-.154.08-.23.2l-.04.04-.038.04-.076.08-.039.04h-.077-.038c-.039 0-.039.04-.077.04l-.154.16v-.04c0-.04.038-.04.038-.08v-.04l.039-.04c.038-.04.038-.04.038-.08 0 0 0-.04.039-.04 0 0 0-.04.038-.04v-.04-.04-.04c.039-.04.039-.08.077-.08-.038 0-.038.04-.077.04 0 0-.038 0-.038-.04l.038-.04c.039-.04.039-.08.077-.08.039 0 .039-.04.039-.04l.038-.04c.192-.2.577-.2.846-.36.077-.04.231 0 .346 0 .039 0 .154 0 .193.04-.077-.12-.231.04-.423.12m.423-1.56s.038 0 .077-.04h-.193v-.04c-.077 0-.23.04-.346.08-.154.04-.27.16-.461.2-.231.08-.423.28-.731.4v-.04c0-.04.077-.08.154-.16v-.08c.192-.24.423-.4.615-.6v-.04c.039-.08.192-.16.23-.24 0-.04.078-.16.232-.2 0 0-.039 0-.039-.04-.077 0-.192.04-.27 0 .04-.04.078-.04.155-.08 0 0-.039 0-.039-.04s.039-.08.077-.08c.077 0 .193 0 .27-.08-.154 0-.347.04-.462-.04.077-.28.27-.56.577-.68h.038c0 .08-.038.2-.192.24.192.04.346.04.538.16 0 .04-.038 0-.076 0 .076.04.23 0 .346.08-.039.04-.154 0-.193 0 .654.2 1.385.36 1.962.84-.462.24-1 .36-1.539.48h-.192v.04c-.077 0-.154 0-.23.04-.116-.04-.193 0-.308-.08" fill="#000091"/><path d="m34 .5h-13.377l.083.04c.082.04.247.161.371.202.165.08.372.201.454.362.042.04.083.201.042.282-.042.08-.042.282-.207.362-.165.04-.289.04-.495.04-.083 0-.207 0-.29-.04.372.161.661.282.909.604 0 .04.083.04.206.04v.04c-.04.041-.082.041-.04.162h.164c.083-.04.083-.282.248-.201.083.04.165.241.083.362-.083.08-.207.161-.29.242v.16c.042.081.083.202.083.283.041.16.083.362.165.483.165.362.248.684.207 1.047 0 .201-.083.362 0 .564.041.2.165.281.247.483.083.16.207.241.248.362.165.242.413.443.29.765-.042.161-.29.161-.496.242-.165.08 0 .282.041.403.083.2-.165.362-.289.402.041.04.165.04.165.08 0 .081.165.202.041.283-.082.16-.371.201-.247.402.082.161.041.363 0 .484-.042.2-.248.281-.413.362a.869.869 0 0 1 -.454 0c-.042 0-.083-.04-.165-.04-.413-.04-.826-.161-1.156-.161-.083 0-.248.04-.29.08-.082.08-.206.161-.288.242l-.042.04-.041.04c-.041.08-.165.161-.207.242v.04c-.082.161-.165.282-.165.403-.165.564-.082 1.007 0 1.087.042.04.785.242 1.28.483.248.08.413.202.578.242h13.047z" fill="#e1000f"/><path d="m20.043 4.68c.1 0 .298 0 .298.033-.05.166-.347.2-.546.332h-.05c-.05.033-.05.132-.1.132h-.248c.1.066.249.133.448.133 0 0 .05.033.05.066h.099v.066c-.05.066-.249.033-.348.033.248.033.447.033.695 0 .2-.033 0-.232.1-.331-.05 0 0-.033-.05-.033l.199-.133c.05 0 .1 0 .199-.033 0-.033-.1-.033-.05-.066.199-.066.298-.199.248-.298 0-.033-.248-.033-.347-.066-.1-.033-.299 0-.497 0-.1 0-.298.033-.447.066-.348.033-.497.132-.696.166.199-.034.348-.067.596-.133.15.066.249 0 .447.066" fill="#9c9b9b"/><path d="m0 28.854v-8.893h2.264l2.144 3.653 2.145-3.653h2.263v8.893h-1.786v-6.312l-1.985 3.295h-1.272l-1.986-3.295v6.312zm11.438 0v-8.893h1.787v8.893zm4.408 0v-8.893h2.303l3.972 6.352v-6.352h1.787v8.893h-2.304l-3.971-6.392v6.392zm10.723 0v-8.893h1.787v8.893zm3.613-1.23 1.311-1.192c.278.358.556.596.913.794.358.199.715.278 1.073.278.357 0 .635-.08.834-.278.198-.198.317-.436.317-.754 0-.397-.198-.714-.635-.913-.437-.198-.874-.437-1.39-.675a4.81 4.81 0 0 1 -1.39-.953c-.437-.397-.635-.952-.635-1.667 0-.357.079-.675.198-.993.159-.317.318-.595.596-.833s.556-.437.913-.556c.358-.12.715-.199 1.152-.199.675 0 1.27.12 1.787.397a5.03 5.03 0 0 1 1.35 1.072l-1.31 1.191a3.845 3.845 0 0 0 -.834-.794 1.616 1.616 0 0 0 -.953-.317c-.318 0-.556.08-.755.278-.198.158-.278.397-.278.675 0 .397.199.714.636.913.436.198.873.436 1.39.675a4.81 4.81 0 0 1 1.39.952c.436.397.635.953.635 1.707 0 .397-.08.794-.238 1.112a2.597 2.597 0 0 1 -1.549 1.35 3.69 3.69 0 0 1 -1.152.198c-.754 0-1.39-.119-1.906-.397a3.621 3.621 0 0 1 -1.47-1.072zm7.308-6.035v-1.628h7.307v1.628h-2.74v7.265h-1.787v-7.264h-2.78zm9.015 7.265v-8.893h5.202v1.549h-3.415v2.064h2.86v1.509h-2.86v2.223h3.376v1.548zm1.787-9.647-1.628-1.707h1.866l1.43 1.707zm5.6 9.647v-8.893h2.7c.993 0 1.748.239 2.304.715s.834 1.112.834 1.945c0 .516-.12.993-.358 1.39a2.312 2.312 0 0 1 -1.032.913l2.78 3.93h-2.105l-2.383-3.613h-.914v3.613zm2.82-7.344h-1.033v2.223h1.032c.397 0 .675-.08.874-.278.199-.199.318-.476.318-.834 0-.357-.12-.595-.318-.794-.199-.238-.477-.317-.874-.317zm5.678 7.344v-8.893h5.203v1.549h-3.376v2.064h2.86v1.509h-2.86v2.223h3.376v1.548zm-62.39 12.704v-8.893h3.495c.715 0 1.35.12 1.946.358a4.885 4.885 0 0 1 1.509.952c.397.397.715.874.953 1.43a4.246 4.246 0 0 1 0 3.414c-.238.555-.556.992-.953 1.429-.397.397-.914.714-1.51.953a5.145 5.145 0 0 1 -1.945.357zm3.495-7.265h-1.708v5.598h1.708c.397 0 .794-.08 1.152-.199.357-.159.635-.357.913-.595a3.03 3.03 0 0 0 .596-.914c.158-.357.198-.714.198-1.111s-.08-.754-.198-1.112a2.828 2.828 0 0 0 -.596-.873 3.032 3.032 0 0 0 -.913-.596 3.499 3.499 0 0 0 -1.152-.198zm6.592 7.265v-8.893h5.203v1.549h-3.376v2.064h2.86v1.548h-2.86v2.223h3.376v1.549h-5.203zm6.593-1.23 1.31-1.192c.278.358.556.596.914.794.357.199.715.278 1.072.278s.635-.08.834-.278.318-.436.318-.754c0-.397-.199-.715-.636-.913-.437-.199-.873-.437-1.39-.675a4.81 4.81 0 0 1 -1.39-.953c-.437-.397-.635-.953-.635-1.667 0-.357.08-.675.198-.993.16-.317.318-.595.596-.833.278-.239.556-.437.914-.556.357-.12.714-.199 1.151-.199.675 0 1.271.12 1.787.397a5.03 5.03 0 0 1 1.35 1.072l-1.31 1.191a3.845 3.845 0 0 0 -.834-.794 1.616 1.616 0 0 0 -.953-.317c-.318 0-.556.079-.755.278-.198.158-.278.397-.278.674 0 .397.199.715.636.914.437.198.874.436 1.39.674a4.81 4.81 0 0 1 1.39.953c.437.397.635.953.635 1.707 0 .397-.08.794-.238 1.112a2.597 2.597 0 0 1 -1.549 1.35 3.69 3.69 0 0 1 -1.152.198c-.754 0-1.39-.119-1.906-.397-.635-.238-1.072-.595-1.47-1.072zm10.921 0 1.31-1.192c.279.358.557.596.914.794.357.199.715.278 1.072.278.358 0 .636-.08.834-.278.199-.198.318-.436.318-.754 0-.397-.199-.715-.635-.913-.437-.199-.874-.437-1.39-.675a4.81 4.81 0 0 1 -1.39-.953c-.437-.397-.636-.953-.636-1.667 0-.357.08-.675.199-.993.159-.317.317-.595.595-.833.278-.239.556-.437.914-.556.357-.12.715-.199 1.152-.199.675 0 1.27.12 1.787.397a5.03 5.03 0 0 1 1.35 1.072l-1.31 1.191a3.845 3.845 0 0 0 -.835-.794 1.616 1.616 0 0 0 -.953-.317c-.317 0-.556.079-.754.278-.199.158-.278.397-.278.674 0 .397.198.715.635.914.437.198.874.436 1.39.674a4.81 4.81 0 0 1 1.39.953c.437.397.636.953.636 1.707 0 .397-.08.794-.239 1.112a2.597 2.597 0 0 1 -1.549 1.35 3.69 3.69 0 0 1 -1.151.198c-.755 0-1.39-.119-1.907-.397-.635-.238-1.112-.595-1.469-1.072zm12.113-7.94c.675 0 1.35.118 1.906.396s1.072.596 1.51 1.033c.396.436.754.913.952 1.508a4.68 4.68 0 0 1 .358 1.826c0 .635-.12 1.231-.358 1.826a5.4 5.4 0 0 1 -.953 1.51c-.397.436-.913.753-1.509 1.031-.596.238-1.231.397-1.906.397-.715 0-1.35-.119-1.906-.397-.596-.238-1.073-.595-1.51-1.032a3.762 3.762 0 0 1 -.953-1.509 4.68 4.68 0 0 1 -.357-1.826c0-.635.119-1.23.357-1.826a5.4 5.4 0 0 1 .953-1.508c.398-.437.914-.755 1.51-1.033a4.8 4.8 0 0 1 1.906-.397zm0 7.74a2.85 2.85 0 0 0 2.065-.873c.238-.278.437-.595.596-.952.158-.358.198-.755.198-1.191 0-.437-.08-.834-.198-1.191a3.865 3.865 0 0 0 -.596-.953c-.238-.278-.556-.477-.914-.635a2.85 2.85 0 0 0 -1.151-.239c-.397 0-.795.08-1.152.239-.357.158-.675.357-.913.635a3.865 3.865 0 0 0 -.596.953c-.159.357-.199.754-.199 1.19 0 .437.08.834.199 1.192.159.357.357.674.596.952.238.278.556.477.913.636.357.158.715.238 1.152.238zm6.553 1.43v-8.893h1.787v7.265h3.375v1.628zm6.91 0v-8.893h1.787v8.893zm4.408 0v-8.893h3.495c.715 0 1.35.12 1.946.358a4.885 4.885 0 0 1 1.509.952c.397.397.715.874.953 1.43a4.246 4.246 0 0 1 0 3.414c-.238.555-.556.992-.953 1.429-.397.397-.914.714-1.51.953a5.145 5.145 0 0 1 -1.945.357zm3.534-7.265h-1.707v5.598h1.707c.398 0 .795-.08 1.152-.199.358-.159.636-.357.914-.595a3.03 3.03 0 0 0 .595-.914c.16-.357.199-.714.199-1.111s-.08-.754-.199-1.112a2.828 2.828 0 0 0 -.595-.873 3.032 3.032 0 0 0 -.914-.596 3.69 3.69 0 0 0 -1.152-.198zm5.243 7.265 3.375-8.893h2.383l3.376 8.893h-1.906l-.834-2.303h-3.576l-.834 2.303h-1.985zm3.336-3.85h2.422l-1.23-3.336-1.192 3.335zm7.267 3.85v-8.893h2.7c.994 0 1.748.238 2.304.715.556.476.834 1.111.834 1.945 0 .516-.119.993-.357 1.39a2.312 2.312 0 0 1 -1.033.913l2.78 3.93h-2.143l-2.383-3.613h-.914v3.613h-1.787zm2.82-7.344h-1.033v2.223h1.033c.397 0 .675-.08.874-.278.198-.199.317-.477.317-.834s-.119-.595-.317-.794c-.199-.238-.477-.317-.874-.317zm5.679 7.344v-8.893h1.787v8.893zm3.495-7.265v-1.628h7.307v1.628h-2.74v7.265h-1.787v-7.265zm9.015 7.265v-8.893h5.202v1.549h-3.375v2.064h2.86v1.548h-2.861v2.223h3.375v1.549h-5.202v-.04zm3.415-9.647h-1.628l1.43-1.707h1.866zm3.217 8.416 1.31-1.19c.279.357.557.595.914.793.357.199.715.278 1.072.278.358 0 .636-.08.834-.278.199-.198.318-.436.318-.754 0-.397-.199-.715-.635-.913-.437-.199-.874-.437-1.39-.675a4.81 4.81 0 0 1 -1.39-.953c-.437-.397-.636-.953-.636-1.667 0-.357.08-.675.199-.993.159-.317.317-.595.595-.833.278-.239.556-.437.914-.556.357-.12.715-.199 1.152-.199.675 0 1.27.12 1.787.397a5.03 5.03 0 0 1 1.35 1.072l-1.31 1.191a3.845 3.845 0 0 0 -.835-.794 1.616 1.616 0 0 0 -.953-.317c-.317 0-.556.079-.754.278-.199.158-.278.397-.278.674 0 .397.198.715.635.914.437.198.874.436 1.39.674a4.81 4.81 0 0 1 1.39.953c.437.397.636.953.636 1.707 0 .397-.08.794-.239 1.112a2.597 2.597 0 0 1 -1.549 1.35 3.69 3.69 0 0 1 -1.151.198c-.755 0-1.39-.119-1.907-.397-.635-.238-1.072-.595-1.469-1.072zm-104.606 13.935v-8.893h5.203v1.548h-3.376v2.065h2.86v1.548h-2.86v2.223h3.376v1.549h-5.203zm6.672-7.265v-1.628h7.307v1.628h-2.74v7.265h-1.787v-7.265zm12.43 7.265v-8.893h3.495c.715 0 1.35.12 1.946.357a4.885 4.885 0 0 1 1.51.953c.396.397.714.874.952 1.43a4.246 4.246 0 0 1 0 3.414c-.238.555-.556.992-.953 1.429-.397.397-.913.714-1.509.953a5.145 5.145 0 0 1 -1.946.357zm3.535-7.265h-1.708v5.597h1.708c.397 0 .794-.079 1.152-.198.357-.159.635-.357.913-.596a3.03 3.03 0 0 0 .596-.913c.159-.357.198-.714.198-1.111s-.08-.755-.198-1.112a2.828 2.828 0 0 0 -.596-.873 3.032 3.032 0 0 0 -.913-.596 3.69 3.69 0 0 0 -1.152-.198zm6.553 7.265v-8.893h5.202v1.548h-3.376v2.065h2.86v1.548h-2.86v2.223h3.376v1.549h-5.202zm10.841 0v-8.893h1.788v7.265h3.375v1.628zm6.156 0 3.376-8.893h2.383l3.375 8.893h-1.906l-.834-2.303h-3.574l-.834 2.303zm3.336-3.851h2.423l-1.232-3.335-1.19 3.335zm9.889 2.62 1.31-1.19c.278.356.556.595.914.793.357.199.715.278 1.072.278s.635-.08.834-.278.318-.437.318-.754c0-.397-.199-.715-.636-.913-.437-.199-.873-.437-1.39-.675a4.81 4.81 0 0 1 -1.39-.953c-.436-.397-.635-.953-.635-1.667 0-.358.08-.675.199-.993.158-.317.317-.595.595-.834.278-.238.556-.436.914-.555.357-.12.714-.199 1.151-.199.675 0 1.271.12 1.787.397a5.03 5.03 0 0 1 1.35 1.072l-1.31 1.191a3.845 3.845 0 0 0 -.834-.794 1.616 1.616 0 0 0 -.953-.318c-.318 0-.556.08-.755.278-.198.16-.278.397-.278.675 0 .397.2.715.636.913.437.199.874.437 1.39.675a4.81 4.81 0 0 1 1.39.953c.437.397.635.953.635 1.707 0 .397-.08.794-.238 1.112a2.597 2.597 0 0 1 -1.549 1.35 3.69 3.69 0 0 1 -1.152.198c-.754 0-1.39-.12-1.906-.397a3.621 3.621 0 0 1 -1.47-1.072zm7.109 1.23 3.375-8.892h2.383l3.376 8.893h-1.946l-.834-2.303h-3.575l-.834 2.303h-1.946zm3.336-3.85h2.422l-1.231-3.335zm7.267 3.85v-8.891h2.304l3.97 6.352v-6.352h1.788v8.893h-2.303l-3.973-6.393v6.392h-1.787zm9.81-7.264v-1.628h7.307v1.628h-2.741v7.265h-1.788v-7.265h-2.78zm9.014 7.265v-8.893h5.163v1.548h-3.375v2.065h2.859v1.548h-2.86v2.223h3.376v1.549h-5.163zm3.376-9.647h-1.628l1.43-1.707h1.866z" fill="#000"/></g></svg>