<?xml version="1.0" encoding="utf-8"?><svg xmlns="http://www.w3.org/2000/svg" width="32" height="32" viewBox="0 0 32 32"><path d="M1.691.391a1.15 1.15 0 011.728 0l5.229 5.704c2.253-1.344 4.705-2.094 7.351-2.094 4.506 0 8.452 2.177 11.806 5.755a27.422 27.422 0 013.002 3.855c.512.794.864 1.419 1.052 1.794s.188.817 0 1.193c-.187.375-.539 1-1.052 1.794a27.274 27.274 0 01-3.002 3.855 22.931 22.931 0 01-2.348 2.189l4.85 5.29c.477.521.477 1.365 0 1.886s-1.251.521-1.728 0l-5.229-5.704c-2.253 1.344-4.705 2.094-7.351 2.094-4.506 0-8.452-2.177-11.806-5.755a27.422 27.422 0 01-3.002-3.855c-.512-.794-.864-1.419-1.052-1.794s-.188-.817 0-1.193c.187-.375.539-1 1.052-1.794a28.238 28.238 0 011.645-2.288 1.272 1.272 0 01.319-.39c.33-.399.676-.792 1.037-1.178A22.931 22.931 0 016.54 7.566l-4.85-5.29a1.422 1.422 0 010-1.886zm1.742 14.666c-.218.337-.41.653-.578.943a24.637 24.637 0 003.285 4.421c2.486 2.651 5.273 4.37 8.327 4.804L4.09 14.088c-.229.322-.448.645-.657.968zM16 21.333a5.327 5.327 0 01-2.056-.41l3.747 4.02c.065.071.121.148.168.229 1.259-.215 2.474-.653 3.64-1.285L18.56 20.68a5.308 5.308 0 01-2.561.654zm0-14.666c-1.935 0-3.771.51-5.5 1.447l2.939 3.207a5.333 5.333 0 017 7.636l3.212 3.505a19.912 19.912 0 002.209-2.04 24.71 24.71 0 003.285-4.421 24.637 24.637 0 00-3.285-4.421c-2.896-3.089-6.2-4.912-9.861-4.912zM13.333 16a2.667 2.667 0 003.311 2.589l-3.167-3.454a2.666 2.666 0 00-.144.866zm-7.194-4.421l-.445.488 5.25 5.637A5.334 5.334 0 0110.666 16c0-1.094.329-2.111.894-2.957L8.348 9.538a19.912 19.912 0 00-2.209 2.04zM16 13.333c-.222 0-.438.027-.644.078l3.167 3.454A2.667 2.667 0 0016 13.332z"/></svg>