<?xml version="1.0" encoding="utf-8"?><svg xmlns="http://www.w3.org/2000/svg" width="32" height="32" viewBox="0 0 32 32"><path d="M8 1.6v4.8A1.6 1.6 0 016.4 8H1.6a1.6 1.6 0 100 3.2h4.8a4.8 4.8 0 004.8-4.8V1.6a1.6 1.6 0 10-3.2 0zM30.4 8h-4.8A1.6 1.6 0 0124 6.4V1.6a1.6 1.6 0 10-3.2 0v4.8a4.8 4.8 0 004.8 4.8h4.8a1.6 1.6 0 100-3.2zM24 30.4v-4.8a1.6 1.6 0 011.6-1.6h4.8a1.6 1.6 0 100-3.2h-4.8a4.8 4.8 0 00-4.8 4.8v4.8a1.6 1.6 0 103.2 0zM1.6 24h4.8A1.6 1.6 0 018 25.6v4.8a1.6 1.6 0 103.2 0v-4.8a4.8 4.8 0 00-4.8-4.8H1.6a1.6 1.6 0 100 3.2z"/></svg>