<?xml version="1.0" encoding="utf-8"?><svg xmlns="http://www.w3.org/2000/svg" width="32" height="32" viewBox="0 0 32 32"><path d="M24.727 0a5.818 5.818 0 11-4.133 9.913l-7.721 4.504a5.848 5.848 0 01.001 3.163l7.725 4.502a5.818 5.818 0 11-1.47 2.511l-7.723-4.499a5.818 5.818 0 110-8.19L19.127 7.4a5.818 5.818 0 015.6-7.4zm0 23.273a2.906 2.906 0 00-2.424 1.3l-.072.145c-.029.05-.06.097-.094.142l-.049.096a2.908 2.908 0 102.639-1.683zM7.273 13.091a2.908 2.908 0 102.497 4.403l.014-.03.035-.055A2.89 2.89 0 0010.182 16c0-.515-.134-1-.369-1.419l-.029-.044-.014-.024a2.898 2.898 0 00-2.497-1.422zM24.727 2.909a2.908 2.908 0 00-2.546 4.318l.035.054.014.024a2.908 2.908 0 102.497-4.396z"/></svg>