<?xml version="1.0" encoding="utf-8"?><svg xmlns="http://www.w3.org/2000/svg" width="32" height="32" viewBox="0 0 32 32"><path d="M12.81 11.915a1.454 1.454 0 01-1.094.795L4.58 13.753l5.162 5.028c.343.334.5.816.419 1.288L8.943 27.17l6.38-3.355c.424-.223.93-.223 1.354 0l6.38 3.355-1.218-7.101a1.455 1.455 0 01.419-1.288l5.162-5.028-7.136-1.043a1.457 1.457 0 01-1.094-.795L16 5.453l-3.19 6.462zm-2.27-1.972l4.156-8.42c.534-1.081 2.075-1.081 2.608 0l4.156 8.42 9.294 1.358c1.192.174 1.668 1.64.804 2.481l-6.724 6.549 1.587 9.252c.204 1.188-1.043 2.094-2.11 1.533L16 26.745l-8.311 4.371c-1.067.561-2.314-.345-2.11-1.533l1.587-9.252-6.724-6.549c-.863-.841-.388-2.307.804-2.481l9.294-1.358z"/></svg>