<?xml version="1.0" encoding="utf-8"?><svg xmlns="http://www.w3.org/2000/svg" width="32" height="32" viewBox="0 0 32 32"><path d="M29.091 21.818c.803 0 1.455.651 1.455 1.455v4.364a4.364 4.364 0 01-4.364 4.364H5.818a4.364 4.364 0 01-4.364-4.364v-4.364a1.455 1.455 0 012.91 0v4.364c0 .803.651 1.455 1.455 1.455h20.364c.803 0 1.455-.651 1.455-1.455v-4.364c0-.803.651-1.455 1.455-1.455zM16 0h.028l.102.005a2.308 2.308 0 01.162.023 1.011 1.011 0 01.162.043c.029.009.057.02.086.031a1.483 1.483 0 01.326.182c.057.042.111.089.163.14l-.131-.117.013.01.119.106 5.818 5.818a1.455 1.455 0 01-2.057 2.057l-3.335-3.335v16.852c0 .746-.561 1.361-1.285 1.445l-.17.01a1.455 1.455 0 01-1.455-1.455V4.963l-3.335 3.335a1.455 1.455 0 01-1.92.121l-.137-.121a1.455 1.455 0 010-2.057L14.972.423l.119-.106.013-.01.031-.024a1.38 1.38 0 01.251-.149l.075-.033.087-.032.067-.02c.031-.009.063-.016.095-.023a1.39 1.39 0 01.292-.029l-.13.006c.034-.003.069-.005.103-.006z"/></svg>