<?xml version="1.0" encoding="UTF-8"?>
<svg width="120px" height="120px" viewBox="0 0 120 120" version="1.1" xmlns="http://www.w3.org/2000/svg" xmlns:xlink="http://www.w3.org/1999/xlink">
    <title>02.Icons/Illustrative/Autres Webinaires</title>
    <g id="02.Icons/Illustrative/Autres-Webinaires" stroke="none" stroke-width="1" fill="none" fill-rule="evenodd">
        <path d="M66.849,44.4242 C66.849,60.1222 54.123,72.8482 38.425,72.8482 C22.726,72.8482 10,60.1222 10,44.4242 C10,28.7262 22.726,16.0002 38.425,16.0002 C54.123,16.0002 66.849,28.7262 66.849,44.4242" id="Fill-1" fill="#F2F3F7"></path>
        <polygon id="Fill-3" fill="#FFFFFF" points="25.847 80.301 97.294 80.301 97.294 32.174 25.847 32.174"></polygon>
        <polygon id="Fill-5" fill="#EDEEF3" points="28.492 77.009 93.699 77.009 93.699 35.327 28.492 35.327"></polygon>
        <path d="M102.6567,19.9696 L102.6567,33.3766 C102.6567,34.8506 101.4497,36.0576 99.9757,36.0576 L74.5027,36.0576 L69.1397,41.4206 L69.1397,19.9696 C69.1397,18.4956 70.3467,17.2886 71.8207,17.2886 L99.9757,17.2886 C101.4497,17.2886 102.6567,18.4956 102.6567,19.9696" id="Fill-6" fill="#FFFFFF"></path>
        <path d="M97.2939,80.3006 L97.2939,84.3226 C97.2939,85.7966 96.0869,87.0036 94.6129,87.0036 L66.4579,87.0036 L55.7329,87.0036 L27.5779,87.0036 C26.1039,87.0036 24.8969,85.7966 24.8969,84.3226 L24.8969,80.3006 L30.2599,80.3006 L97.2939,80.3006 Z" id="Fill-7" fill="#1D71B8"></path>
        <path d="M77.1836,72.445 L77.1836,74.938 L45.0066,74.938 L45.0066,72.445 C45.0066,70.647 45.9056,68.972 47.3936,67.98 L53.0516,64.212 C57.8106,67.818 64.3936,67.818 69.1396,64.212 L74.7966,67.98 C76.2856,68.972 77.1836,70.647 77.1836,72.445" id="Fill-8" fill="#D20050"></path>
        <polygon id="Fill-9" fill="#969CBB" points="67.4581 92.3668 68.4581 97.7298 53.7321 97.7298 54.7321 92.3668 55.7321 87.0038 66.4581 87.0038"></polygon>
        <path d="M61.0953,44.102 C64.7953,44.102 67.7983,47.708 67.7983,52.146 C67.7983,56.585 64.7953,60.19 61.0953,60.19 C57.3953,60.19 54.3923,56.585 54.3923,52.146 C54.3923,47.708 57.3953,44.102 61.0953,44.102" id="Fill-10" fill="#FFFFFF"></path>
        <path d="M67.5081,96.7796 L54.6831,96.7796 L56.5811,87.9546 L65.6101,87.9546 L67.5081,96.7796 Z M97.2941,40.4696 C96.7701,40.4696 96.3441,40.8956 96.3441,41.4206 L96.3441,79.3496 L30.2591,79.3496 C29.7351,79.3496 29.3091,79.7756 29.3091,80.3006 C29.3091,80.8246 29.7351,81.2506 30.2591,81.2506 L96.3441,81.2506 L96.3441,84.3226 C96.3441,85.2776 95.5681,86.0536 94.6121,86.0536 L27.5781,86.0536 C26.6231,86.0536 25.8471,85.2776 25.8471,84.3226 L25.8471,34.7166 C25.8471,33.7616 26.6231,32.9856 27.5781,32.9856 L63.7771,32.9856 C64.3011,32.9856 64.7271,32.5596 64.7271,32.0356 C64.7271,31.5106 64.3011,31.0856 63.7771,31.0856 L27.5781,31.0856 C25.5751,31.0856 23.9461,32.7146 23.9461,34.7166 L23.9461,84.3226 C23.9461,86.3256 25.5751,87.9546 27.5781,87.9546 L54.6801,87.9546 L52.7821,96.7796 L47.6891,96.7796 C47.1641,96.7796 46.7381,97.2056 46.7381,97.7296 C46.7381,98.2546 47.1641,98.6796 47.6891,98.6796 L74.5021,98.6796 C75.0271,98.6796 75.4521,98.2546 75.4521,97.7296 C75.4521,97.2056 75.0271,96.7796 74.5021,96.7796 L69.4081,96.7796 L67.5111,87.9546 L94.6121,87.9546 C96.6151,87.9546 98.2441,86.3256 98.2441,84.3226 L98.2441,41.4206 C98.2441,40.8956 97.8191,40.4696 97.2941,40.4696 L97.2941,40.4696 Z M61.0951,59.2396 C57.9231,59.2396 55.3421,56.0566 55.3421,52.1456 C55.3421,48.2346 57.9231,45.0516 61.0951,45.0516 C64.2681,45.0516 66.8491,48.2346 66.8491,52.1456 C66.8491,56.0566 64.2681,59.2396 61.0951,59.2396 L61.0951,59.2396 Z M61.0951,43.1516 C56.8751,43.1516 53.4421,47.1866 53.4421,52.1456 C53.4421,57.1046 56.8751,61.1396 61.0951,61.1396 C65.3161,61.1396 68.7491,57.1046 68.7491,52.1456 C68.7491,47.1866 65.3161,43.1516 61.0951,43.1516 L61.0951,43.1516 Z M76.2341,74.9376 L76.2341,72.4446 C76.2341,70.9626 75.5001,69.5896 74.2711,68.7716 L69.1601,65.3686 C64.3251,68.6856 57.8761,68.6846 53.0291,65.3676 L47.9201,68.7716 C46.6911,69.5896 45.9571,70.9626 45.9571,72.4446 L45.9571,74.9376 C45.9571,75.4626 45.5311,75.8876 45.0071,75.8876 C44.4831,75.8876 44.0571,75.4626 44.0571,74.9376 L44.0571,72.4446 C44.0571,70.3256 45.1081,68.3606 46.8671,67.1896 L52.5251,63.4216 C52.8591,63.1966 53.3021,63.2096 53.6241,63.4556 C58.0291,66.7916 64.1721,66.7946 68.5651,63.4556 C68.8871,63.2116 69.3291,63.1976 69.6651,63.4216 L75.3231,67.1896 C77.0831,68.3606 78.1341,70.3256 78.1341,72.4446 L78.1341,74.9376 C78.1341,75.4626 77.7081,75.8876 77.1841,75.8876 C76.6591,75.8876 76.2341,75.4626 76.2341,74.9376 L76.2341,74.9376 Z M101.7061,33.3766 C101.7061,34.3316 100.9301,35.1076 99.9751,35.1076 L74.5021,35.1076 C74.2501,35.1076 74.0091,35.2086 73.8301,35.3856 L70.0891,39.1276 L70.0891,19.9696 C70.0891,19.0146 70.8651,18.2386 71.8201,18.2386 L99.9751,18.2386 C100.9301,18.2386 101.7061,19.0146 101.7061,19.9696 L101.7061,33.3766 Z M99.9751,16.3386 L71.8201,16.3386 C69.8181,16.3386 68.1891,17.9666 68.1891,19.9696 L68.1891,41.4206 C68.1891,41.8036 68.4201,42.1506 68.7761,42.2986 C68.8931,42.3466 69.0161,42.3706 69.1391,42.3706 C69.3861,42.3706 69.6291,42.2736 69.8111,42.0916 L74.8961,37.0086 L99.9751,37.0086 C101.9781,37.0086 103.6071,35.3796 103.6071,33.3766 L103.6071,19.9696 C103.6071,17.9666 101.9781,16.3386 99.9751,16.3386 L99.9751,16.3386 Z" id="Fill-11" fill="#343852"></path>
        <path d="M79.4749,26.6732 C79.4749,26.1492 79.0489,25.7232 78.5249,25.7232 L77.1839,25.7232 C76.6599,25.7232 76.2339,26.1492 76.2339,26.6732 C76.2339,27.1972 76.6599,27.6232 77.1839,27.6232 L78.5249,27.6232 C79.0489,27.6232 79.4749,27.1972 79.4749,26.6732 M95.5629,26.6732 C95.5629,26.1492 95.1369,25.7232 94.6129,25.7232 L93.2719,25.7232 C92.7469,25.7232 92.3219,26.1492 92.3219,26.6732 C92.3219,27.1972 92.7469,27.6232 93.2719,27.6232 L94.6129,27.6232 C95.1369,27.6232 95.5629,27.1972 95.5629,26.6732 M86.5689,27.6232 L85.2279,27.6232 C84.7039,27.6232 84.2779,27.1972 84.2779,26.6732 C84.2779,26.1492 84.7039,25.7232 85.2279,25.7232 L86.5689,25.7232 C87.0929,25.7232 87.5189,26.1492 87.5189,26.6732 C87.5189,27.1972 87.0929,27.6232 86.5689,27.6232" id="Fill-12" fill="#969CBB"></path>
    </g>
</svg>