<?xml version="1.0" encoding="UTF-8"?>
<svg width="120px" height="120px" viewBox="0 0 120 120" version="1.1" xmlns="http://www.w3.org/2000/svg" xmlns:xlink="http://www.w3.org/1999/xlink">
    <title>02.Icons/Illustrative/Autres Courrier</title>
    <g id="02.Icons/Illustrative/Autres-Courrier" stroke="none" stroke-width="1" fill="none" fill-rule="evenodd">
        <path d="M93.7758,59.221 C93.7758,38.664 77.1108,22 56.5548,22 C35.9978,22 19.3338,38.664 19.3338,59.221 C19.3338,79.778 35.9978,96.442 56.5548,96.442 C77.1108,96.442 93.7758,79.778 93.7758,59.221" id="Fill-1" fill="#F2F3F7"></path>
        <path d="M86.6246,38.9185 L86.6246,76.1395 C86.6246,78.0005 85.1016,79.5235 83.2406,79.5235 L59.5546,79.5235 L22.3336,79.5235 C20.4726,79.5235 18.9496,78.0005 18.9496,76.1395 L18.9496,38.9185 C18.9496,37.0575 20.4726,35.5345 22.3336,35.5345 L59.5546,35.5345 L83.2406,35.5345 C85.1016,35.5345 86.6246,37.0575 86.6246,38.9185" id="Fill-3" fill="#FFFFFF"></path>
        <path d="M22.333,36.4852 C20.991,36.4852 19.9,37.5772 19.9,38.9192 L19.9,76.1392 C19.9,77.4812 20.991,78.5732 22.333,78.5732 L83.241,78.5732 C84.583,78.5732 85.675,77.4812 85.675,76.1392 L85.675,38.9192 C85.675,37.5772 84.583,36.4852 83.241,36.4852 L22.333,36.4852 Z M83.241,80.4732 L22.333,80.4732 C19.944,80.4732 18,78.5292 18,76.1392 L18,38.9192 C18,36.5292 19.944,34.5852 22.333,34.5852 L83.241,34.5852 C85.631,34.5852 87.575,36.5292 87.575,38.9192 L87.575,76.1392 C87.575,78.5292 85.631,80.4732 83.241,80.4732 L83.241,80.4732 Z" id="Fill-5" fill="#343852"></path>
        <path d="M65.9741,57.5296 L80.5291,42.9746 C80.9001,42.6036 80.9001,42.0016 80.5291,41.6306 C80.1581,41.2596 79.5571,41.2596 79.1851,41.6306 L63.9611,56.8556 C63.9601,56.8566 63.9591,56.8566 63.9581,56.8576 C63.9571,56.8576 63.9571,56.8596 63.9561,56.8606 L54.5011,66.3156 C53.5571,67.2596 52.0191,67.2616 51.0731,66.3156 L41.6181,56.8606 C41.6171,56.8596 41.6171,56.8576 41.6161,56.8576 C41.6151,56.8566 41.6141,56.8566 41.6131,56.8556 L26.3891,41.6306 C26.0171,41.2596 25.4161,41.2596 25.0451,41.6306 C24.6741,42.0016 24.6741,42.6036 25.0451,42.9746 L39.6001,57.5296 L25.0451,72.0836 C24.6741,72.4546 24.6741,73.0566 25.0451,73.4276 C25.2301,73.6126 25.4741,73.7056 25.7171,73.7056 C25.9601,73.7056 26.2031,73.6126 26.3891,73.4276 L40.9441,58.8736 L49.7291,67.6586 C50.5731,68.5016 51.6811,68.9226 52.7871,68.9226 C53.8941,68.9226 55.0021,68.5016 55.8451,67.6586 L64.6301,58.8736 L79.1851,73.4276 C79.3711,73.6126 79.6141,73.7056 79.8571,73.7056 C80.1001,73.7056 80.3441,73.6126 80.5291,73.4276 C80.9001,73.0566 80.9001,72.4546 80.5291,72.0836 L65.9741,57.5296 Z" id="Fill-7" fill="#969CBB"></path>
        <path d="M109.3832,58.9473 L104.5092,63.8213 C104.5092,61.2703 103.5352,58.9473 101.9262,57.2253 C100.1562,55.2923 97.5892,54.0733 94.7622,54.0733 L96.6302,52.2053 L99.6362,49.2003 C105.0132,49.2003 109.3832,53.5703 109.3832,58.9473" id="Fill-9" fill="#D20050"></path>
        <path d="M75.2677,93.0629 L62.4017,96.3119 L65.5207,83.3159 C68.3637,83.3159 70.9137,84.5339 72.6847,86.4839 C74.2927,88.2059 75.2677,90.5119 75.2677,93.0629" id="Fill-11" fill="#FFFFFF"></path>
        <path d="M101.9265,57.2253 C100.1555,55.2923 97.5885,54.0733 94.7625,54.0733 L86.6395,62.1963 L78.5165,70.3193 L70.3935,78.4423 L65.5205,83.3153 C68.3635,83.3153 70.9135,84.5343 72.6845,86.4833 C74.2925,88.2053 75.2675,90.5123 75.2675,93.0633 L104.5095,63.8213 C104.5095,61.2703 103.5345,58.9473 101.9265,57.2253" id="Fill-13" fill="#1D71B8"></path>
        <path d="M66.2602,84.3044 C68.4452,84.4914 70.4992,85.4904 71.9902,87.1314 C73.3252,88.5614 74.1222,90.3854 74.2832,92.3314 L63.6912,95.0064 L66.2602,84.3044 Z M95.1352,55.0434 C97.1472,55.1304 99.0742,55.8994 100.5782,57.2304 L72.6802,85.1444 C71.2502,83.8404 69.4902,82.9554 67.6022,82.5774 L95.1352,55.0434 Z M73.9752,86.5364 L101.8592,58.6374 C102.8852,60.0234 103.4682,61.6894 103.5422,63.4444 L76.0092,90.9774 C75.6882,89.3564 74.9942,87.8384 73.9752,86.5364 L73.9752,86.5364 Z M108.4132,58.5724 L105.2532,61.7334 C104.8732,59.8084 103.9742,58.0264 102.6272,56.5834 C102.6192,56.5754 102.6112,56.5684 102.6032,56.5604 C102.6012,56.5584 102.6012,56.5554 102.5982,56.5534 C102.5962,56.5514 102.5932,56.5504 102.5912,56.5484 C101.0572,54.8894 99.0342,53.7734 96.8442,53.3354 L100.0102,50.1694 C104.5612,50.3624 108.2202,54.0214 108.4132,58.5724 L108.4132,58.5724 Z M110.0682,59.5994 C110.1472,59.5154 110.2142,59.4194 110.2592,59.3104 C110.3072,59.1944 110.3332,59.0704 110.3332,58.9474 C110.3332,53.0484 105.5342,48.2494 99.6362,48.2494 C99.5122,48.2494 99.3882,48.2754 99.2722,48.3234 C99.1642,48.3684 99.0672,48.4354 98.9832,48.5154 C98.9772,48.5204 98.9692,48.5224 98.9642,48.5284 L64.8482,82.6434 C64.7712,82.7204 64.7142,82.8134 64.6682,82.9114 C64.6552,82.9394 64.6452,82.9674 64.6352,82.9964 C64.6232,83.0294 64.6052,83.0594 64.5962,83.0934 L61.4772,96.0904 C61.4002,96.4134 61.4972,96.7544 61.7332,96.9884 C61.9142,97.1654 62.1542,97.2624 62.4012,97.2624 C62.4782,97.2624 62.5562,97.2524 62.6342,97.2334 L75.5002,93.9844 C75.5312,93.9764 75.5592,93.9594 75.5892,93.9484 C75.6172,93.9384 75.6452,93.9284 75.6722,93.9154 C75.7702,93.8684 75.8622,93.8124 75.9392,93.7354 L105.1792,64.4944 C105.1812,64.4934 105.1822,64.4924 105.1832,64.4914 L110.0542,59.6194 C110.0602,59.6134 110.0622,59.6054 110.0682,59.5994 L110.0682,59.5994 Z" id="Fill-15" fill="#343852"></path>
    </g>
</svg>