<?xml version="1.0" encoding="UTF-8"?>
<svg width="120px" height="120px" viewBox="0 0 120 120" version="1.1" xmlns="http://www.w3.org/2000/svg" xmlns:xlink="http://www.w3.org/1999/xlink">
    <title>02.Icons/Illustrative/Charts - Pictogrammes</title>
    <g id="02.Icons/Illustrative/Charts---Pictogrammes" stroke="none" stroke-width="1" fill="none" fill-rule="evenodd">
        <g id="Charts---Pictogrammes" transform="translate(2.677200, 13.360200)">
            <path d="M75.103,37.552 C75.103,16.812 58.289,0 37.551,0 C16.813,0 0,16.812 0,37.552 C0,58.292 16.813,75.104 37.551,75.104 C58.289,75.104 75.103,58.292 75.103,37.552" id="Fill-1" fill="#F2F3F7"></path>
            <path d="M100.2025,54.5599 L21.0675,54.5599 C20.4825,54.5599 20.0095,54.0879 20.0095,53.5039 C20.0095,52.9209 20.4825,52.4489 21.0675,52.4489 L100.2025,52.4489 C100.7875,52.4489 101.2605,52.9209 101.2605,53.5039 C101.2605,54.0879 100.7875,54.5599 100.2025,54.5599 M101.2605,39.4849 C101.2605,38.9029 100.7875,38.4299 100.2025,38.4299 L21.0675,38.4299 C20.4825,38.4299 20.0095,38.9029 20.0095,39.4849 C20.0095,40.0689 20.4825,40.5409 21.0675,40.5409 L100.2025,40.5409 C100.7875,40.5409 101.2605,40.0689 101.2605,39.4849 M101.2605,25.4639 C101.2605,24.8799 100.7875,24.4089 100.2025,24.4089 L21.0425,24.4089 C20.4575,24.4089 19.9845,24.8799 19.9845,25.4639 C19.9845,26.0479 20.4575,26.5199 21.0425,26.5199 L100.2025,26.5199 C100.7875,26.5199 101.2605,26.0479 101.2605,25.4639" id="Fill-3" fill="#DEE0EA"></path>
            <path d="M100.2046,75.2401 C99.6206,75.2401 99.1486,75.7121 99.1486,76.2961 L99.1486,80.4991 L87.2366,80.4991 L87.2366,76.2961 C87.2366,75.7121 86.7646,75.2401 86.1816,75.2401 C85.5976,75.2401 85.1256,75.7121 85.1256,76.2961 L85.1256,80.4991 L73.2146,80.4991 L73.2146,76.2961 C73.2146,75.7121 72.7416,75.2401 72.1586,75.2401 C71.5756,75.2401 71.1036,75.7121 71.1036,76.2961 L71.1036,80.4991 L59.1916,80.4991 L59.1916,76.2961 C59.1916,75.7121 58.7196,75.2401 58.1356,75.2401 C57.5526,75.2401 57.0806,75.7121 57.0806,76.2961 L57.0806,80.4991 L45.1676,80.4991 L45.1676,76.2961 C45.1676,75.7121 44.6956,75.2401 44.1126,75.2401 C43.5296,75.2401 43.0566,75.7121 43.0566,76.2961 L43.0566,80.4991 L31.1456,80.4991 L31.1456,76.2961 C31.1456,75.7121 30.6736,75.2401 30.0896,75.2401 C29.5066,75.2401 29.0346,75.7121 29.0346,76.2961 L29.0346,80.4991 L17.1236,80.4991 L17.1236,54.5641 L21.3256,54.5641 C21.9096,54.5641 22.3816,54.0931 22.3816,53.5091 C22.3816,52.9251 21.9096,52.4531 21.3256,52.4531 L17.1236,52.4531 L17.1236,40.5421 L21.3256,40.5421 C21.9096,40.5421 22.3816,40.0701 22.3816,39.4871 C22.3816,38.9031 21.9096,38.4311 21.3256,38.4311 L17.1236,38.4311 L17.1236,26.5191 L21.3256,26.5191 C21.9096,26.5191 22.3816,26.0461 22.3816,25.4631 C22.3816,24.8801 21.9096,24.4081 21.3256,24.4081 L17.1236,24.4081 L17.1236,12.4971 L21.3256,12.4971 C21.9096,12.4971 22.3816,12.0241 22.3816,11.4411 C22.3816,10.8571 21.9096,10.3851 21.3256,10.3851 L16.0676,10.3851 C15.4836,10.3851 15.0126,10.8571 15.0126,11.4411 L15.0126,81.5541 C15.0126,82.1381 15.4836,82.6101 16.0676,82.6101 L100.2046,82.6101 C100.7886,82.6101 101.2606,82.1381 101.2606,81.5541 L101.2606,76.2961 C101.2606,75.7121 100.7886,75.2401 100.2046,75.2401" id="Fill-5" fill="#343852"></path>
            <path d="M80.8922,38.0221 C82.4012,38.0221 83.6202,39.4491 83.6202,41.2051 C83.6202,42.9591 82.4012,44.3871 80.8922,44.3871 C79.3832,44.3871 78.1642,42.9591 78.1642,41.2051 C78.1642,39.4491 79.3832,38.0221 80.8922,38.0221" id="Fill-7" fill="#FFFFFF"></path>
            <path d="M86.8294,49.1412 C86.0744,47.3772 83.7564,46.5952 80.8914,46.5952 C79.6924,46.5952 78.6004,46.7422 77.6674,47.0312 C78.3094,49.9722 78.8444,53.1722 78.8444,55.4312 C78.8444,56.8972 78.4694,58.1362 77.7304,59.1112 C77.4844,59.4362 77.2034,59.7172 76.8984,59.9592 C76.6444,64.6132 76.3464,70.2392 76.3464,71.1442 C76.3464,72.1812 76.6734,72.9632 77.5554,72.9632 C79.3374,72.9632 79.4374,71.9452 79.8744,69.6532 L80.8734,63.0432 L80.8914,63.1252 L80.9104,63.0432 L81.9104,69.6532 C82.3464,71.9452 82.4464,72.9632 84.2284,72.9632 C85.1114,72.9632 85.4384,72.1812 85.4384,71.1442 C85.4384,69.6442 84.6204,55.1972 84.5374,53.6602 C84.6204,54.4422 85.0384,58.7062 85.4384,60.1522 C86.0294,62.2702 87.0304,62.0522 87.7934,62.0522 C88.1754,62.0522 88.4844,61.9062 88.7114,61.6062 C88.9384,61.3072 89.0754,60.8522 89.0754,60.2422 C89.0754,56.8602 87.3114,50.2412 86.8294,49.1412" id="Fill-9" fill="#C5C8DA"></path>
            <path d="M65.0783,27.5342 C67.0333,27.5342 68.6113,29.3832 68.6113,31.6562 C68.6113,33.9292 67.0333,35.7782 65.0783,35.7782 C63.1233,35.7782 61.5453,33.9292 61.5453,31.6562 C61.5453,29.3832 63.1233,27.5342 65.0783,27.5342" id="Fill-11" fill="#FFFFFF"></path>
            <path d="M72.7686,41.052 C71.7916,38.768 68.7876,37.754 65.0786,37.754 C63.0476,37.754 61.2456,38.07 59.8546,38.719 C60.8936,42.994 61.9056,48.28 61.9056,51.78 C61.9056,53.461 61.4856,54.868 60.6576,55.962 C60.4056,56.297 60.1196,56.59 59.8096,56.844 C59.5056,62.446 59.1896,68.493 59.1896,69.553 C59.1896,70.894 59.6136,71.908 60.7566,71.908 C63.0646,71.908 63.1946,70.588 63.7596,67.621 L65.0546,59.059 L65.0786,59.165 L65.1016,59.059 L66.3976,67.621 C66.9626,70.588 67.0916,71.908 69.4006,71.908 C70.5426,71.908 70.9666,70.894 70.9666,69.553 C70.9666,67.609 69.9066,48.895 69.8006,46.905 C69.9066,47.917 70.4486,53.441 70.9666,55.314 C71.7316,58.057 73.0276,57.775 74.0176,57.775 C74.5116,57.775 74.9126,57.587 75.2056,57.198 C75.5006,56.81 75.6776,56.221 75.6776,55.431 C75.6776,51.05 73.3926,42.477 72.7686,41.052" id="Fill-13" fill="#D20050"></path>
            <path d="M45.1111,29.0522 C49.8811,29.0522 53.7411,30.3552 54.9991,33.2912 C55.8011,35.1242 58.7381,46.1472 58.7381,51.7802 C58.7381,52.7942 58.5121,53.5512 58.1331,54.0512 C57.7551,54.5502 57.2401,54.7932 56.6031,54.7932 C55.3321,54.7932 53.6661,55.1562 52.6821,51.6292 C52.0161,49.2212 51.3191,42.1192 51.1831,40.8172 C51.3191,43.3762 52.6821,67.4362 52.6821,69.9342 C52.6821,71.6602 52.1371,72.9632 50.6681,72.9632 C47.7001,72.9632 47.5341,71.2672 46.8071,67.4522 L45.1421,56.4432 L45.1111,56.5792 L45.0801,56.4432 L43.4151,67.4522 C42.6881,71.2672 42.5221,72.9632 39.5541,72.9632 C38.0851,72.9632 37.5401,71.6602 37.5401,69.9342 C37.5401,67.4362 38.9031,43.3762 39.0391,40.8172 C38.9031,42.1192 38.2061,49.2212 37.5401,51.6292 C36.5561,55.1562 34.8901,54.7932 33.6191,54.7932 C32.9821,54.7932 32.4671,54.5502 32.0891,54.0512 C31.7101,53.5512 31.4841,52.7942 31.4841,51.7802 C31.4841,46.1472 34.4211,35.1242 35.2231,33.2912 C36.4811,30.3552 40.3411,29.0522 45.1111,29.0522" id="Fill-15" fill="#1D71B8"></path>
            <path d="M45.1111,15.9118 C47.6241,15.9118 49.6531,18.2888 49.6531,21.2118 C49.6531,24.1338 47.6241,26.5108 45.1111,26.5108 C42.5981,26.5108 40.5691,24.1338 40.5691,21.2118 C40.5691,18.2888 42.5981,15.9118 45.1111,15.9118" id="Fill-17" fill="#FFFFFF"></path>
            <path d="M80.8921,45.4419 C78.8061,45.4419 77.1091,43.5419 77.1091,41.2049 C77.1091,38.8679 78.8061,36.9669 80.8921,36.9669 C82.9781,36.9669 84.6751,38.8679 84.6751,41.2049 C84.6751,43.5419 82.9781,45.4419 80.8921,45.4419 M80.8921,39.0779 C79.9701,39.0779 79.2201,40.0309 79.2201,41.2049 C79.2201,42.3779 79.9701,43.3309 80.8921,43.3309 C81.8151,43.3309 82.5641,42.3779 82.5641,41.2049 C82.5641,40.0309 81.8151,39.0779 80.8921,39.0779 M87.8001,48.7259 C86.9201,46.6719 84.4671,45.5389 80.8921,45.5389 C79.5791,45.5389 78.4211,45.6949 77.4331,45.9899 C77.5891,46.6649 77.7411,47.3589 77.8851,48.0639 C78.6951,47.7989 79.7031,47.6499 80.8921,47.6499 C83.5311,47.6499 85.3411,48.3459 85.8631,49.5649 C86.2991,50.5599 88.0191,57.0049 88.0191,60.2429 C88.0191,60.6339 87.9421,60.8749 87.7931,60.9969 L87.5721,60.9999 C87.0071,61.0189 86.7761,61.0179 86.4561,59.8709 C86.2971,59.2949 86.0211,57.7679 85.6091,53.7609 L85.5851,53.5099 C85.5721,52.9419 85.1111,52.4949 84.5401,52.4879 C83.9241,52.4999 83.4861,52.9559 83.4741,53.5329 C83.4741,53.5329 83.4741,53.6079 83.4841,53.7219 L83.5861,55.5639 C83.8041,59.4939 84.3831,69.9359 84.3831,71.1439 C84.3831,71.7529 84.2511,71.9309 84.2291,71.9069 C83.4561,71.9069 83.4101,71.9069 83.0091,69.7869 L81.9541,62.8849 C81.9121,62.6019 81.7571,62.3729 81.5381,62.2219 C81.3451,62.0659 81.1021,61.9659 80.8361,61.9879 C80.3281,62.0059 79.9061,62.3829 79.8301,62.8849 L78.8371,69.4559 L78.7751,69.7869 C78.3741,71.9069 78.3281,71.9069 77.5421,71.9249 C77.5411,71.9239 77.4011,71.7529 77.4011,71.1439 C77.4011,70.1769 77.7671,63.3889 78.0281,58.6309 C77.9321,58.7939 77.8431,58.9619 77.7311,59.1109 C77.0061,60.0669 76.0031,60.6679 74.8721,60.8649 C74.7021,61.0149 74.5021,61.0119 74.2121,60.9999 L73.9141,60.9709 C73.9101,60.9649 73.9071,60.9509 73.9041,60.9439 L73.8321,60.9459 C73.8021,60.9459 73.7701,60.9469 73.7381,60.9469 C73.7811,61.7399 73.8161,62.4419 73.8501,63.0919 C73.8981,63.0949 73.9421,63.1079 73.9911,63.1079 L74.1631,63.1109 C74.5381,63.1159 75.1081,63.1249 75.6861,62.8419 C75.4791,66.6889 75.2901,70.4039 75.2901,71.1439 C75.2901,73.2639 76.4611,74.0189 77.5551,74.0189 C80.1251,74.0189 80.4601,72.2379 80.8491,70.1769 L80.8921,69.9479 L80.9351,70.1769 C81.3241,72.2379 81.6591,74.0189 84.2291,74.0189 C85.3231,74.0189 86.4941,73.2639 86.4941,71.1439 C86.4941,70.4219 86.3241,67.0529 86.0981,62.8379 C86.5671,63.0679 87.0311,63.1139 87.3911,63.1139 C87.4741,63.1139 87.5511,63.1119 87.6211,63.1109 L87.7931,63.1079 C88.5061,63.1079 89.1311,62.8019 89.5531,62.2449 C89.9361,61.7389 90.1301,61.0659 90.1301,60.2429 C90.1301,56.6869 88.3431,49.9659 87.8001,48.7259 M73.7391,40.6369 C72.7261,38.2689 69.9671,36.9099 65.9531,36.7349 C68.0661,36.2709 69.6671,34.1739 69.6671,31.6559 C69.6671,28.8009 67.6091,26.4789 65.0781,26.4789 C62.5481,26.4789 60.4901,28.8009 60.4901,31.6559 C60.4901,34.1739 62.0911,36.2709 64.2031,36.7349 C62.3931,36.8139 60.8551,37.1449 59.6001,37.6899 C59.7691,38.3529 59.9371,39.0539 60.1031,39.7709 C61.3031,39.1529 62.9941,38.8099 65.0781,38.8099 C68.6261,38.8099 71.0751,39.7789 71.8011,41.4759 C72.3721,42.7779 74.6221,51.1999 74.6221,55.4319 C74.6221,56.1439 74.4421,56.4579 74.3641,56.5609 C74.2861,56.6639 74.2081,56.7199 74.0171,56.7199 L73.7381,56.7239 C72.9411,56.7459 72.4641,56.7549 71.9841,55.0329 C71.6801,53.9339 71.3081,51.2559 70.8801,47.0749 L70.8451,46.7249 C70.8361,46.1519 70.3721,45.7009 69.7991,45.6949 C69.2001,45.7249 68.7441,46.1619 68.7341,46.7399 C68.7341,46.7399 68.7341,46.8299 68.7481,46.9669 L68.8771,49.3249 C69.1871,54.9059 69.9111,67.9739 69.9111,69.5509 C69.9111,70.4149 69.7401,70.8519 69.4011,70.8519 C68.2111,70.8519 68.0611,70.7549 67.5151,67.8509 L66.1461,58.9019 C66.0701,58.3979 65.6461,58.0219 65.1391,58.0039 C65.1171,58.0019 65.0971,58.0029 65.0781,58.0029 C65.0571,58.0029 65.0371,58.0019 65.0181,58.0039 C64.5111,58.0219 64.0861,58.3979 64.0111,58.9019 L62.7221,67.4229 L62.6411,67.8509 C62.0941,70.7549 61.9451,70.8519 60.7561,70.8519 C60.4171,70.8519 60.2461,70.4149 60.2461,69.5509 C60.2461,68.4359 60.6191,61.3899 60.9381,55.5089 C60.8461,55.6599 60.7651,55.8199 60.6591,55.9619 C60.1241,56.6679 59.4491,57.2009 58.6851,57.5379 L58.6771,57.6599 C58.3991,62.8409 58.1351,68.5609 58.1351,69.5509 C58.1351,72.7169 60.1411,72.9629 60.7561,72.9629 C63.8271,72.9629 64.2191,70.8789 64.7161,68.2409 L65.0781,65.9569 L65.3601,67.8189 L65.4401,68.2409 C65.9381,70.8789 66.3301,72.9629 69.4011,72.9629 C70.0151,72.9629 72.0221,72.7169 72.0221,69.5509 C72.0221,68.5639 71.7581,63.3969 71.4791,58.2249 C72.3021,58.8639 73.1931,58.8479 73.7871,58.8349 L74.0171,58.8309 C74.8521,58.8309 75.5551,58.4869 76.0471,57.8369 C76.5021,57.2359 76.7331,56.4269 76.7331,55.4319 C76.7331,50.8569 74.3621,42.0589 73.7391,40.6369 M62.6011,31.6559 C62.6011,29.9659 63.7111,28.5899 65.0781,28.5899 C66.4441,28.5899 67.5561,29.9659 67.5561,31.6559 C67.5561,33.3469 66.4441,34.7229 65.0781,34.7229 C63.7111,34.7229 62.6011,33.3469 62.6011,31.6559 M45.1111,27.5669 C48.1991,27.5669 50.7101,24.7159 50.7101,21.2109 C50.7101,17.7069 48.1991,14.8569 45.1111,14.8569 C42.0241,14.8569 39.5121,17.7069 39.5121,21.2109 C39.5121,24.7159 42.0241,27.5669 45.1111,27.5669 M45.1111,16.9679 C47.0331,16.9679 48.5991,18.8709 48.5991,21.2109 C48.5991,23.5509 47.0331,25.4559 45.1111,25.4559 C43.1891,25.4559 41.6241,23.5509 41.6241,21.2109 C41.6241,18.8709 43.1891,16.9679 45.1111,16.9679 M55.9691,32.8759 C54.6241,29.7299 50.7671,27.9959 45.1111,27.9959 C39.4551,27.9959 35.5981,29.7299 34.2571,32.8689 C33.4571,34.6969 30.4281,45.9389 30.4281,51.7799 C30.4281,52.9899 30.7051,53.9689 31.2481,54.6889 C31.8221,55.4479 32.6421,55.8489 33.6181,55.8489 L33.9211,55.8529 C35.0391,55.8779 36.2371,55.7639 37.2231,54.6419 C36.8501,61.5339 36.4851,68.6209 36.4851,69.9349 C36.4851,73.7239 38.8351,74.0189 39.5541,74.0189 C43.2511,74.0189 43.7131,71.5749 44.3491,68.1919 L45.1111,63.2989 L45.7701,67.6489 L45.8731,68.1919 C46.5101,71.5749 46.9711,74.0189 50.6691,74.0189 C51.3881,74.0189 53.7371,73.7239 53.7371,69.9349 C53.7371,68.6209 53.3711,61.5369 52.9991,54.6459 C53.9091,55.6809 55.0011,55.8559 56.0401,55.8559 C56.1271,55.8559 56.2141,55.8549 56.3011,55.8529 L56.6041,55.8489 C57.5801,55.8489 58.4001,55.4479 58.9741,54.6889 C59.5181,53.9709 59.7941,52.9929 59.7941,51.7799 C59.7941,45.9389 56.7661,34.6969 55.9691,32.8759 M57.2911,53.4139 C57.1171,53.6439 56.9181,53.7379 56.6041,53.7379 L56.2531,53.7429 C55.1601,53.7629 54.3801,53.7869 53.6991,51.3469 C53.3051,49.9199 52.8241,46.4629 52.2701,41.0709 L52.2241,40.5939 C52.2171,40.0189 51.7521,39.5619 51.1761,39.5579 L51.1681,39.5579 C50.5921,39.5579 50.1211,40.0279 50.1121,40.6049 C50.1121,40.6049 50.1141,40.7079 50.1281,40.8689 L50.1281,40.8729 L50.2921,43.8449 C50.6911,51.0399 51.6261,67.8909 51.6261,69.9349 C51.6261,71.9069 50.9051,71.9069 50.6691,71.9069 C48.8291,71.9069 48.6341,71.4439 47.9461,67.7999 L46.1851,56.2859 C46.1091,55.7819 45.6841,55.4049 45.1741,55.3889 C45.1521,55.3879 45.1311,55.3869 45.1111,55.3889 C45.0881,55.3869 45.0681,55.3879 45.0471,55.3889 C44.5381,55.4049 44.1141,55.7819 44.0381,56.2859 L42.3781,67.2539 L42.2751,67.7999 C41.5891,71.4439 41.3921,71.9069 39.5541,71.9069 C39.3171,71.9069 38.5961,71.9069 38.5961,69.9349 C38.5961,67.8909 39.5311,51.0399 39.9301,43.8449 L40.0941,40.8729 C40.1091,40.7089 40.1111,40.6049 40.1111,40.6049 C40.1011,40.0319 39.6341,39.5689 39.0611,39.5659 L39.0551,39.5659 C38.4841,39.5659 38.0151,40.0209 38.0001,40.5919 L37.9521,41.0709 C37.3981,46.4629 36.9181,49.9199 36.5241,51.3449 C35.8431,53.7869 35.0551,53.7649 33.9701,53.7429 L33.6181,53.7379 C33.3031,53.7379 33.1051,53.6439 32.9321,53.4139 C32.6791,53.0799 32.5391,52.4999 32.5391,51.7799 C32.5391,46.3089 35.4521,35.4029 36.1941,33.7069 C37.1721,31.4199 40.4231,30.1079 45.1111,30.1079 C49.7991,30.1079 53.0491,31.4199 54.0321,33.7149 C54.7711,35.4029 57.6831,46.3089 57.6831,51.7799 C57.6831,52.5009 57.5441,53.0809 57.2911,53.4139" id="Fill-19" fill="#343852"></path>
        </g>
    </g>
</svg>