<?xml version="1.0" encoding="UTF-8"?>
<svg width="120px" height="120px" viewBox="0 0 120 120" version="1.1" xmlns="http://www.w3.org/2000/svg" xmlns:xlink="http://www.w3.org/1999/xlink">
    <title>02.Icons/Illustrative/Cible Etablissement de santé</title>
    <g id="02.Icons/Illustrative/Cible-Etablissement-de-santé" stroke="none" stroke-width="1" fill="none" fill-rule="evenodd">
        <path d="M74.8101,47.4051 C74.8101,29.5081 60.3021,15.0001 42.4051,15.0001 C24.5081,15.0001 10.0001,29.5081 10.0001,47.4051 C10.0001,65.3021 24.5081,79.8101 42.4051,79.8101 C60.3021,79.8101 74.8101,65.3021 74.8101,47.4051" id="Fill-1" fill="#F2F3F7"></path>
        <polygon id="Fill-3" fill="#969CBB" points="74.7793 75.1481 74.7793 81.3481 72.2993 81.3481 61.1403 81.3481 49.9803 81.3481 47.5013 81.3481 47.5013 75.1481"></polygon>
        <path d="M72.2995,32.9905 L72.2995,41.6705 C72.2995,43.0335 71.1835,44.1495 69.8195,44.1495 L52.4605,44.1495 C51.0965,44.1495 49.9805,43.0335 49.9805,41.6705 L49.9805,32.9905 L49.9805,24.3105 C49.9805,22.9475 51.0965,21.8315 52.4605,21.8315 L69.8195,21.8315 C71.1835,21.8315 72.2995,22.9475 72.2995,24.3105 L72.2995,32.9905 Z" id="Fill-5" fill="#1D71B8"></path>
        <path d="M30.142,57.79 L35.102,57.79 L35.102,50.35 L30.142,50.35 L30.142,57.79 Z M30.142,71.429 L35.102,71.429 L35.102,63.989 L30.142,63.989 L30.142,71.429 Z M30.142,85.068 L35.102,85.068 L35.102,77.628 L30.142,77.628 L30.142,85.068 Z M40.061,42.91 L40.061,96.227 L23.942,96.227 L23.942,45.39 C23.942,44.026 25.058,42.91 26.422,42.91 L35.102,42.91 L40.061,42.91 Z M45.021,56.55 L52.461,56.55 L52.461,50.35 L45.021,50.35 L45.021,56.55 Z M45.021,68.949 L52.461,68.949 L52.461,62.749 L45.021,62.749 L45.021,68.949 Z M57.42,56.55 L64.86,56.55 L64.86,50.35 L57.42,50.35 L57.42,56.55 Z M57.42,68.949 L64.86,68.949 L64.86,62.749 L57.42,62.749 L57.42,68.949 Z M69.819,56.55 L77.259,56.55 L77.259,50.35 L69.819,50.35 L69.819,56.55 Z M69.819,68.949 L77.259,68.949 L77.259,62.749 L69.819,62.749 L69.819,68.949 Z M82.219,42.91 L82.219,96.227 L72.299,96.227 L72.299,81.348 L74.779,81.348 L74.779,75.148 L47.501,75.148 L47.501,81.348 L49.981,81.348 L49.981,96.227 L40.061,96.227 L40.061,42.91 L40.061,35.47 C40.061,34.106 41.177,32.99 42.541,32.99 L49.981,32.99 L49.981,41.67 C49.981,43.034 51.097,44.15 52.461,44.15 L69.82,44.15 C71.184,44.15 72.299,43.034 72.299,41.67 L72.299,32.99 L79.739,32.99 C81.103,32.99 82.219,34.106 82.219,35.47 L82.219,42.91 Z M87.178,57.79 L92.138,57.79 L92.138,50.35 L87.178,50.35 L87.178,57.79 Z M87.178,71.429 L92.138,71.429 L92.138,63.989 L87.178,63.989 L87.178,71.429 Z M87.178,85.068 L92.138,85.068 L92.138,77.628 L87.178,77.628 L87.178,85.068 Z M98.338,45.39 L98.338,96.227 L82.219,96.227 L82.219,42.91 L87.179,42.91 L95.858,42.91 C97.222,42.91 98.338,44.026 98.338,45.39 L98.338,45.39 Z" id="Fill-7" fill="#EDEEF3"></path>
        <path d="M30.142,57.789 L35.102,57.789 L35.102,50.349 L30.142,50.349 L30.142,57.789 Z M30.142,71.428 L35.102,71.428 L35.102,63.988 L30.142,63.988 L30.142,71.428 Z M30.142,85.068 L35.102,85.068 L35.102,77.628 L30.142,77.628 L30.142,85.068 Z M45.021,56.549 L52.461,56.549 L52.461,50.349 L45.021,50.349 L45.021,56.549 Z M45.021,68.948 L52.461,68.948 L52.461,62.748 L45.021,62.748 L45.021,68.948 Z M57.42,56.549 L64.86,56.549 L64.86,50.349 L57.42,50.349 L57.42,56.549 Z M57.42,68.948 L64.86,68.948 L64.86,62.748 L57.42,62.748 L57.42,68.948 Z M69.819,56.549 L77.259,56.549 L77.259,50.349 L69.819,50.349 L69.819,56.549 Z M69.819,68.948 L77.259,68.948 L77.259,62.748 L69.819,62.748 L69.819,68.948 Z M87.178,57.789 L92.138,57.789 L92.138,50.349 L87.178,50.349 L87.178,57.789 Z M87.178,71.428 L92.138,71.428 L92.138,63.988 L87.178,63.988 L87.178,71.428 Z M87.179,85.068 L92.139,85.068 L92.139,77.628 L87.179,77.628 L87.179,85.068 Z M72.3,81.348 L72.3,96.227 L61.14,96.227 L49.981,96.227 L49.981,81.348 L61.14,81.348 L72.3,81.348 Z" id="Fill-9" fill="#FFFFFF"></path>
        <path d="M58.37,55.599 L63.909,55.599 L63.909,51.3 L58.37,51.3 L58.37,55.599 Z M57.42,57.499 L64.859,57.499 C65.384,57.499 65.81,57.073 65.81,56.549 L65.81,50.35 C65.81,49.825 65.384,49.4 64.859,49.4 L57.42,49.4 C56.896,49.4 56.47,49.825 56.47,50.35 L56.47,56.549 C56.47,57.073 56.896,57.499 57.42,57.499 L57.42,57.499 Z M45.971,55.599 L51.511,55.599 L51.511,51.3 L45.971,51.3 L45.971,55.599 Z M45.021,57.499 L52.461,57.499 C52.985,57.499 53.411,57.073 53.411,56.549 L53.411,50.35 C53.411,49.825 52.985,49.4 52.461,49.4 L45.021,49.4 C44.496,49.4 44.07,49.825 44.07,50.35 L44.07,56.549 C44.07,57.073 44.496,57.499 45.021,57.499 L45.021,57.499 Z M70.77,55.599 L76.309,55.599 L76.309,51.3 L70.77,51.3 L70.77,55.599 Z M69.819,57.499 L77.259,57.499 C77.783,57.499 78.209,57.073 78.209,56.549 L78.209,50.35 C78.209,49.825 77.783,49.4 77.259,49.4 L69.819,49.4 C69.295,49.4 68.869,49.825 68.869,50.35 L68.869,56.549 C68.869,57.073 69.295,57.499 69.819,57.499 L69.819,57.499 Z M31.091,56.839 L34.151,56.839 L34.151,51.3 L31.091,51.3 L31.091,56.839 Z M36.052,50.35 C36.052,49.825 35.626,49.4 35.102,49.4 L30.142,49.4 C29.617,49.4 29.191,49.825 29.191,50.35 L29.191,57.789 C29.191,58.314 29.617,58.739 30.142,58.739 L35.102,58.739 C35.626,58.739 36.052,58.314 36.052,57.789 L36.052,50.35 Z M88.129,56.839 L91.189,56.839 L91.189,51.3 L88.129,51.3 L88.129,56.839 Z M87.179,58.739 L92.139,58.739 C92.663,58.739 93.089,58.314 93.089,57.789 L93.089,50.35 C93.089,49.825 92.663,49.4 92.139,49.4 L87.179,49.4 C86.654,49.4 86.229,49.825 86.229,50.35 L86.229,57.789 C86.229,58.314 86.654,58.739 87.179,58.739 L87.179,58.739 Z M31.091,70.478 L34.151,70.478 L34.151,64.939 L31.091,64.939 L31.091,70.478 Z M36.052,63.989 C36.052,63.464 35.626,63.038 35.102,63.038 L30.142,63.038 C29.617,63.038 29.191,63.464 29.191,63.989 L29.191,71.428 C29.191,71.952 29.617,72.378 30.142,72.378 L35.102,72.378 C35.626,72.378 36.052,71.952 36.052,71.428 L36.052,63.989 Z M88.129,70.478 L91.189,70.478 L91.189,64.939 L88.129,64.939 L88.129,70.478 Z M87.179,72.378 L92.139,72.378 C92.663,72.378 93.089,71.952 93.089,71.428 L93.089,63.989 C93.089,63.464 92.663,63.038 92.139,63.038 L87.179,63.038 C86.654,63.038 86.229,63.464 86.229,63.989 L86.229,71.428 C86.229,71.952 86.654,72.378 87.179,72.378 L87.179,72.378 Z M31.091,84.117 L34.151,84.117 L34.151,78.578 L31.091,78.578 L31.091,84.117 Z M35.102,76.678 L30.142,76.678 C29.617,76.678 29.191,77.104 29.191,77.628 L29.191,85.068 C29.191,85.592 29.617,86.018 30.142,86.018 L35.102,86.018 C35.626,86.018 36.052,85.592 36.052,85.068 L36.052,77.628 C36.052,77.104 35.626,76.678 35.102,76.678 L35.102,76.678 Z M88.129,84.117 L91.189,84.117 L91.189,78.578 L88.129,78.578 L88.129,84.117 Z M87.179,86.018 L92.139,86.018 C92.663,86.018 93.089,85.592 93.089,85.068 L93.089,77.628 C93.089,77.104 92.663,76.678 92.139,76.678 L87.179,76.678 C86.654,76.678 86.229,77.104 86.229,77.628 L86.229,85.068 C86.229,85.592 86.654,86.018 87.179,86.018 L87.179,86.018 Z M58.37,67.998 L63.909,67.998 L63.909,63.699 L58.37,63.699 L58.37,67.998 Z M57.42,69.899 L64.859,69.899 C65.384,69.899 65.81,69.473 65.81,68.948 L65.81,62.749 C65.81,62.225 65.384,61.799 64.859,61.799 L57.42,61.799 C56.896,61.799 56.47,62.225 56.47,62.749 L56.47,68.948 C56.47,69.473 56.896,69.899 57.42,69.899 L57.42,69.899 Z M45.971,67.998 L51.511,67.998 L51.511,63.699 L45.971,63.699 L45.971,67.998 Z M53.411,68.948 L53.411,62.749 C53.411,62.225 52.985,61.799 52.461,61.799 L45.021,61.799 C44.496,61.799 44.07,62.225 44.07,62.749 L44.07,68.948 C44.07,69.473 44.496,69.899 45.021,69.899 L52.461,69.899 C52.985,69.899 53.411,69.473 53.411,68.948 L53.411,68.948 Z M70.77,67.998 L76.309,67.998 L76.309,63.699 L70.77,63.699 L70.77,67.998 Z M69.819,69.899 L77.259,69.899 C77.783,69.899 78.209,69.473 78.209,68.948 L78.209,62.749 C78.209,62.225 77.783,61.799 77.259,61.799 L69.819,61.799 C69.295,61.799 68.869,62.225 68.869,62.749 L68.869,68.948 C68.869,69.473 69.295,69.899 69.819,69.899 L69.819,69.899 Z M62.09,95.277 L71.35,95.277 L71.35,82.298 L62.09,82.298 L62.09,95.277 Z M50.931,95.277 L60.19,95.277 L60.19,82.298 L50.931,82.298 L50.931,95.277 Z M48.451,80.398 L73.829,80.398 L73.829,76.098 L48.451,76.098 L48.451,80.398 Z M41.012,35.47 C41.012,34.626 41.697,33.941 42.541,33.941 L49.03,33.941 L49.03,41.67 C49.03,43.561 50.569,45.1 52.461,45.1 L69.819,45.1 C71.711,45.1 73.25,43.561 73.25,41.67 L73.25,33.941 L79.739,33.941 C80.583,33.941 81.269,34.626 81.269,35.47 L81.269,95.277 L73.25,95.277 L73.25,82.298 L74.779,82.298 C75.304,82.298 75.73,81.872 75.73,81.348 L75.73,75.148 C75.73,74.623 75.304,74.198 74.779,74.198 L47.501,74.198 C46.977,74.198 46.551,74.623 46.551,75.148 L46.551,81.348 C46.551,81.872 46.977,82.298 47.501,82.298 L49.03,82.298 L49.03,95.277 L41.012,95.277 L41.012,35.47 Z M50.931,24.311 C50.931,23.467 51.617,22.781 52.461,22.781 L69.819,22.781 C70.663,22.781 71.35,23.467 71.35,24.311 L71.35,41.67 C71.35,42.514 70.663,43.199 69.819,43.199 L52.461,43.199 C51.617,43.199 50.931,42.514 50.931,41.67 L50.931,24.311 Z M95.858,41.96 L87.179,41.96 C86.654,41.96 86.229,42.386 86.229,42.91 C86.229,43.435 86.654,43.861 87.179,43.861 L95.858,43.861 C96.702,43.861 97.388,44.546 97.388,45.39 L97.388,95.277 L83.169,95.277 L83.169,35.47 C83.169,33.579 81.63,32.04 79.739,32.04 L73.25,32.04 L73.25,24.311 C73.25,22.42 71.711,20.881 69.819,20.881 L52.461,20.881 C50.569,20.881 49.03,22.42 49.03,24.311 L49.03,32.04 L42.541,32.04 C40.65,32.04 39.111,33.579 39.111,35.47 L39.111,95.277 L24.893,95.277 L24.893,45.39 C24.893,44.546 25.578,43.861 26.422,43.861 L35.102,43.861 C35.626,43.861 36.052,43.435 36.052,42.91 C36.052,42.386 35.626,41.96 35.102,41.96 L26.422,41.96 C24.531,41.96 22.992,43.499 22.992,45.39 L22.992,96.227 C22.992,96.751 23.418,97.177 23.942,97.177 L98.338,97.177 C98.862,97.177 99.288,96.751 99.288,96.227 L99.288,45.39 C99.288,43.499 97.749,41.96 95.858,41.96 L95.858,41.96 Z" id="Fill-10" fill="#343852"></path>
        <path d="M66.0997,32.0403 L62.0897,32.0403 L62.0897,28.0303 C62.0897,27.5063 61.6637,27.0803 61.1397,27.0803 C60.6157,27.0803 60.1897,27.5063 60.1897,28.0303 L60.1897,32.0403 L56.1807,32.0403 C55.6567,32.0403 55.2307,32.4663 55.2307,32.9903 C55.2307,33.5153 55.6567,33.9403 56.1807,33.9403 L60.1897,33.9403 L60.1897,37.9503 C60.1897,38.4753 60.6157,38.9003 61.1397,38.9003 C61.6637,38.9003 62.0897,38.4753 62.0897,37.9503 L62.0897,33.9403 L66.0997,33.9403 C66.6237,33.9403 67.0497,33.5153 67.0497,32.9903 C67.0497,32.4663 66.6237,32.0403 66.0997,32.0403" id="Fill-11" fill="#FFFFFF"></path>
    </g>
</svg>