<svg xmlns="http://www.w3.org/2000/svg" width="118" height="82" viewBox="0 0 118 82">
  <g fill="none" fill-rule="evenodd">
    <path fill="#6F6F6E" d="M19.378 6.749C17.16 1.295 11.117-1.401 5.88.729l11.522 28.337c2.218 5.455 8.261 8.15 13.498 6.02L19.378 6.75ZM5.711 20.294a5.38 5.38 0 0 0-5.38 5.38v10.144h.656c5.58 0 10.105-4.524 10.105-10.104v-.04a5.38 5.38 0 0 0-5.38-5.38"/>
    <path fill="#D60B51" d="M33.19 12.449v17.989a5.38 5.38 0 0 0 10.76 0v-4.623a2.91 2.91 0 0 0-.721-1.918L33.189 12.45Z"/>
    <path fill="#1D70B7" d="M67.324 35.818c-4.823 0-8.733-3.639-8.733-8.128V15.787c2.228 2.263 5.326 3.62 8.62 3.773h.113c4.824 0 8.734 3.642 8.734 8.13 0 4.49-3.91 8.128-8.734 8.128"/>
    <path fill="#D60B51" d="M54.098 24.012V5.382a5.38 5.38 0 0 0-10.76 0v5.172c0 .74.268 1.456.755 2.013l10.005 11.445Z"/>
    <path fill="#1D70B7" d="M75.461 14.092c-1.323-1.356-3.58-2.211-5.665-2.247l-.657-.011c-3.492 0-6.322-2.649-6.322-5.916C62.817 2.65 65.647 0 69.139 0s6.322 2.65 6.322 5.916v8.175Z"/>
    <path fill="#6F6F6E" d="m4.929 48.963-.91-2.003h-.026l-.922 2.003h1.858Zm-1.081-5.97h.343l3.874 8.171H5.983l-.395-.817H2.464l-.382.817H0l3.848-8.17ZM11.967 42.994c1.463 0 2.477.54 3.307 1.383l-1.344 1.239c-.54-.488-1.212-.79-1.963-.79-1.41 0-2.32 1.054-2.32 2.384 0 1.463 1.041 2.386 2.36 2.386 1.383 0 2.055-.765 2.108-1.529h-2.254v-1.674h4.35v.751c0 2.333-1.371 4.283-4.244 4.283-2.504 0-4.283-1.858-4.283-4.217 0-2.359 1.779-4.216 4.283-4.216M16.752 43.257h5.231v1.713H18.69v1.424h3.044v1.686H18.69v1.424h3.44v1.66h-5.377zM23.065 43.257h2.042l3.071 4.69v-4.69h1.924v7.907h-2.016l-3.084-4.705v4.705h-1.937zM34.992 42.994c1.502 0 2.543.566 3.387 1.449l-1.331 1.265c-.554-.54-1.265-.883-2.056-.883-1.41 0-2.32 1.055-2.32 2.385 0 1.332.91 2.386 2.32 2.386.79 0 1.502-.343 2.056-.883l1.292 1.265c-.792.83-1.885 1.45-3.348 1.45-2.504 0-4.283-1.859-4.283-4.218s1.78-4.216 4.283-4.216M38.75 43.257h5.231v1.713h-3.295v1.424h3.044v1.686h-3.044v1.424h3.44v1.66H38.75z"/>
    <path fill="#D60B51" d="M3.136 59.824c1.24 0 2.188-.87 2.188-2.2 0-1.226-.83-2.188-2.188-2.188H2.36v4.388h.777Zm-2.714-6.14h2.754c2.332 0 4.138 1.713 4.138 3.94 0 2.108-1.608 3.966-4.138 3.966H.422v-7.907ZM7.974 53.683h1.924v4.955c0 1.055.5 1.423 1.173 1.423.738 0 1.199-.368 1.199-1.423v-4.955h1.937v5.245c0 1.871-1.397 2.926-3.136 2.926-1.806 0-3.097-1.107-3.097-2.926v-5.245ZM18.623 53.683h2.042l3.071 4.692v-4.692h1.924v7.907h-2.016l-3.084-4.704v4.704h-1.937zM26.597 53.683h1.924v4.955c0 1.055.5 1.423 1.173 1.423.738 0 1.199-.368 1.199-1.423v-4.955h1.937v5.245c0 1.871-1.397 2.926-3.136 2.926-1.806 0-3.097-1.107-3.097-2.926v-5.245ZM34.096 53.683h1.805l2.017 4.27 2.03-4.27h1.778v7.907h-1.924v-3.518l-1.726 3.782h-.316l-1.727-3.808v3.544h-1.937zM45.272 52.484h1.635l-.739 1.041h-1.317l.421-1.041Zm-2.28 1.2h5.232v1.712H44.93v1.424h3.044v1.686H44.93v1.423h3.44v1.661h-5.378v-7.907ZM52.798 57.11c.435 0 .725-.448.725-.91 0-.46-.343-.87-.778-.87h-1.502v1.78h1.555Zm-3.492-3.427h3.308c1.7 0 2.806 1.028 2.806 2.517 0 1.384-.698 2.162-1.871 2.451l2.135 2.94H53.26l-2.016-2.953v2.952h-1.937v-7.907ZM56.37 61.59h1.938v-7.907H56.37zM63.25 60.035c.092 0 .184 0 .276-.013l-1.66-1.595h2.359l.83.778c.33-.422.514-.962.514-1.555 0-1.331-.922-2.412-2.32-2.412-1.396 0-2.319 1.08-2.319 2.412 0 1.318.923 2.385 2.32 2.385m0-6.615c2.49 0 4.256 1.897 4.256 4.23a4.222 4.222 0 0 1-1.067 2.846l1.33 1.226h-2.464l-.25-.237a4.46 4.46 0 0 1-1.805.369c-2.491 0-4.257-1.872-4.257-4.204 0-2.333 1.766-4.23 4.257-4.23M68.852 53.683h1.924v4.955c0 1.055.5 1.423 1.173 1.423.738 0 1.199-.368 1.199-1.423v-4.955h1.937v5.245c0 1.871-1.397 2.926-3.136 2.926-1.806 0-3.097-1.107-3.097-2.926v-5.245ZM76.351 53.683h5.231v1.714h-3.294v1.423h3.044v1.687h-3.044v1.423h3.44v1.66h-5.377z"/>
    <path fill="#1D70B7" d="M.422 64.109h5.231v1.714H2.36v1.423h3.044v1.687H2.36v1.423H5.8v1.66H.421zM6.735 64.109h2.042l3.071 4.692v-4.692h1.924v7.907h-2.017l-3.083-4.704v4.704H6.735zM20.244 69.697c0 .461.369.83.817.83.488 0 .79-.276.79-.685 0-.593-.777-.764-1.423-.988-1.33-.475-2.069-1.094-2.069-2.452 0-1.396 1.2-2.556 2.689-2.556 1.753 0 2.583 1.12 2.688 2.583h-1.818c0-.448-.277-.817-.818-.817-.421 0-.83.25-.83.764 0 .593.725.699 1.397.896 1.41.422 2.07 1.213 2.07 2.451 0 1.397-1.187 2.557-2.676 2.557-1.726 0-2.702-1.16-2.702-2.583h1.885ZM28.626 69.816l-.909-2.003h-.026l-.923 2.003h1.858Zm-1.08-5.97h.342l3.875 8.17H29.68l-.396-.817h-3.123l-.382.817h-2.082l3.848-8.17ZM32.278 64.109h2.042l3.071 4.692v-4.692h1.924v7.907h-2.017l-3.083-4.704v4.704h-1.937zM41.978 65.823h-1.766V64.11h5.508v1.713h-1.79v6.193h-1.952zM48.897 62.91h1.635l-.739 1.041h-1.317l.421-1.04Zm-2.28 1.2h5.232v1.712h-3.294v1.424h3.044v1.686h-3.044v1.424h3.44v1.66h-5.378V64.11Z"/>
    <path fill="#D60B51" d="M114.27 73.645a2.83 2.83 0 0 0-2.83 2.83v5.335h.345a5.315 5.315 0 0 0 5.315-5.315v-.02a2.83 2.83 0 0 0-2.83-2.83"/>
    <path fill="#FFF" d="M116.061 76.446a1.792 1.792 0 1 0-3.583 0 1.792 1.792 0 0 0 3.583 0"/>
    <path fill="#6F6F6E" d="M1.155 75.203v5.976h1.842v.7H.414v-6.676zM3.898 79.798c0 .89.5 1.561 1.362 1.561.88 0 1.381-.73 1.381-1.552 0-1.07-.74-1.541-1.381-1.541-.71 0-1.362.52-1.362 1.532Zm2.703-2.073h.721v4.155h-.72v-.58c-.24.31-.691.7-1.422.7-1.052 0-2.023-.74-2.023-2.202 0-1.432.962-2.173 2.023-2.173.8 0 1.231.44 1.421.691v-.59ZM10.957 78.386v3.494h-.72v-3.494h-.44v-.661h.44v-1.501h.72v1.5h.721v.662zM11.958 77.725h.721v.45c.07-.11.38-.55.941-.55.22 0 .46.08.641.17l-.34.651a.743.743 0 0 0-.42-.14c-.291 0-.471.12-.581.26-.12.16-.24.44-.24 1.122v2.192h-.722v-4.155ZM14.792 79.798c0 .89.5 1.561 1.361 1.561.881 0 1.382-.73 1.382-1.552 0-1.07-.741-1.541-1.382-1.541-.71 0-1.361.52-1.361 1.532Zm2.702-2.073h.722v4.155h-.722v-.58c-.24.31-.69.7-1.421.7-1.051 0-2.022-.74-2.022-2.202 0-1.432.96-2.173 2.022-2.173.801 0 1.231.44 1.421.691v-.59ZM19.177 77.725h.72v.48c.13-.17.502-.58 1.192-.58.49 0 .941.2 1.192.57.21.311.24.652.24 1.112v2.573H21.8v-2.553c0-.25-.02-.54-.19-.76-.14-.181-.36-.301-.681-.301-.25 0-.52.07-.731.32-.28.33-.3.821-.3 1.122v2.172h-.72v-4.155ZM25.194 78.686c-.1-.24-.31-.42-.58-.42-.26 0-.5.15-.5.47 0 .3.2.391.67.591.6.25.881.44 1.041.64.18.221.22.441.22.671 0 .872-.63 1.362-1.431 1.362-.17 0-1.101-.02-1.452-1.061l.62-.26c.08.22.321.68.842.68.47 0 .68-.35.68-.66 0-.39-.28-.52-.67-.691-.5-.22-.821-.38-1.011-.61-.16-.201-.19-.401-.19-.612 0-.73.51-1.16 1.21-1.16.22 0 .812.04 1.142.75l-.59.31ZM27.347 78.386v3.494h-.72v-3.494h-.401v-.66h.4v-1.813c0-.38.03-.86.4-1.17.2-.171.501-.271.832-.271.26 0 .43.06.51.09v.7c-.15-.06-.32-.09-.47-.09-.16 0-.351.04-.461.22-.09.151-.09.381-.09.601v1.732h1.02v.661h-1.02ZM29.089 79.818c0 1.02.72 1.541 1.461 1.541.751 0 1.462-.53 1.462-1.541 0-1.022-.7-1.552-1.462-1.552-.76 0-1.461.54-1.461 1.552m-.74 0c0-1.262.93-2.193 2.201-2.193 1.272 0 2.203.931 2.203 2.193 0 1.26-.941 2.182-2.203 2.182-1.26 0-2.202-.921-2.202-2.182M33.455 77.725h.72v.45c.07-.11.38-.55.941-.55.22 0 .46.08.641.17l-.34.651a.743.743 0 0 0-.42-.14c-.291 0-.471.12-.581.26-.12.16-.24.44-.24 1.122v2.192h-.721v-4.155ZM36.018 77.725h.72v.44c.231-.34.592-.54 1.032-.54.75 0 1.051.53 1.131.67.4-.63.971-.67 1.252-.67 1.23 0 1.351 1.031 1.351 1.622v2.633h-.72v-2.523c0-.47-.06-1.091-.741-1.091-.831 0-.922.8-.922 1.301v2.313h-.72v-2.463c0-.29.01-1.151-.751-1.151-.82 0-.911.85-.911 1.351v2.263h-.721v-4.155ZM42.956 79.798c0 .89.5 1.561 1.362 1.561.88 0 1.382-.73 1.382-1.552 0-1.07-.741-1.541-1.382-1.541-.71 0-1.362.52-1.362 1.532Zm2.703-2.073h.721v4.155h-.72v-.58c-.24.31-.691.7-1.422.7-1.051 0-2.022-.74-2.022-2.202 0-1.432.96-2.173 2.022-2.173.801 0 1.231.44 1.421.691v-.59ZM48.083 78.386v3.494h-.72v-3.494h-.44v-.661h.44v-1.501h.72v1.5h.72v.662zM49.085 81.88h.723v-4.155h-.723v4.155Zm.362-6.237c.281 0 .512.23.512.51a.514.514 0 0 1-1.025 0c0-.28.231-.51.513-.51ZM51.246 79.818c0 1.02.721 1.541 1.462 1.541.751 0 1.462-.53 1.462-1.541 0-1.022-.7-1.552-1.462-1.552-.76 0-1.462.54-1.462 1.552m-.74 0c0-1.262.93-2.193 2.202-2.193 1.271 0 2.202.931 2.202 2.193 0 1.26-.94 2.182-2.202 2.182-1.261 0-2.202-.921-2.202-2.182M55.612 77.725h.72v.48c.131-.17.502-.58 1.192-.58.49 0 .941.2 1.192.57.21.311.24.652.24 1.112v2.573h-.721v-2.553c0-.25-.02-.54-.19-.76-.14-.181-.36-.301-.681-.301-.25 0-.52.07-.73.32-.281.33-.301.821-.301 1.122v2.172h-.72v-4.155ZM65.103 78.887c-.38-.48-.93-.621-1.3-.621-.772 0-1.473.54-1.473 1.552 0 1.01.721 1.541 1.462 1.541.43 0 .961-.19 1.342-.65v.86c-.45.331-.932.43-1.322.43-1.291 0-2.222-.92-2.222-2.171 0-1.272.94-2.203 2.222-2.203a2.2 2.2 0 0 1 1.291.4v.862ZM66.315 79.818c0 1.02.721 1.541 1.462 1.541.75 0 1.461-.53 1.461-1.541 0-1.022-.7-1.552-1.461-1.552-.76 0-1.462.54-1.462 1.552m-.74 0c0-1.262.93-2.193 2.202-2.193 1.271 0 2.202.931 2.202 2.193 0 1.26-.94 2.182-2.202 2.182-1.261 0-2.203-.921-2.203-2.182M70.68 77.725h.722v.44c.23-.34.59-.54 1.03-.54.752 0 1.052.53 1.132.67.4-.63.971-.67 1.251-.67 1.232 0 1.352 1.031 1.352 1.622v2.633h-.72v-2.523c0-.47-.06-1.091-.742-1.091-.83 0-.92.8-.92 1.301v2.313h-.721v-2.463c0-.29.01-1.151-.751-1.151-.821 0-.911.85-.911 1.351v2.263h-.721v-4.155ZM77.139 77.725h.72v.44c.231-.34.592-.54 1.032-.54.75 0 1.051.53 1.131.67.4-.63.971-.67 1.252-.67 1.23 0 1.351 1.031 1.351 1.622v2.633h-.72v-2.523c0-.47-.06-1.091-.741-1.091-.831 0-.922.8-.922 1.301v2.313h-.72v-2.463c0-.29.01-1.151-.751-1.151-.82 0-.911.85-.911 1.351v2.263h-.721v-4.155ZM86.57 79.347c-.12-.65-.61-1.08-1.221-1.08-.61 0-1.111.46-1.221 1.08h2.442Zm.711 1.472c-.12.23-.3.48-.51.67-.38.34-.851.511-1.382.511-1.001 0-2.052-.63-2.052-2.173 0-1.24.76-2.202 2.012-2.202.81 0 1.322.4 1.571.76.26.372.41 1.012.391 1.563h-3.234c.01.86.601 1.411 1.322 1.411.34 0 .61-.1.85-.3.191-.16.341-.37.431-.57l.601.33ZM88.012 77.725h.721v.48c.13-.17.501-.58 1.192-.58.49 0 .94.2 1.19.57.211.311.241.652.241 1.112v2.573h-.72v-2.553c0-.25-.02-.54-.191-.76-.14-.181-.36-.301-.68-.301-.25 0-.521.07-.732.32-.28.33-.3.821-.3 1.122v2.172h-.72v-4.155ZM95.571 78.887c-.38-.48-.93-.621-1.301-.621-.771 0-1.472.54-1.472 1.552 0 1.01.721 1.541 1.462 1.541.43 0 .961-.19 1.342-.65v.86c-.451.331-.932.43-1.322.43-1.291 0-2.223-.92-2.223-2.171 0-1.272.942-2.203 2.223-2.203a2.2 2.2 0 0 1 1.291.4v.862ZM99.276 79.347c-.12-.65-.61-1.08-1.221-1.08-.61 0-1.112.46-1.222 1.08h2.443Zm.71 1.472c-.12.23-.3.48-.51.67-.38.34-.85.511-1.381.511-1.001 0-2.053-.63-2.053-2.173 0-1.24.761-2.202 2.013-2.202.81 0 1.321.4 1.571.76.26.372.41 1.012.39 1.563h-3.233c.01.86.601 1.411 1.322 1.411.34 0 .61-.1.85-.3.191-.16.341-.37.431-.57l.6.33ZM102.651 81.88h.724v-4.155h-.724v4.155Zm.362-6.237c.281 0 .512.23.512.51a.514.514 0 0 1-1.025 0c0-.28.232-.51.513-.51ZM107.586 78.887c-.38-.48-.93-.621-1.301-.621-.771 0-1.472.54-1.472 1.552 0 1.01.72 1.541 1.462 1.541.43 0 .96-.19 1.341-.65v.86c-.45.331-.931.43-1.321.43-1.292 0-2.223-.92-2.223-2.171 0-1.272.941-2.203 2.223-2.203a2.2 2.2 0 0 1 1.291.4v.862ZM108.318 81.88h.724v-4.155h-.724v4.155Zm.362-6.237c.281 0 .513.23.513.51a.514.514 0 0 1-1.025 0c0-.28.23-.51.512-.51Z"/>
  </g>
</svg>
