<?xml version="1.0" encoding="utf-8"?>
<!-- Generator: Adobe Illustrator 26.1.0, SVG Export Plug-In . SVG Version: 6.00 Build 0)  -->
<svg version="1.1" id="Calque_1" xmlns="http://www.w3.org/2000/svg" xmlns:xlink="http://www.w3.org/1999/xlink" x="0px" y="0px"
	 viewBox="0 0 143 81.2" style="enable-background:new 0 0 143 81.2;" xml:space="preserve">
<style type="text/css">
	.st0{fill:#1D1D1B;}
	.st1{fill:#000091;}
	.st2{fill:#E1000F;}
	.st3{fill:#9D9D9C;}
</style>
<g>
	<g>
		<path class="st0" d="M29.4,78.1c0.2,0,0.5,0.2,0.3,0.7L28.7,79C28.9,78.5,29.2,78.1,29.4,78.1 M30.1,79.9h-0.2
			c-0.3,0.3-0.6,0.6-0.9,0.6c-0.3,0-0.5-0.2-0.5-0.6c0-0.2,0-0.3,0.1-0.5l1.8-0.6c0.4-0.8-0.1-1.2-0.6-1.2c-0.9,0-1.9,1.5-1.9,2.7
			c0,0.6,0.3,0.9,0.7,0.9C29.1,81.2,29.7,80.7,30.1,79.9 M29.7,77.3l1.3-1.2v-0.1h-0.7l-0.8,1.3H29.7z M25.8,78.1h0.6l-1,2.6
			c-0.1,0.2,0,0.5,0.3,0.5c0.6,0,1.4-0.5,1.7-1.3h-0.2c-0.2,0.3-0.7,0.6-1.1,0.7l0.9-2.5h0.9l0.1-0.4h-0.9l0.3-1h-0.4l-0.6,1
			l-0.7,0.1V78.1z M24.9,78c0.1-0.2-0.1-0.4-0.2-0.4c-0.5,0-1.2,0.5-1.4,1.1h0.2c0.2-0.2,0.5-0.5,0.7-0.6l-1,2.6
			c-0.1,0.2,0.1,0.4,0.2,0.4c0.5,0,1.1-0.5,1.3-1.1h-0.2c-0.2,0.2-0.5,0.5-0.7,0.6L24.9,78z M25.1,76.7c0.2,0,0.4-0.2,0.4-0.4
			c0-0.2-0.2-0.4-0.4-0.4c-0.2,0-0.4,0.2-0.4,0.4C24.7,76.5,24.9,76.7,25.1,76.7 M19.3,80.7c-0.1,0.3,0,0.5,0.3,0.5
			c0.2,0,0.3,0,0.3-0.2l0.7-1.9c0.3-0.4,1-0.8,1.3-0.8c0.2,0,0.2,0.2,0,0.4l-1.1,2.1c-0.1,0.2,0,0.5,0.3,0.5c0.5,0,1.2-0.5,1.4-1.1
			h-0.2c-0.2,0.2-0.5,0.5-0.7,0.6l0.9-1.9c0.1-0.2,0.2-0.5,0.2-0.6c0-0.3-0.2-0.5-0.5-0.5c-0.5,0-0.9,0.5-1.5,1.2v-0.5
			c0-0.4-0.1-0.7-0.4-0.7c-0.2,0-0.4,0.2-0.6,0.4v0.1c0.3,0,0.5,0.5,0.3,1L19.3,80.7z M19.3,78.4c0.1-0.4,0.1-0.8-0.3-0.8
			c-0.4,0-0.5,0.3-0.9,1.2v-0.5c0-0.4-0.1-0.7-0.4-0.7c-0.4,0-0.7,0.6-1,1.1h0.2c0.2-0.3,0.3-0.4,0.5-0.4c0.2,0,0.2,0.2,0,0.8
			l-0.7,1.6c-0.1,0.3,0,0.5,0.3,0.5c0.2,0,0.3,0,0.3-0.2l0.7-1.9c0.2-0.2,0.4-0.5,0.6-0.7H19.3z M15.2,78.1c0.2,0,0.5,0.2,0.3,0.7
			L14.4,79C14.6,78.5,14.9,78.1,15.2,78.1 M15.8,79.9h-0.2c-0.3,0.3-0.6,0.6-0.9,0.6c-0.3,0-0.5-0.2-0.5-0.6c0-0.2,0-0.3,0.1-0.5
			l1.8-0.6c0.4-0.8-0.1-1.2-0.6-1.2c-0.9,0-1.9,1.5-1.9,2.7c0,0.6,0.3,0.9,0.7,0.9C14.9,81.2,15.4,80.7,15.8,79.9 M11.5,78.1h0.6
			l-1,2.6c-0.1,0.2,0,0.5,0.3,0.5c0.6,0,1.4-0.5,1.7-1.3H13c-0.2,0.3-0.7,0.6-1.1,0.7l0.9-2.5h0.9l0.1-0.4h-0.9l0.3-1h-0.4l-0.6,1
			l-0.7,0.1V78.1z M8.1,80.2c0-0.8,0.9-1.9,1.4-1.9c0.1,0,0.2,0,0.3,0l-0.5,1.4c-0.3,0.4-0.8,0.8-1,0.8C8.2,80.5,8.1,80.4,8.1,80.2
			 M10.9,77.5l-0.3,0l-0.3,0.3h-0.1c-1.5,0-2.8,1.7-2.8,2.9c0,0.3,0.2,0.5,0.5,0.5c0.4,0,0.8-0.6,1.2-1.2l0,0.2
			c-0.1,0.6,0.1,0.9,0.5,0.9c0.4,0,0.7-0.6,1-1.1h-0.2c-0.2,0.3-0.3,0.4-0.5,0.4c-0.1,0-0.2-0.3,0-0.8L10.9,77.5z M7.7,78.4
			c0.1-0.4,0.1-0.8-0.3-0.8c-0.4,0-0.5,0.3-0.9,1.2v-0.5c0-0.4-0.1-0.7-0.4-0.7c-0.4,0-0.7,0.6-1,1.1h0.2c0.2-0.3,0.3-0.4,0.5-0.4
			c0.2,0,0.2,0.2,0,0.8l-0.7,1.6c-0.1,0.3,0,0.5,0.3,0.5c0.2,0,0.3,0,0.3-0.2l0.7-1.9c0.2-0.2,0.4-0.5,0.6-0.7H7.7z M2.6,81.1
			l0.1-0.2c-0.9-0.2-1-0.2-0.6-1.1l0.4-1h1c0.4,0,0.4,0.2,0.4,0.7H4l0.6-1.6H4.4c-0.2,0.4-0.4,0.7-0.9,0.7h-1L3,77.1
			c0.2-0.4,0.3-0.5,0.8-0.5h0.4c0.6,0,0.7,0.2,0.7,0.8h0.2l0.2-1.1H1.8l-0.1,0.2c0.7,0.1,0.8,0.2,0.4,1.1l-0.8,2.2
			c-0.3,0.9-0.5,1-1.3,1.1L0,81.1H2.6z"/>
		<path class="st0" d="M20.6,69.8c0.2,0,0.5,0.2,0.3,0.7l-1.1,0.3C20,70.2,20.3,69.8,20.6,69.8 M21.2,71.6H21
			c-0.3,0.3-0.6,0.6-0.9,0.6c-0.3,0-0.5-0.2-0.5-0.6c0-0.2,0-0.3,0.1-0.5l1.8-0.6c0.4-0.8-0.1-1.2-0.6-1.2c-0.9,0-1.9,1.5-1.9,2.7
			c0,0.6,0.3,0.9,0.7,0.9C20.3,72.9,20.8,72.4,21.2,71.6 M20.8,69l1.3-1.2v-0.1h-0.7L20.6,69H20.8z M16.9,69.8h0.6l-1,2.6
			c-0.1,0.2,0,0.5,0.3,0.5c0.6,0,1.4-0.5,1.7-1.3h-0.2c-0.2,0.3-0.7,0.6-1.1,0.7l0.9-2.5H19l0.1-0.4h-0.9l0.3-1h-0.4l-0.6,1
			l-0.7,0.1V69.8z M16.1,69.7c0.1-0.2-0.1-0.4-0.2-0.4c-0.5,0-1.2,0.5-1.4,1.1h0.2c0.2-0.2,0.5-0.5,0.7-0.6l-1,2.6
			c-0.1,0.2,0.1,0.4,0.2,0.4c0.5,0,1.1-0.5,1.3-1.1h-0.2c-0.2,0.2-0.5,0.5-0.7,0.6L16.1,69.7z M16.2,68.4c0.2,0,0.4-0.2,0.4-0.4
			c0-0.2-0.2-0.4-0.4-0.4c-0.2,0-0.4,0.2-0.4,0.4C15.8,68.2,16,68.4,16.2,68.4 M12.7,72.3l1.8-4.8l-0.1-0.1l-1.2,0.1v0.1l0.2,0.2
			c0.2,0.2,0.1,0.3,0,0.8l-1.4,3.8c-0.1,0.2,0,0.5,0.3,0.5c0.5,0,1.1-0.5,1.3-1.1h-0.2C13.3,72,13,72.3,12.7,72.3 M9.2,71.9
			c0-0.8,0.9-1.9,1.4-1.9c0.1,0,0.2,0,0.3,0l-0.5,1.4c-0.3,0.4-0.8,0.8-1,0.8C9.3,72.2,9.2,72.1,9.2,71.9 M12,69.2l-0.3,0l-0.3,0.3
			h-0.1c-1.5,0-2.8,1.7-2.8,2.9c0,0.3,0.2,0.5,0.5,0.5c0.4,0,0.8-0.6,1.2-1.2l0,0.2c-0.1,0.6,0.1,0.9,0.5,0.9c0.4,0,0.7-0.6,1-1.1
			h-0.2c-0.2,0.3-0.3,0.4-0.5,0.4c-0.1,0-0.2-0.3,0-0.8L12,69.2z M5.2,73.6c0-0.4,0.3-0.6,0.8-0.8c0.2,0.1,0.4,0.2,0.7,0.3
			c0.5,0.2,0.7,0.2,0.7,0.4c0,0.3-0.6,0.6-1.3,0.6C5.5,74,5.2,73.9,5.2,73.6 M6.6,71.4c-0.2,0-0.3-0.2-0.3-0.4
			c0-0.6,0.3-1.5,0.8-1.5c0.2,0,0.3,0.2,0.3,0.4C7.4,70.6,7.1,71.4,6.6,71.4 M8.1,73.2c0-0.4-0.4-0.6-1-0.8
			c-0.5-0.2-0.8-0.2-0.8-0.4c0-0.1,0.1-0.3,0.3-0.4c0.9,0,1.4-0.8,1.4-1.5c0-0.1,0-0.3-0.1-0.4h0.7l0.1-0.4H7.7
			c-0.1-0.1-0.3-0.1-0.5-0.1c-0.9,0-1.5,0.8-1.5,1.5c0,0.5,0.3,0.8,0.7,0.9c-0.4,0.2-0.7,0.4-0.7,0.7c0,0.2,0.1,0.3,0.2,0.4
			c-1,0.3-1.4,0.6-1.4,1.1c0,0.5,0.6,0.6,1.3,0.6C7,74.4,8.1,73.8,8.1,73.2 M3.4,70.4c0.4,0,0.4,0.2,0.4,0.7H4l0.6-1.6H4.4
			c-0.2,0.4-0.4,0.7-0.9,0.7h-1L3,68.8c0.2-0.4,0.3-0.5,0.8-0.5h0.4C4.9,68.3,5,68.4,5,69h0.2L5.4,68H1.8l-0.1,0.2
			c0.7,0.1,0.8,0.2,0.4,1.1l-0.8,2.2c-0.3,0.9-0.5,1-1.3,1.1L0,72.8h4.1l0.7-1.2H4.5c-0.5,0.4-1,0.9-1.9,0.9c-1.1,0-1,0-0.6-1
			l0.4-1.1H3.4z M3.9,67.6l1.3-0.9v-0.1H4.5l-0.7,1H3.9z"/>
		<path class="st0" d="M20.1,61.5c0.2,0,0.5,0.2,0.3,0.7l-1.1,0.3C19.5,61.9,19.9,61.5,20.1,61.5 M20.8,63.4h-0.2
			C20.3,63.7,20,64,19.7,64c-0.3,0-0.5-0.2-0.5-0.6c0-0.2,0-0.3,0.1-0.5l1.8-0.6c0.4-0.8-0.1-1.2-0.6-1.2c-0.9,0-1.9,1.5-1.9,2.7
			c0,0.6,0.3,0.9,0.7,0.9C19.8,64.6,20.3,64.2,20.8,63.4 M20.4,60.7l1.3-1.2v-0.1H21l-0.8,1.3H20.4z M16.6,61.5h0.5l-1,2.6
			c-0.1,0.2,0,0.5,0.3,0.5c0.6,0,1.4-0.5,1.7-1.3H18c-0.2,0.3-0.7,0.6-1.1,0.7l0.9-2.5h0.9l0.1-0.4h-0.9l0.3-1h-0.4l-0.6,1l-0.6,0.1
			V61.5z M16.1,61.8c0.1-0.4,0.1-0.8-0.3-0.8c-0.4,0-0.5,0.3-0.9,1.2v-0.5c0-0.4-0.1-0.7-0.4-0.7c-0.4,0-0.7,0.6-1,1.1h0.2
			c0.2-0.3,0.3-0.4,0.5-0.4c0.2,0,0.2,0.2,0,0.8l-0.7,1.6c-0.1,0.3,0,0.5,0.3,0.5c0.2,0,0.3,0,0.3-0.2l0.7-1.9
			c0.2-0.2,0.4-0.5,0.6-0.7H16.1z M12.1,61.5c0.2,0,0.5,0.2,0.3,0.7l-1.1,0.3C11.5,61.9,11.8,61.5,12.1,61.5 M12.7,63.4h-0.2
			c-0.3,0.3-0.6,0.6-0.9,0.6c-0.3,0-0.5-0.2-0.5-0.6c0-0.2,0-0.3,0.1-0.5l1.8-0.6c0.4-0.8-0.1-1.2-0.6-1.2c-0.9,0-1.9,1.5-1.9,2.7
			c0,0.6,0.3,0.9,0.7,0.9C11.8,64.6,12.3,64.2,12.7,63.4 M8.2,64.1c-0.2,0-0.4-0.2-0.4-0.3c0,0,0.1-0.3,0.2-0.5l0.3-0.8
			c0.3-0.4,0.8-0.8,1.1-0.8c0.2,0,0.3,0.1,0.3,0.4C9.6,62.8,8.9,64.1,8.2,64.1 M10.3,61.8c0-0.5-0.2-0.7-0.6-0.7
			c-0.5,0-0.9,0.5-1.3,1.1l1.1-2.9l-0.1-0.1l-1.2,0.1v0.1l0.2,0.2c0.2,0.2,0.1,0.3,0,0.8l-1.2,3.1c-0.1,0.2-0.2,0.5-0.2,0.6
			c0,0.3,0.4,0.6,0.8,0.6C8.8,64.6,10.3,63,10.3,61.8 M6.7,61.4C6.7,61.2,6.6,61,6.5,61c-0.5,0-1.2,0.5-1.4,1.1h0.2
			c0.2-0.2,0.5-0.5,0.7-0.6l-1,2.6c-0.1,0.2,0.1,0.4,0.2,0.4c0.5,0,1.1-0.5,1.3-1.1H6.3c-0.2,0.2-0.5,0.5-0.7,0.6L6.7,61.4z
			 M6.9,60.1c0.2,0,0.4-0.2,0.4-0.4c0-0.2-0.2-0.4-0.4-0.4c-0.2,0-0.4,0.2-0.4,0.4C6.4,59.9,6.6,60.1,6.9,60.1 M4.2,59.7H1.8
			l-0.1,0.2C2.4,60,2.5,60.1,2.2,61l-0.8,2.2c-0.3,0.9-0.5,1-1.3,1.1L0,64.5h3.7l0.8-1.4H4.2c-0.5,0.5-1,1.1-1.8,1.1
			c-0.6,0-0.7-0.1-0.4-1L2.8,61c0.3-0.9,0.5-1,1.3-1.1L4.2,59.7z"/>
	</g>
	<g>
		<path class="st1" d="M13.6,10.6c0.1-0.1,0.3-0.3,0.4-0.4h0c0.2-0.3,0.5-0.5,0.8-0.8C14.9,9.3,15,9.3,15,9.2c0,0,0-0.1,0-0.1
			c-0.1,0-0.2,0.1-0.3,0.2c0,0,0,0,0,0c0.1-0.1,0.2-0.1,0.2-0.2c0,0,0,0,0,0c0,0,0,0,0,0c-0.3,0-0.5,0.2-0.7,0.3c0,0-0.1,0-0.1,0
			c-0.3,0.1-0.6,0.4-0.9,0.5c0,0,0,0,0,0c-0.1,0-0.3,0.1-0.4,0.2c-0.2,0-0.4,0-0.6,0c-0.3,0-0.5,0.1-0.8,0.1c0,0,0,0,0,0
			c-0.1,0-0.3,0.1-0.4,0.2c0,0,0,0,0,0c0,0,0,0,0,0c0,0.1-0.1,0.1-0.2,0.1c-0.1,0.1-0.3,0.2-0.4,0.3c0,0,0,0,0,0
			c-0.1,0.1-0.2,0.2-0.4,0.3c0,0,0,0-0.1,0c0,0,0,0,0,0c0,0,0,0,0,0c0,0,0-0.1,0.1-0.1c0,0,0-0.1,0.1-0.1c0,0,0.1-0.1,0.1-0.1
			c0,0,0,0,0,0c0,0,0,0,0,0c0.1-0.1,0.2-0.2,0.4-0.3c0,0,0,0,0,0c0,0,0,0,0,0c0,0,0,0,0-0.1c0,0,0,0,0,0c0,0,0,0,0,0
			c0,0-0.1,0-0.1,0.1c-0.1,0-0.1,0.1-0.2,0.1c0,0,0,0,0,0c0,0,0,0,0,0c0,0,0,0,0,0c0,0,0,0,0,0c0,0,0,0,0,0c0,0,0,0,0,0c0,0,0,0,0,0
			c0,0,0,0,0,0c0,0,0,0,0,0c0,0,0,0,0,0c0,0,0,0,0-0.1c0,0,0,0,0,0c0,0,0,0,0,0c0,0,0,0,0,0c0-0.1,0.1-0.1,0.2-0.1h0
			c0.1,0,0.2-0.1,0.3-0.1c0,0,0,0,0,0c-0.1,0-0.2,0.1-0.4,0.2c0,0,0,0,0,0c0,0,0,0-0.1,0c0,0,0,0,0,0c0,0,0.1-0.1,0.1-0.1
			c0,0,0,0,0,0c0.7-0.6,1.7-0.4,2.6-0.7c0.1,0,0.1-0.1,0.2-0.1c0.1,0,0.2-0.2,0.3-0.2c0.2-0.1,0.3-0.3,0.4-0.5c0,0,0,0,0,0
			c-0.3,0.3-0.6,0.6-1,0.7c-0.5,0.2-1,0.2-1.5,0.3c0,0,0.1,0,0.1,0c0-0.1,0-0.1,0.1-0.1c0,0,0,0,0.1,0c0,0,0,0,0,0c0,0,0.1,0,0.1,0
			c-0.1-0.1-0.2,0.1-0.3,0c0,0,0-0.1,0.1-0.1c0,0,0.1,0,0.1,0c0,0,0-0.1,0-0.1c0.3-0.2,0.7-0.4,1-0.5c-0.1,0-0.1,0.1-0.2,0
			c0,0,0-0.1,0-0.1c0.2-0.1,0.5-0.2,0.7-0.3c-0.1,0-0.2,0.1-0.2,0c0,0,0.1-0.1,0.1-0.1c0,0,0,0,0-0.1c0,0,0,0,0,0c0,0,0,0,0,0
			c0,0,0.1,0,0.1-0.1c0,0-0.1,0-0.1,0c0.1-0.1,0.2-0.1,0.3-0.1c0,0-0.1,0-0.1,0c0,0,0,0,0,0c0,0,0,0,0,0c0,0,0-0.1,0-0.1
			c0.1-0.2,0.1-0.4,0.2-0.5c0,0,0,0,0,0c-0.2,0.2-0.6,0.3-0.9,0.4c0,0-0.1,0-0.1,0c-0.1,0-0.3,0-0.4,0c-0.1,0-0.1-0.1-0.2-0.2
			c-0.2-0.1-0.4-0.2-0.6-0.3c-0.6-0.2-1.2-0.3-1.7-0.2c0.2-0.1,0.5-0.1,0.8-0.2c0.4-0.1,0.7-0.2,1.2-0.2c-0.1,0-0.2,0-0.2,0
			c-0.3,0-0.6,0.1-1,0.1c-0.2,0-0.4,0.1-0.7,0.2c-0.1,0-0.2,0.2-0.4,0.2c0,0,0,0,0-0.1C9.5,6.3,9.8,6.1,10.2,6c0.4-0.1,0.8,0,1.2,0
			c0.3,0,0.6,0.1,0.9,0.2c0.1,0,0.1,0.2,0.2,0.2c0.1,0,0.3,0,0.4,0.1c0,0,0-0.1,0-0.1c0.1-0.1,0.2,0,0.3,0c0.2-0.1-0.2-0.3-0.2-0.5
			c0,0,0,0,0,0c0.2,0.2,0.3,0.3,0.5,0.5c0.1,0,0.4,0.1,0.3,0c-0.1-0.2-0.3-0.5-0.5-0.7c0,0,0-0.1,0-0.1c0,0,0,0-0.1,0
			c0,0,0-0.1,0-0.1c-0.1,0-0.1-0.1-0.1-0.2c-0.1-0.1,0-0.3-0.1-0.4c0-0.1-0.1-0.2-0.1-0.4c-0.1-0.4-0.2-0.7-0.2-1.1
			c0-0.4,0.2-0.8,0.5-1.2c0.2-0.3,0.3-0.5,0.6-0.7c0.1-0.3,0.2-0.5,0.4-0.7c0.2-0.2,0.5-0.4,0.7-0.5C15.3,0.1,15.6,0,15.6,0H0v12h11
			c0.4-0.3,0.9-0.5,1.5-0.8C12.8,11.1,13.4,10.8,13.6,10.6z M10.2,9c0,0-0.1,0-0.1,0c0-0.1,0.2-0.1,0.3-0.2c0,0,0.1-0.1,0.2,0
			c0,0.1,0.1,0,0.2,0.1C10.5,9,10.3,8.9,10.2,9z M6.7,8.5C6.7,8.5,6.7,8.4,6.7,8.5C7,8,7.2,7.7,7.4,7.3c0.3-0.2,0.5-0.4,0.8-0.6
			c0.4-0.4,0.8-0.8,1.3-1c0.2-0.1,0.4,0,0.6,0C10,5.7,9.8,5.7,9.8,5.8c0,0,0,0-0.1,0c0,0,0,0,0-0.1C9.5,5.9,9.2,6.1,9,6.4
			C8.8,6.6,8.8,6.9,8.5,6.9c-0.1,0,0-0.1,0,0C7.7,7.3,7.2,7.9,6.7,8.5z M8.6,7C8.5,7,8.5,7,8.6,7C8.5,7.1,8.5,7.1,8.4,7.1
			c0,0,0,0,0,0C8.4,7,8.5,6.9,8.6,7C8.6,6.9,8.6,6.9,8.6,7z M9.6,10.4C9.6,10.4,9.6,10.4,9.6,10.4c0,0.1,0,0.1,0,0.1
			c-0.1,0-0.1,0.1-0.2,0.1c0,0,0,0,0,0c0,0-0.1,0.1-0.1,0.1c0,0-0.2,0-0.1,0c0.1-0.1,0.1-0.1,0.2-0.2c0,0,0.1-0.1,0.1-0.1
			c0,0,0,0,0-0.1C9.5,10.3,9.6,10.3,9.6,10.4z M9.2,10.2C9.2,10.2,9.2,10.2,9.2,10.2C9.1,10.2,9,10.3,9,10.4
			c-0.1,0.1-0.2,0.1-0.3,0.1c0,0,0,0,0,0c0,0,0,0,0,0c-0.1,0-0.2,0.1-0.2,0.2c0,0,0,0,0,0c0,0,0,0,0,0c0,0,0,0,0,0c0,0,0,0,0,0
			c0,0,0,0,0,0c0,0,0,0,0,0c0,0,0,0,0,0.1c0,0,0,0,0,0c0,0-0.1,0,0,0c0,0,0,0,0,0c0,0,0,0,0,0c0,0,0,0,0,0c0,0,0,0,0,0c0,0,0,0,0,0
			c0,0-0.1,0-0.1,0.1c0,0-0.1,0.1-0.1,0.1c0,0,0,0,0,0c0,0,0,0,0,0c0,0,0,0,0,0c0,0,0,0,0,0c0,0,0,0,0,0c0,0,0,0,0,0c0,0,0,0,0,0
			c0,0,0,0,0,0c0,0,0,0,0,0c0,0,0,0,0,0c0,0,0,0,0,0c0,0,0,0,0,0c0,0,0,0,0,0c0,0,0-0.1,0.1-0.1c0,0,0,0,0,0c0,0,0,0,0,0
			c0,0,0,0,0,0c0,0,0,0,0,0c0,0,0-0.1,0.1-0.1c0,0,0,0,0,0c0,0,0,0,0,0c0,0,0,0,0,0c0,0,0,0,0,0c0,0,0,0,0,0c0,0,0,0,0,0
			c0,0,0,0,0,0c0,0,0,0,0-0.1c0,0,0,0,0,0c0,0,0,0,0,0c0,0,0,0,0,0l0,0c0,0,0,0,0,0c0,0,0,0,0,0c0,0,0,0,0,0c0,0,0.1-0.1,0.1-0.1
			c0,0,0,0,0,0c0,0-0.1,0.1-0.1,0.1c0,0-0.1,0,0,0c0,0,0,0,0.1,0c0,0,0,0,0,0c0,0,0.1-0.1,0.1-0.1c0,0,0,0,0.1-0.1c0,0,0,0,0,0
			c0,0,0,0,0.1-0.1c0,0,0,0,0,0c0.2-0.2,0.6-0.2,0.9-0.3c0.1,0,0.2,0,0.4,0c0.1,0,0.1,0,0.2,0C9.6,9.9,9.4,10.1,9.2,10.2z M9.7,8.6
			C9.7,8.6,9.8,8.6,9.7,8.6C9.7,8.6,9.7,8.6,9.7,8.6c-0.1,0-0.1-0.1-0.1-0.1c-0.1,0-0.2,0.1-0.4,0.1C9,8.6,8.9,8.8,8.7,8.8
			C8.5,8.9,8.3,9.1,8,9.2c0,0,0,0,0,0C8,9.1,8.1,9.1,8.1,9c0,0,0,0,0,0c0.2-0.2,0.4-0.4,0.7-0.6c0,0,0,0,0-0.1C8.8,8.2,9,8.1,9,8
			C9,8,9.1,7.9,9.2,7.8c0,0-0.1,0-0.1-0.1c-0.1,0-0.2,0-0.3,0c0,0,0.1-0.1,0.1-0.1c0,0,0,0-0.1,0c0,0,0-0.1,0.1-0.1
			c0.1,0,0.2,0,0.3-0.1c-0.2,0-0.3,0-0.5,0C9,7.1,9.2,6.8,9.4,6.7c0,0,0.1,0,0.1,0c0,0.1-0.1,0.2-0.2,0.2c0.2,0,0.4,0,0.5,0.1
			c0,0-0.1,0-0.1,0c0.1,0.1,0.2,0,0.4,0.1c-0.1,0.1-0.1,0-0.2,0c0.7,0.2,1.5,0.4,2,0.8c-0.5,0.2-1,0.4-1.6,0.5c-0.1,0-0.1,0-0.2,0
			c0,0,0,0.1,0,0.1c-0.1,0-0.2,0-0.2,0C9.9,8.6,9.8,8.7,9.7,8.6z"/>
		<g>
			<path class="st2" d="M33,0H20.1c0,0,0,0,0.1,0.1c0.1,0.1,0.2,0.1,0.3,0.2c0.2,0.1,0.3,0.2,0.4,0.4c0,0.1,0.1,0.2,0.1,0.3
				C21,1,21,1.2,20.9,1.2c-0.1,0.1-0.3,0.1-0.5,0c-0.1,0-0.2,0-0.3,0c0.3,0.1,0.7,0.3,0.9,0.6c0,0,0.1,0.1,0.2,0.1c0,0,0,0,0,0.1
				c0,0-0.1,0.1-0.1,0.1c0,0,0,0,0.1,0c0.1,0,0.1-0.3,0.2-0.2c0.1,0.1,0.2,0.2,0.1,0.3c-0.1,0.1-0.2,0.2-0.3,0.2c0,0,0,0.1,0,0.2
				c0.1,0.1,0.1,0.2,0.1,0.3c0.1,0.2,0.1,0.3,0.2,0.5c0.1,0.3,0.2,0.7,0.2,1c0,0.2-0.1,0.3,0,0.5c0,0.2,0.2,0.3,0.2,0.5
				c0.1,0.1,0.2,0.2,0.2,0.4c0.1,0.2,0.4,0.5,0.3,0.7c-0.1,0.2-0.3,0.1-0.5,0.2c-0.1,0.1,0,0.3,0,0.4c0.1,0.2-0.1,0.3-0.3,0.4
				c0,0.1,0.1,0,0.2,0.1c0,0.1,0.1,0.2,0.1,0.3c-0.1,0.1-0.4,0.2-0.2,0.4c0.1,0.2,0,0.3,0,0.5c-0.1,0.2-0.2,0.3-0.4,0.3
				c-0.1,0-0.3,0-0.4,0c0,0-0.1,0-0.1,0C20.4,9.1,20,9,19.6,9c-0.1,0-0.2,0-0.3,0.1c-0.1,0.1-0.2,0.2-0.3,0.2c0,0,0,0,0,0
				c0,0,0,0,0,0.1c0,0,0,0,0,0c0,0,0,0,0,0c-0.1,0.1-0.1,0.2-0.2,0.3c0,0,0,0,0,0c0,0,0,0,0,0c-0.1,0.1-0.1,0.3-0.2,0.4
				c-0.2,0.5-0.1,1,0,1.1c0,0,0.7,0.3,1.2,0.5c0.2,0.1,0.4,0.2,0.5,0.3H33V0z"/>
		</g>
		<path class="st3" d="M20.9,4.4c0.1,0,0.2,0,0.2,0.1c0,0.2-0.3,0.2-0.5,0.4h-0.1c-0.1,0,0,0.2-0.1,0.2c-0.1,0-0.1,0-0.2,0
			c0.1,0.1,0.2,0.2,0.3,0.1c0,0,0.1,0,0.1,0.1c0,0,0,0,0,0c0,0,0,0,0,0v0.1c-0.1,0.1-0.2,0-0.3,0.1c0.2,0,0.4,0,0.5,0
			c0.1,0,0-0.3,0.1-0.4c0,0,0-0.1,0-0.1c0,0,0.1-0.1,0.1-0.1c0,0,0.1,0,0.1-0.1c0,0-0.1-0.1-0.1-0.1c0.1-0.1,0.2-0.2,0.2-0.4
			c0-0.1-0.2-0.1-0.3-0.1c-0.1,0-0.2,0-0.4,0c-0.1,0-0.2,0.1-0.3,0.1c-0.2,0-0.3,0.1-0.4,0.2c0.2-0.1,0.3-0.1,0.5-0.1
			C20.6,4.4,20.7,4.3,20.9,4.4z"/>
	</g>
	<path class="st0" d="M46.7,15.5h1.9"/>
</g>
<g>
	<path class="st0" d="M0.1,18h2.3l2.2,3.7L6.7,18H9v9H7.2v-6.4l-2,3.3H3.9l-2-3.3V27H0.1V18z"/>
	<path class="st0" d="M11.6,18h1.8v9h-1.8V18z"/>
	<path class="st0" d="M16,18h2.3l4,6.5V18h1.8v9h-2.3l-4-6.5V27H16V18z"/>
	<path class="st0" d="M26.7,18h1.8v9h-1.8V18z"/>
	<path class="st0" d="M31.6,24.5c0.5,0.7,1.3,1.1,2,1.1c0.7,0,1.2-0.4,1.2-1c0-1.6-4.1-1.2-4.1-4.3c0-1.4,1.2-2.6,2.9-2.6
		c1.4,0,2.4,0.6,3.2,1.5l-1.3,1.2c-0.5-0.7-1.1-1.1-1.8-1.1c-0.6,0-1,0.4-1,0.9c0,1.6,4.1,1.2,4.1,4.3c0,1.7-1.3,2.7-3,2.7
		c-1.5,0-2.6-0.6-3.3-1.5L31.6,24.5z"/>
	<path class="st0" d="M37.6,18H45v1.7h-2.8V27h-1.8v-7.4h-2.8V18z"/>
	<path class="st0" d="M46.7,18h5.3v1.6h-3.4v2.1h2.9v1.6h-2.9v2.3h3.4V27h-5.3V18z M46.8,15.5h1.9l1.5,1.7h-1.7L46.8,15.5z"/>
	<path class="st0" d="M54.1,18h2.8c2,0,3.2,1,3.2,2.7c0,1.1-0.5,1.9-1.4,2.3l2.8,4h-2.2l-2.4-3.6h-0.9V27h-1.8V18z M55.9,19.6v2.3h1
		c0.8,0,1.2-0.4,1.2-1.1c0-0.7-0.5-1.1-1.2-1.1H55.9z"/>
	<path class="st0" d="M62.6,18h5.3v1.6h-3.4v2.1h2.9v1.6h-2.9v2.3h3.4V27h-5.3V18z"/>
	<path class="st0" d="M0.1,31h3.5c2.9,0,4.8,2.1,4.8,4.5C8.4,38,6.5,40,3.6,40H0.1V31z M1.9,32.7v5.7h1.7c1.7,0,2.9-1.2,2.9-2.8
		c0-1.6-1.2-2.8-2.9-2.8H1.9z"/>
	<path class="st0" d="M10.2,31h5.3v1.6H12v2.1h2.9v1.6H12v2.3h3.4V40h-5.3V31z"/>
	<path class="st0" d="M21,31h1.8v7.4h3.4V40H21V31z"/>
	<path class="st0" d="M30.6,31H33l3.4,9h-1.9l-0.9-2.3H30L29.1,40h-1.9L30.6,31z M33,36.1l-1.2-3.4l-1.2,3.4H33z"/>
	<path class="st0" d="M41.7,37.6c0.5,0.7,1.3,1.1,2,1.1c0.7,0,1.2-0.4,1.2-1c0-1.6-4.1-1.2-4.1-4.3c0-1.4,1.2-2.6,2.9-2.6
		c1.4,0,2.4,0.6,3.2,1.5l-1.3,1.2c-0.5-0.7-1.1-1.1-1.8-1.1c-0.6,0-1,0.4-1,0.9c0,1.6,4.1,1.2,4.1,4.3c0,1.7-1.3,2.7-3,2.7
		c-1.5,0-2.6-0.6-3.3-1.5L41.7,37.6z"/>
	<path class="st0" d="M50.9,31h2.4l3.4,9h-1.9l-0.9-2.3h-3.6L49.4,40h-1.9L50.9,31z M53.3,36.1l-1.2-3.4l-1.2,3.4H53.3z"/>
	<path class="st0" d="M58.2,31h2.3l4,6.5V31h1.8v9H64l-4-6.5V40h-1.8V31z"/>
	<path class="st0" d="M68,31h7.4v1.7h-2.8V40h-1.8v-7.4H68V31z"/>
	<path class="st0" d="M77,31h5.3v1.6h-3.4v2.1h2.9v1.6h-2.9v2.3h3.4V40H77V31z M78.8,30.3l1.5-1.7h1.9l-1.7,1.7H78.8z"/>
	<path class="st0" d="M0.1,44h5.3v1.6H1.9v2.1h2.9v1.6H1.9v2.3h3.4v1.6H0.1V44z"/>
	<path class="st0" d="M6.7,44h7.4v1.7h-2.8v7.4H9.5v-7.4H6.7V44z"/>
	<path class="st0" d="M19.2,44h3.5c2.9,0,4.8,2.1,4.8,4.5c0,2.4-1.9,4.5-4.8,4.5h-3.5V44z M21,45.7v5.7h1.7c1.7,0,2.9-1.2,2.9-2.8
		c0-1.6-1.2-2.8-2.9-2.8H21z"/>
	<path class="st0" d="M29.3,44h5.3v1.6h-3.4v2.1H34v1.6h-2.9v2.3h3.4v1.6h-5.3V44z"/>
	<path class="st0" d="M40.1,44h1.8v7.4h3.4v1.7h-5.3V44z"/>
	<path class="st0" d="M49.7,44h2.4l3.4,9h-1.9l-0.9-2.3h-3.6l-0.9,2.3h-1.9L49.7,44z M52.1,49.2l-1.2-3.4l-1.2,3.4H52.1z"/>
	<path class="st0" d="M60.3,44h3c2,0,3.2,1,3.2,2.7c0,1.7-1.2,2.7-3.2,2.7h-1.1v3.6h-1.8V44z M62.1,45.6v2.3h1.2
		c0.8,0,1.2-0.4,1.2-1.1c0-0.7-0.5-1.1-1.2-1.1H62.1z"/>
	<path class="st0" d="M68,44h2.8c2,0,3.2,1,3.2,2.7c0,1.1-0.5,1.9-1.4,2.3l2.8,4h-2.2l-2.4-3.6h-0.9v3.6H68V44z M69.9,45.6v2.3h1
		c0.8,0,1.2-0.4,1.2-1.1c0-0.7-0.5-1.1-1.2-1.1H69.9z"/>
	<path class="st0" d="M76.6,44h5.3v1.6h-3.4v2.1h2.9v1.6h-2.9v2.3h3.4v1.6h-5.3V44z M78.3,43.3l1.5-1.7h1.9L80,43.3H78.3z"/>
	<path class="st0" d="M84.8,44l2.7,7l2.7-7h1.9l-3.4,9h-2.4l-3.4-9H84.8z"/>
	<path class="st0" d="M93.5,44h5.3v1.6h-3.4v2.1h2.9v1.6h-2.9v2.3h3.4v1.6h-5.3V44z"/>
	<path class="st0" d="M101,44h2.3l4,6.5V44h1.8v9h-2.3l-4-6.5v6.5H101V44z"/>
	<path class="st0" d="M110.8,44h7.4v1.7h-2.8v7.4h-1.8v-7.4h-2.8V44z"/>
	<path class="st0" d="M119.8,44h1.8v9h-1.8V44z"/>
	<path class="st0" d="M133,48.6c0,2.6-1.9,4.8-4.8,4.8c-2.8,0-4.8-2.2-4.8-4.8c0-2.6,1.9-4.8,4.8-4.8C131.1,43.8,133,46,133,48.6z
		 M131.2,48.6c0-1.7-1.2-3.1-2.9-3.1c-1.7,0-2.9,1.3-2.9,3.1s1.2,3.1,2.9,3.1C129.9,51.6,131.2,50.3,131.2,48.6z"/>
	<path class="st0" d="M134.8,44h2.3l4,6.5V44h1.8v9h-2.3l-4-6.5v6.5h-1.8V44z"/>
</g>
</svg>
