<?xml version="1.0" encoding="utf-8"?><svg xmlns="http://www.w3.org/2000/svg" width="32" height="32" viewBox="0 0 32 32"><path d="M18.299 4.076a1.778 1.778 0 012.514 0L31.48 14.743a1.668 1.668 0 01.26.332 1.382 1.382 0 01.093.173l.04.092a1.914 1.914 0 01.091.303A1.764 1.764 0 0132 16l-.006-.152c.003.031.004.062.005.092l.001.059-.001.059a1.583 1.583 0 01-.019.205l-.016.092a1.507 1.507 0 01-.053.198 1.474 1.474 0 01-.078.198c-.017.037-.036.073-.055.109a2.03 2.03 0 01-.127.197 1.79 1.79 0 01-.172.199l.142-.161-.012.015-.13.145-10.667 10.667a1.778 1.778 0 01-2.514-2.514l7.63-7.634-24.151.002a1.778 1.778 0 01-1.766-1.57l-.012-.207c0-.982.796-1.778 1.778-1.778l24.151-.002-7.63-7.63a1.779 1.779 0 01-.148-2.347z"/></svg>