<?xml version="1.0" encoding="utf-8"?><svg xmlns="http://www.w3.org/2000/svg" width="32" height="32" viewBox="0 0 32 32"><path d="M7.057 7.057a1.332 1.332 0 011.885 0L22.666 20.78V12c0-.684.515-1.247 1.177-1.324l.156-.009c.736 0 1.333.597 1.333 1.333v12.045l-.005.068c-.001.029-.005.057-.009.085l-.012.069c-.007.029-.013.059-.021.087-.005.021-.012.041-.019.061a.741.741 0 01-.028.079.722.722 0 01-.031.069c-.012.028-.027.055-.041.081-.008.017-.019.033-.028.049a1.208 1.208 0 01-.196.248l.107-.12a1.318 1.318 0 01-.227.227l-.029.023c-.032.024-.065.045-.099.067l-.049.028a.879.879 0 01-.081.041 1.443 1.443 0 01-.069.031c-.025.011-.052.02-.079.029l-.061.017a1.107 1.107 0 01-.156.033 1.445 1.445 0 01-.199.015l.113-.005a.772.772 0 01-.069.005H12a1.333 1.333 0 010-2.666h8.78L7.057 8.942a1.335 1.335 0 01-.111-1.76l.111-.125z"/></svg>