<?xml version="1.0" encoding="utf-8"?><svg xmlns="http://www.w3.org/2000/svg" width="32" height="32" viewBox="0 0 32 32"><path d="M21.818 0c.803 0 1.455.651 1.455 1.455V2.91h2.909a4.364 4.364 0 014.364 4.364v20.364a4.364 4.364 0 01-4.364 4.364H5.818a4.364 4.364 0 01-4.364-4.364V7.274A4.364 4.364 0 015.818 2.91h2.909V1.455c0-.746.562-1.361 1.285-1.445l.17-.01c.803 0 1.455.651 1.455 1.455V2.91h8.727V1.455c0-.746.561-1.361 1.285-1.445zm5.818 14.546H4.363v13.091c0 .803.651 1.455 1.455 1.455h20.364c.803 0 1.455-.651 1.455-1.455V14.546zM8.727 5.818H5.818c-.803 0-1.455.651-1.455 1.455v4.364h23.273V7.273c0-.803-.651-1.455-1.455-1.455h-2.909v1.455c0 .746-.561 1.361-1.285 1.445l-.17.01a1.455 1.455 0 01-1.455-1.455V5.818h-8.727v1.455c0 .746-.562 1.361-1.285 1.445l-.17.01a1.455 1.455 0 01-1.455-1.455V5.818z"/></svg>