<?xml version="1.0" encoding="utf-8"?><svg xmlns="http://www.w3.org/2000/svg" width="32" height="32" viewBox="0 0 32 32"><path d="M16 15.293a2.623 2.623 0 110-5.246 2.623 2.623 0 010 5.246zM16 0C9.874 0 4.909 4.966 4.909 11.091V32h1.353c11.503 0 20.828-9.326 20.828-20.829v-.08C27.09 4.966 22.125 0 15.999 0zm0 17.954a5.29 5.29 0 005.284-5.284c0-2.913-2.371-5.283-5.284-5.283s-5.284 2.37-5.284 5.283A5.29 5.29 0 0016 17.954zm0-15.293c4.648 0 8.429 3.782 8.429 8.429v.08c0 9.578-7.45 17.448-16.859 18.122V11.091c0-4.648 3.782-8.429 8.429-8.429z"/></svg>