<?xml version="1.0" encoding="utf-8"?><svg xmlns="http://www.w3.org/2000/svg" width="32" height="32" viewBox="0 0 32 32"><path d="M9.6 0H4.8A4.8 4.8 0 000 4.8v4.8a1.6 1.6 0 103.2 0V4.8a1.6 1.6 0 011.6-1.6h4.8a1.6 1.6 0 100-3.2zM32 9.6V4.8A4.8 4.8 0 0027.2 0h-4.8a1.6 1.6 0 100 3.2h4.8a1.6 1.6 0 011.6 1.6v4.8a1.6 1.6 0 103.2 0zM22.4 32h4.8a4.8 4.8 0 004.8-4.8v-4.8a1.6 1.6 0 10-3.2 0v4.8a1.6 1.6 0 01-1.6 1.6h-4.8a1.6 1.6 0 100 3.2zM0 22.4v4.8A4.8 4.8 0 004.8 32h4.8a1.6 1.6 0 100-3.2H4.8a1.6 1.6 0 01-1.6-1.6v-4.8a1.6 1.6 0 10-3.2 0z"/></svg>