<?xml version="1.0" encoding="utf-8"?><svg xmlns="http://www.w3.org/2000/svg" width="32" height="32" viewBox="0 0 32 32"><path d="M20 2.667c.446 0 .862.223 1.109.594l2.271 3.406H28a4 4 0 014 4v14.667a4 4 0 01-4 4H4a4 4 0 01-4-4V10.667a4 4 0 014-4h4.62l2.271-3.406A1.333 1.333 0 0112 2.667h8zm-.714 2.666h-6.573l-2.271 3.406a1.333 1.333 0 01-1.109.594H4c-.736 0-1.333.597-1.333 1.333v14.667c0 .736.597 1.333 1.333 1.333h24c.736 0 1.333-.597 1.333-1.333V10.666c0-.736-.597-1.333-1.333-1.333h-5.333c-.446 0-.862-.223-1.109-.594l-2.271-3.406zM16 10.667a6.667 6.667 0 110 13.334 6.667 6.667 0 010-13.334zm0 2.666a4 4 0 100 8 4 4 0 000-8z"/></svg>