<?xml version="1.0" encoding="utf-8"?><svg xmlns="http://www.w3.org/2000/svg" width="32" height="32" viewBox="0 0 32 32"><path d="M22.4 0a1.6 1.6 0 011.131.469l8 8c.3.3.469.707.469 1.131v17.6a4.8 4.8 0 01-4.8 4.8H4.8A4.8 4.8 0 010 27.2V4.8A4.8 4.8 0 014.8 0h17.6zm-.663 3.2H9.6V8h11.2a1.6 1.6 0 110 3.2H8a1.6 1.6 0 01-1.6-1.6V3.2H4.8a1.6 1.6 0 00-1.6 1.6v22.4a1.6 1.6 0 001.6 1.6h1.6V17.6a1.6 1.6 0 011.413-1.589L8 16h16a1.6 1.6 0 011.6 1.6v11.2h1.6a1.6 1.6 0 001.6-1.6V10.263L21.737 3.2zm.663 16H9.6v9.6h12.8v-9.6z"/></svg>