<?xml version="1.0" encoding="utf-8"?><svg xmlns="http://www.w3.org/2000/svg" viewBox="0 0 32 32" width="32" height="32"><path d="M16 0c8.844 0 16 7.156 16 16s-7.156 16-16 16S0 24.844 0 16 7.156 0 16 0zm0 2.909c-7.23 0-13.091 5.862-13.091 13.092S8.77 29.093 16.001 29.093h.001c7.23 0 13.091-5.862 13.091-13.092S23.232 2.909 16.001 2.909H16zm0 2.909c.8 0 1.454.654 1.454 1.455v8.131l3.942 3.927c.567.567.567 1.498 0 2.066s-1.498.567-2.066 0l-4.364-4.364A1.501 1.501 0 0114.544 16V7.273c0-.8.655-1.455 1.455-1.455z"/></svg>