<svg viewBox="0 0 224 45" xmlns="http://www.w3.org/2000/svg"><g fill="none"><path d="m24.246 8.6c-2.74-6.697-10.199-10.046-16.668-7.458l14.233 34.934c2.74 6.697 10.198 10.046 16.667 7.458zm-16.896 16.668a6.626 6.626 0 0 0 -6.622 6.622v12.482h.838c6.85 0 12.481-5.556 12.481-12.482v-.076c0-3.577-2.968-6.546-6.697-6.546" fill="#706f6f"/><path d="m41.295 15.602v22.148a6.626 6.626 0 0 0 6.621 6.622 6.626 6.626 0 0 0 6.622-6.622v-5.708c0-.837-.305-1.674-.914-2.36l-12.33-14.08z" fill="#d60b52"/><path d="m83.383 44.448c-5.937 0-10.731-4.49-10.731-10.047v-14.689c2.74 2.816 6.545 4.49 10.655 4.643h.152c5.937 0 10.731 4.49 10.731 10.046-.076 5.556-4.87 10.047-10.807 10.047" fill="#1d71b8"/><path d="m67.02 29.835v-22.91a6.626 6.626 0 0 0 -6.622-6.62 6.626 6.626 0 0 0 -6.622 6.62v6.394c0 .913.305 1.827.914 2.512z" fill="#d60b52"/><path d="m93.353 17.657c-1.598-1.674-4.414-2.74-7.002-2.74h-.837c-4.338 0-7.763-3.272-7.763-7.306s3.5-7.307 7.763-7.307c4.338 0 7.763 3.273 7.763 7.307v10.046z" fill="#1d71b8"/><path d="m107.89.761h.533l5.708 12.025h-3.044l-.61-1.217h-4.642l-.533 1.217h-3.044zm1.522 8.829-1.37-2.968h-.076l-1.37 2.968zm10.428-8.829c2.13 0 3.652.761 4.87 2.055l-1.979 1.827c-.76-.685-1.826-1.142-2.892-1.142-2.055 0-3.425 1.522-3.425 3.501 0 2.131 1.523 3.501 3.501 3.501 2.055 0 3.045-1.142 3.12-2.283h-3.348v-2.436h6.393v1.142c0 3.425-2.055 6.317-6.24 6.317-3.73 0-6.318-2.74-6.318-6.241 0-3.425 2.588-6.24 6.317-6.24m7.078.456h7.687v2.511h-4.87v2.055h4.49v2.512h-4.49v2.131h5.099v2.435h-7.916zm9.286 0h3.044l4.49 6.926v-6.926h2.893v11.644h-2.969l-4.566-6.925v6.925h-2.892zm17.581-.457c2.207 0 3.73.837 5.023 2.131l-1.979 1.903c-.837-.761-1.902-1.294-3.044-1.294-2.055 0-3.425 1.522-3.425 3.501s1.37 3.501 3.425 3.501c1.142 0 2.207-.533 3.044-1.294l1.903 1.903a6.668 6.668 0 0 1 -4.947 2.131c-3.73 0-6.317-2.74-6.317-6.241 0-3.425 2.664-6.24 6.317-6.24m5.556.456h7.763v2.511h-4.87v2.055h4.49v2.512h-4.49v2.131h5.098v2.435h-7.991z" fill="#706f6f"/><path d="m102.79 16.592h4.035c3.424 0 6.088 2.511 6.088 5.784 0 3.12-2.36 5.86-6.088 5.86h-4.034v-11.643zm4.035 9.057c1.826 0 3.196-1.294 3.196-3.273 0-1.827-1.218-3.196-3.196-3.196h-1.142v6.469zm7.154-9.057h2.816v7.306c0 1.522.761 2.131 1.75 2.131 1.066 0 1.75-.532 1.75-2.13v-7.307h2.893v7.763c0 2.74-2.055 4.338-4.643 4.338-2.663 0-4.566-1.598-4.566-4.338zm15.678 0h3.045l4.49 6.926v-6.926h2.892v11.645h-3.044l-4.49-6.926v6.926h-2.893zm11.797 0h2.816v7.306c0 1.522.761 2.131 1.75 2.131 1.066 0 1.751-.532 1.751-2.13v-7.307h2.892v7.763c0 2.74-2.054 4.338-4.642 4.338-2.664 0-4.567-1.598-4.567-4.338zm11.036 0h2.664l2.968 6.317 3.045-6.317h2.587v11.645h-2.816v-5.177l-2.587 5.556h-.457l-2.512-5.632v5.252h-2.892zm13.167 0h7.687v2.511h-4.871v2.131h4.49v2.512h-4.49v2.131h5.1v2.436h-7.916zm3.349-1.75h2.435l-1.065 1.521h-1.98l.61-1.522zm5.936 1.75h4.871c2.512 0 4.11 1.522 4.11 3.73 0 2.054-1.065 3.196-2.74 3.652l3.12 4.339h-3.576l-2.969-4.339v4.339h-2.892v-11.721zm5.176 5.023c.609 0 1.065-.685 1.065-1.37s-.532-1.294-1.141-1.294h-2.208v2.664zm5.251-5.023h2.892v11.645h-2.892zm10.123-.381c3.653 0 6.317 2.816 6.317 6.241 0 1.599-.609 3.12-1.598 4.186l1.978 1.827h-3.653l-.38-.38c-.761.38-1.675.532-2.664.532-3.653 0-6.317-2.74-6.317-6.24 0-3.502 2.664-6.166 6.317-6.166m0 9.742h.38l-2.435-2.36h3.5l1.219 1.142a3.913 3.913 0 0 0 .76-2.283c0-1.979-1.37-3.577-3.424-3.577-2.055 0-3.425 1.598-3.425 3.577 0 1.903 1.37 3.501 3.425 3.501m8.296-9.361h2.816v7.306c0 1.522.76 2.131 1.75 2.131 1.066 0 1.75-.532 1.75-2.13v-7.307h2.893v7.763c0 2.74-2.055 4.338-4.643 4.338-2.664 0-4.566-1.598-4.566-4.338zm11.112 0h7.687v2.511h-4.871v2.131h4.49v2.436h-4.49v2.131h5.099v2.436h-7.915z" fill="#d60b52"/><path d="m102.79 31.966h7.764v2.511h-4.871v2.132h4.49v2.511h-4.49v2.055h5.023v2.436h-7.915zm9.286 0h3.044l4.567 6.926v-6.926h2.816v11.644h-2.968l-4.567-6.926v6.926h-2.892zm19.941 8.22c0 .685.532 1.217 1.217 1.217s1.142-.38 1.142-.989c0-.837-1.142-1.142-2.13-1.446-1.98-.685-3.045-1.598-3.045-3.653s1.75-3.806 3.957-3.806c2.588 0 3.806 1.675 3.958 3.806h-2.664c0-.685-.38-1.218-1.218-1.218-.608 0-1.217.38-1.217 1.142 0 .913 1.065 1.065 2.055 1.293 2.055.61 3.044 1.827 3.044 3.654 0 2.055-1.75 3.805-3.958 3.805-2.511 0-3.957-1.674-3.957-3.805zm10.807-8.601h.533l5.708 12.026h-3.044l-.61-1.218h-4.642l-.532 1.218h-3.045zm1.599 8.829-1.37-2.968h-.077l-1.37 2.968zm5.403-8.448h2.969l4.566 6.926v-6.926h2.816v11.644h-2.968l-4.567-6.926v6.926h-2.816zm14.309 2.511h-2.588v-2.511h8.144v2.511h-2.664v9.134h-2.892zm6.85-2.511h7.687v2.511h-4.872v2.132h4.49v2.511h-4.49v2.131h5.099v2.436h-7.915v-11.721zm3.348-1.75h2.436l-1.066 1.522h-1.978l.608-1.523z" fill="#1d71b8"/></g></svg>