<svg viewBox="0 0 92 83" xmlns="http://www.w3.org/2000/svg"><g fill="none"><path d="m21.771 8.071c-2.485-6.114-9.285-9.141-15.171-6.741l12.943 31.857c2.486 6.143 9.286 9.171 15.171 6.771zm-15.342 15.229a6.06 6.06 0 0 0 -6.059 6.057v11.4h.743c6.286 0 11.343-5.086 11.343-11.343v-.057c0-3.343-2.686-6.057-6.028-6.057z" fill="#6f7072"/><path d="m37.314 14.5v20.229a6.06 6.06 0 0 0 6.057 6.057 6.06 6.06 0 0 0 6.058-6.057v-5.2c0-.8-.286-1.572-.8-2.143z" fill="#d20050"/><path d="m75.657 40.757c-5.428 0-9.828-4.086-9.828-9.143v-13.371c2.514 2.543 6 4.057 9.685 4.228h.115c5.428 0 9.828 4.086 9.828 9.143.029 5.057-4.371 9.143-9.8 9.143z" fill="#4171b1"/><path d="m60.8 27.5v-20.943a6.06 6.06 0 0 0 -6.057-6.057 6.06 6.06 0 0 0 -6.057 6.057v5.8c0 .829.314 1.629.857 2.257z" fill="#d20050"/><path d="m84.8 16.329c-1.486-1.515-4.029-2.486-6.371-2.515h-.743c-3.915 0-7.115-2.971-7.115-6.657.029-3.686 3.2-6.657 7.143-6.657 3.915 0 7.115 2.971 7.115 6.657v9.172z" fill="#4171b1"/><path d="m4.314 48.814h.372l4.343 9.172h-2.343l-.457-.915h-3.459l-.428.915h-2.342zm1.229 6.715-1.029-2.259h-.028l-1.029 2.26h2.086zm7.914-6.715c1.657 0 2.772.6 3.714 1.543l-1.514 1.4c-.6-.543-1.371-.886-2.2-.886-1.571 0-2.6 1.172-2.6 2.686 0 1.657 1.172 2.686 2.657 2.686 1.543 0 2.315-.857 2.372-1.714h-2.543v-1.886h4.886v.857c0 2.629-1.543 4.8-4.772 4.8-2.8 0-4.8-2.086-4.8-4.743-.028-2.657 1.972-4.743 4.8-4.743zm5.372.315h5.885v1.914h-3.714v1.6h3.429v1.886h-3.429v1.6h3.857v1.857h-6.027zm7.085 0h2.286l3.457 5.285v-5.284h2.172v8.885h-2.259l-3.457-5.285v5.285h-2.171v-8.885zm13.429-.315c1.686 0 2.857.629 3.8 1.629l-1.486 1.428c-.628-.6-1.428-1-2.314-1-1.572 0-2.6 1.172-2.6 2.686s1.028 2.686 2.6 2.686c.886 0 1.686-.372 2.314-1l1.457 1.428c-.884.943-2.114 1.629-3.771 1.629-2.8 0-4.8-2.086-4.8-4.743-.029-2.657 1.971-4.743 4.8-4.743zm4.2.315h5.886v1.914h-3.715v1.6h3.429v1.886h-3.429v1.6h3.857v1.857h-6.057v-8.857z" fill="#6f7072"/><path d="m.486 60.843h3.084c2.629 0 4.658 1.914 4.658 4.428 0 2.372-1.8 4.458-4.658 4.458h-3.084zm3.028 6.886c1.4 0 2.457-.972 2.457-2.486 0-1.372-.942-2.457-2.457-2.457h-.857v4.943zm5.457-6.886h2.172v5.571c0 1.172.571 1.6 1.314 1.6.829 0 1.343-.428 1.343-1.6v-5.571h2.171v5.886c0 2.114-1.571 3.285-3.514 3.285-2.028 0-3.486-1.257-3.486-3.285zm11.972 0h2.286l3.457 5.286v-5.286h2.171v8.886h-2.286l-3.457-5.286v5.286h-2.171zm8.943 0h2.171v5.571c0 1.172.572 1.6 1.314 1.6.829 0 1.343-.428 1.343-1.6v-5.571h2.172v5.886c0 2.114-1.572 3.285-3.515 3.285-2.028 0-3.485-1.257-3.485-3.285zm8.428 0h2.029l2.257 4.8 2.286-4.8h2v8.886h-2.172v-3.943l-1.943 4.257h-.342l-1.943-4.286v3.972h-2.172zm10 0h5.886v1.914h-3.714v1.6h3.428v1.886h-3.428v1.6h3.857v1.857h-6.057v-8.857zm2.572-1.343h1.828l-.828 1.171h-1.486zm4.543 1.343h3.714c1.914 0 3.143 1.143 3.143 2.828 0 1.543-.772 2.429-2.115 2.743l2.4 3.315h-2.714l-2.257-3.315v3.315h-2.171zm3.914 3.857c.486 0 .828-.514.828-1.029 0-.514-.371-.971-.885-.971h-1.686v2zm4-3.857h2.171v8.886h-2.171zm7.743-.314c2.8 0 4.771 2.142 4.771 4.742a4.811 4.811 0 0 1 -1.2 3.2l1.486 1.372h-2.773l-.285-.257c-.6.257-1.286.428-2.029.428-2.8 0-4.771-2.114-4.771-4.714s2-4.771 4.8-4.771zm0 7.457c.114 0 .2 0 .314-.029l-1.857-1.8h2.657l.943.886a2.835 2.835 0 0 0 .571-1.743c0-1.486-1.028-2.714-2.6-2.714-1.571 0-2.6 1.228-2.6 2.714-.028 1.486 1 2.686 2.572 2.686zm6.285-7.143h2.172v5.571c0 1.172.571 1.6 1.314 1.6.829 0 1.343-.428 1.343-1.6v-5.571h2.171v5.886c0 2.114-1.571 3.285-3.514 3.285-2.028 0-3.486-1.257-3.486-3.285zm8.429 0h5.886v1.914h-3.716v1.6h3.43v1.886h-3.429v1.6h3.858v1.857h-6.059v-8.857z" fill="#d20050"/><path d="m.486 72.557h5.884v1.914h-3.713v1.6h3.429v1.886h-3.429v1.6h3.857v1.857h-6.028z" fill="#1d70b7"/><path d="m7.571 72.557h2.286l3.457 5.286v-5.286h2.172v8.886h-2.257l-3.459-5.286v5.286h-2.17v-8.886zm15.172 6.286c0 .514.428.943.914.943.543 0 .886-.315.886-.772 0-.657-.886-.857-1.6-1.114-1.486-.543-2.314-1.229-2.314-2.743 0-1.571 1.342-2.886 3.028-2.886 1.972 0 2.914 1.258 3.029 2.915h-2.057c0-.515-.315-.915-.915-.915-.485 0-.943.286-.943.858 0 .657.829.771 1.572 1 1.571.485 2.314 1.371 2.314 2.742 0 1.572-1.343 2.886-3 2.886-1.943 0-3.028-1.314-3.028-2.914zm8.228-6.572h.372l4.343 9.172h-2.343l-.457-.914h-3.516l-.428.914h-2.342zm1.2 6.686-1.028-2.257h-.029l-1.028 2.257zm4.115-6.4h2.285l3.458 5.286v-5.286h2.171v8.886h-2.257l-3.457-5.286v5.286h-2.2zm10.885 1.914h-1.971v-1.914h6.2v1.914h-2v6.972h-2.2v-6.973zm5.229-1.914h5.886v1.914h-3.716v1.6h3.43v1.886h-3.429v1.6h3.858v1.857h-6.059v-8.857h.029zm2.571-1.343h1.829l-.829 1.172h-1.485z" fill="#4171b1"/></g></svg>